<?xml version="1.0" encoding="UTF-8"?>
<svg width="500" height="638.24" viewBox="0 0 500 638.24" xmlns="http://www.w3.org/2000/svg">
<path d="m0 0v388.38c0.071019 138.02 111.98 249.87 250 249.87 138.02 0 249.93-111.85 250-249.87l-0.48456-388.38z" fill="#dc0d1d" stroke="none"/>
<path class="st0" d="m279.4 70.863c-34.581 0-69.107 13.14-95.441 39.53l6.5973 6.5973c48.985-49.041 128.7-49.041 177.69 0l6.5973-6.5973c-26.334-26.334-60.86-39.53-95.441-39.53zm29.082 26.39-2.4193 9.0165c17.428 4.6731 33.372 13.909 46.182 26.718 40.135 40.19 40.135 105.61 0 145.8l6.5975 6.5973c43.763-43.818 43.763-115.12 0-159-13.964-14.019-31.392-24.08-50.36-29.138zm-58.333 0.05585c-18.858 5.1129-36.231 15.173-50.139 29.082l6.5973 6.5973c12.755-12.755 28.644-21.991 45.962-26.665zm29.248 18.802c-11.655 0-23.037 2.2541-33.756 6.5973-11.106 4.5631-21.057 11.161-29.634 19.737-7.6418 7.6418-16.603 13.579-26.553 17.648-9.6211 3.9034-19.792 5.8822-30.238 5.8822-10.446 0-20.617-1.9788-30.238-5.8822-9.951-4.0134-18.913-9.9508-26.555-17.648l-6.5973 6.5973c8.5765 8.5765 18.528 15.229 29.634 19.737 10.776 4.3983 22.102 6.5973 33.756 6.5973 11.655 0 23.035-2.2541 33.756-6.5973 11.106-4.5631 21.057-11.161 29.634-19.737 7.6418-7.6418 16.604-13.579 26.555-17.648 9.6211-3.9034 19.792-5.8833 30.183-5.8833h0.0549c10.446 0 20.617 1.9798 30.238 5.8833 9.951 4.0134 18.912 9.9508 26.553 17.648 7.697 7.697 13.635 16.659 17.649 26.61 3.9034 9.6211 5.8822 19.792 5.8822 30.238 0 10.446-1.9788 20.617-5.8822 30.238-4.0684 10.006-10.007 18.966-17.649 26.608-7.642 7.642-16.603 13.581-26.553 17.649-9.6211 3.9034-19.792 5.8822-30.238 5.8822-10.446 0-20.617-1.9788-30.238-5.8822-9.951-4.0135-18.913-9.9519-26.555-17.649-4.2334-4.2333-9.1809-7.4766-14.679-9.7307-5.2779-2.1442-10.886-3.2439-16.659-3.2439-5.7177 0-11.325 1.0997-16.658 3.2439-5.4978 2.1991-10.446 5.4974-14.68 9.7307-4.2334 4.2334-7.4766 9.182-9.7307 14.68-2.1441 5.3328-3.2439 10.941-3.2439 16.713 0 5.7726 1.0998 11.38 3.2439 16.712 2.1991 5.4978 5.4974 10.446 9.7307 14.68 4.2333 4.2334 9.182 7.4766 14.68 9.7307 5.2779 2.1442 10.885 3.2439 16.658 3.2439 5.7726 0 11.381-1.0998 16.713-3.2439 5.4978-2.1991 10.446-5.4974 14.679-9.7307l-6.5973-6.5973c-6.5973 6.6524-15.394 10.281-24.74 10.281-9.3463 0-18.143-3.6831-24.74-10.281-6.5973-6.6524-10.226-15.449-10.226-24.795 0-9.4012 3.6284-18.198 10.226-24.795 6.5973-6.6524 15.394-10.281 24.74-10.281 9.3463 0 18.143 3.6831 24.74 10.281 8.5216 8.5765 18.528 15.229 29.634 19.737 10.776 4.3983 22.102 6.5973 33.756 6.5973 11.655 0 23.037-2.2541 33.756-6.5973 11.105-4.5631 21.057-11.161 29.634-19.737 8.5216-8.5765 15.173-18.528 19.681-29.689 4.3434-10.721 6.5426-22.1 6.5426-33.756 0-11.655-2.199-22.982-6.6522-33.756-4.5082-11.106-11.106-21.112-19.682-29.689-8.5216-8.5765-18.528-15.229-29.634-19.737-10.721-4.3983-22.046-6.5973-33.646-6.5973zm0 22.706c-17.923 0-34.746 6.9817-47.391 19.627l6.5973 6.5973c10.886-10.886 25.401-16.878 40.794-16.878 15.394 0 29.852 5.9921 40.739 16.878 22.486 22.541 22.486 59.155 0 81.643-22.486 22.486-59.047 22.486-81.533 0-26.114-26.169-68.613-26.169-94.727 0-26.114 26.169-26.114 68.668 0 94.837 12.7 12.645 29.524 19.627 47.391 19.627 17.923 0 34.746-6.9817 47.391-19.627 31.281-31.337 82.247-31.337 113.58 0 31.337 31.337 31.337 82.358 0 113.69-15.174 15.174-35.351 23.529-56.793 23.529-21.441 0-41.617-8.356-56.791-23.529-17.263-17.318-45.412-17.318-62.675 0-8.3566 8.4116-12.976 19.517-12.976 31.392 0 11.875 4.6191 23.035 12.976 31.392 8.6314 8.6314 20.012 12.975 31.337 12.975 11.326 0 22.651-4.2883 31.337-12.92l-6.5973-6.5973c-13.635 13.635-35.845 13.635-49.479 0-6.5973-6.6524-10.227-15.394-10.227-24.795 0-9.4012 3.6295-18.197 10.227-24.795 13.635-13.635 35.845-13.635 49.479 0 16.933 16.933 39.473 26.279 63.39 26.279 23.915 0 46.458-9.3456 63.39-26.279 34.967-35.02 34.967-91.978 0-126.95-34.967-34.967-91.813-34.967-126.78 0-10.886 10.941-25.401 16.934-40.794 16.934-15.449 0-29.907-6.0481-40.794-16.934-22.486-22.541-22.486-59.155 0-81.643 22.486-22.486 59.045-22.486 81.531 0 12.7 12.645 29.524 19.627 47.391 19.627 17.923 0 34.746-6.9817 47.391-19.627 26.114-26.169 26.114-68.668 0-94.837-12.7-12.645-29.468-19.627-47.391-19.627zm31.337 35.737-6.5973 6.5973c13.635 13.635 13.635 35.9 0 49.535-6.5973 6.6524-15.394 10.28-24.74 10.28-9.3463 0-18.143-3.6831-24.74-10.28-16.933-16.933-39.42-26.279-63.39-26.279-23.97 0-46.456 9.3467-63.39 26.279-16.933 16.933-26.279 39.475-26.279 63.445 0 23.97 9.3467 46.511 26.279 63.443 16.933 16.933 39.418 26.279 63.39 26.279 23.97 0 46.458-9.3467 63.39-26.279 22.486-22.486 59.045-22.486 81.531 0 22.486 22.541 22.486 59.155 0 81.643-22.486 22.486-59.045 22.486-81.531 0-26.114-26.169-68.613-26.169-94.727 0l6.5975 6.5973c22.486-22.486 59.047-22.486 81.533 0 13.085 13.085 30.238 19.628 47.391 19.628 17.153 0 34.305-6.543 47.336-19.628 26.114-26.169 26.114-68.668 0-94.837-26.114-26.169-68.613-26.169-94.727 0-15.174 15.174-35.351 23.531-56.793 23.531-21.441 0-41.617-8.3571-56.791-23.531-15.174-15.174-23.531-35.351-23.531-56.846 0-21.441 8.3571-41.674 23.531-56.848 31.281-31.337 82.247-31.337 113.58 0 8.3566 8.3566 19.517 12.975 31.337 12.975 11.82 0 22.98-4.618 31.337-12.975 17.263-17.263 17.263-45.412 0-62.73zm-15.284 179.56c-11.82 0-22.98 4.618-31.337 12.975l6.5973 6.5973c6.5973-6.6524 15.394-10.28 24.74-10.28 9.3458 0 18.143 3.6831 24.74 10.28 13.635 13.635 13.635 35.9 0 49.535-6.5973 6.6524-15.394 10.281-24.74 10.281-9.3458 0-18.143-3.6842-24.74-10.281l-6.5973 6.5973c8.3566 8.3566 19.517 12.975 31.337 12.975 11.819 0 22.98-4.618 31.337-12.975 17.263-17.263 17.263-45.412 0-62.73-8.3566-8.3566-19.517-12.975-31.337-12.975zm-88.136 110.81c-5.5459 0-11.098 2.1171-15.332 6.3502-8.4667 8.4667-8.4667 22.212 0 30.677l6.5973-6.5973c-4.7832-4.8381-4.7832-12.645 0-17.483 4.783-4.8381 12.644-4.8381 17.427 0l6.5973-6.5973c-4.2058-4.2334-9.7448-6.3502-15.291-6.3502z" fill="#fff" stroke="none"/></svg>
