<?xml version="1.0" encoding="utf-8"?>
<!-- Generator: Adobe Illustrator 27.2.0, SVG Export Plug-In . SVG Version: 6.00 Build 0)  -->
<svg version="1.1" id="Livello_1" xmlns="http://www.w3.org/2000/svg" xmlns:xlink="http://www.w3.org/1999/xlink" x="0px" y="0px"
	 viewBox="0 0 62.2 61.8" style="enable-background:new 0 0 62.2 61.8;" xml:space="preserve">
<style type="text/css">
	.st0{fill:none;}
	.st1{fill:#F9D339;}
</style>
<g>
	<path class="st0" d="M17.5,34.8c-1.6,0-3.2,1-3.2,3.2c0,2.2,1.6,4.2,3.2,4.2c1.6,0,3.2-2.1,3.2-4.2C20.8,35.8,19.1,34.8,17.5,34.8z
		"/>
	<path class="st0" d="M40.1,28.7c0,2.2,1.5,4.2,3.2,4.2s3.2-2,3.2-4.2c0-2.2-1.6-3.2-3.2-3.2C41.7,25.6,40.1,26.6,40.1,28.7z"/>
	<path class="st0" d="M27.7,15.5c1.6,0,3.2-2,3.2-4.2c0-2.2-1.6-3.2-3.2-3.2c-1.6,0-3.2,1-3.2,3.2C24.5,13.5,26,15.5,27.7,15.5z"/>
	<path class="st1" d="M17.5,32.5c-3.2,0-5.6,2.3-5.6,5.6c0,3.5,2.6,6.6,5.6,6.6c3,0,5.6-3.1,5.6-6.6C23.1,34.8,20.8,32.5,17.5,32.5z
		 M17.5,42.3c-1.6,0-3.2-2.1-3.2-4.2c0-2.2,1.6-3.2,3.2-3.2c1.6,0,3.2,1,3.2,3.2C20.8,40.2,19.2,42.3,17.5,42.3z"/>
	<path class="st1" d="M22,44.8C22,44.8,22,44.8,22,44.8l-8.9,0l-0.1,0h0l0,0c-3,0-5.4,2.4-5.4,5.4v4.5c0,0.6,0.5,1.2,1.2,1.2
		s1.2-0.5,1.2-1.2v-4.5c0-1.7,1.4-3,3-3.1l0.1,0h9c0,0,0,0,0.1,0c1.6,0,3,1.4,3,3.1v4.5c0,0.6,0.5,1.2,1.2,1.2
		c0.6,0,1.2-0.5,1.2-1.2v-4.5C27.5,47.3,25,44.8,22,44.8z"/>
	<path class="st1" d="M27.7,5.8c-3.2,0-5.5,2.3-5.5,5.5c0,3.5,2.6,6.5,5.5,6.5c2.9,0,5.5-3.1,5.5-6.5C33.2,8.1,30.9,5.8,27.7,5.8z
		 M27.7,15.5c-1.6,0-3.2-2-3.2-4.2c0-2.2,1.6-3.2,3.2-3.2c1.6,0,3.2,1,3.2,3.2C30.8,13.5,29.3,15.5,27.7,15.5z"/>
	<path class="st1" d="M12.3,19.4l9.3,7.6l0.1,6c0,0.6,0.5,1.1,1.2,1.1c0.7,0,1.2-0.6,1.2-1.2L24,26.6c0,0,0-0.1,0-0.1
		c0-0.4-0.1-0.8-0.4-1l-9.7-7.9c-0.3-0.3-0.5-0.6-0.6-1c0-0.4,0.1-0.8,0.3-1.1l0,0c0.3-0.4,0.7-0.6,1.2-0.6c0.3,0,0.7,0.1,0.9,0.3
		l6.1,5c0.2,0.3,0.5,0.4,0.9,0.4h9.8c0,0,0,0,0.1,0l0.1,0c0.1,0,0.1,0,0.2,0c0.1,0,0.2-0.1,0.2-0.1c0.1,0,0.1-0.1,0.2-0.1l6.3-5.2
		c0.3-0.2,0.6-0.3,0.9-0.3c0.5,0,0.9,0.2,1.2,0.6l0,0c0.3,0.3,0.4,0.7,0.3,1.1c0,0.4-0.2,0.8-0.6,1l-9.7,7.9l0,0l0,0
		c0,0-0.1,0.1-0.1,0.1c0,0,0,0.1-0.1,0.1c0,0,0,0.1-0.1,0.1c0,0,0,0.1-0.1,0.1c0,0,0,0.1,0,0.1c0,0,0,0.1,0,0.1c0,0,0,0.1,0,0.1
		c0,0,0,0.1,0,0.1c0,0,0,0,0,0.1v7.2c0,0.1,0,0.4,0,0.5v2.7l0,1.3c0,0.3,0.1,0.6,0.3,0.8c0.2,0.2,0.5,0.3,0.8,0.4
		c0.7,0,1.2-0.5,1.2-1.2l0-4c0-0.1,0-7.2,0-7.2l9.3-7.6c0.8-0.6,1.3-1.6,1.4-2.6c0.1-1-0.2-2-0.8-2.9l0,0c-0.7-0.9-1.8-1.4-3-1.4
		c-0.9,0-1.7,0.3-2.4,0.8l-6,4.9h-8.9l-6-4.9c-0.7-0.5-1.5-0.8-2.4-0.8c-1.2,0-2.3,0.5-3,1.4l0,0c-0.7,0.8-1,1.8-0.8,2.9
		C11,17.8,11.5,18.7,12.3,19.4z"/>
	<path class="st1" d="M43.3,23.2c-3.2,0-5.5,2.3-5.5,5.5c0,3.5,2.6,6.5,5.5,6.5s5.5-3.1,5.5-6.5C48.8,25.5,46.5,23.2,43.3,23.2z
		 M43.3,32.9c-1.6,0-3.2-2-3.2-4.2c0-2.2,1.6-3.2,3.2-3.2c1.6,0,3.2,1,3.2,3.2C46.4,30.9,44.9,32.9,43.3,32.9z"/>
	<path class="st1" d="M57.1,43.7l-5.9-6.5c-0.2-0.2-1.2-1.4-3-1.7c-0.1-0.1-0.3-0.1-0.4-0.1h-0.5l0,0h0l0,0l-7.8,0
		c-2.4,0-3.8,1.5-4,1.8l-6.7,7.4l0,0c-1.1,1.3-1,3.3,0.2,4.5l0,0c0.6,0.6,1.5,1,2.4,1l0.1,0c0.9,0,1.8-0.4,2.4-1.1l4-4.4l0,4.9
		c0,0.1,0,5.2,0,5.2c0,0.6,0.5,1.2,1.2,1.2c0.3,0,0.6-0.1,0.8-0.3c0.2-0.2,0.3-0.5,0.3-0.8l0-5.2l0-7.9c0-0.1,0-0.1,0-0.1
		c0-0.1,0-0.1,0-0.1c0,0,0-0.1,0-0.1l0,0c0,0,0-0.1,0-0.1c0,0,0,0,0-0.1l0,0c0,0,0-0.1,0-0.1c0,0,0,0,0-0.1c0-0.1-0.1-0.1-0.1-0.1
		c0,0,0,0-0.1-0.1c-0.1,0-0.1-0.1-0.1-0.1c0,0-0.1,0-0.1,0c-0.1,0-0.1,0-0.1-0.1c0,0-0.1,0-0.1,0c0,0-0.1,0-0.1,0c0,0-0.1,0-0.1,0
		c0,0-0.1,0-0.1,0c-0.1,0-0.1,0-0.1,0c-0.1,0-0.1,0-0.1,0c0,0-0.1,0-0.1,0l0,0c0,0-0.1,0-0.1,0c0,0-0.1,0-0.1,0l0,0c0,0-0.1,0-0.1,0
		c0,0,0,0-0.1,0.1c-0.1,0-0.1,0.1-0.1,0.1L32,47.5c-0.2,0.2-0.4,0.3-0.7,0.3l-0.1,0c-0.3,0-0.5-0.1-0.7-0.3c0,0,0,0,0,0c0,0,0,0,0,0
		c-0.4-0.4-0.4-0.9-0.1-1.3l6.8-7.4c0,0,0.1-0.1,0.1-0.1c0,0,0.7-0.9,2.2-0.9h7.8c1.4,0,2.1,0.9,2.1,0.9c0,0,0,0.1,0.1,0.1l5.9,6.5
		c0.2,0.2,0.5,0.4,0.9,0.4c0.3,0,0.6-0.1,0.8-0.3c0.2-0.2,0.4-0.5,0.4-0.8C57.4,44.3,57.3,44,57.1,43.7z"/>
	<path class="st1" d="M48.7,41.1c-0.2-0.3-0.5-0.5-0.9-0.6c0,0-0.1,0-0.1,0c-0.3,0-0.6,0.1-0.8,0.3c-0.3,0.3-0.4,0.7-0.3,1.2l0,7.6
		c0,0.6,0.5,1.2,1.2,1.2c0.6,0,1.2-0.5,1.2-1.2l0-4.8l3.2,3.5c0.2,0.2,0.5,0.4,0.9,0.4c0.3,0,0.6-0.1,0.8-0.3
		c0.5-0.4,0.5-1.2,0.1-1.7L48.7,41.1z"/>
</g>
</svg>
