<?xml version="1.0" encoding="utf-8"?>
<!-- Generator: Adobe Illustrator 27.2.0, SVG Export Plug-In . SVG Version: 6.00 Build 0)  -->
<svg version="1.1" id="Livello_1" xmlns="http://www.w3.org/2000/svg" xmlns:xlink="http://www.w3.org/1999/xlink" x="0px" y="0px"
	 viewBox="0 0 62.2 61.8" style="enable-background:new 0 0 62.2 61.8;" xml:space="preserve">
<style type="text/css">
	.st0{fill:#FAD439;}
	.st1{fill:#FAD439;stroke:#FAD439;stroke-width:0.7;stroke-miterlimit:10;}
	.st2{fill:#FFFFFF;stroke:#FAD439;stroke-width:2.5948;stroke-linecap:round;stroke-linejoin:round;stroke-miterlimit:10;}
	.st3{fill:#F5BD40;stroke:#212850;stroke-width:1.8308;stroke-linecap:round;stroke-linejoin:round;stroke-miterlimit:10;}
</style>
<g>
	<g>
		<g>
			<g>
				<g>
					<path class="st0" d="M10.6,17.9c-0.7,0-1.2-0.6-1.2-1.2c0-0.6,0.5-1.2,1.1-1.2c0.4-0.4,1.4-2.5,1.4-6.2c0-3.4-0.8-5.5-1.2-6.1
						c-0.5,0.6-1.2,2.7-1.2,6.1c0,0.7-0.6,1.2-1.2,1.2c-0.7,0-1.2-0.6-1.2-1.2c0-4.3,1.2-8.7,3.7-8.7c2.6,0,3.7,4.4,3.7,8.7
						C14.4,13.5,13.2,17.9,10.6,17.9z"/>
				</g>
				<g>
					<path class="st0" d="M23,17.9c-0.7,0-1.2-0.6-1.2-1.2c0-0.6,0.5-1.2,1.1-1.2c0.4-0.4,1.4-2.5,1.4-6.2c0-3.4-0.8-5.5-1.2-6.1
						c-0.5,0.6-1.2,2.7-1.2,6.1c0,0.7-0.6,1.2-1.2,1.2s-1.2-0.6-1.2-1.2c0-4.3,1.1-8.7,3.7-8.7c2.6,0,3.7,4.4,3.7,8.7
						C26.8,13.5,25.6,17.9,23,17.9z"/>
				</g>
				<g>
					<path class="st0" d="M35.4,17.9c-0.7,0-1.2-0.6-1.2-1.2c0-0.6,0.5-1.2,1.1-1.2c0.4-0.4,1.4-2.5,1.4-6.2c0-3.4-0.8-5.5-1.2-6.1
						c-0.5,0.6-1.2,2.7-1.2,6.1c0,0.7-0.6,1.2-1.2,1.2c-0.7,0-1.2-0.6-1.2-1.2c0-4.3,1.2-8.7,3.7-8.7c2.6,0,3.7,4.4,3.7,8.7
						C39.2,13.5,38,17.9,35.4,17.9z"/>
				</g>
				<g>
					<path class="st0" d="M35.4,21.6c-2.7,0-5-2.2-5-5c0-2.7,2.2-5,5-5c2.7,0,5,2.2,5,5C40.4,19.4,38.2,21.6,35.4,21.6z M35.4,14.1
						c-1.4,0-2.5,1.1-2.5,2.5c0,1.4,1.1,2.5,2.5,2.5c1.4,0,2.5-1.1,2.5-2.5C37.9,15.2,36.8,14.1,35.4,14.1z"/>
				</g>
				<g>
					<path class="st0" d="M23,21.6c-2.7,0-5-2.2-5-5c0-2.7,2.2-5,5-5c2.7,0,5,2.2,5,5C28,19.4,25.8,21.6,23,21.6z M23,14.1
						c-1.4,0-2.5,1.1-2.5,2.5c0,1.4,1.1,2.5,2.5,2.5c1.4,0,2.5-1.1,2.5-2.5C25.5,15.2,24.4,14.1,23,14.1z"/>
				</g>
				<g>
					<path class="st0" d="M10.6,21.6c-2.7,0-5-2.2-5-5c0-2.7,2.2-5,5-5c2.7,0,5,2.2,5,5C15.6,19.4,13.4,21.6,10.6,21.6z M10.6,14.1
						c-1.4,0-2.5,1.1-2.5,2.5c0,1.4,1.1,2.5,2.5,2.5c1.4,0,2.5-1.1,2.5-2.5C13.1,15.2,12,14.1,10.6,14.1z"/>
				</g>
				<g>
					<path class="st0" d="M33.5,51.3H2c-0.7,0-1.2-0.6-1.2-1.2V9.2c0-0.7,0.6-1.2,1.2-1.2h42.2c0.7,0,1.2,0.6,1.2,1.2V33
						c0,0.6-0.4,1.1-1,1.2c-5.9,1.1-10.1,6.2-10.1,12.2c0,1.2,0.2,2.3,0.5,3.4c0.1,0.4,0,0.8-0.2,1.1C34.2,51.2,33.9,51.3,33.5,51.3
						z M3.2,48.9h28.7c-0.1-0.8-0.2-1.6-0.2-2.5c0-6.8,4.6-12.7,11.2-14.4V10.4H3.2V48.9z"/>
				</g>
				<g>
					<path class="st0" d="M46.6,61.3c-8.2,0-14.9-6.7-14.9-14.9c0-8.2,6.7-14.9,14.9-14.9c8.2,0,14.9,6.7,14.9,14.9
						C61.5,54.6,54.8,61.3,46.6,61.3z M46.6,34c-6.8,0-12.4,5.6-12.4,12.4c0,6.8,5.6,12.4,12.4,12.4S59,53.2,59,46.4
						C59,39.5,53.5,34,46.6,34z"/>
				</g>
				<g>
					<path class="st0" d="M40.4,53.8c-0.3,0-0.6-0.1-0.9-0.4c-0.5-0.5-0.5-1.3,0-1.8l12.4-12.4c0.5-0.5,1.3-0.5,1.8,0
						c0.5,0.5,0.5,1.3,0,1.8L41.3,53.5C41,53.7,40.7,53.8,40.4,53.8z"/>
				</g>
				<g>
					<path class="st0" d="M52.8,53.8c-0.3,0-0.6-0.1-0.9-0.4L39.5,41.1c-0.5-0.5-0.5-1.3,0-1.8c0.5-0.5,1.3-0.5,1.8,0l12.4,12.4
						c0.5,0.5,0.5,1.3,0,1.8C53.4,53.7,53.1,53.8,52.8,53.8z"/>
				</g>
			</g>
			<g>
				<path class="st0" d="M39.2,26.5H6.9c-0.7,0-1.2-0.6-1.2-1.2c0-0.7,0.6-1.2,1.2-1.2h32.3c0.7,0,1.2,0.6,1.2,1.2
					C40.4,26,39.9,26.5,39.2,26.5z"/>
			</g>
			<g>
				<path class="st0" d="M39.2,31.5H6.9c-0.7,0-1.2-0.6-1.2-1.2c0-0.7,0.6-1.2,1.2-1.2h32.3c0.7,0,1.2,0.6,1.2,1.2
					C40.4,30.9,39.9,31.5,39.2,31.5z"/>
			</g>
			<g>
				<path class="st0" d="M33,36.5H6.9c-0.7,0-1.2-0.6-1.2-1.2c0-0.7,0.6-1.2,1.2-1.2H33c0.7,0,1.2,0.6,1.2,1.2
					C34.2,35.9,33.7,36.5,33,36.5z"/>
			</g>
			<g>
				<path class="st0" d="M29.2,41.4H6.9c-0.7,0-1.2-0.6-1.2-1.2c0-0.7,0.6-1.2,1.2-1.2h22.3c0.7,0,1.2,0.6,1.2,1.2
					C30.5,40.9,29.9,41.4,29.2,41.4z"/>
			</g>
			<g>
				<path class="st0" d="M28,46.4H6.9c-0.7,0-1.2-0.6-1.2-1.2c0-0.7,0.6-1.2,1.2-1.2H28c0.7,0,1.2,0.6,1.2,1.2
					C29.2,45.8,28.7,46.4,28,46.4z"/>
			</g>
		</g>
	</g>
</g>
</svg>
