<?xml version="1.0" encoding="utf-8"?>
<!-- Generator: Adobe Illustrator 23.0.1, SVG Export Plug-In . SVG Version: 6.00 Build 0)  -->
<svg version="1.1" id="Livello_1" xmlns="http://www.w3.org/2000/svg" xmlns:xlink="http://www.w3.org/1999/xlink" x="0px" y="0px"
	 viewBox="0 0 187 95" style="enable-background:new 0 0 187 95;" xml:space="preserve">
<style type="text/css">
	.st0{fill:#062A3E;}
	.st1{fill-rule:evenodd;clip-rule:evenodd;fill:#062A3E;}
	.st2{fill-rule:evenodd;clip-rule:evenodd;fill:#FFFFFF;}
</style>
<g>
	<path class="st0" d="M1.8,91V79.6h1.5v10.1h5.6V91H1.8z"/>
	<path class="st0" d="M18.8,91l4.4-11.4h1.6L29.5,91h-1.7l-1.3-3.5h-4.8L20.4,91H18.8z M22.1,86.3H26l-1.2-3.2
		c-0.4-1-0.6-1.8-0.8-2.4c-0.1,0.7-0.4,1.5-0.6,2.2L22.1,86.3z"/>
	<path class="st0" d="M53.9,91V79.6h1.5v10.1H61V91H53.9z"/>
	<path class="st0" d="M70.9,91l4.4-11.4h1.6L81.6,91h-1.7l-1.3-3.5h-4.8L72.5,91H70.9z M74.2,86.3h3.9l-1.2-3.2
		c-0.4-1-0.6-1.8-0.8-2.4c-0.1,0.7-0.4,1.5-0.6,2.2L74.2,86.3z"/>
	<path class="st0" d="M92.2,91V79.6h2.3l2.7,8.1c0.2,0.8,0.4,1.3,0.5,1.7c0.1-0.4,0.3-1,0.6-1.8l2.7-7.9h2V91h-1.5v-9.6L98.3,91
		h-1.4l-3.3-9.7V91H92.2z"/>
	<path class="st0" d="M114.9,91V79.6h4.3c0.8,0,1.3,0,1.7,0.1c0.6,0.1,1,0.3,1.4,0.5c0.4,0.3,0.7,0.6,0.9,1.1c0.2,0.5,0.3,1,0.3,1.6
		c0,1-0.3,1.8-0.9,2.5c-0.6,0.7-1.7,1-3.3,1h-2.9V91H114.9z M116.4,85h3c1,0,1.7-0.2,2.1-0.5s0.6-0.9,0.6-1.5c0-0.5-0.1-0.9-0.4-1.2
		s-0.6-0.6-1-0.7c-0.3-0.1-0.7-0.1-1.4-0.1h-2.9V85z"/>
	<path class="st0" d="M133.7,91l4.4-11.4h1.6l4.7,11.4h-1.7l-1.3-3.5h-4.8l-1.3,3.5H133.7z M137,86.3h3.9l-1.2-3.2
		c-0.4-1-0.6-1.8-0.8-2.4c-0.1,0.7-0.4,1.5-0.6,2.2L137,86.3z"/>
	<path class="st0" d="M155,91V79.6h5.1c1,0,1.8,0.1,2.3,0.3c0.5,0.2,1,0.6,1.3,1.1c0.3,0.5,0.5,1.1,0.5,1.7c0,0.8-0.3,1.5-0.8,2
		s-1.3,0.9-2.4,1.1c0.4,0.2,0.7,0.4,0.9,0.6c0.4,0.4,0.9,0.9,1.3,1.5l2,3.1h-1.9l-1.5-2.4c-0.4-0.7-0.8-1.2-1.1-1.6
		c-0.3-0.4-0.5-0.6-0.8-0.8c-0.2-0.1-0.5-0.2-0.7-0.3c-0.2,0-0.5-0.1-0.8-0.1h-1.8V91H155z M156.5,84.6h3.2c0.7,0,1.2-0.1,1.6-0.2
		c0.4-0.1,0.7-0.4,0.9-0.7c0.2-0.3,0.3-0.7,0.3-1c0-0.5-0.2-1-0.6-1.3c-0.4-0.3-1-0.5-1.9-0.5h-3.6V84.6z"/>
	<path class="st0" d="M174.6,91l4.4-11.4h1.6l4.7,11.4h-1.7l-1.3-3.5h-4.8l-1.3,3.5H174.6z M177.9,86.3h3.9l-1.2-3.2
		c-0.4-1-0.6-1.8-0.8-2.4c-0.1,0.7-0.4,1.5-0.6,2.2L177.9,86.3z"/>
</g>
<g>
	<path class="st1" d="M94.3,7.3c0.5-1.3,1.5-3.9,1.5-4.6c-0.1-0.9-1.3-1.6-2.8-1.6s-2.7,0.7-2.8,1.6c0,0.7,0.9,3.2,1.5,4.6
		c-0.5,0.1-0.9,0.7-0.9,1.3c0,0.7,0.4,1.3,0.9,1.3l-0.5,3.8h3.6L94.2,10c0.5-0.1,0.9-0.7,0.9-1.3C95.2,8,94.8,7.5,94.3,7.3z"/>
	<path class="st1" d="M95.2,27.9c0,0.8-0.7,1.3-1.3,1.3h-1.7c-0.8,0-1.3-0.7-1.3-1.3v-5.5c0-0.8,0.7-1.3,1.3-1.3h1.7
		c0.8,0,1.3,0.7,1.3,1.3V27.9z"/>
	<rect x="92.1" y="11.6" class="st1" width="1.7" height="19.7"/>
	<path class="st1" d="M91.7,66.4c-0.5,1.3-1.5,3.9-1.5,4.6c0.1,0.9,1.3,1.6,2.8,1.6c1.5,0,2.7-0.7,2.8-1.6c0-0.7-0.9-3.2-1.5-4.6
		c0.5-0.1,0.9-0.7,0.9-1.3c0-0.7-0.4-1.3-0.9-1.3L95,60h-3.6l0.5,3.8c-0.5,0.1-0.9,0.7-0.9,1.3C90.8,65.6,91.2,66.3,91.7,66.4z"/>
	<path class="st1" d="M90.8,45.9c0-0.8,0.7-1.3,1.3-1.3h1.7c0.8,0,1.3,0.7,1.3,1.3v5.5c0,0.8-0.7,1.3-1.3,1.3h-1.7
		c-0.8,0-1.3-0.7-1.3-1.3V45.9z"/>
	<rect x="92.1" y="42.2" class="st1" width="1.7" height="19.7"/>
	<path class="st1" d="M63.4,35.5c-1.3-0.5-3.9-1.5-4.6-1.5c-0.9,0.1-1.6,1.3-1.6,2.8c0,1.5,0.7,2.7,1.6,2.8c0.7,0,3.2-0.9,4.6-1.5
		c0.1,0.5,0.7,0.9,1.3,0.9c0.7,0,1.3-0.4,1.3-0.9l3.8,0.5v-3.6l-3.8,0.5c-0.1-0.5-0.7-0.9-1.3-0.9C64.2,34.6,63.6,35,63.4,35.5z"/>
	<path class="st1" d="M84,34.6c0.8,0,1.3,0.7,1.3,1.3v1.7c0,0.8-0.7,1.3-1.3,1.3h-5.5c-0.8,0-1.3-0.7-1.3-1.3v-1.7
		c0-0.8,0.7-1.3,1.3-1.3H84z"/>
	<rect x="67.8" y="35.9" class="st1" width="19.7" height="1.7"/>
	<path class="st1" d="M122.5,38.1c1.3,0.5,3.9,1.5,4.6,1.5c0.9-0.1,1.6-1.3,1.6-2.8c0-1.5-0.7-2.7-1.6-2.8c-0.7,0-3.2,0.9-4.6,1.5
		c-0.1-0.5-0.7-0.9-1.3-0.9c-0.7,0-1.3,0.4-1.3,0.9l-3.8-0.5v3.8l3.8-0.5c0.1,0.5,0.7,0.9,1.3,0.9C121.8,39,122.4,38.6,122.5,38.1z"
		/>
	<path class="st1" d="M101.9,39c-0.8,0-1.3-0.7-1.3-1.3v-1.7c0-0.8,0.7-1.3,1.3-1.3h5.5c0.8,0,1.3,0.7,1.3,1.3v1.7
		c0,0.8-0.7,1.3-1.3,1.3H101.9z"/>
	<rect x="98.5" y="35.9" class="st1" width="19.7" height="1.7"/>
	<path class="st1" d="M94.3,7.3c0.5-1.3,1.5-3.9,1.5-4.6c-0.1-0.9-1.3-1.6-2.8-1.6s-2.7,0.7-2.8,1.6c0,0.7,0.9,3.2,1.5,4.6
		c-0.5,0.1-0.9,0.7-0.9,1.3c0,0.7,0.4,1.3,0.9,1.3l-0.5,3.8h3.6L94.2,10c0.5-0.1,0.9-0.7,0.9-1.3C95.2,8,94.8,7.5,94.3,7.3z"/>
	<path class="st1" d="M95.2,27.9c0,0.8-0.7,1.3-1.3,1.3h-1.7c-0.8,0-1.3-0.7-1.3-1.3v-5.5c0-0.8,0.7-1.3,1.3-1.3h1.7
		c0.8,0,1.3,0.7,1.3,1.3V27.9z"/>
	<rect x="92.1" y="11.6" class="st1" width="1.7" height="19.7"/>
	<path class="st1" d="M91.7,66.4c-0.5,1.3-1.5,3.9-1.5,4.6c0.1,0.9,1.3,1.6,2.8,1.6c1.5,0,2.7-0.7,2.8-1.6c0-0.7-0.9-3.2-1.5-4.6
		c0.5-0.1,0.9-0.7,0.9-1.3c0-0.7-0.4-1.3-0.9-1.3L95,60h-3.6l0.5,3.8c-0.5,0.1-0.9,0.7-0.9,1.3C90.8,65.6,91.2,66.3,91.7,66.4z"/>
	<path class="st1" d="M90.8,45.9c0-0.8,0.7-1.3,1.3-1.3h1.7c0.8,0,1.3,0.7,1.3,1.3v5.5c0,0.8-0.7,1.3-1.3,1.3h-1.7
		c-0.8,0-1.3-0.7-1.3-1.3V45.9z"/>
	<rect x="92.1" y="42.2" class="st1" width="1.7" height="19.7"/>
	<path class="st1" d="M63.4,35.5c-1.3-0.5-3.9-1.5-4.6-1.5c-0.9,0.1-1.6,1.3-1.6,2.8c0,1.5,0.7,2.7,1.6,2.8c0.7,0,3.2-0.9,4.6-1.5
		c0.1,0.5,0.7,0.9,1.3,0.9c0.7,0,1.3-0.4,1.3-0.9l3.8,0.5v-3.6l-3.8,0.5c-0.1-0.5-0.7-0.9-1.3-0.9C64.2,34.6,63.6,35,63.4,35.5z"/>
	<path class="st1" d="M84,34.6c0.8,0,1.3,0.7,1.3,1.3v1.7c0,0.8-0.7,1.3-1.3,1.3h-5.5c-0.8,0-1.3-0.7-1.3-1.3v-1.7
		c0-0.8,0.7-1.3,1.3-1.3H84z"/>
	<rect x="67.8" y="35.9" class="st1" width="19.7" height="1.7"/>
	<path class="st1" d="M122.5,38.1c1.3,0.5,3.9,1.5,4.6,1.5c0.9-0.1,1.6-1.3,1.6-2.8c0-1.5-0.7-2.7-1.6-2.8c-0.7,0-3.2,0.9-4.6,1.5
		c-0.1-0.5-0.7-0.9-1.3-0.9c-0.7,0-1.3,0.4-1.3,0.9l-3.8-0.5v3.8l3.8-0.5c0.1,0.5,0.7,0.9,1.3,0.9C121.8,39,122.4,38.6,122.5,38.1z"
		/>
	<path class="st1" d="M101.9,39c-0.8,0-1.3-0.7-1.3-1.3v-1.7c0-0.8,0.7-1.3,1.3-1.3h5.5c0.8,0,1.3,0.7,1.3,1.3v1.7
		c0,0.8-0.7,1.3-1.3,1.3H101.9z"/>
	<rect x="98.5" y="35.9" class="st1" width="19.7" height="1.7"/>
	<path class="st1" d="M73.1,15c-0.5-1.3-1.6-3.8-2.1-4.3c-0.7-0.5-2-0.1-3.1,0.8c-1.1,1.1-1.5,2.4-0.8,3.1c0.4,0.5,3,1.6,4.3,2.1
		c-0.3,0.4-0.1,1.2,0.3,1.6c0.5,0.5,1.2,0.7,1.6,0.3l2.3,3.1l1.3-1.3l1.3-1.3l-3.1-2.3c0.3-0.4,0.3-1.2-0.3-1.6
		C74.2,14.9,73.5,14.7,73.1,15z"/>
	<path class="st1" d="M88.3,29c0.5,0.5,0.5,1.3,0,1.9L87,32.1c-0.5,0.5-1.3,0.5-1.9,0l-3.9-3.9c-0.5-0.5-0.5-1.3,0-1.9l1.2-1.2
		c0.5-0.5,1.3-0.5,1.9,0L88.3,29z"/>
	<rect x="81.3" y="16.2" transform="matrix(0.7071 -0.7071 0.7071 0.7071 5.6242 65.7549)" class="st1" width="1.7" height="19.7"/>
	<path class="st1" d="M113,58.6c0.5,1.3,1.6,3.8,2.2,4.3c0.7,0.5,2,0.1,3.1-0.8c1.1-1.1,1.5-2.4,0.8-3.1c-0.4-0.5-3-1.6-4.3-2.1
		c0.3-0.4,0.1-1.2-0.3-1.6c-0.5-0.5-1.2-0.7-1.6-0.3l-2.3-3.1l-1.3,1.3l-1.3,1.3l3.1,2.3c-0.3,0.4-0.3,1.2,0.3,1.6
		C111.7,58.8,112.6,58.9,113,58.6z"/>
	<path class="st1" d="M97.8,44.8c-0.5-0.5-0.5-1.3,0-1.9l1.2-1.2c0.5-0.5,1.3-0.5,1.9,0l3.9,3.9c0.5,0.5,0.5,1.3,0,1.9l-1.2,1.2
		c-0.5,0.5-1.3,0.5-1.9,0L97.8,44.8z"/>
	<rect x="102.9" y="37.7" transform="matrix(0.709 -0.7052 0.7052 0.709 -3.3501 87.0582)" class="st1" width="1.7" height="19.7"/>
	<path class="st1" d="M71.2,56.7c-1.3,0.5-3.8,1.6-4.3,2.1c-0.5,0.7-0.1,2,0.8,3.1c1.1,1.1,2.4,1.5,3.1,0.8c0.5-0.4,1.6-3,2.1-4.3
		c0.4,0.3,1.2,0.1,1.6-0.3c0.5-0.5,0.7-1.2,0.3-1.6l3.1-2.3L76.6,53l-1.3-1.3l-2.3,3.1c-0.4-0.3-1.2-0.3-1.6,0.3
		C71.1,55.7,70.9,56.3,71.2,56.7z"/>
	<path class="st1" d="M85,41.6c0.5-0.5,1.3-0.5,1.9,0l1.2,1.2c0.5,0.5,0.5,1.3,0,1.9l-3.9,3.9c-0.5,0.5-1.3,0.5-1.9,0l-1.2-1.2
		c-0.5-0.5-0.5-1.3,0-1.9L85,41.6z"/>
	<rect x="72.4" y="46.8" transform="matrix(0.7052 -0.709 0.709 0.7052 -9.5336 72.3801)" class="st1" width="19.7" height="1.7"/>
	<path class="st1" d="M114.8,16.9c1.3-0.5,3.9-1.6,4.3-2.1c0.5-0.7,0.1-2-0.8-3.1c-1.1-1.1-2.4-1.5-3.1-0.8c-0.5,0.4-1.6,3-2.2,4.3
		c-0.4-0.3-1.2-0.1-1.6,0.3c-0.5,0.5-0.7,1.2-0.3,1.6l-3.1,2.3l2.7,2.7l2.3-3.1c0.4,0.3,1.2,0.3,1.6-0.3
		C115,18.1,115.1,17.3,114.8,16.9z"/>
	<path class="st1" d="M100.9,32.1c-0.5,0.5-1.3,0.5-1.9,0l-1.2-1.2c-0.5-0.5-0.5-1.3,0-1.9l3.9-3.9c0.5-0.5,1.3-0.5,1.9,0l1.2,1.2
		c0.5,0.5,0.5,1.3,0,1.9L100.9,32.1z"/>
	
		<rect x="93.9" y="25.2" transform="matrix(0.7071 -0.7071 0.7071 0.7071 11.9793 80.9801)" class="st1" width="19.7" height="1.7"/>
	<path class="st1" d="M93,12.6c-13.4,0-24.3,10.9-24.3,24.3S79.5,61.2,93,61.2s24.3-10.9,24.3-24.3S106.4,12.6,93,12.6z M93,54.3
		c-9.7,0-17.4-7.8-17.4-17.4c0-9.7,7.8-17.5,17.4-17.5c9.7,0,17.5,7.8,17.5,17.5C110.4,46.4,102.6,54.3,93,54.3z"/>
	<path class="st1" d="M93,30.8c-3.4,0-5.9,2.7-5.9,5.9c0,3.4,2.7,5.9,5.9,5.9c3.4,0,5.9-2.7,5.9-5.9C99,33.5,96.3,30.8,93,30.8z
		 M93,40.5c-2,0-3.8-1.6-3.8-3.8c0-2,1.6-3.8,3.8-3.8c2,0,3.8,1.6,3.8,3.8C96.7,38.9,95.1,40.5,93,40.5z"/>
	<path class="st1" d="M93.9,15.9c0,0.5-0.4,0.9-0.9,0.9c-0.5,0-0.9-0.4-0.9-0.9c0-0.5,0.4-0.9,0.9-0.9C93.5,15,93.9,15.4,93.9,15.9z
		"/>
	<path class="st1" d="M93.9,57.7c0,0.5-0.4,0.9-0.9,0.9c-0.5,0-0.9-0.4-0.9-0.9c0-0.5,0.4-0.9,0.9-0.9
		C93.5,56.7,93.9,57.2,93.9,57.7z"/>
	<path class="st1" d="M93.9,15.9c0,0.5-0.4,0.9-0.9,0.9c-0.5,0-0.9-0.4-0.9-0.9c0-0.5,0.4-0.9,0.9-0.9C93.5,15,93.9,15.4,93.9,15.9z
		"/>
	<path class="st1" d="M93.9,57.7c0,0.5-0.4,0.9-0.9,0.9c-0.5,0-0.9-0.4-0.9-0.9c0-0.5,0.4-0.9,0.9-0.9
		C93.5,56.7,93.9,57.2,93.9,57.7z"/>
	<path class="st1" d="M73.1,36.9c0,0.5-0.4,0.9-0.9,0.9c-0.5,0-0.9-0.4-0.9-0.9c0-0.5,0.4-0.9,0.9-0.9
		C72.7,35.9,73.1,36.4,73.1,36.9z"/>
	<path class="st1" d="M114.8,36.9c0,0.5-0.4,0.9-0.9,0.9c-0.5,0-0.9-0.4-0.9-0.9c0-0.5,0.4-0.9,0.9-0.9
		C114.4,35.9,114.8,36.4,114.8,36.9z"/>
	<path class="st2" d="M93.9,57.7c0,0.5-0.4,0.9-0.9,0.9c-0.5,0-0.9-0.4-0.9-0.9c0-0.5,0.4-0.9,0.9-0.9
		C93.5,56.7,93.9,57.2,93.9,57.7z"/>
	<path class="st2" d="M73.1,36.9c0,0.5-0.4,0.9-0.9,0.9c-0.5,0-0.9-0.4-0.9-0.9c0-0.5,0.4-0.9,0.9-0.9
		C72.7,35.9,73.1,36.4,73.1,36.9z"/>
	<path class="st2" d="M114.8,36.9c0,0.5-0.4,0.9-0.9,0.9c-0.5,0-0.9-0.4-0.9-0.9c0-0.5,0.4-0.9,0.9-0.9
		C114.4,35.9,114.8,36.4,114.8,36.9z"/>
	<path class="st2" d="M79.1,22.1c0,0.5-0.4,0.9-0.9,0.9c-0.5,0-0.9-0.4-0.9-0.9c0-0.5,0.4-0.9,0.9-0.9
		C78.7,21.2,79.1,21.6,79.1,22.1z"/>
	<path class="st2" d="M108.7,51.6c0,0.5-0.4,0.9-0.9,0.9c-0.5,0-0.9-0.4-0.9-0.9c0-0.5,0.4-0.9,0.9-0.9
		C108.2,50.7,108.7,51.1,108.7,51.6z"/>
	<path class="st2" d="M79.1,51.6c0,0.5-0.4,0.9-0.9,0.9c-0.5,0-0.9-0.4-0.9-0.9c0-0.5,0.4-0.9,0.9-0.9
		C78.7,50.7,79.1,51.1,79.1,51.6z"/>
	<path class="st2" d="M108.7,22.1c0,0.5-0.4,0.9-0.9,0.9c-0.5,0-0.9-0.4-0.9-0.9c0-0.5,0.4-0.9,0.9-0.9
		C108.2,21.2,108.7,21.6,108.7,22.1z"/>
	<path class="st2" d="M93.9,15.9c0,0.5-0.4,0.9-0.9,0.9c-0.5,0-0.9-0.4-0.9-0.9c0-0.5,0.4-0.9,0.9-0.9C93.5,15,93.9,15.4,93.9,15.9z
		"/>
</g>
</svg>
