<?xml version="1.0" encoding="utf-8"?>
<!-- Generator: Adobe Illustrator 27.2.0, SVG Export Plug-In . SVG Version: 6.00 Build 0)  -->
<svg version="1.1" xmlns="http://www.w3.org/2000/svg" xmlns:xlink="http://www.w3.org/1999/xlink" x="0px" y="0px"
	 viewBox="0 0 835.3 605.7" style="enable-background:new 0 0 835.3 605.7;" xml:space="preserve">
<style type="text/css">
	.st0{fill:#FFFFFF;}
	.st1{fill:#15264B;}
	.st2{opacity:0.35;}
	.st3{fill:#274B8B;}
	.st4{fill:#0F3747;}
	.st5{opacity:0.5;}
	.st6{opacity:0.4;}
	.st7{fill:#183E75;}
	.st8{opacity:0.2;}
	.st9{fill:#38276B;}
	.st10{fill:#44AC34;}
	.st11{fill:#00983A;}
	.st12{fill:#FCF8FB;}
	.st13{opacity:0.7;}
	.st14{fill:#94613F;}
	.st15{fill:#FFD100;}
	.st16{fill:#EA5B0C;}
	.st17{fill:#D3D5ED;}
	.st18{fill:#D8D8D8;}
	.st19{fill:#121A28;}
	.st20{fill:#E5E1D4;}
	.st21{opacity:0.25;}
	.st22{opacity:0.6;}
	.st23{fill:#FFD346;}
	.st24{fill:#FFDA36;}
	.st25{fill:#1E1E1C;}
	.st26{fill:#EEEDED;}
	.st27{opacity:0.3;}
	.st28{fill:#407FC1;}
	.st29{fill:#B0B3B1;}
	.st30{opacity:0.8;}
	.st31{fill:#E5E5E4;}
	.st32{fill:#BCBCBB;}
	.st33{fill:#E72D47;}
	.st34{fill:#F7A710;}
	.st35{fill:#F2EFEC;}
	.st36{fill:#F9B116;}
	.st37{fill:#F38F1C;}
	.st38{fill:none;stroke:#2A3856;stroke-width:2.1963;stroke-linecap:round;stroke-miterlimit:10;}
	.st39{fill:#D66C12;}
	.st40{fill:#FFD767;}
	.st41{fill:#F7A83D;}
	.st42{fill:#FECF70;}
	.st43{fill:#FFED91;}
	.st44{opacity:0.41;}
	.st45{opacity:0.26;}
	.st46{fill:none;}
	.st47{fill:#261E26;}
	.st48{fill:#E30613;}
	.st49{fill:#E9E8E8;}
	.st50{fill:#4A92CF;}
	.st51{fill:#386EB5;}
	.st52{fill:#B6B6B7;}
	.st53{fill:#DDDDDD;}
	.st54{fill:#FDC423;}
	.st55{fill:#E2A415;}
	.st56{fill:#F9B044;}
	.st57{fill:#EB5759;}
	.st58{fill:#E5201F;}
	.st59{fill:none;stroke:#FFFFFF;stroke-width:2.3076;stroke-linecap:round;stroke-miterlimit:10;}
	.st60{fill:#EDC5D6;}
	.st61{fill:#4A153F;}
	.st62{fill:#E9C8D2;}
	.st63{fill:#DFB0BE;}
	.st64{fill:#D6D6EA;}
	.st65{fill:#BDBDE0;}
	.st66{fill:#232323;}
	.st67{fill:#A7ABCC;}
	.st68{fill:#EDCCA9;}
	.st69{fill:#492311;}
	.st70{fill:#2A3856;}
	.st71{fill:#05646E;}
	.st72{fill:#F28D70;}
	.st73{fill:#BEC5CA;}
	.st74{fill:#54767A;}
</style>
<g id="Fondo">
</g>
<g id="Grafica">
</g>
<g id="Informazioni">
	<g>
		<g>
			<g>
				<g>
					<path class="st0" d="M694.2,334.8c-1.2,11.4-3.2,22.7-5.8,34c-6,25.9-15.7,51.4-29.3,75.9C580.9,585.5,403.2,636.2,262.3,558
						C150.2,495.6,95.2,370.3,116.9,250.7c5.6-30.6,16.2-60.8,32.1-89.5c24.9-44.8,59.8-80.5,100.5-105.8c6.5-4.1,13.2-7.9,20-11.4
						c36.7-19,77.1-30.1,118.4-32.4c0.4,0,0.7,0,1.1-0.1c2.5-0.1,5.1-0.2,7.6-0.3c5-0.1,10.1-0.1,15.1,0
						c34.3,0.9,68.7,7.8,101.8,21.3c10.9,4.4,21.7,9.6,32.3,15.4c2.3,1.3,4.5,2.5,6.8,3.9c1.3,0.8,2.7,1.6,4,2.4
						C655.4,114.5,706.2,225.4,694.2,334.8z"/>
				</g>
			</g>
		</g>
		<g>
			<g>
				<g>
					<path class="st17" d="M262.4,557.9c140.9,78.3,318.5,27.5,396.8-113.3c13.6-24.4,23.3-49.9,29.3-75.9c2.6-11.3,4.6-22.6,5.8-34
						c2.2-20.2,2.3-40.5,0.3-60.5c-0.1,0.9-0.2,1.8-0.3,2.8c-1.2,11.4-3.2,22.7-5.8,34c-6,25.9-15.7,51.4-29.3,75.9
						c-78.3,140.9-255.9,191.6-396.8,113.3c-86.9-48.3-139.5-134.4-148.7-226.4C102.5,386.1,157.4,499.6,262.4,557.9z"/>
				</g>
			</g>
		</g>
		<g>
			<g>
				<g>
					<path class="st17" d="M581.6,334.9c-8,35.6,2.9,64.3,24.4,64.3c21.4-0.1,47.2-28,55.2-63.6c8-35.6-4.9-65.2-26.3-65.2
						C613.4,270.5,589.6,299.3,581.6,334.9z"/>
				</g>
			</g>
		</g>
		<g>
			<g>
				<g>
					<path class="st1" d="M565.2,311c-4.4,9.1-7,18.5-8,28.2c-1,9.6-0.4,19.4,1.6,28.9c2,9.4,5.5,18.6,10.7,26.6
						c5.3,7.9,12.4,14.6,21.9,17.6l0.1,0c0.8,0.2,1.2,1.1,1,1.9c-0.2,0.7-0.8,1.1-1.5,1.1c-11.1-0.3-21.3-7.1-28.1-15.6
						c-7-8.5-11.4-18.8-13.8-29.4c-2.3-10.6-2.6-21.7-0.5-32.3c2-10.6,6.6-20.9,13.7-28.9c0.7-0.8,1.9-0.8,2.7-0.2
						C565.4,309.3,565.6,310.2,565.2,311L565.2,311z"/>
				</g>
			</g>
		</g>
		<g>
			<g>
				<g>
					
						<ellipse transform="matrix(0.998 -6.395756e-02 6.395756e-02 0.998 -7.6605 17.6342)" class="st17" cx="271.6" cy="128.5" rx="29" ry="24.7"/>
				</g>
			</g>
		</g>
		<g>
			<g>
				<g>
					
						<ellipse transform="matrix(0.9378 -0.3471 0.3471 0.9378 -30.192 105.0237)" class="st0" cx="278" cy="136.8" rx="21.8" ry="17.6"/>
				</g>
			</g>
		</g>
		<g>
			<g>
				<g>
					<path class="st1" d="M272.5,155.7c-6.3,0.8-13-0.3-18.9-3.1c-5.9-3-11.1-7.9-13.8-14.4c-2.8-6.5-2.4-14.2,0.5-20.6
						c3-6.4,8.3-11.4,14.3-14.5c12.1-6.2,27.4-5.5,38.3,2.6c5.4,4,9.6,9.9,10.8,16.6c1.2,6.6-0.5,13.6-4.4,18.7l0,0
						c-0.4,0.5-1.1,0.6-1.6,0.2c-0.4-0.3-0.6-1-0.3-1.4c5.9-10.5,1.5-23.5-8-29c-9.2-5.9-21.8-6.1-31.3-1c-4.7,2.5-8.8,6.3-11.1,11
						c-2.3,4.6-2.7,10.1-1,15c3.4,10.1,14.9,16.7,26.5,17.1c0.8,0,1.4,0.7,1.4,1.5C273.7,155.1,273.2,155.6,272.5,155.7z"/>
				</g>
			</g>
		</g>
		<g>
			<g>
				<g>
					<path class="st1" d="M309.1,110.9c4.1,4.8,6.6,10.9,7.3,17.4c0.6,6.5-0.8,13.1-3.7,19c-5.9,11.8-17.8,19.6-30.2,22.5
						c-12.5,2.8-26.2,1.2-37.1-5.7c-5.4-3.4-10.3-7.8-13.6-13.3c-3.2-5.5-5-11.9-4.7-18.1c0-0.6,0.6-1.1,1.2-1.1c0.6,0,1,0.5,1.1,1
						c1.4,11.6,9.1,21.1,19,26.1c9.9,5.1,21.6,6.3,32.3,3.7c10.7-2.6,20.6-8.9,26.1-18.3c5.7-9.2,5.8-21.6-0.1-31.6
						c-0.4-0.7-0.2-1.5,0.5-1.9C307.9,110.2,308.7,110.4,309.1,110.9z"/>
				</g>
			</g>
		</g>
		<g>
			<g>
				<g>
					<path class="st1" d="M193.1,194.9c8.7,0.8,17,4.2,24.5,9.1c7.3,5.1,13.4,11.9,17.9,19.7c8.9,15.7,10.6,34.7,6.4,51.9
						c-4.1,17.3-13.8,33.1-27.5,44.3c-6.8,5.6-14.5,10-22.7,13c-8.2,2.8-17,4.2-25.6,3.5c-0.8-0.1-1.5-0.8-1.4-1.6
						c0.1-0.7,0.7-1.3,1.4-1.4c16.3-1.4,31.4-8.8,42.8-19.7c11.4-11,19.7-25.1,23.1-40.4c3.6-15.2,2.3-31.5-4.5-45.5
						c-3.3-7-8.2-13.3-14.3-18.2c-2.9-2.6-6.3-4.7-9.8-6.6c-3.5-1.8-7.3-3.3-11.2-4.4c-1-0.3-1.6-1.3-1.3-2.3
						C191.4,195.4,192.2,194.8,193.1,194.9z"/>
				</g>
			</g>
		</g>
		<g>
			<g>
				<g>
					
						<ellipse transform="matrix(0.1745 -0.9847 0.9847 0.1745 -117.2773 390.4904)" class="st17" cx="174.3" cy="265.2" rx="50.3" ry="41.7"/>
				</g>
			</g>
		</g>
		<g>
			<g>
				<g>
					<path class="st0" d="M172.8,308.1c14.8,0.2,29.9-9.9,37.7-26.9c10.3-22.6,3.7-48.8-14.8-58.6c-2.6-1.4-5.3-2.4-8.1-3
						c-10.9,4.4-20.7,13.8-26.6,26.7C150.6,269.3,155.9,295.7,172.8,308.1z"/>
				</g>
			</g>
		</g>
		<g>
			<g>
				<g>
					<path class="st1" d="M133.8,246.8c3.7-9,10.3-17,18.5-22.7c8.4-5.6,18.7-8.8,29.2-7.8c10.5,0.7,20.6,6.4,27.3,14.7
						c6.6,8.4,9.7,19.1,9.6,29.4c-0.4,20.8-13.2,40.5-32,48.8c-9.3,4.1-20.2,5.4-30,2.3c-9.7-3.1-18.1-10.1-22.3-19
						c-0.4-0.7,0-1.7,0.7-2c0.7-0.3,1.5-0.1,1.9,0.5c5.1,7.4,12.8,12.8,21.3,14.4c8.4,1.9,17.3,0.3,24.9-3.7
						c15.2-8,25.4-24.7,25.5-41.6c0-8.4-2.3-16.7-7.3-23.2c-4.9-6.4-12.4-10.9-20.6-12c-8.2-1.3-17,0.7-24.5,5
						c-7.7,4.1-14.1,10.7-18.9,18.4c-0.5,0.9-1.7,1.2-2.6,0.6C133.7,248.6,133.4,247.6,133.8,246.8z"/>
				</g>
			</g>
		</g>
		<g>
			<g>
				<g>
					<path class="st1" d="M519.6,251.7c4,22.5-2.3,46.8-16.9,65.2c-14.5,18.5-37.2,30-60.5,32.1c-23.4,2.3-47.2-4.7-65.9-18.3
						c-9.3-6.8-17.5-15.2-24-24.6c-6.3-9.6-11-20.2-13.5-31.2c-0.2-0.8,0.3-1.6,1.1-1.8c0.8-0.2,1.5,0.3,1.7,1
						c7.3,20.6,21.4,38.3,39.2,49.9c17.9,11.4,39.4,17.3,60.3,15c20.9-2,40.9-11.9,54.7-27.8c6.9-7.9,12.3-17.2,15.5-27.4l1.3-3.8
						l0.9-3.9c0.6-2.6,1.3-5.2,1.6-7.9c0.7-5.3,0.9-10.7,0.7-16.2c0-1,0.8-1.9,1.8-1.9C518.7,250.1,519.5,250.8,519.6,251.7z"/>
				</g>
			</g>
		</g>
		<g>
			<g>
				<g>
					
						<ellipse transform="matrix(0.9626 -0.2709 0.2709 0.9626 -53.3365 125.4384)" class="st17" cx="427.8" cy="255.9" rx="64.2" ry="58.5"/>
				</g>
			</g>
		</g>
		<g>
			<g>
				<g>
					<path class="st0" d="M375.1,272.1c5.4,20,23.4,36,46.9,39.2c31.3,4.3,60.6-15.6,65.4-44.6c0.7-4.1,0.8-8.1,0.5-12.1
						c-9.5-12.8-24.5-21.9-42.5-24.4C413.7,225.9,383.8,244.2,375.1,272.1z"/>
				</g>
			</g>
		</g>
		<g>
			<g>
				<g>
					<path class="st1" d="M434.6,194.5c12.9,1.6,25.3,7.7,35.1,16.7c9.6,9.1,16.6,21.3,19.1,34.7c1.3,6.6,1.4,13.6,0.2,20.3
						c-1.1,6.7-3.3,13.4-6.9,19.3c-7,11.9-18.4,21.2-31.4,25.5c-13,4.3-27.4,4.2-40.2-0.1c-12.9-4.2-24.3-12.5-32.3-23.4
						c-8-10.8-12.7-24-12.5-37.4c0.2-13.3,5.1-26.5,14-36c0.6-0.6,1.5-0.6,2.1-0.1c0.6,0.5,0.6,1.4,0.2,2c-7.2,9.9-10.8,22.1-10,34
						c0.6,11.9,5.2,23.4,12.7,32.5c7.5,9.1,17.5,16,28.7,19.4c11.1,3.4,23.2,3.5,34.1-0.3c10.9-3.7,20.3-11.2,26.2-21
						c5.9-9.7,8.2-21.7,6.5-33.2c-3.1-23.2-22.3-43.5-46.2-49.1c-1-0.2-1.6-1.2-1.4-2.2C432.8,195,433.7,194.4,434.6,194.5z"/>
				</g>
			</g>
		</g>
		<g>
			<g>
				<g>
					<path class="st0" d="M262.5,419.8C249.3,428,238,437.6,232,451c-10.9,24.4-3.2,51.4,16.7,75.1c13,15.6,31.5,29.1,54,38.2
						c56.7,23,117.3,8.9,135.3-31.5c6.7-15,6.5-31.6,0.8-47.6c-9.7-27.1-35.9-51.3-71.5-65.7C367.3,419.5,299.5,396.8,262.5,419.8z"
						/>
				</g>
			</g>
		</g>
		<g>
			<g>
				<g>
					<path class="st1" d="M233.7,451.8c-4.3,11.4-4.9,23.8-1.7,35.3c2.9,11.5,8.9,22.2,16.4,31.7c15,18.9,35.7,33,58.2,41.7
						c22.5,8.9,47.3,12.5,71.2,9.1c11.9-1.7,23.6-5.5,34-11.6c10.4-6,19.2-14.9,24.8-25.7c0.4-0.7,1.3-1,2-0.6
						c0.7,0.4,1,1.2,0.7,1.9c-4.6,12.1-13.5,22.4-24.2,29.8c-10.8,7.3-23.3,11.9-36,14.4c-25.6,5-52.2,1.4-76.3-7.9
						c-24-9.3-46.3-24.7-61.5-45.9c-7.5-10.5-13.6-22.4-16.2-35.4c-2.5-12.9-1-26.7,5-38.3c0.5-0.9,1.6-1.3,2.5-0.8
						C233.7,449.9,234.1,450.9,233.7,451.8z"/>
				</g>
			</g>
		</g>
		<g>
			<g>
				<g>
					
						<ellipse transform="matrix(0.2558 -0.9667 0.9667 0.2558 -225.7335 689.6276)" class="st17" cx="335" cy="491.4" rx="61.2" ry="84.2"/>
				</g>
			</g>
		</g>
		<g>
			<g>
				<g>
					
						<ellipse transform="matrix(0.1763 -0.9843 0.9843 0.1763 -221.9687 753.1567)" class="st0" cx="339.1" cy="509.2" rx="45" ry="71.4"/>
				</g>
			</g>
		</g>
		<g>
			<g>
				<g>
					<path class="st1" d="M389.4,545c6.6-3.9,12.4-8.9,16.6-15c4.3-6.1,6.7-13.2,7.4-20.4c1.6-14.6-4.9-29.1-14.3-40.5
						c-19.1-22.9-49.3-36.4-79.1-37.1c-14.8-0.2-30.1,2.6-42.3,10.6c-12.2,7.7-20.2,21.1-20.3,35.5c-0.3,14.5,7,28.7,16.8,40.1
						c9.9,11.6,22.9,20.4,36.9,27.1c0.8,0.3,1.1,1.2,0.8,2c-0.3,0.7-1.2,1-1.9,0.8c-15-5.4-29-14-40.4-25.6
						c-11-11.7-19.9-27-20.4-44.3c-0.2-8.5,1.7-17.3,6-24.8c4.2-7.6,10.4-13.9,17.4-18.6c14.2-9.6,31.2-12.9,47.6-12.9
						c16.5,0.3,32.7,4.5,47.5,11.5c7.4,3.5,14.5,7.7,21,12.8c6.5,5,12.6,10.7,17.5,17.4c9.9,13,16.8,29.7,14.4,46.8
						c-1.3,8.4-4.7,16.4-10,22.9c-5.2,6.5-12,11.5-19.3,14.9c-0.9,0.4-2,0-2.5-0.9C388.3,546.5,388.6,545.5,389.4,545z"/>
				</g>
			</g>
		</g>
		<g>
			<g>
				<g>
					<g>
						<path class="st0" d="M515.3,142.7c10.2-6.7,17.9-15.9,21.5-26.9c6.7-20-1.5-40.6-18.9-57.8c-11.4-11.2-27-20.5-45.4-25.9
							c-46.4-13.7-92.9,2-104,35.2c-4.1,12.3-2.7,25.3,3,37.5c9.7,20.6,32.2,37.6,61.3,46.2L515.3,142.7z"/>
					</g>
				</g>
			</g>
			<g>
				<g>
					<g>
						<path class="st1" d="M535,115.3c2.3-9.2,1.8-18.9-1.7-27.5c-3.2-8.7-8.7-16.5-15.3-23.3c-13.2-13.5-30.4-22.8-48.6-27.9
							c-18.2-5.2-37.8-6.2-56.2-1.9c-9.2,2.2-18,5.9-25.6,11.4c-7.7,5.4-13.9,12.9-17.7,21.7c-0.3,0.8-1.2,1.1-2,0.8
							c-0.7-0.3-1.1-1.1-0.9-1.8c2.5-10,8.8-18.9,16.6-25.7c8-6.7,17.5-11.4,27.4-14.4c19.9-6.1,41.3-5.3,61.1,0.1
							c19.7,5.5,38.6,16,52.3,31.8c6.8,7.8,12.5,16.8,15.5,27c2.9,10.1,2.7,21.3-1.3,30.8c-0.4,1-1.5,1.4-2.4,1
							C535.3,117.1,534.8,116.1,535,115.3z"/>
					</g>
				</g>
			</g>
			<g>
				<g>
					<g>
						
							<ellipse transform="matrix(0.1606 -0.987 0.987 0.1606 289.2151 524.0479)" class="st17" cx="452.7" cy="92" rx="48.3" ry="66.5"/>
					</g>
				</g>
			</g>
			<g>
				<g>
					<g>
						
							<ellipse transform="matrix(7.980296e-02 -0.9968 0.9968 7.980296e-02 333.8409 519.3729)" class="st0" cx="448.2" cy="78.9" rx="35.6" ry="56.4"/>
					</g>
				</g>
			</g>
			<g>
				<g>
					<g>
						<path class="st1" d="M406,54.4c-4.8,3.6-8.9,8-11.7,13c-2.8,5-4.1,10.7-4,16.3c0,11.3,6.1,22,14.3,30.1
							c8.2,8.1,18.6,14.2,29.8,18c5.5,2.1,11.3,3.2,17.1,4.1c5.8,0.7,11.7,0.9,17.5,0.5c11.5-0.9,23.1-4.4,31.8-11.4
							c8.8-6.8,14-17.5,13.1-28.6c-0.8-11.2-7.5-21.7-15.9-29.9c-8.5-8.4-19.3-14.4-30.7-18.6l0,0c-0.8-0.3-1.2-1.2-0.9-1.9
							c0.3-0.7,1-1.1,1.8-0.9c12.3,3,24.1,8.6,34.1,16.9c9.7,8.4,18,19.8,19.8,33.6c0.9,6.8,0,14-2.8,20.4
							c-2.7,6.4-7.2,12-12.4,16.4c-10.6,8.9-24,12.7-37,14c-13.2,1-26.4-1-38.7-5.4c-6.1-2.2-12.1-5-17.6-8.6
							c-5.5-3.5-10.8-7.6-15.2-12.5c-8.9-9.6-15.6-22.5-15-36.3c0.4-6.8,2.6-13.5,6.3-19c3.7-5.6,8.7-10,14.3-13.3
							c0.9-0.5,2-0.2,2.6,0.7C407,52.7,406.8,53.8,406,54.4z"/>
					</g>
				</g>
			</g>
		</g>
		<g>
			<g>
				<g>
					
						<ellipse transform="matrix(0.3213 -0.947 0.947 0.3213 100.8955 806.1957)" class="st0" cx="612.9" cy="332.7" rx="56.6" ry="29.5"/>
				</g>
			</g>
		</g>
		<g>
			<g>
				<g>
					<path class="st1" d="M658,289.2c-2.9-4.6-6.7-8.6-11.3-11c-4.6-2.4-9.8-3-14.8-2.2c-10.1,1.5-19.3,8.3-26.3,16.3
						c-7.1,8.2-12.8,17.6-16.6,27.9c-4.1,10.1-6.3,21-6.7,31.7c-0.3,10.7,1.6,21.7,7.1,30c5.3,8.5,15.1,12.6,25,10.4
						c9.9-2.2,19.2-8.9,26.4-17.1c7.6-8.1,13.2-18,17.8-28.3l0,0c0.3-0.8,1.2-1.1,2-0.8c0.7,0.3,1,1.1,0.8,1.8
						c-3.3,11.1-8.5,21.9-15.8,31.3c-3.6,4.7-7.9,9-12.8,12.7c-4.9,3.7-10.4,6.7-16.6,8.4c-6.1,1.7-13.2,1.7-19.5-0.7
						c-6.3-2.4-11.6-7-15.3-12.3c-7.4-10.8-9.3-23.6-9.2-35.6c0.3-12.2,3-24,7.5-35.2c4.5-11.1,10.9-21.5,19.3-30.3
						c8.4-8.5,19.2-16,32-17.3c6.4-0.5,13,1,18.3,4.4c5.4,3.4,9.3,8.5,11.8,14c0.4,0.9,0,2-0.9,2.5C659.5,290.3,658.4,290,658,289.2
						z"/>
				</g>
			</g>
		</g>
		<g>
			<g>
				<g>
					<path class="st1" d="M403.6,599.7c-48.8,0-98.1-12-143.7-37.3C148.6,500.5,89.2,374.9,112,249.8c5.8-31.9,16.8-62.5,32.6-91.1
						c24.5-44,59.8-81.2,102.2-107.6c6.5-4.1,13.4-8,20.4-11.6c37.1-19.2,78.7-30.7,120.4-33l1.1-0.1c2.6-0.1,5.1-0.2,7.7-0.3
						c5-0.1,10.2-0.1,15.4,0c35.7,0.9,70.5,8.2,103.6,21.6c11.2,4.5,22.2,9.8,32.8,15.7c2.3,1.3,4.6,2.6,6.9,4
						c1.3,0.8,2.7,1.6,4.1,2.5c97.5,59.6,152.4,171.7,140,285.5c-1.3,11.5-3.2,23.2-5.9,34.6c-6.2,26.9-16.2,52.9-29.8,77.2
						C609.4,544.6,508,599.7,403.6,599.7z M404.3,16.1c-2.6,0-5.1,0-7.6,0.1c-2.5,0.1-5,0.2-7.5,0.3l-1.2,0.1
						c-40.2,2.3-80.4,13.3-116.3,31.9c-6.7,3.5-13.3,7.3-19.7,11.2c-41,25.5-75.1,61.5-98.7,104c-15.3,27.6-25.9,57.2-31.5,88
						c-22,120.9,35.4,242.2,142.9,302c138.2,76.8,313.1,26.8,390-111.4c13.1-23.5,22.7-48.6,28.8-74.6c2.6-11,4.5-22.3,5.7-33.4l0,0
						c12-109.9-41.1-218.2-135.3-275.8c-1.3-0.8-2.6-1.6-3.9-2.4c-2.2-1.3-4.4-2.6-6.7-3.8c-10.3-5.7-20.9-10.8-31.7-15.2
						c-31.9-13-65.6-20-100.1-20.9C409.2,16.1,406.7,16.1,404.3,16.1z"/>
				</g>
			</g>
		</g>
	</g>
</g>
</svg>
