<?xml version="1.0" encoding="utf-8"?>
<!-- Generator: Adobe Illustrator 27.2.0, SVG Export Plug-In . SVG Version: 6.00 Build 0)  -->
<svg version="1.1" xmlns="http://www.w3.org/2000/svg" xmlns:xlink="http://www.w3.org/1999/xlink" x="0px" y="0px"
	 viewBox="0 0 989.7 464.7" style="enable-background:new 0 0 989.7 464.7;" xml:space="preserve">
<style type="text/css">
	.st0{fill:#FFFFFF;}
	.st1{fill:#15264B;}
	.st2{opacity:0.35;}
	.st3{fill:#274B8B;}
	.st4{fill:#0F3747;}
	.st5{opacity:0.5;}
	.st6{opacity:0.4;}
	.st7{fill:#183E75;}
	.st8{opacity:0.2;}
	.st9{fill:#38276B;}
	.st10{fill:#44AC34;}
	.st11{fill:#00983A;}
	.st12{fill:#FCF8FB;}
	.st13{opacity:0.7;}
	.st14{fill:#94613F;}
	.st15{fill:#FFD100;}
	.st16{fill:#EA5B0C;}
	.st17{fill:#D3D5ED;}
	.st18{fill:#D8D8D8;}
	.st19{fill:#121A28;}
	.st20{fill:#E5E1D4;}
	.st21{opacity:0.25;}
	.st22{opacity:0.6;}
	.st23{fill:#FFD346;}
	.st24{fill:#FFDA36;}
	.st25{fill:#1E1E1C;}
	.st26{fill:#EEEDED;}
	.st27{opacity:0.3;}
	.st28{fill:#407FC1;}
	.st29{fill:#B0B3B1;}
	.st30{opacity:0.8;}
	.st31{fill:#E5E5E4;}
	.st32{fill:#BCBCBB;}
	.st33{fill:#E72D47;}
	.st34{fill:#F7A710;}
	.st35{fill:#F2EFEC;}
	.st36{fill:#F9B116;}
	.st37{fill:#F38F1C;}
	.st38{fill:none;stroke:#2A3856;stroke-width:2.1963;stroke-linecap:round;stroke-miterlimit:10;}
	.st39{fill:#D66C12;}
	.st40{fill:#FFD767;}
	.st41{fill:#F7A83D;}
	.st42{fill:#FECF70;}
	.st43{fill:#FFED91;}
	.st44{opacity:0.41;}
	.st45{opacity:0.26;}
	.st46{fill:none;}
	.st47{fill:#261E26;}
	.st48{fill:#E30613;}
	.st49{fill:#E9E8E8;}
	.st50{fill:#4A92CF;}
	.st51{fill:#386EB5;}
	.st52{fill:#B6B6B7;}
	.st53{fill:#DDDDDD;}
	.st54{fill:#FDC423;}
	.st55{fill:#E2A415;}
	.st56{fill:#F9B044;}
	.st57{fill:#EB5759;}
	.st58{fill:#E5201F;}
	.st59{fill:none;stroke:#FFFFFF;stroke-width:2.3076;stroke-linecap:round;stroke-miterlimit:10;}
	.st60{fill:#EDC5D6;}
	.st61{fill:#4A153F;}
	.st62{fill:#E9C8D2;}
	.st63{fill:#DFB0BE;}
	.st64{fill:#D6D6EA;}
	.st65{fill:#BDBDE0;}
	.st66{fill:#232323;}
	.st67{fill:#A7ABCC;}
	.st68{fill:#EDCCA9;}
	.st69{fill:#492311;}
	.st70{fill:#2A3856;}
	.st71{fill:#05646E;}
	.st72{fill:#F28D70;}
	.st73{fill:#BEC5CA;}
	.st74{fill:#54767A;}
</style>
<g id="Fondo">
</g>
<g id="Grafica">
</g>
<g id="Informazioni">
	<g>
		<path class="st0" d="M285.1,258.3c1.4-2-49.1,15.2-109.5-11.2C111.8,219.2,10.8,124.2,10.8,118.6c0-5.6,222.9-77.7,308.6,5.6"/>
		<path class="st17" d="M289.8,232.4c0.8-1.2-29.8,9.2-66.5-6.8c-38.7-16.9-100.1-74.7-100.1-78.1s135.4-47.2,187.5,3.4"/>
		<g>
			<path class="st0" d="M397.7,418.2c76.4,3.5,120.9-47.8,120.5-48.1l-108.4-60.1c-58.8,48.3-183.2,27.5-183.2,27.5
				S332.1,415.2,397.7,418.2z"/>
			<path class="st17" d="M315.6,364.4c32.4-3.6,65.3-9.3,97.5-4.3c13.8,2.1,27.3,6.3,39.9,12.1c11.7,5.4,20.6,14.4,31.7,20.2
				c1.4,0.7,2.8,1.3,4.3,1.7c19.2-12,29.4-23.9,29.2-24l-108.4-60.1c-58.8,48.3-183.2,27.5-183.2,27.5s18.1,13.3,43.9,29.1
				C285.5,367.2,300.7,366.1,315.6,364.4z"/>
			<path class="st0" d="M454.6,127.1l123.9-3.3c0.5,0-15.3-66.1-84.7-98.3c-59.6-27.6-189-7.5-189-7.5S424.7,57.1,454.6,127.1z"/>
			<path class="st17" d="M454.6,127.1l122.9-3.2c0.3-0.5,0.5-0.9,0.8-1.4c-1.4-6-9.2-30.7-30.2-55.6c-33.1-11.1-79.6-11.8-98.4-11.4
				c-18.8,0.4-37.6,2.4-56,6C419.2,78.7,443.3,100.7,454.6,127.1z"/>
			<g>
				<path class="st1" d="M513.7,374.7C513.7,374.7,513.7,374.7,513.7,374.7c-0.5-0.9-1.1-1.9-1.6-2.8c0-0.6,0-1.1,0-1.7
					c-0.2-0.9-0.1-1.7,0.3-2.4c0.5-1.1,0.4-1,0.3-0.7c0,0,0,0,0,0c0,0.1-0.1,0.1-0.1,0.2c-0.3,0.4,1.4-1.7,0.8-1.1
					c-0.1,0.1-0.2,0.2-0.2,0.3c-0.5,0.5-1,1.1-1.4,1.6c-1.8,1.9-3.6,3.7-5.6,5.4c-1.3,1.2-2.7,2.4-4.1,3.6c-0.8,0.7-1.6,1.3-2.4,2
					c-0.4,0.3-0.8,0.6-1.2,0.9c-0.2,0.2-0.4,0.3-0.7,0.5c-0.7,0.5,1.4-1.1,0.4-0.3c-4,3-8.1,5.9-12.4,8.6
					c-5.1,3.2-10.3,6.1-15.7,8.7c-1.4,0.7-2.8,1.3-4.3,2c-0.8,0.3-1.5,0.7-2.3,1c-0.6,0.3,0.8-0.3,0.7-0.3c-0.2,0.1-0.3,0.1-0.5,0.2
					c-0.4,0.2-0.9,0.4-1.3,0.5c-3.2,1.3-6.5,2.5-9.8,3.6c-7.1,2.3-14.3,4.2-21.6,5.5c-1.9,0.3-3.8,0.6-5.7,0.9
					c-0.9,0.1,1.3-0.2,0.4-0.1c-0.2,0-0.4,0.1-0.6,0.1c-0.5,0.1-1,0.1-1.5,0.2c-1,0.1-2,0.2-3.1,0.3c-4.2,0.4-8.4,0.6-12.7,0.7
					c-4,0.1-8,0-12-0.3c-1.4-0.1-2.8-0.2-4.2-0.4c-0.7-0.1-1.3-0.2-2-0.2c-1.4-0.2,1.4,0.2,0.3,0c-0.4-0.1-0.8-0.1-1.2-0.2
					c-6-0.9-11.9-2.2-17.7-3.8c-6.3-1.7-12.4-3.8-18.5-6c-3.2-1.2-6.4-2.4-9.5-3.7c-0.7-0.3-1.5-0.6-2.2-0.9c-1.3-0.6,1,0.4,0,0
					c-0.4-0.2-0.8-0.3-1.2-0.5c-1.6-0.7-3.2-1.4-4.8-2.1c-12.6-5.6-24.8-11.9-36.8-18.5c-10.9-6.1-21.7-12.5-32.3-19.1
					c-8.1-5.1-16.1-10.3-24-15.7c-3.9-2.7-7.7-5.3-11.5-8.1c-0.2-0.1-0.3-0.2-0.5-0.4c-1.6,3.9-3.3,7.8-4.9,11.6
					c4.8,0.8,9.6,1.4,14.5,1.9c11,1.2,22,2.1,33,2.5c14.8,0.5,29.7,0.3,44.4-0.9c16.5-1.3,33-3.8,48.9-8.4c15.2-4.4,30.2-10.6,43-20
					c1.9-1.4,3.7-2.8,5.5-4.3c2.6-2.1,2.4-6.8,0-9c-2.8-2.5-6.2-2.3-9,0c-0.3,0.3-0.7,0.6-1,0.8c-0.2,0.1-0.3,0.3-0.5,0.4
					c-0.8,0.6,0.5-0.4,0.5-0.4c-0.8,0.6-1.6,1.2-2.4,1.8c-1.5,1.1-3,2.1-4.6,3.1c-3.2,2-6.5,3.9-9.9,5.6c-1.7,0.9-3.4,1.7-5.1,2.5
					c-0.8,0.4-1.7,0.8-2.5,1.1c-1.4,0.6,1.3-0.5-0.1,0c-0.5,0.2-1,0.4-1.5,0.6c-3.6,1.5-7.3,2.8-11.1,4c-7.6,2.4-15.3,4.3-23.1,5.8
					c-3.9,0.8-7.9,1.4-11.9,2c-0.2,0-2,0.3-0.8,0.1c1.2-0.2-0.5,0.1-0.8,0.1c-1,0.1-2,0.3-3,0.4c-2,0.2-4,0.5-6,0.6
					c-14.8,1.4-29.8,1.8-44.7,1.4c-11.5-0.3-22.9-1-34.3-2.2c-2-0.2-4-0.4-6-0.7c-0.8-0.1-1.7-0.2-2.5-0.3c-0.4,0-0.7-0.1-1.1-0.1
					c-0.2,0-0.3,0-0.5-0.1c-1.1-0.1,2,0.3,1,0.1c-1.6-0.2-3.3-0.5-4.9-0.7c-0.1,0-0.1,0-0.2,0c-3.2-0.5-6.2,0.6-7.5,3.7
					c-1.3,3.1,0,6.1,2.6,8c2.7,2,5.5,3.9,8.2,5.8c7.2,5,14.6,9.9,22,14.7c10.3,6.6,20.8,13,31.5,19.1c12.1,6.9,24.4,13.4,36.9,19.3
					c12.8,6,25.9,11.5,39.5,15.7c12.2,3.8,24.8,6.5,37.7,7c16.8,0.6,33.8-1.3,50-5.9c13.3-3.7,26.2-9.2,38.1-16.1
					c8.9-5.1,17.3-11.1,25.1-17.8c3.5-3,7.1-6.2,10-9.9c2.2-2.7,3.3-6.5,0.2-9.3c-2.4-2.3-6.6-2.6-9,0
					C511.4,368.2,511.1,372.2,513.7,374.7L513.7,374.7z"/>
			</g>
			<g>
				<path class="st1" d="M580.2,130c3.9-1,5.1-4.8,4.4-8.3c-0.1-0.6-0.3-1.1-0.4-1.7c-0.6-2.2-1.3-4.5-2.1-6.7
					c-3-8.5-6.8-16.7-11.2-24.5c-6.2-11.1-13.7-21.4-22.2-30.8c-10.5-11.6-22.8-21.7-36.2-29.7c-12.3-7.4-25.3-13-39.2-16.4
					c-13.6-3.3-27.6-5.1-41.6-6.1c-14.2-1.1-28.4-1.3-42.6-1c-13,0.3-26,0.9-39,2c-10,0.8-19.9,1.8-29.9,3
					c-5.5,0.7-10.9,1.4-16.3,2.2c-0.2,0-0.4,0.1-0.6,0.1c-2.6,0.4-4.8,3.6-4.7,6.1c0.1,2.9,1.9,5.2,4.7,6.1c4.1,1.3,8.1,2.8,12,4.4
					c2.1,0.8,4.1,1.6,6.2,2.4c1.2,0.5,2.4,1,3.6,1.5c0.6,0.2,1.2,0.5,1.8,0.7c0.3,0.1,0.5,0.2,0.8,0.3c0.9,0.4-1.5-0.6-0.8-0.3
					c0.2,0.1,0.4,0.2,0.6,0.3c5.6,2.4,11.2,4.9,16.7,7.5c13.3,6.3,26.2,13.2,38.7,21c6.7,4.2,13.3,8.7,19.7,13.5
					c0.8,0.6,1.6,1.2,2.3,1.8c0.7,0.5-1.3-1-0.4-0.3c0.2,0.1,0.3,0.3,0.5,0.4c0.4,0.3,0.9,0.7,1.3,1c1.6,1.2,3.1,2.5,4.7,3.8
					c3.1,2.6,6.1,5.3,9,8c5.7,5.4,11,11.1,15.8,17.2c0.1,0.2,0.3,0.3,0.4,0.5c-1.2-1.5-0.7-0.9-0.4-0.6c0.3,0.4,0.6,0.7,0.8,1.1
					c0.6,0.8,1.2,1.6,1.7,2.4c1.1,1.6,2.2,3.2,3.3,4.8c2,3.2,3.9,6.4,5.5,9.8c0.8,1.6,1.6,3.2,2.3,4.9c0.6,1.4,2.5,2.6,3.8,2.9
					c1.5,0.4,3.6,0.2,4.9-0.6c1.4-0.9,2.6-2.2,2.9-3.8c0.4-1.8,0.1-3.2-0.6-4.9c-6.2-14.5-16.1-27.4-27.2-38.6
					c-11.6-11.7-24.9-21.9-38.7-30.9c-12.6-8.3-25.8-15.6-39.4-22.2C344,26.8,332.9,22,321.7,17.5c-4.9-1.9-9.9-4-15-5.5
					c-0.1,0-0.1,0-0.2-0.1c0,4.1,0,8.2,0,12.3c0.9-0.1,1.7-0.3,2.6-0.4c1-0.1,2.1-0.3,3.1-0.4c1.5-0.2-1.8,0.2-0.7,0.1
					c0.4,0,0.7-0.1,1.1-0.1c0.7-0.1,1.5-0.2,2.2-0.3c8.7-1.1,17.4-2.1,26.1-2.8c12.1-1.1,24.3-1.9,36.5-2.4
					c13.8-0.5,27.6-0.6,41.4-0.1c6.9,0.3,13.9,0.7,20.8,1.4c1.7,0.2,3.5,0.4,5.2,0.6c0.8,0.1,1.6,0.2,2.3,0.3c0.4,0,0.8,0.1,1.2,0.1
					c0.2,0,0.4,0.1,0.7,0.1c1.1,0.1-1.3-0.2-0.5-0.1c3.3,0.5,6.6,1,9.9,1.6c6.2,1.1,12.3,2.5,18.4,4.3c2.8,0.8,5.6,1.7,8.3,2.8
					c0.7,0.2,1.3,0.5,2,0.8c0.6,0.2,3,1.3,0.8,0.3c1.5,0.6,2.9,1.3,4.3,2c7.5,3.6,14.7,7.7,21.6,12.4c1.6,1.1,3.2,2.2,4.7,3.4
					c0.4,0.3,0.7,0.5,1.1,0.8c0.3,0.3,1.7,1.4,0.2,0.2c0.8,0.6,1.6,1.2,2.4,1.9c2.8,2.3,5.6,4.7,8.3,7.2c5,4.7,9.7,9.7,14.1,15
					c1,1.3,2.1,2.6,3.1,3.9c0.1,0.1-0.9-1.2-0.5-0.7c0.1,0.2,0.3,0.3,0.4,0.5c0.2,0.3,0.4,0.6,0.7,0.9c0.5,0.7,1,1.3,1.5,2
					c1.7,2.4,3.4,4.8,5,7.3c2.9,4.5,5.6,9.1,8,13.9c1,2,2,4.1,3,6.2c0.4,0.9,0.9,1.9,1.3,2.9c0.2,0.4,0.8,2,0.3,0.7
					c-0.6-1.3,0.1,0.3,0.3,0.7c1.8,4.5,3.7,9.2,4.7,14c0,0.2,0.1,0.4,0.1,0.5c0.2,0.6-0.2-2.1-0.2-1.5c0-1.1,0.9-3.5,1.9-4.4
					c0.9-0.5,1.9-1.1,2.8-1.6c0,0,0,0,0,0c-3.2,0.8-5.5,4.6-4.5,7.8C573.4,128.9,576.7,130.9,580.2,130L580.2,130z"/>
			</g>
		</g>
		<path class="st0" d="M298.4,282.3c4.2,2.1,15.6,4.3,28,6.2l44.4-181.6c-11.9-4-23-7.3-27.7-7.4c-12.1-0.1-37.3,39-47.3,85.3
			C283.4,230.5,287.6,276.8,298.4,282.3z"/>
		<path class="st17" d="M313.6,174.3c8.6,0.1,15.5,5.9,23.5,6.3c5.3,0.3,11.4-2.6,17.4-7l16.3-66.8c-11.9-4-23-7.3-27.7-7.4
			c-11.5-0.1-34.6,35-45.6,78C302.6,175.4,308.1,174.3,313.6,174.3z"/>
		<path class="st0" d="M333.2,302.4c10.7,5.8,69.5,10.8,69.5,10.8l47.2-193c0,0-54.5-22.7-66.7-22.5c-12.2,0.2-38.6,44.5-50,96.2
			C319.5,245.2,322.5,296.6,333.2,302.4z"/>
		<path class="st17" d="M364.1,172.4c11.2-4.3,23.4-6.2,35.3-5.4c6.1,0.4,12.1,1.5,18,3.4c4.4,1.4,11,6.2,15.4,5.7
			c1.2-0.1,2.4-0.5,3.7-1l13.4-54.9c0,0-54.5-22.7-66.7-22.5c-11,0.2-33.5,36.1-46.1,81c-0.6,4.5-1.2,8.9-1.8,13.4
			C336.4,184.2,357.9,174.8,364.1,172.4z"/>
		<path class="st0" d="M760.7,453.3c98-6.7,174.8-59.5,207.2-85.5c10.4-8.4,13.9-22.7,8.5-34.9c-16.7-38-60.4-120.3-144.3-171.5
			C708,85.5,450,120.2,450,120.2c-18.3,14.4-36.4,48.2-46.8,90.8c-10.4,42.6-10,80.9-0.4,102.2C402.7,313.2,615.6,463.1,760.7,453.3
			z"/>
		
			<ellipse transform="matrix(0.7071 -0.7071 0.7071 0.7071 11.1974 558.3199)" class="st64" cx="679.6" cy="265.6" rx="92.5" ry="92.5"/>
		<path class="st65" d="M402.3,235.6c14.2-38.8,49.1-67.5,87.8-82.1c38.7-14.6,81-16.5,122.3-14.7c75.7,3.3,151.5,21.3,190.5,85.5
			c5.7,9.5,10.4,19.7,13.6,30.3c1.9,6.5,9.5,35.7,9.5,35.7c14.9,16.1,27.7-24.6,32-34.7c10-23.4,12-47.5,7.8-70.5
			c-10.4-8.4-21.6-16.4-33.6-23.7C708,85.5,450,120.2,450,120.2c-18.3,14.4-36.4,48.2-46.8,90.8c-0.8,3.3-1.6,6.6-2.2,9.9
			C401.1,225.9,401.5,230.7,402.3,235.6z"/>
		<path class="st0" d="M834.6,162.8c4.5,39.8,0.2,93.3-13.8,150.4c-14,57.1-34.9,106.6-57.3,139.8c96.7-7.5,172.3-59.5,204.3-85.3
			c10.4-8.4,13.9-22.7,8.5-34.9C959.9,295.2,916.9,214.1,834.6,162.8z"/>
		<g>
			<path class="st17" d="M972.2,349.1c-31.2,25.1-103.7,75.1-196.8,84.6c-3.9,6.9-7.8,13.4-11.8,19.3
				c96.7-7.5,172.3-59.5,204.3-85.3c8-6.4,11.9-16.3,10.9-26.1C977,344.4,974.8,347,972.2,349.1z"/>
			<path class="st17" d="M824.9,295.2c0-0.2,0.1-0.4,0.1-0.6c11.5-47,16.4-91.6,15.3-128.1c-1.9-1.3-3.8-2.5-5.8-3.7
				C838.6,198.4,835.6,244.9,824.9,295.2z"/>
		</g>
		<path class="st17" d="M835.4,198c-0.2,3.9-0.5,7.9-0.7,11.9c-0.4,7.9-0.8,15.8-1.3,23.8c-0.4,7.7-1,15.3-1.5,23
			c-0.4,5.7-0.9,11.4-2.1,16.9c6.5-2.7,14.1-4.1,22.6-2c33.1,8.1,78.4,59,101,86.7c2-6.3,1.7-13.3-1.1-19.7
			C938,305.7,902.3,238.1,836,189.5C835.8,192.3,835.6,195.2,835.4,198z"/>
		<g>
			<path class="st1" d="M760.7,459.6c35.4-2.5,70.1-10.7,103-23.8c26.9-10.7,52.6-24.2,76.8-40.2c9.1-6,17.9-12.4,26.6-19.1
				c4.9-3.8,9.6-7.6,12.9-13c4.5-7.3,6.1-16,4.8-24.4c-0.8-5.8-3.5-11-5.9-16.2c-2-4.2-4-8.4-6.1-12.6
				c-5.1-10.1-10.6-20.1-16.5-29.8c-15-24.8-32.6-48.1-52.6-69.1c-22.2-23.4-47.9-44.6-76.3-60.2c-22.1-12.2-46.2-20.6-70.6-26.9
				c-26.3-6.8-53.3-11-80.3-13.9c-26.5-2.8-53.1-4.1-79.7-4.5c-23.5-0.3-47,0.2-70.5,1.4c-17.3,0.9-34.7,2.1-51.9,3.8
				c-8,0.8-15.9,1.6-23.9,2.6c-3,0.4-5.1,1.9-7.3,3.8c-4.9,4.3-9.1,9.3-13,14.6c-9.7,13-16.7,27.9-22.6,42.9
				c-7.1,18.4-12.2,37.6-15.3,57.1c-2.9,17.8-4.4,36-2.5,54c0.7,7.3,1.9,14.5,4.1,21.5c1.2,3.9,2.4,8.7,5.9,11.2c2,1.4,4,2.8,6,4.1
				c11,7.5,22.3,14.6,33.6,21.7c18.4,11.4,37,22.3,56,32.6c23.2,12.7,46.8,24.5,71,35.3c25.8,11.5,52.2,21.9,79.2,30.2
				c25.9,7.9,52.5,13.9,79.5,16.3C736.9,460.2,748.8,460.4,760.7,459.6c3.4-0.2,6.4-2.8,6.4-6.4c0-3.3-2.9-6.6-6.4-6.4
				c-30.7,2-59.8-2.5-89.4-10.1c-31.7-8-63-19.6-92.5-32.5c-28.6-12.5-56.4-26.5-83.7-41.7c-20.9-11.6-41.5-23.8-61.7-36.7
				c-9.2-5.8-18-12.3-27.3-18c-0.1-0.1-0.2-0.2-0.4-0.3c0.8,0.8,1.5,1.5,2.3,2.3c-0.8-1.8,0.4,1.1-0.3-0.8c-0.2-0.6-0.5-1.2-0.7-1.8
				c-0.4-1-0.7-2.1-1.1-3.1c-0.8-2.7-1.5-5.5-2.1-8.2c-1.2-5.8-1.7-11.1-2.1-17.1c-0.8-14.5,0.3-29.1,2.6-43.5
				c4.7-29,13.3-58.4,28.1-84c5.9-10.3,12.4-19.4,21.7-26.9c-1.5,0.6-3,1.2-4.5,1.9c8.1-1.1,16.2-1.9,24.3-2.7
				c20.8-2,41.6-3.4,62.4-4.2c28.5-1.2,57.1-1.4,85.6-0.3c31.5,1.2,62.8,3.9,93.2,9.2c15.2,2.6,30.2,5.9,45.1,10
				c7.3,2,14.5,4.2,21.6,6.7c3.4,1.2,6.7,2.4,10.1,3.7c1.7,0.6,3.3,1.3,4.9,2c0.8,0.3,1.6,0.7,2.4,1c-0.8-0.3,0.2,0.1,0.3,0.1
				c0.5,0.2,1,0.4,1.5,0.6c32.2,14,60.9,35.5,85.8,60.1c23.7,23.5,43.8,50,60.8,78.8c6.4,10.8,12.3,21.9,17.7,33.3
				c1.1,2.3,2.2,4.6,3.2,7c0.4,1,0.9,2,1.3,2.9c0.5,1.1,1,2.5,1.6,4.6c1.9,7.6-0.3,15.9-6,21.7c-2,2.1-4.4,3.8-6.7,5.6
				c-0.5,0.4-1,0.8-1.5,1.2c1.1-0.9-0.3,0.2-0.7,0.5c-1.2,0.9-2.3,1.8-3.5,2.6c-5,3.7-10.1,7.4-15.3,10.9
				c-12.7,8.6-25.9,16.6-39.5,23.8c-33.6,17.9-69.8,31.1-107.4,37.6c-10.2,1.8-20.4,3-30.7,3.7c-3.4,0.2-6.4,2.8-6.4,6.4
				C754.3,456.5,757.3,459.9,760.7,459.6z"/>
		</g>
		<g>
			<path class="st1" d="M769.1,456.3c9.5-14.2,17.6-29.3,24.8-44.9c8.6-18.6,15.9-37.8,22.1-57.3c6.9-21.4,12.5-43.3,16.8-65.3
				c4.2-21.4,7.3-43.2,8.9-65c1.3-18.3,1.5-36.7-0.1-55c-0.2-2-0.4-4-0.6-6c-0.4-3.3-2.7-6.5-6.4-6.4c-3.1,0.1-6.8,2.8-6.4,6.4
				c2,17.7,2.1,35.6,1.1,53.4c-0.5,10.1-1.4,20.1-2.6,30.1c-0.2,1.3-0.3,2.6-0.5,3.9c-0.1,0.6-0.2,1.2-0.2,1.8c0,0.3-0.1,0.7-0.1,1
				c0.1-0.9,0.1-0.5,0,0.1c-0.4,2.7-0.7,5.3-1.1,8c-0.8,5.4-1.7,10.8-2.7,16.2c-4,22.1-9.3,44-15.9,65.4c-3,10-6.4,20-10,29.8
				c-1.7,4.7-3.5,9.3-5.4,13.9c-0.9,2.2-1.8,4.5-2.8,6.7c0.7-1.5-0.2,0.4-0.3,0.7c-0.2,0.5-0.4,1-0.7,1.5c-0.5,1.1-0.9,2.2-1.4,3.3
				c-7,15.9-15,31.5-24.4,46.2c-1,1.6-2.1,3.2-3.2,4.8c-1.9,2.8-0.6,7.2,2.3,8.7C763.5,460.3,767.1,459.2,769.1,456.3L769.1,456.3z"
				/>
		</g>
		<g>
			<path class="st1" d="M451.7,114.1c-6.2-2.6-12.4-5-18.7-7.5c-11.1-4.3-22.3-8.6-33.8-12c-4.6-1.4-9.3-2.6-14.1-3.1
				c-4.1-0.4-7.9,1-11.1,3.5c-4.8,3.7-8.6,8.3-12.1,13.1c-4.2,5.8-7.8,12-11.1,18.3c-8.7,16.7-15.5,34.5-20.4,52.7
				c-1.4,4.9-2.4,9.9-3.7,14.9c-1.4,5.5-2.7,11-3.8,16.5c-2.1,10.6-3.6,21.3-4.5,32.1c-0.7,9.1-1,18.2-0.6,27.2
				c0.3,7.4,1,14.9,2.8,22.1c1.2,4.9,3,10.3,6.7,14c3.1,3,7.6,4.2,11.6,5.2c11.6,2.8,23.6,4.2,35.4,5.6c9,1.1,18,2,27,2.8
				c0.5,0,0.9,0.1,1.4,0.1c1.5,0.1,3.4-0.8,4.5-1.9c1.1-1.1,1.9-2.9,1.9-4.5c-0.2-3.7-2.8-6.1-6.4-6.4c-8.5-0.7-16.9-1.6-25.3-2.6
				c-4-0.5-8-1-12-1.5c0.6,0.1,1.1,0.2,1.7,0.2c-8.8-1.2-17.8-2.4-26.4-4.7c-1.6-0.4-3.1-0.9-4.6-1.5c0.5,0.2,1,0.4,1.5,0.6
				c-0.5-0.2-1-0.5-1.5-0.8c-0.5-0.3-1-1,0.8,0.7c-0.1-0.1-0.2-0.2-0.3-0.3c-0.3-0.2-0.5-0.5-0.7-0.7c-0.7-0.7,0.5,0.7,0.6,0.8
				c-0.1-0.2-0.2-0.3-0.3-0.5c-0.2-0.3-0.4-0.7-0.6-1c-0.5-0.8-0.9-1.7-1.2-2.5c0.2,0.5,0.4,1,0.6,1.5c-1.9-4.6-2.8-9.5-3.5-14.4
				c0.1,0.6,0.2,1.1,0.2,1.7c-1.8-13.2-1.5-26.6-0.4-39.8c0.4-4.5,0.9-9,1.5-13.5c-0.1,0.6-0.2,1.1-0.2,1.7
				c0.8-5.8,1.7-11.6,2.9-17.3c1.2-5.8,2.6-11.6,4.1-17.3c1.3-5.4,2.6-10.8,4.1-16.2c1.5-5.1,3-10.1,4.8-15.1
				c1.9-5.4,3.9-10.7,6.2-16c-0.2,0.5-0.4,1-0.6,1.5c3.8-9.1,8.2-18,13.2-26.5c2-3.4,4.2-6.7,6.5-9.9c0.3-0.4,0.5-0.7,0.8-1.1
				c0.6-0.8-1.1,1.4-0.5,0.6c0.1-0.2,0.3-0.3,0.4-0.5c0.5-0.6,1-1.3,1.6-1.9c1-1.1,2-2.2,3.1-3.3c0.5-0.5,1-1,1.6-1.5
				c0.2-0.2,0.5-0.4,0.7-0.6c1.1-0.9-1.5,1.1-0.4,0.3c0.9-0.7,1.9-1.3,2.9-1.7c-0.5,0.2-1,0.4-1.5,0.6c0.6-0.3,1.3-0.5,2-0.6
				c-0.6,0.1-1.1,0.2-1.7,0.2c1-0.1,2.1,0,3.1,0.1c-0.6-0.1-1.1-0.2-1.7-0.2c4.2,0.6,8.3,1.8,12.4,3c5.4,1.7,10.8,3.5,16.2,5.4
				c9.9,3.6,19.8,7.4,29.5,11.4c2,0.8,4.1,1.7,6.1,2.5c1.4,0.6,3.7,0.1,4.9-0.6c1.3-0.8,2.6-2.3,2.9-3.8c0.4-1.6,0.3-3.5-0.6-4.9
				C454.5,115.5,453.3,114.7,451.7,114.1L451.7,114.1z"/>
		</g>
		<g>
			<path class="st1" d="M372.5,100.7c-5.5-1.9-11-3.7-16.5-5.2c-4.1-1.1-8.3-2.3-12.6-2.4c-5.7-0.2-10.7,3.6-14.6,7.4
				c-5.2,5-9.4,11.1-13.2,17.1c-4.8,7.7-9,16-12.5,24.3c-4.4,10.2-8.1,20.6-10.9,31.3c-0.7,2.6-1.3,5.2-1.9,7.9
				c-0.7,3-1.5,5.9-2.2,8.8c-1.4,5.8-2.5,11.6-3.4,17.4c-1.7,11.3-2.8,22.6-2.7,34.1c0,9.1,0.7,18.3,2.6,27.1
				c0.8,3.5,1.8,6.9,3.3,10.2c1.1,2.5,2.5,4.9,4.4,6.8c2.6,2.5,6,3.7,9.4,4.7c4.7,1.3,9.6,2.2,14.5,3.1c2.9,0.5,5.8,1,8.7,1.4
				c1.8,0.3,3.3,0.3,4.9-0.6c1.3-0.8,2.6-2.3,2.9-3.8c0.4-1.6,0.3-3.5-0.6-4.9c-0.8-1.3-2.2-2.7-3.8-2.9c-5.4-0.8-10.8-1.7-16.2-2.8
				c-3.7-0.8-7.5-1.5-11-3c0.5,0.2,1,0.4,1.5,0.6c-0.7-0.3-1.3-0.6-1.8-1c0.4,0.3,0.9,0.7,1.3,1c-0.7-0.5-1.2-1.1-1.7-1.8
				c0.3,0.4,0.7,0.9,1,1.3c-1-1.4-1.8-2.9-2.5-4.5c0.2,0.5,0.4,1,0.6,1.5c-2.1-4.9-3.1-10.3-3.8-15.5c0.1,0.6,0.2,1.1,0.2,1.7
				c-1.5-11.6-1.4-23.4-0.5-35c0.3-3.9,0.7-7.7,1.2-11.6c-0.1,0.6-0.2,1.1-0.2,1.7c0.6-4.7,1.4-9.4,2.4-14.1c1-4.8,2.2-9.6,3.4-14.4
				c1-4.3,2-8.5,3.2-12.7c1.2-4.2,2.5-8.4,3.9-12.5c1.5-4.5,3.2-8.9,5.1-13.2c-0.2,0.5-0.4,1-0.6,1.5c4.2-9.8,9-19.5,14.9-28.4
				c1.4-2.1,2.8-4.1,4.3-6.1c-0.3,0.4-0.7,0.9-1,1.3c2.6-3.4,5.5-6.7,8.8-9.3c-0.4,0.3-0.9,0.7-1.3,1c1.2-0.9,2.5-1.8,4-2.4
				c-0.5,0.2-1,0.4-1.5,0.6c0.7-0.3,1.4-0.5,2.2-0.6c-0.6,0.1-1.1,0.2-1.7,0.2c1-0.1,2,0,3,0.1c-0.6-0.1-1.1-0.2-1.7-0.2
				c3.7,0.5,7.4,1.5,11,2.6c4.9,1.4,9.8,3,14.6,4.6c3.2,1.1,7.1-1.2,7.8-4.5C377.8,105,375.9,101.9,372.5,100.7L372.5,100.7z"/>
		</g>
		
			<ellipse transform="matrix(0.7071 -0.7071 0.7071 0.7071 2.58 566.0812)" class="st17" cx="684.6" cy="279.9" rx="92.5" ry="92.5"/>
		<g>
			<path class="st1" d="M664.3,363.7c-4.8-1.2-9.5-2.7-14.1-4.7c0.5,0.2,1,0.4,1.5,0.6c-7.3-3.1-14.2-7.1-20.5-12
				c0.4,0.3,0.9,0.7,1.3,1c-6.2-4.8-11.8-10.4-16.6-16.6c0.3,0.4,0.7,0.9,1,1.3c-4.9-6.4-9-13.4-12.1-20.8c0.2,0.5,0.4,1,0.6,1.5
				c-3.2-7.6-5.3-15.5-6.4-23.6c0.1,0.6,0.2,1.1,0.2,1.7c-1.1-8.1-1.1-16.3,0-24.4c-0.1,0.6-0.2,1.1-0.2,1.7
				c1.1-8.2,3.3-16.3,6.5-23.9c-0.2,0.5-0.4,1-0.6,1.5c3.1-7.3,7.1-14.2,12-20.5c-0.3,0.4-0.7,0.9-1,1.3
				c4.8-6.2,10.4-11.8,16.6-16.6c-0.4,0.3-0.9,0.7-1.3,1c6.4-4.9,13.4-9,20.8-12.1c-0.5,0.2-1,0.4-1.5,0.6
				c7.6-3.2,15.5-5.3,23.6-6.4c-0.6,0.1-1.1,0.2-1.7,0.2c8.1-1.1,16.3-1.1,24.4,0c-0.6-0.1-1.1-0.2-1.7-0.2
				c8.2,1.1,16.3,3.3,23.9,6.5c-0.5-0.2-1-0.4-1.5-0.6c7.3,3.1,14.2,7.1,20.5,12c-0.4-0.3-0.9-0.7-1.3-1
				c6.2,4.8,11.8,10.4,16.6,16.6c-0.3-0.4-0.7-0.9-1-1.3c4.9,6.4,9,13.4,12.1,20.8c-0.2-0.5-0.4-1-0.6-1.5
				c3.2,7.6,5.3,15.5,6.4,23.6c-0.1-0.6-0.2-1.1-0.2-1.7c1.1,8.1,1.1,16.3,0,24.4c0.1-0.6,0.2-1.1,0.2-1.7
				c-1.1,8.2-3.3,16.3-6.5,23.9c0.2-0.5,0.4-1,0.6-1.5c-3.1,7.3-7.1,14.2-12,20.5c0.3-0.4,0.7-0.9,1-1.3
				c-4.8,6.2-10.4,11.8-16.6,16.6c0.4-0.3,0.9-0.7,1.3-1c-6.4,4.9-13.4,9-20.8,12.1c0.5-0.2,1-0.4,1.5-0.6
				c-7.6,3.2-15.5,5.3-23.6,6.4c0.6-0.1,1.1-0.2,1.7-0.2c-8.1,1.1-16.3,1.1-24.4,0c0.6,0.1,1.1,0.2,1.7,0.2
				C670.8,365.1,667.6,364.4,664.3,363.7c-3.2-0.8-7.1,1-7.8,4.5c-0.7,3.3,1,7,4.5,7.8c9.9,2.4,20.3,3.4,30.5,2.7
				c9.9-0.7,19.8-2.8,29-6.5c4.8-1.9,9.4-4.1,13.9-6.7c4.4-2.6,8.6-5.6,12.6-8.8c7.7-6.2,14.4-13.7,20-21.9
				c5.7-8.4,10-17.9,12.7-27.6c2.8-9.9,4.1-20.3,3.8-30.6c-0.4-10-2.2-19.9-5.5-29.3c-3.3-9.2-7.8-18-13.7-25.9
				c-6.2-8.4-13.5-15.6-22-21.8c-8.2-6-17.4-10.5-27-13.7c-9.8-3.2-20.2-4.9-30.5-4.9c-9.9,0-20,1.5-29.5,4.5
				c-9.4,2.9-18.4,7.3-26.5,12.9c-8.1,5.6-15.4,12.3-21.5,20c-3.3,4.1-6.3,8.5-8.8,13.1c-2.6,4.6-4.8,9.5-6.6,14.5
				c-3.6,9.7-5.6,20.1-6,30.4c-0.4,10,0.8,20.1,3.4,29.7c2.6,9.5,6.7,18.7,11.9,26.9c5.3,8.3,11.8,15.8,19.3,22.2
				c4,3.4,8.2,6.5,12.6,9.2c4.6,2.8,9.4,5.1,14.3,7.2c4.4,1.8,9,3.3,13.6,4.5c3.2,0.8,7.1-1,7.8-4.5
				C669.5,368.2,667.8,364.5,664.3,363.7z"/>
		</g>
		
			<ellipse transform="matrix(3.923681e-02 -0.9992 0.9992 3.923681e-02 378.0378 953.0262)" class="st0" cx="684.6" cy="279.9" rx="58.8" ry="58.8"/>
		<path class="st17" d="M731.6,284.8c-7.7,31.5-39.5,50.8-71.1,43.1c-7.4-1.8-14.1-4.9-20-9.1c7.7,8.7,18,15.2,30.1,18.2
			c31.5,7.7,63.4-11.6,71.1-43.1c5.9-24.1-4-48.4-23.1-62C730.8,245.9,736.3,265.4,731.6,284.8z"/>
		<path class="st17" d="M649.3,327c-9-13.3-12.5-30.1-8.4-46.9c7.7-31.5,39.5-50.8,71.1-43.1c8,1.9,15.1,5.4,21.3,10.1
			c-7.9-11.7-20-20.5-34.7-24.1c-31.5-7.7-63.4,11.6-71.1,43.1C621.7,289.5,631.1,313.3,649.3,327z"/>
		<g>
			<path class="st1" d="M671.9,332.4c-3.1-0.8-6.1-1.8-9-3c0.4,0.2,0.8,0.3,1.1,0.5c-2.7-1.2-5.4-2.5-7.9-4.1
				c-1.3-0.8-2.5-1.6-3.7-2.5c-0.3-0.2-0.5-0.4-0.8-0.6c-0.3-0.2-0.8-0.6,0.4,0.3c-0.1-0.1-0.2-0.2-0.3-0.3c-0.6-0.5-1.2-1-1.8-1.5
				c-2.2-1.9-4.2-3.9-6.1-6.1c-0.5-0.5-0.9-1.1-1.4-1.6c-0.2-0.3-0.5-0.5-0.7-0.8c0,0,0.8,1,0.4,0.5c-0.1-0.2-0.3-0.3-0.4-0.5
				c-0.9-1.1-1.7-2.3-2.4-3.5c-1.8-2.8-3.3-5.7-4.6-8.7c0.2,0.4,0.3,0.8,0.5,1.1c-2-4.8-3.4-9.9-4.1-15.1c0.1,0.4,0.1,0.8,0.2,1.3
				c-0.7-5.1-0.7-10.3,0-15.4c-0.1,0.4-0.1,0.8-0.2,1.3c0.7-5.3,2.1-10.4,4.2-15.3c-0.2,0.4-0.3,0.8-0.5,1.1
				c1.2-2.7,2.5-5.4,4.1-7.9c0.8-1.3,1.6-2.5,2.5-3.7c0.2-0.3,0.4-0.5,0.6-0.8c0.2-0.3,0.6-0.8-0.3,0.4c0.1-0.1,0.2-0.2,0.3-0.3
				c0.5-0.6,1-1.2,1.5-1.8c1.9-2.2,3.9-4.2,6.1-6.1c0.5-0.5,1.1-0.9,1.6-1.4c0.3-0.2,0.5-0.5,0.8-0.7c0,0-1,0.8-0.5,0.4
				c0.2-0.1,0.3-0.3,0.5-0.4c1.1-0.9,2.3-1.7,3.5-2.4c2.8-1.8,5.7-3.3,8.7-4.6c-0.4,0.2-0.8,0.3-1.1,0.5c4.8-2,9.9-3.4,15.1-4.1
				c-0.4,0.1-0.8,0.1-1.3,0.2c5.1-0.7,10.3-0.7,15.4,0c-0.4-0.1-0.8-0.1-1.3-0.2c5.3,0.7,10.4,2.1,15.3,4.2
				c-0.4-0.2-0.8-0.3-1.1-0.5c2.7,1.2,5.4,2.5,7.9,4.1c1.3,0.8,2.5,1.6,3.7,2.5c0.3,0.2,0.5,0.4,0.8,0.6c0.3,0.2,0.8,0.6-0.4-0.3
				c0.1,0.1,0.2,0.2,0.3,0.3c0.6,0.5,1.2,1,1.8,1.5c2.2,1.9,4.2,3.9,6.1,6.1c0.5,0.5,0.9,1.1,1.4,1.6c0.2,0.3,0.5,0.5,0.7,0.8
				c0,0-0.8-1-0.4-0.5c0.1,0.2,0.3,0.3,0.4,0.5c0.9,1.1,1.7,2.3,2.4,3.5c1.8,2.8,3.3,5.7,4.6,8.7c-0.2-0.4-0.3-0.8-0.5-1.1
				c2,4.8,3.4,9.9,4.1,15.1c-0.1-0.4-0.1-0.8-0.2-1.3c0.7,5.1,0.7,10.3,0,15.4c0.1-0.4,0.1-0.8,0.2-1.3c-0.7,5.3-2.1,10.4-4.2,15.3
				c0.2-0.4,0.3-0.8,0.5-1.1c-1.2,2.7-2.5,5.4-4.1,7.9c-0.8,1.3-1.6,2.5-2.5,3.7c-0.2,0.3-0.4,0.5-0.6,0.8c-0.2,0.3-0.6,0.8,0.3-0.4
				c-0.1,0.1-0.2,0.2-0.3,0.3c-0.5,0.6-1,1.2-1.5,1.8c-1.9,2.2-3.9,4.2-6.1,6.1c-0.5,0.5-1.1,0.9-1.6,1.4c-0.3,0.2-0.5,0.5-0.8,0.7
				c0,0,1-0.8,0.5-0.4c-0.2,0.1-0.3,0.3-0.5,0.4c-1.1,0.9-2.3,1.7-3.5,2.4c-2.8,1.8-5.7,3.3-8.7,4.6c0.4-0.2,0.8-0.3,1.1-0.5
				c-4.8,2-9.9,3.4-15.1,4.1c0.4-0.1,0.8-0.1,1.3-0.2c-5.1,0.7-10.3,0.7-15.4,0c0.4,0.1,0.8,0.1,1.3,0.2
				C676.1,333.3,674,332.9,671.9,332.4c-2.4-0.6-5.3,0.8-5.9,3.3c-0.6,2.5,0.7,5.2,3.3,5.9c12.6,3.1,26.2,2.3,38.3-2.5
				c6.2-2.5,11.9-5.8,17.1-10c5-4,9.2-8.8,12.8-14c7.3-10.9,11.1-24.4,10.6-37.5c-0.5-12.7-4.8-25.2-12.4-35.4
				c-4-5.4-8.7-10-14.1-13.9c-5.3-3.9-11.2-6.8-17.4-8.8c-12.4-4.1-26.1-4.2-38.6-0.2c-12,3.8-23,11.1-30.8,21.1
				c-4.3,5.4-7.6,11.3-10,17.8c-2.3,6.2-3.6,12.8-3.8,19.4c-0.5,12.7,3,25.6,9.8,36.3c3.4,5.3,7.6,10.2,12.4,14.3
				c5.2,4.4,10.9,7.8,17.2,10.5c2.9,1.2,5.8,2.2,8.8,2.9c2.4,0.6,5.3-0.8,5.9-3.3C675.8,335.8,674.5,333.1,671.9,332.4z"/>
		</g>
		<g>
			<path class="st1" d="M674.1,355.1c0-0.2,0.1-0.4,0.1-0.6c0.3-0.8,0.3-1.7,0.1-2.5c0-0.8-0.3-1.6-0.8-2.4
				c-0.4-0.7-0.9-1.3-1.6-1.8c-0.6-0.6-1.3-0.9-2.2-1.1c-0.6-0.1-1.1-0.2-1.7-0.2c-1.2,0-2.2,0.3-3.2,0.9c-0.4,0.3-0.9,0.7-1.3,1
				c-0.8,0.8-1.3,1.7-1.6,2.8c0,0.2-0.1,0.4-0.1,0.6c-0.3,0.8-0.3,1.7-0.1,2.5c0,0.8,0.3,1.6,0.8,2.4c0.4,0.7,0.9,1.3,1.6,1.8
				c0.6,0.6,1.3,0.9,2.2,1.1c0.6,0.1,1.1,0.2,1.7,0.2c1.2,0,2.2-0.3,3.2-0.9c0.4-0.3,0.9-0.7,1.3-1
				C673.2,357.1,673.8,356.2,674.1,355.1L674.1,355.1z"/>
		</g>
		<g>
			<path class="st1" d="M609.9,268.4c0.2,0,0.4,0.1,0.6,0.1c0.8,0.3,1.7,0.3,2.5,0.1c0.8,0,1.6-0.3,2.4-0.8c0.7-0.4,1.3-0.9,1.8-1.6
				c0.6-0.6,0.9-1.3,1.1-2.2c0.1-0.6,0.2-1.1,0.2-1.7c0-1.2-0.3-2.2-0.9-3.2c-0.3-0.4-0.7-0.9-1-1.3c-0.8-0.8-1.7-1.3-2.8-1.6
				c-0.2,0-0.4-0.1-0.6-0.1c-0.8-0.3-1.7-0.3-2.5-0.1c-0.8,0-1.6,0.3-2.4,0.8c-0.7,0.4-1.3,0.9-1.8,1.6c-0.6,0.6-0.9,1.3-1.1,2.2
				c-0.1,0.6-0.2,1.1-0.2,1.7c0,1.2,0.3,2.2,0.9,3.2c0.3,0.4,0.7,0.9,1,1.3C607.9,267.6,608.8,268.1,609.9,268.4L609.9,268.4z"/>
		</g>
		<g>
			<path class="st1" d="M702.1,202c-3.3,0-6.5,2.9-6.4,6.4c0.2,3.5,2.8,6.4,6.4,6.4c3.3,0,6.5-2.9,6.4-6.4
				C708.3,204.9,705.7,202,702.1,202L702.1,202z"/>
		</g>
		<g>
			<path class="st1" d="M755.1,304.6c0.2,0,0.4,0.1,0.6,0.1c0.8,0.3,1.7,0.3,2.5,0.1c0.8,0,1.6-0.3,2.4-0.8c0.7-0.4,1.3-0.9,1.8-1.6
				c0.6-0.6,0.9-1.3,1.1-2.2c0.1-0.6,0.2-1.1,0.2-1.7c0-1.2-0.3-2.2-0.9-3.2c-0.3-0.4-0.7-0.9-1-1.3c-0.8-0.8-1.7-1.3-2.8-1.6
				c-0.2,0-0.4-0.1-0.6-0.1c-0.8-0.3-1.7-0.3-2.5-0.1c-0.8,0-1.6,0.3-2.4,0.8c-0.7,0.4-1.3,0.9-1.8,1.6c-0.6,0.6-0.9,1.3-1.1,2.2
				c-0.1,0.6-0.2,1.1-0.2,1.7c0,1.2,0.3,2.2,0.9,3.2c0.3,0.4,0.7,0.9,1,1.3C753.1,303.7,754,304.3,755.1,304.6L755.1,304.6z"/>
		</g>
		<g>
			<path class="st1" d="M616.3,323c0.2,0.3,0.3,0.5,0.5,0.8c0.4,0.7,0.9,1.3,1.6,1.8c0.6,0.6,1.3,0.9,2.2,1.1
				c0.8,0.3,1.7,0.3,2.5,0.1c0.8,0,1.6-0.3,2.4-0.8c0.4-0.3,0.9-0.7,1.3-1c0.8-0.8,1.3-1.7,1.6-2.8c0.1-0.6,0.2-1.1,0.2-1.7
				c0-1.2-0.3-2.2-0.9-3.2c-0.2-0.3-0.3-0.5-0.5-0.8c-0.4-0.7-0.9-1.3-1.6-1.8c-0.6-0.6-1.3-0.9-2.2-1.1c-0.8-0.3-1.7-0.3-2.5-0.1
				c-0.8,0-1.6,0.3-2.4,0.8c-0.4,0.3-0.9,0.7-1.3,1c-0.8,0.8-1.3,1.7-1.6,2.8c-0.1,0.6-0.2,1.1-0.2,1.7
				C615.4,320.9,615.7,322,616.3,323L616.3,323z"/>
		</g>
		<g>
			<path class="st1" d="M724.8,334.1c-3.3,0-6.5,2.9-6.4,6.4c0.2,3.5,2.8,6.4,6.4,6.4c3.3,0,6.5-2.9,6.4-6.4
				C731,337,728.3,334.1,724.8,334.1L724.8,334.1z"/>
		</g>
		<g>
			<path class="st1" d="M747.3,234.1c-3.3,0-6.5,2.9-6.4,6.4c0.2,3.5,2.8,6.4,6.4,6.4c3.3,0,6.5-2.9,6.4-6.4
				C753.5,237,750.9,234.1,747.3,234.1L747.3,234.1z"/>
		</g>
		<g>
			<path class="st1" d="M642.7,212.4c-3.3,0-6.5,2.9-6.4,6.4c0.2,3.5,2.8,6.4,6.4,6.4c3.3,0,6.5-2.9,6.4-6.4
				C648.9,215.3,646.3,212.4,642.7,212.4L642.7,212.4z"/>
		</g>
		<g>
			<path class="st1" d="M290.6,261.5c2.7-4.4-0.9-9.7-5.8-9.8c-1.2,0-2.4,0.3-3.6,0.5c-3.1,0.5-6.2,1.1-9.4,1.6
				c-0.5,0.1-1,0.1-1.5,0.2c-0.3,0-0.5,0.1-0.8,0.1c-1,0.1,1.8-0.2,0.4,0c-1.2,0.2-2.5,0.3-3.7,0.4c-2.8,0.3-5.7,0.6-8.5,0.7
				c-7,0.4-14,0.5-20.9,0.1c-4-0.2-8-0.6-11.9-1.1c-0.3,0-0.6-0.1-1-0.1c-0.7-0.1,0.5,0.1,0.5,0.1c-0.3-0.2-1.1-0.2-1.5-0.2
				c-1.1-0.2-2.3-0.3-3.4-0.5c-2.2-0.4-4.4-0.8-6.5-1.2c-9.6-1.9-18.9-4.7-28-8.2c-1.1-0.4-2.2-0.9-3.3-1.3
				c-0.3-0.1-0.6-0.2-0.8-0.3c0,0-1-0.4-0.4-0.1c0.7,0.3-0.5-0.2-0.6-0.3c-0.3-0.1-0.7-0.3-1-0.4c-1.2-0.5-2.5-1.1-3.7-1.7
				c-2.6-1.2-5.1-2.5-7.7-3.8c-5.5-2.9-10.9-6-16.3-9.2c-11.7-7.1-23-14.9-34.1-22.9c-2.8-2.1-5.7-4.2-8.5-6.3
				c-1.4-1.1-2.8-2.1-4.2-3.2c-0.7-0.5-1.4-1.1-2.1-1.6c-0.2-0.1-0.3-0.2-0.5-0.4c-0.5-0.4-0.1-0.3,0,0c0.1,0.3,0.5,0.4,0,0
				c-0.2-0.2-0.4-0.3-0.6-0.5c-5.6-4.3-11.1-8.7-16.6-13.2c-10.2-8.3-20.2-16.9-30.1-25.6c-7.9-7-15.7-14.2-23.3-21.6
				c-4.7-4.6-9.4-9.1-13.6-14.2c-0.1-0.2-0.3-0.3-0.4-0.5c-0.8-1,0.9,1.3,0.5,0.7c-0.2-0.3-0.4-0.6-0.6-0.9
				c-0.1-0.2-0.3-0.5-0.4-0.7c-0.5-0.7,0.7,2,0.4,1c0.4,1.6,0.1,3.4-0.6,4.6c0-0.1-1.5,1.7-0.7,1c0.4-0.3-1.8,1.2-0.8,0.7
				c0.2-0.1,0.4-0.2,0.6-0.4c0.5-0.3,1.1-0.6,1.7-0.9c0.3-0.2,0.7-0.3,1.1-0.5c0.2-0.1,0.4-0.2,0.5-0.2c1.2-0.5-0.9,0.4-0.8,0.3
				c2.1-0.8,4.2-1.7,6.3-2.4c6.2-2.2,12.5-4.2,18.8-6.1c8.5-2.5,17.1-4.8,25.8-6.9c10.3-2.5,20.6-4.7,31-6.6
				c5.7-1.1,11.4-2,17.1-2.9c2.9-0.5,5.8-0.9,8.7-1.3c0.7-0.1,1.5-0.2,2.2-0.3c0.3,0,0.7-0.1,1-0.1c1.4-0.2-1.4,0.2,0,0
				c1.5-0.2,3-0.4,4.5-0.6c12.2-1.5,24.5-2.6,36.8-3.2c12.5-0.6,25-0.7,37.5-0.1c6.2,0.3,12.3,0.8,18.4,1.5c1.5,0.2,3,0.3,4.5,0.5
				c0.3,0,1.5,0.2,0.4,0c-1.2-0.2,0.1,0,0.4,0.1c0.8,0.1,1.6,0.2,2.4,0.3c2.9,0.4,5.9,0.9,8.8,1.5c11.4,2.1,22.7,5.1,33.6,9.3
				c1.3,0.5,2.6,1,3.9,1.6c0.4,0.2-1.5-0.6-0.3-0.1c0.3,0.1,0.7,0.3,1,0.4c0.6,0.3,1.3,0.6,1.9,0.8c2.6,1.2,5.1,2.4,7.5,3.7
				c4.8,2.5,9.4,5.4,13.8,8.5c0.5,0.4,1.1,0.8,1.6,1.2c0.2,0.2,0.5,0.4,0.7,0.6c0.1,0.1,0.2,0.2,0.4,0.3c0.8,0.6-0.5-0.4-0.6-0.4
				c1,0.8,2,1.6,3,2.4c2,1.7,4,3.4,5.9,5.3c2.4,2.3,6.7,2.6,9,0c2.3-2.5,2.6-6.5,0-9c-8.2-7.9-17.6-14.6-27.6-19.9
				c-10.4-5.5-21.6-9.8-33-12.9c-12-3.3-24.3-5.5-36.7-6.9c-12.4-1.4-24.8-2-37.3-2c-12.5,0-25,0.6-37.4,1.7
				c-12.6,1.1-25.2,2.7-37.7,4.6C103.2,86,92,88.1,80.9,90.4c-9.7,2.1-19.3,4.4-28.9,6.9c-7.6,2-15.2,4.2-22.7,6.6
				c-5,1.6-10,3.3-14.9,5.3c-3.6,1.5-8.6,3.2-9.8,7.4C4,119.4,5,121.9,6.6,124c1.7,2.3,3.6,4.4,5.5,6.5c5.6,6.1,11.6,11.8,17.6,17.4
				c8.6,8,17.3,15.9,26.2,23.6c10.4,9,21.1,17.8,31.9,26.3c11.5,9.1,23.3,17.9,35.3,26.2c10.9,7.5,22,14.6,33.6,21
				c14.3,7.8,29.5,14,45.4,17.9c16.2,4,33,5.8,49.7,5.3c10.2-0.3,20.4-1.6,30.4-3.4c1-0.2,2-0.4,3-0.5c1.1-0.2-2,0.1-1.1,0.1
				c0.1,0,0.3,0,0.4,0c0,0,0.2,0,0.2,0c0,0-1.7-0.2-1.6-0.2c-0.8-0.2-1.5-0.6-2.1-1.1c-0.2-0.2-0.4-0.3-0.6-0.5
				c-0.5-2-1.1-4.1-1.6-6.1c0,0,0.7-1.6,0.6-1.5c-1.8,2.8-0.7,7.1,2.3,8.7C285,265.4,288.7,264.5,290.6,261.5L290.6,261.5z"/>
		</g>
	</g>
</g>
</svg>
