<?xml version="1.0" encoding="utf-8"?>
<!-- Generator: Adobe Illustrator 27.2.0, SVG Export Plug-In . SVG Version: 6.00 Build 0)  -->
<svg version="1.1" id="Livello_1" xmlns="http://www.w3.org/2000/svg" xmlns:xlink="http://www.w3.org/1999/xlink" x="0px" y="0px"
	 viewBox="0 0 835.3 605.7" style="enable-background:new 0 0 835.3 605.7;" xml:space="preserve">
<style type="text/css">
	.st0{fill:#FFFFFF;}
	.st1{fill:#281E49;}
	.st2{fill:#D4BD09;}
	.st3{fill:#D3D5ED;}
	.st4{fill:#D3D5ED;stroke:#D3D5ED;stroke-miterlimit:10;}
	.st5{opacity:0.3;}
	.st6{fill:#3F2756;}
	.st7{fill:#281E49;stroke:#15264A;stroke-miterlimit:10;}
</style>
<g id="Fondo">
</g>
<g id="Grafica">
</g>
<g>
	<g>
		<g>
			<g>
				<path class="st0" d="M671.5,327.4c-1,11-2.7,22-5.1,32.8c-3.3,15.1-7.9,30-13.7,44.3c-25.2,62.2-73.4,115.2-139.4,145
					c-66.1,29.9-137.9,31-201.4,8.7c-13.9-4.9-27.5-10.9-40.4-18c-10.2-5.6-20-11.8-29.4-18.6c66.4-16.7,143.1-43.6,222.6-79.6
					C544.2,406.1,615.1,366.3,671.5,327.4z"/>
			</g>
		</g>
		<g>
			<g>
				<path class="st0" d="M660.6,222.9c-44,35.6-131,85.5-234.9,132.5c-103.9,47-198.8,79.4-254.6,88.9c-5.8-9.5-11.1-19.5-15.8-29.9
					c-0.2-0.5-0.4-1-0.7-1.5c-2-4.6-4-9.2-5.7-13.8c-4.1-10.9-7.5-21.9-10.2-32.9c-0.1-0.5-0.2-0.9-0.3-1.3
					c-3.9-16.4-6.2-33-6.9-49.5c-1.5-31.4,2.6-62.5,11.7-92c6.8-22,16.3-43.1,28.4-62.7c27.3-44.4,67.8-81.4,118.9-104.5
					c5.1-2.3,10.2-4.4,15.3-6.4c68.8-26.3,142.5-22.5,205.8,5.5c0.4,0.2,0.8,0.3,1.2,0.5c27.5,12.3,52.9,29.2,75.2,50.1
					c10.9,10.3,21,21.5,30.1,33.7c1,1.3,2,2.7,3,4c0.8,1.1,1.6,2.2,2.4,3.3c6.5,9.3,12.5,19.1,17.9,29.4c2,3.8,4,7.7,5.8,11.6
					c0.5,1.1,1,2.2,1.5,3.3C653.3,201.7,657.3,212.3,660.6,222.9z"/>
			</g>
		</g>
		<g>
			<g>
				<path class="st1" d="M402.1,580.9c-58,0-115.7-18.1-164.1-53.3l-12.7-9.2l15.2-3.8c68.4-17.2,144.9-44.6,221.3-79.1
					c76.4-34.6,147.5-74,205.6-113.9l12.9-8.9l-1.4,15.6c-9.1,99.5-71.4,187-162.4,228.1C480,572.7,440.9,580.9,402.1,580.9z
					 M259.7,524.6c74.7,47.8,169.4,55,250.7,18.2c81.4-36.8,138.4-112.6,151.9-200.3c-56.1,37.3-123,73.9-194.4,106.2
					C396.4,481,324.8,507.1,259.7,524.6z"/>
			</g>
		</g>
		<g>
			<g>
				<path class="st2" d="M664.3,156c0.3,0.6,0.4,1.1,0.6,1.7L664.3,156z"/>
			</g>
		</g>
		<g>
			<g>
				<path class="st0" d="M804.3,163c16.3,36.1-37.5,98.9-132.8,164.5c-56.4,38.8-127.3,78.7-206.7,114.6
					c-79.4,35.9-156.2,62.9-222.6,79.6c-112.1,28.2-194.8,27.2-211.2-8.9c-14.8-32.8,28.2-87.5,107.5-146.4c2.7,11,6.1,22,10.2,32.9
					c-21.9,17.9-32.7,32.2-29,40.5c3.8,8.4,22.2,9.6,51.1,4.7c55.8-9.5,150.7-41.9,254.6-88.9c103.9-47,190.9-96.8,234.9-132.5
					c22.8-18.4,34.1-33.1,30.2-41.5c-3.7-8.3-21.6-9.6-49.5-5c-5.4-10.3-11.4-20.1-18-29.4C719.9,126.4,789.5,130.2,804.3,163z"/>
			</g>
		</g>
		<g>
			<g>
				<g>
					<path class="st3" d="M660.6,222.9c-5.1,4.1-10.8,8.5-17.1,13c-2.5-7.1-5.4-14.2-8.5-21.2c-0.5-1.1-1-2.2-1.5-3.2
						c-1.8-4-3.8-7.8-5.8-11.7c-5.4-10.3-11.4-20.1-17.9-29.4c-0.8-1.1-1.6-2.2-2.4-3.3c-9.9-13.7-21.1-26.3-33.1-37.7
						c-22.5-21.3-48.4-38.3-76.3-50.7c-68-30.1-148-32.2-221.1,0.9c-48.8,22.1-87.9,56.8-115.1,98.6c27-52.1,71.1-95.9,128.7-121.9
						c73.1-33,153.1-31,221.1-0.9c27.9,12.3,53.8,29.4,76.4,50.7c12.1,11.4,23.2,24,33.1,37.7c0.8,1.1,1.6,2.2,2.4,3.3
						c6.5,9.3,12.5,19.1,18,29.4c2,3.8,3.9,7.7,5.8,11.7c0.5,1.1,1,2.1,1.5,3.3C653.3,201.7,657.3,212.3,660.6,222.9z"/>
				</g>
			</g>
		</g>
		<g>
			<g>
				<path class="st4" d="M459.9,444.2c-77.7,34.8-152.6,61-217.7,77.4c-112.1,28.2-194.8,27.2-211.2-8.9
					c-14.8-32.8,28.2-87.5,107.5-146.4c2.7,11.1,6.1,22,10.2,32.9c-21.9,17.9-32.7,32.2-29,40.5c3.8,8.5,22.3,9.6,51.1,4.7
					c37-6.3,91.3-22.7,153.9-46.8c-1.5,8.2-0.8,15.6,2.1,22.2C339.3,446.8,388.8,454.1,459.9,444.2z"/>
			</g>
		</g>
		<g class="st5">
			<g>
				<path class="st6" d="M184,142.2c1-1.4,2-2.8,3.1-4.2C186.1,139.4,185,140.8,184,142.2z"/>
			</g>
		</g>
		<g class="st5">
			<g>
				<path class="st6" d="M190.8,133.3c2.4-3,4.8-5.9,7.4-8.8C195.6,127.4,193.2,130.4,190.8,133.3z"/>
			</g>
		</g>
		<g class="st5">
			<g>
				<path class="st6" d="M214.1,107.8c-2.6,2.6-5.2,5.1-7.8,7.8C208.9,112.9,211.5,110.4,214.1,107.8z"/>
			</g>
		</g>
		<g class="st5">
			<g>
				<path class="st6" d="M218.3,103.8c2.8-2.6,5.8-5.2,8.7-7.7C224.1,98.6,221.2,101.2,218.3,103.8z"/>
			</g>
		</g>
		<g>
			<g>
				<path class="st4" d="M660.6,222.9c-44,35.6-131,85.4-234.9,132.4c-103.9,47-198.8,79.4-254.6,88.9c-5.8-9.5-11.1-19.5-15.8-29.9
					c-0.2-0.5-0.4-1-0.7-1.5c-2.1-4.6-4-9.2-5.7-13.8c-4.2-10.9-7.5-21.9-10.2-32.9c-0.1-0.5-0.2-0.9-0.3-1.3
					c-3.9-16.4-6.2-33-6.9-49.5c-1.5-31.4,2.6-62.5,11.7-92c6.8-22,16.3-43.1,28.4-62.7c15.1-24.5,34.1-46.7,56.7-65.6
					c-6.5,8.3-12.6,16.9-18.1,25.8c-12.1,19.6-21.6,40.7-28.4,62.7c-9.1,29.5-13.2,60.6-11.7,92c0.7,16.5,3,33,6.9,49.5
					c0.1,0.5,0.2,0.9,0.3,1.3c0.1,0.2,0.1,0.5,0.2,0.7c11.9,46.2,60.5,72.8,106.1,58.6c51.3-16,114.1-40.1,180.7-70.2
					c77.2-34.9,145.1-71.4,192.9-102.5C658.4,216.4,659.5,219.6,660.6,222.9z"/>
			</g>
		</g>
		<g>
			<g>
				<path class="st1" d="M117.5,509.8c-29.4,0-53.5-6-61.4-23.4c-14.6-32.2,36.5-80.1,82-114.5l6.3,8.3
					c-58.2,44.1-87.6,82.2-78.7,101.9c5.3,11.6,25.1,17.8,55.9,17.3c32-0.5,75.3-8.1,125.4-21.8c61.6-16.9,131-42.5,200.5-74
					c69.5-31.4,134.5-66.6,187.9-101.7c43.4-28.5,77.7-56.1,99.2-79.7c20.7-22.8,29.2-41.7,23.9-53.4c-8.9-19.7-56.9-22.7-128.5-8.1
					l-2.1-10.3c55.9-11.4,125.5-18.1,140.1,14.1c19.7,43.7-82.2,116.7-126.9,146.1c-53.9,35.4-119.4,70.9-189.4,102.5
					c-70,31.7-139.9,57.4-202.1,74.5C218.6,496.1,162,509.8,117.5,509.8z"/>
			</g>
		</g>
		<g>
			<g>
				<path class="st7" d="M167.4,452.4l-2.6-4.2c-6-9.8-11.4-20.1-16.2-30.7c-2.3-5.2-4.5-10.5-6.5-15.7c-4.2-11-7.7-22.3-10.5-33.8
					c-31.3-129.5,34.2-263.4,155.8-318.4c121.6-55,265.4-15.8,342,93.3c6.8,9.6,13,19.8,18.4,30.2c2.6,4.9,5.1,10.1,7.5,15.3v0
					c4.8,10.6,8.9,21.5,12.3,32.4l1.5,4.7l-3.9,3.1c-46.5,37.6-134.9,87.5-236.5,133.4s-197.5,79.4-256.4,89.5L167.4,452.4z
					 M401.8,39.5c-36.5,0-73.4,7.6-108.4,23.4C178.2,115,116.1,241.9,145.8,364.5c2.6,10.8,6,21.6,9.9,32c1.9,5,4,10,6.2,14.9
					c3.8,8.5,8.1,16.8,12.8,24.8c57.5-10.8,151.7-44,247.9-87.5C518.8,305.2,606,256.4,652,220.3c-2.9-8.8-6.3-17.5-10.1-26v0
					c-2.2-4.9-4.6-9.8-7.1-14.5c-5.2-9.9-11.1-19.5-17.5-28.6C566.8,79.4,485.4,39.5,401.8,39.5z"/>
			</g>
		</g>
		<g>
			<g>
				<path class="st7" d="M110,548.7c-45.9,0-75.7-11.1-85.6-33c-21.7-48.1,59.5-118,109.9-155.4l8.9-6.6l2.6,10.8
					c2.6,10.8,6,21.6,9.9,32l1.9,4.9l-4.1,3.4c-28.9,23.6-27,31.7-26.9,31.8c0,0.1,5,7,43.2,0.5c56.9-9.7,153.8-43.6,252.8-88.4
					c99-44.8,188.4-95.2,233.3-131.5c30.1-24.4,28.2-32.7,28.2-32.8c0-0.1-4.9-6.8-41.6-0.7l-5.2,0.9l-2.5-4.7
					c-5.2-9.9-11.1-19.5-17.5-28.6l-6.4-9.1l10.8-2.3c61.3-13.1,167.5-28,189.2,20.1c17.6,38.9-31.7,102.2-135.3,173.5
					c-58.8,40.5-130.6,80.3-207.8,115.2c-77.2,34.9-154.6,62.6-223.8,80C190.8,542.1,145.6,548.7,110,548.7z M134.3,378.7
					c-71.6,54.8-108.5,104.6-96.6,131c14,30.9,91.6,32.7,202.7,4.8c68.4-17.2,144.9-44.6,221.3-79.1c76.4-34.6,147.5-74,205.6-113.9
					c94.3-64.9,144.2-124.5,130.2-155.4l0,0c-11.9-26.4-73.6-31.6-162.1-14c3.4,5.3,6.7,10.8,9.8,16.4c30.5-4.5,47.1-1.2,52.2,10
					c5.4,12-4.8,28-32.3,50.2c-46.5,37.6-134.9,87.5-236.5,133.4s-197.5,79.4-256.4,89.5c-34.9,6-53.6,3.1-59.1-8.9
					c-5.1-11.2,3.5-25.8,27-45.8C138,390.9,136.1,384.8,134.3,378.7z"/>
			</g>
		</g>
	</g>
</g>
</svg>
