<?xml version="1.0" encoding="utf-8"?>
<!-- Generator: Adobe Illustrator 27.2.0, SVG Export Plug-In . SVG Version: 6.00 Build 0)  -->
<svg version="1.1" xmlns="http://www.w3.org/2000/svg" xmlns:xlink="http://www.w3.org/1999/xlink" x="0px" y="0px"
	 viewBox="0 0 172.7 223.7" style="enable-background:new 0 0 172.7 223.7;" xml:space="preserve">
<style type="text/css">
	.st0{fill:#FFFFFF;}
	.st1{fill:#15264B;}
	.st2{opacity:0.35;}
	.st3{fill:#274B8B;}
	.st4{fill:#0F3747;}
	.st5{opacity:0.5;}
	.st6{opacity:0.4;}
	.st7{fill:#183E75;}
	.st8{opacity:0.2;}
	.st9{fill:#38276B;}
	.st10{fill:#44AC34;}
	.st11{fill:#00983A;}
	.st12{fill:#FCF8FB;}
	.st13{opacity:0.7;}
	.st14{fill:#94613F;}
	.st15{fill:#FFD100;}
	.st16{fill:#EA5B0C;}
	.st17{fill:#D3D5ED;}
	.st18{fill:#D8D8D8;}
	.st19{fill:#121A28;}
	.st20{fill:#E5E1D4;}
	.st21{opacity:0.25;}
	.st22{opacity:0.6;}
	.st23{fill:#FFD346;}
	.st24{fill:#FFDA36;}
	.st25{fill:#1E1E1C;}
	.st26{fill:#EEEDED;}
	.st27{opacity:0.3;}
	.st28{fill:#407FC1;}
	.st29{fill:#B0B3B1;}
	.st30{opacity:0.8;}
	.st31{fill:#E5E5E4;}
	.st32{fill:#BCBCBB;}
	.st33{fill:#E72D47;}
	.st34{fill:#F7A710;}
	.st35{fill:#F2EFEC;}
	.st36{fill:#F9B116;}
	.st37{fill:#F38F1C;}
	.st38{fill:none;stroke:#2A3856;stroke-width:2.1963;stroke-linecap:round;stroke-miterlimit:10;}
	.st39{fill:#D66C12;}
	.st40{fill:#FFD767;}
	.st41{fill:#F7A83D;}
	.st42{fill:#FECF70;}
	.st43{fill:#FFED91;}
	.st44{opacity:0.41;}
	.st45{opacity:0.26;}
	.st46{fill:none;}
	.st47{fill:#261E26;}
	.st48{fill:#E30613;}
	.st49{fill:#E9E8E8;}
	.st50{fill:#4A92CF;}
	.st51{fill:#386EB5;}
	.st52{fill:#B6B6B7;}
	.st53{fill:#DDDDDD;}
	.st54{fill:#FDC423;}
	.st55{fill:#E2A415;}
	.st56{fill:#F9B044;}
	.st57{fill:#EB5759;}
	.st58{fill:#E5201F;}
	.st59{fill:none;stroke:#FFFFFF;stroke-width:2.3076;stroke-linecap:round;stroke-miterlimit:10;}
	.st60{fill:#EDC5D6;}
	.st61{fill:#4A153F;}
	.st62{fill:#E9C8D2;}
	.st63{fill:#DFB0BE;}
	.st64{fill:#D6D6EA;}
	.st65{fill:#BDBDE0;}
	.st66{fill:#232323;}
	.st67{fill:#A7ABCC;}
	.st68{fill:#EDCCA9;}
	.st69{fill:#492311;}
	.st70{fill:#2A3856;}
	.st71{fill:#05646E;}
	.st72{fill:#F28D70;}
	.st73{fill:#BEC5CA;}
	.st74{fill:#54767A;}
</style>
<g id="Fondo">
</g>
<g id="Grafica">
</g>
<g id="Informazioni">
	<g>
		<g>
			<g>
				<g>
					<path class="st0" d="M22.8,94.9c0,0-1.2-5.8,3-6.5c4.8-0.8,7.6,9.2,7.6,9.2"/>
				</g>
			</g>
			<g>
				<g>
					<path class="st1" d="M33.4,98.8c-0.5,0-0.9-0.3-1.1-0.8c-0.7-2.4-3.3-9-6.3-8.4c-0.7,0.1-1.2,0.4-1.6,1
						c-0.9,1.3-0.7,3.4-0.5,4.2c0.1,0.6-0.3,1.2-0.9,1.3c-0.6,0.1-1.2-0.3-1.3-0.9c0-0.1-0.7-3.6,0.9-5.9c0.7-1.1,1.8-1.7,3.1-1.9
						c5.6-1,8.6,8.9,8.9,10.1c0.2,0.6-0.2,1.2-0.8,1.4C33.6,98.8,33.5,98.8,33.4,98.8z"/>
				</g>
			</g>
		</g>
		<g>
			<g>
				<g>
					<path class="st0" d="M26.6,126.3c0,0,9.6,15.2,22.5,16.5c17.7,1.8,26.4-15.9,26.4-15.9s5.6-24.2,1.2-24.7
						c-6.2-0.7-11.8,3.6-15.9,6.6c-4.2,3.1-9.2,6.7-9.2,6.7s-10.1-8.6-14.8-11.2c-1.3-0.7-13-0.4-15.5,6.3
						C19.8,114.5,26.6,126.3,26.6,126.3z"/>
				</g>
			</g>
		</g>
		<g>
			<g>
				<g>
					<path class="st49" d="M73.2,102.2c-1.7,1.6-3,3.8-4.2,6.4c-1.8-0.8-3.4-1.7-4.9-2.7c2.8-4.8,6.6-7.8,9.1-9
						C79,94.1,78.5,97.1,73.2,102.2z"/>
				</g>
			</g>
		</g>
		<g>
			<g>
				<g>
					<path class="st49" d="M116.3,103.4c-6.7,5.7-16.7,9.3-27.8,9.3c-6.6,0-12.8-1.3-18.2-3.5l4.4-10.7c23.7-41.9,29.9-5.8,29.9-5.8
						S110.7,95.7,116.3,103.4z"/>
				</g>
			</g>
		</g>
		<g>
			<g>
				<g>
					<path class="st17" d="M74.6,128.6c-2.7,4.4-11.1,15.7-25.4,14.2c-12.9-1.3-22.5-16.5-22.5-16.5s-1-14.9,3.4-18.5
						c3-2.5,8.5-2.5,10.4-0.8c8.2,7.1-3,18.6-3,18.6s2.4,11.1,14.5,11.4c12.1,0.4,13-21.5,16.3-21.8
						C69.9,114.9,72.4,121.6,74.6,128.6z"/>
				</g>
			</g>
		</g>
		<g>
			<g>
				<g>
					<path class="st1" d="M51.6,144.1c-0.8,0-1.7,0-2.5-0.1c-13.3-1.3-22.9-16.4-23.3-17c0,0,0,0,0,0c-1.2-2.1-7.1-12.5-5.5-16.7
						c1-2.6,3.4-4.7,6.8-6c4.1-1.5,9.1-1.6,10.3-0.9c4.1,2.3,11.9,8.8,14.3,10.8c1.5-1.1,5.3-3.8,8.5-6.2l0.4-0.3
						c4.2-3.1,9.9-7.2,16.3-6.5c0.5,0.1,1.1,0.3,1.7,1c2.8,3.9-1.1,21.5-1.9,25c0,0.1,0,0.2-0.1,0.2c-0.1,0.2-2.3,4.6-6.8,8.9
						C64.4,141.4,58.2,144.1,51.6,144.1z M27.6,125.7c0.4,0.5,9.6,14.8,21.6,16c16,1.6,24.4-13.7,25.2-15.2c0.2-0.9,1.3-6,2.1-11.3
						c1.6-10.9,0.1-11.8,0-11.8c-5.6-0.6-10.9,3.3-14.8,6.1l-0.4,0.3c-4.2,3.1-9.2,6.7-9.2,6.7c-0.4,0.3-1,0.3-1.4-0.1
						c-0.1-0.1-10-8.6-14.6-11.1c-0.8-0.3-5.5-0.3-9.4,1.4c-2.4,1-3.9,2.5-4.6,4.3C21.4,113.4,25.1,121.3,27.6,125.7z"/>
				</g>
			</g>
		</g>
		<g>
			<g>
				<g>
					<path class="st1" d="M50.3,144c-0.4,0-0.8-0.2-1-0.6c-0.3-0.6-0.1-1.2,0.5-1.5c3.3-1.7,4.6-5.4,5-8.2c1-6.2-0.8-14-4-17.3
						c-0.4-0.4-0.4-1.2,0-1.6c0.4-0.4,1.2-0.4,1.6,0c3.8,3.8,5.8,12.3,4.7,19.3c-0.8,4.8-3,8.2-6.2,9.9C50.6,144,50.4,144,50.3,144z
						"/>
				</g>
			</g>
		</g>
		<g>
			<g>
				<g>
					<path class="st50" d="M63.6,136.9c0,0,0.9-26.4,9.6-34.8c5.3-5.1,5.8-8.1,0-5.3C67.2,99.7,54.4,112.3,63.6,136.9z"/>
				</g>
			</g>
		</g>
		<g>
			<g>
				<g>
					<path class="st51" d="M73.2,102.2c-1.7,1.6-3,3.8-4.2,6.4c-1.8-0.8-3.4-1.7-4.9-2.7c2.8-4.8,6.6-7.8,9.1-9
						C79,94.1,78.5,97.1,73.2,102.2z"/>
				</g>
			</g>
		</g>
		<g>
			<g>
				<g>
					<path class="st1" d="M63.6,138.1c-0.5,0-0.9-0.3-1.1-0.7c-4.1-10.9-4.4-20.9-0.9-29.1c2.8-6.6,7.6-10.8,11.1-12.4
						c2-1,4.4-1.9,5.5-0.4c0.4,0.6,1.4,2.1-4.2,7.5c-8.3,8-9.2,33.8-9.2,34c0,0.5-0.4,1-0.9,1.1C63.8,138.1,63.7,138.1,63.6,138.1z
						 M76.1,97c-0.4,0.1-1.2,0.3-2.4,0.9c-3,1.4-7.4,5.2-10,11.3c-2.7,6.3-3,13.6-0.8,21.8c0.8-8.4,3.1-23.5,9.5-29.6
						C74.7,99.1,75.7,97.7,76.1,97z"/>
				</g>
			</g>
		</g>
		<g>
			<g>
				<g>
					<path class="st52" d="M60.4,118.6l6.1,1.2l-1.7,8.5l-3.7-0.4C61.1,127.9,59.1,123.7,60.4,118.6z"/>
				</g>
			</g>
		</g>
		<g>
			<g>
				<g>
					<path class="st1" d="M64.7,129.4c0,0-0.1,0-0.1,0L61,129c-0.4,0-0.7-0.3-0.9-0.6c-0.1-0.2-2.1-4.6-0.8-10.1
						c0.1-0.6,0.7-1,1.3-0.8l6.1,1.2c0.3,0.1,0.6,0.2,0.7,0.5c0.2,0.3,0.2,0.6,0.2,0.9l-1.7,8.5C65.7,129,65.3,129.4,64.7,129.4z
						 M61.9,126.8l2,0.2l1.3-6.4l-3.9-0.8C60.7,123.1,61.5,125.7,61.9,126.8z"/>
				</g>
			</g>
		</g>
		<g>
			<g>
				<g>
					<path class="st53" d="M61.3,115.9l4.1,0.8c0.6,0.1,1,0.7,0.8,1.3l-1.3,6.4c-0.1,0.6-0.6,0.9-1.2,0.9l-2.9-0.4
						c-0.4-0.1-0.8-0.4-0.9-0.8c-0.3-1.2-0.7-3.9,0.2-7.3C60.2,116.2,60.8,115.8,61.3,115.9z"/>
				</g>
			</g>
		</g>
		<g>
			<g>
				<g>
					<path class="st1" d="M63.9,126.4c-0.1,0-0.2,0-0.3,0l-2.9-0.4c-0.9-0.1-1.6-0.8-1.8-1.7c-0.3-1.4-0.8-4.3,0.2-7.9
						c0.3-1.1,1.4-1.9,2.6-1.6l4.1,0.8c0.6,0.1,1.1,0.5,1.4,0.9c0.3,0.5,0.4,1.1,0.3,1.7l-1.3,6.4C65.8,125.7,64.9,126.4,63.9,126.4
						z M61,123.7l2.8,0.4l1.3-6.3l-4-0.8C60.4,120.1,60.7,122.5,61,123.7z"/>
				</g>
			</g>
		</g>
		<g>
			<g>
				<g>
					<g>
						<path class="st50" d="M92.3,61.9c0,0,54.5,2,58.9,13.4c6.1,15.7,3.9,85.9-3.5,93.8c-9,9.6-54.1,8.2-54.1,8.2L92.3,61.9z"/>
					</g>
				</g>
			</g>
			<g>
				<g>
					<g>
						<path class="st50" d="M147.7,169.1c-9,9.5-54.1,8.2-54.1,8.2l-1-85.9l-0.3-29.5c0,0,54.5,2,58.9,13.4c0.5,1.4,1,3.2,1.4,5.3
							C156.8,102.8,154.4,161.9,147.7,169.1z"/>
					</g>
				</g>
			</g>
			<g>
				<g>
					<g>
						<path class="st51" d="M152.6,80.6c-0.6,0-5-1.2-5.4,0.9c-1.6,7.7,2.9,23.1-2.5,32.5c1.6-22-1-33-1.7-32.8
							c-10.6,1.8-17.7,7.1-17.7,7.1l-32.6,3.1l-0.3-29.5c0,0,54.5,2,58.9,13.4C151.7,76.7,152.2,78.5,152.6,80.6z"/>
					</g>
				</g>
			</g>
			<g>
				<g>
					<g>
						<path class="st51" d="M152.5,151c-1.2,9.1-2.8,16-4.8,18.1c-9,9.5-54.1,8.2-54.1,8.2L92.3,61.9c0,0,16.9,0.6,32.6,3.1l5,67.9
							c0,0,13,28.6,22,19.1C152,151.7,152.3,151.4,152.5,151z"/>
					</g>
				</g>
			</g>
			<g>
				<g>
					<g>
						<path class="st1" d="M99.6,178.5c-3.4,0-5.7-0.1-6.1-0.1l-1.1,0L91.1,60.7l1.2,0c0.1,0,13.8,0.5,27.9,2.4
							c19.5,2.7,30,6.5,32,11.7c3.5,9,4,32.7,3.4,50.3c-0.6,18.6-2.8,40.2-7.1,44.7C141.2,177.6,112.4,178.5,99.6,178.5z
							 M94.7,176.2c6.9,0.1,44.4,0.4,52.2-7.9c3.1-3.3,5.7-20.7,6.5-43.2c0.8-22.5-0.5-42.4-3.2-49.4c-0.9-2.4-6.1-7-30.2-10.3
							c-11.6-1.6-22.9-2.2-26.5-2.4L94.7,176.2z"/>
					</g>
				</g>
			</g>
			<g>
				<g>
					<g>
						<path class="st1" d="M138.1,68.9c9.4,4.8,8.6,30.1,7.8,39.4c-0.2,1.9-0.4,3.8-0.6,5.8c-0.1,0.7-1.1,0.6-1.1-0.1
							c0.5-11.3,0.7-23-2-34.1c-0.9-3.2-2.1-7.2-5-9C135.8,70.2,136.7,68.3,138.1,68.9L138.1,68.9z"/>
					</g>
				</g>
			</g>
			<g>
				<g>
					<g>
						<path class="st1" d="M121.8,97.7c2.2,11,2.7,22.3,2.6,33.5c-0.2,11.2-1,22.4-2.9,33.5c0-2.8,0.1-5.6,0.2-8.4
							C122.1,136.8,122.5,117.3,121.8,97.7L121.8,97.7z"/>
					</g>
				</g>
			</g>
			<g>
				<g>
					<g>
						<path class="st1" d="M129.8,72.5c3.5-0.3,7-0.4,10.5-0.4c3.6,0,7.1,0.2,10.6,0.9c1.4,0.4,1,2.5-0.5,2.2
							c-5-1.3-10.2-1.5-15.4-1.6c-1.7,0-3.5,0-5.2,0C129.1,73.7,129,72.6,129.8,72.5L129.8,72.5z"/>
					</g>
				</g>
			</g>
			<g>
				<g>
					<g>
						<path class="st54" d="M133.1,122c0.4-1.9,20-4.2,22,0.5c1.9,4.7,0.2,39.9-4.3,42c-8.8,4.2-19.1,1.4-18.6-2.9
							C134.4,143.8,132.7,123.9,133.1,122z"/>
					</g>
				</g>
			</g>
			<g>
				<g>
					<g>
						<path class="st15" d="M155.8,135.1c-0.2,9.6-1.4,21.8-3.4,27c-0.5,1.3-1,2.2-1.6,2.4c-8.8,4.2-19.1,1.4-18.6-2.9
							c2.1-17.8,0.5-37.7,0.9-39.6c0.4-1.9,20-4.2,22,0.5C155.7,124.1,156,129.1,155.8,135.1z"/>
					</g>
				</g>
			</g>
			<g class="st13">
				<g>
					<g>
						<path class="st0" d="M153.7,123.5c0,0.4-2.5,0.8-5.6,1c-3.1,0.2-5.6,0-5.6-0.4c0-0.4,2.5-0.8,5.6-1S153.7,123.1,153.7,123.5z"
							/>
					</g>
				</g>
			</g>
			<g>
				<g>
					<g>
						<path class="st55" d="M139.1,163.6c4.1,1,9.7-0.4,13.3-1.5c-0.5,1.3-1,2.2-1.6,2.4c-8.8,4.2-19.1,1.4-18.6-2.9
							c2-16.7,0.7-35.3,0.8-39c3.1-0.8,7-1.2,7.2,3c0.3,6.9-0.8,9.1,7.3,8.7c3.2-0.2,6.4-0.3,8.3-0.4c0,0.4,0,0.9,0,1.3
							c-1.8,0.9-5.6,1.7-13.5,0.6C137.8,135.1,142.8,143.2,139.1,163.6z"/>
					</g>
				</g>
			</g>
			<g>
				<g>
					<g>
						<path class="st1" d="M141.6,167.7c-3.5,0-6.5-0.8-8.4-2.2c-1.5-1.1-2.3-2.5-2.1-4.1c1.5-12.4,1.1-26.1,0.9-33.4
							c-0.1-4-0.1-5.6,0-6.3v0c0.2-0.9,1.2-1.5,3.6-2.1c1.7-0.4,3.9-0.7,6.1-0.9c3.8-0.3,12.8-0.6,14.4,3.3c1.1,2.8,1,13.7,0.3,22.5
							c-1,12.7-2.7,19.8-5.2,20.9C148.1,167.1,144.7,167.7,141.6,167.7z M134.2,122.5c-0.1,0.8,0,3.1,0.1,5.5
							c0.2,7.4,0.6,21.2-0.9,33.8c-0.1,0.7,0.3,1.3,1.2,1.9c2.9,2.1,9.8,2.6,15.8-0.2c1-0.5,2.9-5.9,3.9-19.1
							c0.9-10.9,0.6-19.6-0.2-21.5c-0.2-0.6-1.2-1.2-2.8-1.5C145.7,120.1,135.9,121.5,134.2,122.5z"/>
					</g>
				</g>
			</g>
			<g>
				<g>
					<g>
						<path class="st1" d="M147.8,135.4c-2.8,0-5.5-0.2-6.1-0.4c-2.2-0.6-2.3-3.7-2.5-6.9c0-0.8-0.1-1.7-0.1-2.4
							c-0.1-1-0.5-1.4-0.8-1.6c-1.3-0.9-4-0.3-4.9,0c-0.6,0.2-1.2-0.1-1.4-0.7c-0.2-0.6,0.1-1.2,0.7-1.4c0.4-0.1,4.4-1.4,6.9,0.3
							c0.7,0.5,1.6,1.5,1.8,3.3c0.1,0.8,0.1,1.7,0.1,2.5c0,1.5,0.2,4.6,0.8,4.8c2,0.5,10.9,0.5,12.1-0.4c0.4-0.4,0.5-1.7,0.4-2.5
							c-0.1-0.6,0.4-1.2,1-1.2c0.6-0.1,1.2,0.4,1.2,1c0.1,0.5,0.3,3-1,4.4C154.9,135.1,151.2,135.4,147.8,135.4z"/>
					</g>
				</g>
			</g>
			<g>
				<g>
					<g>
						<path class="st15" d="M96.2,71.3c30.9-1.8,54.2,2.9,57.8,2.9s4.8-33.6,0-34.2c-4.8-0.6-33.4,2.1-46.2-1.2
							C99.6,36.6,65.3,73.1,96.2,71.3z"/>
					</g>
				</g>
			</g>
			<g>
				<g>
					<g>
						<path class="st55" d="M154,74.2c-3.6,0-26.9-4.7-57.8-2.9c-12.7,0.8-14.4-5-11.4-11.8c1.7,2.1,5.3,3.2,11.4,2.8
							c13.7-0.8,36.5-22.8,46.1-22c-4.8,8.7-4,23-2.1,23.2c8.6,0.9,12.1,1.6,13.8,1.6c1.6,0,2.8-6.6,3.1-14
							C157.6,61.2,156.3,74.2,154,74.2z"/>
					</g>
				</g>
			</g>
			<g class="st13">
				<g>
					<g>
						<path class="st0" d="M157.2,56.8c-0.1-7.4-1.1-14-3.2-14.2c-4.8-0.6-33.4,2.1-46.2-1.2c-5.5-1.4-22.7,14.4-24.2,24.5
							c-1.7-9.7,18.2-28.7,24.2-27.2c12.8,3.4,41.4,0.7,46.2,1.3C156.4,40.3,157.3,48.5,157.2,56.8z"/>
					</g>
				</g>
			</g>
			<g>
				<g>
					<g>
						<path class="st1" d="M154,75.3c-0.9,0-2.7-0.2-5.3-0.6c-9.2-1.2-28.4-3.7-52.4-2.3l-0.1-1.1l0.1,1.1c-7,0.4-11.4-1.1-13.1-4.4
							c-2.7-5.3,2.4-13,5.7-17.1c5.8-7.3,14.9-14.5,19.3-13.3c8.8,2.3,25.2,1.7,36,1.3c4.9-0.2,8.5-0.3,10-0.1
							c1.9,0.2,3.1,2.8,3.8,8.2c0.5,4,0.6,9.2,0.3,14.3C157.4,75.3,154.8,75.3,154,75.3z M110.6,69.8c17.4,0,31,1.8,38.4,2.8
							c2.3,0.3,4,0.5,4.9,0.6c1.6-1.8,3.2-18,1.6-27.5c-0.7-4-1.5-4.4-1.5-4.4c-1.4-0.2-5,0-9.7,0.1c-11,0.4-27.6,1-36.7-1.4
							c-2.6-0.7-10.6,4.6-16.9,12.5c-4.9,6.2-7,11.6-5.4,14.6c1.3,2.4,5.1,3.5,11,3.2C101.2,69.9,106,69.8,110.6,69.8z"/>
					</g>
				</g>
			</g>
			<g>
				<g>
					<g>
						<ellipse class="st55" cx="154" cy="57.1" rx="11.7" ry="17.1"/>
					</g>
				</g>
			</g>
			<g>
				<g>
					<g>
						<path class="st1" d="M154,75.3c-7.1,0-12.8-8.2-12.8-18.2s5.8-18.2,12.8-18.2s12.8,8.2,12.8,18.2S161.1,75.3,154,75.3z
							 M154,41.1c-5.8,0-10.6,7.2-10.6,16c0,8.8,4.7,16,10.6,16c5.8,0,10.6-7.2,10.6-16C164.6,48.3,159.8,41.1,154,41.1z"/>
					</g>
				</g>
			</g>
			<g>
				<g>
					<g>
						<path class="st1" d="M160.4,43.1c3.7,4.3,5,10.1,4.6,15.6c-0.5,6.4-4.9,16-12.6,11c-5.1-3.9-5.5-13.2-3.3-18.8
							c2.2-5.3,7.5-7.3,10.5-1.4c1.5,3,2.2,6.4,1.8,9.8c-0.2,1.7-0.9,3.6-2.5,4.6c-1.6,1.1-3.9,0.7-5.2-0.7c-2-2.1-1.8-7.3,0.5-9.1
							c3.1-1.6,3.9,3.9,4.1,5.9c0.1,0.7-1,0.9-1.1,0.1c-0.1-2.1-1.6-8.2-3.5-3.3c-0.5,1.8-0.5,4.2,0.7,5.6c1.3,1.5,3.7,1.2,4.7-0.5
							c0.5-0.8,0.8-1.8,1-2.8c0.4-3.5-0.7-9.2-3.5-11.5c-1.6-1.3-3.7-0.4-5,1.1c-1.4,1.5-2.1,3.5-2.5,5.6c-0.7,4.1-0.4,8.6,1.8,12.2
							c1.5,2.5,4.8,4.3,7.6,2.9c2.7-1.6,4-4.8,4.8-7.7c1-4.1,0.8-8.5-0.6-12.5c-0.7-2-1.8-3.8-3.1-5.4
							C159.1,43.3,159.9,42.5,160.4,43.1L160.4,43.1z"/>
					</g>
				</g>
			</g>
			<g>
				<g>
					<g>
						<line class="st54" x1="153.2" y1="60.4" x2="157.8" y2="60.1"/>
					</g>
				</g>
				<g>
					<g>
						<path class="st1" d="M153.2,61c-0.3,0-0.5-0.2-0.6-0.5c0-0.3,0.2-0.6,0.5-0.6l4.6-0.4c0.3,0,0.6,0.2,0.6,0.5
							c0,0.3-0.2,0.6-0.5,0.6L153.2,61C153.2,61,153.2,61,153.2,61z"/>
					</g>
				</g>
			</g>
			<g>
				<g>
					<g>
						<path class="st54" d="M111.4,94.6c0,0,41.9-1.5,42.7-1.1c1.9,1.3,1.3,7.1,0.4,8.2c-3.9,2.6-42,3.3-42.7,3.1
							C111.1,104.7,109.6,95.8,111.4,94.6z"/>
					</g>
				</g>
			</g>
			<g>
				<g>
					<g>
						<path class="st54" d="M154.5,101.7c-2.2,1.5-15.4,2.3-26.6,2.8c-8.5,0.3-15.8,0.4-16.2,0.4c-0.7-0.1-2.2-9.1-0.4-10.3
							c0,0,7.3-0.3,15.8-0.5c12-0.4,26.4-0.8,26.9-0.5C156,94.8,155.4,100.6,154.5,101.7z"/>
					</g>
				</g>
			</g>
			<g>
				<g>
					<g>
						<path class="st15" d="M154.5,101.7c-0.8,0.5-3,1-6,1.4c-2.4,0.3-5.4,0.6-8.6,0.8c-3.9,0.3-8.1,0.5-12,0.6
							c-8.5,0.3-15.8,0.4-16.2,0.4c-0.7-0.1-2.2-9.1-0.4-10.3c0,0,7.3-0.3,15.8-0.5c4.8-0.2,9.9-0.3,14.5-0.4c2-0.1,3.9-0.1,5.6-0.1
							c4-0.1,6.7-0.1,6.9,0C156,94.8,155.4,100.6,154.5,101.7z"/>
					</g>
				</g>
			</g>
			<g>
				<g>
					<g>
						<path class="st56" d="M148.5,103.1c-2.4,0.3-5.4,0.6-8.6,0.8c2.4-1.3,5.2-3.4,5.4-6.1c0.1-2.2-1.7-3.4-3.7-4.1
							c2-0.1,3.9-0.1,5.6-0.1C149.9,94.4,152.2,100.2,148.5,103.1z"/>
					</g>
				</g>
			</g>
			<g>
				<g>
					<g>
						<path class="st55" d="M127.9,104.5c-8.5,0.3-15.8,0.4-16.2,0.4c-0.7-0.1-2.2-9.1-0.4-10.3c0,0,7.3-0.3,15.8-0.5
							C127.5,96.9,127.8,100.8,127.9,104.5z"/>
					</g>
				</g>
			</g>
			<g>
				<g>
					<g>
						<path class="st1" d="M113,106c-0.8,0-1.3,0-1.4,0c-0.8-0.2-1.2-0.9-1.6-3c-0.2-0.8-1.5-7.7,0.8-9.3c0.2-0.1,0.4-0.2,0.6-0.2
							c0.1,0,10.6-0.4,21-0.7c21.4-0.6,21.8-0.5,22.2-0.3c0,0,0.1,0,0.1,0.1c0.9,0.6,1.4,1.7,1.6,3.3c0.3,2.1,0,5.4-1,6.5
							c-0.1,0.1-0.2,0.2-0.2,0.2c-0.7,0.5-2.7,1.8-23.1,2.8C124.7,105.8,116.3,106,113,106z M112.4,103.7c4.8,0,37.2-0.8,41.3-2.9
							c0.3-0.6,0.7-2.8,0.4-4.8c-0.1-0.9-0.4-1.3-0.5-1.5c-3-0.2-26.1,0.5-41.7,1.1C111.3,97,111.8,102.1,112.4,103.7z M112.1,95.5
							 M153.8,94.6C153.8,94.6,153.8,94.6,153.8,94.6L153.8,94.6z"/>
					</g>
				</g>
			</g>
			<g>
				<g>
					<g>
						<path class="st54" d="M139.1,93.7c3.6,0,7.7,0.8,8.3,3.6c0.9,4.3-1.8,6.2-7,6.6"/>
					</g>
				</g>
				<g>
					<g>
						<path class="st1" d="M140.5,105c-0.6,0-1.1-0.5-1.1-1c0-0.6,0.4-1.2,1-1.2c2.9-0.2,4.7-0.9,5.6-2c0.6-0.8,0.7-1.8,0.4-3.2
							c-0.3-1.7-3-2.7-7.2-2.7c-0.6,0-1.1-0.5-1.1-1.1s0.5-1.1,1.1-1.1c5.5,0,8.8,1.6,9.4,4.5c0.4,2.1,0.1,3.7-0.8,5
							C146.5,103.8,144.1,104.7,140.5,105C140.5,105,140.5,105,140.5,105z"/>
					</g>
				</g>
			</g>
			<g>
				<g>
					<g>
						<path class="st1" d="M140.7,137.9c2.1,7.7,1.7,18.3-1.6,25.6c0-3.8,0.4-9,0.6-12.8C139.9,146.5,140.1,142.2,140.7,137.9
							L140.7,137.9z"/>
					</g>
				</g>
			</g>
			<g>
				<g>
					<g>
						<path class="st50" d="M136,54.5c0,0-0.6-14.5,8-14.4c0,0-7.2-4.3-16.6,0.4c-4.9,2.4-8.5,9.1-9.2,12.8
							C117.5,57,136,54.5,136,54.5z"/>
					</g>
				</g>
			</g>
			<g class="st13">
				<g>
					<g>
						<path class="st0" d="M144,40.1c-1.3,0-2.3,0.3-3.2,0.8c-3-0.8-7.9-1.3-13.6,1.5c-4.3,2.1-7.7,7.6-8.9,11.4
							c-0.1-0.2-0.1-0.4-0.1-0.6c0.7-3.7,4.3-10.4,9.2-12.8C136.8,35.9,144,40.1,144,40.1z"/>
					</g>
				</g>
			</g>
			<g>
				<g>
					<g>
						<path class="st1" d="M125.2,56.4c-3.4,0-6.5-0.4-7.6-1.5c-0.5-0.5-0.7-1.2-0.6-1.9c0.8-4,4.6-11,9.8-13.6
							c9.8-4.8,17.3-0.5,17.6-0.3c0.4,0.3,0.7,0.8,0.5,1.3c-0.1,0.5-0.6,0.8-1.1,0.8c-1.5,0-2.7,0.5-3.8,1.5
							c-3.4,3.5-3.1,11.6-3.1,11.7c0,0.6-0.4,1.1-1,1.2C134.1,55.9,129.4,56.4,125.2,56.4z M119.3,53.4c1,1,8,1,15.5,0.1
							c0-2.5,0.5-8.9,3.8-12.3c0.5-0.5,1-0.9,1.6-1.3c-2.8-0.7-7.2-0.9-12.3,1.6C123.5,43.7,120,49.9,119.3,53.4z"/>
					</g>
				</g>
			</g>
		</g>
		<g>
			<g>
				<g>
					<path class="st0" d="M109.7,141.7c0,0-10.7,16.7-13.4,24.6c-3.7,10.6,0.4,39.5-2.4,44.9c-1.2,2.3-3.5,4.5-15.3,4.5
						c-9,0-15,0-15.2-6.1c-0.1-4.6,5.9-6.7,5.9-6.7l-6.7-50.2"/>
				</g>
			</g>
		</g>
		<g>
			<g>
				<g>
					<path class="st0" d="M96.3,166.2c-3.7,10.6,0.4,39.5-2.4,44.9c-1.2,2.3-3.5,4.5-15.3,4.5c-8.9,0-15,0-15.2-6.2
						c0-0.1,0-0.3,0-0.4c0.2-4.3,5.9-6.3,5.9-6.3l-4.9-36.3l-1.9-13.9l47.3-10.9C109.7,141.7,99,158.3,96.3,166.2z"/>
				</g>
			</g>
		</g>
		<g>
			<g>
				<g>
					<path class="st17" d="M96.3,166.2c-3.7,10.6,0.4,39.5-2.4,44.9c-1.2,2.3-3.5,4.5-15.3,4.5c-8.9,0-15,0-15.2-6.2
						c0-0.1,0-0.3,0-0.4c1.4,1.1,4.5,2.7,11.5,2.7c10.4,0.1,16.1-0.9,17.1-6.8c1-5.8,0.5-15.8-2.9-21.5c-3.4-5.8-16.5-4.5-24.8-17.1
						l-1.9-13.9l47.3-10.9C109.7,141.7,99,158.3,96.3,166.2z"/>
				</g>
			</g>
		</g>
		<g>
			<g>
				<g>
					<path class="st1" d="M110.6,142.3c-3.9,6.2-7.7,12.5-11,19c-1,2.1-2.1,4.3-2.7,6.6c-0.6,2.3-0.8,4.7-1,7.1
						c-0.4,7.3-0.1,14.6,0,22c0,4.4,0.3,8.8-0.6,13.1c-1.6,6.5-10,6.4-15.3,6.6c-3.8,0-7.5,0.2-11.2-0.5c-3.9-0.6-6.7-2.8-6.7-7.1
						c0.1-3.7,3.4-6.2,6.6-7.5c0,0-0.7,1.2-0.7,1.2l-6.7-50.2c-0.2-1.5,2-1.8,2.2-0.3c0,0,6.7,50.2,6.7,50.2c0.1,0.5-0.2,1-0.7,1.2
						c-2,0.8-4.1,2.2-4.8,4c-0.4,0.9-0.3,1.9-0.1,2.9c0.9,4.2,8.4,3.6,11.8,3.7c4.3-0.1,11.9,0.3,15.3-2.4c1.2-1,1.6-2.6,1.8-4.2
						c0.1-1.2,0.2-2.4,0.2-3.6c0.1-2.4,0-4.9,0-7.3c-0.1-7.4-0.5-14.8,0-22.2c0.2-2.5,0.4-5,1-7.5c1.4-4.8,4-9.2,6.4-13.6
						c2.4-4.3,5-8.5,7.6-12.7C109.5,139.9,111.4,141,110.6,142.3L110.6,142.3z"/>
				</g>
			</g>
		</g>
		<g>
			<g>
				<g>
					<path class="st0" d="M125.2,151.7c-0.2,1.6-0.4,3.2-0.6,4.7c-3.4,20.2-31,25.1-48.3,16.5l-10.5-9c-1.1-1.8-2-3.7-2.6-5.8
						c-0.3-1-0.5-2.1-0.7-3.1c-2.7-14.5,2.8-31.3,5.8-41l6.5-15.6c23.7-41.9,29.9-5.8,29.9-5.8s17.7,9,20.5,34.5
						C126.1,135.8,126.1,144.3,125.2,151.7z"/>
				</g>
			</g>
		</g>
		<g>
			<g>
				<g>
					<path class="st17" d="M125.2,151.7c-0.2,1.6-0.4,3.2-0.6,4.7c-3.4,20.2-31,25.1-48.3,16.5l-10.5-9c-1.1-1.8-2-3.7-2.6-5.8
						c-0.3-1-0.5-2.1-0.7-3.1C76.4,163.7,104.5,165.5,125.2,151.7z"/>
				</g>
			</g>
		</g>
		<g>
			<g>
				<g>
					<path class="st17" d="M116.3,103.4c-6.7,5.7-16.7,9.3-27.8,9.3c-6.6,0-12.8-1.3-18.2-3.5l4.4-10.7c23.7-41.9,29.9-5.8,29.9-5.8
						S110.7,95.7,116.3,103.4z"/>
				</g>
			</g>
		</g>
		<g>
			<g>
				<g>
					<path class="st1" d="M65.4,164.2c-1.1-1.2-2-2.7-2.7-4.2c-0.2-0.5-0.5-1-0.6-1.6c-0.6-2.1-1-4.3-1.2-6.5
						c-0.8-8.7,0.6-17.4,2.9-25.8c1.1-4.2,2.5-8.2,4-12.3c0.1-0.3,0.4-0.4,0.7-0.3c0.3,0.1,0.4,0.4,0.4,0.7
						c-4,15.1-8.7,31.2-3.6,46.5c0.3,1,0.7,1.9,1.1,2.9C66.6,164.2,65.8,164.7,65.4,164.2L65.4,164.2z"/>
				</g>
			</g>
		</g>
		<g>
			<g>
				<g>
					<path class="st1" d="M73.8,97.9c4.6-8,17.3-29.6,27.3-17c2.5,3.5,3.8,7.5,4.6,11.6c0,0-0.6-0.8-0.6-0.8c2.5,1.4,4.7,3.1,6.7,5
						c10.6,9.9,14.6,23.2,15,37.3c0.4,7.5,0.1,15-1.1,22.4c-2.5,16-19.5,22.6-34,21.6c-5.5-0.4-11.1-1.6-15.8-4.6
						c-0.3-0.2-0.3-0.5-0.2-0.8c0.1-0.2,0.4-0.3,0.7-0.2c2.5,0.9,5,1.6,7.6,2.2c2.6,0.6,5.2,1,7.8,1.1c13.1,0.8,29.2-5.2,31.4-19.7
						c1.1-7.2,1.4-14.6,1.1-21.9c-0.4-13.6-4.1-26.2-14.2-35.8c-2-1.9-4.2-3.7-6.7-4.9c0,0-0.1-0.6-0.1-0.6
						c-1.2-6.3-5.2-17.5-13.3-12.2c-3.2,2.1-5.8,5.2-8.1,8.3c-2.3,3.2-4.4,6.6-6.4,10.1C75,100.3,73.1,99.2,73.8,97.9L73.8,97.9z"/>
				</g>
			</g>
		</g>
		<g class="st13">
			<g>
				<g>
					
						<ellipse transform="matrix(4.865637e-02 -0.9988 0.9988 4.865637e-02 32.3464 192.5502)" class="st0" cx="117.3" cy="79.3" rx="3.2" ry="2.8"/>
				</g>
			</g>
		</g>
		<g>
			<g>
				<g>
					<path class="st0" d="M95,175.4c0,15.9,3.1,30.8,3.1,30.8s-3.2,4.2-0.1,8c1.9,2.3,6.6,2.3,6.6,2.3H118c0,0,3.6-0.4,5-4.4
						c0.7-2,0.4-28.6,1.3-46c0.2-5.3,0.8-8,1.2-13.6L95,175.4z"/>
				</g>
			</g>
		</g>
		<g>
			<g>
				<g>
					<path class="st0" d="M125.5,152.5c-0.4,5.6-1,8.3-1.2,13.6c-0.2,4.1-0.3,8.7-0.4,13.4c-0.3,15.2-0.3,31.1-0.8,32.6
						c-1.4,4-5,4.4-5,4.4h-13.3c0,0-4.7,0-6.6-2.3c-3.2-3.8,0.1-8,0.1-8s-2.4-11.9-3-25.8c-0.1-1.6-0.1-3.3-0.1-5L125.5,152.5z"/>
				</g>
			</g>
		</g>
		<g>
			<g>
				<g>
					<path class="st17" d="M120.5,156.3c2-1.5,4.7,0.1,4.5,2.5c-0.2,2.2-0.5,4.4-0.6,7.3c-0.1,3.1-0.3,6.5-0.3,10
						c0,1.7-1.6,3-3.3,2.7c-6-1.1-13.4-1.1-22.3,0.8c-1.7,0.4-3.4-0.9-3.4-2.7c0,0,0,0,0,0c0-0.9,0.4-1.7,1.1-2.3L120.5,156.3z"/>
				</g>
			</g>
		</g>
		<g>
			<g>
				<g>
					<path class="st1" d="M95.5,175.4c0.8,7.6,1.3,15.4,2.4,23c0.3,2.5,0.8,5.1,1.3,7.6c0.1,0.3,0,0.7-0.2,0.9
						c-0.6,0.8-1,1.8-1.2,2.8c-0.2,1.5,0.3,3,1.3,4c1.2,1,2.8,1.4,4.4,1.6c1,0.1,2.5,0.1,3.5,0.1c2.3,0,8.6,0,10.9,0
						c0,0-0.1,0-0.1,0c0.5-0.1,1.1-0.3,1.5-0.5c1.2-0.6,2.1-1.8,2.6-3.1c0.2-1.7,0.2-3.4,0.3-5.1c0.3-13.1,0.3-28.8,0.9-41.7
						c0.2-4.2,0.9-8.3,1.2-12.5c0.1-1.4,2.3-1.4,2.3,0.2c-0.3,4.2-0.9,8.3-1.2,12.4c-0.7,12.9-0.6,28.7-0.9,41.7
						c-0.1,1.8,0,3.7-0.4,5.6c-0.3,1.1-0.9,2.2-1.7,3.1c-1.2,1.2-2.7,2.1-4.4,2.3c-2.4,0-8.6,0-10.9,0c-0.5,0-2.1,0-2.5,0
						c-1.8-0.1-3.4-0.3-5.1-1.1c-2.7-1.1-4.3-4.3-3.8-7.2c0.2-1.4,0.8-2.7,1.6-3.9c0,0-0.2,0.9-0.2,0.9c-0.5-2.6-0.9-5.1-1.3-7.7
						c-0.8-5.1-1.4-10.3-1.5-15.5c-0.1-2.6,0-5.2,0.2-7.8C94.5,174.7,95.5,174.7,95.5,175.4L95.5,175.4z"/>
				</g>
			</g>
		</g>
		<g>
			<g>
				<g>
					<g>
						<path class="st0" d="M106.9,97.8c0,0,15.4-2,25.6,18.1c2,3.9,5.7,13.7,6,25c0.4,13.5-1.8,28-8,33.7c-3.1,2.9-6.2,2.2-8.7,2.6
							c-10,4-8.8-6.2-8.9-7.9c-1.7-0.3-4-1-3.7-4c0.3-3.3,4.9-6.7,4.9-6.7s5.1-14.4-0.3-32.2"/>
					</g>
				</g>
			</g>
			<g>
				<g>
					<g>
						<path class="st0" d="M109.4,164.7c-0.1,0.2-0.1,0.4-0.1,0.6c-0.3,2.9,2,3.7,3.7,4c0.1,1.7-1.1,12,8.9,7.9
							c2.5-0.5,5.6,0.3,8.7-2.6c1.5-1.4,2.8-3.4,3.9-5.8c0,0,0,0,0,0c0,0,0,0,0,0c0,0,0,0,0,0c3.2-7.1,4.4-17.8,4-27.8
							c-0.4-11.3-4-21.1-6-25c-10.2-20.1-25.6-18.1-25.6-18.1l6.9,28.6c5.4,17.9,0.3,32.2,0.3,32.2S110.1,161.7,109.4,164.7z"/>
					</g>
				</g>
			</g>
			<g>
				<g>
					<g>
						<path class="st0" d="M134.5,168.7C134.5,168.7,134.5,168.7,134.5,168.7C134.5,168.7,134.5,168.7,134.5,168.7
							C134.5,168.8,134.5,168.8,134.5,168.7c-1.1,2.5-2.4,4.5-4,5.9c-3.1,2.9-6.2,2.2-8.7,2.6c-10,4-8.8-6.2-8.9-7.9
							c-1.7-0.3-4-1-3.7-4c0-0.2,0.1-0.4,0.1-0.6c0.8-3.1,4.8-6.1,4.8-6.1s5.1-14.4-0.3-32.2l-0.2-0.8l-6.7-27.8c0,0,9.5-1.2,18.6,8
							c2.5,2.5,4.9,5.8,7.1,10.1c2,3.9,5.7,13.7,6,25C138.9,150.9,137.7,161.5,134.5,168.7z"/>
					</g>
				</g>
			</g>
			<g>
				<g>
					<g>
						<path class="st17" d="M125.5,105.8c-7,1.4-10.6,14.1-11.9,19.8l-6.7-27.8C106.9,97.8,116.5,96.5,125.5,105.8z"/>
					</g>
				</g>
			</g>
			<g>
				<g>
					<g>
						<path class="st17" d="M109.3,165.3c-0.3,2.9,2,3.7,3.7,4c0.1,1.7-1.1,12,8.9,7.9c2.5-0.5,5.6,0.3,8.7-2.6
							c1.5-1.4,2.8-3.4,3.9-5.8c-0.3,0.7-2.7,5.1-8.9,5c-8-0.1-9.4,1.2-10.3-1.3c-0.9-2.6,1.4-5.6-1.1-7.5c-1.3,1.5-3.2,1.8-4.8-0.3
							C109.3,164.9,109.3,165.1,109.3,165.3z"/>
					</g>
				</g>
			</g>
			<g>
				<g>
					<g>
						<path class="st1" d="M106.8,96.7c9.2-0.6,17.8,5.1,22.9,12.4c2.6,3.6,4.7,7.6,6.1,11.8c3,8.3,4.2,17.1,3.9,25.9
							c-0.3,9-2,26-11,30.5c-2.1,1-4.6,0.8-6.6,1.1c0,0,0.2-0.1,0.2-0.1c-2,0.8-4.4,1.4-6.5,0.7c-3.5-1.3-4-5.5-3.9-8.7
							c0-0.3,0-0.7,0-0.9l0.9,1.1c-3.6-0.5-5.5-3-4.3-6.6c1-2.5,2.9-4.4,5-6.1c0,0-0.4,0.5-0.4,0.5c0.7-2.5,1.2-5.1,1.5-7.8
							c1-8,0.4-16.1-1.4-23.9c-0.2-0.7,0.8-1,1.1-0.3c0.9,2.6,1.7,5.3,2.2,8c1.4,7.5,1.2,15.4-0.7,22.7c-0.2,0.7-0.4,1.3-0.6,2.1
							c-0.1,0.2-0.2,0.4-0.4,0.5c-0.9,0.7-1.8,1.5-2.5,2.3c-1.2,1.4-2.6,3.4-1.6,5.1c0.4,0.6,1.4,1,2.5,1.2c0.5,0.1,0.9,0.5,0.9,1.1
							c0,0.8,0,1.3,0,2c0.1,5.4,2.3,7,7.4,5c1.2-0.3,2.5-0.2,3.5-0.4c10.3-0.6,12.3-21.1,12.5-29.1c0.3-8.5-0.9-17.1-3.8-25.1
							c-1.4-4-3.3-7.8-5.8-11.2c-4.5-6.3-11.5-11.2-19.4-11.5c-0.5,0-1,0-1.5,0C105.5,99,105.3,96.9,106.8,96.7L106.8,96.7z"/>
					</g>
				</g>
			</g>
			<g>
				<g>
					<g>
						<g>
							<path class="st0" d="M113.3,164.5c0,0,2,1.8,0.1,6.4"/>
						</g>
					</g>
				</g>
				<g>
					<g>
						<g>
							<path class="st1" d="M113.6,164.2c1.7,1.2,1.7,3.6,1.1,5.3c-0.2,0.5-0.8,2.2-1.5,1.6c-0.1-0.1-0.2-0.2-0.2-0.4
								c0.1-2,0.7-4,0-6c0,0,0-0.2,0-0.2C112.9,164.3,113.3,164,113.6,164.2L113.6,164.2z"/>
						</g>
					</g>
				</g>
			</g>
			<g>
				<g>
					<g>
						<path class="st1" d="M116.3,142.3c-0.4,0-0.7-0.2-0.8-0.6c-0.2-0.4,0.1-0.9,0.5-1.1c14.7-5.1,22.7-0.7,23-0.5
							c0.4,0.2,0.6,0.7,0.3,1.2c-0.2,0.4-0.7,0.6-1.2,0.3c-0.1,0-7.7-4.2-21.6,0.6C116.4,142.3,116.4,142.3,116.3,142.3z"/>
					</g>
				</g>
			</g>
		</g>
		<g>
			<g>
				<g>
					<path class="st50" d="M115.5,99.2c-4.5-0.2-21.3,22.5,0.7,47c0,0,0.4-3.7-0.2-8.8c0,0-5.7-13.7-1.8-23.3
						c3.7-8.8,8.6-10.7,8.6-10.7S124.6,99.5,115.5,99.2z"/>
				</g>
			</g>
		</g>
		<g>
			<g>
				<g>
					<path class="st50" d="M122.8,103.3c0,0-4.9,1.8-8.6,10.7c-3.9,9.5,1.8,23.3,1.8,23.3c0.6,5.2,0.2,8.8,0.2,8.8
						c-13-14.4-12.5-28.2-8.9-37.1c2.5-6.2,6.4-9.9,8.3-9.9c3.5,0.1,5.4,0.8,6.4,1.6C123.4,101.9,122.8,103.3,122.8,103.3z"/>
				</g>
			</g>
		</g>
		<g>
			<g>
				<g>
					<path class="st50" d="M122.8,103.3c0,0-4.9,1.8-8.6,10.7c-1.7,4.1-1.6,8.9-0.9,13.2c0.9,5.6,2.7,10.1,2.7,10.1
						c0.6,5.2,0.2,8.8,0.2,8.8c-5.8-6.5-8.9-12.8-10.3-18.6c-1.6-7.2-0.6-13.6,1.3-18.4c2.5-6.2,6.4-9.9,8.3-9.9
						c3.5,0.1,5.4,0.8,6.4,1.6C123.4,101.9,122.8,103.3,122.8,103.3z"/>
				</g>
			</g>
		</g>
		<g>
			<g>
				<g>
					<path class="st51" d="M116.2,146.1c-5.8-6.5-8.9-12.8-10.3-18.6c2.1-0.1,4.7-0.2,7.3-0.3c0.9,5.6,2.7,10.1,2.7,10.1
						C116.6,142.4,116.2,146.1,116.2,146.1z"/>
				</g>
			</g>
		</g>
		<g>
			<g>
				<g>
					<path class="st51" d="M121.9,100.7c-5.1-0.1-9.8,5.7-14.3,8.2c-0.1,0.1-0.2,0.1-0.3,0.1c2.5-6.2,6.4-9.9,8.3-9.9
						C119.1,99.3,121,100,121.9,100.7z"/>
				</g>
			</g>
		</g>
		<g>
			<g>
				<g>
					<path class="st1" d="M116.2,147.2c-0.3,0-0.6-0.1-0.8-0.4C99.3,128.9,104.1,113,107,107c2.4-5.1,6.1-8.9,8.5-8.9
						c0,0,0.1,0,0.1,0c4.3,0.2,6.9,1.1,8,2.9c0.9,1.4,0.3,2.8,0.2,2.9c-0.1,0.3-0.4,0.5-0.6,0.6c0,0-4.6,1.9-7.9,10.1
						c-3.7,9,1.7,22.3,1.8,22.4c0,0.1,0.1,0.2,0.1,0.3c0.6,5.2,0.3,8.9,0.2,9.1c0,0.4-0.3,0.8-0.8,1
						C116.5,147.2,116.3,147.2,116.2,147.2z M115.5,100.3c-0.8,0-3.9,2.2-6.5,7.6c-2.5,5.4-6.7,19.2,6.2,35.2c0-1.5-0.1-3.4-0.3-5.6
						c-0.7-1.6-5.6-14.6-1.7-24c3.1-7.5,7.2-10.2,8.7-11c0-0.1,0-0.3-0.2-0.5C121.3,101.6,120.1,100.5,115.5,100.3L115.5,100.3
						C115.5,100.3,115.5,100.3,115.5,100.3z M122.8,103.3L122.8,103.3L122.8,103.3z"/>
				</g>
			</g>
		</g>
		<g>
			<g>
				<g>
					<g>
						<path class="st0" d="M39.9,77c3.2,7.6,8.4,14.5,15.4,19.8c1.4,1.1,2.9,2.1,4.4,3c0.8,0.5,1.5,0.9,2.3,1.3
							c2.4,1.3,4.8,2.4,7.3,3.2c2.1,0.8,4.3,1.4,6.5,1.8c2.6,0.5,5.3,0.9,7.9,1c1,0,1.9,0.1,2.9,0.1c17.6-0.2,34.6-9.5,43.7-25.8
							c13.4-24,4.5-54.1-19.8-67.3c-4.7-2.5-9.6-4.2-14.6-5.2c-0.6-0.1-1.2-0.2-1.8-0.3c-1.6-0.2-3.1-0.4-4.7-0.5
							c-3.6-0.2-7.3,0-10.8,0.5c-3.6,0.6-7.1,1.5-10.4,2.8c-1.1,0.4-2.1,0.8-3.2,1.3c-1.6,0.7-3.1,1.5-4.6,2.4
							C53,19.6,46.6,25.9,42.2,33.9C34.5,47.7,34.1,63.5,39.9,77z"/>
					</g>
				</g>
				<g>
					<g>
						<path class="st1" d="M86.1,107.4c-0.8,0-1.6,0-2.4-0.1c-2.7-0.1-5.4-0.5-7.9-1c-2.2-0.5-4.4-1.1-6.5-1.8c-2.5-0.9-5-2-7.3-3.2
							c-0.9-0.5-1.6-0.9-2.3-1.3c-1.5-0.9-3-1.9-4.4-3c-6.8-5.2-12.1-12-15.4-19.8l0,0c-6-14.1-5.1-29.8,2.3-43.2
							c4.3-7.7,10.6-14.2,18.3-18.7c1.4-0.9,3-1.7,4.6-2.4c1-0.5,2.1-0.9,3.2-1.3c3.4-1.3,6.9-2.2,10.4-2.8
							c3.6-0.6,7.2-0.7,10.9-0.5c1.6,0.1,3.2,0.3,4.7,0.5c0.6,0.1,1.2,0.2,1.8,0.3c5.1,1,10,2.7,14.6,5.2
							c11.8,6.4,20.4,17,24.1,29.8c3.7,12.7,2.2,26.1-4.3,37.7c-8.8,15.7-25.6,25.6-43.8,25.8C86.4,107.4,86.3,107.4,86.1,107.4z
							 M40,76.9c3.3,7.8,8.6,14.6,15.3,19.7c1.4,1.1,2.9,2.1,4.4,3c0.7,0.4,1.4,0.9,2.3,1.3c2.3,1.3,4.8,2.3,7.3,3.2
							c2.1,0.7,4.3,1.3,6.5,1.8c2.6,0.5,5.2,0.9,7.9,1c1,0,1.9,0.1,2.9,0.1c18.1-0.2,34.9-10,43.6-25.7c6.4-11.5,8-24.8,4.3-37.5
							c-3.7-12.7-12.2-23.3-24-29.6c-4.6-2.5-9.5-4.2-14.6-5.2c-0.6-0.1-1.1-0.2-1.8-0.3c-1.6-0.2-3.1-0.4-4.7-0.5
							c-3.6-0.2-7.2,0-10.8,0.5c-3.5,0.5-7,1.5-10.4,2.8c-1.1,0.4-2.1,0.9-3.2,1.3c-1.6,0.7-3.1,1.5-4.6,2.4
							c-7.6,4.5-13.9,10.9-18.2,18.6C34.9,47.3,34,62.9,40,76.9z"/>
					</g>
				</g>
			</g>
			<g>
				<g>
					<g>
						<path class="st17" d="M130.3,81.5c-9.1,16.3-26.1,25.6-43.7,25.8c-1,0-1.9,0-2.9-0.1c-2.6-0.1-5.3-0.5-7.9-1
							c-2.2-0.5-4.3-1.1-6.5-1.8c-2.5-0.9-4.9-1.9-7.3-3.2c-0.8-0.4-1.6-0.9-2.3-1.3c-1.5-0.9-3-2-4.4-3
							C48.3,91.5,43.1,84.6,39.9,77c-1.8-4.2-3-8.6-3.5-13.1c3.3,7.2,8.3,13.7,14.9,18.7c1.4,1.1,2.9,2.1,4.4,3
							c0.7,0.5,1.5,0.9,2.3,1.3c2.4,1.3,4.8,2.4,7.3,3.2c2.1,0.8,4.3,1.4,6.5,1.8c2.6,0.5,5.3,0.9,7.9,1c1,0,1.9,0.1,2.9,0.1
							c17.6-0.2,34.6-9.5,43.7-25.8c5.3-9.5,7.1-20,5.9-30C138.3,51,138.2,67.3,130.3,81.5z"/>
					</g>
				</g>
			</g>
			<g>
				<g>
					<g>
						<path class="st1" d="M86.1,108.1c-0.8,0-1.7,0-2.5-0.1c-2.7-0.1-5.4-0.5-8.1-1c-2.2-0.5-4.5-1.1-6.6-1.8c-2.5-0.9-5-2-7.4-3.3
							c-0.9-0.5-1.6-0.9-2.4-1.4c-1.5-0.9-3.1-2-4.5-3.1c-6.9-5.3-12.3-12.2-15.6-20.1l0,0C33,63,33.8,47,41.4,33.5
							c4.4-7.9,10.8-14.4,18.6-19c1.5-0.9,3-1.7,4.6-2.4c1-0.5,2.1-0.9,3.2-1.4c3.4-1.3,7-2.2,10.6-2.8c3.6-0.6,7.4-0.7,11-0.5
							c1.6,0.1,3.2,0.3,4.8,0.5c0.6,0.1,1.2,0.2,1.8,0.3c5.2,1,10.1,2.8,14.8,5.3c12,6.5,20.7,17.2,24.5,30.2
							c3.8,12.9,2.2,26.5-4.4,38.2c-8.9,16-25.9,26-44.4,26.2C86.4,108.1,86.3,108.1,86.1,108.1z M40.7,76.6
							c3.3,7.6,8.5,14.4,15.1,19.4c1.4,1.1,2.9,2.1,4.4,3c0.7,0.4,1.4,0.8,2.3,1.3c2.3,1.2,4.7,2.3,7.2,3.2c2.1,0.7,4.2,1.3,6.4,1.8
							c2.5,0.5,5.2,0.9,7.8,1c0.9,0,1.9,0.1,2.8,0.1c17.9-0.2,34.3-9.9,42.9-25.3c6.3-11.4,7.8-24.5,4.2-36.9
							c-3.6-12.5-12-22.9-23.6-29.2c-4.5-2.4-9.4-4.2-14.3-5.1c-0.5-0.1-1.1-0.2-1.7-0.3c-1.5-0.2-3.1-0.4-4.6-0.5
							c-3.5-0.2-7.1,0-10.6,0.5c-3.5,0.5-6.9,1.5-10.2,2.7c-1.1,0.4-2.1,0.8-3.1,1.3c-1.6,0.7-3.1,1.5-4.5,2.4
							C53.4,20.4,47.2,26.7,43,34.3C35.6,47.4,34.8,62.8,40.7,76.6L40.7,76.6z"/>
					</g>
				</g>
			</g>
			<g>
				<g>
					<g>
						<path class="st1" d="M86.1,108.4c-0.8,0-1.7,0-2.5-0.1c-2.7-0.1-5.5-0.5-8.1-1c-2.3-0.5-4.5-1.1-6.6-1.8
							c-2.6-0.9-5.1-2-7.5-3.3c-0.9-0.5-1.7-0.9-2.4-1.4c-1.5-0.9-3.1-2-4.5-3.1c-6.9-5.3-12.3-12.3-15.7-20.2l0,0
							c-6.1-14.4-5.2-30.4,2.4-44.1c4.4-7.9,10.9-14.5,18.7-19.1c1.5-0.9,3-1.7,4.7-2.5c1-0.5,2.1-0.9,3.2-1.4
							c3.4-1.3,7-2.3,10.6-2.8c3.7-0.6,7.4-0.7,11.1-0.5c1.6,0.1,3.2,0.3,4.8,0.5c0.6,0.1,1.2,0.2,1.8,0.3c5.2,1,10.2,2.8,14.9,5.3
							c12.1,6.5,20.8,17.3,24.6,30.4c3.8,13,2.2,26.6-4.4,38.4c-9,16.1-26.1,26.2-44.7,26.4C86.4,108.4,86.3,108.4,86.1,108.4z
							 M40.9,76.5c3.2,7.6,8.4,14.3,15,19.3c1.4,1.1,2.9,2.1,4.3,3c0.7,0.4,1.4,0.8,2.3,1.3c2.3,1.2,4.7,2.3,7.1,3.2
							c2,0.7,4.2,1.3,6.3,1.8c2.5,0.5,5.1,0.9,7.7,1c0.9,0,1.9,0.1,2.8,0.1c17.8-0.2,34.1-9.8,42.7-25.2c6.3-11.3,7.8-24.3,4.2-36.7
							c-3.6-12.5-12-22.8-23.5-29c-4.5-2.4-9.3-4.1-14.3-5.1C95.1,10,94.6,9.9,94,9.8c-1.5-0.2-3.1-0.4-4.6-0.5
							c-3.5-0.2-7.1,0-10.6,0.5c-3.5,0.5-6.9,1.4-10.2,2.7c-1.1,0.4-2.1,0.8-3.1,1.3c-1.6,0.7-3.1,1.5-4.5,2.3
							c-7.5,4.4-13.6,10.7-17.8,18.3C35.9,47.5,35.1,62.8,40.9,76.5L40.9,76.5z"/>
					</g>
				</g>
			</g>
			<g>
				<g>
					<g>
						<path class="st7" d="M46.3,88c27.3,23,68.6,12.4,74.2-22.2c3.8-23.6-16.6-45.4-39.8-47.5C63.9,16.7,46.7,22.4,37,47.6
							c0,0-2.5,11.8-0.1,20c2.5,8.3,6.3,15.9,6.3,15.9L46.3,88z"/>
					</g>
				</g>
			</g>
			<g>
				<g>
					<g>
						<path class="st7" d="M120.5,65.7c-5.6,34.6-47,45.2-74.2,22.2l-0.6-0.9c31.7,8.8,65.7-7.2,72.1-42.1
							C120.6,51.4,121.7,58.5,120.5,65.7z"/>
					</g>
				</g>
			</g>
			<g>
				<g>
					<g>
						<path class="st1" d="M79,106.4c-3.3,0-6.6-0.3-10-0.9l-0.2,0c-2.6-0.9-5.1-2-7.5-3.3c-0.9-0.5-1.7-0.9-2.4-1.4
							c-1.5-0.9-3.1-2-4.5-3.1c-6.9-5.3-12.3-12.3-15.7-20.2v0c-6.1-14.4-5.2-30.4,2.4-44.1c4.4-7.9,10.9-14.5,18.7-19.1l0.1-0.1
							l0.1,0c6.3-2.1,13.3-2.9,21.1-2.1c13.9,1.3,27.5,8.9,36.4,20.3c8,10.3,11.3,22.5,9.4,34.4c-2.1,12.9-8.6,23.6-18.8,30.8
							C99.8,103.3,89.6,106.4,79,106.4z M69.6,103.3c13.4,2.4,26.9-0.4,37.2-7.6c9.7-6.8,15.9-16.9,17.9-29.3
							c1.8-11.3-1.3-22.9-8.9-32.7c-8.5-11-21.5-18.2-34.8-19.5c-7.4-0.7-14.1,0-20,2c-7.4,4.4-13.5,10.7-17.7,18.2
							c-7.3,13-8.1,28.4-2.3,42.1c3.2,7.6,8.4,14.3,15,19.3c1.4,1.1,2.9,2.1,4.3,3c0.7,0.4,1.4,0.8,2.3,1.3
							C64.8,101.4,67.1,102.4,69.6,103.3z"/>
					</g>
				</g>
			</g>
			<g>
				<g>
					<g>
						<path class="st1" d="M79,101.3c-11.8,0-23.7-4.3-33.4-12.5l-0.1-0.1L42.2,84c0-0.1-3.9-7.8-6.4-16c-2.5-8.4-0.1-20.1,0-20.6
							l0.1-0.2c8.4-21.9,23.5-32.1,44.9-30.1c12.4,1.1,24.5,7.9,32.4,18.1c7.1,9.2,10.1,20.1,8.4,30.7
							c-2.5,15.4-12.2,27.3-26.5,32.6C90,100.4,84.5,101.3,79,101.3z M47.2,87.2c13.6,11.4,31.7,14.9,47.2,9.2
							c13.6-5,22.7-16.2,25.1-30.8c1.6-10-1.2-20.3-7.9-29c-7.5-9.7-19.1-16.2-30.9-17.3c-20.2-1.8-34.5,7.8-42.5,28.6
							C37.9,49,35.8,59.8,38,67.3c2.3,7.6,5.8,14.8,6.2,15.6L47.2,87.2z"/>
					</g>
				</g>
			</g>
			<g>
				<g>
					<g>
						<path class="st0" d="M143,65.7c-0.4,9.8-6.6,17.8-13.8,17.8c-7.2,0.1-12.8-7.8-12.4-17.5c0-0.1,0-0.1,0-0.2
							c0.5-9.7,6.6-17.6,13.8-17.6c5.6-0.1,10.2,4.6,11.8,11.2C142.8,61.3,143,63.5,143,65.7z"/>
					</g>
				</g>
			</g>
			<g>
				<g>
					<g>
						<path class="st17" d="M143,65.7c-0.4,9.8-6.6,17.8-13.8,17.8c-7.2,0.1-12.8-7.8-12.4-17.5c0-0.1,0-0.1,0-0.2
							c0.8,1,2,2,3.6,1.6c3-0.6,8.5-7,8.5-7s5.8-0.5,13.4-1.1C142.8,61.3,143,63.5,143,65.7z"/>
					</g>
				</g>
			</g>
			<g>
				<g>
					<g>
						<path class="st1" d="M129.1,84.7c-3.1,0-6-1.3-8.3-3.7c-3.5-3.6-5.3-9-5.1-15c0.4-10.3,7.1-18.8,14.9-18.9
							c3.1,0,6.1,1.3,8.5,3.7c3.5,3.6,5.3,9,5.1,15l0,0c-0.4,10.3-7.1,18.8-14.9,18.9C129.1,84.7,129.1,84.7,129.1,84.7z
							 M130.7,49.3C130.6,49.3,130.6,49.3,130.7,49.3c-6.7,0.1-12.4,7.6-12.8,16.7c-0.2,5.3,1.5,10.3,4.4,13.3c1.9,2,4.3,3,6.7,3
							c0,0,0.1,0,0.1,0c6.6-0.1,12.3-7.6,12.7-16.7l0,0c0.2-5.3-1.5-10.3-4.4-13.3C135.5,50.3,133.1,49.3,130.7,49.3z M143,65.7
							L143,65.7L143,65.7z"/>
					</g>
				</g>
			</g>
			<g>
				<g>
					<g>
						
							<ellipse transform="matrix(9.653226e-02 -0.9953 0.9953 9.653226e-02 54.353 194.0711)" class="st0" cx="134.1" cy="67.1" rx="14.5" ry="9.9"/>
					</g>
				</g>
			</g>
			<g>
				<g>
					<g>
						<path class="st17" d="M133.5,81.5c5.5-0.1,10.2-6.6,10.5-14.6c0-0.9,0-1.7,0-2.5c-1.7,5.4-5.5,9.3-9.7,9.4
							c-4.8,0.1-8.6-4.7-9.3-11.2c-0.4,1.5-0.7,3.1-0.7,4.7C123.8,75.2,128,81.6,133.5,81.5z"/>
					</g>
				</g>
			</g>
			<g>
				<g>
					<g>
						<path class="st1" d="M133.3,82.6c-2.3,0-4.4-1-6.2-2.8c-2.8-2.9-4.3-7.6-4.1-12.7c0.4-8.5,5.6-15.6,11.6-15.7
							c2.3,0,4.5,0.9,6.3,2.8c2.8,2.9,4.3,7.6,4.1,12.7c-0.4,8.5-5.6,15.6-11.6,15.7C133.4,82.6,133.4,82.6,133.3,82.6z M134.8,53.8
							c0,0-0.1,0-0.1,0c-4.9,0.1-9.1,6.2-9.4,13.5c-0.2,4.5,1.1,8.6,3.5,11c1.4,1.4,2.9,2.1,4.6,2.1c4.9-0.1,9.1-6.2,9.4-13.5
							c0.2-4.5-1.1-8.6-3.5-11C138,54.5,136.5,53.8,134.8,53.8z"/>
					</g>
				</g>
			</g>
			<g class="st5">
				<g>
					<g>
						<path class="st0" d="M92.2,28c0,0-22.8-3-36.6,8.7c0,0,0,0,0,0c-2.9,2.5-5.8,8-7.1,11.6c-1.6,4.7-1.3,8.2-1.5,11.3
							c-0.7,9.4,0.7,13.9,0.7,13.9c-5-5.4-7.6-11.2-7.1-19c0.1-0.8,0.1-1.6,0.3-2.4c0-0.2,0.1-0.4,0.1-0.6c0,0,0,0,0,0
							c0.3-1.6,0.9-3.7,1.7-6.1c2.4-7.1,7.3-16.1,16.8-19.8C77.4,18.8,93.1,27.1,92.2,28z"/>
					</g>
				</g>
			</g>
			<g class="st5">
				<g>
					<g>
						
							<ellipse transform="matrix(0.9812 -0.1929 0.1929 0.9812 -8.653 21.1965)" class="st0" cx="104.5" cy="55" rx="6.7" ry="7.7"/>
					</g>
				</g>
			</g>
			<g class="st5">
				<g>
					<g>
						
							<ellipse transform="matrix(0.9591 -0.2832 0.2832 0.9591 -15.1057 33.1587)" class="st0" cx="107.1" cy="68.8" rx="2.8" ry="3.2"/>
					</g>
				</g>
			</g>
		</g>
		<g>
			<g>
				<g>
					<g>
						<path class="st56" d="M40.8,108c1,2.3,2.1,5.7,2.1,5.7s-2.4,3.4-3.4,4.4c-1.9,1.8-4.8,2.8-8.6,2.7c-8.5-0.3-17.9-6.5-21-13.9
							c-1.5-3.5-1.2-6.7,0.4-9c0.9-1.3,3.2-4.1,3.2-4.1s4.3,0.2,6.3,0.3C28.4,94.4,37.7,100.6,40.8,108z"/>
					</g>
				</g>
			</g>
			<g>
				<g>
					<g>
						<path class="st1" d="M31.4,121.7c-0.2,0-0.4,0-0.6,0c-8.8-0.3-18.6-6.8-21.7-14.4c-1.5-3.7-1.3-7.2,0.5-9.8
							c0.9-1.3,3.1-4.1,3.2-4.2c0.2-0.2,0.4-0.3,0.7-0.3c0,0,4.3,0.2,6.3,0.3c8.8,0.3,18.6,6.8,21.7,14.4l0,0c1,2.3,2,5.6,2.1,5.8
							c0.1,0.3,0,0.5-0.1,0.8c-0.1,0.1-2.4,3.4-3.6,4.5C38,120.6,35,121.7,31.4,121.7z M13.9,94.7c-0.6,0.8-2.2,2.7-2.9,3.7
							c-1.5,2.1-1.6,5.1-0.3,8.2c2.9,7.1,12,13.1,20.2,13.4c3.4,0.1,6.2-0.8,8-2.5c0.7-0.7,2.3-2.8,3.1-3.9c-0.3-1-1.2-3.5-1.9-5.3
							c-2.9-7.1-12-13.1-20.2-13.4C18.1,94.9,15,94.7,13.9,94.7z"/>
					</g>
				</g>
			</g>
			<g>
				<g>
					<g>
						
							<ellipse transform="matrix(0.5072 -0.8618 0.8618 0.5072 -75.7854 75.381)" class="st15" cx="28" cy="104" rx="11.4" ry="17.8"/>
					</g>
				</g>
			</g>
			<g class="st13">
				<g>
					<g>
						<path class="st0" d="M44.2,106.8c-0.1-0.2-0.2-0.5-0.3-0.7c-3-7.4-12.4-13.6-21-13.9c-7.6-0.3-12,4.3-10.7,10.6
							c-2.5-7,2-12.4,10.2-12.1c8.5,0.3,17.9,6.5,21,13.9C43.8,105.3,44,106,44.2,106.8z"/>
					</g>
				</g>
			</g>
			<g>
				<g>
					<g>
						
							<ellipse transform="matrix(0.5072 -0.8618 0.8618 0.5072 -75.7854 75.381)" class="st0" cx="28" cy="104" rx="8.7" ry="13.5"/>
					</g>
				</g>
			</g>
			<g>
				<g>
					<g>
						<path class="st49" d="M40.4,106.8c-0.1-0.1-0.1-0.3-0.2-0.4c-2.3-5.6-9.4-10.3-15.9-10.5c-5.5-0.2-8.8,2.9-8.2,7.3
							c-2-5.4,1.4-9.5,7.7-9.3c6.5,0.2,13.6,4.9,15.9,10.5C40.1,105.2,40.3,106,40.4,106.8z"/>
					</g>
				</g>
			</g>
			<g>
				<g>
					<g>
						<path class="st1" d="M12.2,103.6c-2.5-4-1.5-9.5,2.5-12c3.5-2.2,7.9-2.3,11.8-1.4c7.3,1.7,14.2,6.4,17.5,13.3
							c2,4.1,1.9,9.5-2.1,12.4c-2.4,1.8-5.5,2.3-8.4,1.9c-0.2,0-0.4-0.3-0.4-0.5c0-0.2,0.2-0.4,0.4-0.4c1.4-0.1,2.7-0.3,3.9-0.7
							c7.9-2.3,7.2-9.8,2.8-15.3c-3.5-4.4-8.7-7.6-14.2-8.9c-7-1.7-14.9,0.6-13.5,9.3c0.1,0.7,0.2,1.3,0.4,2
							C13.1,103.8,12.4,104,12.2,103.6L12.2,103.6z"/>
					</g>
				</g>
			</g>
			<g>
				<g>
					<g>
						<path class="st1" d="M12.2,103.6c-2.5-4-1.5-9.5,2.5-12c3.5-2.2,7.9-2.3,11.8-1.4c7.3,1.7,14.2,6.4,17.5,13.3
							c2,4.1,1.9,9.5-2.1,12.4c-2.4,1.8-5.5,2.3-8.4,1.9c-0.2,0-0.4-0.3-0.4-0.5c0-0.2,0.2-0.4,0.4-0.4c1.4-0.1,2.7-0.3,3.9-0.7
							c7.9-2.3,7.2-9.8,2.8-15.3c-3.5-4.4-8.7-7.6-14.2-8.9c-7-1.7-14.9,0.6-13.5,9.3c0.1,0.7,0.2,1.3,0.4,2
							C13.1,103.8,12.4,104,12.2,103.6L12.2,103.6z"/>
					</g>
				</g>
			</g>
			<g>
				<g>
					<g>
						<path class="st1" d="M32.6,114.6c-0.2,0-0.3,0-0.5,0c-6.7-0.2-14-5.1-16.4-10.9c-1.1-2.8-1-5.4,0.4-7.3
							c1.5-2.1,4.3-3.3,7.7-3.2c6.7,0.2,14,5.1,16.4,10.9l0,0c1.1,2.8,1,5.4-0.4,7.3C38.5,113.5,35.9,114.6,32.6,114.6z M23.4,94.4
							c-2.8,0-5.1,1-6.3,2.7c-1.1,1.6-1.2,3.9-0.2,6.3c2.2,5.4,9.1,9.9,15.4,10.2c3,0.1,5.5-0.9,6.7-2.7c1.1-1.6,1.2-3.9,0.2-6.3
							l0,0c-2.2-5.4-9.1-9.9-15.4-10.2C23.7,94.4,23.5,94.4,23.4,94.4z"/>
					</g>
				</g>
			</g>
			<g>
				<g>
					<g>
						<g>
							<path class="st1" d="M25.1,96.9L25.1,96.9c-0.2,0-0.5-0.2-0.6-0.4l-0.6-1.4c-0.1-0.2,0-0.4,0.3-0.4l0,0
								c0.2,0,0.5,0.2,0.6,0.4l0.6,1.4C25.5,96.8,25.4,96.9,25.1,96.9z"/>
						</g>
					</g>
				</g>
				<g>
					<g>
						<g>
							<g>
								<path class="st1" d="M31.8,113.2L31.8,113.2c-0.2,0-0.5-0.2-0.6-0.4l-0.6-1.4c-0.1-0.2,0-0.4,0.3-0.4l0,0
									c0.2,0,0.5,0.2,0.6,0.4l0.6,1.4C32.2,113,32.1,113.2,31.8,113.2z"/>
							</g>
						</g>
					</g>
				</g>
			</g>
			<g>
				<g>
					<g>
						<g>
							<path class="st1" d="M36.2,104.2L36.2,104.2c-0.1-0.2,0-0.4,0.3-0.4l1.6,0.1c0.2,0,0.5,0.2,0.6,0.4l0,0
								c0.1,0.2,0,0.4-0.3,0.4l-1.6-0.1C36.5,104.6,36.2,104.4,36.2,104.2z"/>
						</g>
					</g>
				</g>
				<g>
					<g>
						<g>
							<g>
								<path class="st1" d="M17.4,103.6L17.4,103.6c-0.1-0.2,0-0.4,0.3-0.4l1.6,0.1c0.2,0,0.5,0.2,0.6,0.4v0c0.1,0.2,0,0.4-0.3,0.4
									L18,104C17.7,104,17.4,103.8,17.4,103.6z"/>
							</g>
						</g>
					</g>
				</g>
			</g>
			<g>
				<g>
					<g>
						<g>
							<polygon class="st50" points="24.1,109.1 28.9,104.5 27.2,103.4 							"/>
						</g>
					</g>
				</g>
				<g>
					<g>
						<g>
							<polygon class="st57" points="32,98.8 27.2,103.4 28.9,104.5 							"/>
						</g>
					</g>
				</g>
			</g>
		</g>
		<g>
			<g>
				<g>
					<path class="st0" d="M31.4,123.1c0.1-3.3-3.7-4.9-3.9-5.1c-0.1-0.1,2.8-3,1.4-6.4c-1.1-2.8-4.7-3.5-5-3.7
						c-0.2-0.2-0.3-1.3-1.1-2.8c-1.6-3-7.4-3.4-9.7-2.3c-3.9,1.8-4.8,5.1-5,6.4c-0.2,1.5,0.9,13.5,13,18s16.4-1.6,16.4-1.6"/>
				</g>
			</g>
		</g>
		<g>
			<g>
				<g>
					<path class="st0" d="M37.4,125.5c0,0-4.2,6.1-16.4,1.6c-12.1-4.5-13.2-16.5-13-18c0.1-0.7,0.4-2.1,1.4-3.4
						c0.7-1.1,1.9-2.1,3.6-2.9c2.3-1.1,8.1-0.7,9.7,2.3c0.8,1.5,0.9,2.6,1.1,2.8c0.2,0.2,3.8,1,5,3.8c1.4,3.4-1.4,6.3-1.4,6.4
						c0.1,0.1,2,1,3.1,2.6c0.5,0.7,0.8,1.6,0.8,2.6L37.4,125.5z"/>
				</g>
			</g>
		</g>
		<g>
			<g>
				<g>
					<path class="st17" d="M37.4,125.5c0,0-4.2,6.1-16.4,1.6c-12.1-4.5-13.2-16.5-13-18c0.1-0.7,0.4-2.1,1.4-3.4
						c0,0-1,10.5,8.4,15.9c10,5.7,12.8-0.9,12.8-0.9c0.5,0.7,0.8,1.6,0.8,2.6L37.4,125.5z"/>
				</g>
			</g>
		</g>
		<g>
			<g>
				<g>
					<path class="st1" d="M30.8,123.1c-0.1-2-1.9-3.3-3.6-4.1c-0.1-0.1-0.3-0.2-0.5-0.3c0-0.1-0.1,0.2-0.3-0.8
						c0-0.3,0.1-0.3,0.1-0.4c0.6-0.9,1.2-1.9,1.4-2.9c0.6-2.8-1.5-4.6-4-5.4c-0.2-0.1-0.5-0.2-0.7-0.3c-0.4-0.2-0.6-0.7-0.7-1
						c-0.2-0.7-0.4-1.4-0.8-2c-1.2-2.6-6.1-3-8.4-2.1c-2.3,1.1-4.3,3.4-4.3,6c0.3,3.7,1.7,7.3,3.9,10.2c2.5,3.3,6.2,5.5,10.1,6.6
						c3.1,1,6.5,1.5,9.6,0.8c1.3-0.3,2.7-0.9,3.7-1.8c0.2-0.1,0.3-0.3,0.5-0.4c0.2-0.2,0.6-0.2,0.8,0c0.2,0.2,0.2,0.5,0.1,0.7
						c-0.3,0.5-0.6,0.8-0.9,1.1c-2.4,2.3-5.9,3.1-9.1,2.9c-6.4-0.5-12.7-3.4-16.6-8.6c-2.5-3.3-4.1-7.3-4.3-11.5
						c-0.1-3.5,2.5-6.7,5.6-8.1c3.3-1.4,8.9-0.7,11,2.4c0.6,0.9,1,2,1.3,3c0.1,0.2,0.1,0.1,0,0c-0.1-0.1-0.2-0.2-0.3-0.2
						c1.5,0.5,2.9,1.1,4.1,2.3c2.7,2.6,2.1,6.6-0.2,9.3c0,0-0.1,0.1,0,0c0-0.1,0.1-0.1,0.1-0.4c-0.2-1-0.3-0.6-0.2-0.8
						c0,0-0.1-0.1-0.1-0.1c0,0,0,0,0,0c0,0,0.1,0,0.1,0.1c2,1.2,4,3.3,3.7,5.9C31.8,123.8,30.9,123.8,30.8,123.1L30.8,123.1z"/>
				</g>
			</g>
		</g>
		<g>
			<g>
				<g>
					<path class="st52" d="M105.4,124.5c0-0.7,0.2-1.2,0.9-1.2c2.3-0.1,6.4-0.1,6.5,0.5c0.5,2.7,2.9,8.3,2.4,8.5
						c-2.7,0.9-6.8,0.8-8,0.5c-0.5-0.1-0.6-0.5-0.8-0.9C106.1,130.7,105.3,127.8,105.4,124.5z"/>
				</g>
			</g>
		</g>
		<g>
			<g>
				<g>
					<path class="st1" d="M110,134c-1.3,0-2.4-0.1-3-0.2c-1-0.2-1.4-1-1.5-1.5l0-0.1c-0.5-1.2-1.3-4.3-1.1-7.8l0,0
						c0.1-1.5,0.8-2.2,2-2.3c6.3-0.2,7.4,0.2,7.6,1.4c0.2,1.2,0.9,3.1,1.4,4.7c0.3,0.9,0.6,1.8,0.8,2.5c0.2,0.7,0.6,2.1-0.6,2.5
						C113.9,133.8,111.8,134,110,134z M107.7,131.6c1.1,0.2,4.1,0.3,6.4-0.3c-0.2-0.7-0.5-1.6-0.8-2.4c-0.5-1.5-1.1-3.2-1.4-4.5
						c-0.6-0.1-1.9-0.2-5.3-0.1c0,0,0,0.1,0,0.2c0,0,0,0,0,0c-0.2,3.2,0.6,6,1,6.8l0.1,0.1C107.6,131.5,107.6,131.6,107.7,131.6z
						 M107.7,131.7L107.7,131.7L107.7,131.7z M105.4,124.5L105.4,124.5L105.4,124.5z"/>
				</g>
			</g>
		</g>
		<g>
			<g>
				<g>
					<path class="st53" d="M104.4,121.8c0-0.7,0.7-1.3,1.4-1.4c2.3-0.1,6.9-0.1,7,0.5c0.5,2.7,2.1,8.6,1.2,8.8
						c-3.4,0.7-6.1,0.4-7.3,0.1c-0.5-0.1-0.9-0.4-1-0.8C105.1,127.8,104.2,125.1,104.4,121.8z"/>
				</g>
			</g>
		</g>
		<g>
			<g>
				<g>
					<path class="st52" d="M114,129.7c-3.4,0.7-6.1,0.4-7.3,0.1c-0.5-0.1-0.9-0.4-1-0.8c-0.2-0.4-0.4-0.9-0.6-1.5
						c0.2,0.2,0.4,0.3,0.7,0.3c1.2,0.2,3.9,0.6,7.3-0.1c0.8-0.2-0.2-4.1-0.8-7.1c0.3,0.1,0.5,0.2,0.6,0.3
						C113.3,123.6,114.9,129.5,114,129.7z"/>
				</g>
			</g>
		</g>
		<g>
			<g>
				<g>
					<path class="st1" d="M109.9,131.3c-1.5,0-2.7-0.2-3.5-0.3c-0.8-0.2-1.5-0.7-1.9-1.5c-0.6-1.4-1.5-4.2-1.3-7.7l0,0
						c0.1-1.3,1.2-2.4,2.5-2.4c1.2,0,2.9-0.1,4.4,0c2.1,0.1,3.5,0.2,3.8,1.4c0.1,0.6,0.3,1.4,0.5,2.3c1,4.6,1.3,6.3,0.7,7.3
						c-0.2,0.3-0.5,0.5-0.9,0.6C112.6,131.2,111.2,131.3,109.9,131.3z M108.4,121.5c-0.7,0-1.6,0-2.6,0c-0.2,0-0.3,0.1-0.3,0.3
						c0,0,0,0,0,0c-0.2,3.1,0.6,5.5,1.2,6.7c0,0.1,0.1,0.2,0.2,0.2c1.1,0.2,3.4,0.5,6.2,0c0-1.1-0.6-3.8-0.9-5.3
						c-0.1-0.6-0.3-1.2-0.4-1.8C111.3,121.6,110.2,121.5,108.4,121.5z M104.4,121.8L104.4,121.8L104.4,121.8z"/>
				</g>
			</g>
		</g>
		<g>
			<g>
				<g>
					<path class="st1" d="M107.1,123.3c0.4,1.6-0.4,3.3-1.9,4.1c-1,0.5-1.8-0.9-0.9-1.5c0.5-0.2,1.1-0.4,1.4-0.9
						c0.3-0.4,0.5-1.1,0.5-1.6C106.3,122.9,107,122.8,107.1,123.3L107.1,123.3z"/>
				</g>
			</g>
		</g>
		<g>
			<g>
				<g>
					<path class="st1" d="M111.3,123.4c0.2,1.4,1.6,1.8,2.8,1.8c0.5,0,0.8,0.4,0.8,0.9s-0.4,0.8-0.9,0.8c-0.1,0-0.7-0.2-0.8-0.2
						c-0.6-0.2-1.2-0.5-1.7-1c-0.5-0.5-0.9-1.1-1-1.8c0-0.4-0.1-1.1,0.5-1.1C111.2,123,111.3,123.2,111.3,123.4L111.3,123.4z"/>
				</g>
			</g>
		</g>
		<g>
			<g>
				<g>
					<g>
						<path class="st53" d="M61.8,119.2c0,0-0.3,1.9-2.3,2.1"/>
					</g>
				</g>
			</g>
			<g>
				<g>
					<g>
						<path class="st1" d="M62.3,119.3c-0.1,1.1-0.6,2-1.6,2.5c-0.7,0.4-1.8,0.7-2-0.3c-0.1-0.5,0.2-0.9,0.6-1c0.5,0,1,0,1.4-0.3
							c0.4-0.2,0.7-0.7,0.8-1.1C61.6,118.6,62.3,118.8,62.3,119.3L62.3,119.3z"/>
					</g>
				</g>
			</g>
		</g>
		<g>
			<g>
				<g>
					<path class="st1" d="M149.4,131.8c-0.8,0-1.4-0.9-1.4-2c0-1.1,0.6-2,1.4-2s1.4,0.9,1.4,2C150.8,130.9,150.2,131.8,149.4,131.8z
						 M149.4,129c-0.1,0.1-0.3,0.4-0.3,0.8c0,0.5,0.2,0.8,0.3,0.8c0.1-0.1,0.3-0.4,0.3-0.8C149.7,129.3,149.5,129,149.4,129z"/>
				</g>
			</g>
		</g>
		<g>
			<g>
				<g>
					<path class="st1" d="M149.4,131.8c-0.8,0-1.4-0.9-1.4-2c0-1.1,0.6-2,1.4-2s1.4,0.9,1.4,2C150.8,130.9,150.2,131.8,149.4,131.8z
						 M149.4,129c-0.1,0.1-0.3,0.4-0.3,0.8c0,0.5,0.2,0.8,0.3,0.8c0.1-0.1,0.3-0.4,0.3-0.8C149.7,129.3,149.5,129,149.4,129z"/>
				</g>
			</g>
		</g>
		<g>
			<g>
				<path class="st0" d="M71.6,41.1c-1.9-5.2-6.2-9.1-11.2-10.4c-5.1-1.2-10.8,0.3-14.9,4c-4.8,4.3-7.1,11.5-5.8,17.8
					S45.9,64,51.9,65.4c5.9,1.4,12.7-1.2,16.7-6.2C72.5,54.1,73.7,46.9,71.6,41.1z"/>
				<path class="st25" d="M71.1,41.3c0,0-0.2-0.4-0.5-1.1c-0.2-0.4-0.4-0.8-0.7-1.2c-0.3-0.4-0.6-1-1.1-1.5
					c-0.8-1.1-2.1-2.3-3.7-3.4c-1.6-1-3.6-2-5.9-2.4c-0.3-0.1-0.6-0.1-0.9-0.2c-0.3,0-0.6,0-0.9-0.1c-0.3,0-0.6,0-0.9-0.1
					c-0.3,0-0.6,0-0.9,0.1c-0.3,0-0.6,0-1,0.1c-0.3,0.1-0.6,0.1-1,0.2c-0.7,0.1-1.3,0.3-2,0.5c-2.6,0.9-5.1,2.4-7.2,4.7
					c-2,2.2-3.5,5.1-4.2,8.3c-0.7,3.1-0.8,6.6,0.4,9.7c1.1,3.1,3.2,5.9,5.9,7.8c2.6,1.9,5.9,3,9,2.8c3.1-0.1,6-1.2,8.4-2.7l0.9-0.6
					c0.3-0.2,0.5-0.4,0.8-0.7c0.5-0.5,1.1-0.9,1.5-1.4c0.4-0.5,0.9-1,1.3-1.5c0.4-0.5,0.7-1.1,1.1-1.6c1.2-2.1,2-4.3,2.3-6.3
					c0.2-1,0.2-1.9,0.3-2.8c0-0.9,0-1.7-0.1-2.4c-0.1-0.7-0.2-1.3-0.3-1.9c-0.1-0.5-0.3-1-0.3-1.4C71.2,41.7,71,41.3,71.1,41.3
					L71.1,41.3z M72.2,40.9c0,0,0.1,0.4,0.3,1.2c0.1,0.4,0.3,0.9,0.4,1.5c0.1,0.6,0.2,1.3,0.3,2c0,0.8,0,1.6,0,2.5
					C73.1,49,73.1,50,72.8,51c-0.4,2.1-1.2,4.3-2.5,6.6c-0.4,0.5-0.7,1.1-1.1,1.6c-0.4,0.6-0.9,1-1.4,1.6c-0.4,0.6-1,1-1.6,1.4
					c-0.3,0.2-0.6,0.5-0.9,0.7c-0.3,0.2-0.6,0.4-0.9,0.6c-2.5,1.6-5.6,2.7-8.9,2.7c-3.3,0.1-6.7-1-9.4-3.1c-2.8-2-4.8-4.9-6.1-8.2
					c-1.2-3.2-1.5-6.8-0.9-10.1c0.6-3.4,1.9-6.5,4.1-9.2c2-2.6,4.8-4.6,7.7-5.6c0.7-0.3,1.5-0.5,2.2-0.7c0.4-0.1,0.7-0.2,1.1-0.2
					c0.4,0,0.7-0.1,1.1-0.1c0.4,0,0.7-0.1,1.1-0.1c0.4,0,0.8,0,1.1,0c0.4,0,0.8,0,1.1,0c0.3,0,0.6,0.1,0.9,0.1
					c0.3,0,0.6,0.1,0.9,0.1c0.2,0,0.1,0,0.1,0c0.1,0,0.2,0.1,0.2,0.1l0.2,0.1l0.5,0.2c0.6,0.2,1.2,0.4,1.8,0.7
					c0.6,0.3,1.1,0.5,1.6,0.9c0.5,0.3,1,0.7,1.4,1c1.7,1.4,2.9,3,3.7,4.3c0.4,0.6,0.7,1.3,1,1.8c0.3,0.5,0.4,1,0.6,1.4
					C72,40.4,72.2,40.8,72.2,40.9L72.2,40.9z"/>
			</g>
			<path class="st26" d="M68.3,58.7c1-1.2,1.7-2.6,2.4-4c-0.4,0.7-1,1.5-1.5,2.1c-4.1,5.2-10.8,7.8-16.7,6.5
				c-5.9-1.3-10.7-6.6-12-13c-0.3-1.5-0.4-3.1-0.3-4.7c-0.4,2.3-0.6,4.6-0.2,6.9c1.2,6.2,6.1,11.4,11.8,12.7
				C57.6,66.5,64.3,63.8,68.3,58.7z"/>
			<path class="st25" d="M67.8,44c-1.1,3.5-4.8,5.5-8.2,4.4c-3.5-1.1-5.5-4.8-4.4-8.2c1.1-3.5,4.8-5.5,8.2-4.4
				C66.9,36.8,68.9,40.5,67.8,44z"/>
			<path class="st0" d="M62.4,39.8c-0.4,1.2-1.6,1.8-2.7,1.5c-1.2-0.4-1.8-1.6-1.5-2.7c0.4-1.2,1.6-1.8,2.7-1.5
				C62.1,37.4,62.7,38.7,62.4,39.8z"/>
			<g>
				<path class="st0" d="M81.3,39.9c2.2-5,6.8-8.6,12-9.5c5.2-0.8,10.7,1.1,14.5,5.1c4.4,4.7,6.2,12,4.4,18.2
					c-1.8,6.2-7,11-13.1,11.9c-6,0.9-12.5-2.1-16.2-7.5C79.4,52.9,78.7,45.6,81.3,39.9z"/>
				<path class="st25" d="M80.7,39.7c0,0,0.2-0.4,0.5-1.1c0.2-0.4,0.4-0.8,0.7-1.3c0.3-0.5,0.7-1.2,1.2-1.7c0.9-1.2,2.3-2.6,4.1-3.8
					c1.8-1.2,4.2-2.2,6.9-2.4c0.3,0,0.6,0,1-0.1c0.3,0,0.7,0,1.1,0c0.4,0,0.7,0,1.1,0.1c0.4,0,0.7,0.1,1.1,0.2
					c0.4,0.1,0.7,0.1,1.1,0.2c0.4,0.1,0.7,0.2,1.1,0.3c0.7,0.2,1.4,0.5,2.1,0.8c2.7,1.3,5.4,3.3,7.2,6c1.9,2.8,3.1,6,3.4,9.4
					c0.4,3.4-0.2,6.9-1.6,10c-1.5,3.1-3.8,5.8-6.7,7.5c-2.9,1.8-6.3,2.5-9.4,2.2c-3.2-0.3-6.2-1.5-8.6-3.3L86,62
					c-0.3-0.2-0.5-0.5-0.8-0.7c-0.5-0.5-1.1-1-1.5-1.5c-0.4-0.6-0.9-1-1.3-1.6c-0.3-0.6-0.7-1.1-1-1.7c-1.2-2.3-1.8-4.7-2.1-6.7
					c-0.2-1-0.1-2-0.2-2.9c0.1-0.9,0.1-1.8,0.2-2.5c0.2-0.7,0.3-1.4,0.4-2c0.1-0.6,0.4-1,0.5-1.4C80.6,40.1,80.7,39.7,80.7,39.7z
					 M81.8,40.2c0,0.1-0.2,0.4-0.4,1.1c-0.1,0.4-0.3,0.8-0.4,1.3c-0.1,0.5-0.3,1.2-0.4,1.9c-0.1,0.7-0.1,1.5-0.2,2.4
					c0.1,0.9,0,1.8,0.1,2.8c0.2,2,0.8,4.2,1.9,6.3c0.3,0.5,0.6,1.1,1,1.7c0.3,0.5,0.8,1,1.2,1.5c0.4,0.5,0.9,1,1.4,1.5
					c0.2,0.2,0.5,0.5,0.7,0.7l0.8,0.6c2.2,1.7,5.1,2.9,8,3.2c3,0.3,6.2-0.4,9-2c2.7-1.6,5.1-4.2,6.5-7.1c1.4-3,1.6-6.4,1.1-9.6
					c-0.5-3.2-1.9-6.2-3.7-8.4c-1.9-2.5-4.3-4-6.8-5c-0.6-0.3-1.2-0.5-1.9-0.6c-0.3-0.1-0.6-0.2-0.9-0.3c-0.3,0-0.6-0.1-0.9-0.1
					c-0.3,0-0.6-0.1-0.9-0.1c-0.3,0-0.6,0-0.9,0c-0.3,0-0.6,0-0.8,0c-0.3,0-0.6,0.1-1,0.1c-0.3,0-0.6,0.1-0.9,0.1c0.2,0,0,0,0.1,0
					c-0.1,0-0.2,0-0.2,0l-0.2,0l-0.4,0.1c-0.5,0.1-1.1,0.2-1.5,0.4c-1,0.3-1.9,0.8-2.8,1.2c-1.6,0.9-3,2-4,3c-0.5,0.5-0.8,1-1.2,1.4
					c-0.4,0.4-0.6,0.8-0.8,1.2C82.1,39.8,81.9,40.1,81.8,40.2z"/>
			</g>
			<path class="st25" d="M106.2,40.5c0.8,3.6-1.4,7.1-5,7.9c-3.6,0.8-7.1-1.4-7.9-5c-0.8-3.6,1.4-7.1,5-7.9
				C101.9,34.7,105.4,36.9,106.2,40.5z"/>
			<path class="st0" d="M99.4,39.5c0.3,1.2-0.5,2.3-1.7,2.6c-1.2,0.3-2.3-0.5-2.6-1.7s0.5-2.3,1.7-2.6C98,37.6,99.2,38.3,99.4,39.5z
				"/>
			<path class="st26" d="M83.6,57.8c-0.9-1.3-1.5-2.7-2-4.1c0.3,0.7,0.7,1.3,1.1,1.9c3.6,5.3,10,8.3,16,7.4
				c5.9-0.9,11.1-5.6,12.9-11.8c0.4-1.5,0.6-3,0.6-4.5c0.2,2.3,0.2,4.9-0.4,7.1c-1.7,6-6.9,10.3-12.7,11.2
				C93.3,65.9,87.1,63,83.6,57.8z"/>
		</g>
		<g>
			<polygon class="st3" points="95.4,146.6 89.8,139.3 89.8,136.2 95.1,129.3 103,129.3 96,137.5 103.5,146.6 			"/>
			<path class="st1" d="M100.5,130.4l-6,7.1l6.5,7.9H96l-5.1-6.5v-2.3l4.7-6.2H100.5 M105.4,128.1h-4.9h-4.9h-1.1l-0.7,0.9l-4.7,6.2
				l-0.5,0.6v0.8v2.3v0.8l0.5,0.6l5.1,6.5l0.7,0.9H96h5.1h4.8l-3.1-3.7l-5.3-6.5l4.8-5.7L105.4,128.1L105.4,128.1z"/>
		</g>
		<g>
			<polygon class="st15" points="69.8,146.6 76.8,138.3 69.3,129.3 77.4,129.3 83,136.6 83,139.6 77.7,146.6 			"/>
			<path class="st1" d="M76.8,130.4l5.1,6.5v2.3l-4.7,6.2h-4.9l6-7.1l-6.5-7.9H76.8 M77.9,128.1h-1.1h-5.1h-4.8l3.1,3.7l5.3,6.5
				l-4.8,5.7l-3.1,3.7h4.9h4.9h1.1l0.7-0.9l4.7-6.2l0.5-0.6v-0.8v-2.3v-0.8l-0.5-0.6l-5.1-6.5L77.9,128.1L77.9,128.1z"/>
		</g>
		<g>
			<polygon class="st11" points="86.1,152.4 77.9,159.3 77.9,151.5 84.8,146.2 87.9,146.2 95.2,151.8 95.2,159.8 			"/>
			<path class="st1" d="M87.5,147.3l6.5,5.1v5.1l-7.9-6.5l-7.1,6V152l6.2-4.7H87.5 M88.3,145h-0.8h-2.3h-0.8l-0.6,0.5l-6.2,4.7
				l-0.9,0.7v1.1v4.9v4.9l3.7-3.1l5.7-4.8l6.5,5.3l3.7,3.1v-4.8v-5.1v-1.1l-0.9-0.7l-6.5-5.1L88.3,145L88.3,145z"/>
		</g>
		<g>
			<polygon class="st16" points="84.8,129.8 77.6,124.1 77.6,116.1 86.6,123.5 94.9,116.6 94.9,124.4 87.9,129.8 			"/>
			<path class="st1" d="M78.7,118.5l7.9,6.5l7.1-6v4.9l-6.2,4.7h-2.3l-6.5-5.1V118.5 M76.4,113.7v4.8v5.1v1.1l0.9,0.7l6.5,5.1
				l0.6,0.5h0.8h2.3h0.8l0.6-0.5l6.2-4.7L96,125v-1.1V119v-4.9l-3.7,3.1l-5.7,4.8l-6.5-5.3L76.4,113.7L76.4,113.7z"/>
		</g>
	</g>
</g>
</svg>
