<?xml version="1.0" encoding="utf-8"?>
<!-- Generator: Adobe Illustrator 27.2.0, SVG Export Plug-In . SVG Version: 6.00 Build 0)  -->
<svg version="1.1" xmlns="http://www.w3.org/2000/svg" xmlns:xlink="http://www.w3.org/1999/xlink" x="0px" y="0px"
	 viewBox="0 0 210 228.1" style="enable-background:new 0 0 210 228.1;" xml:space="preserve">
<style type="text/css">
	.st0{fill:#FFFFFF;}
	.st1{fill:#15264B;}
	.st2{opacity:0.35;}
	.st3{fill:#274B8B;}
	.st4{fill:#0F3747;}
	.st5{opacity:0.5;}
	.st6{opacity:0.4;}
	.st7{fill:#183E75;}
	.st8{opacity:0.2;}
	.st9{fill:#38276B;}
	.st10{fill:#44AC34;}
	.st11{fill:#00983A;}
	.st12{fill:#FCF8FB;}
	.st13{opacity:0.7;}
	.st14{fill:#94613F;}
	.st15{fill:#FFD100;}
	.st16{fill:#EA5B0C;}
	.st17{fill:#D3D5ED;}
	.st18{fill:#D8D8D8;}
	.st19{fill:#121A28;}
	.st20{fill:#E5E1D4;}
	.st21{opacity:0.25;}
	.st22{opacity:0.6;}
	.st23{fill:#FFD346;}
	.st24{fill:#FFDA36;}
	.st25{fill:#1E1E1C;}
	.st26{fill:#EEEDED;}
	.st27{opacity:0.3;}
	.st28{fill:#407FC1;}
	.st29{fill:#B0B3B1;}
	.st30{opacity:0.8;}
	.st31{fill:#E5E5E4;}
	.st32{fill:#BCBCBB;}
	.st33{fill:#E72D47;}
	.st34{fill:#F7A710;}
	.st35{fill:#F2EFEC;}
	.st36{fill:#F9B116;}
	.st37{fill:#F38F1C;}
	.st38{fill:none;stroke:#2A3856;stroke-width:2.1963;stroke-linecap:round;stroke-miterlimit:10;}
	.st39{fill:#D66C12;}
	.st40{fill:#FFD767;}
	.st41{fill:#F7A83D;}
	.st42{fill:#FECF70;}
	.st43{fill:#FFED91;}
	.st44{opacity:0.41;}
	.st45{opacity:0.26;}
	.st46{fill:none;}
	.st47{fill:#261E26;}
	.st48{fill:#E30613;}
	.st49{fill:#E9E8E8;}
	.st50{fill:#4A92CF;}
	.st51{fill:#386EB5;}
	.st52{fill:#B6B6B7;}
	.st53{fill:#DDDDDD;}
	.st54{fill:#FDC423;}
	.st55{fill:#E2A415;}
	.st56{fill:#F9B044;}
	.st57{fill:#EB5759;}
	.st58{fill:#E5201F;}
	.st59{fill:none;stroke:#FFFFFF;stroke-width:2.3076;stroke-linecap:round;stroke-miterlimit:10;}
	.st60{fill:#EDC5D6;}
	.st61{fill:#4A153F;}
	.st62{fill:#E9C8D2;}
	.st63{fill:#DFB0BE;}
	.st64{fill:#D6D6EA;}
	.st65{fill:#BDBDE0;}
	.st66{fill:#232323;}
	.st67{fill:#A7ABCC;}
	.st68{fill:#EDCCA9;}
	.st69{fill:#492311;}
	.st70{fill:#2A3856;}
	.st71{fill:#05646E;}
	.st72{fill:#F28D70;}
	.st73{fill:#BEC5CA;}
	.st74{fill:#54767A;}
</style>
<g id="Fondo">
</g>
<g id="Grafica">
</g>
<g id="Informazioni">
	<g>
		<g>
			<path class="st0" d="M140.2,169.9c15.7,0.8,14.8-17.7,14.8-17.7c2.6-2.2,3.2-10,3.2-10l2.7-30.6c-2.9-8.9-13.8-12.1-13.8-12.1
				l-4.8,4.2"/>
		</g>
	</g>
	<g>
		<g>
			<path class="st1" d="M141.2,171c-0.3,0-0.7,0-1,0c-0.6,0-1-0.5-1-1.1c0-0.6,0.5-1,1.1-1c3.9,0.2,7-0.9,9.3-3.1
				c4.8-4.8,4.4-13.4,4.4-13.5c0-0.3,0.1-0.6,0.4-0.8c1.9-1.6,2.7-7.3,2.9-9.3l2.7-30.4c-2.8-8.1-13-11.2-13.1-11.2
				c-0.5-0.2-0.9-0.7-0.7-1.3c0.2-0.5,0.7-0.9,1.3-0.7c0.5,0.1,11.4,3.4,14.5,12.8c0,0.1,0.1,0.3,0,0.4l-2.7,30.6
				c-0.1,0.8-0.7,7.6-3.2,10.4c0,2-0.2,9.8-5,14.6C148.5,169.7,145.2,171,141.2,171z"/>
		</g>
	</g>
	<g>
		<g>
			<path class="st0" d="M171.9,127.6l-8,10.1c-2.5,3.2-6.2,5.3-10.3,5.6c-8.6,0.7-14.6-6.2-19.4-16.5l8.3,20.2l0,0.1l-1.9,19.6
				l-1.3,28.3l0.8,16.1c2,1.4,3.2,2.9,3.7,4.5c1,2.9-0.8,6-3.7,6.7c-7,1.6-14,1.3-21.2-0.2c-2.3-0.5-4.1-2.5-4.2-4.9
				c-0.1-2.1-0.2-4.2-0.2-6.3c0-3.8,0-7.5,0.3-11.2c0.1-2.1-0.2-4.1-1-6l-4.7-11.7c0,0,0,0,0,0l-0.9-2.4c-3.5,2.7-5.9,7.4-8,12.7
				c-0.6,1.6-1,3.3-0.9,5.1l0.1,18.9c-0.4,3.3-2.5,4.5-5.4,4.8H70.8c-9.3-1-8.3-11.2-1.4-14.2c1.5-0.7,3.4-1,5.4-0.8
				c-0.6-18.4-0.2-35.9,2.2-51.4c-2.1-7.1,0.2-19.5,0.2-19.5l4.4-17.2c-0.2,0.1-0.5,0.1-0.7,0.2c-17.1,4.1-21-4.5-21.9-8.1
				c-0.2-0.9-0.2-1.5-0.2-1.5l32.7-17.9l52.2,12.2c8.9,4.6,10.4,13.4,10.4,13.4l2.9-1.8c0.5-4.7,1.9-9,4.2-12.8l0.1-2.9
				c1.3-5.5,7.9-3,7.4,3.8C180.4,106.8,179.6,118.1,171.9,127.6z"/>
		</g>
	</g>
	<g class="st27">
		<g>
			<path class="st3" d="M140.1,222.3c-7,1.6-14,1.3-21.2-0.2c-2.3-0.5-4.1-2.5-4.2-4.9c-0.1-2.1-0.2-4.2-0.2-6.3c0.1,0,0.1,0,0.1,0
				c2.1,9.5,19.6,8.9,17.4-4.7c0,0,0.3-16.5-0.9-31.3c-1.2-14.8-0.8-17.8-0.8-17.8l8.5-24c-0.4,0.7,20,11.2,20,11.2l-5.1,18.7
				l-6.7,5.9l-6.7,0.9l-0.9,25.1l0.8,16.1c2,1.4,3.2,2.9,3.7,4.5C144.8,218.5,143.1,221.6,140.1,222.3z"/>
		</g>
	</g>
	<g>
		<g>
			<path class="st0" d="M171.9,127.6l-8,10.1c-2.5,3.2-6.2,5.3-10.3,5.6c-0.4,0-0.7,0-1.1,0c-0.2,0-0.3,0-0.5,0h0
				c-4.7-0.1-8.6-2.6-11.9-6.6c0,0,0,0,0,0c-2.2-2.7-4.1-6.1-5.9-9.9l1.4-3.6l8-20.1c8.9,4.6,10.4,13.4,10.4,13.4l2.9-1.8
				c0.5-4.7,1.9-9,4.2-12.8l0.1-2.9c1.3-5.5,7.9-3,7.4,3.8c0.8,0.3,1.5,0.6,2.1,0.9l0,0C180.3,108.3,179.1,118.7,171.9,127.6z"/>
		</g>
	</g>
	<g>
		<g>
			<path class="st0" d="M154.1,116.5l-3.6,3c0,0-3.6,11.4,7.3,18.2"/>
		</g>
	</g>
	<g>
		<g>
			<path class="st1" d="M134.6,126.6c0.9,1.5,1.7,3,2.7,4.4c0.5,0.7,0.9,1.4,1.4,2.1c0.2,0.3,0.5,0.7,0.8,1c0.3,0.3,0.5,0.7,0.8,1
				l0.8,1c0.3,0.3,0.6,0.6,0.8,0.9c0.3,0.3,0.6,0.6,0.9,0.9c0.3,0.3,0.6,0.6,0.9,0.8c0.3,0.3,0.6,0.6,0.9,0.8l1,0.7l1,0.6
				c0.2,0.1,0.4,0.2,0.5,0.3l0.5,0.2c1.5,0.6,3,0.9,4.6,1c1.6,0,3.2-0.2,4.7-0.8c1.5-0.6,2.9-1.4,4.1-2.4c0.6-0.5,1.2-1.1,1.7-1.7
				l0.4-0.5l0.4-0.5l0.8-1l6.4-8.1c1.1-1.3,2.1-2.6,2.9-4.1c0.8-1.4,1.6-2.9,2.1-4.5c0.3-0.8,0.5-1.6,0.6-2.3
				c0.1-0.8,0.2-1.6,0.2-2.4c0-0.8-0.1-1.6-0.2-2.3c-0.2-0.8-0.4-1.5-0.7-2.2c-0.3-0.7-0.8-1.3-1.3-1.9c-0.5-0.6-1.1-1.1-1.7-1.6
				c-1.3-0.9-2.7-1.7-4.3-2.2l0,0l0,0c-0.5-0.2-0.7-0.6-0.7-1.1c0.1-1,0-2-0.3-2.9c-0.3-0.9-0.8-1.7-1.5-2.2
				c-0.7-0.5-1.5-0.6-2.1-0.3c-0.6,0.3-1.1,1.1-1.3,2l0-0.2l-0.1,2.9c0,0.2-0.1,0.4-0.2,0.5c-1.1,1.9-2,3.9-2.7,5.9
				c-0.7,2.1-1.1,4.2-1.3,6.4c0,0.3-0.2,0.6-0.5,0.8l-2.9,1.8c-0.5,0.3-1.2,0.2-1.5-0.3c-0.1-0.1-0.1-0.2-0.1-0.4l0,0
				c-0.1-0.3-0.1-0.6-0.2-0.9c-0.1-0.3-0.2-0.7-0.3-1c-0.1-0.3-0.2-0.6-0.4-1c-0.1-0.3-0.3-0.6-0.4-0.9c-0.6-1.2-1.3-2.4-2.2-3.5
				c-0.8-1.1-1.8-2.1-2.9-3l-0.4-0.3c-0.1-0.1-0.3-0.2-0.4-0.3l-0.8-0.6c-0.3-0.2-0.6-0.4-0.9-0.5l-0.9-0.5l0.3,0.1L91.2,91.9
				l0.8-0.1l-32.7,17.9l0.6-1c0,0.1,0,0.2,0,0.3c0,0.1,0,0.3,0.1,0.4c0,0.3,0.1,0.5,0.2,0.8c0.1,0.5,0.3,1,0.5,1.5
				c0.4,1,1,1.9,1.7,2.7c1.4,1.6,3.4,2.7,5.5,3.3c2.1,0.6,4.4,0.7,6.7,0.5c2.3-0.2,4.6-0.6,6.8-1.1l0,0c0.6-0.1,1.2,0.2,1.3,0.8
				c0,0.2,0,0.4,0,0.5l-2.3,9l-1.1,4.5l-0.6,2.3l-0.3,1.1c-0.1,0.2-0.1,0.3-0.1,0.5l-0.1,0.6c-0.5,3-0.8,6.1-0.9,9.2
				c0,1.5,0,3.1,0.1,4.6c0.1,1.5,0.3,3,0.7,4.4l0,0c0,0.2,0,0.3,0,0.5c-1.3,8.4-2,17-2.3,25.5c-0.3,8.5-0.2,17.1,0,25.7
				c0,0.6-0.5,1.1-1.1,1.1c0,0-0.1,0-0.1,0l0,0c-1.9-0.2-3.9,0.1-5.6,1c-1.7,0.9-3,2.4-3.6,4.2c-0.6,1.8-0.5,3.8,0.6,5.1
				c0.5,0.7,1.2,1.3,2.1,1.6c0.8,0.4,1.8,0.6,2.8,0.7l-0.1,0h23.1l-0.1,0c1.2-0.1,2.3-0.4,3.1-1.1c0.4-0.3,0.7-0.7,0.9-1.2
				c0.2-0.5,0.4-1,0.4-1.6l0,0.1l0-9.8l0-4.9l0-2.5l0-1.2l0-0.6c0-0.2,0-0.4,0-0.7c0-0.9,0.2-1.8,0.4-2.6c0.1-0.4,0.2-0.9,0.4-1.3
				c0.1-0.4,0.3-0.8,0.5-1.2c0.6-1.5,1.3-3.1,2-4.6c0.8-1.5,1.6-3,2.6-4.4c0.5-0.7,1-1.4,1.6-2c0.6-0.6,1.2-1.2,1.9-1.8
				c0.5-0.4,1.1-0.3,1.5,0.2c0.1,0.1,0.1,0.2,0.2,0.3l0,0l3.8,9.5l1.9,4.8c0.7,1.7,1,3.5,1,5.4c0,0.9-0.1,1.8-0.1,2.6
				c0,0.8-0.1,1.7-0.1,2.5c-0.1,1.7-0.1,3.4-0.1,5.1c0,1.7,0,3.4,0.1,5.1c0,0.8,0.1,1.7,0.1,2.5l0,0.3c0,0.1,0,0.2,0,0.3l0,0.3
				l0,0.2c0.1,0.3,0.2,0.7,0.3,1c0.3,0.6,0.7,1.1,1.3,1.5c0.3,0.2,0.6,0.4,0.9,0.5c0.2,0.1,0.3,0.1,0.5,0.2l0.2,0.1
				c0.1,0,0.2,0,0.3,0.1c1.6,0.3,3.3,0.6,4.9,0.8c3.3,0.4,6.7,0.5,10,0.2c1.7-0.1,3.3-0.4,4.9-0.7l0.6-0.1l0.5-0.1
				c0.3-0.1,0.6-0.3,0.9-0.5c0.6-0.4,1-0.9,1.3-1.5c0.3-0.6,0.5-1.3,0.5-1.9c0-0.7-0.2-1.3-0.5-2c-0.6-1.3-1.7-2.4-3-3.3
				c-0.3-0.2-0.4-0.5-0.5-0.8l-0.8-16.1c0,0,0-0.1,0-0.1l1.1-24l0.1-3c0-0.5,0-1,0.1-1.5l0.1-1.5l0.6-6l1.2-12c0.1-0.6,0.6-1,1.2-1
				c0.6,0.1,1,0.6,1,1.2l-1.2,11.9l-0.6,6l-0.1,1.5c0,0.5-0.1,1-0.1,1.5l-0.1,3l-1.1,23.9V195l0.8,16.1l-0.5-0.8
				c0.7,0.5,1.5,1.1,2.1,1.8c0.6,0.7,1.2,1.5,1.6,2.4c0.4,0.8,0.7,1.9,0.7,2.9c0,1-0.3,2.1-0.7,3c-0.5,0.9-1.2,1.7-2,2.3
				c-0.4,0.3-0.9,0.5-1.4,0.7c-0.2,0.1-0.5,0.2-0.7,0.2l-0.6,0.1c-1.7,0.4-3.4,0.6-5.2,0.8c-3.5,0.3-7,0.2-10.4-0.2
				c-1.7-0.2-3.4-0.5-5.1-0.8c-0.1,0-0.2,0-0.3-0.1l-0.4-0.1c-0.2-0.1-0.5-0.2-0.7-0.3c-0.5-0.2-0.9-0.5-1.3-0.8
				c-0.8-0.6-1.5-1.4-1.9-2.4c-0.2-0.5-0.4-1-0.5-1.5l-0.1-0.4l0-0.4c0-0.1,0-0.2,0-0.3l0-0.3c0-0.9-0.1-1.7-0.1-2.6
				c-0.1-1.7-0.1-3.4-0.1-5.1c0-1.7,0-3.4,0.1-5.1c0-0.9,0.1-1.7,0.1-2.6c0-0.9,0.1-1.7,0.1-2.5c0-1.6-0.3-3.1-0.9-4.6l-1.9-4.7
				l-3.8-9.5l1.7,0.5c-0.6,0.5-1.1,1-1.7,1.5c-0.5,0.6-1,1.2-1.5,1.8c-0.9,1.3-1.7,2.7-2.4,4.1c-0.7,1.4-1.4,2.9-2,4.4
				c-0.2,0.4-0.3,0.7-0.4,1.1c-0.1,0.4-0.2,0.7-0.3,1.1c-0.2,0.7-0.3,1.5-0.3,2.2c0,0.2,0,0.4,0,0.6l0,0.6l0,1.2l0,2.5l0,4.9l0,9.8
				v0c0,0,0,0.1,0,0.1c-0.1,0.7-0.3,1.5-0.6,2.2c-0.3,0.7-0.9,1.4-1.5,1.9c-0.6,0.5-1.4,0.9-2.1,1.1c-0.7,0.2-1.5,0.4-2.2,0.5
				c0,0-0.1,0-0.1,0h0H70.8h0c0,0-0.1,0-0.1,0c-1.2-0.1-2.3-0.4-3.4-0.9c-1.1-0.5-2.2-1.3-2.9-2.3c-0.8-1-1.2-2.3-1.3-3.5
				c-0.1-1.3,0.1-2.5,0.5-3.6c0.8-2.3,2.5-4.2,4.6-5.4c1-0.6,2.2-1,3.4-1.2c1.2-0.2,2.4-0.2,3.5-0.1l-1.2,1.1
				c-0.3-8.6-0.3-17.2,0-25.8c0.3-8.6,1-17.2,2.3-25.8l0,0.5c-0.9-3.2-0.9-6.4-0.9-9.6c0.1-3.2,0.4-6.3,0.9-9.4l0.1-0.6
				c0-0.2,0.1-0.5,0.1-0.6l0.3-1.1l0.6-2.3l1.2-4.5l2.3-9.1l1.3,1.3c-2.4,0.6-4.8,1-7.2,1.2c-2.4,0.2-5,0-7.4-0.6
				c-1.2-0.3-2.4-0.8-3.5-1.5c-1.1-0.7-2.1-1.5-3-2.5c-0.9-1-1.6-2.1-2.1-3.3c-0.3-0.6-0.5-1.2-0.6-1.8c-0.1-0.3-0.2-0.6-0.2-1
				c0-0.2-0.1-0.3-0.1-0.5c0-0.2,0-0.3-0.1-0.5c0-0.4,0.2-0.8,0.5-1l0,0l32.7-17.9c0.2-0.1,0.5-0.2,0.8-0.1L144,102l0,0
				c0.1,0,0.1,0,0.2,0.1l1,0.6c0.3,0.2,0.7,0.4,1,0.6l0.9,0.7c0.2,0.1,0.3,0.2,0.5,0.3l0.4,0.4c1.2,1,2.3,2.1,3.2,3.3
				c0.9,1.2,1.8,2.5,2.4,3.9c0.2,0.3,0.3,0.7,0.5,1c0.1,0.4,0.3,0.7,0.4,1.1c0.1,0.4,0.3,0.7,0.4,1.1c0.1,0.4,0.2,0.7,0.3,1.2
				l-1.6-0.7l2.9-1.8l-0.5,0.8c0.2-2.3,0.7-4.6,1.4-6.9c0.7-2.2,1.7-4.4,2.9-6.4l-0.2,0.5l0.1-2.9l0,0c0-0.1,0-0.1,0-0.2
				c0.2-0.6,0.4-1.3,0.8-1.9c0.4-0.6,0.9-1.2,1.6-1.5c0.7-0.4,1.6-0.5,2.3-0.4c0.8,0.1,1.5,0.4,2,0.8c1.2,0.8,1.9,2,2.3,3.3
				c0.4,1.3,0.5,2.6,0.4,3.8l-0.7-1.1l0,0c1.7,0.6,3.4,1.4,4.9,2.5c0.7,0.6,1.4,1.2,2,1.9c0.6,0.7,1.1,1.5,1.6,2.4
				c0.4,0.9,0.7,1.8,0.9,2.7c0.2,0.9,0.3,1.9,0.3,2.8c0,0.9-0.1,1.8-0.3,2.8c-0.2,0.9-0.4,1.8-0.7,2.6c-1.2,3.4-3.1,6.5-5.3,9.2
				l-6.4,8.1l-0.8,1l-0.4,0.5l-0.4,0.5c-0.6,0.7-1.3,1.4-2,1.9c-1.4,1.2-3,2.1-4.8,2.8c-1.7,0.6-3.6,0.9-5.5,0.9
				c-1.9,0-3.7-0.4-5.4-1.1l-0.6-0.3c-0.2-0.1-0.4-0.2-0.6-0.3l-1.2-0.7l-1.1-0.8c-0.4-0.3-0.7-0.6-1.1-0.9c-1.4-1.2-2.6-2.5-3.6-4
				c-1-1.5-1.9-3-2.7-4.6c-0.8-1.6-1.4-3.2-2-4.8c-0.1-0.2,0-0.5,0.2-0.5C134.3,126.4,134.5,126.5,134.6,126.6L134.6,126.6z"/>
		</g>
	</g>
	<g>
		<g>
			<path class="st1" d="M154.8,117.2l-3.6,3l0.3-0.5l0,0c0,0.2-0.1,0.4-0.1,0.6l-0.1,0.6c-0.1,0.4-0.1,0.8-0.2,1.2
				c-0.1,0.8-0.2,1.6-0.1,2.5c0,1.7,0.3,3.3,0.9,4.9c0.6,1.6,1.4,3,2.5,4.4c1.1,1.3,2.4,2.5,3.8,3.4l0,0c0.2,0.1,0.2,0.4,0.1,0.5
				c-0.1,0.2-0.3,0.2-0.5,0.1c-1.6-0.9-3-2-4.3-3.3c-1.3-1.3-2.3-2.9-3-4.6c-0.7-1.7-1.2-3.5-1.3-5.4c-0.1-0.9-0.1-1.9,0-2.8
				c0-0.5,0.1-0.9,0.2-1.4c0-0.2,0.1-0.5,0.1-0.7c0.1-0.2,0.1-0.4,0.2-0.7l0,0c0.1-0.2,0.2-0.4,0.3-0.5l0,0l3.6-3
				c0.4-0.4,1.1-0.3,1.4,0.1C155.3,116.2,155.2,116.9,154.8,117.2z"/>
		</g>
	</g>
	<g>
		<g>
			<path class="st1" d="M158,114.7c0,0.4,0,0.9,0,1.3c0,0.5,0.1,0.9,0.1,1.4c0.1,0.9,0.4,1.8,0.7,2.6c0.3,0.8,0.8,1.6,1.4,2.3
				c0.3,0.3,0.6,0.6,1,0.9c0.4,0.2,0.8,0.4,1.2,0.6l0,0c0.2,0.1,0.3,0.3,0.2,0.5c-0.1,0.2-0.3,0.3-0.5,0.2c-0.5-0.1-1-0.3-1.5-0.5
				c-0.5-0.2-0.9-0.5-1.3-0.9c-0.8-0.7-1.4-1.6-1.9-2.5c-0.5-0.9-0.8-1.9-1.1-2.9c-0.1-0.5-0.2-1-0.3-1.5c-0.1-0.5-0.2-1-0.2-1.6
				c0-0.6,0.4-1.1,1-1.1c0.6,0,1.1,0.4,1.1,1C158,114.6,158,114.6,158,114.7L158,114.7z"/>
		</g>
	</g>
	<g>
		<g>
			<path class="st1" d="M169,103.8c-1.9,0.6-3.5,1.7-4.5,3.3c-1,1.6-1.2,3.5-0.8,5.4c0.4,1.9,1.5,3.7,3,4.9c1.5,1.3,3.5,2,5.6,2.2
				l0,0c0.2,0,0.4,0.2,0.4,0.4c0,0.2-0.2,0.3-0.4,0.4c-1.1,0.1-2.3,0-3.4-0.3c-1.1-0.3-2.2-0.8-3.2-1.4c-1.9-1.3-3.4-3.4-4-5.7
				c-0.3-1.2-0.4-2.4-0.3-3.6c0.1-1.2,0.5-2.4,1.2-3.5c0.6-1.1,1.5-2,2.6-2.6c1-0.7,2.1-1.1,3.3-1.4c0.5-0.1,1.1,0.2,1.2,0.7
				C169.8,103.1,169.5,103.6,169,103.8L169,103.8z"/>
		</g>
	</g>
	<g class="st27">
		<g>
			<path class="st3" d="M171.9,127.6l-8,10.1c-2.5,3.2-6.2,5.3-10.3,5.6c-0.4,0-0.7,0-1.1,0h-0.8c-8.9,0-11.5-6.4-11.6-6.6
				c0,0,0,0,0,0l-5.9-9.9c0,0-0.5-1.4,1.4-3.6c0,0,0,0,0,0c1-1.2,3-1,3.7,0.4c3,5.6,6.9,8.3,11.8,7.6l8.4-8.7
				c3.6-2.4,4.2-7.1,4.2-7.1c10.1,2.3,9.8-3.8,7-11.8l0,0C180.3,108.3,179.1,118.7,171.9,127.6z"/>
		</g>
	</g>
	<g>
		<g>
			<path class="st1" d="M83.2,112.3l6.6-9.8c0.2-0.3,0.5-0.3,0.8-0.2c0.3,0.2,0.3,0.5,0.2,0.8l-5.9,10.3c-0.3,0.5-0.9,0.7-1.4,0.4
				C83,113.5,82.8,112.9,83.2,112.3C83.1,112.3,83.1,112.3,83.2,112.3z"/>
		</g>
	</g>
	<g>
		<g>
			<path class="st1" d="M87.3,164.3c0.5,0.6,1.1,1.3,1.8,1.8c0.2,0.1,0.3,0.3,0.5,0.4l0.5,0.4c0.4,0.2,0.7,0.5,1.1,0.7
				c1.5,0.9,3.1,1.5,4.8,2.1c1.6,0.6,3.4,0.9,5.1,1.3l2.6,0.5l2.6,0.3l0,0c0.4,0,0.8,0.4,0.9,0.7l2,7.1c0.2,0.5-0.2,1.1-0.7,1.3
				c-0.5,0.2-1.1-0.2-1.3-0.7l-2-7.1l0.9,0.7l-2.7-0.3c-0.9-0.1-1.8-0.3-2.7-0.4c-0.4-0.1-0.9-0.2-1.3-0.3c-0.4-0.1-0.9-0.2-1.3-0.4
				c-0.9-0.3-1.8-0.6-2.6-0.9c-0.9-0.3-1.7-0.7-2.5-1.2c-0.4-0.2-0.8-0.5-1.2-0.7c-0.4-0.2-0.8-0.5-1.2-0.8
				c-0.4-0.3-0.7-0.6-1.1-0.8c-0.3-0.3-0.7-0.6-1-1c-0.7-0.7-1.3-1.4-1.7-2.2c-0.1-0.2,0-0.4,0.2-0.5C87,164,87.2,164.1,87.3,164.3
				L87.3,164.3z"/>
		</g>
	</g>
	<g>
		<g>
			<path class="st1" d="M75.3,205.4l4.2,3c0.2,0.1,0.2,0.4,0.1,0.5c-0.1,0.1-0.3,0.2-0.5,0.1l-4.8-1.9c-0.5-0.2-0.8-0.8-0.6-1.3
				c0.2-0.5,0.8-0.8,1.3-0.6C75.2,205.3,75.3,205.3,75.3,205.4z"/>
		</g>
	</g>
	<g>
		<g>
			<path class="st1" d="M88.3,199.3c-5.2,0-10.9-1.3-14.3-4.1c-0.4-0.3-0.5-1-0.1-1.4c0.3-0.4,1-0.5,1.4-0.1c4.3,3.5,13.2,4.4,19,3
				c2.4-0.6,4-1.5,4.4-2.6c0.2-0.5,0.8-0.7,1.3-0.5c0.5,0.2,0.7,0.8,0.5,1.3c-0.7,1.7-2.7,3-5.8,3.7
				C92.8,199.1,90.6,199.3,88.3,199.3z"/>
		</g>
	</g>
	<g>
		<g>
			<path class="st1" d="M127.4,201.2c-5,0-10.4-1.1-13.3-3.5c-0.4-0.3-0.5-0.9-0.1-1.4c0.3-0.4,0.9-0.5,1.4-0.1
				c3.2,2.6,11,3.8,17.3,2.6c3.1-0.6,5.2-1.6,6-2.9c0.3-0.5,0.9-0.6,1.3-0.4c0.5,0.3,0.6,0.9,0.4,1.3c-1.4,2.3-4.7,3.4-7.3,3.9
				C131.2,201.1,129.3,201.2,127.4,201.2z"/>
		</g>
	</g>
	<g>
		<g>
			<path class="st1" d="M139.6,212c-0.2-0.1-0.5-0.3-0.8-0.4c-0.3-0.1-0.6-0.2-0.9-0.3c-0.3-0.1-0.6-0.2-1-0.3
				c-0.3-0.1-0.6-0.2-1-0.2c-1.3-0.3-2.7-0.4-4-0.3c-1.3,0.1-2.7,0.3-4,0.7c-0.7,0.2-1.3,0.5-1.9,0.7c-0.3,0.1-0.6,0.3-0.9,0.5
				l-0.9,0.5l0,0c-0.2,0.1-0.4,0-0.5-0.2c-0.1-0.2,0-0.4,0.1-0.5l0.9-0.6c0.3-0.2,0.6-0.4,0.9-0.5c0.6-0.3,1.3-0.7,2-0.9
				c1.3-0.6,2.8-0.9,4.2-1.1c1.5-0.2,2.9-0.2,4.4,0c0.4,0,0.7,0.1,1.1,0.2c0.4,0.1,0.7,0.2,1.1,0.2c0.4,0.1,0.7,0.2,1.1,0.3
				c0.2,0.1,0.4,0.1,0.5,0.2c0.1,0,0.2,0.1,0.3,0.1c0.1,0,0.2,0.1,0.3,0.1c0.5,0.2,0.7,0.9,0.5,1.4C140.8,212,140.2,212.2,139.6,212
				C139.7,212,139.7,212,139.6,212L139.6,212z"/>
		</g>
	</g>
	<g>
		<g>
			<path class="st66" d="M51.3,113.9c-0.4,0-0.8-0.2-1-0.6c-0.2-0.5,0-1.1,0.6-1.3l111-44.3c0.2-0.1,0.3-0.1,0.5-0.1l9.1,1
				c0,0,0.1,0,0.1,0c11.2,2.5,21,0.4,27.1-5.6c4.3-4.3,6.2-10.2,5.3-16l-16.7,7.4c-0.3,0.1-0.6,0.1-0.9,0l-9.2-5.1
				c-0.4-0.2-0.6-0.7-0.5-1.2l2.1-7.3c0.1-0.3,0.3-0.5,0.5-0.6l15.1-7.6v-3.6c-7-5-14.5-6.6-21.7-4.6c-8.3,2.3-15.7,9.3-19.7,18.8
				c-0.1,0.2-0.3,0.4-0.5,0.5L41.1,93.2c-0.5,0.2-1.1,0-1.4-0.5c-0.2-0.5,0-1.1,0.5-1.4l111.2-49.5c4.3-9.8,12.1-17.1,20.9-19.6
				c7.9-2.2,16.2-0.4,23.8,5.2c0.3,0.2,0.4,0.5,0.4,0.8v4.8c0,0.4-0.2,0.7-0.6,0.9l-15.3,7.7l-1.8,6.1l8.1,4.4l17.4-7.8
				c0.3-0.1,0.6-0.1,0.9,0c0.3,0.1,0.5,0.4,0.5,0.7c1.5,6.9-0.5,14.1-5.6,19.2c-6.6,6.6-17.1,8.8-28.9,6.2l-8.8-1L51.7,113.8
				C51.6,113.8,51.5,113.9,51.3,113.9z"/>
		</g>
	</g>
	<g>
		<g>
			<path class="st67" d="M171.4,69.5l-9.1-1l-111,44.3L40.7,92.3l111.5-49.7c7.2-17.1,25.4-27.4,43.3-14.3v4.8L179.8,41l-2.1,7.3
				l9.2,5.1l17.9-8C208,59.8,195,74.8,171.4,69.5z"/>
		</g>
	</g>
	<g class="st27">
		<g>
			<path class="st66" d="M171.4,69.5l-9.1-1l-111,44.3L40.7,92.3l3.3-1.5l7.4,14.2l111-44.3l9.1,1c19,4.2,31.2-4.7,33.5-15.9
				C207.7,60.1,194.7,74.7,171.4,69.5z"/>
		</g>
	</g>
	<g class="st13">
		<g>
			<path class="st0" d="M153.7,44.5L42.1,94.1l9.6,18.5l-0.4,0.2L40.7,92.3l111.5-49.7c7.2-17.1,25.4-27.4,43.3-14.3v0.8
				C178.1,17.7,160.7,27.9,153.7,44.5z"/>
		</g>
	</g>
	<g class="st13">
		<g>
			<path class="st0" d="M205.2,47.7l-16.8,7.5l-9.2-5.1l0.3-0.9l7.5,4.1l17.9-8C205,46.2,205.1,47,205.2,47.7z"/>
		</g>
	</g>
	<g>
		<g>
			<path class="st1" d="M51.3,113.9c-0.4,0-0.8-0.2-1-0.6c-0.2-0.5,0-1.1,0.6-1.3l111-44.3c0.2-0.1,0.3-0.1,0.5-0.1l9.1,1
				c0,0,0.1,0,0.1,0c11.2,2.5,21,0.4,27.1-5.6c4.3-4.3,6.2-10.2,5.3-16l-16.7,7.4c-0.3,0.1-0.6,0.1-0.9,0l-9.2-5.1
				c-0.4-0.2-0.6-0.7-0.5-1.2l2.1-7.3c0.1-0.3,0.3-0.5,0.5-0.6l15.1-7.6v-3.6c-7-5-14.5-6.6-21.7-4.6c-8.3,2.3-15.7,9.3-19.7,18.8
				c-0.1,0.2-0.3,0.4-0.5,0.5L41.1,93.2c-0.5,0.2-1.1,0-1.4-0.5c-0.2-0.5,0-1.1,0.5-1.4l111.2-49.5c4.3-9.8,12.1-17.1,20.9-19.6
				c7.9-2.2,16.2-0.4,23.8,5.2c0.3,0.2,0.4,0.5,0.4,0.8v4.8c0,0.4-0.2,0.7-0.6,0.9l-15.3,7.7l-1.8,6.1l8.1,4.4l17.4-7.8
				c0.3-0.1,0.6-0.1,0.9,0c0.3,0.1,0.5,0.4,0.5,0.7c1.5,6.9-0.5,14.1-5.6,19.2c-6.6,6.6-17.1,8.8-28.9,6.2l-8.8-1L51.7,113.8
				C51.6,113.8,51.5,113.9,51.3,113.9z"/>
		</g>
	</g>
	<g>
		<g>
			<path class="st1" d="M177.7,49.3c-0.1,0-0.3,0-0.4-0.1l-3-1.4c-0.4-0.2-0.7-0.7-0.5-1.2l3-10.5c0.1-0.3,0.3-0.5,0.6-0.7l17.8-8
				c0.5-0.2,1.1,0,1.4,0.5c0.2,0.5,0,1.1-0.5,1.4l-17.4,7.8l-2.6,9.2l2.2,1c0.5,0.2,0.7,0.9,0.5,1.4C178.4,49.1,178,49.3,177.7,49.3
				z"/>
		</g>
	</g>
	<g class="st13">
		<g>
			<path class="st0" d="M107.1,84.8l-45.3,18c-2,0.8-4.4-0.1-5.2-2.1c-0.3-0.7-0.4-1.4-0.3-2.1c1.1,1.4,3,1.9,4.7,1.2l44.4-17.6
				L107.1,84.8z"/>
		</g>
	</g>
	<g class="st27">
		<g>
			<polygon class="st1" points="195.5,28.3 195.5,33.1 179.8,41 177.7,48.3 174.7,46.9 177.6,36.4 			"/>
		</g>
	</g>
	<g>
		<g>
			<path class="st1" d="M59.4,101.4c-1.9,0-3.8-1.1-4.6-3c-0.6-1.3-0.6-2.6-0.1-3.9c0.5-1.3,1.5-2.3,2.7-2.8l42.8-18.2
				c0.4-0.2,0.9,0,1.2,0.3l5.6,7.7c0.2,0.2,0.2,0.6,0.1,0.8c-0.1,0.3-0.3,0.5-0.6,0.6l-45.3,18C60.6,101.3,60,101.4,59.4,101.4z
				 M100.3,75.6L58.1,93.5c-0.8,0.3-1.4,0.9-1.7,1.7c-0.3,0.8-0.3,1.6,0.1,2.4l0,0c0.7,1.5,2.4,2.2,4,1.6l44.2-17.5L100.3,75.6z"/>
		</g>
	</g>
	<g class="st27">
		<g>
			<path class="st66" d="M106.2,82.2l-0.4,0.1L102,77L59.2,95.2c-1.7,0.7-2.7,2.5-2.5,4.3c-0.4-0.4-0.8-0.9-1.1-1.4
				c-0.9-2.1,0-4.5,2.1-5.4l42.8-18.2L106.2,82.2z"/>
		</g>
	</g>
	<g>
		<g>
			<path class="st67" d="M12.7,128c16.8,14.6,50.5-1,34.3-28.6c-4.4-7.6-12.7-12.2-21.5-11.6c-10.9,0.7-21.9,7.5-20.6,22.4
				c0.1,0.7,0.8,1,1.4,0.7c3.7-2,14.8-7.2,14.8-7.2l11.2,3.9l-1.8,10.1L12.7,128z"/>
		</g>
	</g>
	<g class="st27">
		<g>
			<path class="st66" d="M21.3,104.2c0,0-11,5.2-14.8,7.2c-0.6,0.3-1.3-0.1-1.4-0.7c-0.1-1.4-0.1-2.8,0-4.1c3.7-1.8,11-5,13.9-6.2
				c0.8-0.4,1.8-0.4,2.6-0.1l9.4,3.1c1.8,0.6,2.4,2.8,1.1,4.2l0,0L21.3,104.2z"/>
		</g>
	</g>
	<g class="st27">
		<g>
			<path class="st66" d="M13.7,128.7c17.6,7.4,42.8-7.6,28.3-32.3c-1.6-2.7-3.7-5-6.1-6.9c4.6,2,8.5,5.4,11.1,9.8
				C63,126.5,30.8,142,13.7,128.7z"/>
		</g>
	</g>
	<g class="st13">
		<g>
			<path class="st0" d="M7.6,110.3c-0.5,0.3-0.9,0.5-1.3,0.7c-0.6,0.3-1.3-0.1-1.4-0.7c-1.3-14.9,9.7-21.8,20.6-22.4
				c3.9-0.2,7.7,0.5,11.1,2.1c-2.7-0.9-5.5-1.2-8.4-1.1C17.6,89.5,6.9,96.1,7.6,110.3z"/>
		</g>
	</g>
	<g class="st13">
		<g>
			<path class="st0" d="M32.2,107.7L32.2,107.7c1.6,0.6,2.5,2.2,2.2,3.8l-1.3,7.3L15.5,129c1.6,1.4,3.3,2.5,5.2,3.4
				c-2.8-0.9-5.5-2.4-7.9-4.4l17.6-10.2L32.2,107.7z"/>
		</g>
	</g>
	<g>
		<g>
			<path class="st1" d="M28.3,134.6c-6.1,0-11.9-2.1-16.2-5.9c-0.2-0.2-0.4-0.5-0.3-0.9c0-0.3,0.2-0.6,0.5-0.8l17.2-10l1.6-8.8
				l-9.9-3.5c-2,0.9-11.1,5.3-14.3,7c-0.6,0.3-1.3,0.3-1.9,0c-0.6-0.3-1-0.9-1-1.5c-0.6-6.4,1-11.7,4.6-15.8
				c3.9-4.5,10.1-7.3,17-7.7c9.1-0.6,17.7,4.1,22.4,12.1c6.8,11.6,5.7,22.7-2.9,29.9c-4.3,3.6-10.2,5.7-16.2,5.8
				C28.7,134.6,28.5,134.6,28.3,134.6z M14.5,128.1c9.1,6.9,22,5,29.2-0.9c7.9-6.5,8.8-16.5,2.4-27.3c-4.3-7.3-12.3-11.6-20.5-11.1
				c-6.4,0.4-12.1,3-15.6,7c-3.2,3.7-4.6,8.5-4.1,14.2c3.8-2.1,14.2-7,14.7-7.2c0.2-0.1,0.5-0.1,0.8,0l11.2,3.9
				c0.5,0.2,0.8,0.7,0.7,1.1l-1.8,10.1c-0.1,0.3-0.2,0.6-0.5,0.7L14.5,128.1z"/>
		</g>
	</g>
	<g>
		<g>
			<g>
				<path class="st0" d="M73.8,77.5c3.9-1.7,1.4-7.7-2.4-5.5c-2,0.8-4.1,1-6.3,0.6c-9.6-1.2-14,7.7-12.2,14.1l3.3-1.5
					c4.5,3.7,14.3-0.7,13.9-6.2C70,79.2,74.1,77.4,73.8,77.5z"/>
			</g>
		</g>
		<g class="st27">
			<g>
				<path class="st3" d="M73.8,77.5C73.8,77.5,73.8,77.5,73.8,77.5c0,0-3.7,1.7-3.7,1.7c0.4,5.4-9.4,9.9-13.9,6.2l-3.3,1.5
					c-0.3-1.1-0.4-2.3-0.4-3.5l2.2-1c4.5,3.7,14.3-0.7,13.9-6.2c0,0,3.7-1.7,3.7-1.7c0,0,0,0,0,0c1.2-0.6,1.8-1.6,1.9-2.6
					C76.1,73,76.5,76.3,73.8,77.5z"/>
			</g>
		</g>
		<g>
			<g>
				<path class="st1" d="M52.9,87.9c-0.1,0-0.3,0-0.4-0.1c-0.3-0.1-0.5-0.4-0.6-0.6c-1.1-3.9-0.1-8.4,2.6-11.6
					c2.6-3,6.4-4.4,10.7-3.9c2.1,0.3,4,0.1,5.7-0.6c1.3-0.8,2.7-0.8,3.9-0.1c1.3,0.8,2,2.3,1.9,3.9c-0.1,1.6-1,2.9-2.6,3.5
					c0,0,0,0,0,0c-0.2,0.1-2.1,0.9-3.1,1.4c-0.2,2.5-2,4.9-5.1,6.5c-3,1.5-7.1,2.1-9.9,0.2l-2.7,1.2C53.2,87.8,53,87.9,52.9,87.9z
					 M56.2,84.4c0.2,0,0.5,0.1,0.7,0.2c2.1,1.8,5.7,1.3,8.2,0c2-1,4.1-3,4-5.3c0-0.4,0.2-0.8,0.6-1l3.2-1.4c0.1-0.1,0.3-0.1,0.4-0.2
					c0,0,0.1,0,0.1-0.1l0,0c0,0,0,0,0,0l0,0c1-0.5,1.3-1.2,1.3-1.8c0.1-0.8-0.3-1.6-1-2c-0.5-0.3-1.2-0.3-1.9,0.1c0,0-0.1,0-0.1,0.1
					c-2.1,0.9-4.4,1.1-6.9,0.7c-4.6-0.6-7.4,1.4-8.9,3.2c-2,2.3-2.9,5.5-2.4,8.5l2.1-1C55.9,84.4,56,84.4,56.2,84.4z"/>
			</g>
		</g>
		<g>
			<g>
				<path class="st1" d="M55.3,85.9l-0.9-2.6c-0.1-0.2,0-0.4,0.2-0.5c0.1-0.1,0.3,0,0.4,0.1l2,1.9c0.4,0.4,0.4,1.1,0,1.5
					c-0.4,0.4-1.1,0.4-1.5,0C55.5,86.2,55.4,86.1,55.3,85.9z"/>
			</g>
		</g>
		<g>
			<g>
				<path class="st1" d="M69,79.3l0.2-3.1c0-0.2,0.2-0.4,0.4-0.4c0.2,0,0.3,0.1,0.3,0.3l1.1,3c0.2,0.5-0.1,1.1-0.6,1.3
					c-0.5,0.2-1.1-0.1-1.3-0.6C69,79.6,69,79.5,69,79.3z"/>
			</g>
		</g>
	</g>
	<g class="st27">
		<g>
			<path class="st3" d="M89.1,104.7l-5.1,7l-3.1,6.7c0,0,0,0,0,0c-17.1,4.1-21-4.5-21.9-8.1l11-5.6C70.3,113.6,78,111.7,89.1,104.7z
				"/>
		</g>
	</g>
	<g class="st27">
		<g>
			<path class="st3" d="M109.2,181.8c0,0,0,0.1,0,0.3l-0.9-2.4c-3.5,2.7-5.9,7.4-8,12.7c-0.6,1.6-1,3.3-0.9,5.1l0.1,18.9
				c-0.4,3.3-2.5,4.5-5.4,4.8H70.8c-9.3-1-8.3-11.2-1.4-14.2c0.1,0.1,0.2,0.3,0.3,0.5c7,13.5,20.4,5.4,19.5-9.2
				c-1-14.6,2.4-29.8,2.4-29.8l8.6,3.3l6.1,1.6L109.2,181.8z"/>
		</g>
	</g>
	<g>
		<g>
			<path class="st1" d="M150.3,153.7c-2.9,0-6.5-0.6-8.8-3.1c-0.4-0.4-0.4-1.1,0.1-1.4c0.4-0.4,1.1-0.4,1.4,0.1
				c3.6,3.9,11.6,2,11.7,2c0.5-0.1,1.1,0.2,1.2,0.8c0.1,0.5-0.2,1.1-0.8,1.2C155,153.2,152.9,153.7,150.3,153.7z"/>
		</g>
	</g>
	<g>
		<g>
			<g>
				<path class="st0" d="M71.8,62c1.1,8.3,4.3,16.4,9.6,23.5c1.1,1.4,2.2,2.8,3.5,4.2c0.6,0.7,1.2,1.3,1.9,1.9
					c2,1.9,4.1,3.6,6.2,5.1c1.9,1.3,3.8,2.5,5.8,3.5c2.4,1.3,4.9,2.3,7.4,3.1c0.9,0.3,1.9,0.6,2.8,0.8c17.2,4.6,36.3,0.2,49.6-13.2
					c19.6-19.7,19.1-51.5-1-70.9c-3.9-3.7-8.2-6.8-12.8-9c-0.5-0.3-1.1-0.5-1.6-0.8c-1.5-0.7-3-1.3-4.5-1.8c-3.5-1.2-7.1-2-10.7-2.4
					c-3.6-0.4-7.3-0.5-10.9-0.1c-1.2,0.1-2.3,0.2-3.4,0.4c-1.7,0.3-3.4,0.6-5.1,1.1c-8.4,2.2-16.3,6.7-22.8,13.2
					C74.6,32,69.9,47.3,71.8,62z"/>
			</g>
			<g>
				<path class="st66" d="M122.5,106c-4.5,0-9-0.6-13.4-1.8c-0.9-0.3-1.9-0.5-2.8-0.8c-2.6-0.9-5.1-1.9-7.5-3.1
					c-2-1.1-4-2.2-5.8-3.5c-2.2-1.5-4.3-3.3-6.2-5.1c-0.7-0.7-1.3-1.3-1.9-1.9c-1.2-1.3-2.4-2.7-3.5-4.2c-5.2-6.9-8.5-15-9.6-23.5
					c-2-15.3,3.1-30.5,14-41.5c6.3-6.4,14.2-11,22.9-13.3c1.6-0.4,3.4-0.8,5.1-1.1c1.1-0.2,2.3-0.3,3.5-0.4
					c3.6-0.3,7.3-0.3,10.9,0.1c3.7,0.4,7.3,1.3,10.7,2.4c1.5,0.5,3,1.1,4.5,1.8c0.6,0.3,1.1,0.5,1.6,0.8c4.7,2.3,9,5.4,12.8,9
					c9.8,9.5,15.3,22.1,15.4,35.6c0.1,13.4-5,26-14.4,35.5C149.1,100.8,136,106,122.5,106z M72,62c1.1,8.5,4.4,16.5,9.5,23.4
					c1.1,1.4,2.3,2.8,3.5,4.2c0.6,0.6,1.2,1.2,1.9,1.9c1.9,1.9,4,3.6,6.2,5.1c1.8,1.3,3.8,2.5,5.8,3.5c2.4,1.2,4.9,2.3,7.4,3.1
					c0.9,0.3,1.9,0.6,2.8,0.8c17.7,4.7,36.7-0.3,49.4-13.2c9.4-9.5,14.5-22,14.4-35.3c-0.1-13.4-5.6-26-15.3-35.4
					c-3.8-3.7-8.1-6.7-12.8-9c-0.5-0.3-1-0.5-1.6-0.8c-1.5-0.7-3-1.3-4.4-1.8c-3.4-1.2-7-2-10.7-2.4c-3.6-0.4-7.3-0.5-10.9-0.1
					c-1.2,0.1-2.3,0.3-3.4,0.4c-1.7,0.3-3.5,0.6-5.1,1.1c-8.6,2.3-16.5,6.9-22.8,13.2C75.1,31.7,70,46.7,72,62z"/>
			</g>
		</g>
		<g class="st27">
			<g>
				<path class="st3" d="M158.7,90.9c-13.3,13.4-32.4,17.8-49.6,13.2c-0.9-0.3-1.9-0.5-2.8-0.8c-2.5-0.8-5-1.9-7.4-3.1
					c-2-1-3.9-2.2-5.8-3.5c-2.2-1.5-4.3-3.2-6.2-5.1c-0.6-0.6-1.3-1.3-1.9-1.9c-1.2-1.3-2.4-2.7-3.5-4.2c-5.3-7-8.5-15.1-9.6-23.5
					c-0.6-4.6-0.6-9.2,0.1-13.8c1.2,7.9,4.4,15.6,9.4,22.3c1.1,1.4,2.2,2.8,3.5,4.2c0.6,0.7,1.2,1.3,1.9,1.9c2,1.9,4.1,3.6,6.2,5.1
					c1.9,1.3,3.8,2.5,5.8,3.5c2.4,1.2,4.9,2.3,7.4,3.1c0.9,0.3,1.9,0.6,2.8,0.8c17.2,4.6,36.3,0.2,49.6-13.2
					c7.8-7.8,12.4-17.5,13.9-27.6C174.8,63.4,170.2,79.3,158.7,90.9z"/>
			</g>
		</g>
		<g>
			<g>
				<path class="st66" d="M122.5,106.9c-4.5,0-9.1-0.6-13.6-1.8c-1-0.3-1.9-0.5-2.9-0.9c-2.6-0.9-5.2-1.9-7.6-3.2
					c-2.1-1.1-4.1-2.3-5.9-3.6c-2.2-1.6-4.4-3.3-6.4-5.2c-0.7-0.7-1.4-1.4-1.9-2c-1.2-1.3-2.4-2.8-3.6-4.2c-5.3-7-8.6-15.3-9.8-23.9
					l0,0c-2-15.6,3.2-31,14.3-42.2c6.4-6.5,14.5-11.1,23.3-13.5c1.7-0.5,3.4-0.8,5.2-1.1c1.1-0.2,2.3-0.3,3.5-0.4
					c3.7-0.3,7.4-0.3,11.1,0.1c3.7,0.4,7.4,1.3,10.9,2.5c1.5,0.5,3.1,1.1,4.5,1.8c0.6,0.3,1.1,0.5,1.7,0.8c4.8,2.4,9.2,5.5,13,9.2
					c10,9.6,15.5,22.5,15.7,36.2c0.1,13.6-5.1,26.4-14.7,36.2C149.6,101.5,136.2,106.9,122.5,106.9z M72.9,61.8
					c1.1,8.3,4.3,16.3,9.4,23c1.1,1.4,2.2,2.8,3.4,4.1c0.5,0.6,1.2,1.2,1.9,1.9c1.9,1.8,4,3.5,6.1,5c1.8,1.3,3.7,2.4,5.7,3.5
					c2.3,1.2,4.8,2.2,7.3,3.1c0.9,0.3,1.8,0.6,2.7,0.8c17.4,4.7,36-0.3,48.6-13c9.2-9.3,14.2-21.6,14.1-34.7
					c-0.1-13.2-5.5-25.5-15.1-34.7c-3.7-3.6-8-6.6-12.5-8.8c-0.5-0.3-1-0.5-1.6-0.8c-1.4-0.7-2.9-1.2-4.4-1.7
					c-3.4-1.2-6.9-2-10.5-2.4c-3.5-0.4-7.1-0.5-10.7-0.1c-1.1,0.1-2.3,0.2-3.4,0.4c-1.7,0.3-3.4,0.6-5,1.1
					c-8.5,2.3-16.2,6.7-22.4,13C75.9,32.1,70.9,46.9,72.9,61.8L72.9,61.8z"/>
			</g>
		</g>
		<g>
			<g>
				<path class="st1" d="M122.5,107.2c-4.6,0-9.2-0.6-13.7-1.8c-1-0.3-1.9-0.5-2.9-0.9c-2.6-0.9-5.2-2-7.6-3.2
					c-2.1-1.1-4.1-2.3-6-3.6c-2.2-1.6-4.4-3.3-6.4-5.3c-0.7-0.7-1.4-1.4-1.9-2c-1.3-1.3-2.5-2.8-3.6-4.3c-5.3-7-8.7-15.4-9.8-24.1
					l0,0C68.5,46.4,73.7,31,84.9,19.7c6.5-6.5,14.6-11.2,23.4-13.6c1.7-0.5,3.4-0.8,5.2-1.1c1.2-0.2,2.3-0.3,3.5-0.4
					c3.7-0.3,7.5-0.3,11.2,0.1c3.7,0.4,7.4,1.3,11,2.5c1.5,0.5,3.1,1.1,4.6,1.8c0.6,0.3,1.1,0.5,1.7,0.8c4.8,2.4,9.2,5.5,13.1,9.3
					c10,9.7,15.6,22.6,15.8,36.4c0.1,13.7-5.1,26.6-14.8,36.4C149.7,101.8,136.3,107.2,122.5,107.2z M73.1,61.8
					c1.1,8.3,4.3,16.2,9.3,22.8c1.1,1.4,2.2,2.8,3.4,4.1c0.5,0.6,1.2,1.2,1.8,1.9c1.9,1.8,3.9,3.5,6.1,5c1.8,1.3,3.7,2.4,5.7,3.4
					c2.3,1.2,4.8,2.2,7.3,3.1c0.9,0.3,1.8,0.6,2.7,0.8c17.3,4.6,35.8-0.3,48.3-12.9c9.2-9.3,14.2-21.5,14-34.5
					c-0.1-13.1-5.5-25.4-15-34.5c-3.7-3.6-7.9-6.5-12.5-8.8c-0.5-0.3-1-0.5-1.6-0.8c-1.4-0.6-2.9-1.2-4.4-1.7
					c-3.4-1.2-6.9-2-10.4-2.4c-3.5-0.4-7.1-0.5-10.6-0.1c-1.1,0.1-2.3,0.2-3.4,0.4c-1.7,0.3-3.4,0.6-5,1.1
					c-8.4,2.2-16.1,6.7-22.3,12.9C76.2,32.2,71.2,46.9,73.1,61.8L73.1,61.8z"/>
			</g>
		</g>
		<g>
			<g>
				<path class="st3" d="M75.2,74.4c20.3,29.8,63.4,30.8,78.3-1.4c10.1-21.9-3.8-48.8-25.8-57.1c-16-6.1-34.3-5.1-50.6,16.7
					c0,0-5.7,10.8-5.5,19.5s1.8,17.2,1.8,17.2L75.2,74.4z"/>
			</g>
		</g>
		<g>
			<g>
				<path class="st1" d="M153.5,73c-14.9,32.2-58,31.3-78.3,1.5l-0.4-1c28.5,17.2,66,10.9,81.7-21.4C157.5,59,156.6,66.2,153.5,73z"
					/>
			</g>
		</g>
		<g>
			<g>
				<path class="st1" d="M116.4,103.3c-8.1,0-16.3-1.9-23.9-5.6l-0.2-0.1c-2.2-1.6-4.4-3.3-6.4-5.2c-0.7-0.7-1.4-1.4-1.9-2
					c-1.2-1.3-2.5-2.8-3.6-4.3c-5.3-7-8.7-15.3-9.8-24v0C68.6,46.5,73.8,31,85,19.8c6.4-6.5,14.5-11.2,23.4-13.5l0.1,0l0.1,0
					c6.7-0.4,13.8,0.9,21.1,3.6c13.2,5,24.4,16.1,29.9,29.7c5,12.2,4.9,25-0.2,36.1c-5.6,12-14.8,20.6-26.7,24.9
					C127.6,102.4,122,103.3,116.4,103.3z M93.6,95.6c12.3,6,26.3,7,38.3,2.7c11.3-4,20-12.2,25.3-23.6c4.8-10.5,4.9-22.6,0.2-34.2
					c-5.3-13-16-23.6-28.6-28.4c-7-2.7-13.7-3.8-20-3.5c-8.4,2.3-16.1,6.7-22.2,12.9C76,32.2,71.1,46.9,73,61.8v0
					c1.1,8.3,4.3,16.2,9.3,22.9c1.1,1.4,2.2,2.8,3.4,4.1c0.5,0.6,1.2,1.2,1.9,1.9C89.5,92.5,91.5,94.1,93.6,95.6z"/>
			</g>
		</g>
		<g>
			<g>
				<path class="st1" d="M116.1,98.3c-16.3,0-32.2-8.6-42-23.1L74,75l-1.9-5.5c-0.1-0.3-1.7-8.7-1.8-17.4
					c-0.2-8.9,5.4-19.7,5.7-20.1l0.1-0.2c14.2-19.2,31.8-24.9,52.1-17.2c11.8,4.5,21.8,14.4,26.8,26.6c4.5,10.9,4.4,22.4-0.2,32.3
					c-6.6,14.4-19.3,23.3-34.8,24.6C118.6,98.2,117.3,98.3,116.1,98.3z M76.3,73.8c10.1,14.7,26.7,23,43.3,21.7
					c14.5-1.2,26.4-9.6,32.7-23.1c4.3-9.2,4.3-20,0.2-30.2c-4.7-11.5-14.1-20.9-25.3-25.1c-19.1-7.3-35.6-1.8-49,16.2
					c-0.5,1-5.5,10.9-5.3,18.8c0.2,8,1.6,15.9,1.8,16.8L76.3,73.8z"/>
			</g>
		</g>
		<g>
			<g>
				<path class="st0" d="M175.3,79c-3,9.4-11.2,15.5-18.3,13.6c-7.1-1.9-10.3-11.1-7.3-20.5c0-0.1,0-0.1,0.1-0.2
					c3.1-9.3,11.2-15.3,18.2-13.4c5.5,1.5,8.7,7.3,8.4,14.2C176.4,74.7,176,76.9,175.3,79z"/>
			</g>
			<g>
				<path class="st66" d="M159.7,93.2c-0.9,0-1.8-0.1-2.7-0.4c-2.8-0.8-5.1-2.7-6.7-5.5c-2.3-4.1-2.6-9.9-0.8-15.3
					c0-0.1,0-0.1,0.1-0.2c3.1-9.4,11.4-15.5,18.5-13.6c5.4,1.4,8.8,7.2,8.6,14.4c-0.1,2.1-0.5,4.3-1.1,6.4l0,0
					C172.9,87.4,166.1,93.2,159.7,93.2z M165.4,58.5c-6.2,0-12.7,5.6-15.4,13.6c0,0.1,0,0.1-0.1,0.2c-1.7,5.3-1.4,10.9,0.8,14.9
					c1.5,2.7,3.7,4.5,6.4,5.2c6.9,1.9,15-4.2,18-13.5c0.7-2.1,1-4.2,1.1-6.2c0.2-6.9-3.1-12.5-8.2-13.9
					C167.1,58.6,166.3,58.5,165.4,58.5z"/>
			</g>
		</g>
		<g class="st27">
			<g>
				<path class="st3" d="M175.3,79c-3,9.4-11.2,15.5-18.3,13.6c-7.1-1.9-10.3-11.1-7.3-20.5c0-0.1,0-0.1,0.1-0.2
					c0.5,1.2,1.4,2.4,3.1,2.6c3,0.2,10.1-4.5,10.1-4.5s5.8,1.1,13.4,2.6C176.4,74.7,176,76.9,175.3,79z"/>
			</g>
		</g>
		<g>
			<g>
				<path class="st1" d="M159.7,94.3c-1,0-2-0.1-2.9-0.4c-3.1-0.8-5.7-2.9-7.3-6c-2.4-4.4-2.7-10.3-0.9-16.1
					c3.2-10.1,12.1-16.5,19.9-14.5c3.1,0.8,5.7,2.9,7.3,6c2.4,4.4,2.7,10.3,0.9,16.1C173.7,88.2,166.6,94.3,159.7,94.3z M165.4,59.5
					c-5.8,0-11.9,5.4-14.4,13.1c-1.6,5-1.4,10.3,0.7,14.1c1.3,2.4,3.3,4.1,5.7,4.7c0.8,0.2,1.5,0.3,2.3,0.3
					c5.8,0,11.9-5.4,14.4-13.1l0,0c1.6-5,1.4-10.3-0.7-14.1c-1.3-2.4-3.3-4.1-5.7-4.7C166.9,59.6,166.1,59.5,165.4,59.5z"/>
			</g>
		</g>
		<g>
			<g>
				
					<ellipse transform="matrix(0.3962 -0.9182 0.9182 0.3962 28.4172 199.8215)" class="st0" cx="166.1" cy="78.3" rx="14.2" ry="10.8"/>
			</g>
			<g>
				<path class="st66" d="M163.8,92.2c-2.3,0-4.4-0.9-6-2.5c-4.4-4.4-4.2-13,0.4-19.3c2.6-3.5,6-5.7,9.5-5.9
					c2.6-0.2,4.9,0.7,6.8,2.5c4.4,4.4,4.2,13-0.4,19.3v0c-2.6,3.5-6,5.7-9.5,5.9C164.3,92.2,164.1,92.2,163.8,92.2z M168.5,64.7
					c-0.2,0-0.5,0-0.7,0c-3.4,0.3-6.8,2.4-9.3,5.8c-4.5,6.2-4.7,14.7-0.4,19c1.8,1.8,4,2.6,6.5,2.4c3.4-0.3,6.8-2.4,9.3-5.8v0
					c4.5-6.2,4.7-14.7,0.4-19C172.7,65.5,170.7,64.7,168.5,64.7z"/>
			</g>
		</g>
		<g class="st27">
			<g>
				<path class="st3" d="M154.6,81c0.2-2.7,1.1-5.3,2.5-7.7c0.1,6.2,4.5,10.1,10.3,8.8c3.7-0.8,7.1-3.6,9.3-7.1c0,0.4,0,0.8,0,1.2
					c-0.4,6.8-5.7,13.5-11.8,14.8C158.8,92.3,154.2,87.8,154.6,81z"/>
			</g>
		</g>
		<g>
			<g>
				<path class="st1" d="M163.5,93.3c-0.7,0-1.4-0.1-2.1-0.3c-2.3-0.6-4.2-2.1-5.4-4.4c-1.9-3.6-2.2-8.6-0.6-13.5
					c2.7-8.2,9.7-13.7,15.6-12.1c2.3,0.6,4.2,2.1,5.4,4.4c1.9,3.6,2.2,8.6,0.6,13.5l0,0C174.7,88.1,169,93.3,163.5,93.3z M169,65
					c-4.4,0-9.2,4.5-11.2,10.8c-1.4,4.3-1.2,8.6,0.4,11.6c0.9,1.7,2.3,2.8,3.9,3.3c4.7,1.2,10.5-3.5,12.8-10.6
					c1.4-4.3,1.2-8.6-0.4-11.6c-0.9-1.7-2.3-2.8-3.9-3.3C170,65.1,169.5,65,169,65z M176,80.5L176,80.5L176,80.5z"/>
			</g>
		</g>
		<g class="st5">
			<g>
				<path class="st0" d="M135.6,29.8c0,0-21.3-6.6-37.3,0.8c0,0,0,0-0.1,0c-3.4,1.6-6.2,4-8.3,7c-2.8,4-4.1,7.2-5.1,10
					c-3.2,8.6-3,13.3-3,13.3c-3.3-6.4-4.2-12.5-1.7-19.8c0.3-0.7,0.5-1.4,0.9-2.2c0.1-0.2,0.1-0.3,0.2-0.5c0,0,0,0,0,0
					c0.8-1.4,1.8-3.3,3.2-5.3c4.2-6,11.2-13.3,21.1-14.2C124.1,17.3,136.7,29.2,135.6,29.8z"/>
			</g>
			<g>
				<path class="st0" d="M82.1,62.1l-0.5-1c-3.6-6.9-4.1-13.1-1.7-20c0.3-0.7,0.5-1.4,0.9-2.2c0.1-0.2,0.1-0.3,0.2-0.5l0-0.1l0.1,0
					c1-1.8,2-3.6,3.2-5.2c4.2-6,11.2-13.4,21.2-14.3c9.3-0.9,16.8,1.7,21.5,4c5.3,2.6,8.6,5.7,8.9,6.7c0.1,0.3-0.1,0.5-0.1,0.5
					l-0.1,0.1l-0.1,0c-0.2-0.1-21.4-6.5-37.1,0.8l-0.1,0c-3.3,1.5-6.2,3.9-8.2,7c-2.8,4.1-4.1,7.3-5.1,10c-3.1,8.5-3,13.1-3,13.2
					L82.1,62.1z"/>
			</g>
		</g>
		<g class="st5">
			<g>
				
					<ellipse transform="matrix(7.860398e-02 -0.9969 0.9969 7.860398e-02 76.4963 195.1038)" class="st0" cx="143.8" cy="56.2" rx="7.8" ry="6.8"/>
			</g>
		</g>
		<g class="st5">
			<g>
				
					<ellipse transform="matrix(0.9999 -1.481504e-02 1.481504e-02 0.9999 -1.0259 2.1205)" class="st0" cx="142.6" cy="70.3" rx="2.8" ry="3.2"/>
			</g>
		</g>
	</g>
	<g>
		<path class="st0" d="M106.1,38.1c-2-5.6-6.7-9.9-12.2-11.3c-5.5-1.3-11.7,0.3-16.1,4.4c-5.2,4.7-7.7,12.5-6.3,19.3
			c1.4,6.9,6.7,12.5,13.2,13.9c6.5,1.5,13.8-1.3,18.1-6.8C107.1,52.3,108.4,44.5,106.1,38.1z"/>
		<path class="st25" d="M105.5,38.4c0,0-0.2-0.4-0.6-1.2c-0.2-0.4-0.4-0.9-0.7-1.4c-0.3-0.5-0.6-1.1-1.1-1.7c-0.9-1.2-2.3-2.5-4-3.7
			c-1.8-1.1-3.9-2.2-6.4-2.6c-0.3-0.1-0.7-0.1-1-0.2c-0.3,0-0.6,0-1-0.1c-0.3,0-0.6,0-1-0.1c-0.3,0-0.7,0-1,0.1
			c-0.3,0-0.7,0-1.1,0.1c-0.3,0.1-0.7,0.1-1.1,0.2c-0.7,0.1-1.4,0.3-2.1,0.5c-2.8,0.9-5.6,2.6-7.8,5.1c-2.1,2.4-3.8,5.6-4.6,9
			c-0.8,3.4-0.8,7.2,0.5,10.6c1.2,3.3,3.5,6.4,6.4,8.5c2.9,2.1,6.4,3.2,9.8,3c3.4-0.1,6.5-1.3,9.1-2.9l1-0.6
			c0.3-0.2,0.6-0.5,0.9-0.7c0.6-0.5,1.2-0.9,1.6-1.5c0.5-0.5,1-1.1,1.4-1.6c0.4-0.6,0.8-1.2,1.2-1.7c1.3-2.3,2.1-4.7,2.5-6.8
			c0.2-1.1,0.2-2.1,0.3-3c0-0.9-0.1-1.8-0.1-2.6c-0.1-0.8-0.2-1.4-0.3-2c-0.1-0.6-0.3-1.1-0.4-1.5C105.6,38.8,105.5,38.3,105.5,38.4
			L105.5,38.4z M106.8,37.9c0,0,0.1,0.5,0.3,1.3c0.1,0.4,0.3,0.9,0.4,1.6c0.1,0.6,0.2,1.4,0.3,2.2c0,0.8,0,1.7,0.1,2.7
			c-0.1,1-0.2,2.1-0.4,3.2c-0.4,2.3-1.3,4.7-2.7,7.2c-0.4,0.6-0.8,1.1-1.2,1.7c-0.5,0.7-1,1.1-1.5,1.7c-0.5,0.6-1.1,1.1-1.7,1.6
			c-0.3,0.2-0.6,0.5-0.9,0.8c-0.3,0.2-0.7,0.4-1,0.6c-2.8,1.7-6.1,2.9-9.7,3c-3.5,0.1-7.3-1.1-10.2-3.3c-3-2.2-5.2-5.4-6.6-8.9
			c-1.3-3.5-1.6-7.4-0.9-11c0.7-3.7,2.1-7.1,4.4-10.1c2.2-2.8,5.2-4.9,8.4-6.1c0.8-0.3,1.6-0.6,2.4-0.7c0.4-0.1,0.8-0.2,1.2-0.3
			c0.4,0,0.8-0.1,1.2-0.1c0.4,0,0.8-0.1,1.2-0.1c0.4,0,0.8,0,1.2,0c0.4,0,0.8,0,1.2,0.1c0.3,0.1,0.7,0.1,1,0.2
			c0.3,0.1,0.7,0.1,1,0.2c0.2,0,0.1,0,0.1,0c0.1,0,0.2,0.1,0.2,0.1l0.3,0.1l0.5,0.2c0.7,0.2,1.4,0.4,2,0.8c0.6,0.3,1.2,0.5,1.8,0.9
			c0.5,0.4,1,0.7,1.5,1.1c1.8,1.6,3.1,3.2,4,4.7c0.5,0.7,0.8,1.4,1.1,2c0.3,0.6,0.5,1.1,0.6,1.5C106.6,37.4,106.7,37.8,106.8,37.9
			L106.8,37.9z"/>
	</g>
	<path class="st26" d="M102.5,57.3c1-1.3,1.9-2.8,2.6-4.4c-0.4,0.7-1.1,1.6-1.6,2.3c-4.4,5.7-11.7,8.5-18.1,7
		c-6.4-1.5-11.7-7.1-13.1-14.1c-0.3-1.7-0.4-3.4-0.3-5.1c-0.5,2.5-0.7,5-0.2,7.5c1.3,6.8,6.6,12.4,12.8,13.8
		C90.9,65.7,98.2,62.8,102.5,57.3z"/>
	<path class="st25" d="M102,41.3c-1.2,3.8-5.2,5.9-9,4.8c-3.8-1.2-5.9-5.2-4.8-9c1.2-3.8,5.2-5.9,9-4.8
		C101,33.5,103.1,37.5,102,41.3z"/>
	<path class="st0" d="M96.1,36.7c-0.4,1.3-1.7,2-3,1.6c-1.3-0.4-2-1.7-1.6-3c0.4-1.3,1.7-2,3-1.6C95.8,34.2,96.5,35.5,96.1,36.7z"/>
	<g>
		<path class="st0" d="M116.7,36.8c2.4-5.4,7.4-9.4,13-10.3c5.6-0.9,11.7,1.2,15.8,5.6c4.8,5.1,6.7,13,4.8,19.8
			c-1.9,6.7-7.7,11.9-14.2,12.9c-6.5,1-13.6-2.3-17.6-8.1C114.6,50.9,113.9,43,116.7,36.8z"/>
		<path class="st25" d="M116,36.6c0,0,0.2-0.5,0.6-1.2c0.2-0.4,0.4-0.9,0.8-1.4c0.4-0.5,0.7-1.3,1.3-1.9c1-1.3,2.5-2.8,4.4-4.1
			c2-1.3,4.5-2.3,7.5-2.6c0.3,0,0.7-0.1,1-0.1c0.4,0,0.8,0,1.2,0c0.4,0,0.8,0,1.2,0.1c0.4,0.1,0.8,0.1,1.2,0.2
			c0.4,0.1,0.8,0.1,1.2,0.2c0.4,0.1,0.8,0.2,1.2,0.4c0.8,0.2,1.5,0.5,2.3,0.9c3,1.4,5.9,3.6,7.8,6.5c2.1,3,3.3,6.5,3.7,10.2
			c0.4,3.7-0.2,7.5-1.7,10.9c-1.6,3.4-4.2,6.3-7.3,8.2c-3.1,1.9-6.8,2.7-10.3,2.4c-3.5-0.3-6.7-1.7-9.3-3.5l-1-0.7
			c-0.3-0.3-0.6-0.5-0.9-0.8c-0.6-0.5-1.2-1-1.6-1.7c-0.5-0.6-1-1.1-1.4-1.8c-0.4-0.6-0.7-1.2-1.1-1.8c-1.3-2.6-2-5.1-2.3-7.3
			c-0.2-1.1-0.1-2.2-0.2-3.2c0.1-1,0.1-1.9,0.2-2.7c0.2-0.8,0.3-1.5,0.5-2.2c0.1-0.6,0.4-1.1,0.5-1.5C115.9,37,116,36.6,116,36.6z
			 M117.2,37.1c0,0.1-0.2,0.5-0.5,1.2c-0.1,0.4-0.4,0.9-0.5,1.4c-0.1,0.6-0.3,1.3-0.4,2c-0.1,0.8-0.2,1.6-0.2,2.6c0.1,0.9,0,2,0.2,3
			c0.2,2.2,0.9,4.5,2,6.9c0.3,0.6,0.7,1.2,1.1,1.8c0.3,0.5,0.8,1.1,1.3,1.7c0.4,0.6,1,1.1,1.5,1.6c0.3,0.3,0.5,0.5,0.8,0.8l0.9,0.7
			c2.4,1.8,5.5,3.1,8.7,3.4c3.3,0.3,6.8-0.4,9.8-2.2c3-1.8,5.6-4.5,7-7.7c1.6-3.3,1.8-7,1.2-10.4c-0.5-3.4-2.1-6.7-4-9.2
			c-2.1-2.7-4.7-4.4-7.4-5.5c-0.7-0.3-1.3-0.5-2-0.7c-0.3-0.1-0.7-0.2-1-0.3c-0.3,0-0.7-0.1-1-0.1c-0.3,0-0.7-0.1-1-0.1
			c-0.3,0-0.6,0-0.9,0c-0.3,0-0.6,0-0.9,0c-0.3,0-0.7,0.1-1,0.1c-0.3,0-0.7,0.1-1,0.1c0.2,0,0,0,0.1,0c-0.1,0-0.2,0-0.2,0l-0.2,0
			l-0.4,0.1c-0.6,0.1-1.1,0.2-1.7,0.4c-1.1,0.3-2,0.8-3,1.3c-1.8,1-3.3,2.1-4.3,3.2c-0.6,0.5-0.9,1.1-1.3,1.5
			c-0.4,0.4-0.6,0.9-0.9,1.3C117.5,36.7,117.3,37.1,117.2,37.1z"/>
	</g>
	<path class="st25" d="M143.7,37.5c0.9,3.9-1.6,7.7-5.4,8.6c-3.9,0.9-7.7-1.6-8.6-5.4c-0.9-3.9,1.6-7.7,5.4-8.6
		C139,31.1,142.9,33.6,143.7,37.5z"/>
	<path class="st0" d="M136.4,36.4c0.3,1.3-0.5,2.5-1.8,2.8c-1.3,0.3-2.5-0.5-2.8-1.8c-0.3-1.3,0.5-2.5,1.8-2.8
		C134.8,34.3,136.1,35.1,136.4,36.4z"/>
	<path class="st26" d="M119.2,56.3c-0.9-1.4-1.7-2.9-2.2-4.5c0.4,0.7,0.8,1.4,1.2,2.1c3.9,5.8,10.9,9.1,17.4,8.1
		c6.5-1,12.1-6.1,14-12.8c0.5-1.6,0.7-3.2,0.7-4.9c0.3,2.5,0.3,5.3-0.4,7.7c-1.9,6.5-7.5,11.2-13.8,12.1
		C129.7,65.1,123,62,119.2,56.3z"/>
	<g>
		<polygon class="st3" points="115.4,143.7 109.9,136.7 109.9,133.7 115.1,127 122.6,127 115.9,135 123.1,143.7 		"/>
		<path class="st1" d="M120.3,128.1l-5.8,6.9l6.3,7.6h-4.9l-4.9-6.3v-2.2l4.6-6H120.3 M125,125.9h-4.7h-4.7h-1.1l-0.7,0.9l-4.6,6
			l-0.4,0.6v0.7v2.2v0.7l0.5,0.6l4.9,6.3l0.7,0.8h1.1h4.9h4.6l-2.9-3.6l-5.1-6.2l4.6-5.5L125,125.9L125,125.9z"/>
	</g>
	<g>
		<polygon class="st15" points="90.7,143.7 97.4,135.7 90.2,127 98,127 103.4,134 103.4,137 98.3,143.7 		"/>
		<path class="st1" d="M97.4,128.1l4.9,6.3v2.2l-4.6,6H93l5.8-6.9l-6.3-7.6H97.4 M98.5,125.9h-1.1h-4.9h-4.6l2.9,3.6l5.1,6.2
			l-4.6,5.5l-3,3.6H93h4.7h1.1l0.7-0.9l4.6-6l0.4-0.6v-0.7v-2.2v-0.7l-0.5-0.6l-4.9-6.3L98.5,125.9L98.5,125.9z"/>
	</g>
	<g>
		<polygon class="st11" points="106.4,149.3 98.4,156 98.4,148.4 105.1,143.3 108.1,143.3 115.1,148.7 115.1,156.5 		"/>
		<path class="st1" d="M107.7,144.4l6.3,4.9v4.9l-7.6-6.3l-6.9,5.8V149l6-4.6H107.7 M108.5,142.2h-0.7h-2.2h-0.7l-0.6,0.4l-6,4.6
			l-0.9,0.7v1.1v4.7v4.7l3.6-3l5.5-4.6l6.2,5.1l3.6,2.9v-4.6v-4.9v-1.1l-0.8-0.7l-6.3-4.9L108.5,142.2L108.5,142.2z"/>
	</g>
	<g>
		<polygon class="st16" points="105.2,127.5 98.1,122.1 98.1,114.3 106.9,121.5 114.8,114.8 114.8,122.4 108.1,127.5 		"/>
		<path class="st1" d="M99.2,116.6l7.6,6.3l6.9-5.8v4.7l-6,4.6h-2.2l-6.3-4.9V116.6 M97,112v4.6v4.9v1.1l0.8,0.7l6.3,4.9l0.6,0.5
			h0.7h2.2h0.7l0.6-0.4l6-4.6l0.9-0.7v-1.1v-4.7v-4.7l-3.6,3l-5.5,4.6l-6.2-5.1L97,112L97,112z"/>
	</g>
</g>
</svg>
