<?xml version="1.0" encoding="utf-8"?>
<!-- Generator: Adobe Illustrator 27.2.0, SVG Export Plug-In . SVG Version: 6.00 Build 0)  -->
<svg version="1.1" xmlns="http://www.w3.org/2000/svg" xmlns:xlink="http://www.w3.org/1999/xlink" x="0px" y="0px"
	 viewBox="0 0 182.9 189.2" style="enable-background:new 0 0 182.9 189.2;" xml:space="preserve">
<style type="text/css">
	.st0{fill:#FFFFFF;}
	.st1{fill:#15264B;}
	.st2{opacity:0.35;}
	.st3{fill:#274B8B;}
	.st4{fill:#0F3747;}
	.st5{opacity:0.5;}
	.st6{opacity:0.4;}
	.st7{fill:#183E75;}
	.st8{opacity:0.2;}
	.st9{fill:#38276B;}
	.st10{fill:#44AC34;}
	.st11{fill:#00983A;}
	.st12{fill:#FCF8FB;}
	.st13{opacity:0.7;}
	.st14{fill:#94613F;}
	.st15{fill:#FFD100;}
	.st16{fill:#EA5B0C;}
	.st17{fill:#D3D5ED;}
	.st18{fill:#D8D8D8;}
	.st19{fill:#121A28;}
	.st20{fill:#E5E1D4;}
	.st21{opacity:0.25;}
	.st22{opacity:0.6;}
	.st23{fill:#FFD346;}
	.st24{fill:#FFDA36;}
	.st25{fill:#1E1E1C;}
	.st26{fill:#EEEDED;}
	.st27{opacity:0.3;}
	.st28{fill:#407FC1;}
	.st29{fill:#B0B3B1;}
	.st30{opacity:0.8;}
	.st31{fill:#E5E5E4;}
	.st32{fill:#BCBCBB;}
	.st33{fill:#E72D47;}
	.st34{fill:#F7A710;}
	.st35{fill:#F2EFEC;}
	.st36{fill:#F9B116;}
	.st37{fill:#F38F1C;}
	.st38{fill:none;stroke:#2A3856;stroke-width:2.1963;stroke-linecap:round;stroke-miterlimit:10;}
	.st39{fill:#D66C12;}
	.st40{fill:#FFD767;}
	.st41{fill:#F7A83D;}
	.st42{fill:#FECF70;}
	.st43{fill:#FFED91;}
	.st44{opacity:0.41;}
	.st45{opacity:0.26;}
	.st46{fill:none;}
	.st47{fill:#261E26;}
	.st48{fill:#E30613;}
	.st49{fill:#E9E8E8;}
	.st50{fill:#4A92CF;}
	.st51{fill:#386EB5;}
	.st52{fill:#B6B6B7;}
	.st53{fill:#DDDDDD;}
	.st54{fill:#FDC423;}
	.st55{fill:#E2A415;}
	.st56{fill:#F9B044;}
	.st57{fill:#EB5759;}
	.st58{fill:#E5201F;}
	.st59{fill:none;stroke:#FFFFFF;stroke-width:2.3076;stroke-linecap:round;stroke-miterlimit:10;}
	.st60{fill:#EDC5D6;}
	.st61{fill:#4A153F;}
	.st62{fill:#E9C8D2;}
	.st63{fill:#DFB0BE;}
	.st64{fill:#D6D6EA;}
	.st65{fill:#BDBDE0;}
	.st66{fill:#232323;}
	.st67{fill:#A7ABCC;}
	.st68{fill:#EDCCA9;}
	.st69{fill:#492311;}
	.st70{fill:#2A3856;}
	.st71{fill:#05646E;}
	.st72{fill:#F28D70;}
	.st73{fill:#BEC5CA;}
	.st74{fill:#54767A;}
</style>
<g id="Fondo">
</g>
<g id="Grafica">
</g>
<g id="Informazioni">
	<g>
		<g>
			<g>
				<g>
					<path class="st0" d="M134.3,70.1c0,0,17.7-3.5,20.2-1.2c2.6,2.3,20.5,42.5,20.5,42.5s-12.8-2-15.2-2.9
						c-2.4-1-33.4-22.2-33.4-22.2"/>
				</g>
			</g>
			<g>
				<g>
					<path class="st1" d="M177.6,113.3l-2.7-0.4c-1.3-0.2-13-2-15.5-3c-2.5-1-28.5-18.8-33.7-22.4c-0.7-0.5-0.9-1.4-0.4-2.1
						c0.5-0.7,1.4-0.9,2.1-0.4c11.9,8.1,31.4,21.3,33.1,22.1c1.4,0.6,7.3,1.6,12.1,2.4c-6.9-15.3-17.2-37.6-19-39.5
						c-0.2-0.1-1.7-0.9-10.1,0.1c-4.6,0.6-8.8,1.4-8.9,1.4c-0.8,0.2-1.6-0.4-1.8-1.2c-0.2-0.8,0.4-1.6,1.2-1.8c0,0,4.5-0.9,9.3-1.5
						c9-1.1,11.2-0.3,12.3,0.6c0.5,0.5,1.8,1.6,11.6,22.6c4.8,10.2,9.3,20.3,9.3,20.4L177.6,113.3z"/>
				</g>
			</g>
			<g>
				<g>
					<g>
						<path class="st0" d="M178,124.3c-0.1,0.4-0.1,0.7-0.2,1.1c0,0-15,15.5-15.5,16.6c-0.4,1.1-18.3,13.6-20.7,13
							c-2.4-0.6-32.3-6.2-34-5.9s-12.5-6-12.5-6l-3.4-8.9c-4.2,12.5-27.1,19.7-32.6,7.8c-5.5-11.9,1.1-36.3,1.1-36.3
							s-3.4-3.8-8.4-10.4s-2.3-7.6-2.3-7.6s-3.4-3-6.7-9.9c-3.4-7,5.8-6.3,5.8-6.3l76.1,12.8c0,0,4.3-0.5,9.8-0.7
							c4.1-0.2,8.9-0.2,12.9,0.3c0.9,0.1,1.7,0.2,2.5,0.4c1,0.2,2.1,0.6,3.2,1c8.5,3.7,18.7,14.9,23.6,24.1
							C178.8,113.4,178.8,118.9,178,124.3z"/>
					</g>
				</g>
			</g>
			<g>
				<g>
					<path class="st1" d="M70.1,149.5c-5.8,0-10.2-2.5-12.3-6.9c-5.2-11.2-0.3-32.1,0.8-36.5c-1.2-1.3-4.1-4.7-8-9.9
						c-2.7-3.6-3.7-6.2-3.2-8.1c0-0.1,0.1-0.2,0.1-0.3c-1.3-1.4-3.7-4.5-6.1-9.4c-1.1-2.4-1.2-4.4-0.1-5.9c1.9-2.8,6.8-2.6,7.4-2.5
						c0.8,0.1,1.4,0.8,1.4,1.6c-0.1,0.8-0.8,1.4-1.6,1.4c-1.2-0.1-3.9,0.1-4.7,1.2c-0.5,0.7-0.1,2,0.4,2.9c3.2,6.5,6.3,9.4,6.3,9.5
						c0.4,0.4,0.6,0.9,0.5,1.4c-0.1,0.4-0.3,0.8-0.7,1c0,0.3-0.1,1.7,2.7,5.4c4.9,6.5,8.3,10.2,8.3,10.3c0.3,0.4,0.5,0.9,0.3,1.4
						c-0.1,0.2-6.3,24-1.1,35.2c2.2,4.9,7.5,5.3,10.5,5.2c7.3-0.4,16.8-5.4,19.3-12.8c0.3-0.8,1.1-1.2,1.9-0.9
						c0.8,0.3,1.2,1.1,0.9,1.9c-2.9,8.7-13.5,14.4-22,14.9C70.9,149.5,70.5,149.5,70.1,149.5z M50.1,89.2
						C50.1,89.2,50.1,89.2,50.1,89.2C50.1,89.2,50.1,89.2,50.1,89.2z M50.1,89.2C50.1,89.2,50.1,89.2,50.1,89.2
						C50.1,89.2,50.1,89.2,50.1,89.2z"/>
				</g>
			</g>
			<g>
				<g>
					<path class="st1" d="M177.9,126.7c-0.1,0-0.1,0-0.2,0c-0.7-0.1-1.2-0.8-1.1-1.5c1.1-6.6,0.8-11.7-1-15
						c-5.4-10.2-17.4-22.8-26-24.5c-8.6-1.7-24.6,0-24.7,0c-0.7,0.1-1.4-0.4-1.4-1.2c-0.1-0.7,0.4-1.4,1.2-1.4
						c0.7-0.1,16.5-1.8,25.5,0c9.4,1.9,21.9,14.9,27.8,25.8c2,3.8,2.5,9.4,1.3,16.6C179.1,126.2,178.5,126.7,177.9,126.7z"/>
				</g>
			</g>
			<g>
				<g>
					<path class="st1" d="M153.4,121.4c-0.9-1.3-1.8-2.7-2.7-4.1c-0.9-1.4-1.7-2.8-2.6-4.1c-0.2-0.3-0.5-0.7-0.7-1
						c-0.2-0.3-0.5-0.7-0.7-1c-0.2-0.3-0.5-0.7-0.7-1l-0.8-1c-1.1-1.3-2.2-2.4-3.5-3.5c1.5,0.7,3,1.6,4.3,2.6
						c1.3,1.1,2.6,2.2,3.8,3.5l0.9,0.9l0.8,1c0.3,0.3,0.5,0.7,0.8,1c0.3,0.3,0.5,0.7,0.8,1c0.5,0.7,1,1.4,1.4,2.1
						c0.4,0.7,0.9,1.5,1.2,2.3c0.3,0.7,0,1.4-0.7,1.7C154.5,122.1,153.8,121.9,153.4,121.4L153.4,121.4z"/>
				</g>
			</g>
			<g>
				<g>
					<path class="st1" d="M86.2,101.6c0.2,1.3,0.2,2.6,0.3,3.9c0,1.3,0.1,2.6,0,3.9c-0.1,2.6-0.2,5.2-0.5,7.8
						c-0.2,1.3-0.3,2.6-0.6,3.9c-0.2,1.3-0.5,2.6-0.8,3.9c-0.6,2.6-1.4,5.1-2.5,7.5c0.4-2.6,0.7-5.1,1-7.7c0.2-2.6,0.3-5.1,0.4-7.7
						c0.1-2.6,0.1-5.1,0.1-7.7c0-2.6,0-5.1,0-7.7l0,0c0-0.7,0.6-1.3,1.3-1.3C85.6,100.5,86.1,101,86.2,101.6z"/>
				</g>
			</g>
			<g>
				<g>
					<path class="st1" d="M61.5,104.7c0,0,0,0.1,0.1,0.1c0,0.1,0.1,0.1,0.1,0.2c0.1,0.1,0.1,0.2,0.2,0.3c0.2,0.2,0.3,0.5,0.5,0.7
						c0.4,0.5,0.7,0.9,1.2,1.3c0.4,0.4,0.9,0.8,1.3,1.2c0.5,0.4,0.9,0.8,1.4,1.2c-0.6-0.1-1.2-0.3-1.8-0.5c-0.6-0.2-1.2-0.4-1.8-0.6
						c-0.6-0.2-1.2-0.5-1.8-0.8c-0.3-0.2-0.6-0.3-0.9-0.5c-0.1-0.1-0.3-0.2-0.4-0.3c-0.1-0.1-0.1-0.1-0.2-0.2
						c-0.1-0.1-0.1-0.1-0.2-0.2L61.5,104.7z"/>
				</g>
			</g>
			<g>
				<g>
					<path class="st1" d="M58.5,91.3c-0.3,0-0.6-0.1-0.8-0.3c-4.5-3.6-7.4-2.2-7.5-2.1c-0.6,0.3-1.4,0.1-1.8-0.5
						c-0.3-0.6-0.1-1.4,0.5-1.8c0.2-0.1,4.4-2.4,10.4,2.4c0.6,0.5,0.7,1.3,0.2,1.8C59.2,91.2,58.9,91.3,58.5,91.3z"/>
				</g>
			</g>
			<g>
				<g>
					<path class="st1" d="M94.9,144.5c-0.6-2.2-4.8-17.1-5.4-19.2c-0.6-2.2-1.1-4.3-1.6-6.5c0.9,2,1.9,4,2.8,6
						c1,2,5.8,16.5,6.8,18.4L94.9,144.5z"/>
				</g>
			</g>
			<g>
				<g>
					<path class="st1" d="M77.3,128.9c-10.3,0-20-3.4-20.5-3.5l0.8-2.2c0.1,0,14,4.8,25.6,3l0.4,2.3
						C81.5,128.7,79.4,128.9,77.3,128.9z"/>
				</g>
			</g>
			<g>
				<g>
					<path class="st1" d="M155.6,70c-0.8,0.6-1.7,1.3-2.5,1.9c-0.8,0.7-1.6,1.4-2.4,2.1c-0.8,0.7-1.6,1.4-2.3,2.1
						c-0.8,0.7-1.5,1.5-2.3,2.2c0.5-0.9,1.1-1.8,1.7-2.7c0.6-0.9,1.2-1.8,1.8-2.7c0.6-0.9,1.3-1.8,1.9-2.6c0.7-0.9,1.3-1.7,2-2.6
						c0.5-0.6,1.5-0.7,2.1-0.2c0.6,0.5,0.7,1.5,0.2,2.1C155.8,69.8,155.7,69.9,155.6,70L155.6,70z"/>
				</g>
			</g>
			<g class="st21">
				<g>
					<path class="st3" d="M72.6,99.4c0,0,7.8,6.5,2.2,12c0,0,5.2,22.1-4.5,27.5l14.6,4.1l2-3.3l6.2-8.9l-2.8-5.4
						c0,0-8.4,13.5-5.8-5.8l-0.2-15.1l-8.1-2.4"/>
				</g>
			</g>
			<g class="st21">
				<g>
					<path class="st3" d="M177.4,124.3l-6.3-3.1c0-18.3-19.5-32.6-31-32.5c-5.1,10.3-30.1,20.2-47.6,16.5
						c16.9,0.1,30.3-5.8,40.3-21.7l6.1,0.3c0,0,3.7-0.7,8,0.3c1.8,0.4,3.7,0.9,5.7,1.4c8.5,3.7,18.7,14.9,23.6,24.1
						C178.2,113.4,178.2,118.9,177.4,124.3z"/>
				</g>
			</g>
			<g class="st21">
				<g>
					<path class="st3" d="M84.3,121.2c1.7-8.9,6-15.8,18.6-16.1l-17.1-0.5l-1.5,2.4"/>
				</g>
			</g>
			<g class="st21">
				<g>
					<path class="st3" d="M147,68.1c0,0,6.7,0.7,2,6.7l3.5-3.4c0,0,7.2,9.7,0,13.1l15.4,11l-12.5-26.1l-5-0.5"/>
				</g>
			</g>
			<g class="st27">
				<g>
					<path class="st3" d="M138.4,83.1c0,0,6.1-7.3,6.3-14.2l-4.7,1.2l-5.6,13"/>
				</g>
			</g>
			<g>
				<g>
					<g>
						<path class="st1" d="M105.6,159.8c-4.1,0-7.1-2.1-7.5-5.1c-2.5-0.4-4-0.9-4.5-1.6c-0.2-0.3-0.3-0.6-0.2-0.9
							c0.3-1.5,3.9-2.5,6.9-3c1.8-1.8,4.3-3.1,7-3.6c0.5-0.1,1-0.1,1.6-0.2c0.2,0,0.3,0,0.5,0c3,0,5.6,1.2,6.8,3.1
							c2.2,0.2,4.8,0.7,5.6,1.8c0.2,0.3,0.3,0.6,0.2,0.9c-0.2,1.1-2.2,2-5.7,2.8c-1.6,3.2-5.8,5.7-10.1,5.8
							C105.9,159.8,105.7,159.8,105.6,159.8C105.6,159.8,105.6,159.8,105.6,159.8z"/>
					</g>
				</g>
				<g>
					<g>
						<path class="st1" d="M109.3,145.8c3,0,5.5,1.2,6.6,3.1c3.8,0.4,5.9,1.2,5.7,2.3c-0.3,1.3-3.6,2.2-5.6,2.6
							c-1.5,3.2-5.7,5.6-9.9,5.8c-0.2,0-0.3,0-0.5,0c-4,0-7-2.1-7.2-5.1c-1.9-0.3-4.9-0.9-4.7-2.2c0.2-1.1,2.7-2.1,6.7-2.8
							c1.7-1.8,4.3-3.1,6.9-3.5c0.5-0.1,1-0.1,1.5-0.2C109,145.8,109.2,145.8,109.3,145.8 M109.3,145.1c-0.2,0-0.3,0-0.5,0
							c-0.5,0-1.1,0.1-1.6,0.2c-2.8,0.5-5.4,1.8-7.2,3.6c-4.4,0.8-6.7,1.9-7,3.2c-0.1,0.4,0,0.8,0.2,1.1c0.2,0.3,0.8,1.2,4.5,1.7
							c0.5,3.1,3.6,5.2,7.8,5.2c0.2,0,0.3,0,0.5,0c4.4-0.2,8.6-2.6,10.3-5.9c5.4-1.2,5.7-2.5,5.8-3c0.1-0.4,0-0.8-0.3-1.1
							c-0.7-0.9-2.6-1.5-5.7-1.9C115,146.3,112.4,145.1,109.3,145.1L109.3,145.1z"/>
					</g>
				</g>
			</g>
			<g>
				<g>
					<polygon class="st3" points="123,125 122.3,122.3 125.3,115.2 132,113.5 127.9,122.1 136.3,128.1 129.4,129.9 					"/>
					<path class="st1" d="M130.1,115l-3.5,7.4l7.3,5.3l-4.3,1.1l-5.8-4.4l-0.5-2l2.6-6.3L130.1,115 M133.8,112l-4.1,1.1l-4.1,1.1
						l-1,0.3l-0.4,0.9l-2.6,6.3l-0.3,0.6l0.2,0.7l0.5,2l0.2,0.7l0.5,0.4l5.8,4.4l0.8,0.6l0.9-0.2l4.3-1.1l4.1-1.1l-3.4-2.5l-6-4.3
						l2.8-5.9L133.8,112L133.8,112z"/>
				</g>
				<g>
					<polygon class="st15" points="111.7,127 103.4,121 110.2,119.2 116.6,124.1 117.3,126.8 114.3,133.9 107.7,135.6 					"/>
					<path class="st1" d="M110,120.3l5.8,4.4l0.5,2l-2.6,6.3l-4.1,1.1l3.5-7.4l-7.3-5.3L110,120.3 M110.4,118.1l-0.9,0.2l-4.3,1.1
						l-4.1,1.1l3.4,2.5l6,4.3l-2.8,5.9l-1.8,3.9l4.1-1.1l4.1-1.1l1-0.3l0.4-0.9l2.6-6.3l0.3-0.6l-0.2-0.7l-0.5-2l-0.2-0.7l-0.5-0.4
						l-5.8-4.4L110.4,118.1L110.4,118.1z"/>
				</g>
				<g>
					<polygon class="st11" points="115.6,138 120.3,131.9 122.9,131.2 130.4,134.4 132.2,141.2 122.8,136.9 117.3,144.6 					"/>
					<path class="st1" d="M122.8,132.3l6.7,2.8l1.1,4.3l-8.2-3.8l-4.7,6.7l-1.1-4.1l4.2-5.4L122.8,132.3 M123,130.2l-0.7,0.2l-2,0.5
						l-0.7,0.2l-0.4,0.5l-4.2,5.4l-0.6,0.8l0.3,1l1.1,4.1l1.1,4.1l2.5-3.5l3.8-5.3l6.7,3.1l3.8,1.8l-1.1-4.1l-1.1-4.3l-0.2-0.9
						l-0.9-0.4l-6.7-2.8L123,130.2L123,130.2z"/>
				</g>
				<g>
					<polygon class="st16" points="109.2,114.8 107.4,107.9 116.8,112.3 122.3,104.5 124,111.2 119.3,117.3 116.6,117.9 					"/>
					<path class="st1" d="M121.8,106.8l1.1,4.1l-4.2,5.4l-2,0.5l-6.7-2.8l-1.1-4.3l8.2,3.8L121.8,106.8 M122.7,102.2l-2.5,3.5
						l-3.8,5.3l-6.7-3.1l-3.8-1.8l1.1,4.1l1.1,4.3l0.2,0.9l0.9,0.4l6.7,2.8l0.6,0.3l0.7-0.2l2-0.5l0.7-0.2l0.4-0.5l4.2-5.4l0.6-0.8
						l-0.3-1l-1.1-4.1L122.7,102.2L122.7,102.2z"/>
				</g>
			</g>
			<g>
				<g>
					<g>
						<polyline class="st34" points="10.3,171 26.3,160.8 95.1,166.8 113.1,175 108.7,177.7 67.6,172.7 53.3,171.1 						"/>
					</g>
				</g>
				<g>
					<g>
						<path class="st35" d="M60.3,172.5v-6.3l29.6-19.9c0,0,24.5-14.2,54.5-4.4l9,2.3v4.8l-32.2,31.4c-23.9-8.7-45.7-13.4-56.1-7.4"
							/>
					</g>
				</g>
				<g>
					<g>
						<path class="st35" d="M89.9,146.3c0,0-14.6-12-39.5-4.4l-40.1,22.7v6.3c0,0,10.1-5.8,21.6-5.9c11.4-0.1,25.7,7,25.7,7"/>
					</g>
				</g>
				<g>
					<g>
						<polygon class="st34" points="117.8,179.2 66.7,173.2 57,172.1 4.3,170.9 4.3,176 55.4,176.9 65.6,178.2 123.1,184.6 
							156.7,151 153.4,149.1 122.8,178.9 						"/>
					</g>
				</g>
				<g>
					<g>
						<path class="st1" d="M123.1,185.9c0,0-0.1,0-0.1,0l-57.5-6.4l-10.2-1.3l-51-0.9c-0.7,0-1.3-0.6-1.3-1.3v-5.1
							c0-0.4,0.1-0.7,0.4-0.9c0.3-0.2,0.6-0.4,0.9-0.4l52.7,1.2c0,0,0.1,0,0.1,0l9.6,1.2l51.1,6c0.7,0.1,1.2,0.7,1.1,1.5
							c-0.1,0.7-0.7,1.2-1.5,1.1l-51.1-6l-9.6-1.2l-51.3-1.2v2.5l49.8,0.8c0,0,0.1,0,0.1,0l10.2,1.3l56.8,6.4l33.1-33.1
							c0.5-0.5,1.3-0.5,1.8,0c0.5,0.5,0.5,1.3,0,1.8l-33.6,33.6C123.8,185.8,123.5,185.9,123.1,185.9z"/>
					</g>
				</g>
				<g>
					<g>
						<path class="st1" d="M121.2,181.8c-0.2,0-0.3,0-0.4-0.1c-27.2-9.9-46.2-12.5-55-7.5c-0.6,0.4-1.4,0.1-1.8-0.5
							c-0.4-0.6-0.1-1.4,0.5-1.8c9.5-5.5,28.5-3.1,56.5,7l31.2-30.4v-3.2l-8.1-2c0,0-0.1,0-0.1,0c-15.2-5-28.9-3.6-37.7-1.5
							c-9.2,2.2-15.2,5.5-15.7,5.8l-29,19.4v5.6c0,0.7-0.6,1.3-1.3,1.3s-1.3-0.6-1.3-1.3v-6.3c0-0.4,0.2-0.8,0.6-1.1l29.6-19.9
							c0,0,0,0,0.1,0c0.3-0.1,6.4-3.7,16.3-6c9.2-2.2,23.4-3.6,39.1,1.5l9,2.3c0.6,0.1,1,0.7,1,1.3v4.8c0,0.4-0.1,0.7-0.4,0.9
							l-32.2,31.4C121.9,181.6,121.6,181.8,121.2,181.8z"/>
					</g>
				</g>
				<g>
					<g>
						<path class="st1" d="M121.2,181.6c-0.6,0-1.1-0.4-1.1-1l-1.1-7.9c-0.1-0.6,0.3-1.2,1-1.3c0.6-0.1,1.2,0.3,1.3,1l1.1,7.9
							c0.1,0.6-0.3,1.2-1,1.3C121.3,181.6,121.3,181.6,121.2,181.6z"/>
					</g>
				</g>
				<g>
					<g>
						<path class="st1" d="M57.6,173.4c-0.2,0-0.4,0-0.6-0.1c-0.1-0.1-14.1-7-25.1-6.9c-11,0.1-20.8,5.7-20.9,5.7
							c-0.4,0.2-0.9,0.2-1.3,0C9.2,171.9,9,171.5,9,171v-6.3c0-0.5,0.3-0.9,0.7-1.1l40.1-22.7c0.1,0,0.2-0.1,0.3-0.1
							c13.2-4,23.5-2.6,29.8-0.7c6.9,2.1,10.7,5.2,10.9,5.3c0.6,0.5,0.6,1.3,0.2,1.8c-0.5,0.6-1.3,0.6-1.8,0.2
							c-0.1-0.1-3.6-2.9-10.1-4.9c-6-1.8-15.6-3.1-28,0.7l-39.3,22.2v3.4c3.6-1.7,11.5-5,20.3-5.1c0.1,0,0.2,0,0.3,0
							c11.6,0,25.4,6.9,26,7.2c0.6,0.3,0.9,1.1,0.6,1.8C58.5,173.2,58,173.4,57.6,173.4z"/>
					</g>
				</g>
				<g>
					<g>
						<path class="st1" d="M120.5,174c-0.2,0-0.4,0-0.6-0.1c-9.7-4.9-21.3-8.3-32.5-9.5c-10.9-1.2-20.6-0.1-26.5,2.9
							c-0.4,0.2-0.9,0.2-1.3,0c-13-7.6-25.5-7.7-33.7-6.3c-9,1.4-14.9,4.8-15,4.8c-0.6,0.4-1.4,0.1-1.8-0.5
							c-0.4-0.6-0.1-1.4,0.5-1.8c0.3-0.1,6.3-3.5,15.7-5.1c8.5-1.4,21.5-1.4,34.9,6.3c13.3-6.3,39.7-3.5,59.9,6.4l29.3-28.5
							c0.5-0.5,1.3-0.5,1.8,0c0.5,0.5,0.5,1.3,0,1.8l-30,29.2C121.1,173.9,120.8,174,120.5,174z"/>
					</g>
				</g>
				<g>
					<g>
						<path class="st1" d="M55.5,177.7c-0.6,0-1.1-0.5-1.1-1.1v-4.5c0-0.6,0.5-1.1,1.1-1.1s1.1,0.5,1.1,1.1v4.5
							C56.7,177.2,56.1,177.7,55.5,177.7z"/>
					</g>
				</g>
				<g>
					<g>
						<path class="st1" d="M66.7,178.8c-0.6,0-1.1-0.5-1.1-1.1v-4.1c0-0.6,0.5-1.1,1.1-1.1c0.6,0,1.1,0.5,1.1,1.1v4.1
							C67.9,178.3,67.4,178.8,66.7,178.8z"/>
					</g>
				</g>
				<g>
					<g>
						<path class="st0" d="M174.3,148.9c0.7,4.7-1.8,11.4-8.7,8.5c-6.9-2.9-10.3-7.7-11.9-10.4s-3.7-1.3-7.1-1.6
							c-3.4-0.2-6-1.1-3.9-4.7c0.6-1.1,1.7-2.1,2.9-3c2.7-2,5.9-3.4,5.9-3.4c1.2-4.7,3.2-13.6,3.2-13.6s8.9-3,17.1,0.4
							c2.2,0.9,4.3,2.2,6.2,4.2c-1.5,8.8-4.9,17-4.9,17S173.7,144.2,174.3,148.9z"/>
					</g>
				</g>
				<g>
					<g>
						<path class="st1" d="M168.7,159.4c-1,0-2.2-0.2-3.6-0.8c-7.8-3.3-11.3-9-12.5-10.9c-0.7-1.2-1.3-1.2-3.2-1
							c-0.8,0.1-1.8,0.1-2.9,0.1c-2-0.1-4.5-0.5-5.5-2.3c-0.6-1.2-0.5-2.7,0.5-4.4c1.9-3.3,7-5.9,8.8-6.7c1.2-4.7,3-12.8,3-12.9
							c0.1-0.5,0.4-0.8,0.9-1c0.6-0.2,15.1-4.9,24.7,5c0.3,0.3,0.4,0.7,0.4,1.1c-1.3,7.8-4.1,15-4.8,16.8c0.2,0.8,0.7,2.8,1.2,6.3
							c0.4,3.1-0.4,7.4-3.1,9.5C171.6,158.8,170.4,159.4,168.7,159.4z M150.6,144c1.5,0,3,0.4,4.2,2.3c1.9,3,5.1,7.2,11.3,9.9
							c2,0.8,3.6,0.8,4.7-0.1c1.8-1.4,2.5-4.6,2.1-7c-0.6-4.4-1.2-6.3-1.2-6.3c-0.1-0.3-0.1-0.6,0-0.9c0-0.1,3.2-7.7,4.7-16
							c-7.3-7-18-4.8-20.8-4c-0.5,2.3-2,9-3,12.9c-0.1,0.4-0.4,0.7-0.8,0.9c-1.8,0.7-6.6,3.2-8.1,5.8c-0.5,0.8-0.7,1.5-0.5,1.9
							c0.1,0.2,0.6,0.8,3.4,0.9c0.9,0.1,1.7,0,2.5-0.1C149.6,144,150.1,144,150.6,144z"/>
					</g>
				</g>
				<g>
					<g>
						<polygon class="st1" points="171.7,142.7 170.7,138.5 173.9,141.3 						"/>
					</g>
				</g>
				<g>
					<g>
						<path class="st1" d="M4.3,172.2c-0.5,0-0.9-0.2-1.1-0.7c-0.4-0.6-0.2-1.4,0.5-1.8l6-3.5c0.6-0.4,1.4-0.2,1.8,0.5
							c0.4,0.6,0.2,1.4-0.5,1.8l-6,3.5C4.7,172.1,4.5,172.2,4.3,172.2z"/>
					</g>
				</g>
				<g class="st21">
					<g>
						<path class="st3" d="M174.3,148.9c0.7,4.7-1.8,11.4-8.7,8.5c-6.9-2.9-10.3-7.7-11.9-10.4s-3.7-1.3-7.1-1.6
							c-3.4-0.2-6-1.1-3.9-4.7c0.6-1.1,1.7-2.1,2.9-3c0,0.4-0.2,0.7-0.3,1.1c-2.4,5.3,7.5,2.5,11.5,6.2c4,3.7,11.1,8.9,12.3,4
							c1.2-4.9-1.4-12.9-1.4-12.9l4.2-15c2.2,0.9,4.3,2.2,6.2,4.2c-1.5,8.8-4.9,17-4.9,17S173.7,144.2,174.3,148.9z"/>
					</g>
				</g>
				<g class="st21">
					<g>
						<path class="st3" d="M77.7,140.8c-3.4,13.3-21,17.7-46.1,17.3l9.2,1.3l18.8,5.9c0,0,2.8,0,2.7-0.5c0-0.6,26.5-18.4,26.5-18.4
							l-1.6-1.8"/>
					</g>
				</g>
				<g class="st21">
					<g>
						<path class="st3" d="M38.4,159.1c0,0-9,1.8-21.5,8.7l-2.8,2.1l37.9,2.1l7.3-1.1v-5.3l-13.9-4.8"/>
					</g>
				</g>
				<g class="st21">
					<g>
						<path class="st3" d="M102.9,142c-19.1,9.7-28,17.2-16,20.5c0,0-22.9,1.4-22.6,1.3s25.9-17.6,25.9-17.6l3.7-1.8"/>
					</g>
				</g>
				<g class="st21">
					<g>
						<path class="st3" d="M130.5,138.9c22.3,7-3.9,30.3-43.6,23.5c0,0,24,3,32,9.5l0.8,0.4l1.6,6.7l31.4-29.2v-2l-0.3-2.1
							c0,0-3.6-0.1-4.3,0.1s-3.7,0.6-4.1,0.5s-1.7-2.7-1.7-2.7l-0.3-2.3l-5.5-1.6"/>
					</g>
				</g>
				<g class="st21">
					<g>
						<path class="st3" d="M105.6,166.8c-0.9,8.1-35.3,4.5-34.5-3.7l-10.3,3.3v4.9l1.6,0.7l50.1,7.2l8.2,0.9l-1.9-7.7l-9.2-4"/>
					</g>
				</g>
				<g class="st21">
					<g>
						<polyline class="st1" points="119.8,180.9 120.4,183.8 123.4,183.8 155.7,152.1 154,149.1 122.4,179.8 121.2,180.3 						"/>
					</g>
				</g>
			</g>
			<g>
				<g>
					<g>
						<g>
							<path class="st36" d="M98.7,153c0.1-0.3,0.1-0.6,0.2-0.8c1.8-0.4,5.1-0.8,8.8-0.9c3.7-0.1,6.8,0,8.5,0.2c0,0.3,0,0.5-0.1,0.8
								c0,0,0,0,0,0c0,0.1-0.1,0.2-0.1,0.4c-0.1,0.3-0.2,0.6-0.3,0.8c0,0,0,0,0,0c-0.2,0.4-0.4,0.8-0.7,1.2c-0.5,0.7-1.2,1.4-2,2
								c-1.9,1.4-4.4,2.4-7,2.5c-2.6,0.1-4.7-0.7-6-2c-0.5-0.5-0.9-1.2-1.2-1.8c-0.1-0.4-0.2-0.8-0.2-1.2c0,0,0-0.1,0-0.1
								c0-0.3,0-0.5,0-0.8C98.7,153.3,98.7,153.2,98.7,153C98.7,153,98.7,153,98.7,153z"/>
						</g>
					</g>
				</g>
				<g>
					<g>
						<g>
							<path class="st37" d="M100.5,149.7c0.2-0.2,0.5-0.5,0.7-0.7c0.4-0.3,0.7-0.6,1.2-0.9c1.8-1.2,4.1-2,6.4-2.1
								c2.3-0.1,4.3,0.5,5.6,1.6c0.3,0.2,0.6,0.5,0.8,0.8c0.2,0.2,0.3,0.4,0.5,0.7c-2.1-0.2-4.7-0.3-7.5-0.2
								C105.4,149,102.8,149.3,100.5,149.7z"/>
						</g>
					</g>
				</g>
				<g>
					<g>
						<g>
							<path class="st37" d="M99,152.1c1.8-0.4,5.1-0.8,8.8-0.9s6.8,0,8.5,0.2c0,0.3,0,0.5-0.1,0.8c0,0,0,0,0,0
								c0,0.1-0.1,0.2-0.1,0.4c-0.1,0.3-0.2,0.6-0.3,0.8c0,0,0,0,0,0c-0.2,0.4-0.4,0.8-0.7,1.2c-0.5,0.7-1.2,1.4-2,2
								c-1.5,1.2-3.5,2-5.5,2.4c0.8-0.4,1.5-0.8,2.1-1.3c0.8-0.6,1.4-1.3,2-2c0.3-0.4,0.5-0.8,0.7-1.2c0,0,0,0,0,0c0,0,0,0,0-0.1
								c0.5-1.2-0.6-2.1-1.9-2.4c-2.7-0.6-10,0-11.6,0.2C98.8,152.1,98.9,152.3,99,152.1z"/>
						</g>
					</g>
				</g>
				<g>
					<g>
						<g>
							<path class="st39" d="M108.2,148.9c-2.8,0.1-5.5,0.4-7.7,0.8c0.2-0.2,0.5-0.5,0.7-0.7c1.7-0.3,4.3-0.6,7.2-0.7
								c2.7-0.1,5.2-0.1,6.8,0.1c0.2,0.2,0.3,0.4,0.5,0.7C113.6,148.8,111,148.8,108.2,148.9z"/>
						</g>
					</g>
				</g>
				<g>
					<g>
						<g>
							<path class="st39" d="M98.7,153.1C98.7,153,98.7,153,98.7,153.1c0.1-0.4,0.2-0.6,0.3-0.9c1.8-0.4,5.1-0.8,8.8-0.9
								c3.7-0.1,6.8,0,8.5,0.2c0,0.3,0,0.5-0.1,0.8c0,0,0,0,0,0c-1.5-0.3-4.7-0.5-8.5-0.3C103.8,152.1,100.4,152.6,98.7,153.1z"/>
						</g>
					</g>
				</g>
				<g>
					<g>
						<g>
							<g>
								<path class="st39" d="M115.2,154.5l-0.4,0.4c-1-0.4-4.2-0.5-7.7-0.4c-4.3,0.2-7.3,0.7-8.2,1.1l-0.3-0.4
									c1.1-0.5,4.5-1,8.5-1.2C111,154,114.2,154.1,115.2,154.5z"/>
							</g>
						</g>
					</g>
				</g>
				<g>
					<g>
						<g>
							<g>
								<path class="st39" d="M113.2,156.5L113,157c-1.2-0.2-3.6-0.3-6.3-0.2c-2.8,0.1-5.3,0.4-6.6,0.8l-0.1-0.4
									c1.4-0.4,4-0.7,6.8-0.8C109.5,156.2,111.9,156.3,113.2,156.5z"/>
							</g>
						</g>
					</g>
				</g>
				<g>
					<g>
						<g>
							<g>
								<path class="st39" d="M115.9,153.3l-0.3,0.4c-1.2-0.4-4.4-0.5-8.2-0.4c-3.9,0.2-7.5,0.6-8.6,1.1l-0.2-0.4
									c1.3-0.5,4.9-1,9-1.2C111.4,152.8,114.7,152.9,115.9,153.3z"/>
							</g>
						</g>
					</g>
				</g>
				<g>
					<g>
						<g>
							<g>
								<path class="st39" d="M114.5,147.5l-0.1,0.1l0,0.1l0,0l0,0c-1-0.3-3.4-0.4-5.9-0.3c-2.5,0.1-4.9,0.4-6.1,0.7l-0.1-0.2
									c1.2-0.4,3.6-0.7,6.2-0.8C111.1,147.1,113.4,147.2,114.5,147.5z"/>
							</g>
						</g>
					</g>
				</g>
				<g>
					<g>
						<g>
							<path class="st1" d="M107.3,145.9c0.5-0.1,1-0.1,1.5-0.2c3.2-0.1,6,1.1,7.1,3.2l0.2,0.4l-0.6-0.1c-2.2-0.2-4.7-0.3-7.4-0.2
								c-2.7,0.1-5.3,0.4-7.6,0.8l-0.6,0.1l0.4-0.4C102,147.7,104.6,146.4,107.3,145.9z M115.2,148.8c-1.2-1.7-3.6-2.7-6.4-2.6
								c-2.8,0.1-5.7,1.3-7.6,3.1c2.2-0.3,4.6-0.6,7.1-0.7C110.7,148.6,113.1,148.6,115.2,148.8z"/>
						</g>
					</g>
				</g>
				<g>
					<g>
						<g>
							<path class="st40" d="M94,152.2c0.2-1,2.8-1.9,6.6-2.6c2.2-0.4,4.9-0.7,7.7-0.8c2.8-0.1,5.4,0,7.5,0.2
								c3.6,0.4,5.8,1.1,5.6,2.1c-0.2,0.9-2.3,1.8-5.5,2.4c0.1-0.3,0.2-0.6,0.3-0.8c0.9-0.2,1.5-0.4,1.5-0.7c0-0.2-0.4-0.4-1.3-0.6
								c-1.7-0.3-4.9-0.4-8.5-0.2c-3.7,0.1-6.9,0.5-8.8,0.9c-1,0.2-1.5,0.5-1.6,0.7c0,0.2,0.4,0.4,1.3,0.6c0,0.3,0,0.6,0,0.8
								C95.6,153.8,93.8,153.1,94,152.2z"/>
						</g>
					</g>
				</g>
				<g>
					<g>
						<g>
							<path class="st41" d="M116,152.8c0,0,0-0.1,0-0.1c0.9-0.2,1.5-0.4,1.5-0.7c0-0.2-0.4-0.4-1.3-0.6c-1.1-0.2-2.9-0.3-5-0.3
								c0.1-0.1,0.2-0.2,0.3-0.4c0.8,0,1.6,0,2.3,0.1c3.2,0.2,4.5,0.7,4.4,1C118.2,152.1,117.6,152.4,116,152.8z"/>
						</g>
					</g>
				</g>
				<g>
					<g>
						<g>
							<path class="st37" d="M116,153.2L116,153.2c0.8-0.3,1.5-0.4,2-0.6C117.5,152.8,116.9,153,116,153.2z"/>
						</g>
					</g>
				</g>
				<g>
					<g>
						<g>
							<path class="st37" d="M116,153L116,153C116,153.1,116,153.1,116,153L116,153z"/>
						</g>
					</g>
				</g>
				<g>
					<g>
						<g>
							<path class="st41" d="M118,152.6c0.5-0.2,0.7-0.4,0.8-0.7c0-0.2-0.1-0.4-0.4-0.6c-0.8-0.4-2.7-0.6-4.3-0.7
								c-0.7,0-1.6-0.1-2.4-0.1c0-0.2-0.1-0.4-0.3-0.5c1.2,0,2.4,0.1,3.5,0.1c3.8,0.3,5.1,1,5,1.5
								C119.7,151.8,119.2,152.2,118,152.6z"/>
						</g>
					</g>
				</g>
				<g>
					<g>
						<g>
							<path class="st41" d="M108.4,148.9c2.7-0.1,5.3,0,7.3,0.2c3.6,0.4,5.8,1.1,5.6,2.1c-0.2,0.9-2.3,1.8-5.5,2.4
								c0-0.1,0.1-0.2,0.1-0.2l0,0.2c1.9-0.4,4.2-1,4.3-1.9c0.1-0.3-0.2-0.6-0.6-0.9c-1.1-0.6-3.2-0.8-4.7-0.9
								c-1.3-0.1-2.7-0.2-4.2-0.2C110.1,149.3,109.4,149.1,108.4,148.9z"/>
						</g>
					</g>
				</g>
				<g>
					<g>
						<g>
							<g>
								<path class="st42" d="M111.6,150.4c0.8,0,1.6,0,2.4,0.1c1.7,0.1,3.5,0.3,4.3,0.7c0.3,0.2,0.5,0.4,0.4,0.6
									c-0.1,0.2-0.3,0.5-0.8,0.7c-0.5,0.2-1.2,0.3-2,0.5l0-0.1c0-0.1,0-0.1,0.1-0.2c1.6-0.4,2.2-0.7,2.3-0.9
									c0.1-0.3-1.3-0.8-4.4-1c-0.7,0-1.5-0.1-2.3-0.1c0-0.1,0-0.1,0.1-0.2C111.6,150.6,111.6,150.5,111.6,150.4z"/>
							</g>
						</g>
					</g>
					<g>
						<g>
							<g>
								<path class="st43" d="M116,153.1c0.8-0.2,1.5-0.3,2-0.5C117.5,152.8,116.9,153,116,153.1L116,153.1z"/>
							</g>
						</g>
					</g>
					<g>
						<g>
							<g>
								<path class="st43" d="M116,153l0-0.2c0,0,0.1,0,0.1,0C116,152.9,116,152.9,116,153z"/>
							</g>
						</g>
					</g>
					<g>
						<g>
							<g>
								<path class="st43" d="M101.7,151c1.9-0.3,4-0.4,6.2-0.5c1.3-0.1,2.5-0.1,3.7-0.1c0,0.1,0,0.1,0,0.2c0,0.1,0,0.1-0.1,0.2
									c-1.2,0-2.4,0-3.7,0.1c-2.2,0.1-4.3,0.3-6.1,0.5c-3.3,0.5-4.9,1-4.9,1.4c0,0.2,0.5,0.5,2,0.8l-0.1,0.3l0,0.1
									c-0.8-0.1-1.4-0.3-1.8-0.5c-0.4-0.2-0.6-0.4-0.5-0.6C96.4,151.9,99.3,151.3,101.7,151z"/>
							</g>
						</g>
					</g>
				</g>
				<g>
					<g>
						<g>
							<g>
								<path class="st42" d="M110.7,149.5c1.5,0,3,0,4.2,0.2c1.5,0.1,3.6,0.4,4.7,0.9c0.5,0.2,0.7,0.5,0.6,0.9
									c-0.2,0.9-2.5,1.6-4.3,1.9l0-0.2c0-0.1,0.1-0.1,0.1-0.2c0,0,0,0,0,0l0,0.1c0.9-0.2,1.5-0.4,2-0.6c1.2-0.4,1.7-0.8,1.8-1
									c0.1-0.5-1.1-1.2-5-1.5c-1.1-0.1-2.3-0.1-3.5-0.1C111.1,149.8,110.9,149.7,110.7,149.5z"/>
							</g>
						</g>
					</g>
					<g>
						<g>
							<g>
								<path class="st41" d="M116,153.2L116,153.2c0.8-0.3,1.5-0.4,2-0.6C117.5,152.8,116.9,153,116,153.2z"/>
							</g>
						</g>
					</g>
					<g>
						<g>
							<g>
								<path class="st43" d="M115.9,153.3l0-0.2c0,0,0.1,0,0.1,0C115.9,153.1,115.9,153.2,115.9,153.3z"/>
							</g>
						</g>
					</g>
					<g>
						<g>
							<g>
								<path class="st43" d="M101.1,150.3c2.1-0.3,4.5-0.6,7-0.7c0.9,0,1.8-0.1,2.6-0.1c0.2,0.1,0.4,0.2,0.6,0.4
									c-1.1,0-2.2,0-3.3,0.1c-2.5,0.1-4.9,0.3-6.9,0.6c-4,0.6-5.6,1.4-5.7,1.9c-0.1,0.3,0.3,0.6,1.4,0.9c0.5,0.1,1.1,0.3,1.8,0.4
									c0,0,0.1,0,0.1,0l-0.2,0.4c-1.8-0.2-3.8-0.7-3.6-1.6C95.2,151.4,98.9,150.6,101.1,150.3z"/>
							</g>
						</g>
					</g>
				</g>
				<g>
					<g>
						<g>
							<path class="st1" d="M100.9,149.4c2.2-0.4,4.8-0.6,7.4-0.7c2.7-0.1,5.3-0.1,7.5,0.2c3.9,0.4,6,1.2,5.8,2.3
								c-0.3,1.3-3.8,2.2-5.8,2.6l-0.4,0.1l0.1-0.3c0.1-0.3,0.2-0.5,0.3-0.8l0-0.2l0.2,0c1-0.2,1.2-0.4,1.3-0.5c0,0-0.1-0.2-1.1-0.4
								c-1.7-0.3-5-0.4-8.5-0.2c-3.5,0.1-6.8,0.5-8.7,0.9c-1.1,0.2-1.3,0.4-1.3,0.5c0,0,0.1,0.2,1.1,0.4l0.2,0l0,0.2
								c0,0.3,0,0.5,0,0.8l0,0.3l-0.4-0.1c-1.9-0.2-5.1-0.9-4.8-2.2l0,0c0.2-1.1,2.7-2.1,6.8-2.8
								C100.6,149.4,100.8,149.4,100.9,149.4z M116.2,153.2c2.9-0.6,4.7-1.4,4.9-2.1c0.2-0.8-2-1.5-5.4-1.9
								c-2.2-0.2-4.7-0.3-7.4-0.2c-2.7,0.1-5.3,0.4-7.6,0.8c-3.7,0.6-6.1,1.6-6.3,2.4l0,0c-0.1,0.7,1.4,1.3,4.1,1.7
								c0-0.1,0-0.3,0-0.4c-0.9-0.2-1.3-0.4-1.2-0.7c0.1-0.3,0.6-0.6,1.8-0.9c1.9-0.4,5.2-0.8,8.8-0.9c3.6-0.1,6.8-0.1,8.6,0.2
								c1.1,0.2,1.6,0.4,1.5,0.8c-0.1,0.3-0.6,0.6-1.6,0.8C116.3,153,116.2,153.1,116.2,153.2z M94,152.2L94,152.2L94,152.2z"/>
						</g>
					</g>
				</g>
				<g class="st44">
					<g>
						<g>
							<g>
								<path class="st0" d="M99,152.1c0.2,0,0.4-0.1,0.7-0.1c-0.1,0.2-0.1,0.4-0.1,0.6c0,0,0,0.1,0,0.1c0,0.1,0,0.2-0.1,0.3
									c0,0.3,0,0.6,0,0.8c0,0,0,0.1,0,0.1c0,0.4,0.1,0.8,0.2,1.2c0.2,0.7,0.6,1.3,1.2,1.8c1.3,1.3,3.5,2.1,6,2
									c1.7-0.1,3.4-0.5,4.9-1.2c-1.7,1-3.7,1.6-5.7,1.6c-2.6,0.1-4.7-0.7-6-2c-0.5-0.5-0.9-1.2-1.2-1.8c-0.1-0.4-0.2-0.8-0.2-1.2
									c0,0,0-0.1,0-0.1c0-0.3,0-0.5,0-0.8c0-0.1,0-0.2,0.1-0.3c0,0,0-0.1,0-0.1C98.8,152.7,98.9,152.4,99,152.1z"/>
							</g>
						</g>
					</g>
				</g>
				<g>
					<g>
						<g>
							<path class="st1" d="M100.3,151.7c2-0.3,4.6-0.6,7.5-0.7c3.6-0.1,6.8-0.1,8.6,0.2l0.2,0l0,0.1c0,0.3,0,0.6-0.1,0.9
								c0,0.1-0.1,0.3-0.1,0.4c-0.1,0.3-0.2,0.6-0.3,0.9c-1.5,3.3-5.7,5.8-10,5.9c-4.3,0.2-7.6-2-7.7-5.2c0-0.3,0-0.6,0-0.9
								c0-0.1,0-0.3,0.1-0.4l0,0c0.1-0.3,0.1-0.6,0.2-0.9l0.1-0.1l0.2,0C99.3,151.8,99.8,151.8,100.3,151.7z M99,152.1L99,152.1
								L99,152.1z M116,151.6c-1.8-0.3-4.9-0.3-8.3-0.2c-3.4,0.1-6.6,0.5-8.5,0.9c-0.1,0.2-0.1,0.4-0.2,0.7v0c0,0.1,0,0.3-0.1,0.4
								c0,0.3,0,0.5,0,0.8c0.1,3,3.2,5.1,7.2,4.9c4-0.2,8-2.5,9.4-5.6c0.1-0.3,0.2-0.5,0.3-0.8c0-0.1,0.1-0.3,0.1-0.4
								C115.9,152.1,116,151.8,116,151.6z"/>
						</g>
					</g>
				</g>
			</g>
		</g>
		<g>
			<g>
				<g>
					<path class="st0" d="M60,90.8c6,5.9,13.5,10.3,22.1,12.6c1.7,0.5,3.5,0.8,5.3,1.1c0.9,0.1,1.8,0.3,2.7,0.4
						c2.7,0.3,5.4,0.3,8.1,0.2c2.3-0.1,4.6-0.4,6.8-0.8c2.7-0.5,5.3-1.2,7.8-2.1c0.9-0.3,1.8-0.7,2.7-1.1c16.4-7,28.8-22.3,31-41.1
						c3.3-27.7-16.7-52.5-44.6-55.4C96.5,4,91.2,4.3,86.2,5.3c-0.6,0.1-1.2,0.3-1.8,0.4c-1.6,0.4-3.1,0.8-4.6,1.4
						c-3.5,1.2-6.8,2.8-10,4.7c-3.1,1.9-6,4.1-8.7,6.6c-0.8,0.8-1.7,1.6-2.5,2.5c-1.2,1.3-2.3,2.6-3.4,4c-5.3,7-8.8,15.4-9.9,24.6
						C43.6,65.4,49.4,80.4,60,90.8z"/>
				</g>
				<g>
					<path class="st1" d="M95.4,105.3c-1.8,0-3.6-0.1-5.3-0.3c-1-0.1-1.9-0.2-2.7-0.4c-1.8-0.3-3.6-0.7-5.3-1.1
						c-8.3-2.2-16-6.6-22.1-12.6C48.8,80,43.5,64.9,45.3,49.4c1-8.9,4.5-17.5,9.9-24.7c1-1.4,2.2-2.7,3.4-4c0.8-0.8,1.6-1.7,2.5-2.5
						c2.7-2.5,5.6-4.7,8.7-6.6c3.2-1.9,6.5-3.5,10-4.7c1.5-0.5,3.1-1,4.6-1.4c0.6-0.2,1.2-0.3,1.8-0.4c5.1-1.1,10.4-1.3,15.7-0.8
						c13.6,1.4,25.7,8,34.2,18.6c8.4,10.5,12.1,23.6,10.6,37c-2.1,18.2-14,34-31.1,41.2c-0.9,0.4-1.8,0.7-2.7,1.1
						c-2.6,0.9-5.2,1.6-7.8,2.1c-2.3,0.4-4.5,0.7-6.8,0.8C97.3,105.2,96.4,105.3,95.4,105.3z M60.1,90.6c6.1,6,13.7,10.3,22,12.6
						c1.8,0.5,3.5,0.8,5.3,1.1c0.8,0.1,1.7,0.2,2.7,0.4c2.7,0.3,5.4,0.3,8.1,0.2c2.2-0.1,4.5-0.4,6.8-0.8c2.6-0.5,5.2-1.2,7.8-2.1
						c0.9-0.3,1.8-0.7,2.7-1.1c16.9-7.2,28.8-22.9,30.9-41c1.6-13.3-2.2-26.4-10.5-36.8c-8.4-10.5-20.5-17-34-18.5
						c-5.3-0.5-10.5-0.3-15.6,0.8c-0.6,0.1-1.1,0.2-1.8,0.4c-1.6,0.4-3.1,0.8-4.6,1.4c-3.5,1.2-6.8,2.8-9.9,4.7
						c-3.1,1.9-6,4.1-8.7,6.6c-0.8,0.8-1.7,1.6-2.4,2.5c-1.2,1.3-2.3,2.6-3.3,4c-5.4,7.2-8.8,15.6-9.8,24.5
						C43.8,64.8,49.1,79.8,60.1,90.6z"/>
				</g>
			</g>
			<g class="st21">
				<g>
					<path class="st1" d="M146.5,59.9c-2.2,18.8-14.5,34.1-31,41.1c-0.9,0.4-1.8,0.7-2.7,1.1c-2.5,0.9-5.1,1.6-7.8,2.1
						c-2.2,0.4-4.5,0.7-6.8,0.8c-2.7,0.1-5.4,0.1-8.1-0.2c-0.9-0.1-1.8-0.2-2.7-0.4c-1.8-0.3-3.6-0.7-5.3-1.1
						C73.6,101.1,66,96.7,60,90.8c-3.3-3.2-6.1-6.9-8.4-10.9c5.9,5.5,13.1,9.6,21.2,11.8c1.7,0.5,3.5,0.8,5.3,1.1
						c0.9,0.1,1.8,0.3,2.7,0.4c2.7,0.3,5.4,0.3,8.1,0.2c2.3-0.1,4.6-0.4,6.8-0.8c2.7-0.5,5.3-1.2,7.8-2.1c0.9-0.3,1.8-0.7,2.7-1.1
						c16.4-7,28.8-22.3,31-41.1c1.3-11-1.1-21.5-6.1-30.4C142.3,28.2,148.4,43.6,146.5,59.9z"/>
				</g>
			</g>
			<g>
				<g>
					<path class="st1" d="M95.4,106.3c-1.8,0-3.6-0.1-5.4-0.3c-1-0.1-1.9-0.2-2.7-0.4c-1.8-0.3-3.7-0.7-5.5-1.2
						c-8.5-2.3-16.3-6.7-22.6-12.9l0,0C47.9,80.5,42.5,65.1,44.3,49.3c1.1-9.1,4.6-17.8,10.1-25.1c1-1.4,2.2-2.8,3.4-4.1
						c0.8-0.9,1.6-1.7,2.5-2.5c2.7-2.6,5.7-4.8,8.9-6.8c3.2-2,6.6-3.6,10.2-4.8c1.5-0.5,3.1-1,4.7-1.4c0.6-0.2,1.2-0.3,1.8-0.4
						c5.2-1.1,10.6-1.4,16-0.8c13.9,1.4,26.2,8.2,34.9,18.9c8.6,10.7,12.4,24.1,10.8,37.8c-2.2,18.5-14.3,34.6-31.7,42
						c-0.9,0.4-1.9,0.8-2.8,1.1c-2.6,0.9-5.3,1.7-8,2.2c-2.3,0.4-4.6,0.7-6.9,0.8C97.3,106.3,96.4,106.3,95.4,106.3z M60.8,89.9
						c6,5.9,13.4,10.1,21.6,12.3c1.7,0.5,3.5,0.8,5.2,1.1c0.8,0.1,1.7,0.2,2.6,0.3c2.6,0.3,5.3,0.3,7.9,0.2c2.2-0.1,4.4-0.4,6.6-0.8
						c2.6-0.5,5.1-1.2,7.6-2.1c0.9-0.3,1.8-0.7,2.7-1c16.6-7.1,28.2-22.5,30.3-40.2c1.5-13-2.1-25.8-10.3-36
						C126.8,13.5,115,7.1,101.8,5.7c-5.2-0.5-10.3-0.3-15.3,0.8c-0.5,0.1-1.1,0.2-1.7,0.4c-1.5,0.4-3.1,0.8-4.5,1.3
						c-3.4,1.2-6.7,2.7-9.7,4.6c-3,1.9-5.9,4-8.5,6.5c-0.8,0.8-1.6,1.6-2.4,2.4c-1.2,1.3-2.3,2.6-3.3,3.9c-5.3,7-8.6,15.3-9.6,24
						C44.9,64.6,50.1,79.3,60.8,89.9L60.8,89.9z"/>
				</g>
			</g>
			<g>
				<g>
					<path class="st1" d="M95.4,106.6c-1.8,0-3.7-0.1-5.5-0.3c-1-0.1-1.9-0.2-2.8-0.4c-1.8-0.3-3.7-0.7-5.5-1.2
						c-8.6-2.3-16.4-6.8-22.7-13l0,0C47.6,80.6,42.1,65.1,44,49.3c1.1-9.2,4.6-17.9,10.2-25.3c1-1.4,2.2-2.8,3.5-4.1
						c0.8-0.9,1.6-1.7,2.5-2.5c2.7-2.6,5.7-4.9,8.9-6.8c3.2-2,6.7-3.6,10.2-4.8c1.6-0.5,3.2-1,4.8-1.4c0.6-0.2,1.2-0.3,1.8-0.4
						c5.3-1.1,10.7-1.4,16.1-0.8c13.9,1.4,26.4,8.2,35.1,19.1c8.6,10.8,12.5,24.3,10.9,38c-2.2,18.7-14.4,34.9-31.9,42.3
						c-0.9,0.4-1.9,0.8-2.8,1.1c-2.6,0.9-5.3,1.7-8.1,2.2c-2.3,0.4-4.7,0.7-7,0.8C97.3,106.6,96.4,106.6,95.4,106.6z M61.1,89.7
						c5.9,5.8,13.3,10.1,21.4,12.2c1.7,0.5,3.5,0.8,5.2,1.1c0.8,0.1,1.7,0.2,2.6,0.3c2.6,0.3,5.2,0.3,7.9,0.2
						c2.2-0.1,4.4-0.4,6.6-0.8c2.6-0.5,5.1-1.2,7.6-2.1c0.9-0.3,1.8-0.7,2.7-1c16.5-7,28-22.3,30.1-39.9
						c1.5-12.9-2.1-25.6-10.2-35.8c-8.2-10.2-19.9-16.6-33.1-18c-5.1-0.5-10.3-0.3-15.2,0.8C86,6.9,85.4,7,84.8,7.2
						c-1.5,0.4-3,0.8-4.5,1.3c-3.4,1.2-6.6,2.7-9.7,4.5c-3,1.8-5.9,4-8.4,6.4c-0.8,0.8-1.6,1.6-2.4,2.4c-1.2,1.3-2.3,2.6-3.3,3.9
						C51.3,32.7,48,41,47,49.6C45.2,64.6,50.4,79.2,61.1,89.7L61.1,89.7z"/>
				</g>
			</g>
			<g>
				<g>
					<path class="st3" d="M70.3,98.5c34.5,11,69.1-14.9,61-49.6c-5.5-23.6-33.2-36.1-55.7-29.1C59.1,24.9,45.3,37,46,64.3
						c0,0,2.2,12,7.7,18.8c5.5,6.8,12,12.4,12,12.4L70.3,98.5z"/>
				</g>
			</g>
			<g>
				<g>
					<path class="st1" d="M131.3,48.9c8.1,34.7-26.5,60.6-61,49.6l-0.9-0.6c33.1-4.1,58.8-32.2,51.3-67.4
						C125.8,35.4,129.6,41.7,131.3,48.9z"/>
				</g>
			</g>
			<g>
				<g>
					<path class="st1" d="M95.4,106.6c-1.8,0-3.7-0.1-5.5-0.3c-1-0.1-1.9-0.2-2.8-0.4c-1.8-0.3-3.7-0.7-5.5-1.2
						c-8.6-2.3-16.4-6.8-22.7-13l0,0C47.6,80.6,42.1,65.1,44,49.3c1.1-9.2,4.6-17.9,10.2-25.3l0.1-0.1l0.1-0.1
						c5.1-4.5,11.5-7.9,19.1-10.3c13.6-4.2,29.4-2.4,42.3,5c11.6,6.6,19.5,16.9,22.3,28.9c3.1,13.1,1.1,25.6-5.7,36.4
						c-7.2,11.4-19.5,19.7-33.7,22.8l-0.1,0l-0.1,0C97.3,106.6,96.4,106.6,95.4,106.6z M61.1,89.7c5.9,5.8,13.3,10.1,21.4,12.2
						c1.7,0.5,3.5,0.8,5.2,1.1c0.8,0.1,1.7,0.2,2.6,0.3c2.6,0.3,5.2,0.3,7.7,0.2c13.4-2.9,24.9-10.7,31.7-21.4
						c6.4-10.1,8.2-21.9,5.4-34.1c-2.6-11.2-10-20.7-20.9-26.9c-12.1-6.9-27-8.7-39.9-4.7c-7.1,2.2-13.1,5.4-17.8,9.5
						C51.3,32.8,48,41,47,49.6C45.2,64.6,50.4,79.2,61.1,89.7L61.1,89.7z"/>
				</g>
			</g>
			<g>
				<g>
					<path class="st1" d="M86.6,102c-5.5,0-11.1-0.9-16.6-2.6l-0.1,0l-4.8-3.1c-0.1-0.1-6.7-5.8-12.2-12.6
						C47.3,76.8,45.1,65,45,64.5l0-0.1c-0.6-23.7,9.6-39,30.3-45.5c12-3.7,26-2.1,37.3,4.4c10.2,5.8,17.2,14.9,19.7,25.4
						c3.6,15.3-0.8,30.1-12.2,40.6C111.1,97.6,99.1,102,86.6,102z M70.7,97.7c17.2,5.5,35.6,1.7,48-9.7c10.8-10,15.1-24.1,11.6-38.8
						c-2.4-10-9-18.6-18.8-24.2c-10.9-6.2-24.3-7.8-35.8-4.2c-19.8,6.1-29.5,20.8-28.9,43.5c0.2,1,2.4,12.1,7.5,18.3
						c5.1,6.3,11.3,11.7,11.9,12.3L70.7,97.7z"/>
				</g>
			</g>
			<g>
				<g>
					<path class="st0" d="M152.3,40.2c3.4,9.3,0.7,19.2-6,22.1s-15-2.3-18.4-11.6c0-0.1,0-0.1-0.1-0.2c-3.3-9.3-0.6-19,6.1-21.9
						c5.2-2.2,11.3,0.4,15.4,6C150.5,36.2,151.5,38.1,152.3,40.2z"/>
				</g>
			</g>
			<g class="st21">
				<g>
					<path class="st1" d="M152.3,40.2c3.4,9.3,0.7,19.2-6,22.1s-15-2.3-18.4-11.6c0-0.1,0-0.1-0.1-0.2c1.1,0.6,2.6,1.1,4,0.1
						c2.5-1.7,5.3-9.8,5.3-9.8s5.3-2.7,12.2-6.2C150.5,36.2,151.5,38.1,152.3,40.2z"/>
				</g>
			</g>
			<g>
				<g>
					<path class="st1" d="M142.4,64.6c-1.7,0-3.4-0.4-5.2-1.1c-4.7-2-8.6-6.5-10.8-12.3c-3.7-10-0.6-20.8,6.8-24
						c3-1.3,6.4-1.2,9.7,0.2c4.7,2,8.6,6.5,10.8,12.3c3.7,10,0.6,20.8-6.8,24C145.4,64.3,143.9,64.6,142.4,64.6z M137.8,29.3
						c-1.1,0-2.3,0.2-3.3,0.7c-6,2.6-8.3,11.6-5.2,20.2c1.8,4.9,5.2,8.9,9.1,10.6c2.5,1.1,5,1.2,7.3,0.2c6-2.6,8.3-11.6,5.2-20.2h0
						c-1.8-4.9-5.2-8.9-9.1-10.6C140.4,29.6,139.1,29.3,137.8,29.3z"/>
				</g>
			</g>
			<g>
				<g>
					
						<ellipse transform="matrix(0.9672 -0.2541 0.2541 0.9672 -6.7745 38.2324)" class="st0" cx="144.6" cy="45.3" rx="10.8" ry="14.3"/>
				</g>
				<g>
					<path class="st1" d="M146.2,59.6c-0.4,0-0.7,0-1.1-0.1c-6.2-0.8-11.4-7.7-11.6-15.5c-0.1-4.3,1.3-8.2,3.9-10.6
						c1.9-1.8,4.3-2.5,6.9-2.2c6.2,0.8,11.4,7.7,11.6,15.5c0.1,4.3-1.3,8.2-3.9,10.6C150.3,58.8,148.3,59.6,146.2,59.6z M143.1,31.4
						c-2.1,0-4,0.8-5.6,2.2c-2.5,2.3-3.9,6.1-3.8,10.4c0.3,7.7,5.4,14.5,11.4,15.2c2.5,0.3,4.8-0.4,6.6-2.1
						c2.5-2.3,3.9-6.1,3.8-10.4c-0.3-7.7-5.4-14.5-11.4-15.2C143.8,31.4,143.4,31.4,143.1,31.4z"/>
				</g>
			</g>
			<g class="st45">
				<g>
					<path class="st1" d="M137.1,54.6c-1.5-2.2-2.5-4.9-2.8-7.6c3.9,4.8,9.8,5.1,13.6,0.6c2.4-2.9,3.4-7.2,2.9-11.4
						c0.2,0.3,0.5,0.6,0.7,1c3.9,5.7,3.8,14.2-0.2,19C147.4,61,141,60.2,137.1,54.6z"/>
				</g>
			</g>
			<g>
				<g>
					<path class="st1" d="M146.8,60.8c-1.3,0-2.6-0.3-3.9-0.8c-3.8-1.6-7.2-5.6-9-10.5c-3.1-8.5-0.9-17.1,5-19.7
						c2.3-1,4.8-0.9,7.3,0.1c3.8,1.6,7.2,5.6,9,10.5c3.1,8.5,0.9,17.1-5,19.7C149.1,60.6,147.9,60.8,146.8,60.8z M142.3,32.1
						c-0.8,0-1.5,0.1-2.2,0.4c-4.3,1.9-5.8,9.1-3.4,15.9c1.5,4.2,4.2,7.4,7.3,8.7c1.7,0.7,3.4,0.8,4.9,0.1c4.3-1.9,5.8-9.1,3.4-15.9
						l0,0c-1.5-4.2-4.2-7.4-7.3-8.7C144.1,32.3,143.2,32.1,142.3,32.1z"/>
				</g>
			</g>
			<g class="st5">
				<g>
					<path class="st0" d="M90.3,25.3c0,0-21.4,5.2-29.5,21.1c0,0,0,0,0,0.1c-1.7,3.3-2.2,9.9-1.9,13.6C59.1,65,60,68.3,61,71.2
						c2.9,8.8,5.9,12.4,5.9,12.4c-6.6-3-11.2-7.4-13.6-14.7c-0.2-0.7-0.5-1.5-0.7-2.3c0-0.2-0.1-0.4-0.1-0.5c0,0,0,0,0,0
						c-0.3-1.6-0.6-3.8-0.7-6.2c-0.4-7.4,0.6-17.5,7.9-24.5C73.2,22.5,90.7,24.1,90.3,25.3z"/>
				</g>
			</g>
			<g class="st5">
				<g>
					
						<ellipse transform="matrix(0.8331 -0.5531 0.5531 0.8331 -4.1274 69.6139)" class="st0" cx="113.3" cy="41.6" rx="6.8" ry="7.8"/>
				</g>
			</g>
			<g class="st5">
				<g>
					
						<ellipse transform="matrix(0.7781 -0.6281 0.6281 0.7781 -6.7843 87.9288)" class="st0" cx="121.1" cy="53.6" rx="2.8" ry="3.2"/>
				</g>
			</g>
		</g>
		<g>
			<g>
				<path class="st0" d="M74.3,47.9c-6.6,0.1-15.1-1.5-21.4-5.5c-0.7,0.8-1.3,1.6-1.8,2.5c-3.3,5.5-3.4,13-0.3,18.6
					c1.1,2,2.6,3.7,4.3,5.1c6.6-2.5,13.9-3,20.5-0.5c2-1.8,3.6-4.1,4.7-6.6c1.8-4.5,2-11.3-0.6-15.4C78.7,46.5,75.4,47.8,74.3,47.9z
					"/>
				<path class="st25" d="M54.8,69.3L54.6,69c-1.8-1.5-3.3-3.2-4.4-5.3c-3.2-5.8-3-13.6,0.4-19.2c0.5-0.8,1.1-1.7,1.9-2.6l0.3-0.4
					l0.4,0.3c5.3,3.4,13.1,5.4,20.7,5.4l0.4,0c1,0,4.1-1.3,4.9-1.7l0.5-0.3l0.3,0.5c2.8,4.4,2.4,11.5,0.7,15.9c-1,2.6-2.7,5-4.8,6.9
					l-0.3,0.2l-0.3-0.1c-6-2.3-13.1-2.1-20.1,0.5L54.8,69.3z M53,43.1c-0.6,0.7-1.1,1.4-1.5,2c-3.2,5.3-3.3,12.6-0.3,18.1
					c1,1.8,2.3,3.4,3.9,4.7c7-2.5,14.1-2.7,20.2-0.5c1.9-1.7,3.3-3.9,4.2-6.2c1.6-4,2-10.3-0.3-14.4c-1.2,0.6-3.8,1.6-5,1.6l-0.4,0
					C66.2,48.5,58.5,46.5,53,43.1z"/>
			</g>
			<path class="st26" d="M81.2,52.3c-0.7,3.8-1.8,7.5-4.7,10c-2.2,1.8-5.1,2.6-7.9,2.8c-4.8,0.4-9.8-0.7-13.7-3.6
				c-3.8-2.9-6.2-7.9-5.3-12.7c-0.2,0.1-0.3,0.3-0.5,0.5c-1.3,4.7-0.8,10,1.5,14.3c1.1,2,2.6,3.7,4.3,5.1c6.6-2.5,13.9-3,20.5-0.5
				c2-1.8,3.6-4.1,4.7-6.6C81.2,58.6,81.6,55.4,81.2,52.3z"/>
			<path class="st25" d="M77.6,56.5c0,3.6-2.9,6.6-6.6,6.6c-3.6,0-6.6-2.9-6.6-6.6c0-3.6,2.9-6.6,6.6-6.6
				C74.6,50,77.6,52.9,77.6,56.5z"/>
			<path class="st0" d="M71.2,54.1c0,1.2-1,2.2-2.2,2.2s-2.2-1-2.2-2.2c0-1.2,1-2.2,2.2-2.2S71.2,52.9,71.2,54.1z"/>
			<path class="st25" d="M53.5,66.1l-0.7-0.8c-0.2-0.3-0.4-0.6-0.6-0.9c-0.4-0.6-0.8-1.1-1-1.7c-0.3-0.6-0.6-1.2-0.8-1.7
				c-0.2-0.6-0.4-1.2-0.6-1.8c-0.5-2.3-0.7-4.6-0.4-6.6c0.1-1,0.3-1.9,0.5-2.7c0.3-0.8,0.5-1.6,0.7-2.2c0.3-0.6,0.6-1.2,0.8-1.7
				c0.2-0.5,0.5-0.9,0.7-1.2c0.4-0.6,0.6-0.9,0.6-0.9c0.1-0.1,0.3-0.3,0.8-0.9c0.2-0.2,0.5-0.5,0.7-0.7c-0.4-0.3-0.8-0.6-1.2-0.9
				c-0.2,0.3-0.4,0.5-0.6,0.7c-0.5,0.6-0.7,1-0.7,1c0,0-0.3,0.4-0.7,1.1c-0.2,0.4-0.5,0.7-0.8,1.3c-0.2,0.5-0.5,1.2-0.8,1.8
				c-0.2,0.7-0.5,1.5-0.7,2.4c-0.1,0.9-0.4,1.9-0.5,2.9c-0.2,2.1-0.1,4.5,0.6,7c0.2,0.6,0.4,1.2,0.6,1.8c0.2,0.7,0.6,1.2,0.9,1.9
				c0.3,0.6,0.7,1.2,1.1,1.8c0.2,0.3,0.4,0.6,0.6,0.9l0.7,0.8c0.4,0.5,0.9,0.9,1.3,1.4c0.3-0.1,0.6-0.3,1-0.4
				C54.5,67.2,53.9,66.6,53.5,66.1z"/>
			<path class="st25" d="M79.1,47.3c1.2,2.6,2,5.8,1.7,9c-0.2,3.2-1.1,6.4-3.2,9.1c-0.7,0.9-1.4,1.7-2.3,2.4
				c0.3,0.1,0.5,0.1,0.8,0.2c0.8-0.7,1.5-1.4,2.1-2.2c2-2.7,3.4-6,3.7-9.4c0.4-3.3,0-6.7-1.3-9.8C80.2,46.9,79.7,47.1,79.1,47.3z"/>
			<path class="st0" d="M59.1,30.2c6.1,4.3,13.1,7.2,20.4,8.6c-1.3-4-4.9-6.8-8.8-8.4C66.9,28.8,62.9,28.3,59.1,30.2z"/>
			<path class="st25" d="M45.1,74.4c9.6-6.3,19.7-8.8,30.9-5.5c0.9,0.3,1.3-1.1,0.4-1.4c-10.7-3.2-23.3-1.8-31.3,6.8
				C44.9,74.3,45,74.4,45.1,74.4z"/>
			<path class="st25" d="M43.5,70.1c5.7-1.8,10.9-2.4,16.8-2.4c0.8,0,0.8-1.2,0-1.2c-6.2,0-11.3,0.5-16.9,3.4
				C43.3,70,43.4,70.2,43.5,70.1z"/>
			<path class="st25" d="M46.2,37.7c7.1,6.8,16.1,10.6,25.9,11.4c4.3,0.4,13.1-1.6,9.7-7.8c-0.3-0.6-1.1-0.4-1.3,0.2
				c-4.7,12.2-27.7,0.5-34-4.1C46.2,37.2,46,37.5,46.2,37.7z"/>
			<g>
				<path class="st0" d="M102.6,47.9c6.6,0.1,15.1-1.5,21.4-5.5c0.7,0.8,1.3,1.6,1.8,2.5c3.3,5.5,3.4,13,0.3,18.6
					c-1.1,2-2.6,3.7-4.3,5.1c-6.6-2.5-13.9-3-20.5-0.5c-2-1.8-3.6-4.1-4.7-6.6c-1.8-4.5-2-11.3,0.6-15.4
					C98.3,46.5,101.5,47.8,102.6,47.9z"/>
				<path class="st25" d="M122.1,69.3l-0.3-0.1c-7-2.6-14.1-2.8-20.1-0.5l-0.3,0.1l-0.3-0.2c-2.1-1.9-3.8-4.3-4.8-6.9
					c-1.8-4.5-2.1-11.6,0.7-15.9l0.3-0.5l0.5,0.3c0.8,0.5,3.9,1.7,4.9,1.7l0.4,0c7.6,0,15.4-2,20.7-5.4l0.4-0.3l0.3,0.4
					c0.8,0.9,1.4,1.7,1.9,2.6c3.4,5.7,3.5,13.4,0.4,19.2c-1.1,2-2.6,3.8-4.4,5.3L122.1,69.3z M110.7,65.9c3.7,0,7.5,0.7,11.2,2
					c1.6-1.3,2.9-2.9,3.9-4.7c3-5.5,2.9-12.7-0.3-18.1c-0.4-0.7-0.9-1.3-1.5-2c-5.5,3.3-13.2,5.3-20.9,5.3l-0.4,0
					c-1.2,0-3.7-1-5-1.6c-2.3,4.1-1.9,10.4-0.3,14.4c0.9,2.3,2.4,4.5,4.2,6.2C104.4,66.4,107.5,65.9,110.7,65.9z"/>
			</g>
			<path class="st26" d="M95.7,52.3c0.7,3.8,1.8,7.5,4.7,10c2.2,1.8,5.1,2.6,7.9,2.8c4.8,0.4,9.8-0.7,13.7-3.6
				c3.8-2.9,6.2-7.9,5.3-12.7c0.2,0.1,0.3,0.3,0.5,0.5c1.3,4.7,0.8,10-1.5,14.3c-1.1,2-2.6,3.7-4.3,5.1c-6.6-2.5-13.9-3-20.5-0.5
				c-2-1.8-3.6-4.1-4.7-6.6C95.7,58.6,95.3,55.4,95.7,52.3z"/>
			<path class="st25" d="M99.3,56.5c0,3.6,2.9,6.6,6.6,6.6c3.6,0,6.6-2.9,6.6-6.6c0-3.6-2.9-6.6-6.6-6.6
				C102.3,50,99.3,52.9,99.3,56.5z"/>
			<path class="st0" d="M105.7,54.1c0,1.2,1,2.2,2.2,2.2c1.2,0,2.2-1,2.2-2.2c0-1.2-1-2.2-2.2-2.2C106.7,52,105.7,52.9,105.7,54.1z"
				/>
			<path class="st25" d="M123.5,66.1l0.7-0.8c0.2-0.3,0.4-0.6,0.6-0.9c0.4-0.6,0.8-1.1,1-1.7c0.3-0.6,0.6-1.2,0.8-1.7
				c0.2-0.6,0.4-1.2,0.6-1.8c0.5-2.3,0.7-4.6,0.4-6.6c-0.1-1-0.3-1.9-0.5-2.7c-0.3-0.8-0.5-1.6-0.7-2.2c-0.3-0.6-0.6-1.2-0.8-1.7
				c-0.2-0.5-0.5-0.9-0.7-1.2c-0.4-0.6-0.6-0.9-0.6-0.9c-0.1-0.1-0.3-0.3-0.8-0.9c-0.2-0.2-0.5-0.5-0.7-0.7c0.4-0.3,0.8-0.6,1.2-0.9
				c0.2,0.3,0.4,0.5,0.6,0.7c0.5,0.6,0.7,1,0.7,1c0,0,0.3,0.4,0.7,1.1c0.2,0.4,0.5,0.7,0.8,1.3c0.2,0.5,0.5,1.2,0.8,1.8
				c0.2,0.7,0.5,1.5,0.7,2.4c0.1,0.9,0.4,1.9,0.5,2.9c0.2,2.1,0.1,4.5-0.6,7c-0.2,0.6-0.4,1.2-0.6,1.8c-0.2,0.7-0.6,1.2-0.9,1.9
				c-0.3,0.6-0.7,1.2-1.1,1.8c-0.2,0.3-0.4,0.6-0.6,0.9l-0.7,0.8c-0.4,0.5-0.9,0.9-1.3,1.4c-0.3-0.1-0.6-0.3-1-0.4
				C122.4,67.2,123,66.6,123.5,66.1z"/>
			<path class="st25" d="M97.8,47.3c-1.2,2.6-2,5.8-1.7,9c0.2,3.2,1.1,6.4,3.2,9.1c0.7,0.9,1.4,1.7,2.3,2.4
				c-0.3,0.1-0.5,0.1-0.8,0.2c-0.8-0.7-1.5-1.4-2.1-2.2c-2-2.7-3.4-6-3.7-9.4c-0.4-3.3,0-6.7,1.3-9.8C96.7,46.9,97.3,47.1,97.8,47.3
				z"/>
			<path class="st0" d="M117.8,30.2c-6.1,4.3-13.1,7.2-20.4,8.6c1.3-4,4.9-6.8,8.8-8.4C110,28.8,114,28.3,117.8,30.2z"/>
			<path class="st25" d="M132,74.2c-8-8.6-20.6-10-31.3-6.8c-0.9,0.3-0.5,1.6,0.4,1.4c11.2-3.2,21.3-0.7,30.9,5.5
				C131.9,74.4,132,74.3,132,74.2z"/>
			<path class="st25" d="M133.5,69.9c-5.6-2.9-10.7-3.4-16.9-3.4c-0.8,0-0.8,1.2,0,1.2c5.9-0.1,11.2,0.6,16.8,2.4
				C133.5,70.2,133.6,70,133.5,69.9z"/>
			<path class="st25" d="M130.5,37.4c-6.4,4.6-29.3,16.3-34,4.1c-0.2-0.5-1-0.7-1.3-0.2c-3.5,6.3,5.4,8,9.7,7.8
				c9.6-0.4,19-4.8,25.9-11.4C130.9,37.5,130.7,37.2,130.5,37.4z"/>
		</g>
	</g>
</g>
</svg>
