<?xml version="1.0" encoding="utf-8"?>
<!-- Generator: Adobe Illustrator 27.2.0, SVG Export Plug-In . SVG Version: 6.00 Build 0)  -->
<svg version="1.1" xmlns="http://www.w3.org/2000/svg" xmlns:xlink="http://www.w3.org/1999/xlink" x="0px" y="0px"
	 viewBox="0 0 254 172.6" style="enable-background:new 0 0 254 172.6;" xml:space="preserve">
<style type="text/css">
	.st0{fill:#FFFFFF;}
	.st1{fill:#15264B;}
	.st2{opacity:0.35;}
	.st3{fill:#274B8B;}
	.st4{fill:#0F3747;}
	.st5{opacity:0.5;}
	.st6{opacity:0.4;}
	.st7{fill:#183E75;}
	.st8{opacity:0.2;}
	.st9{fill:#38276B;}
	.st10{fill:#44AC34;}
	.st11{fill:#00983A;}
	.st12{fill:#FCF8FB;}
	.st13{opacity:0.7;}
	.st14{fill:#94613F;}
	.st15{fill:#FFD100;}
	.st16{fill:#EA5B0C;}
	.st17{fill:#D3D5ED;}
	.st18{fill:#D8D8D8;}
	.st19{fill:#121A28;}
	.st20{fill:#E5E1D4;}
	.st21{opacity:0.25;}
	.st22{opacity:0.6;}
	.st23{fill:#FFD346;}
	.st24{fill:#FFDA36;}
	.st25{fill:#1E1E1C;}
	.st26{fill:#EEEDED;}
	.st27{opacity:0.3;}
	.st28{fill:#407FC1;}
	.st29{fill:#B0B3B1;}
	.st30{opacity:0.8;}
	.st31{fill:#E5E5E4;}
	.st32{fill:#BCBCBB;}
	.st33{fill:#E72D47;}
	.st34{fill:#F7A710;}
	.st35{fill:#F2EFEC;}
	.st36{fill:#F9B116;}
	.st37{fill:#F38F1C;}
	.st38{fill:none;stroke:#2A3856;stroke-width:2.1963;stroke-linecap:round;stroke-miterlimit:10;}
	.st39{fill:#D66C12;}
	.st40{fill:#FFD767;}
	.st41{fill:#F7A83D;}
	.st42{fill:#FECF70;}
	.st43{fill:#FFED91;}
	.st44{opacity:0.41;}
	.st45{opacity:0.26;}
	.st46{fill:none;}
	.st47{fill:#261E26;}
	.st48{fill:#E30613;}
	.st49{fill:#E9E8E8;}
	.st50{fill:#4A92CF;}
	.st51{fill:#386EB5;}
	.st52{fill:#B6B6B7;}
	.st53{fill:#DDDDDD;}
	.st54{fill:#FDC423;}
	.st55{fill:#E2A415;}
	.st56{fill:#F9B044;}
	.st57{fill:#EB5759;}
	.st58{fill:#E5201F;}
	.st59{fill:none;stroke:#FFFFFF;stroke-width:2.3076;stroke-linecap:round;stroke-miterlimit:10;}
	.st60{fill:#EDC5D6;}
	.st61{fill:#4A153F;}
	.st62{fill:#E9C8D2;}
	.st63{fill:#DFB0BE;}
	.st64{fill:#D6D6EA;}
	.st65{fill:#BDBDE0;}
	.st66{fill:#232323;}
	.st67{fill:#A7ABCC;}
	.st68{fill:#EDCCA9;}
	.st69{fill:#492311;}
	.st70{fill:#2A3856;}
	.st71{fill:#05646E;}
	.st72{fill:#F28D70;}
	.st73{fill:#BEC5CA;}
	.st74{fill:#54767A;}
</style>
<g id="Fondo">
</g>
<g id="Grafica">
</g>
<g id="Informazioni">
	<g>
		<g>
			<g class="st27">
				<g>
					<path class="st15" d="M11.1,86.4c0,0,73.1-64.6,73.5-64.6c-46.1,55.8,27.2,92.4,27.2,92.4l5,46.8L11.1,86.4z"/>
				</g>
			</g>
			<g>
				<g>
					<path class="st0" d="M110.9,108.3c0,0-1.8,12-11.5,22.2c-7.4,7.7-19.1,8.1-18.3,15.5l59.4,0.8L110.9,108.3z"/>
				</g>
			</g>
			<g>
				<g>
					<path class="st0" d="M140.4,146.7l-59.4-0.8c-0.8-7.4,10.9-7.8,18.3-15.5c4.6-4.8,7.4-10,9.1-14.2c1.3-3.1,1.9-5.6,2.2-6.9
						c0.2-0.7,0.2-1.1,0.2-1.1l8.5,11l2.4,3.1l17.4,22.6L140.4,146.7z"/>
				</g>
			</g>
			<g class="st2">
				<g>
					<path class="st3" d="M140.4,146.7l-41.9-0.5c3.2-1.6,6.1-4.4,9.7-6.6c5.6-3.5,6.2-12.7,5.4-15.8L140.4,146.7z"/>
				</g>
			</g>
			<g>
				<g>
					<path class="st1" d="M140.4,148.1L81,147.4c-0.7,0-1.3-0.6-1.4-1.3c-0.6-5.3,4-7.6,8.8-10c3.3-1.7,7-3.5,9.9-6.6
						c9.2-9.7,11.1-21.3,11.1-21.4c0.1-0.6,0.5-1,1.1-1.2c0.6-0.1,1.1,0.1,1.5,0.5l29.6,38.4c0.3,0.4,0.4,1,0.1,1.5
						C141.5,147.8,141,148.1,140.4,148.1z M82.5,144.5l55,0.7l-25.9-33.6c-1.2,4.3-4.2,12.6-11.2,19.9c-3.2,3.4-7.2,5.4-10.7,7.2
						C85.6,140.7,83,142.2,82.5,144.5z"/>
				</g>
			</g>
			<g>
				<g>
					<path class="st0" d="M250.2,80.5c-1.2,2.4-4,4-8.4,3.9c-5.5,0-5.6,0.7-5.6,0.9c0,0,0,0,0,0s0.9,1.5,2.2,3.9c0,0,0,0,0,0
						c0.1,0.1,0.1,0.2,0.2,0.3c0,0,0,0,0,0c3.7,7.4,9.9,22.7,3.3,32.8c-8.1,12.4-44.5,18.1-57.1,21.2c-10.4,2.6-29.6,3.5-45.7,1.4
						c-3.5-0.5-6.9-1.1-10-1.9c-10.1-2.5-14.8-15.2-16.9-24.6c-0.9-4-1.4-7.5-1.6-9.3c-0.1-0.8-0.1-1.3-0.1-1.3s27-22.4,64.5-24.3
						c6.1-0.3,12.5-0.1,19.2,0.9c11.4,1.7,18.6,4.7,18.6,4.7c1.8-5.1-4-13.3-0.2-20.5c4.4-8.5,30.6-10.4,37.2,3.7
						C251.2,75.5,251.3,78.4,250.2,80.5z"/>
				</g>
			</g>
			<g>
				<g>
					<path class="st0" d="M238.5,89.3c0.1,0.1,0.1,0.2,0.2,0.3C238.6,89.5,238.5,89.4,238.5,89.3z"/>
				</g>
			</g>
			<g class="st2">
				<g>
					<path class="st3" d="M250.2,80.5c-1.2,2.4-4,4-8.4,3.9c-5.5,0-5.6,0.7-5.6,0.9c-2.3-3.5-5.5-7.3-5.5-7.3s2.3-0.5,7.6,2.6
						C241.4,82.4,247.5,83.6,250.2,80.5z"/>
				</g>
			</g>
			<g class="st2">
				<g>
					<path class="st3" d="M242,122.4c-22.8,20.7-81,28-112.8,20.8c-8.6-2.2-13.3-11.7-15.8-20.2c-0.8-2.7-2.5-5-4.9-6.6l0,0
						c0,0,0,0,0-0.1c1.4-3.8,2.4-5.9,2.1-8.2c0,0,27-22.4,64.5-24.3c-9.8,30.6-34.6,48.5-61.4,35.6c2.7,7.2,7.2,14.1,14.3,15.9
						c17.2,4.3,43,3.6,55.6,0.5c4.1-1,4.9-30.9,9.1-24.6c20.4,30.6,45.9,10.1,48.8,5.3c2.5-4.1,2.3-9.7,2.1-14
						C245.3,109.1,245.7,116.6,242,122.4z"/>
				</g>
			</g>
			<g>
				<g>
					<path class="st1" d="M116.4,129.8c1.4,2.4,2.9,4.6,4.7,6.6c0.9,1,1.8,1.9,2.8,2.7c1,0.8,2.1,1.4,3.3,1.9
						c1.2,0.5,2.3,0.8,3.7,1.1l2,0.4l2,0.3c2.7,0.5,5.4,0.8,8.1,1.1c10.8,1.1,21.8,1.1,32.6-0.1c2.7-0.3,5.4-0.7,8-1.3l1-0.2l1-0.2
						l2-0.5l4-0.9c5.4-1.2,10.8-2.3,16.1-3.6c5.3-1.3,10.6-2.8,15.7-4.7c2.6-0.9,5.1-1.9,7.5-3.1c2.4-1.2,4.7-2.5,6.7-4.2
						c0.5-0.4,1-0.8,1.4-1.3c0.2-0.2,0.4-0.5,0.6-0.7c0.2-0.2,0.4-0.5,0.6-0.7c0.2-0.2,0.4-0.5,0.5-0.7l0.5-0.8
						c0.2-0.3,0.3-0.5,0.4-0.8c0.1-0.3,0.3-0.6,0.4-0.9c0.9-2.3,1.4-4.9,1.3-7.5c0-2.6-0.4-5.3-1-7.8c-0.6-2.6-1.5-5.2-2.4-7.7
						c-1-2.5-2.1-5-3.4-7.3c-0.3-0.6-0.6-1.2-1-1.8l-0.3-0.4l-0.1-0.2l-0.1-0.1l0,0c0.1,0.1-0.1-0.1-0.2-0.4
						c-0.1-0.3-0.1-0.4-0.1-0.6c0-0.2,0.1-0.3,0.1-0.5c0.1-0.1,0.1-0.2,0.2-0.3c0.1-0.1,0.1-0.1,0.2-0.2c0.1-0.1,0.1-0.1,0.2-0.2
						c0.1,0,0.1-0.1,0.1-0.1c0.1-0.1,0.2-0.1,0.3-0.1c0.3-0.1,0.5-0.2,0.8-0.3c0.9-0.2,1.6-0.3,2.3-0.3c0.7,0,1.4-0.1,2.1-0.1
						c0.7,0,1.3,0,2,0c0.6-0.1,1.2-0.1,1.8-0.3c1.2-0.3,2.2-0.8,3-1.5c0.8-0.7,1.3-1.7,1.4-2.8c0.2-1.1,0-2.3-0.3-3.4
						c-0.1-0.3-0.2-0.6-0.3-0.9l-0.4-0.9c-0.1-0.3-0.3-0.6-0.4-0.8l-0.2-0.4l-0.3-0.4c-0.6-1.1-1.5-2-2.4-2.8
						c-1.9-1.7-4.2-2.9-6.6-3.7c-2.5-0.8-5.1-1.3-7.7-1.4c-0.7,0-1.3,0-2,0c-0.7,0-1.3,0-2,0.1c-1.3,0.1-2.6,0.3-3.9,0.6
						c-1.3,0.3-2.5,0.6-3.7,1.1c-1.2,0.5-2.3,1-3.3,1.8l-0.7,0.6c-0.2,0.2-0.4,0.4-0.6,0.6c-0.2,0.2-0.4,0.4-0.5,0.7
						c-0.1,0.2-0.3,0.4-0.4,0.7c-0.5,1.1-0.8,2.2-1,3.5c-0.2,2.5,0.3,5.1,0.9,7.7c0.3,1.3,0.6,2.7,0.8,4.2c0.2,1.5,0.3,3.1-0.3,4.8
						c-0.3,0.7-1.1,1.1-1.8,0.9l-0.1,0l0,0c-1-0.4-2-0.8-3.1-1.1c-1-0.3-2.1-0.7-3.2-1c-2.1-0.6-4.3-1.1-6.5-1.6
						c-2.2-0.4-4.4-0.8-6.6-1.1l-3.3-0.4l-3.3-0.3c-4.4-0.3-8.9-0.3-13.3,0.1c-4.4,0.3-8.9,1-13.2,1.9c-8.7,1.8-17.3,4.6-25.3,8.4
						c-8.1,3.8-15.8,8.3-23.5,12.9l0,0c-0.2,0.1-0.5,0.1-0.7-0.2c-0.1-0.2-0.1-0.4,0.1-0.6c1.6-1.7,3.3-3.2,5.1-4.6
						c0.9-0.7,1.8-1.4,2.8-2c0.9-0.6,1.9-1.3,2.9-1.9c3.9-2.4,7.9-4.5,12.1-6.4c8.3-3.7,17-6.7,26-8.5c4.5-0.9,9-1.6,13.6-1.9
						c4.6-0.3,9.2-0.3,13.7-0.1l3.4,0.3l3.4,0.4c2.3,0.3,4.5,0.7,6.8,1.1c2.2,0.5,4.5,1,6.7,1.6c1.1,0.3,2.2,0.6,3.3,1
						c1.1,0.4,2.2,0.7,3.3,1.2l-1.9,0.8c0.3-0.9,0.3-2.2,0.2-3.4c-0.2-1.3-0.5-2.6-0.8-3.9c-0.6-2.7-1.2-5.6-0.9-8.6
						c0.2-1.5,0.5-3,1.2-4.4c0.1-0.3,0.4-0.7,0.6-1.1c0.2-0.4,0.5-0.6,0.8-1c0.3-0.3,0.6-0.6,0.8-0.8c0.3-0.3,0.6-0.5,0.9-0.7
						c1.2-0.9,2.6-1.6,4-2.1c1.4-0.5,2.8-1,4.2-1.2c1.4-0.3,2.8-0.5,4.3-0.6c0.7-0.1,1.4-0.1,2.2-0.1c0.7,0,1.4,0,2.2,0
						c2.9,0.1,5.7,0.6,8.5,1.5c2.7,0.9,5.4,2.3,7.6,4.3c1.1,1,2.1,2.1,2.9,3.4c0.8,1.3,1.5,2.6,1.9,4.1c0.4,1.5,0.6,3.1,0.4,4.7
						c-0.2,1.6-1.1,3.3-2.3,4.4c-1.2,1.2-2.8,1.8-4.3,2.2c-0.8,0.2-1.5,0.3-2.3,0.4c-0.7,0-1.5,0.1-2.2,0.1c-0.7,0-1.3,0-2,0.1
						c-0.6,0-1.3,0.1-1.8,0.2c-0.1,0-0.2,0.1-0.2,0.1c0,0,0,0,0,0l0,0c0,0,0.1,0,0.1-0.1c0,0,0,0,0.1-0.1c0-0.1,0.1-0.1,0.1-0.2
						c0-0.1,0.1-0.2,0.1-0.4c0-0.2,0-0.3,0-0.5c-0.1-0.3-0.2-0.4-0.1-0.3l0,0.1l0.1,0.1l0.1,0.2l0.3,0.5c0.4,0.6,0.7,1.2,1,1.8
						c1.3,2.5,2.5,5,3.5,7.6c1,2.6,1.9,5.3,2.6,8.1c0.6,2.8,1.1,5.6,1.1,8.5c0,2.9-0.4,5.8-1.5,8.6c-0.1,0.3-0.3,0.7-0.5,1
						c-0.2,0.3-0.3,0.7-0.5,1l-0.6,1c-0.2,0.3-0.4,0.6-0.7,0.9c-0.2,0.3-0.5,0.6-0.7,0.9c-0.3,0.3-0.5,0.6-0.8,0.8
						c-0.5,0.5-1.1,1-1.6,1.5c-2.3,1.8-4.7,3.3-7.3,4.5c-2.5,1.2-5.1,2.3-7.8,3.3c-5.3,1.9-10.6,3.4-16,4.8
						c-5.4,1.3-10.8,2.5-16.2,3.7l-4,0.9l-2,0.5l-1,0.2l-1,0.2c-2.8,0.6-5.5,1-8.3,1.4c-5.5,0.6-11.1,1-16.6,1
						c-5.6,0.1-11.1-0.1-16.7-0.7c-2.8-0.3-5.5-0.7-8.3-1.2l-2.1-0.4l-2-0.5c-1.3-0.3-2.8-0.7-4.2-1.4c-2.7-1.3-4.9-3.4-6.6-5.7
						c-1.7-2.3-2.9-4.9-3.9-7.5c-0.1-0.3,0-0.5,0.3-0.6C116.1,129.5,116.3,129.6,116.4,129.8L116.4,129.8z"/>
				</g>
			</g>
			<g>
				<g>
					<path class="st28" d="M123.4,164.3l50.6-14.9c2.3-0.6,4-2.6,4.1-5l0,0l-85.6-1.7l-0.3,22l22.6,0.5
						C117.7,165.3,120.6,165,123.4,164.3z"/>
				</g>
			</g>
			<g class="st2">
				<g>
					<path class="st3" d="M177.8,145.8c-0.5,1.8-2,3.2-3.8,3.6l-50.6,14.9c-2.8,0.7-5.7,1-8.6,0.9l-22.6-0.5l1.5-3.1l22.6,0.7
						c2.9,0.1,5.8-0.2,8.6-0.9l50.7-14.5C176.4,146.8,177.2,146.4,177.8,145.8z"/>
				</g>
			</g>
			<g>
				<g>
					<path class="st1" d="M115.1,166.5c-0.1,0-0.2,0-0.4,0l-23.8-0.6l0.3-24.5l88.1,1.8l0,1.2c-0.1,3-2.1,5.5-5,6.2l-50.6,14.9
						C120.9,166.2,118,166.5,115.1,166.5z M123.4,164.3L123.4,164.3L123.4,164.3z M93.4,163.5l21.3,0.5c2.8,0.1,5.6-0.2,8.3-0.9
						l50.6-14.9c1.4-0.3,2.4-1.3,2.9-2.6l-82.9-1.7L93.4,163.5z"/>
				</g>
			</g>
			<g>
				<g>
					<path class="st28" d="M122,159l55.7-14.6c0,0,0-0.1,0-0.1l-85.3-2.2l-0.2,17.3l22.2,0.3C117,159.8,119.5,159.6,122,159z"/>
				</g>
			</g>
			<g>
				<g>
					<path class="st29" d="M111.8,155.2l35.7-7.3c0.6-0.1,0.5-0.9-0.1-1l-42.9-0.9l-0.1,10.1L111.8,155.2z"/>
				</g>
			</g>
			<g>
				<g>
					<path class="st1" d="M103.1,157.7l0.2-12.8l44.2,0.9c0.9,0,1.6,0.7,1.7,1.6c0.1,0.9-0.5,1.7-1.4,1.8l-35.7,7.3L103.1,157.7z
						 M111.8,155.2L111.8,155.2L111.8,155.2z M105.7,147.4l-0.1,7.4l6-0.8l29-5.9L105.7,147.4z M147.4,148.3
						C147.4,148.3,147.4,148.3,147.4,148.3L147.4,148.3z M147.2,146.8C147.2,146.8,147.2,146.8,147.2,146.8L147.2,146.8z"/>
				</g>
			</g>
			<g>
				<g>
					<path class="st1" d="M114.4,161L91,160.7l0.3-19.8l87.6,2.2l0.1,1.1c0.1,0.6-0.3,1.2-1,1.4l-55.8,14.6
						C119.7,160.8,117.1,161.1,114.4,161z M122,159L122,159L122,159z M93.5,158.3l21,0.3c2.4,0,4.9-0.2,7.3-0.7l47.5-12.4l-75.5-1.9
						L93.5,158.3z M177.7,145.6C177.7,145.6,177.7,145.6,177.7,145.6L177.7,145.6z"/>
				</g>
			</g>
			<g>
				<g>
					<path class="st1" d="M213.4,88c1,0.4,1.8,0.9,2.7,1.4c0.9,0.5,1.7,1.1,2.5,1.6c1.6,1.2,3.1,2.5,4.5,3.9c1.4,1.4,2.6,3,3.8,4.6
						l0.8,1.2c0.2,0.4,0.5,0.9,0.7,1.3l0.3,0.6l0.3,0.7c0.2,0.4,0.4,0.9,0.6,1.3c0,0.1,0,0.2-0.1,0.3c-0.1,0-0.2,0-0.2-0.1l0,0
						c-1.2-1.5-2.4-3-3.7-4.3c-1.3-1.3-2.7-2.6-4.2-3.7c-1.5-1.2-3-2.2-4.5-3.3c-0.4-0.2-0.8-0.5-1.2-0.8l-1.2-0.8l-2.3-1.5l-0.1,0
						c-0.7-0.4-0.9-1.3-0.4-2C212,88,212.7,87.7,213.4,88z"/>
				</g>
			</g>
			<g>
				<g>
					<path class="st1" d="M230.5,77.6c0.9,0.4,1.6,0.9,2.3,1.5c0.7,0.5,1.3,1.2,1.9,1.8c0.6,0.6,1.2,1.3,1.7,2
						c0.5,0.7,1,1.5,1.4,2.3c0.3,0.6,0,1.4-0.6,1.7c-0.6,0.3-1.2,0.1-1.6-0.4l0,0c-0.9-1.3-1.8-2.8-2.7-4.2
						c-0.4-0.7-0.9-1.4-1.3-2.2C231.2,79.3,230.8,78.5,230.5,77.6z"/>
				</g>
			</g>
			<g>
				<g>
					<path class="st0" d="M165,61.3c5.8-5,32.7-6.7,45.1,1.4c11.3,7.4,14,30.9,7.1,29.3c-15.6-3.6-27.9-5.4-51-1.6
						C151.2,92.2,159.2,66.3,165,61.3z"/>
				</g>
			</g>
			<g class="st2">
				<g>
					<path class="st3" d="M217.1,91.9c-15.6-3.6-27.9-5.4-51-1.6c-8,1-9.4-5.9-8.1-13.4c0.8,3.8,3.2,6.2,8.2,5.6
						c6.9-1.1,16.8-16.1,16.8-16.1s0.3,12.5,5.1,15c6.1,3.2,20.7,0.8,29.1,2.8c1.7,0.4,2.8-0.7,3.4-2.7
						C221.5,87.7,220.4,92.7,217.1,91.9z"/>
				</g>
			</g>
			<g>
				<g>
					<path class="st1" d="M217.7,93.4c-0.3,0-0.6,0-0.9-0.1c-16.7-3.9-28.5-5.1-50.4-1.6c0,0,0,0,0,0c-5.5,0.7-8-2.1-9.1-4.5
						c-3.3-7.4,2.1-22.9,6.8-27c6.6-5.6,34.2-7,46.8,1.2c9.3,6,13.5,22.6,10.7,29.2C220.7,92.5,219.3,93.5,217.7,93.4z M190.4,86.8
						c9.4,0.1,17.6,1.5,27.1,3.7c0.3,0.1,0.9,0.2,1.4-1c2.1-4.9-1.1-20.2-9.6-25.6c-12-7.8-38.2-5.9-43.4-1.5l0,0
						c-3.7,3.2-9,17.1-6.1,23.7c1,2.3,3,3.2,6.1,2.8C175.5,87.3,183.3,86.7,190.4,86.8z M165,61.3L165,61.3L165,61.3z"/>
				</g>
			</g>
			<g>
				<g>
					<path class="st0" d="M200.8,69.1c-2.9,3.7-2.8,15.4-0.2,16.2c2.6,0.8,11.8,1.7,13.9,0.1c2-1.6,3-7.9,1.1-11.3
						C213.7,70.7,202.9,66.3,200.8,69.1z"/>
				</g>
			</g>
			<g class="st2">
				<g>
					<path class="st3" d="M216.4,81c-0.3,2-1,3.7-2,4.4c-2,1.6-11.3,0.7-13.9-0.1c-1.9-0.6-2.5-6.9-1.6-11.8c0.3,3,1.3,5.4,2.6,5.3
						c2.1-0.1,3.2-4.4,3.2-4.4s0.5,5.4,2.5,7.4c2.5,2.6,7.4,0.6,8.7-0.4C216.2,81.3,216.3,81.2,216.4,81z"/>
				</g>
			</g>
			<g>
				<g>
					<path class="st1" d="M208.8,87.3c-3.4,0-7.1-0.6-8.5-1c-0.9-0.3-1.6-1.2-2-2.6c-1.1-3.7-0.9-11.8,1.7-15.2
						c0.7-0.9,2.1-1.3,3.9-1.2c4.1,0.3,10.8,3.4,12.5,6.4c2.2,3.8,1.1,10.6-1.4,12.6C214,87,211.5,87.3,208.8,87.3z M203.3,69.2
						c-0.9,0-1.5,0.2-1.8,0.5l0,0c-2,2.6-2.5,9.8-1.4,13.4c0.3,1,0.6,1.3,0.7,1.3c2.7,0.8,11.4,1.5,13,0.3c1.6-1.2,2.6-7,0.9-10
						c-1.2-2.2-7.2-5.1-11-5.4C203.6,69.2,203.5,69.2,203.3,69.2z M200.8,69.1L200.8,69.1L200.8,69.1z"/>
				</g>
			</g>
			<g>
				<g>
					<path class="st1" d="M205.3,73c-0.1,2.4-0.2,4.8-0.1,7.1c0.1,1.2,0.2,2.3,0.5,3.3c0.1,0.5,0.3,0.9,0.6,1.2
						c0.2,0.3,0.5,0.5,0.8,0.6l0.2,0.1c0.5,0.2,0.8,0.7,0.7,1.2c-0.1,0.5-0.6,0.8-1.1,0.7c-0.2,0-0.4-0.1-0.6-0.1
						c-0.2-0.1-0.4-0.1-0.6-0.3c-0.4-0.2-0.7-0.5-1-0.8c-0.5-0.6-0.8-1.3-1-2c-0.3-1.3-0.3-2.6-0.2-3.9c0.1-1.3,0.3-2.5,0.5-3.7
						c0.3-1.2,0.6-2.4,1-3.5c0-0.1,0.1-0.1,0.2-0.1C205.2,72.9,205.3,72.9,205.3,73L205.3,73z"/>
				</g>
			</g>
			<g>
				<g>
					<path class="st1" d="M185.5,61.6c-0.6,2.4-1.3,4.8-1.6,7.1c0,0.3-0.1,0.6-0.1,0.9l-0.1,0.9l-0.2,1.9l-0.3,3.7
						c-0.1,1.2-0.2,2.5-0.2,3.7c0,1.2,0,2.4,0.2,3.5c0.2,1.1,0.5,2,1.1,2.6c0.5,0.6,1.4,0.8,2.4,0.9l0.1,0c0.8,0.1,1.4,0.7,1.3,1.5
						c0,0.8-0.7,1.3-1.4,1.3c-0.7,0-1.5-0.1-2.3-0.3c-0.8-0.2-1.6-0.7-2.2-1.3c-0.6-0.6-1.1-1.3-1.4-2.1c-0.3-0.7-0.5-1.4-0.6-2.1
						c-0.3-1.4-0.3-2.8-0.3-4.1c0-1.3,0.1-2.6,0.2-3.9c0.1-1.3,0.3-2.5,0.4-3.8l0.3-1.9l0.1-0.9c0.1-0.3,0.1-0.7,0.2-1
						c0.3-1.3,0.7-2.6,1.2-3.8c0.5-1.2,1.1-2.3,1.8-3.5c0.2-0.3,0.7-0.4,1-0.2C185.5,61,185.6,61.3,185.5,61.6L185.5,61.6z"/>
				</g>
			</g>
			<g>
				<g>
					<path class="st0" d="M220.8,134.1c-4.8,4.8-10.5,2.7-10.5,2.7s2.3-7.1,2.6-15.8c0.1-2.4,0-4.9-0.3-7.4
						C210.7,98.1,198.8,89,198.8,89s6.5-6.3,14.8,0.9c6.1,5.3,9.9,19.1,10.3,30.1C224.1,126.3,223.2,131.8,220.8,134.1z"/>
				</g>
			</g>
			<g class="st2">
				<g>
					<path class="st3" d="M220.8,134.1c-4.8,4.8-10.5,2.7-10.5,2.7s2.3-7.1,2.6-15.8c1,2.5,2.3,5,3.5,4.5c1.7-0.7,1.4-6.5,1.6-8.3
						c0.1-0.6,1.8,2.5,2.2,7.5c0.2,3,2.3-1.7,3.5-4.8C224.1,126.3,223.2,131.8,220.8,134.1z"/>
				</g>
			</g>
			<g>
				<g>
					<path class="st1" d="M213.2,138.7c-1.9,0-3.2-0.5-3.3-0.5l-1.3-0.5l0.4-1.3c0-0.1,3.6-11.2,2.3-22.6
						c-1.8-14.7-13.1-23.6-13.3-23.7l-1.3-1l1.2-1.2c0.1-0.1,7.6-7.2,16.7,0.8c6.6,5.7,10.4,20,10.8,31.2c0.1,4.2-0.1,11.8-3.5,15.2
						C218.9,138.1,215.6,138.7,213.2,138.7z M212.1,135.7c1.7,0.2,4.9,0.1,7.7-2.7c1.8-1.8,2.8-6.7,2.6-13
						c-0.3-10.3-3.9-23.9-9.8-29.1c-5.1-4.5-9.4-3.1-11.5-1.9c3.3,3,11.3,11.5,12.9,24.4C215.2,123,213.1,132.2,212.1,135.7z"/>
				</g>
			</g>
			<g>
				<g>
					<g>
						<path class="st0" d="M75.8,88.3c4.7,7.7,11.4,14.2,19.6,18.8c1.7,0.9,3.4,1.8,5.2,2.6c0.9,0.4,1.8,0.7,2.7,1.1
							c2.8,1,5.6,1.8,8.4,2.3c2.4,0.5,4.8,0.8,7.3,0.9c2.9,0.2,5.8,0.1,8.7-0.2c1-0.1,2.1-0.2,3.1-0.4c18.9-3,35.7-15.6,42.9-34.6
							C184.2,51,170,20,141.8,9.7c-5.4-2-11-3.1-16.5-3.3c-0.6,0-1.3,0-1.9,0c-1.7,0-3.4,0.1-5.2,0.2c-3.9,0.3-7.8,1.1-11.6,2.3
							c-3.7,1.2-7.4,2.7-10.8,4.6c-1.1,0.6-2.1,1.2-3.2,1.9c-1.6,1-3.1,2.1-4.5,3.3c-7.3,5.9-13.1,13.7-16.7,23
							C65.4,57.7,67.5,74.8,75.8,88.3z"/>
					</g>
					<g>
						<path class="st1" d="M121.5,114.3c-0.9,0-1.7,0-2.6-0.1c-2.5-0.1-4.9-0.5-7.3-0.9c-2.8-0.5-5.6-1.3-8.4-2.3
							c-1-0.4-1.9-0.7-2.7-1.1c-1.8-0.8-3.5-1.6-5.3-2.6c-8.1-4.5-14.9-11-19.7-18.9C67,74.2,65.4,57.1,71.3,41.6
							c3.4-9,9.2-17,16.7-23c1.4-1.2,2.9-2.3,4.5-3.3c1-0.7,2.1-1.3,3.2-1.9c3.4-1.9,7-3.5,10.8-4.6c3.8-1.2,7.7-1.9,11.6-2.3
							c1.7-0.1,3.4-0.2,5.2-0.2c0.7,0,1.3,0,1.9,0c5.6,0.2,11.2,1.3,16.5,3.3c13.7,5,24.6,15,30.6,28.2c6,13.1,6.4,27.7,1.3,41.2
							c-7,18.3-23.4,31.6-43,34.7c-1,0.2-2.1,0.3-3.1,0.4C125.6,114.2,123.5,114.3,121.5,114.3z M75.9,88.2
							c4.8,7.8,11.5,14.3,19.6,18.8c1.7,0.9,3.5,1.8,5.2,2.6c0.8,0.3,1.7,0.7,2.7,1.1c2.7,1,5.5,1.8,8.3,2.3
							c2.4,0.5,4.8,0.8,7.2,0.9c2.9,0.2,5.8,0.1,8.7-0.2c1-0.1,2.1-0.2,3.1-0.4c19.5-3.1,35.8-16.3,42.8-34.5
							c5.1-13.4,4.6-27.9-1.3-40.9c-6-13.1-16.8-23-30.5-28c-5.3-1.9-10.9-3-16.4-3.3c-0.6,0-1.3,0-1.9,0c-1.7,0-3.4,0.1-5.1,0.2
							c-3.9,0.3-7.8,1.1-11.5,2.3c-3.7,1.1-7.3,2.7-10.7,4.6c-1.1,0.6-2.2,1.3-3.2,1.9c-1.6,1-3.1,2.1-4.5,3.3
							c-7.5,6-13.2,13.9-16.6,22.9C65.7,57.2,67.3,74.1,75.9,88.2L75.9,88.2z"/>
					</g>
				</g>
				<g class="st2">
					<g>
						<path class="st3" d="M173.6,78.9c-7.2,19-24,31.6-42.9,34.6c-1,0.2-2.1,0.3-3.1,0.4c-2.9,0.3-5.8,0.3-8.7,0.2
							c-2.4-0.1-4.8-0.4-7.2-0.9c-2.8-0.5-5.6-1.3-8.4-2.3c-0.9-0.3-1.8-0.7-2.7-1.1c-1.8-0.8-3.6-1.6-5.2-2.6
							c-8.3-4.6-14.9-11.2-19.6-18.8c-2.6-4.2-4.6-8.8-5.9-13.6c4.6,7.2,11.1,13.4,19,17.8c1.7,0.9,3.4,1.8,5.2,2.6
							c0.9,0.4,1.8,0.7,2.7,1.1c2.8,1,5.6,1.8,8.4,2.3c2.4,0.5,4.8,0.8,7.2,0.9c2.9,0.2,5.8,0.1,8.7-0.2c1-0.1,2.1-0.2,3.1-0.4
							c18.9-3,35.7-15.6,42.9-34.6c4.2-11.1,4.5-22.6,1.6-33.1C177.5,44.9,179.9,62.4,173.6,78.9z"/>
					</g>
				</g>
				<g>
					<g>
						<path class="st1" d="M121.5,115.3c-0.9,0-1.7,0-2.6-0.1c-2.5-0.1-5-0.5-7.4-0.9c-2.9-0.6-5.8-1.4-8.5-2.4
							c-1-0.4-1.9-0.7-2.8-1.1c-1.8-0.8-3.6-1.7-5.4-2.6c-8.2-4.6-15.2-11.3-20.1-19.3c-8.8-14.5-10.4-31.9-4.4-47.7
							c3.5-9.2,9.4-17.3,17-23.5c1.4-1.2,3-2.3,4.6-3.4c1-0.7,2.1-1.3,3.3-2c3.5-1.9,7.2-3.5,11-4.7c3.8-1.2,7.8-2,11.8-2.3
							c1.7-0.1,3.5-0.2,5.3-0.2c0.7,0,1.4,0,2,0c5.7,0.2,11.4,1.4,16.8,3.4c14,5.1,25.1,15.3,31.2,28.7c6.1,13.3,6.6,28.2,1.3,42
							c-7.1,18.7-23.9,32.2-43.8,35.4c-1.1,0.2-2.1,0.3-3.2,0.4C125.7,115.3,123.6,115.4,121.5,115.3z M76.8,87.7
							c4.7,7.7,11.3,14,19.2,18.4c1.7,0.9,3.4,1.8,5.1,2.5c0.8,0.3,1.7,0.7,2.6,1c2.7,1,5.4,1.7,8.2,2.3c2.3,0.5,4.7,0.8,7.1,0.9
							c2.8,0.2,5.7,0.1,8.5-0.2c1-0.1,2-0.2,3-0.4c19.1-3,35.2-16,41.9-33.8c5-13.1,4.5-27.4-1.3-40.1
							c-5.9-12.8-16.5-22.6-29.9-27.5c-5.2-1.9-10.7-3-16.1-3.2c-0.6,0-1.2,0-1.9,0c-1.7,0-3.4,0.1-5,0.2c-3.8,0.3-7.6,1.1-11.3,2.2
							c-3.7,1.1-7.2,2.6-10.5,4.5c-1.1,0.6-2.1,1.2-3.1,1.9c-1.6,1-3,2.1-4.4,3.2c-7.3,5.9-13,13.7-16.3,22.4
							C66.9,57.2,68.4,73.9,76.8,87.7L76.8,87.7z"/>
					</g>
				</g>
				<g>
					<g>
						<path class="st1" d="M121.5,115.7c-0.9,0-1.8,0-2.6-0.1c-2.5-0.2-5-0.5-7.5-0.9c-2.9-0.6-5.8-1.4-8.6-2.4
							c-1-0.4-1.9-0.7-2.8-1.1c-1.8-0.8-3.6-1.7-5.4-2.6c-8.3-4.6-15.3-11.3-20.2-19.4l0,0C65.6,74.6,63.9,57,70,41.1
							c3.5-9.2,9.4-17.4,17.1-23.6c1.5-1.2,3-2.3,4.7-3.4c1.1-0.7,2.2-1.4,3.3-2c3.5-2,7.2-3.6,11.1-4.7C110,6.1,114,5.4,118,5
							c1.7-0.2,3.5-0.2,5.3-0.2c0.7,0,1.4,0,2,0.1c5.7,0.2,11.5,1.4,17,3.4c14.1,5.1,25.3,15.4,31.4,28.9
							c6.1,13.4,6.6,28.4,1.4,42.3c-7.1,18.8-24,32.4-44.1,35.6c-1.1,0.2-2.1,0.3-3.2,0.4C125.7,115.6,123.6,115.7,121.5,115.7z
							 M77.1,87.5c4.6,7.6,11.2,13.9,19,18.3c1.7,0.9,3.4,1.8,5.1,2.5c0.8,0.3,1.6,0.7,2.6,1c2.6,1,5.4,1.7,8.1,2.2
							c2.3,0.5,4.7,0.8,7,0.9c2.8,0.2,5.6,0.1,8.4-0.2c1-0.1,2-0.2,3-0.4c19-3,34.9-15.9,41.7-33.6c5-13,4.5-27.2-1.3-39.8
							c-5.8-12.7-16.4-22.4-29.7-27.3c-5.2-1.9-10.6-3-16-3.2c-0.6,0-1.2,0-1.9,0c-1.7,0-3.4,0.1-5,0.2c-3.8,0.3-7.6,1.1-11.2,2.2
							c-3.6,1.1-7.1,2.6-10.5,4.5c-1.1,0.6-2.1,1.2-3.1,1.9c-1.5,1-3,2.1-4.4,3.2c-7.3,5.9-12.9,13.6-16.2,22.3
							C67.2,57.3,68.7,73.8,77.1,87.5L77.1,87.5z"/>
					</g>
				</g>
				<g>
					<g>
						<path class="st3" d="M84.5,99.1c32.9,20.4,75.7,2.5,76.3-35.6c0.4-25.9-25-46.2-50.3-44.8c-18.4,1-35.9,9.9-42.4,38.5
							c0,0-0.9,13.1,3.1,21.5s9.3,16.1,9.3,16.1L84.5,99.1z"/>
					</g>
				</g>
				<g class="st30">
					<g>
						<path class="st7" d="M160.7,63.5c-0.6,38.1-43.3,56-76.3,35.6l-0.8-0.9c35.4,4.4,69.5-18.1,70.8-56.6
							C158.5,48,160.8,55.5,160.7,63.5z"/>
					</g>
				</g>
				<g>
					<g>
						<path class="st1" d="M113,114.7c-0.5,0-0.9,0-1.4,0l-0.2,0c-2.9-0.6-5.8-1.4-8.6-2.4c-1-0.4-1.9-0.7-2.8-1.1
							c-1.8-0.8-3.6-1.7-5.4-2.6c-8.3-4.6-15.3-11.3-20.2-19.4l0,0C65.6,74.6,63.9,57,70,41.1c3.5-9.2,9.4-17.4,17.1-23.6l0.1-0.1
							l0.1-0.1c6.4-3.3,14-5.2,22.4-5.7c15.2-0.8,31.1,5.2,42.5,16.2c10.3,9.9,15.8,22.6,15.6,35.8c-0.2,14.3-5.6,26.9-15.4,36.3
							C142.4,109.5,128,114.9,113,114.7z M111.9,111.5c14.6,0.5,28.7-4.6,38.5-14c9.3-8.8,14.3-20.6,14.5-34
							c0.2-12.3-5-24.2-14.7-33.4C139.4,19.7,124.4,14,110,14.8c-8,0.4-15,2.2-21,5.3c-7.2,5.8-12.8,13.5-16,22.2
							c-5.7,15.1-4.2,31.6,4.2,45.3l0,0c4.6,7.6,11.2,13.9,19,18.3c1.7,0.9,3.4,1.8,5.1,2.5c0.8,0.3,1.6,0.7,2.6,1
							C106.5,110.3,109.2,111,111.9,111.5z"/>
					</g>
				</g>
				<g>
					<g>
						<path class="st1" d="M113.3,109.2c-10.1-0.1-20.4-3.1-29.6-8.8l-0.2-0.1l-4.3-4.6c-0.2-0.3-5.4-7.8-9.4-16.3
							c-4.1-8.7-3.3-21.8-3.2-22.3l0-0.2c5.6-25.1,20.4-38.4,43.8-39.7c13.6-0.7,27.8,4.7,38,14.5c9.2,8.8,14.1,20.2,13.9,31.9
							C162,80.6,153.4,95,138.8,103C130.9,107.3,122.2,109.3,113.3,109.2z M85.5,97.9c16.3,10,36.1,10.9,51.8,2.4
							c13.7-7.5,21.6-20.9,21.9-36.8c0.2-10.9-4.4-21.4-13-29.6c-9.6-9.2-22.9-14.3-35.6-13.6C88.7,21.5,75,33.9,69.6,57.4
							c-0.1,1.3-0.6,13.1,3,20.7c3.6,7.8,8.5,14.9,9.1,15.7L85.5,97.9z"/>
					</g>
				</g>
				<g>
					<g>
						<path class="st0" d="M184.8,59.9c1.1,10.6-4.2,20.1-12,21.3c-7.8,1.2-15-6.3-16.1-16.9c0-0.1,0-0.1,0-0.2
							c-1-10.5,4.3-19.9,12-21.1c6-0.9,11.7,3.4,14.4,10.2C184,55.3,184.5,57.5,184.8,59.9z"/>
					</g>
				</g>
				<g class="st2">
					<g>
						<path class="st3" d="M184.8,59.9c1.1,10.6-4.2,20.1-12,21.3c-7.8,1.2-15-6.3-16.1-16.9c0-0.1,0-0.1,0-0.2
							c1,0.9,2.4,1.8,4.2,1.2c3.1-1.1,8-8.8,8-8.8s6.2-1.5,14.3-3.3C184,55.3,184.5,57.5,184.8,59.9z"/>
					</g>
				</g>
				<g>
					<g>
						<path class="st1" d="M171,83c-2.8,0-5.4-1-7.9-2.9c-4.4-3.3-7.3-9-8-15.6c-1.2-11.4,4.8-21.7,13.3-23.1
							c3.5-0.5,6.9,0.4,9.9,2.7c4.4,3.3,7.3,9,8,15.6l0,0c1.2,11.4-4.8,21.7-13.3,23.1C172.3,82.9,171.6,83,171,83z M170.5,44.5
							c-0.5,0-1,0-1.5,0.1c-6.9,1.1-11.7,9.9-10.7,19.6c0.6,5.6,3.1,10.6,6.7,13.4c2.3,1.8,5,2.5,7.5,2.1
							c6.9-1.1,11.7-9.9,10.7-19.6c-0.6-5.6-3.1-10.6-6.7-13.4C174.6,45.2,172.5,44.5,170.5,44.5z"/>
					</g>
				</g>
				<g>
					<g>
						
							<ellipse transform="matrix(0.9999 -1.067997e-02 1.067997e-02 0.9999 -0.6653 1.8774)" class="st0" cx="175.5" cy="63.2" rx="11.6" ry="15.3"/>
					</g>
					<g>
						<path class="st1" d="M175.4,78.7c-1.1,0-2.1-0.2-3.2-0.6c-6.2-2.4-9.8-11-8-19.1c1-4.6,3.5-8.2,6.8-10
							c2.5-1.3,5.1-1.5,7.7-0.5c6.2,2.4,9.8,11,8,19.1c-1,4.6-3.5,8.2-6.8,10C178.5,78.3,177,78.7,175.4,78.7z M175.5,48.1
							c-1.5,0-3,0.4-4.4,1.1c-3.2,1.7-5.7,5.3-6.6,9.8c-1.7,8,1.8,16.4,7.8,18.8c2.5,1,5.1,0.8,7.4-0.5c3.2-1.7,5.7-5.3,6.6-9.8l0,0
							c1.7-8-1.8-16.4-7.8-18.8C177.5,48.3,176.5,48.1,175.5,48.1z"/>
					</g>
				</g>
				<g class="st2">
					<g>
						<path class="st3" d="M165.3,70.9c-1-2.7-1.3-5.7-0.9-8.6c2.8,6,8.8,7.9,13.9,4.2c3.3-2.4,5.4-6.6,6-11
							c0.2,0.4,0.3,0.8,0.5,1.2c2.6,6.9,0.3,15.7-5.1,19.6C174.3,80.2,167.9,77.8,165.3,70.9z"/>
					</g>
				</g>
				<g>
					<g>
						<path class="st1" d="M175.7,80.1c-2,0-4.1-0.8-5.9-2.2c-3.5-2.7-6-7.6-6.6-13.2c-1-9.6,3.5-17.9,10.3-19.1
							c2.6-0.4,5.2,0.3,7.5,2c3.5,2.7,6,7.6,6.6,13.2l0,0c1,9.6-3.5,17.9-10.3,19.1C176.8,80.1,176.3,80.1,175.7,80.1z M175.1,48.7
							c-0.3,0-0.7,0-1,0.1c-5,0.8-8.5,8-7.7,15.6c0.5,4.7,2.5,8.8,5.3,11c1.6,1.2,3.3,1.7,5.1,1.4c5-0.8,8.5-8,7.7-15.6
							c-0.5-4.7-2.5-8.8-5.3-11C177.9,49.2,176.5,48.7,175.1,48.7z"/>
					</g>
				</g>
				<g class="st5">
					<g>
						<path class="st0" d="M124.4,28.5c0,0-23.8,2.8-36.3,17.1c0,0,0,0,0,0c-2.6,3-4.4,6.7-5.1,10.5c-1,5.1-0.9,8.8-0.7,12.1
							c0.7,9.8,2.8,14.3,2.8,14.3c-6-4.8-9.6-10.5-10.2-18.7c-0.1-0.8-0.1-1.6-0.1-2.5c0-0.2,0-0.4,0-0.6c0,0,0,0,0,0
							c0.1-1.7,0.4-4,0.8-6.6c1.5-7.7,5.2-17.9,14.5-23.1C107.5,21.2,125.1,27.4,124.4,28.5z"/>
					</g>
				</g>
				<g class="st5">
					<g>
						
							<ellipse transform="matrix(0.9428 -0.3333 0.3333 0.9428 -9.307 50.122)" class="st0" cx="141.4" cy="52.2" rx="7.3" ry="8.4"/>
					</g>
				</g>
				<g class="st5">
					<g>
						
							<ellipse transform="matrix(0.9078 -0.4195 0.4195 0.9078 -14.468 68.4207)" class="st0" cx="148.4" cy="67.1" rx="3" ry="3.5"/>
					</g>
				</g>
			</g>
			<g>
				<g>
					<path class="st28" d="M110,165.2L36,163.7c-2.8-0.1-5.2-1.8-6.1-4.5l-1.3-3.7L7.6,94.4c-1.7-5,2.1-10.2,7.4-10.1l71.9,1.4
						c0.4,0,0.8,0,1.2,0.1c2.7,0.5,5,2.4,5.9,5.1l22.5,65.6C117.9,160.7,114.6,165.2,110,165.2z"/>
				</g>
			</g>
			<g>
				<g class="st2">
					<g>
						<path class="st3" d="M32.6,162.7l74,1.5c4.6,0.1,7.9-4.4,6.4-8.7L90.5,89.8c-0.5-1.3-1.3-2.5-2.3-3.4
							c3.1,12.5,7.7,38.4-1.4,53.1c-11,17.8-46.4,16.8-58.2,15.9l1.3,3.7c0.5,1.5,1.6,2.8,2.9,3.6C32.7,162.8,32.6,162.7,32.6,162.7
							z"/>
					</g>
				</g>
			</g>
			<g class="st6">
				<g>
					<path class="st0" d="M10.5,94.3l23.6,68.9c-1.8-0.7-3.2-2.1-3.8-4L8.1,94.4c-1.7-5,2.1-10.2,7.4-10.1l71.9,1.4
						c2.9,0.1,5.5,1.7,6.7,4.3c-0.2,0-0.4-0.1-0.7-0.1l-78.6-1.5C11.7,88.3,9.5,91.4,10.5,94.3z"/>
				</g>
			</g>
			<g>
				<g>
					<path class="st1" d="M110.1,166.6C110.1,166.6,110,166.6,110.1,166.6l-74.2-1.5c-3.4-0.1-6.4-2.3-7.5-5.4L6.3,94.9
						c-1-2.8-0.5-5.9,1.3-8.3c1.8-2.4,4.5-3.8,7.5-3.7c0,0,0,0,0.1,0l71.9,1.4c3.8,0.1,7.2,2.5,8.4,6.1l22.5,65.6
						c0.8,2.5,0.4,5.2-1.1,7.3C115.1,165.4,112.7,166.6,110.1,166.6z M110.1,163.7C110.1,163.7,110.1,163.7,110.1,163.7
						c1.7,0,3.3-0.8,4.3-2.1c1-1.4,1.3-3.1,0.7-4.7L92.6,91.3c-0.8-2.5-3.2-4.2-5.8-4.2L15,85.7c0,0,0,0,0,0c-2,0-3.9,0.9-5.1,2.6
						C8.6,89.9,8.3,92,9,93.9l22.2,64.8c0.7,2,2.6,3.5,4.8,3.5L110.1,163.7z"/>
				</g>
			</g>
			<g>
				<g>
					<path class="st1" d="M224,98.7c-0.4,0-0.8-0.3-0.9-0.7c-0.2-0.5,0.1-1.1,0.6-1.3c0.4-0.2,10.8-3.9,18.3-1.2
						c0.5,0.2,0.8,0.7,0.6,1.3c-0.2,0.5-0.7,0.8-1.3,0.6c-6.9-2.4-16.9,1.2-17,1.2C224.3,98.7,224.1,98.7,224,98.7z"/>
				</g>
			</g>
			<g>
				<g>
					<path class="st0" d="M186.8,104.7c0,0,23.1,25.4,7.6,38.1c-13.1,10.7-26.7-4-26.7-4s-1.6,4.8-6.4,6.8
						c-5.9,2.5-12.7-2.3-12.7-2.3s-2.6,6.7-7.7,4.6c-5.5-2.2-1.3-21.8,10-32.8c13-12.7,31.9-1.3,31.9-1.3"/>
				</g>
			</g>
			<g class="st2">
				<g>
					<path class="st3" d="M199.7,131.7c-0.1,4.1-1.6,8-5.4,11.1c-13.1,10.7-26.7-4-26.7-4s-1.6,4.8-6.4,6.8
						c-5.9,2.5-12.7-2.3-12.7-2.3s-2.6,6.7-7.7,4.6c-2.3-0.9-2.9-5-1.9-10.3c0,3.7,0.9,6.2,2.7,6.6c4.9,1.1,4.1-8,4.1-8
						s3.6,8.6,11.9,6c8.1-2.6,10.2-11,10.2-11s16.2,14.5,27.4,6.3C197.4,136,198.9,133.9,199.7,131.7z"/>
				</g>
			</g>
			<g>
				<g>
					<path class="st1" d="M187.1,104.4c1.3,0.9,2.4,2,3.5,3.2c1.1,1.1,2,2.4,3,3.6c1.8,2.5,3.4,5.2,4.7,8.1c0.3,0.7,0.6,1.5,0.9,2.2
						c0.3,0.8,0.5,1.5,0.8,2.3c0.5,1.5,0.8,3.1,1.1,4.7c0.2,1.6,0.3,3.3,0.1,4.9c-0.2,1.7-0.6,3.3-1.3,4.8c-0.4,0.7-0.7,1.5-1.3,2.2
						l-0.4,0.5l-0.2,0.3l-0.2,0.2l-0.8,0.9c-0.3,0.3-0.6,0.6-0.9,0.9c-0.3,0.3-0.6,0.6-0.9,0.8l-1,0.7c-0.3,0.3-0.7,0.5-1,0.7
						c-1.4,0.9-2.9,1.6-4.5,2.1c-1.6,0.5-3.3,0.7-5,0.6c-3.3-0.1-6.5-1.1-9.4-2.6c-1.4-0.8-2.8-1.6-4-2.6c-0.6-0.5-1.3-1-1.9-1.5
						c-0.6-0.5-1.2-1-1.8-1.7l2.4-0.5c-0.1,0.3-0.2,0.5-0.3,0.8c-0.1,0.2-0.2,0.5-0.4,0.7c-0.2,0.5-0.5,0.9-0.8,1.4
						c-0.6,0.9-1.3,1.7-2.1,2.4c-0.8,0.7-1.7,1.4-2.6,1.9c-0.5,0.2-1,0.5-1.5,0.7l-0.8,0.3l-0.8,0.2c-2.2,0.5-4.4,0.1-6.4-0.4
						c-1-0.3-2-0.7-2.9-1.1c-0.5-0.2-0.9-0.4-1.4-0.7c-0.5-0.3-0.9-0.5-1.4-0.8l2.2-0.7c-0.2,0.5-0.4,0.9-0.6,1.3
						c-0.2,0.4-0.5,0.8-0.8,1.2c-0.6,0.8-1.2,1.5-2.1,2.2c-0.8,0.6-1.9,1.1-3,1.2c-0.6,0.1-1.1,0.1-1.7,0c-0.6-0.1-1-0.2-1.5-0.5
						c-0.6-0.3-1.1-0.7-1.5-1.1l-0.3-0.3c-0.1-0.1-0.2-0.2-0.2-0.4l-0.2-0.4c-0.1-0.1-0.1-0.2-0.2-0.4c-0.4-1-0.6-2-0.7-2.9
						c-0.2-1.9,0-3.7,0.2-5.4c0.6-3.5,1.6-6.9,3-10.1c1.4-3.2,3.1-6.3,5.2-9.1c1-1.4,2.2-2.8,3.4-4.1c1.2-1.3,2.6-2.5,4.1-3.5
						c3-2.1,6.5-3.3,10.1-3.7c1.8-0.2,3.6-0.2,5.4-0.1c1.8,0.2,3.5,0.4,5.3,0.8c1.7,0.4,3.4,1,5,1.8c1.6,0.8,3.1,1.7,4.3,3
						c0.2,0.2,0.2,0.5,0,0.7c-0.1,0.1-0.3,0.2-0.5,0.1l0,0c-3.3-0.8-6.4-1.9-9.5-2.7c-1.6-0.4-3.2-0.8-4.8-0.9
						c-1.6-0.2-3.2-0.2-4.8,0c-3.2,0.4-6.2,1.4-8.8,3.2c-2.6,1.8-4.8,4.3-6.7,6.9c-1.9,2.6-3.5,5.5-4.8,8.6c-1.3,3-2.3,6.2-2.8,9.4
						c-0.2,1.6-0.4,3.2-0.2,4.7c0.1,0.8,0.2,1.5,0.5,2c0.3,0.6,0.6,0.9,0.9,1.1c1.2,0.5,2.3,0.4,3.4-0.4c0.5-0.4,1-0.9,1.4-1.5
						c0.2-0.3,0.4-0.6,0.6-0.9c0.2-0.3,0.4-0.7,0.5-1l0,0c0.3-0.7,1.1-1.1,1.9-0.8c0.1,0,0.2,0.1,0.3,0.1c0.3,0.2,0.7,0.5,1.1,0.7
						c0.4,0.2,0.8,0.4,1.2,0.6c0.8,0.4,1.6,0.7,2.5,0.9c1.7,0.5,3.4,0.7,5,0.4l0.6-0.1l0.6-0.2c0.4-0.1,0.8-0.3,1.1-0.5
						c0.7-0.4,1.4-0.9,2-1.5c0.6-0.6,1.2-1.2,1.6-1.9c0.2-0.4,0.5-0.7,0.7-1.1c0.1-0.2,0.2-0.4,0.3-0.6c0.1-0.2,0.2-0.4,0.2-0.5l0,0
						c0.3-0.8,1.1-1.1,1.9-0.9c0.2,0.1,0.4,0.2,0.6,0.4c0.4,0.5,1,1,1.6,1.5c0.6,0.5,1.1,0.9,1.7,1.4c1.2,0.9,2.4,1.7,3.7,2.3
						c2.5,1.4,5.3,2.2,8.1,2.3c1.4,0,2.8-0.1,4.1-0.5c1.3-0.4,2.6-1,3.8-1.7c0.3-0.2,0.6-0.4,0.9-0.6l0.8-0.6
						c0.3-0.2,0.5-0.5,0.8-0.7c0.2-0.2,0.5-0.5,0.7-0.7l0.7-0.8l0.2-0.2l0.1-0.2l0.3-0.4c0.4-0.5,0.7-1.2,1-1.8c0.5-1.3,0.9-2.6,1-4
						c0.1-1.4,0.1-2.8-0.1-4.2c-0.4-2.8-1.4-5.6-2.7-8.3c-1.3-2.7-2.7-5.3-4.3-7.8c-1.6-2.5-3.2-5.1-4.7-7.7l0,0
						c-0.1-0.2-0.1-0.5,0.2-0.7C186.8,104.3,187,104.3,187.1,104.4z"/>
				</g>
			</g>
			<g>
				<g>
					<path class="st1" d="M145.9,135.6c0.5,1.4,1,2.7,1.6,3.8c0.3,0.6,0.7,1.1,1,1.6c0.3,0.5,0.7,0.9,1,1.5l0.1,0.1
						c0.4,0.6,0.2,1.3-0.4,1.7c-0.4,0.3-1,0.2-1.4,0c-0.7-0.5-1.2-1.2-1.6-1.9c-0.4-0.7-0.6-1.5-0.8-2.3c-0.2-0.8-0.2-1.5-0.2-2.3
						c0-0.8,0.1-1.5,0.3-2.3c0-0.1,0.1-0.2,0.2-0.1C145.8,135.5,145.9,135.5,145.9,135.6L145.9,135.6z"/>
				</g>
			</g>
			<g>
				<g>
					<path class="st1" d="M168.3,131c0.4,0.6,0.6,1.3,0.8,1.9c0.2,0.7,0.3,1.4,0.4,2.1c0.1,0.7,0.1,1.4,0,2.1
						c-0.1,0.7-0.2,1.3-0.5,2c-0.3,0.6-1,0.9-1.7,0.6c-0.5-0.2-0.7-0.7-0.7-1.2l0-0.1c0-0.6,0.1-1.2,0.3-1.8
						c0.1-0.6,0.3-1.2,0.4-1.8c0.1-0.6,0.3-1.2,0.4-1.9c0.1-0.6,0.2-1.3,0.3-1.9l0,0c0-0.1,0.1-0.2,0.2-0.2
						C168.2,130.9,168.2,131,168.3,131z"/>
				</g>
			</g>
			<g>
				<g>
					<path class="st1" d="M188.4,147.4c-0.2,0-0.4-0.1-0.6-0.2c-0.6-0.4-0.8-1.1-0.4-1.7c7.9-12.8-11-33-11.2-33.2
						c-0.5-0.5-0.4-1.3,0-1.7c0.5-0.5,1.3-0.4,1.7,0c0.8,0.9,20.3,21.8,11.5,36.2C189.3,147.1,188.9,147.4,188.4,147.4z"/>
				</g>
			</g>
		</g>
		<g>
			<g>
				<polygon class="st3" points="61.9,126.9 60.8,123.5 63.5,114.9 70.9,114.8 67.4,124.3 78.2,135.1 69.8,135.2 				"/>
				<path class="st1" d="M69.1,116l-3.2,8.5l9.4,9.3l-5,0.1l-7.4-7.7l-0.9-2.7l2.3-7.4L69.1,116 M72.7,113.5l-3.6,0l-4.7,0.1l-1.8,0
					l-0.5,1.7l-2.3,7.4l-0.2,0.7l0.2,0.7l0.9,2.7l0.2,0.5l0.4,0.4l7.4,7.7l0.7,0.8l1.1,0l5-0.1l5.8-0.1l-4.1-4.1l-8.2-8.2l2.6-7
					L72.7,113.5L72.7,113.5z"/>
			</g>
			<g>
				<polygon class="st15" points="48.9,126.1 38,115.3 46.4,115.1 54.4,123.4 55.5,126.8 52.8,135.4 45.4,135.5 				"/>
				<path class="st1" d="M45.9,116.4l7.4,7.7l0.9,2.7l-2.3,7.4l-4.7,0.1l3.2-8.5l-9.4-9.3L45.9,116.4 M47,113.9l-1.1,0l-5,0.1
					l-5.8,0.1l4.1,4.1l8.2,8.2l-2.6,7.1l-1.3,3.4l3.6-0.1l4.7-0.1l1.8,0l0.5-1.7l2.3-7.4l0.2-0.7l-0.2-0.7l-0.9-2.7l-0.2-0.5
					l-0.4-0.4l-7.4-7.7L47,113.9L47,113.9z"/>
			</g>
			<g>
				<polygon class="st11" points="63,142.3 57.6,150.5 54.8,141.7 59.9,135 63.1,135 72.1,141.4 75.2,151.4 				"/>
				<path class="st1" d="M62.7,136.2l8.3,5.9l1.9,6l-10.2-7.6l-4.7,7.2l-1.8-5.8l4.3-5.7L62.7,136.2 M63.5,133.8l-0.8,0l-2.3,0
					l-1.2,0l-0.7,1l-4.3,5.7l-0.8,1l0.4,1.2l1.8,5.8l1.6,4.9L60,149l3.3-5l8.1,6.1l6.1,4.6l-2.3-7.3l-1.9-6l-0.2-0.8l-0.7-0.5
					l-8.3-5.9L63.5,133.8L63.5,133.8z"/>
			</g>
			<g>
				<polygon class="st16" points="44.2,109 41,99 53.2,108.1 58.6,99.8 61.4,108.6 56.4,115.3 53.1,115.4 				"/>
				<path class="st1" d="M43.3,102.2l10.2,7.6l4.7-7.2l1.8,5.8l-4.3,5.7l-2.3,0l-8.3-5.9L43.3,102.2 M38.7,95.7L41,103l1.9,6
					l0.2,0.8l0.7,0.5l8.3,5.9l0.7,0.5l0.8,0l2.3,0l1.2,0l0.7-1l4.3-5.7l0.8-1l-0.4-1.2l-1.8-5.8L59,97l-2.8,4.3l-3.3,5l-8.1-6.1
					L38.7,95.7L38.7,95.7z"/>
			</g>
		</g>
		<g>
			<path class="st0" d="M86.4,32.2c-5.1,0.3-10,2.6-13.6,6.2c-0.4,0.4-1-0.1-0.8-0.6c1.4-2.9,4-6.1,6.4-7.1c2.7-1.1,5.6-0.6,8.1,0.7
				C86.9,31.6,86.8,32.2,86.4,32.2z"/>
			<g>
				<path class="st0" d="M97.9,45.5c-3.1-4.2-8.3-6.6-13.4-6.4c-5.1,0.2-10,3.1-12.8,7.5c-3.3,5.1-3.5,12.2-0.6,17.5
					c2.9,5.3,8.9,8.7,14.9,8.4c5.9-0.3,11.6-4.3,14-10C102.3,57.1,101.5,50.2,97.9,45.5z"/>
				<path class="st25" d="M97.5,45.9c0,0-0.3-0.3-0.8-0.8c-0.3-0.3-0.6-0.6-1-0.9c-0.4-0.3-0.8-0.7-1.4-1.1
					c-0.6-0.4-1.2-0.8-1.9-1.1c-0.7-0.4-1.5-0.7-2.4-1c-1.8-0.5-3.9-0.9-6.1-0.7c-0.6,0.1-1.2,0.1-1.8,0.2c-0.6,0.1-1.1,0.2-1.7,0.4
					c-0.6,0.2-1.2,0.4-1.7,0.7c-0.6,0.3-1.2,0.5-1.7,0.9c-2.2,1.4-4.2,3.4-5.6,6c-1.3,2.5-2,5.6-1.8,8.7c0.2,3.1,1.1,6.2,3.1,8.8
					c1.9,2.5,4.6,4.4,7.6,5.5c2.9,1.1,6.2,1.2,9,0.3c2.8-0.8,5.3-2.5,7.2-4.4c1.8-2,3.2-4.2,3.8-6.6c0.2-0.6,0.2-1.1,0.4-1.7
					c0.1-0.3,0.1-0.5,0.2-0.8c0-0.3,0-0.5,0-0.8c0-0.5,0.1-1.1,0.1-1.6c0-0.5-0.1-1-0.1-1.5c0-1-0.3-1.8-0.4-2.6
					c-0.3-0.8-0.5-1.5-0.7-2.1c-0.3-0.6-0.6-1.2-0.8-1.6c-0.2-0.5-0.5-0.8-0.7-1.1C97.6,46.2,97.4,45.9,97.5,45.9L97.5,45.9z
					 M98.4,45.2c0,0,0.2,0.4,0.6,1c0.2,0.3,0.5,0.7,0.7,1.2c0.2,0.5,0.5,1.1,0.8,1.8c0.2,0.7,0.5,1.5,0.7,2.3
					c0.1,0.9,0.4,1.8,0.4,2.8c0,0.5,0.1,1,0.1,1.6c0,0.5-0.1,1.1-0.1,1.7c0,0.3,0,0.6-0.1,0.9c-0.1,0.3-0.1,0.6-0.2,0.9
					c-0.1,0.6-0.2,1.2-0.4,1.8c-0.6,2.4-2.1,4.8-4,6.9c-2,2.1-4.6,3.7-7.6,4.6l-1.2,0.3L87.1,73c-0.4,0-0.7,0.1-1.2,0.1l-1.2,0
					c-0.4,0-0.8,0-1.2-0.1l-1.2-0.2c-0.8-0.1-1.6-0.4-2.3-0.7c-3.1-1.1-5.8-3.2-7.9-5.8c-2-2.6-3.3-5.8-3.6-9.1
					c-0.3-3.3,0.1-6.6,1.5-9.5c1.3-2.9,3.4-5.4,5.9-7c0.6-0.4,1.3-0.8,1.9-1.1c0.6-0.4,1.3-0.6,2-0.9c0.6-0.3,1.4-0.4,2.1-0.6
					c0.7-0.2,1.3-0.2,1.9-0.3l0.4-0.1l0.2,0l0.1,0l0.1,0l0.1,0c0.3,0,0.6,0,1,0c0.3,0,0.6,0,0.9,0c0.3,0,0.6,0.1,0.9,0.1
					c1.2,0.1,2.3,0.5,3.3,0.9c1,0.5,1.9,0.8,2.6,1.4c0.8,0.5,1.4,1,2,1.5c0.6,0.4,1,1,1.4,1.4c0.4,0.4,0.7,0.8,0.9,1.1
					C98.1,44.8,98.3,45.1,98.4,45.2L98.4,45.2z"/>
			</g>
			<path class="st25" d="M94.8,48.3c-2.4-3.1-6.2-5-10-4.8c-3.8,0.2-7.5,2.3-9.6,5.6c-2.5,3.9-2.6,9.1-0.4,13.2s6.7,6.5,11.2,6.3
				c4.5-0.2,8.7-3.3,10.5-7.5C98.1,57,97.5,51.9,94.8,48.3z"/>
			<path class="st26" d="M99.6,62.1c0.6-1.4,0.9-2.8,1.1-4.2c-0.2,0.7-0.6,1.6-0.8,2.3c-2.4,5.7-8,9.8-13.9,10.2
				c-5.9,0.3-11.9-3.1-14.8-8.5c-0.7-1.3-1.2-2.7-1.5-4.1c0.2,2.2,0.7,4.3,1.7,6.2c2.9,5.3,8.8,8.7,14.6,8.4
				C91.7,71.9,97.3,67.7,99.6,62.1z"/>
			<path class="st0" d="M128.6,31.5c5.1,0.4,9.9,2.8,13.4,6.5c0.4,0.4,1,0,0.8-0.5c-1.3-2.9-3.8-6.2-6.2-7.2
				c-2.6-1.1-5.6-0.8-8.2,0.5C128.1,30.9,128.2,31.5,128.6,31.5z"/>
			<path class="st0" d="M87.1,50.8c0,2.7-2.3,4.8-5.1,4.8c-2.8,0-5-2.2-5-4.9c0-2.7,2.3-4.8,5.1-4.8C84.9,46,87.1,48.2,87.1,50.8z"
				/>
			<path class="st0" d="M94.2,59.3c0,2.1-1.8,3.7-3.9,3.7c-2.1,0-3.8-1.7-3.8-3.8c0-2.1,1.8-3.7,3.9-3.7
				C92.5,55.6,94.2,57.3,94.2,59.3z"/>
			<path class="st0" d="M83.1,61c0,1.6-1.4,3-3.1,2.9c-1.7,0-3.1-1.4-3.1-3c0-1.6,1.4-3,3.1-2.9C81.7,58,83.1,59.4,83.1,61z"/>
			<g>
				<path class="st0" d="M142.3,46.1c-3.1-4.2-8.3-6.6-13.4-6.4c-5.1,0.2-10,3.1-12.8,7.5c-3.3,5.1-3.5,12.2-0.6,17.5
					c3,5.3,8.9,8.7,14.9,8.4c5.9-0.3,11.6-4.3,14-10C146.7,57.6,145.8,50.8,142.3,46.1z"/>
				<path class="st25" d="M141.8,46.5c0,0-0.3-0.3-0.8-0.8c-0.3-0.3-0.6-0.6-1-0.9c-0.4-0.3-0.8-0.7-1.4-1.1
					c-0.6-0.4-1.2-0.8-1.9-1.1c-0.7-0.4-1.5-0.7-2.4-1c-1.8-0.5-3.9-0.9-6.1-0.7c-0.6,0.1-1.2,0.1-1.8,0.2c-0.6,0.1-1.1,0.2-1.7,0.4
					c-0.6,0.2-1.2,0.4-1.7,0.7c-0.6,0.3-1.2,0.5-1.7,0.9c-2.2,1.4-4.2,3.4-5.6,6c-1.3,2.5-2,5.6-1.8,8.7c0.2,3.1,1.1,6.2,3.1,8.8
					c1.9,2.5,4.6,4.4,7.6,5.5c2.9,1.1,6.2,1.2,9,0.3c2.8-0.8,5.3-2.5,7.2-4.4c1.8-2,3.2-4.2,3.8-6.6c0.2-0.6,0.2-1.1,0.4-1.7
					c0.1-0.3,0.1-0.5,0.2-0.8c0-0.3,0-0.5,0-0.8c0-0.5,0.1-1.1,0.1-1.6c0-0.5-0.1-1-0.1-1.5c0-1-0.3-1.8-0.4-2.6
					c-0.3-0.8-0.5-1.5-0.7-2.1c-0.3-0.6-0.6-1.2-0.8-1.6c-0.2-0.5-0.5-0.8-0.7-1.1C142,46.8,141.8,46.4,141.8,46.5L141.8,46.5z
					 M142.7,45.7c0,0,0.2,0.4,0.6,1c0.2,0.3,0.5,0.7,0.8,1.2c0.2,0.5,0.5,1.1,0.8,1.8c0.2,0.7,0.5,1.5,0.7,2.3
					c0.1,0.9,0.4,1.8,0.4,2.8c0,0.5,0.1,1,0.1,1.6c0,0.5-0.1,1.1-0.1,1.7c0,0.3,0,0.6-0.1,0.9c-0.1,0.3-0.1,0.6-0.2,0.9
					c-0.1,0.6-0.2,1.2-0.4,1.8c-0.6,2.4-2.1,4.8-4,6.9c-2,2.1-4.6,3.7-7.6,4.6l-1.2,0.3l-1.1,0.2c-0.4,0-0.7,0.1-1.2,0.1l-1.2,0
					c-0.4,0-0.8,0-1.2-0.1l-1.2-0.2c-0.8-0.1-1.6-0.4-2.3-0.7c-3.1-1.1-5.8-3.2-7.9-5.8c-2-2.6-3.3-5.8-3.6-9.1
					c-0.3-3.3,0.1-6.6,1.5-9.5c1.3-2.9,3.4-5.4,5.9-7c0.6-0.4,1.3-0.8,1.9-1.1c0.6-0.4,1.3-0.6,2-0.9c0.6-0.3,1.4-0.4,2.1-0.6
					c0.7-0.2,1.3-0.2,1.9-0.3l0.4-0.1l0.2,0l0.1,0l0.1,0l0.1,0c0.3,0,0.6,0,1,0c0.3,0,0.6,0,0.9,0c0.3,0,0.6,0.1,0.9,0.1
					c1.2,0.1,2.3,0.5,3.3,0.9c1,0.5,1.9,0.8,2.6,1.4c0.8,0.5,1.4,1,2,1.5c0.6,0.4,1,1,1.4,1.4c0.4,0.4,0.7,0.8,0.9,1.1
					C142.5,45.4,142.7,45.7,142.7,45.7L142.7,45.7z"/>
			</g>
			<path class="st25" d="M139.2,48.9c-2.4-3.1-6.2-5-10-4.8c-3.8,0.2-7.5,2.3-9.6,5.6c-2.5,3.9-2.6,9.1-0.4,13.2
				c2.2,4,6.7,6.5,11.2,6.3c4.5-0.2,8.7-3.3,10.5-7.5C142.5,57.5,141.9,52.4,139.2,48.9z"/>
			<path class="st26" d="M144,62.7c0.6-1.4,0.9-2.8,1.1-4.2c-0.2,0.7-0.6,1.6-0.8,2.3c-2.4,5.7-8,9.8-13.9,10.2
				c-5.9,0.3-11.9-3.1-14.8-8.5c-0.7-1.3-1.2-2.7-1.5-4.1c0.2,2.2,0.7,4.3,1.7,6.2c2.9,5.3,8.8,8.7,14.6,8.4
				C136,72.5,141.7,68.2,144,62.7z"/>
			<path class="st0" d="M131.4,51.4c0,2.7-2.3,4.8-5.1,4.8c-2.8,0-5-2.2-5-4.9c0-2.7,2.3-4.8,5.1-4.8
				C129.2,46.5,131.5,48.7,131.4,51.4z"/>
			
				<ellipse transform="matrix(1.271669e-02 -0.9999 0.9999 1.271669e-02 73.1577 193.7559)" class="st0" cx="134.7" cy="59.8" rx="3.7" ry="3.9"/>
			
				<ellipse transform="matrix(1.271669e-02 -0.9999 0.9999 1.271669e-02 61.1974 185.0926)" class="st0" cx="124.3" cy="61.6" rx="3" ry="3.1"/>
		</g>
	</g>
</g>
</svg>
