<?xml version="1.0" encoding="utf-8"?>
<!-- Generator: Adobe Illustrator 27.2.0, SVG Export Plug-In . SVG Version: 6.00 Build 0)  -->
<svg version="1.1" xmlns="http://www.w3.org/2000/svg" xmlns:xlink="http://www.w3.org/1999/xlink" x="0px" y="0px"
	 viewBox="0 0 157.9 214.5" style="enable-background:new 0 0 157.9 214.5;" xml:space="preserve">
<style type="text/css">
	.st0{fill:#FFFFFF;}
	.st1{fill:#15264B;}
	.st2{opacity:0.35;}
	.st3{fill:#274B8B;}
	.st4{fill:#0F3747;}
	.st5{opacity:0.5;}
	.st6{opacity:0.4;}
	.st7{fill:#183E75;}
	.st8{opacity:0.2;}
	.st9{fill:#38276B;}
	.st10{fill:#44AC34;}
	.st11{fill:#00983A;}
	.st12{fill:#FCF8FB;}
	.st13{opacity:0.7;}
	.st14{fill:#94613F;}
	.st15{fill:#FFD100;}
	.st16{fill:#EA5B0C;}
	.st17{fill:#D3D5ED;}
	.st18{fill:#D8D8D8;}
	.st19{fill:#121A28;}
	.st20{fill:#E5E1D4;}
	.st21{opacity:0.25;}
	.st22{opacity:0.6;}
	.st23{fill:#FFD346;}
	.st24{fill:#FFDA36;}
	.st25{fill:#1E1E1C;}
	.st26{fill:#EEEDED;}
	.st27{opacity:0.3;}
	.st28{fill:#407FC1;}
	.st29{fill:#B0B3B1;}
	.st30{opacity:0.8;}
	.st31{fill:#E5E5E4;}
	.st32{fill:#BCBCBB;}
	.st33{fill:#E72D47;}
	.st34{fill:#F7A710;}
	.st35{fill:#F2EFEC;}
	.st36{fill:#F9B116;}
	.st37{fill:#F38F1C;}
	.st38{fill:none;stroke:#2A3856;stroke-width:2.1963;stroke-linecap:round;stroke-miterlimit:10;}
	.st39{fill:#D66C12;}
	.st40{fill:#FFD767;}
	.st41{fill:#F7A83D;}
	.st42{fill:#FECF70;}
	.st43{fill:#FFED91;}
	.st44{opacity:0.41;}
	.st45{opacity:0.26;}
	.st46{fill:none;}
	.st47{fill:#261E26;}
	.st48{fill:#E30613;}
	.st49{fill:#E9E8E8;}
	.st50{fill:#4A92CF;}
	.st51{fill:#386EB5;}
	.st52{fill:#B6B6B7;}
	.st53{fill:#DDDDDD;}
	.st54{fill:#FDC423;}
	.st55{fill:#E2A415;}
	.st56{fill:#F9B044;}
	.st57{fill:#EB5759;}
	.st58{fill:#E5201F;}
	.st59{fill:none;stroke:#FFFFFF;stroke-width:2.3076;stroke-linecap:round;stroke-miterlimit:10;}
	.st60{fill:#EDC5D6;}
	.st61{fill:#4A153F;}
	.st62{fill:#E9C8D2;}
	.st63{fill:#DFB0BE;}
	.st64{fill:#D6D6EA;}
	.st65{fill:#BDBDE0;}
	.st66{fill:#232323;}
	.st67{fill:#A7ABCC;}
	.st68{fill:#EDCCA9;}
	.st69{fill:#492311;}
	.st70{fill:#2A3856;}
	.st71{fill:#05646E;}
	.st72{fill:#F28D70;}
	.st73{fill:#BEC5CA;}
	.st74{fill:#54767A;}
</style>
<g id="Fondo">
</g>
<g id="Grafica">
</g>
<g id="Informazioni">
	<g>
		<g>
			<g>
				<path class="st0" d="M115.1,102.8v45.6c0,6.1-4.9,11-11,11H56c-6.1,0-11-4.9-11-11v-45.6c0-2.6,0.9-4.9,2.4-6.8c0,0,0,0,0-0.1
					c1.1-1.4,2.6-2.6,4.3-3.3c1.3-0.6,2.8-0.9,4.3-0.9h48.1c1.5,0,3,0.3,4.3,0.9c1.1,0.5,2.1,1.1,2.9,1.9c0.1,0.1,0.2,0.2,0.3,0.3
					C113.8,96.8,115.1,99.7,115.1,102.8z"/>
			</g>
			<g>
				<path class="st1" d="M105,160.7H55.1c-6.2,0-11.3-5.1-11.3-11.3V102c0-6.2,5.1-11.3,11.3-11.3H105c6.2,0,11.3,5.1,11.3,11.3
					v47.4C116.3,155.6,111.2,160.7,105,160.7z M55.1,93c-4.9,0-8.9,4-8.9,8.9v47.4c0,4.9,4,8.9,8.9,8.9H105c4.9,0,8.9-4,8.9-8.9V102
					c0-4.9-4-8.9-8.9-8.9H55.1z"/>
			</g>
			<g>
				<path class="st0" d="M124.4,128.2c-13.3,1.8-22.9-8.6-22.9-8.6l-1.9-15.2l-1.7-13.7c0,0,18.3,16.3,24.1,5.3
					c0.9-1.7,1.5-4.1,1.7-7.4c0-0.3,0-0.6,0-0.9l0.1,0l20.2,6.8C143.9,94.7,146.4,125.2,124.4,128.2z"/>
			</g>
			<g class="st21">
				<path class="st3" d="M124.4,128.2c-13.3,1.8-22.9-8.6-22.9-8.6l-1.9-15.2l3.9-1c0,0,2.3,12.2,14.3,15.7
					c11.9,3.4,14-3.6,11.8-6.8c-2.6-3.8-8.5-7.3-7.7-16.3c0.1-1.5,0.5-3.2,1-5c0.3-0.9,0.5-1.6,0.6-2.4c0.1-0.3,0.1-0.5,0.2-0.8
					l20.2,6.8C143.9,94.7,146.4,125.2,124.4,128.2z"/>
			</g>
			<g>
				<path class="st1" d="M121.3,129.6c-12,0-20.3-8.8-20.7-9.2c-0.4-0.5-0.4-1.2,0.1-1.7c0.5-0.4,1.2-0.4,1.7,0.1
					c0.1,0.1,9.4,9.9,21.9,8.2c8.6-1.2,14.3-6.9,17-17c1.7-6.3,1.6-12.5,1.5-14.6l-18.1-6.1c-0.4,5.8-2.3,9.5-5.6,10.9
					c-8.1,3.5-21.4-8.2-22-8.7c-0.5-0.4-0.5-1.2-0.1-1.7c0.4-0.5,1.2-0.5,1.7-0.1c3.5,3.1,13.9,10.8,19.5,8.3
					c2.7-1.2,4.1-4.7,4.3-10.4l0-1.6l22.6,7.6l0.1,0.8c0,0.3,0.6,7.9-1.5,16.1c-2.9,11-9.5,17.5-19,18.7
					C123.4,129.5,122.3,129.6,121.3,129.6z"/>
			</g>
			<g>
				<g>
					<path class="st0" d="M33.9,143.4c0,0-3.6,11.3,8.3,13.7c2.1,0.4,4.2,0.3,6-0.4c7.9-2.9,11.7-15.1,1.3-27.2
						c-0.5-0.6-1.1-1.3-1.8-1.9c0,0-0.1-0.1-0.1-0.1c0,0,0.5-0.9,2.3-2.2c1.1-0.8,2.7-1.8,4.9-2.7l4.3-13l0,0l5.4-16.4
						c0,0-4.2,1.4-9.6,3.9c-2.3,1-4.8,2.2-7.2,3.6c0,0-1.2,0.6-3,1.8C35.3,108.2,8.6,127.4,33.9,143.4z"/>
				</g>
				<g class="st21">
					<path class="st3" d="M56.1,112l-1.3,10.6c-5.8,2.5-7.2,4.9-7.2,4.9c0,0,0.1,0.1,0.1,0.1c-1.5-1.3-3.6-2.7-5.8-3.5
						c0,0,4-2.2,5.3-3.8c5.8-6.8,4.3-10.8,9.7-10.1C57.8,110.2,56.7,110.8,56.1,112z"/>
				</g>
				<g>
					<path class="st1" d="M44.4,158.5c-0.8,0-1.7-0.1-2.5-0.3c-3.9-0.8-6.7-2.6-8.3-5.3c-2-3.4-1.5-7.3-1.1-9
						c-7.1-4.7-10.6-10.2-10.4-16.2c0.5-14.9,24-27.7,25-28.2c8.3-4.6,16.9-7.5,17-7.6c0.6-0.2,1.3,0.1,1.5,0.7
						c0.2,0.6-0.1,1.3-0.7,1.5c-0.1,0-8.5,2.9-16.6,7.4c-0.2,0.1-23.2,12.7-23.7,26.2c-0.2,5.3,3.2,10.2,10,14.6l0.8,0.5l-0.3,0.9
						c0,0-1.4,4.5,0.7,8c1.2,2.1,3.5,3.5,6.7,4.2c4.4,0.9,8.5-1.1,10.7-5.1c2.7-5,2.5-13.6-6.3-22.6l-0.6-0.6l0.5-0.8
						c0.1-0.2,1.6-2.5,6.6-4.9c0.6-0.3,1.3,0,1.6,0.6c0.3,0.6,0,1.3-0.6,1.6c-2.8,1.3-4.3,2.6-5.1,3.3c9,9.6,9,18.9,5.9,24.5
						C52.9,156.1,48.8,158.5,44.4,158.5z"/>
				</g>
				<g>
					<path class="st1" d="M34.7,142.5c0.5,0.3,0.9,0.5,1.4,0.8c0.5,0.3,0.9,0.6,1.4,0.8l2.8,1.7c-0.6,0-1.1-0.1-1.7-0.2
						c-0.6-0.1-1.1-0.2-1.7-0.3c-0.5-0.1-1.1-0.3-1.6-0.5c-0.5-0.2-1.1-0.3-1.6-0.6L34.7,142.5z"/>
				</g>
				<g class="st21">
					<path class="st3" d="M42.1,157.1c-11.7-2.4-8.3-13.4-8.3-13.7l0,0c0,0,2,10.9,12.6,7.9c6.8-1.9,6.2-11.5,4.9-18.1
						c0.1-0.3,0.2-0.5,0.3-0.8c0,0,0,0,0,0C61.1,146.3,52.8,159.3,42.1,157.1z"/>
				</g>
				<g>
					<path class="st1" d="M25.9,137.4c-0.6,0-1.2-0.5-1.2-1.2c0-3.5,2.8-7,7.3-9.1c5-2.3,12.6-3,18.9,2.3c0.5,0.4,0.6,1.2,0.1,1.6
						c-0.4,0.5-1.2,0.6-1.6,0.1c-5.5-4.6-12.1-4-16.4-2c-3.6,1.7-5.9,4.4-5.9,7C27.1,136.9,26.6,137.4,25.9,137.4
						C25.9,137.4,25.9,137.4,25.9,137.4z"/>
				</g>
				<g>
					<path class="st1" d="M47.3,128.3c-0.4-0.4-0.8-0.8-1.2-1.2c-0.4-0.4-0.9-0.8-1.3-1.2c-0.9-0.7-1.8-1.5-2.9-2
						c1.2,0.3,2.3,0.7,3.4,1.2c0.6,0.2,1.1,0.5,1.7,0.8c0.5,0.3,1.1,0.5,1.6,0.9L47.3,128.3z"/>
				</g>
			</g>
			<g>
				<path class="st1" d="M70.1,196.5c-0.2,0-0.4-0.1-0.6-0.2c-5.7-3.6-14.1-2-14.2-2c-0.6,0.1-1.2-0.3-1.4-0.9
					c-0.1-0.6,0.3-1.2,0.9-1.4c0.4-0.1,9.4-1.8,15.9,2.3c0.5,0.3,0.7,1.1,0.4,1.6C70.9,196.3,70.5,196.5,70.1,196.5z"/>
			</g>
			<g>
				<path class="st0" d="M103.4,103.5c3.3,15.7,8.4,37.1,6.2,58.3c-1.4,13.6-4.5,31.4-4.5,31.4s9,3,8.4,9.4c0,0.2,0.4,6.9-17.4,6.2
					c-7.6-0.3-12.7-1.7-14.5-5.7c-1.6-3.6-1.4-19.4-1.4-19.4v-22.4h0v22.4c0,0,0.2,15.8-1.4,19.4c-1.8,4-6.1,5.4-13.7,5.7
					c-17.8,0.7-18.3-6-18.3-6.2c-0.6-6.4,8.4-9.4,8.4-9.4s-3-17.9-4.5-31.4c-2.3-21.7,3-43.7,6.4-59.4"/>
			</g>
			<g>
				<path class="st1" d="M104,103.4c2.4,7.2,3.7,14.7,5,22.1c1.3,7.5,2.2,15.1,2.4,22.7c0,1.9,0,3.8,0,5.7c-0.1,1.9-0.2,3.8-0.3,5.7
					c-0.2,1.9-0.4,3.8-0.6,5.7c-0.2,1.9-0.5,3.8-0.7,5.6c-0.5,3.8-1.1,7.5-1.6,11.2c-0.6,3.7-1.2,7.5-1.9,11.2l-0.8-1.3l0,0
					c0.5,0.2,1,0.4,1.4,0.6c0.5,0.2,0.9,0.4,1.4,0.7c0.9,0.5,1.8,1,2.6,1.7c0.8,0.6,1.6,1.4,2.2,2.3c0.6,0.9,1.2,1.9,1.4,3
					c0.1,0.6,0.2,1.1,0.2,1.7c0,0.1,0,0.3,0,0.4l0,0.2l0,0l0,0c0,0,0,0,0,0l0,0.1c0,0.3-0.1,0.7-0.2,1c-0.4,1.2-1.1,2.2-2,2.9
					c-0.9,0.7-1.8,1.2-2.8,1.6c-1,0.4-1.9,0.7-2.9,0.9c-2,0.4-3.9,0.6-5.9,0.7c-2,0.1-3.9,0.1-5.9,0c-1.9-0.1-3.9-0.3-5.9-0.7
					c-1-0.2-2-0.5-2.9-0.8c-1-0.4-1.9-0.8-2.8-1.4c-0.9-0.6-1.7-1.4-2.3-2.3c-0.2-0.2-0.3-0.5-0.4-0.7l-0.2-0.4
					c-0.1-0.1-0.1-0.3-0.2-0.4c-0.2-0.5-0.3-1.1-0.4-1.6c-0.4-2-0.5-3.9-0.7-5.9c-0.2-3.9-0.3-7.7-0.3-11.6l0-23l1.2,1.2h0l1.2-1.2
					l0,22.9c0,3.8,0,7.7-0.3,11.5c-0.1,1.9-0.3,3.9-0.7,5.9c-0.1,0.5-0.2,1-0.4,1.5l-0.2,0.4c-0.1,0.1-0.1,0.2-0.2,0.4
					c-0.1,0.2-0.3,0.5-0.4,0.7c-0.6,0.9-1.4,1.8-2.2,2.4c-0.9,0.6-1.8,1.1-2.8,1.5c-1,0.4-2,0.6-2.9,0.8c-2,0.4-3.9,0.5-5.9,0.6
					c-1.9,0.1-3.9,0.1-5.8,0c-2-0.1-3.9-0.4-5.9-0.8c-1-0.2-1.9-0.5-2.9-0.9c-1-0.4-1.9-0.9-2.7-1.6c-0.9-0.7-1.6-1.6-2.1-2.7
					c-0.1-0.3-0.2-0.6-0.3-0.9l0-0.1l0-0.1l0-0.2c0-0.1,0-0.3,0-0.4c0-0.6,0.1-1.1,0.2-1.7c0.3-1.1,0.8-2.1,1.4-3
					c0.6-0.9,1.4-1.6,2.2-2.3c0.8-0.6,1.7-1.2,2.6-1.7c0.4-0.2,0.9-0.5,1.4-0.7c0.5-0.2,0.9-0.4,1.4-0.6l0,0l-0.8,1.3
					c-0.7-3.8-1.3-7.6-1.9-11.3c-0.6-3.8-1.2-7.6-1.7-11.4c-0.3-1.9-0.5-3.8-0.7-5.7l-0.3-2.9c-0.1-1-0.2-1.9-0.3-2.9
					c-0.3-3.9-0.4-7.7-0.3-11.6c0.2-7.7,1.2-15.4,2.5-23c0.7-3.8,1.4-7.6,2.2-11.3c0.4-1.9,0.8-3.7,1.3-5.6c0.5-1.9,1-3.7,1.7-5.5
					c0.1-0.3,0.4-0.5,0.8-0.4c0.3,0.1,0.4,0.3,0.4,0.6c-0.2,1.9-0.4,3.8-0.8,5.7c-0.3,1.9-0.7,3.8-1.1,5.6
					c-0.8,3.7-1.5,7.5-2.1,11.2c-1.2,7.5-2.1,15.1-2.3,22.6c-0.1,3.8,0,7.6,0.3,11.3c0.1,0.9,0.2,1.9,0.3,2.8l0.3,2.8
					c0.2,1.9,0.5,3.8,0.7,5.7c0.5,3.8,1,7.6,1.6,11.3l0.8,5.7l0.9,5.7l0.2,1l-0.9,0.3l0,0c-0.4,0.1-0.8,0.3-1.2,0.5
					c-0.4,0.2-0.8,0.4-1.2,0.6c-0.8,0.4-1.5,0.9-2.2,1.4c-1.4,1.1-2.5,2.4-2.8,4c-0.1,0.4-0.1,0.8-0.1,1.2c0,0.1,0,0.2,0,0.3l0,0.1
					l0,0.1l0,0c0,0.1,0.1,0.3,0.1,0.4c0.3,0.6,0.8,1.2,1.4,1.7c1.3,1,3,1.7,4.7,2.1c0.9,0.2,1.8,0.4,2.7,0.5
					c0.9,0.1,1.8,0.2,2.8,0.3c1.9,0.1,3.7,0.1,5.6,0c1.9-0.1,3.7-0.2,5.5-0.6c1.8-0.3,3.5-0.9,4.8-1.9c0.7-0.5,1.2-1.1,1.6-1.8
					c0.1-0.2,0.2-0.4,0.3-0.5l0.1-0.3l0.1-0.2c0.1-0.4,0.2-0.8,0.3-1.2c0.3-1.8,0.5-3.7,0.6-5.5c0.2-3.8,0.3-7.6,0.3-11.4l0-22.9
					l0-1.2H80h0h1.2l0,1.2l0,23c0,3.8,0,7.6,0.3,11.4c0.1,1.9,0.3,3.8,0.6,5.5c0.1,0.4,0.2,0.9,0.3,1.2c0,0.1,0.1,0.2,0.1,0.2
					l0.1,0.3c0.1,0.2,0.2,0.3,0.3,0.5c0.4,0.7,1,1.2,1.7,1.7c1.4,0.9,3.1,1.5,4.9,1.9c1.8,0.4,3.7,0.5,5.5,0.6
					c1.9,0.1,3.8,0.1,5.6,0c1.9-0.1,3.7-0.3,5.5-0.7c0.9-0.2,1.7-0.5,2.5-0.8c0.8-0.3,1.6-0.8,2.2-1.3c0.6-0.5,1.1-1.1,1.2-1.8
					c0-0.2,0.1-0.3,0.1-0.4l0-0.1l0-0.1l0,0l0-0.1c0-0.1,0-0.2,0-0.3c0-0.4,0-0.8-0.1-1.2c-0.3-1.5-1.4-2.9-2.8-4
					c-0.7-0.5-1.4-1-2.2-1.5c-0.4-0.2-0.8-0.4-1.2-0.6c-0.4-0.2-0.8-0.4-1.2-0.5h0l-0.9-0.3l0.2-1l0.9-5.6l0.8-5.6
					c0.5-3.7,1.1-7.5,1.5-11.2c0.2-1.9,0.5-3.7,0.7-5.6c0.2-1.9,0.4-3.7,0.6-5.6c0.2-1.9,0.2-3.7,0.3-5.6c0-1.9,0-3.7,0-5.6
					c-0.1-7.5-1-14.9-2.2-22.4c-0.6-3.7-1.3-7.4-2-11.1c-0.4-1.9-0.7-3.7-1-5.6c-0.3-1.9-0.6-3.7-0.8-5.6l0,0c0-0.3,0.2-0.6,0.5-0.6
					C103.6,102.9,103.9,103.1,104,103.4z"/>
			</g>
			<g>
				<path class="st1" d="M104.9,194.4l-0.9-0.1c-0.3,0-0.6-0.1-0.9-0.1c-0.6,0-1.2-0.1-1.9-0.1c-1.2-0.1-2.5,0-3.7,0
					c-1.2,0.1-2.5,0.3-3.7,0.5c-1.2,0.3-2.4,0.7-3.5,1.2l0,0c-0.3,0.1-0.6,0-0.8-0.3c-0.1-0.3,0-0.6,0.2-0.7c1.1-0.8,2.3-1.5,3.6-2
					c0.3-0.1,0.6-0.2,1-0.3l0.5-0.2c0.2,0,0.3-0.1,0.5-0.1c0.3-0.1,0.7-0.2,1-0.2l1-0.2c1.3-0.2,2.7-0.3,4-0.3c0.7,0,1.3,0.1,2,0.1
					c0.3,0,0.7,0.1,1,0.1c0.3,0.1,0.7,0.1,1,0.2c0.6,0.2,1,0.8,0.9,1.4C106.1,194.1,105.5,194.4,104.9,194.4L104.9,194.4z"/>
			</g>
			<g>
				<path class="st1" d="M54.9,192.1c0.4-0.1,0.7-0.1,1-0.2c0.3-0.1,0.7-0.1,1-0.1c0.7-0.1,1.3-0.1,2-0.1c1.3,0,2.7,0.1,4,0.2
					c1.3,0.2,2.7,0.5,4,1c1.3,0.5,2.5,1.2,3.6,2c0.3,0.2,0.3,0.6,0.1,0.8c-0.2,0.2-0.4,0.3-0.7,0.2l-0.1,0c-0.6-0.2-1.1-0.5-1.7-0.7
					c-0.3-0.1-0.6-0.2-0.9-0.3c-0.3-0.1-0.6-0.2-0.9-0.2c-1.2-0.3-2.4-0.5-3.7-0.5c-1.2-0.1-2.5-0.1-3.7-0.1c-0.6,0-1.2,0.1-1.9,0.1
					c-0.6,0-1.3,0.1-1.8,0.2l-0.1,0c-0.6,0.1-1.2-0.4-1.3-1C54,192.7,54.4,192.2,54.9,192.1z"/>
			</g>
			<g>
				<path class="st1" d="M65.7,174.3c-4.7,0-9.9-0.8-14.8-3.5c-0.6-0.3-0.8-1-0.5-1.6c0.3-0.6,1-0.8,1.6-0.5
					c12.3,6.6,27.4,0.8,27.6,0.7c0.6-0.2,1.3,0.1,1.5,0.7c0.2,0.6-0.1,1.3-0.7,1.5C80.1,171.8,73.7,174.3,65.7,174.3z"/>
			</g>
			<g>
				<path class="st1" d="M94.4,174.3c-8,0-14.4-2.5-14.8-2.6c-0.6-0.2-0.9-0.9-0.7-1.5c0.2-0.6,0.9-0.9,1.5-0.7l0,0
					c0.2,0.1,15.3,5.9,27.6-0.7c0.6-0.3,1.3-0.1,1.6,0.5c0.3,0.6,0.1,1.3-0.5,1.6C104.3,173.4,99.1,174.3,94.4,174.3z"/>
			</g>
			<g>
				<path class="st0" d="M68.6,160.7c0,0,4.6,2.1,11.4,2.1c6.8,0,11.4-2.1,11.4-2.1s-3.1-2.4-11.4-2.4S68.6,160.7,68.6,160.7z"/>
			</g>
			<g>
				<path class="st1" d="M67.2,159.9c1,0.3,2.1,0.6,3.2,0.8c1.1,0.2,2.2,0.4,3.3,0.6c1.1,0.1,2.2,0.3,3.3,0.3c0.6,0,1.1,0.1,1.7,0.1
					c0.6,0,1.1,0,1.7,0c1.1,0,2.2,0,3.3-0.1c1.1-0.1,2.2-0.2,3.3-0.3l0.8-0.1l0.8-0.1c0.5-0.1,1.1-0.2,1.6-0.3
					c1.1-0.2,2.2-0.5,3.2-0.8l0,0c0.3-0.1,0.6,0.1,0.7,0.4c0.1,0.3,0,0.5-0.3,0.7c-1.1,0.6-2.1,1-3.2,1.4c-1.1,0.4-2.2,0.7-3.4,0.9
					c-0.6,0.1-1.1,0.2-1.7,0.3c-0.6,0.1-1.2,0.2-1.7,0.2c-1.2,0.1-2.3,0.2-3.5,0.2c-2.3,0-4.7-0.2-7-0.7c-1.1-0.2-2.3-0.6-3.4-0.9
					c-1.1-0.4-2.2-0.8-3.2-1.4c-0.3-0.2-0.4-0.5-0.2-0.8C66.6,160,66.9,159.9,67.2,159.9L67.2,159.9z"/>
			</g>
			<g class="st21">
				<path class="st3" d="M108.4,92.7c-5.9,7.4-16.4,13.5-28.4,13.5c-12,0-22.5-6.1-28.4-13.5c1.3-0.6,2.8-0.9,4.3-0.9h48.1
					C105.6,91.8,107.1,92.2,108.4,92.7z"/>
			</g>
			<g>
				<path class="st0" d="M121.7,71.9L121.7,71.9c-0.5,0-0.9-0.4-0.9-0.9l0.1-25.3c0-0.5,0.4-0.9,0.9-0.9h0c5.1,0,9.2,4.2,9.2,9.2
					l0,8.6C131,67.8,126.8,71.9,121.7,71.9z"/>
				<path class="st1" d="M121.8,72.1C121.8,72.1,121.7,72.1,121.8,72.1L121.8,72.1c-0.6,0-1.1-0.5-1.1-1.1l0.1-25.3
					c0-0.6,0.5-1.1,1.1-1.1c0,0,0,0,0,0c2.5,0,4.9,1,6.6,2.8c1.8,1.8,2.7,4.2,2.7,6.7l0,8.6C131.2,67.9,126.9,72.1,121.8,72.1z
					 M121.7,71.7C121.7,71.7,121.8,71.7,121.7,71.7c5,0,9-4,9-9l0-8.6c0-2.4-0.9-4.7-2.6-6.4c-1.7-1.7-3.9-2.7-6.4-2.7c0,0,0,0,0,0
					c-0.4,0-0.7,0.3-0.7,0.7L121.1,71C121.1,71.4,121.4,71.7,121.7,71.7L121.7,71.7z"/>
			</g>
			<g class="st2">
				<path class="st3" d="M131,58.7l0,4c0,5.1-4.2,9.2-9.2,9.2c-0.5,0-0.9-0.4-0.9-0.9l0-6.7c0.1,0.3,0.4,0.5,0.8,0.5l0.6,0
					C126.3,64.8,129.7,62.3,131,58.7z"/>
			</g>
			<g>
				<path class="st1" d="M121.8,73.1C121.8,73.1,121.7,73.1,121.8,73.1L121.8,73.1c-0.6,0-1.1-0.2-1.5-0.6c-0.4-0.4-0.6-0.9-0.6-1.4
					l0.1-25.3c0-1.1,0.9-2,2-2c0,0,0,0,0,0c2.8,0,5.4,1.1,7.3,3.1c2,2,3,4.6,3,7.3l0,8.6C132.1,68.4,127.5,73.1,121.8,73.1z
					 M122.1,46L122,70.7c4.3-0.1,7.8-3.7,7.8-8l0-8.6C129.9,49.8,126.4,46.2,122.1,46z"/>
			</g>
			<g>
				<path class="st0" d="M38.4,44.5L38.4,44.5c0.5,0,0.9,0.4,0.9,0.9l-0.1,25.3c0,0.5-0.4,0.9-0.9,0.9h0c-5.1,0-9.2-4.2-9.2-9.2
					l0-8.6C29.2,48.6,33.3,44.5,38.4,44.5z"/>
				<path class="st1" d="M38.3,71.8C38.3,71.8,38.3,71.8,38.3,71.8c-2.5,0-4.9-1-6.7-2.8c-1.8-1.8-2.7-4.2-2.7-6.7l0-8.6
					c0-5.2,4.2-9.4,9.4-9.4c0,0,0,0,0,0c0.3,0,0.6,0.1,0.8,0.3c0.2,0.2,0.3,0.5,0.3,0.8l-0.1,25.3C39.4,71.3,38.9,71.8,38.3,71.8z
					 M38.4,44.7c-4.9,0-9,4-9,9l0,8.6c0,2.4,0.9,4.7,2.6,6.4c1.7,1.7,3.9,2.7,6.4,2.7c0,0,0,0,0,0c0.4,0,0.7-0.3,0.7-0.7l0.1-25.3
					c0-0.2-0.1-0.3-0.2-0.5C38.8,44.8,38.6,44.7,38.4,44.7L38.4,44.7C38.4,44.7,38.4,44.7,38.4,44.7z"/>
			</g>
			<g class="st2">
				<path class="st3" d="M39.2,63.7l0,7c0,0.5-0.4,0.9-0.9,0.9c-2.7,0-5.1-1.2-6.7-3c-1.5-1.6-2.4-3.8-2.4-6.3l0-3.6
					c1.4,3.2,4.6,5.4,8.4,5.4l0.9,0C38.8,64.1,39.1,64,39.2,63.7z"/>
			</g>
			<g>
				<path class="st1" d="M38.3,72.7C38.3,72.7,38.3,72.7,38.3,72.7c-2.8,0-5.4-1.1-7.3-3.1c-2-2-3-4.6-3-7.3l0-8.6
					c0-5.7,4.7-10.3,10.4-10.3c0,0,0,0,0,0c0.5,0,1.1,0.2,1.4,0.6c0.4,0.4,0.6,0.9,0.6,1.4l-0.1,25.3C40.3,71.8,39.4,72.7,38.3,72.7
					z M38.1,45.7c-4.3,0.1-7.8,3.7-7.8,8l0,8.6c0,2.1,0.8,4.2,2.3,5.7c1.4,1.5,3.3,2.3,5.4,2.4L38.1,45.7z"/>
			</g>
			<g>
				<circle class="st0" cx="80.1" cy="58.2" r="43.1"/>
				<path class="st1" d="M80.1,101.5c-1.1,0-2.2,0-3.3-0.1C53,99.6,35.1,78.8,36.9,55c1.8-23.8,22.6-41.7,46.4-39.9
					c23.8,1.8,41.7,22.6,39.9,46.4l-0.2,0l0.2,0c-0.9,11.5-6.2,22-14.9,29.6C100.4,97.8,90.5,101.5,80.1,101.5z M80,15.4
					c-22.2,0-41,17.2-42.7,39.7c-1.8,23.6,16,44.2,39.5,46c11.4,0.9,22.5-2.8,31.2-10.2c8.7-7.5,13.9-17.9,14.8-29.3
					c1.8-23.6-16-44.2-39.5-46C82.2,15.4,81.1,15.4,80,15.4z"/>
			</g>
			<g class="st2">
				<path class="st3" d="M123.1,55.5c0.1,2,0.1,4,0,6c-1.8,23.7-22.5,41.5-46.2,39.7C53.1,99.4,35.3,78.7,37.1,55
					c0.1-0.7,0.1-1.4,0.2-2c1.3,21.1,18.1,38.6,39.8,40.2C100.1,94.9,120.3,78.2,123.1,55.5z"/>
			</g>
			<g>
				<path class="st1" d="M80.1,102.5c-1.1,0-2.2,0-3.3-0.1C52.4,100.5,34.1,79.2,36,54.9c1.8-24.3,23.1-42.6,47.4-40.8
					c24.3,1.8,42.6,23.1,40.8,47.4l-1.2-0.1l1.2,0.1C122.4,84.7,103,102.5,80.1,102.5z M80,16.3c-21.7,0-40.1,16.8-41.8,38.8
					c-1.7,23,15.6,43.2,38.6,44.9c11.2,0.8,22-2.7,30.5-10c8.5-7.3,13.6-17.5,14.5-28.6c1.7-23-15.6-43.2-38.6-44.9
					C82.2,16.4,81.1,16.3,80,16.3z"/>
			</g>
			<g>
				<path class="st3" d="M122.8,62.5c-0.5,8.4-3.7,16.1-8.8,22.2c-3.8,4.6-18.7,12.3-36.5,11.3c-16.5-0.8-31-10.5-34.2-15.6
					c-4.3-6.7-6.5-14.7-6-23.1c1.3-22.3,21-30.3,44.6-28.9C105.6,29.9,124.1,40.3,122.8,62.5z"/>
			</g>
			<g>
				<path class="st1" d="M80.6,97.4c-1,0-2,0-3.1-0.1c-17.1-0.9-31.7-10.8-35.1-16.1c-4.6-7.2-6.7-15.4-6.2-23.8
					c0.7-10.9,5.5-19.1,14.5-24.3c7.8-4.5,18.7-6.5,31.3-5.7c12.6,0.8,23.2,4,30.4,9.4c8.3,6.2,12.2,14.9,11.5,25.9
					c-0.5,8.4-3.6,16.3-9,22.9C111.4,89.8,98,97.4,80.6,97.4z M76.9,29.5c-10,0-18.6,1.9-25,5.6c-8.3,4.8-12.8,12.3-13.4,22.4
					c-0.5,7.9,1.6,15.7,5.9,22.4c3.1,4.8,17.2,14.2,33.2,15c17.8,0.9,32.1-6.8,35.5-10.9c5.1-6.2,8-13.7,8.5-21.6l1.2,0.1l-1.2-0.1
					c1.6-27.4-27.2-32.1-39.7-32.8C80.2,29.5,78.5,29.5,76.9,29.5z"/>
			</g>
			<g class="st5">
				
					<ellipse transform="matrix(0.2368 -0.9715 0.9715 0.2368 26.2478 150.7775)" class="st0" cx="109.1" cy="58.7" rx="7.6" ry="5.5"/>
			</g>
			<g class="st5">
				
					<ellipse transform="matrix(0.3688 -0.9295 0.9295 0.3688 -4.1484 140.5869)" class="st0" cx="101.4" cy="73.3" rx="3.5" ry="3"/>
			</g>
			<g class="st13">
				<path class="st1" d="M115.7,41.3c4.9,5.3,7.6,12.3,7.1,21.3c-0.5,8.4-3.7,16.1-8.8,22.2c-3.8,4.6-18.7,12.3-36.5,11.3
					c-6.3-0.3-12.3-1.9-17.4-4.1c21.9,0.6,40-8.7,44.7-14.5c6.4-7.8,10.5-17.6,11.1-28.2C116.2,46.5,116.1,43.8,115.7,41.3z"/>
			</g>
			<g>
				<path class="st1" d="M120.3,44c-0.3,0-0.6-0.1-0.8-0.3l-0.1-0.1l-0.1-0.1c-6.6-10.6-20.2-17.2-37.4-18.2
					c-17.2-1-31.5,4.1-39.3,14.2l-0.1,0.1c-0.4,0.5-1.2,0.5-1.6,0c-0.5-0.4-0.5-1.1-0.1-1.6c8.2-10.6,23.3-16.1,41.3-15
					c17.9,1.1,32.2,8.1,39.2,19.3c0.3,0.4,0.3,1-0.1,1.4C120.9,43.8,120.6,44,120.3,44z"/>
			</g>
			<g class="st5">
				<path class="st0" d="M46.2,71.2c0,0-5.6-22.4,6.8-30.4s29.4-7,28.9-5.9c0,0-19.1,3.4-27.4,17.9C48.1,63.9,46.2,71.2,46.2,71.2z"
					/>
			</g>
			<g>
				<path class="st31" d="M148.9,103.2l-18.3,5.2c-1.7,0.5-3.5-0.5-4-2.2l-9.4-32.8c-0.5-1.7,0.5-3.5,2.2-4l18.3-5.2
					c1.7-0.5,3.5,0.5,4,2.2l9.4,32.8C151.6,100.9,150.6,102.7,148.9,103.2z"/>
			</g>
			<g>
				<path class="st32" d="M148.9,103.2l-18.3,5.2c-1.7,0.5-3.5-0.5-4-2.2l-9.4-32.8c-0.3-1.2,0-2.5,0.9-3.3c0,0,0,0,0,0.1l9.4,32.8
					c0.5,1.7,2.3,2.7,4,2.2l18.3-5.2c0.5-0.1,0.9-0.4,1.3-0.7C151.6,101,150.6,102.7,148.9,103.2z"/>
			</g>
			<g>
				<path class="st1" d="M129.8,109.7c-0.7,0-1.5-0.2-2.1-0.6c-1-0.6-1.8-1.5-2.1-2.6l-9.4-32.8c-0.3-1.1-0.2-2.3,0.4-3.3
					c0.6-1,1.5-1.8,2.6-2.1l18.3-5.2c1.1-0.3,2.3-0.2,3.3,0.4c1,0.6,1.8,1.5,2.1,2.6l9.4,32.8c0.7,2.3-0.7,4.8-3,5.4l-18.3,5.2
					C130.6,109.7,130.2,109.7,129.8,109.7z M138.7,65.3c-0.2,0-0.4,0-0.6,0.1l-18.3,5.2c-0.5,0.2-1,0.5-1.2,1
					c-0.3,0.5-0.3,1-0.2,1.6l9.4,32.8c0.2,0.5,0.5,1,1,1.2c0.5,0.3,1,0.3,1.6,0.2l18.3-5.2l0.3,1.1l-0.3-1.1
					c1.1-0.3,1.7-1.4,1.4-2.5l-9.4-32.8c-0.2-0.5-0.5-1-1-1.2C139.3,65.4,139,65.3,138.7,65.3z"/>
			</g>
			<g>
				<path class="st1" d="M129.8,109.7c-0.7,0-1.5-0.2-2.1-0.6c-1-0.6-1.8-1.5-2.1-2.6l-9.4-32.8c-0.3-1.1-0.2-2.3,0.4-3.3
					c0.6-1,1.5-1.8,2.6-2.1l18.3-5.2c1.1-0.3,2.3-0.2,3.3,0.4c1,0.6,1.8,1.5,2.1,2.6l9.4,32.8c0.7,2.3-0.7,4.8-3,5.4l-18.3,5.2
					C130.6,109.7,130.2,109.7,129.8,109.7z M138.7,65.3c-0.2,0-0.4,0-0.6,0.1l-18.3,5.2c-0.5,0.2-1,0.5-1.2,1
					c-0.3,0.5-0.3,1-0.2,1.6l9.4,32.8c0.2,0.5,0.5,1,1,1.2c0.5,0.3,1,0.3,1.6,0.2l18.3-5.2l0.3,1.1l-0.3-1.1
					c1.1-0.3,1.7-1.4,1.4-2.5l-9.4-32.8c-0.2-0.5-0.5-1-1-1.2C139.3,65.4,139,65.3,138.7,65.3z"/>
			</g>
			<g>
				<path class="st1" d="M145.5,97.6l-9.9,2.8l-5,1.4c-0.1,0-0.2,0-0.3,0c-0.7,0.1-1.3-0.4-1.5-1.1l-1.3-4.6l-3.1-10.9l-3.2-11.2
					c-0.2-0.8,0.2-1.6,1-1.8l8.3-2.4l6.6-1.9c0.5-0.1,1.1,0,1.4,0.4c0.2,0.2,0.3,0.4,0.4,0.6l1.9,6.5l1.9,6.8l3.8,13.3
					C146.7,96.6,146.3,97.4,145.5,97.6z"/>
			</g>
			<g class="st6">
				<path class="st0" d="M138.5,68.5l-11,27.8l-3.1-10.9l6.1-15.3l6.6-1.9C137.6,68,138.1,68.1,138.5,68.5z"/>
			</g>
			<g class="st6">
				<path class="st0" d="M142.7,82.4l-7.1,18l-5,1.4c-0.1,0-0.2,0-0.3,0l10.4-26.3L142.7,82.4z"/>
			</g>
			<g>
				<path class="st1" d="M130.2,102.7c-0.4,0-0.8-0.1-1.1-0.3c-0.5-0.3-0.9-0.8-1.1-1.4l-7.6-26.7c-0.3-1.2,0.4-2.5,1.6-2.8
					l14.9-4.3c1.2-0.3,2.5,0.4,2.8,1.6l7.6,26.7c0.3,1.2-0.4,2.5-1.6,2.8l-14.9,4.3C130.6,102.7,130.4,102.7,130.2,102.7z
					 M137.5,68.9c-0.1,0-0.1,0-0.2,0l-14.9,4.3c-0.3,0.1-0.5,0.5-0.4,0.8l7.6,26.7c0,0.2,0.2,0.3,0.3,0.4c0.1,0.1,0.3,0.1,0.5,0.1
					l14.9-4.3c0.3-0.1,0.5-0.5,0.4-0.8l-7.6-26.7C138,69.1,137.7,68.9,137.5,68.9z"/>
			</g>
			<g>
				<path class="st0" d="M121.3,87.3c0,0,6.9,0.9,6.9,5.6c0,3.2-3,3.9-6,3.3C118.6,95.5,116.4,89.3,121.3,87.3z"/>
			</g>
			<g class="st21">
				<path class="st3" d="M128.1,92.9c0,3.2-3,3.9-6,3.3c-2.5-0.5-4.4-3.8-3.5-6.3c0.5,1.7,1.9,3.2,3.5,3.5c2.5,0.5,5,0.1,5.8-1.9
					C128.1,91.9,128.1,92.4,128.1,92.9z"/>
			</g>
			<g>
				<path class="st1" d="M124,97.6c-0.7,0-1.3-0.1-2.1-0.2c-2.4-0.5-4.4-2.9-4.6-5.6c-0.2-2.5,1.1-4.6,3.5-5.5l0.3-0.1l0.3,0
					c0.3,0,7.9,1.1,7.9,6.7c0,1.8-0.8,2.9-1.5,3.5C126.9,97.2,125.6,97.6,124,97.6z M121.4,88.6c-1.6,0.8-1.9,2-1.8,3
					c0.2,1.7,1.4,3.2,2.8,3.5c1.7,0.3,3.2,0.2,3.9-0.5c0.4-0.4,0.7-0.9,0.7-1.7C127,89.8,122.6,88.8,121.4,88.6z"/>
			</g>
			<g>
				<g>
					<path class="st0" d="M148.3,86.7c0,0-6.7,3.2-5.3,7.7c1,3.2,5.3,3.2,7.3,1.1C152.5,93.2,153.5,88.9,148.3,86.7z"/>
				</g>
				<g class="st21">
					<path class="st3" d="M150.3,95.4c-2,2.1-6.3,2.1-7.3-1.1c-0.3-0.9-0.2-1.7,0-2.4c1.4,2.3,5.1,2.2,6.9,0.3
						c0.7-0.8,1.4-1.8,1.6-2.9C152.8,91.4,151.8,93.9,150.3,95.4z"/>
				</g>
				<g>
					<path class="st1" d="M146.8,98.1c-0.5,0-0.9-0.1-1.4-0.2c-1.7-0.4-3-1.6-3.5-3.2c-1.7-5.4,5.6-8.9,5.9-9.1l0.5-0.2l0.5,0.2
						c3.1,1.3,4.1,3.3,4.4,4.7c0.5,2.4-0.7,4.6-2,6C150.1,97.4,148.4,98.1,146.8,98.1z M148.3,88c-1.3,0.7-5.1,3.1-4.2,6
						c0.3,1.1,1.2,1.5,1.8,1.7c1.2,0.3,2.7-0.1,3.6-1c1.1-1.1,1.6-2.6,1.4-3.9C150.6,89.6,149.8,88.7,148.3,88z"/>
				</g>
			</g>
			<g>
				<g>
					<path class="st0" d="M146.2,79.6c0,0-6.7,3.2-5.3,7.7c1,3.2,5.3,3.2,7.3,1.1C150.5,86.2,151.5,81.8,146.2,79.6z"/>
				</g>
				<g class="st21">
					<path class="st3" d="M148.3,88.4c-2,2.1-6.3,2.1-7.3-1.1c-0.3-0.9-0.2-1.7,0-2.4c1.4,2.3,5.1,2.2,6.9,0.3
						c0.7-0.8,1.4-1.8,1.6-2.9C150.7,84.4,149.8,86.9,148.3,88.4z"/>
				</g>
				<g>
					<path class="st1" d="M144.7,91c-0.5,0-0.9-0.1-1.4-0.2c-1.7-0.4-3-1.6-3.5-3.2c-1.7-5.4,5.6-8.9,5.9-9.1l0.5-0.2l0.5,0.2
						c3.1,1.3,4.1,3.3,4.4,4.7c0.5,2.4-0.7,4.6-2,6C148,90.4,146.4,91,144.7,91z M146.3,80.9c-1.3,0.7-5.1,3.1-4.2,6
						c0.3,1.1,1.2,1.5,1.8,1.7c1.2,0.3,2.7-0.1,3.6-1c1.1-1.1,1.6-2.6,1.4-3.9C148.6,82.6,147.7,81.7,146.3,80.9z"/>
				</g>
			</g>
			<g>
				<g>
					<path class="st0" d="M143.6,72.9c0,0-6.7,3.2-5.3,7.7c1,3.2,5.3,3.2,7.3,1.1C147.9,79.4,148.8,75.1,143.6,72.9z"/>
				</g>
				<g class="st21">
					<path class="st3" d="M145.7,81.7c-2,2.1-6.3,2.1-7.3-1.1c-0.3-0.9-0.2-1.7,0-2.4c1.4,2.3,5.1,2.2,6.9,0.3
						c0.7-0.8,1.4-1.8,1.6-2.9C148.1,77.7,147.2,80.2,145.7,81.7z"/>
				</g>
				<g>
					<path class="st1" d="M142.1,84.3c-0.5,0-0.9-0.1-1.4-0.2c-1.7-0.4-3-1.6-3.5-3.2c-1.7-5.4,5.6-8.9,5.9-9.1l0.5-0.2l0.5,0.2
						c3.1,1.3,4.1,3.3,4.4,4.7c0.5,2.4-0.7,4.6-2,6C145.4,83.7,143.7,84.3,142.1,84.3z M143.6,74.2c-1.3,0.7-5.1,3.1-4.2,6
						c0.3,1.1,1.2,1.5,1.8,1.7c1.2,0.3,2.7-0.1,3.6-1c1.1-1.1,1.6-2.6,1.4-3.9C146,75.9,145.1,74.9,143.6,74.2z"/>
				</g>
			</g>
			<g>
				<path class="st1" d="M129.9,127.7c-4.8,0-8.4-1.6-10.8-4.7c-6.2-8-2-23.3-1.8-24c0.2-0.6,0.8-1,1.4-0.8c0.6,0.2,1,0.8,0.8,1.4
					c0,0.1-4,14.8,1.4,21.9c2,2.6,5.1,3.9,9.2,3.8c0.6,0,1.2,0.5,1.2,1.2c0,0.6-0.5,1.2-1.2,1.2C130.1,127.7,130,127.7,129.9,127.7z
					"/>
			</g>
			<g>
				<g>
					<path class="st0" d="M30.2,30c1.9-2.6,2.9-5.7,2.9-9.1c-0.2-8.3-7-14.8-15.3-14.6C9.5,6.4,3,13.3,3.2,21.5
						c0.2,8.3,7,14.8,15.3,14.6c2.3-0.1,4.5-0.6,6.4-1.6l6.8,2.1L30.2,30z"/>
				</g>
				<g class="st5">
					<g>
						<path class="st0" d="M17.8,9.1C25.6,9,32,14.7,33,22.1c0-0.5,0.1-1.1,0.1-1.6c-0.2-8.3-7-14.8-15.3-14.6
							C9.5,6.1,3,12.9,3.1,21.2c0,0.5,0.1,1.1,0.1,1.6C3.9,15.3,10.1,9.3,17.8,9.1z"/>
					</g>
				</g>
				<g>
					<path class="st1" d="M31.6,37.6c-0.1,0-0.2,0-0.3,0l-6.4-2c-2,1-4.2,1.5-6.4,1.5c-4.2,0.1-8.3-1.5-11.3-4.4
						c-3.1-2.9-4.8-6.9-4.9-11.1c-0.1-4.2,1.5-8.3,4.4-11.3c2.9-3.1,6.9-4.8,11.1-4.9C22,5.2,26,6.8,29.1,9.7
						c3.1,2.9,4.8,6.9,4.9,11.1c0.1,3.4-0.9,6.6-2.8,9.3l1.3,6.3c0.1,0.3,0,0.6-0.3,0.9C32,37.5,31.8,37.6,31.6,37.6z M24.8,33.7
						c0.1,0,0.2,0,0.3,0l5.3,1.6l-1.1-5.2c-0.1-0.2,0-0.5,0.2-0.7c1.8-2.5,2.7-5.5,2.7-8.6c-0.1-3.8-1.6-7.3-4.3-9.8
						c-2.7-2.6-6.3-4-10-3.9c-3.8,0.1-7.3,1.6-9.8,4.3c-2.6,2.7-4,6.3-3.9,10c0.2,7.7,6.6,13.9,14.4,13.7c2.1,0,4.1-0.5,6-1.5
						C24.5,33.7,24.7,33.7,24.8,33.7z"/>
				</g>
				<g class="st27">
					<path class="st3" d="M30.3,29.9C25.9,33,20.2,34,14.7,32.2c-6.1-2-10.3-7.1-11.4-13c-0.1,0.8-0.1,1.5-0.1,2.3
						c0.2,8.3,7,14.8,15.3,14.6c2.3-0.1,4.5-0.6,6.4-1.6l6.8,2.1L30.2,30C30.2,30,30.3,29.9,30.3,29.9z"/>
				</g>
				<g>
					<g>
						<g>
							<path class="st1" d="M15.8,15.9l0-2.3c0-0.4,0.3-0.7,0.6-0.6l3.7,0c0.3,0,0.6,0.3,0.6,0.7l0,2.3c0,0.4-0.3,0.7-0.6,0.6
								l-3.7,0C16,16.6,15.8,16.3,15.8,15.9z M19.5,14.3l-2.6,0l0,1l2.6,0L19.5,14.3z"/>
						</g>
					</g>
					<g>
						<g>
							<path class="st1" d="M13.8,27.5l0.1-11.5c0-0.4,0.3-0.7,0.6-0.6l7.4,0.1c0.3,0,0.6,0.3,0.6,0.7l-0.1,11.5
								c0,0.4-0.3,0.7-0.6,0.6l-7.4-0.1C14,28.1,13.8,27.8,13.8,27.5z M21.3,16.7l-6.3-0.1l-0.1,10.2l6.3,0.1L21.3,16.7z"/>
						</g>
					</g>
					<g>
						
							<rect x="15" y="16.6" transform="matrix(-0.9999 -1.271516e-02 1.271516e-02 -0.9999 35.9609 43.7142)" class="st0" width="6.3" height="10.2"/>
					</g>
					<g>
						
							<rect x="16.9" y="14.3" transform="matrix(-0.9999 -1.271428e-02 1.271428e-02 -0.9999 36.2254 29.8502)" class="st0" width="2.6" height="1"/>
					</g>
					<g>
						<g>
							
								<rect x="15.5" y="23.7" transform="matrix(-0.9999 -1.271552e-02 1.271552e-02 -0.9999 35.8429 49.9)" class="st33" width="5.1" height="2.3"/>
						</g>
					</g>
					<g>
						<g>
							
								<rect x="15.5" y="20.8" transform="matrix(-0.9999 -1.271552e-02 1.271552e-02 -0.9999 35.8791 44.2187)" class="st33" width="5.1" height="2.3"/>
						</g>
					</g>
				</g>
			</g>
			<path class="st1" d="M141.3,102.9l-3.4,1c-0.1,0-0.2,0-0.3-0.1l-0.4-1.4c0-0.1,0-0.2,0.1-0.3l3.4-1c0.1,0,0.2,0,0.3,0.1l0.4,1.4
				C141.5,102.8,141.4,102.9,141.3,102.9z"/>
			<g class="st27">
				<path class="st3" d="M113.5,202.6c0,0.2-0.5,6.9-18.3,6.2c-7.6-0.3-11.9-1.7-13.7-5.7c-0.6-1.4-1-4.4-1.2-7.5l-0.2-12l-0.3,12
					c-0.2,3.1-0.6,6.1-1.2,7.5c-1.8,4-6.1,5.4-13.7,5.7c-17.8,0.7-18.3-6-18.3-6.2c-0.1-0.9,0-1.8,0.3-2.6c0.6,1.1,2.6,2.6,8.2,3.4
					c9.2,1.3,19,0.1,20.7-6c1.3-4.6,3.3-29.3-3.6-32.2c-10.8-4.6-14.7-8.3-11.7-8.9c1.5-0.3,5.5,1,19.6,1s18.1-1.3,19.6-1
					c3,0.6-1,4.3-11.7,8.9c-7,3-4.9,27.6-3.6,32.2c1.7,6.1,11.5,7.2,20.7,6c5.7-0.8,7.6-2.3,8.2-3.4
					C113.4,200.8,113.5,201.6,113.5,202.6z"/>
			</g>
		</g>
		<g>
			<polygon class="st3" points="89.3,137.6 84.1,130.9 84.1,128 89,121.6 96.3,121.6 89.9,129.2 96.8,137.6 			"/>
			<path class="st1" d="M94,122.6l-5.5,6.6l6,7.3h-4.7l-4.7-6v-2.1l4.4-5.7H94 M98.5,120.5H94h-4.5h-1l-0.6,0.8l-4.4,5.7l-0.4,0.6
				v0.7v2.1v0.7l0.4,0.6l4.7,6l0.6,0.8h1h4.7H99l-2.8-3.4l-4.9-6l4.4-5.2L98.5,120.5L98.5,120.5z"/>
		</g>
		<g>
			<polygon class="st15" points="65.7,137.6 72.1,129.9 65.2,121.6 72.7,121.6 77.9,128.3 77.9,131.1 73,137.6 			"/>
			<path class="st1" d="M72.1,122.6l4.7,6v2.1l-4.4,5.7H68l5.5-6.6l-6-7.3H72.1 M73.2,120.5h-1h-4.7H63l2.8,3.4l4.9,6l-4.4,5.2
				l-2.9,3.4H68h4.5h1l0.6-0.8l4.4-5.7l0.4-0.6v-0.7v-2.1v-0.7l-0.4-0.6l-4.7-6L73.2,120.5L73.2,120.5z"/>
		</g>
		<g>
			<polygon class="st11" points="80.7,142.9 73.1,149.3 73.1,142.1 79.5,137.2 82.4,137.2 89.1,142.4 89.1,149.8 			"/>
			<path class="st1" d="M82,138.2l6,4.7v4.7l-7.3-6l-6.6,5.5v-4.5l5.7-4.4H82 M82.7,136.1H82h-2.1h-0.7l-0.6,0.4l-5.7,4.4l-0.8,0.6
				v1v4.5v4.5l3.4-2.9l5.2-4.4l6,4.9l3.4,2.8v-4.4v-4.7v-1l-0.8-0.6l-6-4.7L82.7,136.1L82.7,136.1z"/>
		</g>
		<g>
			<polygon class="st16" points="79.6,122 72.8,116.8 72.8,109.4 81.2,116.3 88.8,109.9 88.8,117.1 82.4,122 			"/>
			<path class="st1" d="M73.9,111.6l7.3,6l6.6-5.5v4.5L82,121h-2.1l-6-4.7V111.6 M71.8,107.2v4.4v4.7v1l0.8,0.6l6,4.7l0.6,0.4h0.7
				H82h0.7l0.6-0.4l5.7-4.4l0.8-0.6v-1v-4.5v-4.5l-3.4,2.9l-5.2,4.4l-6-4.9L71.8,107.2L71.8,107.2z"/>
		</g>
		<g>
			<g>
				<path class="st0" d="M73.3,43c-2.9-3.9-7.6-6.1-12.2-5.9c-4.6,0.3-9,3-11.5,7.2c-2.9,4.9-3,11.5-0.3,16.5
					c2.7,5,8.2,8.1,13.6,7.7c5.4-0.4,10.4-4.2,12.5-9.6C77.5,53.8,76.6,47.4,73.3,43z"/>
				<path class="st25" d="M72.9,43.3c0,0-0.3-0.3-0.7-0.8c-0.2-0.3-0.5-0.6-0.9-0.9c-0.4-0.3-0.7-0.7-1.3-1c-1-0.7-2.4-1.4-4-2
					c-1.6-0.5-3.5-0.8-5.6-0.5c-0.3,0-0.6,0.1-0.8,0.1c-0.3,0.1-0.5,0.1-0.8,0.2c-0.3,0.1-0.5,0.1-0.8,0.2c-0.3,0.1-0.5,0.2-0.8,0.3
					c-0.3,0.1-0.5,0.2-0.8,0.3c-0.3,0.1-0.5,0.3-0.8,0.4c-0.5,0.2-1,0.6-1.5,0.9c-2,1.4-3.7,3.3-4.9,5.8c-1.1,2.4-1.6,5.2-1.5,8.1
					c0.2,2.8,1,5.8,2.9,8.1c1.7,2.3,4.2,4.1,7,5.1c2.7,1,5.7,1,8.3,0.1c2.6-0.9,4.8-2.5,6.4-4.4l0.6-0.7c0.2-0.3,0.3-0.5,0.5-0.8
					c0.3-0.5,0.7-1,0.9-1.5c0.2-0.5,0.5-1.1,0.7-1.6c0.2-0.6,0.3-1.1,0.5-1.6c0.5-2.1,0.6-4.1,0.3-5.9c-0.1-0.9-0.3-1.7-0.4-2.4
					c-0.2-0.7-0.5-1.4-0.7-2c-0.3-0.6-0.5-1.1-0.7-1.5c-0.2-0.4-0.5-0.8-0.6-1.1C73.1,43.6,72.9,43.3,72.9,43.3L72.9,43.3z
					 M73.8,42.6c0,0,0.2,0.3,0.6,0.9c0.2,0.3,0.5,0.7,0.7,1.1c0.2,0.5,0.5,1,0.8,1.6c0.2,0.6,0.4,1.3,0.7,2.1
					c0.1,0.8,0.4,1.6,0.4,2.6c0.2,1.9,0.1,4-0.4,6.3c-0.2,0.5-0.3,1.1-0.5,1.6c-0.2,0.6-0.5,1.1-0.8,1.7c-0.2,0.6-0.6,1.1-1,1.6
					c-0.2,0.3-0.4,0.5-0.5,0.8l-0.6,0.7c-1.7,2-4,3.7-6.8,4.6c-2.7,0.9-5.9,0.9-8.7-0.2c-2.9-1-5.3-2.9-7.2-5.4
					c-1.8-2.4-3-5.4-3.3-8.4c-0.3-3-0.1-6,1.1-8.9c1-2.7,2.9-5.1,5.1-6.8c0.5-0.4,1.1-0.8,1.7-1.1c0.3-0.2,0.6-0.3,0.9-0.5
					c0.3-0.1,0.6-0.3,0.9-0.4c0.3-0.1,0.6-0.3,0.9-0.4c0.3-0.1,0.6-0.2,1-0.3c0.3-0.1,0.6-0.2,0.9-0.2c0.3,0,0.6-0.1,0.8-0.1
					c0.3,0,0.5-0.1,0.8-0.1c0.2,0,0.1,0,0.1,0c0.1,0,0.2,0,0.2,0l0.2,0l0.4,0c0.6,0,1.2,0,1.7,0.1c0.5,0.1,1.1,0.1,1.6,0.3
					c0.5,0.2,1,0.3,1.4,0.5c1.8,0.8,3.2,1.8,4.2,2.7c0.5,0.4,0.9,0.9,1.3,1.3c0.4,0.4,0.6,0.7,0.8,1C73.5,42.3,73.8,42.6,73.8,42.6
					L73.8,42.6z"/>
			</g>
			<path class="st26" d="M75.1,58.7c0.5-1.3,0.8-2.6,1-4c-0.2,0.7-0.5,1.5-0.7,2.1c-2.1,5.4-7.1,9.4-12.5,9.7
				c-5.3,0.4-10.8-2.8-13.5-7.9c-0.6-1.2-1.1-2.5-1.4-3.9c0.2,2.1,0.7,4,1.6,5.9c2.6,4.9,8.1,8.1,13.3,7.7C68,68.1,73,64,75.1,58.7z
				"/>
			<path class="st25" d="M61.6,55.8c0,3.2-2.6,5.8-5.8,5.8c-3.2,0-5.8-2.6-5.8-5.8c0-3.2,2.6-5.8,5.8-5.8C59,50,61.6,52.6,61.6,55.8
				z"/>
			<path class="st0" d="M56,53.7c0,1.1-0.9,1.9-1.9,1.9c-1.1,0-1.9-0.9-1.9-1.9s0.9-1.9,1.9-1.9S56,52.6,56,53.7z"/>
			<g>
				<path class="st0" d="M85.2,43c2.9-3.9,7.6-6.1,12.2-5.9c4.6,0.3,9,3,11.5,7.2c2.9,4.9,3,11.5,0.3,16.5c-2.7,5-8.2,8.1-13.6,7.7
					S85.3,64.3,83.2,59C81.1,53.8,81.9,47.4,85.2,43z"/>
				<path class="st25" d="M84.8,42.6c0,0,0.3-0.3,0.7-0.9c0.2-0.3,0.5-0.6,0.9-1c0.4-0.4,0.8-0.9,1.3-1.3c1-0.9,2.5-1.8,4.2-2.5
					c1.8-0.7,4-1.1,6.4-0.7c0.3,0,0.6,0.1,0.8,0.1c0.3,0.1,0.6,0.2,0.9,0.2c0.3,0.1,0.6,0.2,0.9,0.3c0.3,0.1,0.6,0.2,0.9,0.4
					c0.3,0.1,0.6,0.3,0.9,0.4c0.3,0.2,0.6,0.3,0.9,0.5c0.6,0.3,1.1,0.7,1.7,1.1c2.1,1.6,4,3.9,5.1,6.6c1.1,2.8,1.5,5.8,1.2,8.7
					c-0.3,3-1.5,5.9-3.3,8.3c-1.9,2.4-4.4,4.2-7.2,5.2c-2.8,1-5.9,1-8.6,0.1c-2.7-0.9-5-2.5-6.8-4.5L85,62.9
					c-0.2-0.3-0.4-0.5-0.5-0.8c-0.3-0.5-0.7-1-1-1.6c-0.3-0.6-0.6-1.1-0.8-1.7c-0.2-0.6-0.4-1.1-0.5-1.6c-0.5-2.2-0.7-4.4-0.5-6.2
					c0.1-0.9,0.3-1.8,0.4-2.6c0.2-0.8,0.4-1.5,0.7-2.1c0.3-0.6,0.5-1.2,0.7-1.6c0.2-0.5,0.5-0.8,0.7-1.1
					C84.6,43,84.8,42.6,84.8,42.6z M85.7,43.3c0,0.1-0.2,0.3-0.6,0.8c-0.2,0.3-0.4,0.6-0.6,1.1c-0.2,0.4-0.4,1-0.7,1.5
					c-0.2,0.6-0.4,1.3-0.6,2c-0.1,0.8-0.3,1.6-0.4,2.4c-0.2,1.8-0.1,3.8,0.4,5.8c0.2,0.5,0.3,1.1,0.5,1.6c0.2,0.5,0.5,1,0.7,1.5
					c0.2,0.5,0.6,1,0.9,1.5c0.2,0.2,0.3,0.5,0.5,0.8l0.6,0.7c1.6,1.9,3.8,3.4,6.3,4.3c2.6,0.8,5.4,0.9,8.1,0
					c2.7-0.9,5.2-2.6,6.9-4.9c1.8-2.3,2.6-5.2,2.8-8.1c0.2-2.8-0.4-5.7-1.5-8c-1.2-2.5-2.9-4.3-4.9-5.6c-0.5-0.3-1-0.7-1.5-0.9
					c-0.3-0.1-0.5-0.3-0.8-0.4c-0.3-0.1-0.5-0.2-0.8-0.3c-0.3-0.1-0.5-0.2-0.8-0.3c-0.2-0.1-0.5-0.1-0.7-0.2
					c-0.2-0.1-0.5-0.1-0.7-0.2c-0.3,0-0.6-0.1-0.8-0.1c-0.3,0-0.6-0.1-0.8-0.1c0.2,0,0,0,0.1,0c-0.1,0-0.2,0-0.2,0l-0.2,0l-0.4,0
					c-0.5,0-1,0-1.4,0.1c-0.9,0.1-1.8,0.3-2.6,0.5c-1.6,0.5-3,1.1-4,1.8c-0.6,0.3-0.9,0.7-1.3,1c-0.4,0.3-0.7,0.6-0.9,0.9
					C85.9,43,85.7,43.3,85.7,43.3z"/>
			</g>
			<path class="st26" d="M83.7,58.7c-0.5-1.3-0.8-2.6-0.9-4c0.2,0.7,0.5,1.5,0.7,2.1c2.1,5.4,7,9.3,12.3,9.6
				c5.3,0.4,10.7-2.8,13.3-7.8c0.6-1.2,1.1-2.5,1.4-3.8c-0.2,2.1-0.7,4-1.6,5.8c-2.6,4.9-8,8-13.1,7.6
				C90.7,67.9,85.7,63.9,83.7,58.7z"/>
			<path class="st25" d="M107.2,50.8c0,3.2-2.6,5.8-5.8,5.8c-3.2,0-5.8-2.6-5.8-5.8c0-3.2,2.6-5.8,5.8-5.8S107.2,47.6,107.2,50.8z"
				/>
			<path class="st0" d="M101.5,48.7c0,1.1-0.9,1.9-1.9,1.9c-1.1,0-1.9-0.9-1.9-1.9s0.9-1.9,1.9-1.9
				C100.7,46.8,101.5,47.6,101.5,48.7z"/>
		</g>
	</g>
</g>
</svg>
