<?xml version="1.0" encoding="utf-8"?>
<!-- Generator: Adobe Illustrator 27.2.0, SVG Export Plug-In . SVG Version: 6.00 Build 0)  -->
<svg version="1.1" xmlns="http://www.w3.org/2000/svg" xmlns:xlink="http://www.w3.org/1999/xlink" x="0px" y="0px"
	 viewBox="0 0 201.2 231.7" style="enable-background:new 0 0 201.2 231.7;" xml:space="preserve">
<style type="text/css">
	.st0{fill:#FFFFFF;}
	.st1{fill:#15264B;}
	.st2{opacity:0.35;}
	.st3{fill:#274B8B;}
	.st4{fill:#0F3747;}
	.st5{opacity:0.5;}
	.st6{opacity:0.4;}
	.st7{fill:#183E75;}
	.st8{opacity:0.2;}
	.st9{fill:#38276B;}
	.st10{fill:#44AC34;}
	.st11{fill:#00983A;}
	.st12{fill:#FCF8FB;}
	.st13{opacity:0.7;}
	.st14{fill:#94613F;}
	.st15{fill:#FFD100;}
	.st16{fill:#EA5B0C;}
	.st17{fill:#D3D5ED;}
	.st18{fill:#D8D8D8;}
	.st19{fill:#121A28;}
	.st20{fill:#E5E1D4;}
	.st21{opacity:0.25;}
	.st22{opacity:0.6;}
	.st23{fill:#FFD346;}
	.st24{fill:#FFDA36;}
	.st25{fill:#1E1E1C;}
	.st26{fill:#EEEDED;}
	.st27{opacity:0.3;}
	.st28{fill:#407FC1;}
	.st29{fill:#B0B3B1;}
	.st30{opacity:0.8;}
	.st31{fill:#E5E5E4;}
	.st32{fill:#BCBCBB;}
	.st33{fill:#E72D47;}
	.st34{fill:#F7A710;}
	.st35{fill:#F2EFEC;}
	.st36{fill:#F9B116;}
	.st37{fill:#F38F1C;}
	.st38{fill:none;stroke:#2A3856;stroke-width:2.1963;stroke-linecap:round;stroke-miterlimit:10;}
	.st39{fill:#D66C12;}
	.st40{fill:#FFD767;}
	.st41{fill:#F7A83D;}
	.st42{fill:#FECF70;}
	.st43{fill:#FFED91;}
	.st44{opacity:0.41;}
	.st45{opacity:0.26;}
	.st46{fill:none;}
	.st47{fill:#261E26;}
	.st48{fill:#E30613;}
	.st49{fill:#E9E8E8;}
	.st50{fill:#4A92CF;}
	.st51{fill:#386EB5;}
	.st52{fill:#B6B6B7;}
	.st53{fill:#DDDDDD;}
	.st54{fill:#FDC423;}
	.st55{fill:#E2A415;}
	.st56{fill:#F9B044;}
	.st57{fill:#EB5759;}
	.st58{fill:#E5201F;}
	.st59{fill:none;stroke:#FFFFFF;stroke-width:2.3076;stroke-linecap:round;stroke-miterlimit:10;}
	.st60{fill:#EDC5D6;}
	.st61{fill:#4A153F;}
	.st62{fill:#E9C8D2;}
	.st63{fill:#DFB0BE;}
	.st64{fill:#D6D6EA;}
	.st65{fill:#BDBDE0;}
	.st66{fill:#232323;}
	.st67{fill:#A7ABCC;}
	.st68{fill:#EDCCA9;}
	.st69{fill:#492311;}
	.st70{fill:#2A3856;}
	.st71{fill:#05646E;}
	.st72{fill:#F28D70;}
	.st73{fill:#BEC5CA;}
	.st74{fill:#54767A;}
</style>
<g id="Fondo">
</g>
<g id="Grafica">
</g>
<g id="Informazioni">
	<path class="st0" d="M196.8,61.6c-0.9-2.2-6.8-5.8-11.1-8.1C177.1-5.2,93.3-15,71.3,40.1c-4.6,1.3-11.2,3.4-12.6,5.3
		c-3.1,4.4-5.8,29.3,0,38c-5.9-4.5-11.1-8.5-16.5-12.8c-0.2-4.3-1-10.8-6.3-11.7c-2.3-0.3-4.6,1.1-5.6,3.1c-6.5-4-12.2-5.5-18-0.8
		c-4.1,1-6.6,3.8-6.9,8.3C-1.7,79,8.6,90.7,16.6,97.6c8.1,7.4,28,25.8,49.3,36.6c-0.3,3.7-0.6,7.4-0.7,11.2c-3.5,0.6-6.9,1.6-8,3.3
		c-1.4,2.3-1.2,11.7-1.1,15.7c1.1,17.7,1.7,17.1,10.7,18c2.8,9.9,7.7,21.5,18.7,24.3c0.9,8.2,3.4,18.7,12.8,20.7
		c8,2,21.7,0.9,23-9.1h0.4c5.3,6,13,10.1,21,10.7c10,1.2,22.3-7.3,18.6-18.3c13.7-3.7,21-19,13.5-31.1c6.8-17.9-7-48.3-20.9-63.3
		c7-3.6,13.3-8.6,18.4-14.7c6-0.3,13-1,15-2.6C195.5,92.7,198.9,66.7,196.8,61.6z"/>
	<g>
		<path class="st46" d="M145.9,199.9c-0.2,0.1-0.5,0.2-0.7,0.3C145.4,200,145.7,199.9,145.9,199.9z"/>
		<path class="st46" d="M169.4,181.6c0.1,0.1,0.2,0.2,0.2,0.2C169.5,181.7,169.5,181.7,169.4,181.6z"/>
		<path class="st46" d="M88.2,191.1c-0.1,4.6,0.2,9,0.6,12.4c0,0.1,0,0.1,0,0.2c-0.2-2.8-0.4-5.6-0.6-8.2
			C88.2,194.1,88.1,192.6,88.2,191.1z"/>
		<path class="st46" d="M148.8,199.9c-0.3-0.1-0.6-0.1-1-0.1C148.2,199.8,148.5,199.8,148.8,199.9z"/>
		<path class="st46" d="M170,182.2c0.1,0.1,0.2,0.2,0.3,0.3C170.2,182.4,170.1,182.3,170,182.2z"/>
		<path class="st46" d="M171.1,183.5c0.1,0.2,0.2,0.3,0.3,0.5C171.4,183.8,171.3,183.6,171.1,183.5z"/>
		<path class="st46" d="M170.6,182.8c0.1,0.1,0.2,0.3,0.3,0.4C170.8,183.1,170.7,183,170.6,182.8z"/>
		<path class="st46" d="M115,222.4c0.3-0.2,0.7-0.4,1-0.6c1.1-1,1.7-2.2,2-3.6C117.5,220,116.4,221.4,115,222.4z"/>
		<path class="st46" d="M119.2,200.1c0-1.5,0-4.6,0-7.9C119.2,195.5,119.2,198.7,119.2,200.1z"/>
		<path class="st46" d="M171.6,184.2c0.1,0.2,0.2,0.4,0.3,0.6C171.8,184.6,171.7,184.4,171.6,184.2z"/>
		<path class="st46" d="M172.2,197.1c-0.1,0.1-0.1,0.2-0.2,0.3C172.1,197.3,172.1,197.2,172.2,197.1z"/>
		<path class="st46" d="M120.6,181.2l1.6,1.3C121.5,181.9,120.9,181.4,120.6,181.2z"/>
		<path class="st46" d="M172.7,195.7c-0.1,0.2-0.2,0.4-0.2,0.6C172.6,196.1,172.7,195.9,172.7,195.7z"/>
		<path class="st46" d="M129.8,188.6c-0.7-0.5-1.7-1.2-2.7-2l2,1.7L129.8,188.6z"/>
		<path class="st46" d="M173.1,194.6c0,0.2-0.1,0.3-0.2,0.5C173,194.9,173.1,194.8,173.1,194.6z"/>
		<path class="st46" d="M146.8,199.7c-0.3,0-0.5,0.1-0.8,0.1C146.3,199.8,146.5,199.8,146.8,199.7z"/>
		<path class="st46" d="M146.9,199.7c0.3,0,0.6,0,0.9,0C147.5,199.7,147.2,199.7,146.9,199.7z"/>
		<path class="st46" d="M149.4,200c0.2,0.1,0.5,0.2,0.7,0.2c0,0,0,0,0,0C149.8,200.2,149.6,200.1,149.4,200z"/>
		<path class="st46" d="M157.1,219.2c1.7-2.8,1.8-5.5,0.8-8C158.8,213.6,158.8,216.4,157.1,219.2z"/>
		<path class="st46" d="M145.8,201.3c3.1,1,6.5,3,9,5.5C152.2,204.3,148.8,202.3,145.8,201.3c-0.4-0.1-0.6-0.5-0.6-0.8
			C145.2,200.8,145.4,201.2,145.8,201.3z"/>
		<path class="st46" d="M159.6,172c1.3,0.5,2.7,1.2,4,2C162.3,173.2,160.9,172.5,159.6,172z"/>
		<path class="st46" d="M173.4,193.3c0.3-1.8,0.2-3.5-0.2-5.2C173.7,189.7,173.7,191.5,173.4,193.3z"/>
		<path class="st46" d="M164.4,169.6c-1.2-0.6-2.4-1.2-3.7-1.7C162,168.4,163.2,168.9,164.4,169.6z"/>
		<path class="st46" d="M173,187.2c0.1,0.3,0.2,0.5,0.2,0.8C173.2,187.8,173.1,187.5,173,187.2z"/>
		<path class="st46" d="M172.1,184.9c0.1,0.2,0.2,0.4,0.3,0.6C172.3,185.3,172.2,185.1,172.1,184.9z"/>
		<path class="st46" d="M172.8,186.4c0.1,0.3,0.2,0.5,0.3,0.8C172.9,187,172.9,186.7,172.8,186.4z"/>
		<path class="st46" d="M172.4,185.7c0.1,0.2,0.2,0.5,0.3,0.7C172.6,186.1,172.5,185.9,172.4,185.7z"/>
		<path class="st46" d="M150.5,180.7C150.5,180.7,150.5,180.7,150.5,180.7c-4.2,2.5-7.6,4.5-10.7,6.4
			C142.9,185.1,146.3,183.1,150.5,180.7C150.5,180.7,150.5,180.7,150.5,180.7z"/>
		<path class="st46" d="M137.9,201.4c5.7,2,11.3,5.3,15,9.4C149.2,206.7,143.6,203.3,137.9,201.4z"/>
		<path class="st46" d="M168.7,181c-2.7-2-6.4-3.1-10.9-2.5C161.7,178.2,165.7,179,168.7,181z"/>
		<path class="st46" d="M8.5,72.6c-0.4,0.5-0.7,1.1-0.9,1.8c-1.2,3.9,1.1,9,6.4,14.8C8.6,83,5.6,77.1,8.5,72.6z"/>
		<path class="st46" d="M58.6,88.7c1.4,1,2.8,2,4.2,3C61.4,90.7,60,89.7,58.6,88.7z"/>
		<path class="st46" d="M41.6,76.3c0.2-0.1,0.3-0.3,0.3-0.5C41.8,76,41.7,76.2,41.6,76.3z"/>
		<path class="st46" d="M41.4,76.3c0.1,0,0.1,0,0.2,0c-0.3,0-0.5-0.7-0.8-1.7c0,0.1,0,0.2,0.1,0.3C41,75.4,40.8,76.1,41.4,76.3z"/>
		<path class="st46" d="M23.5,82.9c-0.1,0.1-0.3,0.1-0.5,0C23.2,83,23.4,83,23.5,82.9z"/>
		<path class="st46" d="M33.1,68.9c0.1-1.4,0.2-2.9,0.5-4.1C33.1,66.1,33.1,67.5,33.1,68.9z"/>
		<path class="st46" d="M31.9,73.4c0.2-0.1,0.4-0.3,0.6-0.6C32.4,73,32.1,73.2,31.9,73.4c-1.6,0.9-3,2.1-4.2,3.5
			C28.9,75.5,30.3,74.2,31.9,73.4z"/>
		<path class="st46" d="M36.2,63.1c0.8,0.8,1.3,1.7,1.8,2.7c-0.8-1.9-1.8-3.3-3-2.9c0,0-0.1,0.1-0.1,0.1
			C35.3,62.9,35.7,62.9,36.2,63.1z"/>
		<path class="st46" d="M107.8,164C107.8,164,107.8,164,107.8,164C107.8,164,107.8,164,107.8,164C107.8,164,107.8,164,107.8,164
			C107.8,164,107.8,164,107.8,164z"/>
		<path class="st46" d="M20.7,62.6c-2-0.2-3.5,0.4-5,1.4C17.4,63.1,18.8,62.5,20.7,62.6z"/>
		<path class="st46" d="M9.7,70c0.3-1.2,0.4-2.2,1-3C10.1,67.6,9.8,68.5,9.7,70z"/>
		<path class="st46" d="M154.7,14c-6.4-3.7-13.7-6.1-21.5-7.1c-7.7-0.9-15.3-0.2-22.4,1.9C125.3,4.9,141.5,6.8,154.7,14z"/>
		<path class="st46" d="M43.7,115c-3.4-2.9-8.2-6.6-13.1-10.6C34.3,107.6,38.6,111.1,43.7,115z"/>
		<path class="st46" d="M29.9,70.7C29.9,70.7,29.9,70.6,29.9,70.7C29.9,70.6,29.9,70.6,29.9,70.7C29.9,70.6,29.9,70.6,29.9,70.7
			C29.9,70.6,29.9,70.6,29.9,70.7C29.9,70.7,29.9,70.7,29.9,70.7c-0.1,0.1-0.1,0.1-0.1,0.1C29.8,70.7,29.9,70.7,29.9,70.7
			C29.9,70.7,29.9,70.7,29.9,70.7z"/>
		<path class="st46" d="M73.1,89.9c-3.7-1.1-7.8-2.4-10.6-3.8c4.5,3.2,9.1,6.5,13.8,9.4C75.1,93.7,74,91.9,73.1,89.9z"/>
		<path class="st46" d="M111.1,11.8c13.8-2.9,28.7-1.2,41.6,4.6c-8.5-4-18-6.2-27.6-6.2C120.3,10.3,115.7,10.8,111.1,11.8z"/>
		<path class="st46" d="M110.1,203.4c-2.3,0-4.8,0.2-7.1,0.6C105.3,203.6,107.8,203.3,110.1,203.4z"/>
		<path class="st46" d="M94.9,221.9c-1.9-2.1-3.2-4.5-4.2-7.2C91.6,217.4,92.8,219.9,94.9,221.9z"/>
		<path class="st46" d="M110.5,205c2.3,0.2,4.4,0.9,6.2,2.2C114.9,205.9,112.7,205.2,110.5,205z"/>
		<path class="st46" d="M89.2,179.6c0.4-2,0.9-4,1.5-5.8C90.1,175.6,89.6,177.6,89.2,179.6z"/>
		<path class="st46" d="M113.8,169.3c-0.3-0.8-0.7-1.5-1.1-2.3c-0.4-0.4-0.9-0.8-1.4-1.2C112.3,166.8,113.2,167.9,113.8,169.3z"/>
		<path class="st46" d="M115.8,189.2c0.1-2.9,0.1-6.1,0-9.1C115.8,182.5,115.8,185.8,115.8,189.2z"/>
		<path class="st46" d="M97.2,206.3c-0.1-0.1-0.2-0.2-0.2-0.3l0,0C97,206.2,97.1,206.3,97.2,206.3z"/>
		<path class="st46" d="M62,177.1c0.1,0.1,0.2,0.1,0.3,0.2C62.3,177.3,62.1,177.2,62,177.1C62,177.1,62,177.1,62,177.1z"/>
		<path class="st46" d="M60.7,168.9c-0.1-1.3-0.2-2.6-0.2-4C60.5,166.2,60.6,167.6,60.7,168.9z"/>
		<path class="st46" d="M65.1,155.8c0-2,0-4,0-6C65,151.8,65,153.8,65.1,155.8z"/>
		<path class="st46" d="M105.5,224.8c-3,0-6.1-0.6-8.4-1.7C99.6,224.3,102.5,224.9,105.5,224.8z"/>
		<path class="st46" d="M151.3,176.8c-2.5,1-4.9,2.3-7.2,4C146.4,179.1,148.8,177.8,151.3,176.8z"/>
		<path class="st46" d="M13.9,65.2c-0.2,0.1-0.4,0.2-0.6,0.2c0.1,0,0.2-0.1,0.4-0.1C13.7,65.3,13.8,65.2,13.9,65.2z"/>
		<path class="st46" d="M71.7,142c0.4-1.5,0.7-3,1.1-4.5c-0.9-0.4-1.8-0.8-2.7-1.2c-0.2,2.8-0.4,5.6-0.5,8.3
			c-0.1,2.8-0.2,5.6-0.2,8.3c0.3-1.6,0.6-3.3,0.9-4.9c0.1-0.3,0.1-0.5,0.2-0.8c0.1-0.3,0.1-0.6,0.2-1c0.2-1,0.5-2,0.7-3.1
			C71.5,142.8,71.6,142.4,71.7,142z"/>
		<path class="st46" d="M118.1,215.1c0.1,0.6,0.1,1.2,0,1.7c0.1-1.7-0.1-3.5-0.4-5.2C117.9,212.8,118.1,214,118.1,215.1z"/>
		<path class="st46" d="M155.4,169c0-1,0.6-1.9,1.7-2.1C156,167.1,155.4,168.1,155.4,169z"/>
		<path class="st46" d="M157.3,145.5c0.5,2.1,0.8,3.7,0.9,4.1c1.2,6,2.1,12.1,2.5,18.3c-0.4-6.2-1.3-12.2-2.5-18.3
			C158.1,149.2,157.8,147.7,157.3,145.5z"/>
		<path class="st46" d="M157.2,171.2c-0.1,0-0.1,0-0.2-0.1c-0.4-0.1-0.8-0.3-1-0.5c0.3,0.3,0.6,0.4,1,0.5
			C157.1,171.2,157.2,171.2,157.2,171.2z"/>
		<path class="st46" d="M154.5,148.5c-1.2-6.1-2.5-12.2-3.7-18.3c0,0,0,0,0,0C152,136.2,153.4,142.3,154.5,148.5z"/>
		<path class="st46" d="M150.8,130.1c0.5-1.5,1.1-1.1,1.9,0.3C151.9,129,151.3,128.6,150.8,130.1z"/>
		<path class="st46" d="M154.4,175.8c4.2-1,8.6-0.8,12.9,0.9C163,175,158.6,174.8,154.4,175.8z"/>
		<path class="st46" d="M74.1,176.6c0.2-2.3,0.8-4.6,1.7-6.7C75,172,74.4,174.2,74.1,176.6C74.1,176.6,74.1,176.6,74.1,176.6z"/>
		<path class="st46" d="M86.9,161.9c-5.2,3.3-9.3,8.8-11.1,14.8c0,0.3-0.2,0.4-0.3,0.5c0.2-0.1,0.3-0.3,0.3-0.5
			C77.6,170.7,81.7,165.3,86.9,161.9z"/>
		<path class="st46" d="M104.8,160.1c-3.1-1.3-6.3-1.7-9.3-1.3C98.5,158.4,101.6,158.8,104.8,160.1z"/>
		<path class="st46" d="M74.9,177.4c-0.4,0-0.8-0.3-0.8-0.8C74.1,177.1,74.5,177.4,74.9,177.4z"/>
		<path class="st46" d="M101.6,160.1c1-0.1,2-0.1,3.2,0C103.7,160,102.7,160,101.6,160.1z"/>
		<path class="st46" d="M185.6,73.3c0.3-1.4,0.4-2.9,0.6-4.3C186,70.4,185.8,71.8,185.6,73.3z"/>
		<path class="st46" d="M167.6,171.5c1.4,1,2.7,2.2,4.2,3.7C170.3,173.7,169,172.5,167.6,171.5z"/>
		<path class="st46" d="M142.1,182.3c-2,1.2-6,3.3-8.2,4.7C136.1,185.6,140.1,183.6,142.1,182.3z"/>
		<path class="st46" d="M186.5,62.8c0-1.7-0.1-3.4-0.2-5.1C186.4,59.4,186.5,61.1,186.5,62.8z"/>
		<path class="st46" d="M171.8,175.2c1.4-6.4,0.5-14.1-1.8-22C172.3,161.1,173.2,168.8,171.8,175.2z"/>
		<path class="st46" d="M166.4,28.7c-8.6-7.8-20.2-13.3-34-15.1c-7.1-0.8-14.5-0.4-21.5,1.3C130.4,10.8,152,16.3,166.4,28.7z"/>
		<path class="st46" d="M161,108C161,108,161,108,161,108c0,0-0.1,0.1-0.2,0.1C160.9,108.1,161,108.1,161,108z"/>
		<path class="st46" d="M104.8,21.7c17.3-5,37-2.7,52.7,6.2c-7.6-4.4-16.3-7.4-25.7-8.5C122.3,18.3,113.1,19.2,104.8,21.7z"/>
		<path class="st46" d="M118,158.1c-0.1-0.2-0.3-0.4-0.5-0.7C117.7,157.7,117.9,157.9,118,158.1z"/>
		<path class="st46" d="M77.1,124c-1.3,3.4-2.5,7.5-2.9,8.9C74.6,131.6,75.8,127.5,77.1,124z"/>
		<path class="st46" d="M89.4,167.7c-3.6,5.2-4.9,11.6-5.1,18.1C84.7,179.5,86.2,172.7,89.4,167.7z"/>
		<path class="st46" d="M76,138.8c0.3,0.1,0.6,0.2,1.1,0.3C76.6,139,76.3,138.8,76,138.8z"/>
		<path class="st46" d="M101.2,154.5c0.3,0.4,0.6,0.8,0.9,1.1C101.8,155.2,101.5,154.9,101.2,154.5z"/>
		<path class="st46" d="M96.6,149c0.5,0.6,1.1,1.4,1.7,2.1C97.8,150.3,97.2,149.6,96.6,149z"/>
		<path class="st46" d="M116,165.8c0.6-0.8,1.4-1.9,2-2.7C117.4,163.9,116.6,165,116,165.8z"/>
		<path class="st46" d="M71.6,162c-1.2,9.7-1.2,19.8,1.9,27.8C70.4,181.9,70.4,171.8,71.6,162z"/>
		<path class="st46" d="M79.3,119.3c0.6-0.8,1.2-0.9,1.5,0.4v0C80.5,118.4,79.9,118.4,79.3,119.3z"/>
		<path class="st46" d="M114.2,153.1c-0.6-0.8-1.2-1.5-1.7-2.3C113,151.6,113.6,152.4,114.2,153.1z"/>
		<path class="st46" d="M66.5,129.8c-2.1-1.1-4.2-2.3-6.3-3.5C62.3,127.5,64.4,128.7,66.5,129.8z"/>
		<path class="st46" d="M117.8,170.1c-0.2-0.8-0.5-1.5-0.8-2.2C117.3,168.7,117.6,169.4,117.8,170.1z"/>
		<path class="st7" d="M121.8,205C121.8,205,121.8,205.1,121.8,205c-0.5,0.8-0.8,1.6-0.8,2.6c0,0,0,0.1,0,0.1c0-1.2,0.4-2.2,1-3.1
			C122,204.8,121.9,204.9,121.8,205z"/>
		<g>
			<path class="st3" d="M153.8,219.3c0,0-0.1-0.1-0.1-0.1c-0.8-1.2-1.8-2.5-2.9-3.6c-0.9,2.8-2.6,6.4-5.8,9.7
				c1.6-0.1,3.6-0.3,5.3-0.9c1.9-0.7,3.5-1.9,3.6-4.1c0-0.1,0-0.2,0-0.4C153.9,219.7,153.8,219.5,153.8,219.3z"/>
			<path class="st3" d="M121.2,209.3c0.1,0.4,0.2,0.9,0.4,1.4c0.1,0.4,0.3,0.8,0.4,1.2c1.4-1.7,3.4-4.4,5-7.3
				C124.1,205.1,121.8,206.7,121.2,209.3z"/>
			<path class="st3" d="M137.7,206.9c-2.1,4.9-5.8,10.1-8.8,12.7c0.5,0.4,1,0.7,1.5,1c0.1,0.1,0.2,0.2,0.4,0.2
				c0.5,0.3,1,0.6,1.5,0.9c3.2-2.7,7.4-8.7,9.2-13C140.2,208,138.9,207.4,137.7,206.9z"/>
			<path class="st3" d="M144.3,210.4c-1.9,4.4-5.6,9.7-8.9,12.9c1.7,0.7,3.4,1.3,5.2,1.6c5-3.9,6.9-8.7,7.6-11.7
				C146.9,212.2,145.6,211.2,144.3,210.4z"/>
			<path class="st3" d="M130.7,204.7c-2.2,4.3-5.3,8.2-6.9,10.1c0.7,1,1.6,1.9,2.5,2.8c2.3-1.9,6.2-6.9,8.3-11.8
				C133.2,205.2,131.9,204.9,130.7,204.7z"/>
		</g>
		<g>
			<path class="st17" d="M151.3,213.8c-0.1,0.6-0.3,1.2-0.5,1.8c1.1,1.2,2.1,2.4,2.9,3.6c0,0.1,0.1,0.1,0.1,0.1
				C153.7,217.7,152.8,215.8,151.3,213.8z"/>
			<path class="st17" d="M127.1,202.6c-0.7,0.1-1.4,0.2-2,0.4c-1.4,0.4-2.4,1-3,1.7c0,0,0,0,0,0c-0.6,0.9-1,1.9-1,3.1
				c0,0.5,0.1,1,0.2,1.5c0.6-2.5,2.9-4.1,5.8-4.6c0.4-0.7,0.8-1.4,1.1-2.1c-0.3,0-0.6,0-0.9,0C127.2,202.6,127.2,202.6,127.1,202.6z
				"/>
			<path class="st17" d="M137.7,206.9c1.3,0.5,2.6,1.2,3.8,1.9c0.3-0.7,0.5-1.3,0.7-1.9c-1.2-0.6-2.5-1.2-3.8-1.7
				C138.2,205.7,137.9,206.3,137.7,206.9z"/>
			<path class="st17" d="M144.3,210.4c1.3,0.9,2.7,1.8,3.9,2.8c0.2-1,0.3-1.8,0.4-2.3c-1-0.8-2.2-1.6-3.5-2.4
				C144.8,209,144.6,209.7,144.3,210.4z"/>
			<path class="st17" d="M130.7,204.7c1.2,0.2,2.5,0.6,4,1c0.3-0.6,0.5-1.2,0.7-1.7c-1.3-0.4-2.6-0.8-3.8-1
				C131.3,203.5,131,204.1,130.7,204.7z"/>
		</g>
		<path class="st0" d="M125.1,10.3c9.6-0.1,19.1,2.2,27.6,6.2c8.9,4,16.8,10,22.6,17.9c-4.8-8.2-11.7-15.1-20-20
			c-0.2-0.1-0.3-0.2-0.5-0.3c-0.1,0-0.1-0.1-0.2-0.1c-13.2-7.2-29.3-9.1-43.8-5.2c-0.1,0-0.2,0-0.2,0.1C110.4,8.9,110.2,9,110,9
			c-9.2,2.8-17.4,7.9-24,14.8c7.3-6.1,16-10,25.2-11.9C115.7,10.8,120.3,10.3,125.1,10.3z"/>
		<path class="st0" d="M194.1,65c0-0.2,0-0.5-0.1-0.7c0-0.1,0-0.2,0-0.2c0-0.2-0.1-0.3-0.1-0.5c0-0.1,0-0.1,0-0.2
			c0-0.2-0.1-0.4-0.2-0.5c-0.5-0.9-3.7-3-7.5-5.2c0.2,1.7,0.2,3.4,0.2,5.1c0,1.7-0.1,3.4-0.2,5.2c0,0.3-0.1,0.6-0.1,0.9
			c-0.1,1.5-0.3,2.9-0.6,4.3c-0.2,1-0.4,2-0.6,3c-0.3,1.2-0.6,2.5-1,3.7c-0.4,1.3-0.8,2.5-1.2,3.7c-0.2,0.6-0.4,1.2-0.7,1.7
			c0.1-0.2,0.2-0.4,0.3-0.6c0,0,0-0.1,0-0.1c0.1-0.3,0.2-0.6,0.3-0.9c3.8,1.9,6.7,1.8,8.4,1.4c1.1-3.9,2-8.1,2.5-11.9
			c0,0,0-0.1,0-0.1c0.1-0.5,0.1-1,0.2-1.5c0,0,0-0.1,0-0.1c0.1-1,0.2-1.9,0.2-2.8c0-0.1,0-0.2,0-0.2c0-0.3,0-0.7,0-1
			c0-0.1,0-0.2,0-0.3c0-0.3,0-0.6,0-0.9c0-0.1,0-0.1,0-0.2c0-0.3,0-0.7,0-1C194.1,65.2,194.1,65.1,194.1,65z"/>
		<path class="st0" d="M67.2,70.3c0,0.3,0.1,0.6,0.1,0.9c0,0,0,0.1,0,0.1c0.1,1.1,0.3,2.1,0.5,3.1c0,0,0,0,0-0.1
			c-0.2-1.1-0.4-2.3-0.6-3.4c-0.2-1.2-0.3-2.3-0.4-3.5c-0.1-1.7-0.2-3.4-0.2-5.1c0.1-6.3,1.1-12.5,3.1-18.4
			c-4.2,1.3-7.8,2.6-8.5,3.4c-0.1,0.1-0.2,0.3-0.3,0.5c0,0.1-0.1,0.1-0.1,0.2c-0.1,0.1-0.1,0.3-0.2,0.5c0,0.1-0.1,0.2-0.1,0.2
			c-0.1,0.2-0.1,0.4-0.2,0.6c0,0.1,0,0.1-0.1,0.2c-0.1,0.3-0.2,0.6-0.3,1c0,0.1,0,0.1,0,0.2c-0.1,0.3-0.1,0.6-0.2,0.9
			c0,0.1,0,0.2-0.1,0.3c-0.1,0.3-0.1,0.6-0.2,1c0,0.1,0,0.2,0,0.2c-0.2,0.9-0.3,1.8-0.4,2.8c0,0,0,0.1,0,0.1c-0.1,0.5-0.1,1-0.2,1.5
			c0,0,0,0.1,0,0.1c-0.4,3.8-0.6,8.1-0.4,12.1C60.2,70.5,63,71.3,67.2,70.3z"/>
		<path class="st15" d="M112.8,161.3c0.5,0.6,1,1.2,1.5,1.8l0.7-1v-3l-6.6-8.5h-6.6l5.5,6.7c1.4,0.7,2.7,1.5,3.9,2.5
			C111.8,160.2,112.3,160.8,112.8,161.3z"/>
		<path class="st11" d="M131,185.9v-6.6l-8.5-6.6h-3l-0.8,0.6c0.3,1.7,0.6,3.5,0.6,5.3l1.4-1.2L131,185.9z"/>
		<path class="st0" d="M120.6,198.3c0.3-0.4,0.7-0.8,1-1.1c0.1-0.1,0.2-0.2,0.3-0.3c0.4-0.4,0.8-0.9,1.2-1.3
			c0.1-0.1,0.1-0.1,0.2-0.2c0.5-0.5,1-1,1.6-1.5c0,0,0.1-0.1,0.1-0.1c0.5-0.5,1.1-0.9,1.6-1.4c0.2-0.1,0.3-0.3,0.5-0.4
			c0.4-0.3,0.8-0.6,1.1-0.9c0.3-0.2,0.5-0.4,0.8-0.6c0.6-0.4,1.1-0.9,1.7-1.3c-0.2,0-0.6-0.2-1-0.6l-0.7-0.4l-2-1.7
			c-1.7-1.3-3.5-2.9-4.9-4l-1.6-1.3l-1.4,1.2c0,1.8,0,5.9,0,9.8c0,3.3,0,6.5,0,7.9c0.4-0.5,0.7-1,1.1-1.5
			C120.5,198.5,120.5,198.4,120.6,198.3z"/>
		<path class="st0" d="M60.8,170.5c0,0.3,0.1,0.6,0.1,0.9c0,0,0,0,0,0C60.9,171.1,60.8,170.8,60.8,170.5
			C60.8,170.5,60.8,170.5,60.8,170.5z"/>
		<path class="st0" d="M60.7,168.9C60.7,168.9,60.7,168.9,60.7,168.9C60.7,168.9,60.7,168.9,60.7,168.9L60.7,168.9z"/>
		<path class="st17" d="M60.7,168.9C60.7,168.9,60.7,168.9,60.7,168.9C60.7,168.9,60.7,168.9,60.7,168.9c0,0.1,0,0.1,0,0.1
			c0,0.4,0.1,0.8,0.1,1.2c0,0,0,0,0,0c0,0.1,0,0.3,0,0.4c0,0.3,0.1,0.6,0.1,0.9c0,0.1,0,0.3,0,0.4c0,0.4,0.1,0.7,0.1,1
			c0,0,0,0.1,0,0.1c0,0.1,0,0.1,0,0.2c0,0.3,0.1,0.6,0.1,0.8c0,0.1,0,0.2,0.1,0.4c0,0.2,0.1,0.4,0.1,0.6c0,0.1,0,0.2,0.1,0.3
			c0.1,0.3,0.1,0.5,0.2,0.7c0,0,0,0,0,0c0,0,0,0,0,0.1c0.1,0.2,0.1,0.4,0.2,0.5c0,0,0,0,0,0.1c0,0,0,0.1,0,0.1
			c0.1,0.2,0.1,0.3,0.2,0.4c0,0,0,0,0,0c0,0,0,0,0,0c0,0,0,0,0,0c0.1,0.1,0.2,0.1,0.3,0.2c0.1,0,0.1,0.1,0.2,0.1c0,0,0,0,0,0
			c0.1,0,0.2,0.1,0.3,0.1c0.1,0,0.1,0,0.2,0.1c0.3,0.1,0.5,0.1,0.8,0.2c0,0,0,0,0,0c0.3,0.1,0.6,0.1,0.9,0.1c0,0,0.1,0,0.1,0
			c0.4,0,0.9,0.1,1.3,0.1c-0.3-2.9-0.6-5.7-0.8-8.6C64.1,169.5,62.2,169.4,60.7,168.9z"/>
		<path class="st0" d="M118.1,215.1c0-1.1-0.2-2.3-0.4-3.4c-0.3-1.6-0.7-3.1-1-4.4c-1.8-1.4-4-2-6.2-2.2c-4.3-0.4-9,0.7-12.9,1.4
			c-0.1,0-0.2,0-0.3,0c-0.1-0.1-0.2-0.2-0.2-0.3l0,0c0,0,0,0,0,0c1.4-0.9,3.6-1.6,6-2.1c2.3-0.4,4.7-0.7,7.1-0.6
			c2.2,0,4.2,0.3,5.7,0.8c0-2.4,0-6.3,0-8.6c-0.1-1.9,0-4.1,0-6.3c0-3.4,0-6.6,0-9.1c-0.2-3.9-0.7-7.6-2-10.8
			c-0.6-1.3-1.5-2.5-2.6-3.4c-1-0.8-2.2-1.4-3.5-1.9c0,0,0,0,0,0c0,0,0,0,0,0c-6.3-1.8-10.6-0.2-13.6,3.4c-0.1,0.1-0.2,0.3-0.3,0.4
			c-0.1,0.1-0.1,0.2-0.2,0.3c-0.3,0.4-0.6,0.9-0.9,1.4c-0.3,0.4-0.5,0.9-0.7,1.4c0,0,0,0,0,0c-0.2,0.5-0.4,1-0.7,1.5
			c-0.1,0.3-0.3,0.7-0.4,1c-0.1,0.2-0.1,0.3-0.2,0.5c-0.6,1.8-1.1,3.8-1.5,5.8c0,0.1,0,0.1,0,0.2c-0.1,0.5-0.2,1-0.3,1.5
			c0,0.1,0,0.2,0,0.3c-0.1,0.8-0.2,1.5-0.3,2.3c0,0.3-0.1,0.6-0.1,1c0,0.3-0.1,0.6-0.1,0.9c0,0.4-0.1,0.8-0.1,1.2c0,0.2,0,0.5,0,0.7
			c0,0.5-0.1,1.1-0.1,1.6c0,0.5,0,1,0,1.5c0,0.1,0,0.3,0,0.4c0,1.5,0,3,0.1,4.4c0.2,2.6,0.3,5.4,0.6,8.2c0.6,3.5,0.9,7.4,2,11
			c0.9,2.7,2.2,5.1,4.2,7.2c0,0,0,0,0,0c0.7,0.5,1.4,0.9,2.1,1.2c2.4,1.1,5.4,1.7,8.4,1.7c3.4-0.1,6.7-0.9,9.5-2.4
			c1.4-1,2.5-2.4,3-4.2c0-0.1,0.1-0.3,0.1-0.4c0,0,0,0,0,0c0-0.3,0.1-0.6,0.1-0.9C118.2,216.3,118.2,215.7,118.1,215.1z"/>
		<path class="st17" d="M182.8,83.9c-0.1,0.3-0.2,0.6-0.3,0.9c0,0,0,0.1,0,0.1c-0.1,0.2-0.2,0.4-0.3,0.6c-0.3,0.6-0.5,1.3-0.8,1.9
			c-0.1,0.2-0.2,0.3-0.2,0.5c-0.2,0.4-0.4,0.8-0.6,1.2c-0.2,0.5-0.5,1-0.8,1.5c0,0.1-0.1,0.1-0.1,0.2c-1.3,2.5-2.8,4.9-4.5,7.2
			c5.1-0.4,9.3-0.9,10.1-1.6c2.4-1.9,4.4-6.2,5.8-11.1C189.4,85.7,186.6,85.8,182.8,83.9z"/>
		<path class="st17" d="M71.2,85.8c-0.5-1.2-1-2.5-1.4-3.7c0,0,0,0,0,0c-0.3-0.9-0.6-1.7-0.8-2.6c0-0.2-0.1-0.3-0.1-0.5
			c-0.2-0.8-0.4-1.6-0.6-2.4c0-0.1,0-0.1,0-0.2c0-0.1,0-0.1,0-0.2c-0.1-0.6-0.2-1.2-0.4-1.7c0,0,0-0.1,0-0.1c-0.2-1-0.4-2.1-0.5-3.1
			c0,0,0-0.1,0-0.1c0-0.3-0.1-0.6-0.1-0.9c-4.2,1-6.9,0.2-8.5-0.6c0.3,5.1,1.2,9.8,3.1,12.2C62.4,82.8,66.3,84.3,71.2,85.8z"/>
		<path class="st3" d="M113,67.3c2-0.4,3.9-1.1,5.6-2l1.2-0.6c0.4-0.2,0.7-0.5,1.1-0.7c0.7-0.5,1.5-0.9,2-1.6
			c0.6-0.6,1.3-1.1,1.8-1.7c0.3-0.3,0.5-0.6,0.8-0.9c-0.3,0.3-0.6,0.7-0.9,1C121.5,64.1,117.3,66.4,113,67.3z"/>
		<path class="st3" d="M126.3,58.9c0.1-0.1,0.1-0.2,0.2-0.3c-0.2,0.3-0.5,0.7-0.8,1C125.9,59.3,126.1,59.1,126.3,58.9z"/>
		<path class="st3" d="M164.1,45.6C164.1,45.6,164.1,45.6,164.1,45.6C164.2,45.6,164.2,45.6,164.1,45.6z"/>
		<path class="st3" d="M172.5,74.9c-0.7,1.2-1.4,2.4-2.3,3.5C171.1,77.3,171.8,76.2,172.5,74.9z"/>
		<path class="st3" d="M183.1,66.5c0.1-4-0.3-7.9-1.2-11.7c-4.9-11.5-13.4-20.3-23.6-26.3c-0.3-0.2-0.6-0.3-0.8-0.5c0,0-0.1,0-0.1,0
			c-15.7-8.9-35.4-11.2-52.7-6.2c-0.1,0-0.2,0.1-0.4,0.1c-0.3,0.1-0.6,0.2-0.9,0.3c-11.7,3.6-22.2,10.6-29.6,21.2
			c-1.8,4.1-3,8.5-3.4,13.2c-0.7,5.2-0.5,10.4,0.3,15.5C85.1,93.8,153.2,123.9,183.1,66.5z M133.5,64.7c0.1-0.8,0.1-1.6,0.2-2.4
			c0.5-3.3,1.5-6.2,2.8-8.5c0.6-1.2,1.4-2.2,2-3.2c0.7-0.9,1.4-1.7,2-2.5c0.7-0.7,1.3-1.3,1.9-1.8c0.5-0.5,1.1-0.8,1.5-1.1
			c0.8-0.6,1.3-0.9,1.3-0.9c0,0,0.5-0.3,1.4-0.8c0.4-0.2,1-0.6,1.7-0.8c0.7-0.3,1.5-0.7,2.5-0.9c1.9-0.6,4.2-1,7-1
			c2.8,0.1,5.9,0.8,8.9,2.5c0.3,0.2,0.7,0.4,1,0.6c0.4,0.3,0.7,0.5,1.1,0.8c0.4,0.3,0.7,0.6,1.1,0.9c0.3,0.3,0.6,0.6,1,1
			c0.3,0.3,0.6,0.7,1,1c0.3,0.4,0.6,0.7,0.9,1.1c0.6,0.7,1.1,1.5,1.6,2.4c1.8,3.1,3,6.8,3.1,10.6c0,0.3,0,0.6,0,0.9
			c0,4.3-1.2,8.5-3.3,12.2c-1,1.9-2.3,3.6-3.8,5.1c-1.5,1.6-3.3,3-5.2,4.1c-3.8,2.2-8.2,3.2-12.5,2.9c-4.3-0.3-8.3-2-11.4-4.6
			c-3.1-2.6-5.3-6.1-6.5-9.6l-0.5-1.3c-0.1-0.4-0.2-0.9-0.3-1.3c-0.2-0.9-0.4-1.8-0.4-2.7C133.6,66.5,133.5,65.6,133.5,64.7z
			 M89.6,39.7c1.2-4.2,3.3-8,6.3-11.2c2.8-3,6.7-5.2,10.5-6.2c1-0.3,1.9-0.5,2.9-0.5c0.5-0.1,1-0.1,1.4-0.2c0.5,0,1,0,1.4,0
			c0.5,0,0.9,0,1.4,0c0.5,0.1,1,0.1,1.4,0.2c0.5,0.1,1,0.1,1.4,0.2c0.4,0.1,0.8,0.2,1.2,0.3c0.4,0.1,0.8,0.2,1.2,0.3
			c0.3,0.1,0.1,0,0.2,0.1c0.1,0,0.3,0.1,0.3,0.1l0.3,0.1l0.6,0.3c0.8,0.3,1.5,0.7,2.2,1.1c0.7,0.4,1.4,0.8,1.9,1.3
			c0.6,0.5,1.1,1,1.6,1.5c2,2,3.3,4.1,4.1,5.9c0.5,0.8,0.7,1.7,1,2.5c0.3,0.7,0.4,1.3,0.6,1.8c0.2,1,0.4,1.5,0.4,1.5l0,0
			c0,0,0.1,0.5,0.2,1.6c0.1,0.5,0.3,1.1,0.3,1.9c0,0.8,0.1,1.6,0.1,2.6c-0.1,1-0.2,2-0.3,3.2c-0.3,1.1-0.4,2.4-0.8,3.7
			c-0.7,2.6-2.1,5.3-4,8.1c-0.5,0.6-1,1.2-1.6,1.9c-0.6,0.7-1.3,1.2-2,1.8c-0.6,0.6-1.4,1.1-2.2,1.6c-0.4,0.3-0.8,0.5-1.2,0.8
			l-1.3,0.6c-3.4,1.7-7.4,2.7-11.6,2.4c-4.1-0.2-8.3-2.1-11.5-5c-3.2-2.9-5.5-6.8-6.7-11.1C88.3,48.5,88.4,43.9,89.6,39.7z"/>
		<path class="st0" d="M103.5,22.1c0.3-0.1,0.6-0.2,0.9-0.3c0.1,0,0.2-0.1,0.4-0.1c8.4-2.5,17.5-3.4,27-2.3
			c9.4,1.1,18.1,4.1,25.7,8.5c0,0,0.1,0,0.1,0c0.3,0.2,0.6,0.3,0.8,0.5c10.2,6,18.7,14.8,23.6,26.3c-2.2-9.8-7.6-18.9-15.5-26
			c-14.4-12.4-36-17.9-55.5-13.8c-16.1,3.8-30.6,13.8-37,28.4C81.3,32.7,91.8,25.7,103.5,22.1z"/>
		<polygon class="st3" points="139.5,150.6 133.1,150.6 126.9,158.7 126.9,161.7 133.5,170.3 140.2,170.3 131.6,159.9 		"/>
		<polygon class="st16" points="130.6,135.7 121.3,143.5 110.9,135 110.9,141.6 119.4,148.2 122.5,148.2 130.6,142 		"/>
		<path class="st1" d="M111,149.1c-0.3-0.4-0.5-0.7-0.7-0.9C110.5,148.4,110.7,148.7,111,149.1z"/>
		<path class="st1" d="M128.4,173.5c-0.8-0.6-1.5-1.2-2.2-1.7C126.9,172.3,127.6,172.9,128.4,173.5z"/>
		<path class="st1" d="M155.5,153.9c0.7,4.3,1.3,8.7,1.6,13C156.8,162.6,156.2,158.2,155.5,153.9z"/>
		<path class="st1" d="M117.5,157.4c-0.2-0.2-0.4-0.5-0.6-0.8C117.1,156.9,117.3,157.2,117.5,157.4z"/>
		<path class="st1" d="M92.7,169.4c0.3-0.5,0.6-0.9,0.9-1.4C93.3,168.5,93,169,92.7,169.4z"/>
		<path class="st1" d="M68.2,76.3c-0.1-0.6-0.3-1.2-0.4-1.8c0,0,0,0.1,0,0.1C68,75.1,68.1,75.7,68.2,76.3z"/>
		<path class="st17" d="M118.1,129.2c15.8,1.8,26.5-4.6,32.6-10.1c0,0,0,0,0,0c-0.3-0.3-0.6-0.6-0.8-0.9c0.2,0.2,0.4,0.5,0.6,0.7
			c-0.2-0.2-0.4-0.5-0.6-0.7c-18.4,8.1-42,5.5-58.1-6.4c-2.3-1.6-4.5-3.4-6.5-5.4c-0.7-0.6-1.3-1.3-2-2c0,0,0,0,0,0
			c-1.1-0.6-2.2-1.2-3.3-1.8c-0.9-0.5-1.7-1-2.6-1.5c0,0,0,0,0,0C81.6,112,97.6,126.9,118.1,129.2z"/>
		<path class="st17" d="M150.8,119.1C150.8,119.1,150.8,119.1,150.8,119.1c0,0-0.1-0.1-0.1-0.1c0,0-0.1-0.1-0.1-0.1
			c-0.2-0.2-0.4-0.5-0.6-0.7C150.2,118.5,150.5,118.8,150.8,119.1z"/>
		<path class="st0" d="M110,50.4c1.4,0.6,3-0.1,3.6-1.5c0.6-1.4-0.1-3-1.5-3.6c-1.4-0.6-3,0.1-3.6,1.5C108,48.2,108.6,49.8,110,50.4
			z"/>
		<path class="st46" d="M171.9,52.5c-0.4-0.7-0.9-1.4-1.5-2c-0.3-0.3-0.5-0.6-0.8-0.9c-0.3-0.3-0.6-0.5-0.9-0.8
			c-0.3-0.3-0.6-0.5-0.9-0.8c-0.3-0.2-0.6-0.4-0.9-0.6c-0.3-0.2-0.6-0.4-0.9-0.6c-0.4-0.2-0.7-0.4-1.1-0.6c-0.3-0.2-0.7-0.4-1-0.5
			c-0.1,0-0.2-0.1-0.2-0.1l-0.2-0.1l-0.5-0.2c-0.6-0.3-1.3-0.6-1.9-0.7c-1.3-0.4-2.5-0.6-3.7-0.8c-2.4-0.2-4.5-0.2-6.3,0.2
			c-0.9,0.1-1.6,0.4-2.3,0.6c-0.7,0.2-1.2,0.4-1.7,0.6c-0.8,0.4-1.3,0.6-1.4,0.6c-0.1,0.1-0.5,0.3-1.2,0.8c-0.4,0.3-0.9,0.6-1.4,1.1
			c-0.5,0.5-1.1,1-1.8,1.6c-0.6,0.7-1.2,1.5-2,2.3c-0.6,0.9-1.3,1.9-1.9,3c-1.2,2.2-2.2,5-2.7,8c-0.1,0.8-0.1,1.6-0.2,2.4
			c0,0.7,0.1,1.6,0.1,2.4c0,0.8,0.2,1.7,0.4,2.5c0.1,0.4,0.2,0.9,0.3,1.3l0.4,1.3c0,0,0,0,0,0.1c1.7,5.1,5.2,9.5,9.8,11.8
			c6.6,3.3,15.2,2.6,21.3-2.3c1.1-0.9,2.2-2.1,3.2-3.3c0.9-1.1,1.6-2.3,2.3-3.5c0-0.1,0.1-0.2,0.1-0.2c0,0,0,0,0,0
			c0.1-0.2,0.2-0.4,0.3-0.6c1.8-3.6,2.5-7.8,2.3-11.4C175.1,58.8,173.7,55.4,171.9,52.5z M157.6,70.5c-1.8,4.3-6.7,6.3-11,4.5
			c-4.3-1.8-6.3-6.7-4.5-11c1.8-4.3,6.7-6.3,11-4.5C157.4,61.3,159.4,66.2,157.6,70.5z"/>
		<path class="st46" d="M164.1,45.6C164.1,45.6,164.1,45.6,164.1,45.6C164.2,45.6,164.2,45.6,164.1,45.6z"/>
		<path d="M164.1,45.6C164.2,45.6,164.2,45.6,164.1,45.6C164.1,45.6,164.1,45.6,164.1,45.6z"/>
		<path class="st0" d="M149.8,60.9c-1.4-0.6-3,0.1-3.6,1.5s0.1,3,1.5,3.6c1.4,0.6,3-0.1,3.6-1.5S151.2,61.5,149.8,60.9z"/>
		<path class="st0" d="M173.3,188.1C173.3,188.1,173.3,188.1,173.3,188.1c-0.1-0.3-0.1-0.6-0.2-0.8c0,0,0,0,0,0
			c-0.1-0.3-0.2-0.5-0.3-0.8c0,0,0,0,0-0.1c-0.1-0.2-0.2-0.5-0.3-0.7c0,0,0-0.1-0.1-0.1c-0.1-0.2-0.2-0.4-0.3-0.6
			c0-0.1-0.1-0.1-0.1-0.2c-0.1-0.2-0.2-0.4-0.3-0.6c0-0.1-0.1-0.1-0.1-0.2c-0.1-0.2-0.2-0.3-0.3-0.5c-0.1-0.1-0.1-0.2-0.2-0.2
			c-0.1-0.1-0.2-0.3-0.3-0.4c-0.1-0.1-0.2-0.2-0.3-0.3c-0.1-0.1-0.2-0.2-0.3-0.3c-0.1-0.1-0.3-0.2-0.4-0.4c-0.1-0.1-0.2-0.2-0.2-0.2
			c-0.2-0.2-0.4-0.4-0.7-0.6c-3-2-7-2.8-10.9-2.5c-2.3,0.3-4.7,1-7.3,2.2c0,0,0,0,0,0c-4.2,2.5-7.6,4.5-10.7,6.4
			c-5.8,3.6-10.4,7.1-15.8,12.9c3.6-1,8.4-0.4,13.3,1.1c0.1,0,0.1,0,0.2,0.1c0.2,0.1,0.3,0.1,0.5,0.2c5.7,1.9,11.3,5.3,15,9.4
			c0.2,0.2,0.3,0.4,0.5,0.6c0.1,0.1,0.2,0.2,0.3,0.4c1.9,2.3,3.1,4.9,3.3,7.5c1.7-2.8,1.8-5.5,0.8-8c-0.6-1.6-1.7-3.1-3.1-4.5
			c-2.5-2.5-5.9-4.4-9-5.5c-0.4-0.1-0.6-0.5-0.6-0.8c0-0.1,0-0.2,0.1-0.3c0.2-0.1,0.5-0.2,0.7-0.3c0,0,0.1,0,0.1,0
			c0.2-0.1,0.5-0.1,0.8-0.1c0,0,0.1,0,0.1,0c0.3,0,0.6,0,0.9,0c0,0,0.1,0,0.1,0c0.3,0,0.6,0.1,1,0.1c0,0,0,0,0,0
			c0.2,0,0.4,0.1,0.5,0.1c0.2,0.1,0.5,0.2,0.7,0.2c5.1,0.4,17.7,0.5,23.3-7c0,0,0,0,0,0C173.7,191.5,173.7,189.7,173.3,188.1z"/>
		<path class="st17" d="M150.1,200.2C150.1,200.2,150.1,200.2,150.1,200.2c1.6,0.5,3.4,1.4,4.9,2.4c0.1,0,0.1,0.1,0.2,0.1
			c0.3,0.2,0.5,0.4,0.8,0.6c1.6,1.1,2.8,2.4,3.5,3.5c0,0,0,0,0,0c0.2-0.1,0.3-0.1,0.5-0.2c2.2-0.7,4.1-1.6,5.7-2.6
			c0.4-0.3,0.9-0.6,1.3-0.9c2.3-1.7,4-3.7,5.1-5.8c0.1-0.1,0.1-0.2,0.2-0.3c0.1-0.2,0.2-0.5,0.3-0.8c0.1-0.2,0.2-0.4,0.2-0.6
			c0.1-0.2,0.1-0.4,0.2-0.6c0.1-0.2,0.1-0.3,0.2-0.5c0.1-0.4,0.2-0.8,0.3-1.1c0-0.1,0-0.1,0-0.2
			C167.7,200.8,155.1,200.6,150.1,200.2z"/>
		<path class="st3" d="M165.7,204c-1.6,1-3.5,1.9-5.7,2.6C162,206,163.9,205.2,165.7,204z"/>
		<path class="st7" d="M70.7,71.9c2.7,16.4,12.7,31.5,27.3,39.9c5.5,3.3,11.5,5.5,17.7,6.7c1.7,0.3,3.4,0.5,5.1,0.7
			c0.1,0,0.2,0,0.3,0c0.1,0,0.2,0,0.4,0c8.1,0.7,16.4-0.4,24.1-3.1c0.4-0.1,0.8-0.3,1.2-0.4c5-1.9,9.8-4.4,14.1-7.7
			c0.1-0.1,0.1-0.1,0.2-0.1c2.4-1.9,4.7-3.9,6.8-6.2c10.2-11.1,15-23.5,15.3-35.3C153.2,123.9,85.1,93.8,70.7,71.9z"/>
		<path class="st46" d="M71.7,142c0.4-1.5,0.7-3,1.1-4.5c-0.9-0.4-1.8-0.8-2.7-1.2c-0.2,2.8-0.4,5.6-0.5,8.3s-0.2,5.6-0.2,8.3
			c0.3-1.6,0.6-3.3,0.9-4.9c0.1-0.3,0.1-0.5,0.2-0.8c0.1-0.3,0.1-0.6,0.2-1c0.2-1,0.5-2,0.7-3.1C71.5,142.8,71.6,142.4,71.7,142z"/>
		<path class="st46" d="M65.2,161.6c0-1.1-0.1-2.2-0.1-3.3c0-0.8,0-1.6,0-2.5c0-2,0-4,0-6c-2,0.4-3.6,0.9-4.2,1.3
			c0,0.1-0.1,0.3-0.1,0.4c0,0.1,0,0.1,0,0.2c0,0.1,0,0.3-0.1,0.4c0,0.1,0,0.1,0,0.2c0,0.2,0,0.3-0.1,0.5c0,0.1,0,0.1,0,0.2
			c0,0.2,0,0.5-0.1,0.8c0,0,0,0.1,0,0.1c0,0.2,0,0.5,0,0.8c0,0.1,0,0.2,0,0.3c0,0.2,0,0.5,0,0.7c0,0.1,0,0.2,0,0.3c0,0.3,0,0.7,0,1
			c0,0,0,0,0,0c0,0.4,0,0.8,0,1.2c0,0,0,0.1,0,0.1c0,0.4,0,0.7,0,1.1c0,0.1,0,0.1,0,0.2c0,0.4,0,0.7,0,1.1c0,0,0,0.1,0,0.1
			c0,1.3,0.1,2.7,0.1,4c0,0,0,0,0,0c0.1,1.4,0.1,2.7,0.2,4c0,0,0,0,0,0c0,0,0,0,0,0c0,0,0,0,0,0v0c0,0,0,0.1,0,0.1
			c0,0.4,0.1,0.8,0.1,1.2c0,0,0,0,0,0c0,0.1,0,0.3,0,0.4c0,0,0,0,0,0c0,0.3,0.1,0.6,0.1,0.9c0,0,0,0,0,0c0,0.1,0,0.3,0,0.4
			c0,0.4,0.1,0.7,0.1,1c0,0,0,0.1,0,0.1c0,0.1,0,0.1,0,0.2c0,0.3,0.1,0.6,0.1,0.8c0,0.1,0,0.2,0.1,0.4c0,0.2,0.1,0.4,0.1,0.6
			c0,0.1,0,0.2,0.1,0.3c0.1,0.3,0.1,0.5,0.2,0.7c0,0,0,0,0,0c0,0,0,0,0,0.1c0.1,0.2,0.1,0.4,0.2,0.5c0,0,0,0,0,0.1c0,0,0,0.1,0,0.1
			c0.1,0.2,0.1,0.3,0.2,0.4c0,0,0,0,0,0c0,0,0,0,0,0c0.1,0.1,0.2,0.1,0.3,0.2c0.1,0,0.1,0.1,0.2,0.1c0,0,0,0,0,0
			c0.1,0,0.2,0.1,0.3,0.1c0.1,0,0.1,0,0.2,0.1c0.3,0.1,0.5,0.1,0.8,0.2c0,0,0,0,0,0c0.3,0.1,0.6,0.1,0.9,0.1c0,0,0.1,0,0.1,0
			c0.4,0,0.9,0.1,1.3,0.1c-0.3-2.9-0.6-5.7-0.8-8.6C65.4,166.9,65.3,164.2,65.2,161.6z"/>
		<path class="st46" d="M116.7,207.2c-1.8-1.4-4-2-6.2-2.2c-4.3-0.4-9,0.7-12.9,1.4c-0.1,0-0.2,0-0.3,0c-0.1-0.1-0.2-0.2-0.2-0.3
			c0,0,0,0,0,0c1.4-0.9,3.6-1.6,6-2.1c2.3-0.4,4.7-0.7,7.1-0.6c2.2,0,4.2,0.3,5.7,0.8c0-2.4,0-6.3,0-8.6c-0.1-1.9,0-4.1,0-6.3
			c0.1-2.9,0.1-6.1,0-9.1c-0.2-3.9-0.7-7.6-2-10.8c-0.3-0.8-0.7-1.5-1.1-2.3c-0.4-0.4-0.9-0.8-1.4-1.2c-1-0.8-2.2-1.4-3.5-1.9
			c0,0,0,0,0,0c0,0,0,0,0,0c-6.3-1.8-10.6-0.2-13.6,3.4c-0.1,0.1-0.2,0.3-0.3,0.4c-0.1,0.1-0.1,0.2-0.2,0.3
			c-0.3,0.4-0.6,0.9-0.9,1.4c-0.3,0.4-0.5,0.9-0.7,1.4c0,0,0,0,0,0c-0.2,0.5-0.4,1-0.7,1.5c-0.1,0.3-0.3,0.7-0.4,1
			c-0.1,0.2-0.1,0.3-0.2,0.5c-0.6,1.8-1.1,3.8-1.5,5.8c0,0.1,0,0.1,0,0.2c-0.1,0.5-0.2,1-0.3,1.5c0,0.1,0,0.2,0,0.3
			c-0.1,0.8-0.2,1.5-0.3,2.3c0,0.3-0.1,0.6-0.1,1c0,0.3-0.1,0.6-0.1,0.9c0,0.4-0.1,0.8-0.1,1.2c0,0.2,0,0.5,0,0.7
			c0,0.5-0.1,1.1-0.1,1.6c0,0.5,0,1,0,1.5c0,0.1,0,0.3,0,0.4c-0.1,4.6,0.2,9,0.6,12.4c0,0.1,0,0.1,0,0.2c0.6,3.5,0.9,7.4,2,11
			c0.8,2.7,2.1,5.2,4.2,7.2c0,0,0,0,0,0c0.7,0.5,1.4,0.9,2.1,1.2c2.5,1.2,5.5,1.8,8.4,1.7c3.4-0.1,6.7-0.9,9.5-2.4
			c0.3-0.2,0.7-0.4,1-0.6c1.1-1,1.7-2.2,2-3.6c0-0.1,0.1-0.3,0.1-0.4c0,0,0,0,0,0c0-0.3,0.1-0.6,0.1-0.9c0.1-1.7-0.1-3.5-0.4-5.2
			C117.4,210.1,117,208.6,116.7,207.2z"/>
		<path class="st46" d="M112.8,161.3c0.5,0.6,1,1.2,1.5,1.8l0.7-1v-3l-6.6-8.5h-6.6l5.5,6.7c1.4,0.7,2.7,1.5,3.9,2.5
			C111.8,160.2,112.3,160.8,112.8,161.3z"/>
		<path class="st46" d="M131,185.9v-6.6l-8.5-6.6h-3l-0.8,0.6c0.3,1.7,0.6,3.5,0.6,5.3l1.4-1.2L131,185.9z"/>
		<path class="st46" d="M71.2,85.8c-0.5-1.2-1-2.5-1.4-3.7c0,0,0,0,0,0c-0.3-0.9-0.6-1.7-0.8-2.6c0-0.2-0.1-0.3-0.1-0.5
			c-0.2-0.8-0.4-1.6-0.6-2.4c0-0.1,0-0.1,0-0.2c0-0.1,0-0.1,0-0.2c-0.1-0.6-0.3-1.2-0.4-1.8c0,0,0,0,0-0.1c-0.2-1.1-0.4-2.3-0.6-3.4
			c-0.2-1.2-0.3-2.3-0.4-3.5c-0.1-1.7-0.2-3.4-0.2-5.1c0.1-6.3,1.1-12.5,3.1-18.4c-4.2,1.3-7.8,2.6-8.5,3.4
			c-0.1,0.1-0.2,0.3-0.3,0.5c0,0.1-0.1,0.1-0.1,0.2c-0.1,0.1-0.1,0.3-0.2,0.5c0,0.1-0.1,0.2-0.1,0.2c-0.1,0.2-0.1,0.4-0.2,0.6
			c0,0.1,0,0.1-0.1,0.2c-0.1,0.3-0.2,0.6-0.3,1c0,0.1,0,0.1,0,0.2c-0.1,0.3-0.1,0.6-0.2,0.9c0,0.1,0,0.2-0.1,0.3
			c-0.1,0.3-0.1,0.6-0.2,1c0,0.1,0,0.2,0,0.2c-0.2,0.9-0.3,1.8-0.4,2.8c0,0,0,0.1,0,0.1c-0.1,0.5-0.1,1-0.2,1.5c0,0,0,0.1,0,0.1
			c-0.4,3.8-0.6,8.1-0.4,12.1c0.3,5.1,1.2,9.8,3.1,12.2C62.4,82.8,66.3,84.3,71.2,85.8z"/>
		<path class="st46" d="M152.7,16.5c8.9,4,16.8,10,22.6,17.9c-4.8-8.2-11.7-15.1-20-20c-0.2-0.1-0.3-0.2-0.5-0.3
			c-0.1,0-0.1-0.1-0.2-0.1c-6.4-3.7-13.7-6.1-21.5-7.1c-7.7-0.9-15.3-0.2-22.4,1.9c-0.1,0-0.2,0-0.2,0.1C110.4,8.9,110.2,9,110,9
			c-9.2,2.8-17.4,7.9-24,14.8c7.3-6.1,16-10,25.2-11.9C125,9,139.9,10.7,152.7,16.5z"/>
		<path class="st46" d="M62.8,91.7c-1.4-1-2.8-2-4.2-3c-1.7-1.3-3.4-2.5-5-3.7c-1-0.7-1.9-1.5-2.9-2.2c-0.9-0.7-1.8-1.4-2.7-2.1
			c-0.9-0.7-1.8-1.4-2.7-2.1c-1.2-0.9-2.3-1.8-3.5-2.7c-0.1,0.2-0.2,0.4-0.3,0.5c0,0-0.1,0-0.1,0c0,0,0,0,0,0
			c-0.3,0-0.5-0.7-0.8-1.7c-0.7-2.2-1.5-6.1-2.6-8.9c-0.8-1.9-1.8-3.3-3-2.9c0,0-0.1,0.1-0.1,0.1c-0.7,0.5-1.2,1.1-1.4,1.9
			c-0.4,1.2-0.5,2.6-0.5,4.1c0,1.1,0,2.1-0.2,3c0,0.2-0.1,0.3-0.1,0.5h0c-0.1,0.1-0.1,0.3-0.2,0.4c-0.2,0.2-0.4,0.4-0.6,0.6
			c-1.6,0.9-3,2.1-4.2,3.5c-0.4,0.5-0.9,1-1.3,1.6c-0.1,0.2-0.3,0.4-0.4,0.6c-0.8,1.2-1.6,2.5-2.4,3.7c0,0.1-0.1,0.1-0.1,0.1
			c-0.1,0.1-0.3,0.1-0.5,0c0,0,0,0,0,0c0.3-4.1,3.3-8.8,6.4-11.8c0-0.4-0.1-0.8-0.1-1.2c-0.1-0.8-0.1-1.6-0.1-2.4
			c0-0.4,0-0.8,0.1-1.2c-3.3-2.2-5.9-3.3-7.9-3.7c-0.1,0-0.3,0-0.4-0.1c-0.1,0-0.2,0-0.2,0c-2-0.2-3.5,0.4-5,1.4
			c-0.4,0.2-0.7,0.5-1,0.8c-0.3,0.1-0.6,0.2-0.8,0.4c-0.2,0.1-0.4,0.2-0.6,0.2c-1.1,0.4-2,0.8-2.6,1.5c-0.5,0.6-0.9,1.5-1,3
			c0,0.1,0,0.2,0,0.3c-0.1,0.9-0.6,1.6-1.1,2.3c-0.4,0.5-0.7,1.1-0.9,1.8c-1.2,3.9,1.1,9,6.4,14.8c1.2,1.3,2.5,2.5,3.9,3.9
			c3.5,3.2,7.6,7,12.6,11.3c3.8,3.2,8.1,6.7,13.1,10.6C56.6,107.4,61.5,95.7,62.8,91.7z"/>
		<path class="st46" d="M120.6,198.3c0.3-0.4,0.7-0.8,1-1.1c0.1-0.1,0.2-0.2,0.3-0.3c0.4-0.4,0.8-0.9,1.2-1.3
			c0.1-0.1,0.1-0.1,0.2-0.2c0.5-0.5,1-1,1.6-1.5c0,0,0.1-0.1,0.1-0.1c0.5-0.5,1.1-0.9,1.6-1.4c0.2-0.1,0.3-0.3,0.5-0.4
			c0.4-0.3,0.8-0.6,1.1-0.9c0.3-0.2,0.5-0.4,0.8-0.6c0.6-0.4,1.1-0.9,1.7-1.3c-0.2,0-0.6-0.2-1-0.6c-0.7-0.5-1.7-1.2-2.7-2
			c-1.7-1.3-3.5-2.9-4.9-4c-0.8-0.6-1.3-1.1-1.6-1.3l-1.4,1.2c0,1.8,0,5.9,0,9.8c0,3.3,0,6.5,0,7.9c0.4-0.5,0.7-1,1.1-1.5
			C120.5,198.5,120.5,198.4,120.6,198.3z"/>
		<path class="st46" d="M73.1,89.9c-3.7-1.1-7.8-2.4-10.6-3.8c4.5,3.2,9.1,6.5,13.8,9.4C75.1,93.7,74,91.9,73.1,89.9z"/>
		<path class="st46" d="M29.9,70.7C29.9,70.7,29.9,70.6,29.9,70.7C29.9,70.6,29.9,70.6,29.9,70.7C29.9,70.6,29.9,70.6,29.9,70.7
			C29.9,70.6,29.9,70.6,29.9,70.7C29.9,70.7,29.9,70.7,29.9,70.7c-0.1,0.1-0.1,0.1-0.1,0.1C29.8,70.7,29.9,70.7,29.9,70.7
			C29.9,70.7,29.9,70.7,29.9,70.7z"/>
		<path class="st46" d="M181.9,54.7c-2.2-9.8-7.6-18.9-15.5-26c-8.6-7.8-20.2-13.3-34-15.1c-7.1-0.8-14.5-0.4-21.5,1.3
			c-16.1,3.8-30.6,13.8-37,28.4c-1.8,4.1-3,8.5-3.4,13.2c-0.7,5.2-0.5,10.4,0.3,15.5c2.7,16.4,12.7,31.5,27.3,39.9
			c5.5,3.3,11.5,5.5,17.7,6.7c1.7,0.3,3.4,0.5,5.1,0.7c0.1,0,0.2,0,0.3,0c0.1,0,0.2,0,0.4,0c8.1,0.7,16.4-0.4,24.1-3.1
			c0.4-0.1,0.8-0.3,1.2-0.4c5-1.9,9.8-4.4,14.1-7.7c0.1,0,0.1-0.1,0.2-0.1c0,0,0,0,0,0c2.4-1.9,4.7-3.9,6.8-6.2
			c10.2-11.1,15-23.5,15.3-35.3C183.2,62.5,182.8,58.5,181.9,54.7z"/>
		<path class="st46" d="M152.5,121.1c-0.4-0.5-0.8-0.9-1.2-1.4c-0.2-0.2-0.4-0.4-0.6-0.6c0,0,0,0,0,0c0,0,0,0,0,0
			c0,0-0.1-0.1-0.1-0.1c0,0-0.1-0.1-0.1-0.1c-0.2-0.2-0.4-0.5-0.6-0.7c-18.4,8.1-42,5.5-58.1-6.4c-2.3-1.6-4.5-3.4-6.5-5.4
			c-0.7-0.6-1.3-1.3-2-2c0,0,0,0,0,0c-1.1-0.6-2.2-1.2-3.3-1.8c-0.9-0.5-1.7-1-2.6-1.5c0,0,0,0,0,0c-3.7-2.2-7.4-4.5-10.9-6.9
			c-1.9,5.1-7.1,15.9-19.1,23.5c1.4,1,2.8,2,4.3,3c2.8,1.9,5.7,3.8,8.6,5.5c2.1,1.2,4.1,2.4,6.3,3.5c0.2,0.1,0.3,0.2,0.5,0.3
			c2.3,1.2,4.6,2.3,7,3.3c0-0.1,0.1-0.2,0.2-0.4c0.5-1.4,1.7-5.5,2.9-8.9c0.7-1.9,1.4-3.6,2.1-4.6c0,0,0-0.1,0.1-0.1
			c0,0,0,0,0.1-0.1c0.6-0.8,1.2-0.9,1.5,0.4c0,0,0,0,0,0c-1.2,5-2.5,9.9-3.8,14.9c5,1.9,9.9,3.2,14.6,3.7c0.1,0,0.3,0,0.4,0.1
			c0.3,0.1,0.6,0.3,0.8,0.5c0.3,0.3,0.5,0.6,0.6,0.9c0,0.1,0.1,0.2,0.1,0.4c0,0.1,0,0.3,0,0.4c-0.1,0.9-0.6,1.4-1.5,1.6
			c0,0,0,0-0.1,0c-0.1,0-0.2,0-0.3,0.1c-0.1,0-0.1,0-0.2,0c-0.1,0-0.2,0-0.3,0c-0.1,0-0.1,0-0.2,0c-0.1,0-0.2,0-0.2,0
			c-0.1,0-0.2,0-0.3,0c-0.1,0-0.1,0-0.2,0c-0.1,0-0.3,0-0.4,0c-0.1,0-0.2,0-0.2,0c-0.1,0-0.2,0-0.4,0c-0.1,0-0.2,0-0.3,0
			c-0.1,0-0.3,0-0.4,0c-0.2,0-0.3,0-0.5-0.1c-0.1,0-0.1,0-0.2,0c-0.2,0-0.4-0.1-0.6-0.1c0,0,0,0-0.1,0c-0.2,0-0.4-0.1-0.7-0.1
			c0,0,0,0,0,0c-3.4-0.8-7.3-2.2-9.5-2.9c-0.4-0.1-0.8-0.3-1.1-0.3c-1.4,6.3-3.3,14.7-4.4,23.3c-1.2,9.7-1.2,19.8,1.9,27.8
			c2.1,5.5,5.8,10,11.5,12.7c-0.2-2-0.5-4.8-0.7-7.4c-0.3-2.8-0.3-6-0.1-9.2c0.4-6.4,1.9-13.1,5.1-18.1c2.5-3.9,6.1-6.7,11.1-7.5
			c0.1,0,0.2,0,0.3,0c0.3,0,0.5-0.1,0.8-0.1c1-0.1,2-0.1,3.2,0c-3.1-1.3-6.3-1.7-9.3-1.3c0,0-0.1,0-0.1,0c-0.3,0-0.7,0.1-1,0.2
			c-2.2,0.4-4.4,1.2-6.3,2.4c0,0,0,0,0,0c-0.2,0.1-0.4,0.2-0.5,0.3c-0.2,0.1-0.3,0.2-0.5,0.3c0,0,0,0,0,0
			c-5.2,3.3-9.3,8.8-11.1,14.8c0,0.3-0.2,0.4-0.3,0.5c-0.2,0.1-0.4,0.2-0.6,0.1c-0.4,0-0.8-0.3-0.8-0.8c0,0,0,0,0,0c0,0,0,0,0,0
			c0.2-2.3,0.8-4.6,1.7-6.7c0.5-1.3,1.2-2.5,2-3.7c0.3-0.4,0.6-0.9,0.9-1.3c0.3-0.5,0.7-0.9,1.1-1.3c0.3-0.3,0.5-0.6,0.8-0.9
			c0.5-0.6,1.1-1.1,1.7-1.7c0.3-0.3,0.6-0.5,0.9-0.8c0.1-0.1,0.2-0.2,0.3-0.2c0.8-0.6,1.6-1.1,2.4-1.7c0.6-0.3,1.1-0.7,1.7-0.9
			c0.5-0.3,1.1-0.5,1.7-0.7c0.4-0.1,0.7-0.3,1.1-0.4c1.4-0.5,2.9-0.8,4.4-1c1.1-0.1,2.3-0.2,3.4-0.1c0,0,0,0,0,0
			c1.2,0.1,2.5,0.2,3.7,0.5c-0.2-0.3-0.6-0.7-0.9-1.1c-0.3-0.3-0.6-0.7-0.9-1.1c-0.6-0.7-1.2-1.5-1.9-2.3c-0.6-0.7-1.2-1.5-1.7-2.1
			c-0.4-0.5-0.8-1-1.1-1.4c3.9,0,10.5,0,14.4,0c0.1,0.1,0.2,0.3,0.4,0.6c0.2,0.3,0.4,0.6,0.7,0.9c0.4,0.5,0.9,1.2,1.4,1.8
			c0.6,0.7,1.2,1.5,1.7,2.3c0.6,0.8,1.2,1.6,1.8,2.3c0.3,0.4,0.6,0.8,0.9,1.2c0.2,0.3,0.4,0.6,0.6,0.8c0.2,0.3,0.4,0.5,0.5,0.7
			c0,1.3,0,3.8,0,5c-0.6,0.8-1.4,1.9-2,2.7c0.4,0.7,0.7,1.4,1,2.1c0.3,0.7,0.6,1.5,0.8,2.2l0.6-0.5c1.3,0,3.8,0,5,0
			c0.2,0.1,0.4,0.3,0.7,0.6c0.1,0,0.1,0.1,0.2,0.1c0.5,0.4,1.1,0.9,1.9,1.4c0.7,0.5,1.4,1.1,2.2,1.7c0.6,0.5,1.2,0.9,1.7,1.3
			c0.5,0.4,1,0.8,1.4,1.1c0.4,0.3,0.8,0.7,1.2,0.9c0.2,0.2,0.4,0.3,0.5,0.4c0.3,0.2,0.5,0.4,0.7,0.5c0,1.8,0,7.4,0,9.2
			c2.1-1.4,6.1-3.5,8.2-4.7c0.1-0.1,0.2-0.1,0.3-0.2c0.6-0.5,1.1-0.9,1.7-1.3c2.3-1.7,4.7-3.1,7.2-4c1-0.4,2.1-0.7,3.1-1
			c4.2-1,8.6-0.8,12.9,0.9c-1.1-1-2.4-2-3.7-2.8c-1.3-0.8-2.7-1.5-4-2c-0.8-0.3-1.6-0.6-2.3-0.7c-0.1,0-0.1,0-0.2-0.1
			c-0.4-0.1-0.8-0.3-1-0.5c-0.4-0.4-0.6-1-0.6-1.6c0-1,0.6-1.9,1.7-2.1c-0.3-4.4-0.9-8.7-1.6-13c-0.3-1.8-0.6-3.7-1-5.5
			c-1.2-6.1-2.5-12.2-3.7-18.3c0,0,0,0,0,0c0,0,0,0,0,0c0.5-1.5,1.1-1.1,1.9,0.3c0.1,0.1,0.1,0.2,0.2,0.3c0,0.1,0.1,0.1,0.1,0.2
			c1.5,3.3,3.3,10.1,4.3,14.6c0.5,2.1,0.8,3.7,0.9,4.1c1.2,6,2.1,12.1,2.5,18.3c1.2,0.5,2.5,1,3.7,1.7c1.1,0.6,2.1,1.2,3.2,2
			c1.4,1,2.7,2.2,4.2,3.7c1.4-6.4,0.5-14.1-1.8-22c-1.5-5-3.6-10-6-14.7c-0.5-0.9-1-1.8-1.5-2.7c-0.4-0.7-0.8-1.5-1.3-2.2
			c-0.1-0.2-0.2-0.3-0.3-0.5c-0.5-0.8-1-1.6-1.5-2.4c0-0.1-0.1-0.1-0.1-0.2c-0.5-0.8-1-1.6-1.6-2.4c0,0,0-0.1-0.1-0.1
			c-0.5-0.8-1-1.5-1.6-2.2c0-0.1-0.1-0.1-0.1-0.2c-0.5-0.7-1-1.3-1.5-2c-0.1-0.1-0.1-0.2-0.2-0.3c-0.5-0.6-0.9-1.1-1.4-1.7
			C152.8,121.4,152.6,121.3,152.5,121.1z"/>
		<path class="st46" d="M194.1,65c0-0.2,0-0.5-0.1-0.7c0-0.1,0-0.2,0-0.2c0-0.2-0.1-0.3-0.1-0.5c0-0.1,0-0.1,0-0.2
			c0-0.2-0.1-0.4-0.2-0.5c-0.5-0.9-3.7-3-7.5-5.2c0.2,1.7,0.2,3.4,0.2,5.1c0,1.7-0.1,3.4-0.2,5.2c0,0.3-0.1,0.6-0.1,0.9
			c-0.1,1.5-0.3,2.9-0.6,4.3c-0.2,1-0.4,2-0.6,3c-0.3,1.2-0.6,2.5-1,3.7c-0.4,1.3-0.8,2.5-1.2,3.7c-0.2,0.6-0.4,1.2-0.7,1.7
			c-0.3,0.6-0.5,1.3-0.8,1.9c-0.1,0.2-0.2,0.3-0.2,0.5c-0.2,0.4-0.4,0.8-0.6,1.2c-0.2,0.5-0.5,1-0.8,1.5c0,0.1-0.1,0.1-0.1,0.2
			c-1.3,2.5-2.8,4.9-4.5,7.2c5.1-0.4,9.3-0.9,10.1-1.6c2.4-1.9,4.4-6.2,5.8-11.1c1.1-3.9,2-8.1,2.5-11.9c0,0,0-0.1,0-0.1
			c0.1-0.5,0.1-1,0.2-1.5c0,0,0-0.1,0-0.1c0.1-1,0.2-1.9,0.2-2.8c0-0.1,0-0.2,0-0.2c0-0.3,0-0.7,0-1c0-0.1,0-0.2,0-0.3
			c0-0.3,0-0.6,0-0.9c0-0.1,0-0.1,0-0.2c0-0.3,0-0.7,0-1C194.1,65.2,194.1,65.1,194.1,65z"/>
		<path class="st46" d="M172.1,184.9c0-0.1-0.1-0.1-0.1-0.2c-0.1-0.2-0.2-0.4-0.3-0.6c0-0.1-0.1-0.1-0.1-0.2
			c-0.1-0.2-0.2-0.3-0.3-0.5c-0.1-0.1-0.1-0.2-0.2-0.2c-0.1-0.1-0.2-0.3-0.3-0.4c-0.1-0.1-0.2-0.2-0.3-0.3c-0.1-0.1-0.2-0.2-0.3-0.3
			c-0.1-0.1-0.3-0.2-0.4-0.4c-0.1-0.1-0.2-0.2-0.2-0.2c-0.2-0.2-0.4-0.4-0.7-0.6c-2.7-2-6.4-3.1-10.9-2.5c-2.3,0.3-4.7,1-7.3,2.2
			c0,0,0,0,0,0c-4.2,2.5-7.6,4.5-10.7,6.4c-5.8,3.6-10.4,7.1-15.8,12.9c3.6-1,8.4-0.4,13.3,1.1c0.1,0,0.1,0,0.2,0.1
			c0.2,0.1,0.3,0.1,0.5,0.2c5.7,2,11.3,5.3,15,9.4c0.2,0.2,0.3,0.4,0.5,0.6c0.1,0.1,0.2,0.2,0.3,0.4c1.9,2.3,3.1,4.9,3.3,7.5
			c1.7-2.8,1.8-5.5,0.8-8c-0.6-1.6-1.7-3.1-3.1-4.5c-2.5-2.5-5.9-4.4-9-5.5c-0.4-0.1-0.6-0.5-0.6-0.8c0-0.1,0-0.2,0.1-0.3
			c0.2-0.1,0.5-0.2,0.7-0.3c0,0,0.1,0,0.1,0c0.2-0.1,0.5-0.1,0.8-0.1c0,0,0.1,0,0.1,0c0.3,0,0.6,0,0.9,0c0,0,0.1,0,0.1,0
			c0.3,0,0.6,0.1,1,0.1c0,0,0,0,0,0c0.2,0,0.4,0.1,0.5,0.1c0.2,0.1,0.5,0.2,0.7,0.2c1.6,0.5,3.4,1.4,4.9,2.4c0.1,0,0.1,0.1,0.2,0.1
			c0.3,0.2,0.5,0.4,0.8,0.6c1.6,1.1,2.8,2.4,3.5,3.5c0,0,0,0,0,0c0.2-0.1,0.3-0.1,0.5-0.2c2-0.6,4-1.5,5.7-2.6
			c0.4-0.3,0.9-0.6,1.3-0.9c2.3-1.7,4-3.7,5.1-5.8c0.1-0.1,0.1-0.2,0.2-0.3c0.1-0.2,0.2-0.5,0.3-0.8c0.1-0.2,0.2-0.4,0.2-0.6
			c0.1-0.2,0.1-0.4,0.2-0.6c0.1-0.2,0.1-0.3,0.2-0.5c0.1-0.4,0.2-0.8,0.3-1.1c0-0.1,0-0.1,0-0.2c0,0,0,0,0,0
			c0.3-1.8,0.2-3.5-0.2-5.2c0,0,0,0,0,0c-0.1-0.3-0.1-0.5-0.2-0.8c0,0,0,0,0,0c-0.1-0.3-0.2-0.5-0.3-0.8c0,0,0,0,0-0.1
			c-0.1-0.2-0.2-0.5-0.3-0.7c0,0,0-0.1-0.1-0.1C172.3,185.3,172.2,185.1,172.1,184.9z"/>
		<g>
			<path class="st1" d="M142.5,168.4l-7-8.5l6.3-7.4l4.1-4.9h-6.4h-6.4h-1.5l-0.9,1.2l-6.2,8.1l-0.6,0.8v1v3v1l0.6,0.8l6.6,8.5
				l0.9,1.2h1.5h6.6h6.3L142.5,168.4z M133.5,170.3l-6.6-8.5v-3l6.2-8.1h6.4l-7.8,9.3l8.5,10.4H133.5z"/>
			<path class="st1" d="M128.7,133.4l-7.4,6.3l-8.5-7l-4.9-4v6.3v6.6v1.5l1.2,0.9l8.5,6.6l0.8,0.6h1h3h1l0.8-0.6l8.1-6.2l1.2-0.9
				V142v-6.3v-6.4L128.7,133.4z M130.6,142l-8.1,6.2h-3l-8.5-6.6V135l10.4,8.5l9.3-7.8V142z"/>
			<path class="st1" d="M196.8,61.6c-0.9-2.2-6.8-5.8-11.1-8.1C177.1-5.2,93.3-15,71.3,40.1c-4.6,1.3-11.2,3.4-12.6,5.3
				c-3.1,4.4-5.8,29.3,0,38c-5.9-4.5-11.1-8.5-16.5-12.8c-0.2-4.3-1-10.8-6.3-11.7c-2.3-0.3-4.6,1.1-5.6,3.1c-6.5-4-12.2-5.5-18-0.8
				c-4.1,1-6.6,3.8-6.9,8.3C-1.7,79,8.6,90.7,16.6,97.6c8.1,7.4,28,25.8,49.3,36.6c-0.3,3.7-0.6,7.4-0.7,11.2
				c-3.5,0.6-6.9,1.6-8,3.3c-1.4,2.3-1.2,11.7-1.1,15.7c1.1,17.7,1.7,17.1,10.7,18c2.8,9.9,7.7,21.5,18.7,24.3
				c0.9,8.2,3.4,18.7,12.8,20.7c8.1,2,22.1,0.9,23.1-9.5c5.4,6.2,13.2,10.4,21.4,11.2c10,1.2,22.3-7.3,18.6-18.3
				c13.7-3.7,21-19,13.5-31.1c6.8-17.9-7-48.3-20.9-63.3c7-3.6,13.3-8.6,18.4-14.7c6-0.3,13-1,15-2.6
				C195.5,92.7,198.9,66.7,196.8,61.6z M110,9c0.2-0.1,0.4-0.1,0.6-0.2c0.1,0,0.2,0,0.2-0.1c7.1-2.1,14.6-2.8,22.4-1.9
				c7.8,0.9,15,3.4,21.5,7.1c0.1,0,0.1,0.1,0.2,0.1c0.2,0.1,0.3,0.2,0.5,0.3c8.3,4.9,15.2,11.8,20,20c-5.8-7.9-13.7-13.9-22.6-17.9
				c-12.8-5.8-27.8-7.5-41.6-4.6c-9.2,1.9-18,5.8-25.2,11.9C92.5,16.9,100.8,11.8,110,9z M58.7,69.7c-0.2-4,0-8.3,0.4-12.1
				c0,0,0-0.1,0-0.1c0.1-0.5,0.1-1,0.2-1.5c0,0,0-0.1,0-0.1c0.1-1,0.3-1.9,0.4-2.8c0-0.1,0-0.2,0-0.2c0.1-0.3,0.1-0.7,0.2-1
				c0-0.1,0-0.2,0.1-0.3c0.1-0.3,0.1-0.6,0.2-0.9c0-0.1,0-0.1,0-0.2c0.1-0.3,0.2-0.7,0.3-1c0-0.1,0-0.1,0.1-0.2
				c0.1-0.2,0.1-0.4,0.2-0.6c0-0.1,0.1-0.2,0.1-0.2c0.1-0.2,0.1-0.3,0.2-0.5c0-0.1,0.1-0.1,0.1-0.2c0.1-0.2,0.2-0.3,0.3-0.5
				c0.7-0.7,4.3-2.1,8.5-3.4c-2,5.9-3,12.1-3.1,18.4c0,1.7,0,3.4,0.2,5.1c0.1,1.2,0.2,2.3,0.4,3.5c0.2,1.1,0.3,2.3,0.6,3.4
				c0,0,0,0,0,0.1c0.1,0.6,0.2,1.2,0.4,1.8c0,0.1,0,0.1,0,0.2c0,0.1,0,0.1,0,0.2c0.2,0.8,0.4,1.6,0.6,2.4c0,0.2,0.1,0.3,0.1,0.5
				c0.3,0.9,0.5,1.8,0.8,2.6c0,0,0,0,0,0c0.4,1.3,0.9,2.5,1.4,3.7c-4.9-1.5-8.8-3.1-9.5-3.9C59.8,79.5,58.9,74.8,58.7,69.7z
				 M73.1,89.9c1,1.9,2,3.8,3.2,5.6c-4.7-2.9-9.4-6.1-13.8-9.4C65.3,87.5,69.4,88.8,73.1,89.9z M29.8,70.7
				C29.9,70.7,29.9,70.7,29.8,70.7C29.9,70.6,29.9,70.6,29.8,70.7c0.1-0.1,0.1-0.1,0.1-0.1C29.9,70.6,29.9,70.6,29.8,70.7
				C29.9,70.6,29.9,70.7,29.8,70.7C29.9,70.7,29.9,70.7,29.8,70.7C29.9,70.7,29.8,70.7,29.8,70.7C29.8,70.8,29.8,70.7,29.8,70.7z
				 M30.6,104.4c-5-4.3-9.1-8.1-12.6-11.3c-1.4-1.3-2.7-2.6-3.9-3.9c-5.3-5.8-7.6-11-6.4-14.8c0.2-0.7,0.6-1.3,0.9-1.8
				c0.5-0.7,1-1.3,1.1-2.3c0-0.1,0-0.2,0-0.3c0.1-1.5,0.4-2.4,1-3c0.6-0.7,1.5-1.1,2.6-1.5c0.2-0.1,0.4-0.2,0.6-0.2
				c0.3-0.1,0.5-0.2,0.8-0.4c0.3-0.3,0.7-0.6,1-0.8c1.5-1,3-1.6,5-1.4c0.1,0,0.2,0,0.2,0c0.1,0,0.3,0,0.4,0.1
				c2.1,0.4,4.6,1.5,7.9,3.7c0,0.4-0.1,0.8-0.1,1.2c0,0.8,0,1.6,0.1,2.4c0,0.4,0.1,0.8,0.1,1.2c-3.1,3-6,7.7-6.4,11.8c0,0,0,0,0,0
				c0.2,0.1,0.3,0.1,0.5,0c0,0,0.1-0.1,0.1-0.1c0.7-1.3,1.5-2.5,2.4-3.7c0.1-0.2,0.3-0.4,0.4-0.6c0.4-0.5,0.8-1.1,1.3-1.6
				c1.2-1.4,2.6-2.6,4.2-3.5c0.2-0.1,0.4-0.3,0.6-0.6c0.1-0.1,0.2-0.2,0.2-0.4h0c0-0.1,0.1-0.3,0.1-0.5c0.2-0.9,0.2-2,0.2-3
				c0-1.4,0.1-2.9,0.5-4.1c0.3-0.8,0.7-1.5,1.4-1.9c0,0,0.1-0.1,0.1-0.1c1.2-0.4,2.2,1,3,2.9c1.1,2.7,2,6.7,2.6,8.9
				c0.3,1,0.6,1.7,0.8,1.7c0,0,0,0,0,0c0,0,0.1,0,0.1,0c0.1-0.1,0.2-0.2,0.3-0.5c1.1,0.9,2.3,1.8,3.5,2.7c0.9,0.7,1.8,1.4,2.7,2.1
				c0.9,0.7,1.8,1.4,2.7,2.1c1,0.7,1.9,1.5,2.9,2.2c1.6,1.2,3.3,2.5,5,3.7c1.4,1,2.8,2,4.2,3c-1.3,4-6.3,15.7-19.1,23.3
				C38.6,111.1,34.3,107.6,30.6,104.4z M65.1,178c0,0-0.1,0-0.1,0c-0.3,0-0.6-0.1-0.9-0.1c0,0,0,0,0,0c-0.3-0.1-0.6-0.1-0.8-0.2
				c-0.1,0-0.1,0-0.2-0.1c-0.1,0-0.2-0.1-0.3-0.1c0,0,0,0,0,0c-0.1,0-0.1-0.1-0.2-0.1c-0.1-0.1-0.2-0.1-0.3-0.2c0,0,0,0,0,0
				c0,0,0,0,0,0c-0.1-0.1-0.1-0.2-0.2-0.4c0,0,0-0.1,0-0.1c0,0,0,0,0-0.1c-0.1-0.2-0.1-0.3-0.2-0.5c0,0,0,0,0-0.1c0,0,0,0,0,0
				c-0.1-0.2-0.1-0.5-0.2-0.7c0-0.1,0-0.2-0.1-0.3c0-0.2-0.1-0.4-0.1-0.6c0-0.1,0-0.2-0.1-0.4c0-0.3-0.1-0.5-0.1-0.8
				c0-0.1,0-0.1,0-0.2c0,0,0-0.1,0-0.1c0-0.3-0.1-0.7-0.1-1c0-0.1,0-0.3,0-0.4c0,0,0,0,0,0c0-0.3-0.1-0.6-0.1-0.9c0,0,0,0,0,0
				c0-0.1,0-0.3,0-0.4c0,0,0,0,0,0c0-0.4-0.1-0.8-0.1-1.2c0,0,0-0.1,0-0.1v0c0,0,0,0,0,0c0,0,0,0,0,0c0,0,0,0,0,0
				c-0.1-1.3-0.2-2.6-0.2-4c0,0,0,0,0,0c-0.1-1.3-0.1-2.7-0.1-4c0,0,0-0.1,0-0.1c0-0.4,0-0.8,0-1.1c0-0.1,0-0.1,0-0.2
				c0-0.4,0-0.7,0-1.1c0,0,0-0.1,0-0.1c0-0.4,0-0.8,0-1.2c0,0,0,0,0,0c0-0.3,0-0.7,0-1c0-0.1,0-0.2,0-0.3c0-0.3,0-0.5,0-0.7
				c0-0.1,0-0.2,0-0.3c0-0.3,0-0.5,0-0.8c0,0,0-0.1,0-0.1c0-0.3,0-0.5,0.1-0.8c0-0.1,0-0.1,0-0.2c0-0.2,0-0.4,0.1-0.5
				c0-0.1,0-0.1,0-0.2c0-0.1,0-0.3,0.1-0.4c0-0.1,0-0.1,0-0.2c0-0.2,0.1-0.3,0.1-0.4c0.6-0.4,2.2-0.9,4.2-1.3c0,2,0,4,0,6
				c0,0.8,0,1.6,0,2.5c0,1.1,0.1,2.2,0.1,3.3c0.1,2.6,0.2,5.3,0.4,7.9c0.2,2.9,0.4,5.7,0.8,8.6C65.9,178.1,65.5,178.1,65.1,178z
				 M70.5,147.3c-0.1,0.3-0.1,0.5-0.2,0.8c-0.3,1.6-0.7,3.3-0.9,4.9c0-2.8,0.1-5.6,0.2-8.3l0.5-8.3c0.9,0.4,1.8,0.8,2.7,1.2
				l-1.4,5.7c-0.2,1-0.5,2-0.7,3.1C70.6,146.6,70.6,147,70.5,147.3z M118.2,216.9c0,0.3-0.1,0.6-0.1,0.9c0,0,0,0,0,0
				c0,0.1-0.1,0.3-0.1,0.4c-0.3,1.4-0.9,2.6-2,3.6c-0.3,0.2-0.6,0.4-1,0.6c-2.8,1.5-6.1,2.4-9.5,2.4c-2.9,0.1-5.9-0.5-8.4-1.7
				c-0.8-0.4-1.5-0.8-2.1-1.2c0,0,0,0,0,0c-2.1-2-3.3-4.5-4.2-7.2c-1.1-3.5-1.4-7.4-2-11c0-0.1,0-0.1,0-0.2
				c-0.4-3.4-0.7-7.8-0.6-12.4c0-0.1,0-0.3,0-0.4c0-0.5,0-1,0-1.5c0-0.5,0-1.1,0.1-1.6c0-0.2,0-0.5,0-0.7c0-0.4,0.1-0.8,0.1-1.2
				c0-0.3,0-0.6,0.1-0.9c0-0.3,0.1-0.6,0.1-1c0.1-0.8,0.2-1.5,0.3-2.3c0-0.1,0-0.2,0-0.3c0.1-0.5,0.2-1,0.3-1.5c0-0.1,0-0.1,0-0.2
				c0.4-2.1,0.9-4,1.5-5.8c0.1-0.2,0.1-0.3,0.2-0.5c0.1-0.3,0.3-0.7,0.4-1c0.2-0.5,0.4-1,0.7-1.5c0,0,0,0,0,0
				c0.2-0.5,0.5-0.9,0.7-1.4c0.3-0.5,0.6-0.9,0.9-1.4c0.1-0.1,0.1-0.2,0.2-0.3c0.1-0.1,0.2-0.3,0.3-0.4c3-3.6,7.3-5.2,13.6-3.4
				c0,0,0,0,0,0c0,0,0,0,0,0c1.3,0.5,2.4,1.1,3.5,1.9c0.5,0.4,1,0.7,1.4,1.2c0.4,0.7,0.8,1.5,1.1,2.3c1.3,3.2,1.8,6.9,2,10.8
				c0.1,3.1,0.1,6.2,0,9.1c0,2.3-0.1,4.4,0,6.3c0,2.4,0,6.3,0,8.6c-1.5-0.5-3.5-0.8-5.7-0.8c-2.3,0-4.8,0.2-7.1,0.6
				c-2.4,0.5-4.6,1.2-6,2.1c0,0,0,0,0,0c0,0.1,0.1,0.2,0.2,0.3c0.1,0,0.2,0.1,0.3,0c4-0.7,8.7-1.8,12.9-1.4c2.3,0.2,4.4,0.9,6.2,2.2
				c0.3,1.3,0.7,2.9,1,4.4C118.1,213.4,118.3,215.2,118.2,216.9z M107.3,157.3l-5.5-6.7h6.6l6.6,8.5v3l-0.7,1
				c-0.4-0.6-0.9-1.2-1.5-1.8c-0.5-0.6-1.1-1.1-1.7-1.6C110,158.8,108.7,157.9,107.3,157.3z M118.6,173.3l0.8-0.6h3l8.5,6.6v6.6
				l-10.4-8.5l-1.4,1.2C119.1,176.8,118.9,175,118.6,173.3z M120.4,198.6c-0.4,0.5-0.8,1-1.1,1.5c0-1.4,0-4.6,0-7.9c0-3.9,0-8,0-9.8
				l1.4-1.2c0.3,0.2,0.8,0.7,1.6,1.3c1.3,1.1,3.2,2.7,4.9,4c1,0.8,2,1.6,2.7,2c0.5,0.3,0.8,0.5,1,0.6c-0.6,0.4-1.2,0.8-1.7,1.3
				c-0.3,0.2-0.5,0.4-0.8,0.6c-0.4,0.3-0.8,0.6-1.1,0.9c-0.2,0.1-0.3,0.3-0.5,0.4c-0.5,0.5-1.1,0.9-1.6,1.4c0,0-0.1,0.1-0.1,0.1
				c-0.5,0.5-1.1,1-1.6,1.5c-0.1,0.1-0.1,0.1-0.2,0.2c-0.4,0.4-0.8,0.9-1.2,1.3c-0.1,0.1-0.2,0.2-0.3,0.3c-0.3,0.4-0.7,0.8-1,1.1
				C120.5,198.4,120.5,198.5,120.4,198.6z M122,211.9c-0.2-0.4-0.3-0.8-0.4-1.2c-0.2-0.5-0.3-0.9-0.4-1.4c-0.1-0.5-0.2-1-0.2-1.5
				c0,0,0-0.1,0-0.1c0-1,0.2-1.9,0.7-2.6c0,0,0,0,0,0c0.1-0.1,0.2-0.2,0.3-0.3c0,0,0,0,0,0c0.7-0.8,1.6-1.4,3-1.7
				c0.6-0.2,1.3-0.3,2-0.4c0.1,0,0.1,0,0.2,0c0.3,0,0.6,0,0.9,0c-0.3,0.7-0.7,1.4-1.1,2.1C125.4,207.5,123.4,210.2,122,211.9z
				 M126.3,217.5c-0.9-0.9-1.8-1.7-2.5-2.8c1.6-1.9,4.7-5.8,6.9-10.1c0.3-0.6,0.6-1.1,0.8-1.7c1.2,0.2,2.5,0.6,3.8,1
				c-0.2,0.6-0.4,1.1-0.7,1.7C132.5,210.6,128.7,215.6,126.3,217.5z M132.3,221.7c-0.5-0.3-1-0.6-1.5-0.9c-0.1-0.1-0.2-0.2-0.4-0.2
				c-0.5-0.3-1-0.7-1.5-1c3-2.7,6.7-7.8,8.8-12.7c0.3-0.6,0.5-1.2,0.7-1.8c1.3,0.5,2.6,1.1,3.8,1.7c-0.2,0.6-0.4,1.2-0.7,1.9
				C139.7,213.1,135.5,219.1,132.3,221.7z M140.6,224.9c-1.8-0.3-3.5-0.9-5.2-1.6c3.3-3.2,7-8.5,8.9-12.9c0.3-0.7,0.6-1.3,0.8-2
				c1.3,0.8,2.5,1.6,3.5,2.4c-0.1,0.5-0.2,1.3-0.4,2.3C147.4,216.2,145.5,220.9,140.6,224.9z M153.9,220.3c-0.1,2.2-1.7,3.4-3.6,4.1
				c-1.7,0.6-3.7,0.8-5.3,0.9c3.3-3.3,5-6.8,5.8-9.7c0.2-0.6,0.4-1.3,0.5-1.8c1.5,2,2.4,3.9,2.5,5.6c0,0.2,0,0.4,0,0.6
				C153.9,220,153.9,220.2,153.9,220.3z M172.7,186.4C172.7,186.4,172.8,186.4,172.7,186.4c0.1,0.3,0.2,0.6,0.3,0.8c0,0,0,0,0,0
				c0.1,0.3,0.2,0.5,0.2,0.8c0,0,0,0,0,0c0.4,1.7,0.5,3.4,0.2,5.2c0,0,0,0,0,0c0,0.1,0,0.1,0,0.2c-0.1,0.4-0.2,0.8-0.3,1.1
				c0,0.2-0.1,0.3-0.2,0.5c-0.1,0.2-0.1,0.4-0.2,0.6c-0.1,0.2-0.2,0.4-0.2,0.6c-0.1,0.3-0.2,0.5-0.3,0.8c-0.1,0.1-0.1,0.2-0.2,0.3
				c-1.1,2.1-2.8,4.1-5.1,5.8c-0.4,0.3-0.8,0.6-1.3,0.9c-1.7,1.1-3.6,2-5.7,2.6c-0.2,0.1-0.3,0.1-0.5,0.2c0,0,0,0,0,0
				c-0.7-1.1-1.9-2.3-3.5-3.5c-0.3-0.2-0.5-0.4-0.8-0.6c-0.1,0-0.1-0.1-0.2-0.1c-1.6-1-3.3-1.9-4.9-2.4c-0.2-0.1-0.5-0.2-0.7-0.2
				c-0.2,0-0.4-0.1-0.5-0.1c0,0,0,0,0,0c-0.3-0.1-0.6-0.1-1-0.1c0,0-0.1,0-0.1,0c-0.3,0-0.6,0-0.9,0c0,0-0.1,0-0.1,0
				c-0.3,0-0.5,0.1-0.8,0.1c0,0-0.1,0-0.1,0c-0.3,0.1-0.5,0.2-0.7,0.3c0,0.1-0.1,0.2-0.1,0.3c0,0.4,0.2,0.7,0.6,0.8
				c3.1,1,6.5,3,9,5.5c1.3,1.3,2.4,2.8,3.1,4.5c1,2.4,0.9,5.2-0.8,8c-0.2-2.6-1.5-5.2-3.3-7.5c-0.1-0.1-0.2-0.2-0.3-0.4
				c-0.2-0.2-0.3-0.4-0.5-0.6c-3.7-4.1-9.3-7.4-15-9.4c-0.2-0.1-0.3-0.1-0.5-0.2c-0.1,0-0.1,0-0.2-0.1c-4.9-1.6-9.7-2.1-13.3-1.1
				c5.5-5.8,10-9.3,15.8-12.9c3.1-1.9,6.5-3.9,10.7-6.4c0,0,0,0,0,0c2.6-1.2,5.1-1.9,7.3-2.2c4.5-0.6,8.2,0.5,10.9,2.5
				c0.2,0.2,0.5,0.4,0.7,0.6c0.1,0.1,0.2,0.2,0.2,0.2c0.1,0.1,0.3,0.2,0.4,0.4c0.1,0.1,0.2,0.2,0.3,0.3c0.1,0.1,0.2,0.2,0.3,0.3
				c0.1,0.1,0.2,0.3,0.3,0.4c0.1,0.1,0.1,0.2,0.2,0.2c0.1,0.2,0.2,0.3,0.3,0.5c0,0.1,0.1,0.1,0.1,0.2c0.1,0.2,0.2,0.4,0.3,0.6
				c0,0.1,0.1,0.1,0.1,0.2c0.1,0.2,0.2,0.4,0.3,0.6c0,0,0,0.1,0.1,0.1C172.5,185.9,172.6,186.1,172.7,186.4z M154.3,123.3
				c0.1,0.1,0.1,0.2,0.2,0.3c0.5,0.7,1,1.3,1.5,2c0,0.1,0.1,0.1,0.1,0.2c0.5,0.7,1.1,1.5,1.6,2.2c0,0,0,0.1,0.1,0.1
				c0.5,0.8,1.1,1.6,1.6,2.4c0,0.1,0.1,0.1,0.1,0.2c0.5,0.8,1,1.6,1.5,2.4c0.1,0.2,0.2,0.3,0.3,0.5c0.4,0.7,0.9,1.5,1.3,2.2
				c0.5,0.9,1,1.8,1.5,2.7c2.4,4.8,4.5,9.8,6,14.7c2.4,7.8,3.3,15.6,1.8,22c-1.4-1.5-2.8-2.7-4.2-3.7c-1.1-0.8-2.1-1.4-3.2-2
				c-1.2-0.6-2.4-1.2-3.7-1.7c-0.4-6.2-1.3-12.2-2.5-18.3c-0.1-0.4-0.4-1.9-0.9-4.1c-1-4.4-2.8-11.3-4.3-14.6c0-0.1-0.1-0.2-0.1-0.2
				c-0.1-0.1-0.1-0.2-0.2-0.3c-0.8-1.4-1.4-1.8-1.9-0.3c0,0,0,0,0,0c0,0,0,0,0,0c1.2,6.1,2.6,12.2,3.7,18.3c0.3,1.8,0.7,3.6,1,5.5
				c0.7,4.3,1.3,8.7,1.6,13c-1.1,0.2-1.7,1.1-1.7,2.1c0,0.6,0.2,1.2,0.6,1.6c0.3,0.3,0.6,0.4,1,0.5c0.1,0,0.1,0,0.2,0.1
				c0.7,0.2,1.5,0.4,2.3,0.7c1.3,0.5,2.7,1.2,4,2c1.3,0.8,2.6,1.7,3.7,2.8c-4.4-1.7-8.7-1.9-12.9-0.9c-1.1,0.3-2.1,0.6-3.1,1
				c-2.5,1-4.9,2.3-7.2,4c-0.6,0.4-1.1,0.9-1.7,1.3c-0.1,0-0.2,0.1-0.3,0.2c-2,1.2-6,3.3-8.2,4.7c0-1.8,0-7.4,0-9.2
				c-0.1-0.1-0.4-0.3-0.7-0.5c-0.2-0.1-0.3-0.3-0.5-0.4c-0.4-0.3-0.8-0.6-1.2-0.9c-0.4-0.3-0.9-0.7-1.4-1.1
				c-0.6-0.4-1.1-0.9-1.7-1.3c-0.8-0.6-1.5-1.2-2.2-1.7c-0.7-0.6-1.4-1.1-1.9-1.4c-0.1,0-0.1-0.1-0.2-0.1c-0.3-0.2-0.6-0.4-0.7-0.6
				c-1.3,0-3.8,0-5,0l-0.6,0.5c-0.2-0.8-0.5-1.5-0.8-2.2c-0.3-0.7-0.6-1.4-1-2.1c0.6-0.8,1.4-1.9,2-2.7c0-1.3,0-3.8,0-5
				c-0.1-0.2-0.3-0.4-0.5-0.7c-0.2-0.2-0.4-0.5-0.6-0.8c-0.3-0.4-0.6-0.7-0.9-1.2c-0.5-0.7-1.2-1.5-1.8-2.3
				c-0.6-0.8-1.2-1.5-1.7-2.3c-0.5-0.7-1-1.3-1.4-1.8c-0.3-0.4-0.5-0.7-0.7-0.9c-0.2-0.2-0.3-0.4-0.4-0.6c-3.9,0-10.5,0-14.4,0
				c0.3,0.4,0.7,0.9,1.1,1.4c0.5,0.6,1.1,1.4,1.7,2.1c0.6,0.8,1.3,1.5,1.9,2.3c0.3,0.4,0.6,0.8,0.9,1.1c0.3,0.4,0.6,0.8,0.9,1.1
				c-1.2-0.3-2.5-0.5-3.7-0.5c0,0,0,0,0,0c-1.2-0.1-2.3,0-3.4,0.1c-1.5,0.2-3,0.5-4.4,1c-0.4,0.1-0.7,0.3-1.1,0.4
				c-0.6,0.2-1.1,0.5-1.7,0.7c-0.6,0.3-1.1,0.6-1.7,0.9c-0.8,0.5-1.7,1.1-2.4,1.7c-0.1,0.1-0.2,0.2-0.3,0.2
				c-0.3,0.2-0.6,0.5-0.9,0.8c-0.6,0.5-1.2,1.1-1.7,1.7c-0.3,0.3-0.5,0.6-0.8,0.9c-0.4,0.4-0.7,0.9-1.1,1.3
				c-0.3,0.4-0.6,0.9-0.9,1.3c-0.8,1.2-1.4,2.4-2,3.7c-0.9,2.1-1.5,4.4-1.7,6.7c0,0,0,0,0,0c0,0,0,0,0,0c0,0.5,0.4,0.8,0.8,0.8
				c0.2,0,0.4,0,0.6-0.1c0.2-0.1,0.3-0.3,0.3-0.5c1.8-6,5.9-11.4,11.1-14.8c0,0,0,0,0,0c0.2-0.1,0.3-0.2,0.5-0.3
				c0.2-0.1,0.3-0.2,0.5-0.3c0,0,0,0,0,0c2-1.1,4.1-1.9,6.3-2.4c0.3-0.1,0.7-0.1,1-0.2c0,0,0.1,0,0.1,0c3-0.4,6.2,0,9.3,1.3
				c-1.1-0.1-2.2-0.1-3.2,0c-0.3,0-0.5,0.1-0.8,0.1c-0.1,0-0.2,0-0.3,0c-5,0.8-8.6,3.6-11.1,7.5c-3.3,5-4.7,11.7-5.1,18.1
				c-0.2,3.3-0.1,6.5,0.1,9.2c0.1,2.6,0.4,5.4,0.7,7.4c-5.8-2.7-9.4-7.2-11.5-12.7c-3.1-8-3.1-18.1-1.9-27.8c1-8.6,3-16.9,4.4-23.3
				c0.3,0.1,0.6,0.2,1.1,0.3c2.2,0.7,6.1,2.1,9.5,2.9c0,0,0,0,0,0c0.2,0,0.4,0.1,0.7,0.1c0,0,0,0,0.1,0c0.2,0,0.4,0.1,0.6,0.1
				c0.1,0,0.1,0,0.2,0c0.2,0,0.3,0,0.5,0.1c0.1,0,0.3,0,0.4,0c0.1,0,0.2,0,0.3,0c0.1,0,0.2,0,0.4,0c0.1,0,0.2,0,0.2,0
				c0.1,0,0.3,0,0.4,0c0.1,0,0.1,0,0.2,0c0.1,0,0.2,0,0.3,0c0.1,0,0.2,0,0.2,0c0.1,0,0.2,0,0.2,0c0.1,0,0.2,0,0.3,0
				c0.1,0,0.1,0,0.2,0c0.1,0,0.2,0,0.3-0.1c0,0,0,0,0.1,0c0.8-0.3,1.4-0.8,1.5-1.6c0-0.1,0-0.3,0-0.4c0-0.1,0-0.3-0.1-0.4
				c-0.1-0.4-0.3-0.7-0.6-0.9c-0.2-0.2-0.5-0.4-0.8-0.5c-0.1,0-0.3-0.1-0.4-0.1c-4.7-0.5-9.7-1.8-14.6-3.7c1.2-4.9,2.6-9.9,3.8-14.9
				c0,0,0,0,0,0c-0.3-1.3-0.9-1.3-1.5-0.4c0,0,0,0-0.1,0.1c0,0,0,0.1-0.1,0.1c-0.6,0.9-1.4,2.7-2.1,4.6c-1.3,3.4-2.5,7.5-2.9,8.9
				c-0.1,0.2-0.1,0.3-0.2,0.4c-2.4-1-4.7-2.1-7-3.3c-0.2-0.1-0.3-0.2-0.5-0.3c-2.1-1.1-4.2-2.3-6.3-3.5c-2.9-1.8-5.8-3.6-8.6-5.5
				c-1.4-1-2.9-2-4.3-3c12-7.6,17.2-18.4,19.1-23.5c3.6,2.4,7.2,4.8,10.9,6.9c0,0,0,0,0,0c0.9,0.5,1.7,1,2.6,1.5
				c1.1,0.6,2.2,1.2,3.3,1.8c0,0,0,0,0,0c0.7,0.7,1.3,1.3,2,2c2,1.9,4.2,3.7,6.5,5.4c16.1,11.8,39.6,14.5,58.1,6.4
				c0.2,0.2,0.4,0.5,0.6,0.7c0,0,0.1,0.1,0.1,0.1c0,0,0.1,0.1,0.1,0.1c0,0,0,0,0,0c0,0,0,0,0,0c0.2,0.2,0.4,0.4,0.6,0.6
				c0.4,0.4,0.8,0.9,1.2,1.4c0.1,0.2,0.3,0.3,0.4,0.5C153.4,122.2,153.8,122.7,154.3,123.3z M167.8,101.8c-2.1,2.3-4.3,4.4-6.8,6.2
				c0,0,0,0,0,0c-0.1,0-0.1,0.1-0.2,0.1c-4.3,3.2-9,5.8-14.1,7.7c-0.4,0.1-0.8,0.3-1.2,0.4c-7.7,2.7-16,3.7-24.1,3.1
				c-0.1,0-0.2,0-0.4,0c-0.1,0-0.2,0-0.3,0c-1.7-0.2-3.4-0.4-5.1-0.7c-6.2-1.2-12.2-3.4-17.7-6.7c-14.6-8.4-24.6-23.5-27.3-39.9
				c-0.8-5.1-1-10.3-0.3-15.5c0.4-4.7,1.6-9.1,3.4-13.2c6.5-14.6,20.9-24.6,37-28.4c7-1.7,14.4-2.1,21.5-1.3
				c13.8,1.8,25.4,7.3,34,15.1c7.9,7.1,13.3,16.2,15.5,26c0.9,3.8,1.3,7.8,1.2,11.7C182.8,78.3,178,90.6,167.8,101.8z M194.1,66.4
				c0,0.3,0,0.6,0,0.9c0,0.1,0,0.2,0,0.3c0,0.3,0,0.7,0,1c0,0.1,0,0.2,0,0.2c-0.1,0.9-0.1,1.8-0.2,2.8c0,0,0,0.1,0,0.1
				c-0.1,0.5-0.1,1-0.2,1.5c0,0,0,0.1,0,0.1c-0.5,3.8-1.3,8-2.5,11.9c-1.5,4.9-3.4,9.3-5.8,11.1c-0.9,0.7-5,1.3-10.1,1.6
				c1.7-2.3,3.1-4.7,4.5-7.2c0-0.1,0.1-0.1,0.1-0.2c0.3-0.5,0.5-1,0.8-1.5c0.2-0.4,0.4-0.8,0.6-1.2c0.1-0.2,0.2-0.3,0.2-0.5
				c0.3-0.6,0.6-1.3,0.8-1.9c0.2-0.6,0.5-1.2,0.7-1.7c0.5-1.2,0.9-2.5,1.2-3.7c0.4-1.2,0.7-2.4,1-3.7c0.2-1,0.4-2,0.6-3
				c0.3-1.4,0.4-2.9,0.6-4.3c0-0.3,0.1-0.6,0.1-0.9c0.1-1.7,0.2-3.4,0.2-5.2c0-1.7-0.1-3.4-0.2-5.1c3.8,2.2,7,4.4,7.5,5.2
				c0.1,0.1,0.1,0.3,0.2,0.5c0,0.1,0,0.1,0,0.2c0,0.2,0.1,0.3,0.1,0.5c0,0.1,0,0.2,0,0.2c0,0.2,0,0.4,0.1,0.7c0,0.1,0,0.1,0,0.2
				c0,0.3,0,0.6,0,1C194.1,66.3,194.1,66.3,194.1,66.4z"/>
		</g>
		<g>
			<path d="M132.1,40.3c-0.2-1-0.2-1.6-0.2-1.6l0,0c0,0-0.1-0.5-0.4-1.5c-0.1-0.5-0.2-1.1-0.6-1.8c-0.3-0.7-0.6-1.6-1-2.5
				c-0.8-1.8-2.2-3.9-4.1-5.9c-0.5-0.5-1.1-1-1.6-1.5c-0.6-0.5-1.3-0.9-1.9-1.3c-0.7-0.5-1.4-0.8-2.2-1.1l-0.6-0.3l-0.3-0.1
				c0,0-0.1-0.1-0.3-0.1c-0.1,0,0.1,0-0.2-0.1c-0.4-0.1-0.8-0.2-1.2-0.3c-0.4-0.1-0.8-0.2-1.2-0.3c-0.4-0.1-0.9-0.1-1.4-0.2
				c-0.5-0.1-0.9-0.1-1.4-0.2c-0.5,0-0.9,0-1.4,0c-0.5,0-0.9,0-1.4,0c-0.5,0.1-0.9,0.1-1.4,0.2c-1,0.1-1.9,0.3-2.9,0.5
				c-3.8,1-7.6,3.2-10.5,6.2c-3,3.2-5.1,7-6.3,11.2c-1.2,4.2-1.3,8.8-0.2,12.9c1.2,4.3,3.4,8.2,6.7,11.1c3.2,3,7.4,4.8,11.5,5
				c4.2,0.3,8.2-0.7,11.6-2.4l1.3-0.6c0.4-0.2,0.8-0.5,1.2-0.8c0.8-0.5,1.6-1,2.2-1.6c0.7-0.6,1.3-1.1,2-1.8
				c0.5-0.6,1.1-1.3,1.6-1.9c2-2.7,3.3-5.5,4-8.1c0.4-1.3,0.6-2.5,0.8-3.7c0.1-1.2,0.2-2.2,0.3-3.2c0-1-0.1-1.8-0.1-2.6
				C132.3,41.5,132.1,40.8,132.1,40.3z M130.8,47.8c-0.2,1.1-0.4,2.3-0.8,3.5c-0.5,1.7-1.2,3.4-2.1,5.1c0.1-0.1,0.2-0.2,0.3-0.3
				c-0.5,0.9-1,1.8-1.6,2.6c-0.1,0.1-0.1,0.2-0.2,0.3c-0.2,0.2-0.4,0.5-0.6,0.7c-0.1,0.1-0.1,0.2-0.2,0.2c-0.3,0.3-0.5,0.6-0.8,0.9
				c-0.5,0.6-1.2,1.1-1.8,1.7c-0.6,0.6-1.3,1.1-2,1.6c-0.4,0.2-0.7,0.5-1.1,0.7l-1.2,0.6c-1.7,0.9-3.6,1.6-5.6,2
				c-0.1,0-0.3,0.1-0.4,0.1c-0.2,0-0.4,0.1-0.6,0.1c-3.1,0.5-6.1,0.4-9-0.6c-7.1-2.4-12.6-9.6-13.3-17.6c-0.3-2.9,0.2-5.8,1.1-8.7
				c0,0.1,0,0.1,0,0.2c0.1-0.2,0.1-0.5,0.2-0.7c1.3-3.9,3.6-7.4,6.4-9.9c2.9-2.7,6.3-4.3,9.7-5.1c0.9-0.2,1.7-0.4,2.5-0.4
				c0.4,0,0.8-0.1,1.2-0.1c0.4,0,0.8,0,1.2,0c0.4,0,0.8,0,1.2,0c0.4,0.1,0.8,0.1,1.1,0.2c0.4,0.1,0.7,0.1,1.1,0.2
				c0.4,0.1,0.8,0.2,1.2,0.3c2.9,0.8,5.2,2.3,7.1,3.8c1.8,1.6,3.3,3.3,4.2,4.8c0.5,0.7,0.8,1.5,1.1,2.1c0.3,0.6,0.5,1.2,0.7,1.7
				c0.3,0.9,0.5,1.4,0.5,1.4c0,0,0.1,0.5,0.3,1.4c0.1,0.5,0.2,1.1,0.3,1.8c0,0.7,0.1,1.5,0.1,2.4C130.9,45.7,130.8,46.7,130.8,47.8z
				"/>
			<path d="M153.1,59.5c-4.3-1.8-9.2,0.3-11,4.5c-1.8,4.3,0.3,9.2,4.5,11c4.3,1.8,9.2-0.3,11-4.5C159.4,66.2,157.4,61.3,153.1,59.5z
				 M151.3,64.5c-0.6,1.4-2.2,2.1-3.6,1.5c-1.4-0.6-2.1-2.2-1.5-3.6s2.2-2.1,3.6-1.5C151.2,61.5,151.9,63.1,151.3,64.5z"/>
			<path d="M177.4,61.7c-0.1-3.8-1.3-7.6-3.1-10.6c-0.5-0.8-1-1.7-1.6-2.4c-0.3-0.4-0.6-0.7-0.9-1.1c-0.3-0.3-0.7-0.7-1-1
				c-0.3-0.3-0.6-0.7-1-1c-0.4-0.3-0.7-0.6-1.1-0.9c-0.4-0.3-0.7-0.6-1.1-0.8c-0.4-0.2-0.7-0.4-1-0.6c-3-1.7-6.2-2.4-8.9-2.5
				c-2.8,0-5.2,0.4-7,1c-0.9,0.2-1.8,0.7-2.5,0.9c-0.7,0.3-1.3,0.6-1.7,0.8c-0.9,0.5-1.3,0.8-1.4,0.8c0,0-0.5,0.3-1.3,0.9
				c-0.4,0.3-1,0.6-1.5,1.1c-0.5,0.5-1.2,1.1-1.9,1.8c-0.6,0.7-1.3,1.6-2,2.5c-0.6,1-1.4,2-2,3.2c-1.3,2.4-2.3,5.2-2.8,8.5
				c-0.1,0.8-0.1,1.6-0.2,2.4c0,0.9,0.1,1.7,0.1,2.6c0,0.9,0.2,1.8,0.4,2.7c0.1,0.4,0.2,0.9,0.3,1.3l0.5,1.3c1.2,3.5,3.4,7,6.5,9.6
				c3.1,2.6,7.2,4.3,11.4,4.6c4.3,0.3,8.6-0.7,12.5-2.9c1.9-1.1,3.6-2.5,5.2-4.1c1.5-1.5,2.8-3.3,3.8-5.1c2.1-3.8,3.3-8,3.3-12.2
				C177.4,62.3,177.4,62,177.4,61.7z M172.9,74.2c-0.1,0.2-0.2,0.4-0.3,0.6c0,0,0,0,0,0c0,0.1-0.1,0.2-0.1,0.2
				c-0.7,1.2-1.4,2.4-2.3,3.5c-0.9,1.2-2,2.4-3.2,3.3c-6.1,5-14.7,5.7-21.3,2.3c-4.6-2.3-8.1-6.7-9.8-11.8c0,0,0,0,0-0.1l-0.4-1.3
				c-0.1-0.4-0.2-0.9-0.3-1.3c-0.2-0.8-0.4-1.7-0.4-2.5c0-0.8-0.1-1.7-0.1-2.4c0.1-0.8,0.1-1.6,0.2-2.4c0.5-3,1.5-5.7,2.7-8
				c0.6-1.1,1.3-2.1,1.9-3c0.7-0.8,1.4-1.6,2-2.3c0.7-0.6,1.3-1.2,1.8-1.6c0.5-0.5,1-0.8,1.4-1.1c0.7-0.5,1.1-0.8,1.2-0.8
				c0.1,0,0.6-0.2,1.4-0.6c0.5-0.2,1-0.5,1.7-0.6c0.7-0.2,1.4-0.5,2.3-0.6c1.7-0.3,3.9-0.4,6.3-0.2c1.2,0.2,2.4,0.4,3.7,0.8
				c0.7,0.1,1.3,0.4,1.9,0.7l0.5,0.2l0.2,0.1c0,0,0.1,0,0.2,0.1c0.3,0.2,0.7,0.4,1,0.5c0.4,0.2,0.7,0.4,1.1,0.6
				c0.3,0.2,0.6,0.4,0.9,0.6c0.3,0.2,0.6,0.4,0.9,0.6c0.3,0.3,0.6,0.5,0.9,0.8c0.3,0.3,0.6,0.5,0.9,0.8c0.3,0.3,0.5,0.6,0.8,0.9
				c0.6,0.6,1,1.3,1.5,2c1.9,2.9,3.2,6.2,3.4,10.2C175.5,66.4,174.7,70.5,172.9,74.2z"/>
			<path d="M115.1,43.9c-4.3-1.8-9.2,0.3-11,4.5c-1.8,4.3,0.3,9.2,4.5,11c4.3,1.8,9.2-0.3,11-4.5C121.4,50.6,119.4,45.7,115.1,43.9z
				 M113.3,48.9c-0.6,1.4-2.2,2.1-3.6,1.5c-1.4-0.6-2.1-2.2-1.5-3.6s2.2-2.1,3.6-1.5C113.2,45.9,113.9,47.5,113.3,48.9z"/>
		</g>
	</g>
</g>
</svg>
