<?xml version="1.0" encoding="utf-8"?>
<!-- Generator: Adobe Illustrator 27.2.0, SVG Export Plug-In . SVG Version: 6.00 Build 0)  -->
<svg version="1.1" xmlns="http://www.w3.org/2000/svg" xmlns:xlink="http://www.w3.org/1999/xlink" x="0px" y="0px"
	 viewBox="0 0 202.2 219.8" style="enable-background:new 0 0 202.2 219.8;" xml:space="preserve">
<style type="text/css">
	.st0{fill:#FFFFFF;}
	.st1{fill:#15264B;}
	.st2{opacity:0.35;}
	.st3{fill:#274B8B;}
	.st4{fill:#0F3747;}
	.st5{opacity:0.5;}
	.st6{opacity:0.4;}
	.st7{fill:#183E75;}
	.st8{opacity:0.2;}
	.st9{fill:#38276B;}
	.st10{fill:#44AC34;}
	.st11{fill:#00983A;}
	.st12{fill:#FCF8FB;}
	.st13{opacity:0.7;}
	.st14{fill:#94613F;}
	.st15{fill:#FFD100;}
	.st16{fill:#EA5B0C;}
	.st17{fill:#D3D5ED;}
	.st18{fill:#D8D8D8;}
	.st19{fill:#121A28;}
	.st20{fill:#E5E1D4;}
	.st21{opacity:0.25;}
	.st22{opacity:0.6;}
	.st23{fill:#FFD346;}
	.st24{fill:#FFDA36;}
	.st25{fill:#1E1E1C;}
	.st26{fill:#EEEDED;}
	.st27{opacity:0.3;}
	.st28{fill:#407FC1;}
	.st29{fill:#B0B3B1;}
	.st30{opacity:0.8;}
	.st31{fill:#E5E5E4;}
	.st32{fill:#BCBCBB;}
	.st33{fill:#E72D47;}
	.st34{fill:#F7A710;}
	.st35{fill:#F2EFEC;}
	.st36{fill:#F9B116;}
	.st37{fill:#F38F1C;}
	.st38{fill:none;stroke:#2A3856;stroke-width:2.1963;stroke-linecap:round;stroke-miterlimit:10;}
	.st39{fill:#D66C12;}
	.st40{fill:#FFD767;}
	.st41{fill:#F7A83D;}
	.st42{fill:#FECF70;}
	.st43{fill:#FFED91;}
	.st44{opacity:0.41;}
	.st45{opacity:0.26;}
	.st46{fill:none;}
	.st47{fill:#261E26;}
	.st48{fill:#E30613;}
	.st49{fill:#E9E8E8;}
	.st50{fill:#4A92CF;}
	.st51{fill:#386EB5;}
	.st52{fill:#B6B6B7;}
	.st53{fill:#DDDDDD;}
	.st54{fill:#FDC423;}
	.st55{fill:#E2A415;}
	.st56{fill:#F9B044;}
	.st57{fill:#EB5759;}
	.st58{fill:#E5201F;}
	.st59{fill:none;stroke:#FFFFFF;stroke-width:2.3076;stroke-linecap:round;stroke-miterlimit:10;}
	.st60{fill:#EDC5D6;}
	.st61{fill:#4A153F;}
	.st62{fill:#E9C8D2;}
	.st63{fill:#DFB0BE;}
	.st64{fill:#D6D6EA;}
	.st65{fill:#BDBDE0;}
	.st66{fill:#232323;}
	.st67{fill:#A7ABCC;}
	.st68{fill:#EDCCA9;}
	.st69{fill:#492311;}
	.st70{fill:#2A3856;}
	.st71{fill:#05646E;}
	.st72{fill:#F28D70;}
	.st73{fill:#BEC5CA;}
	.st74{fill:#54767A;}
</style>
<g id="Fondo">
</g>
<g id="Grafica">
</g>
<g id="Informazioni">
	<g>
		<g>
			<g>
				<g>
					<g>
						<g>
							<path class="st58" d="M65.5,122.9c18.8-2.6,35.8,23.4,39.6,29.7c0.5,0.9,1.4,1.5,2.5,1.6c6.8,0.9,11.6,0.8,15.2,0
								c0,0,0,0,0,0c8.4-1.7,10.1-6.9,15.2-10.5c3.4-2.5,7.5-2.6,11.6-2.6c0,0,0,0,0,0c4.8,0.1,9.6,0.5,13.5-1.9
								c0.6-0.4,1.1-0.7,1.5-1.1c3.7-3.3,3.6-7.9,8.5-11.5c2.5-1.8,5.7-2.4,8.9-2.3c4.9,0.2,9.8,1.9,12.2,3c0.5,0.2,1.1-0.2,1-0.7
								l-2.4-12.5L160.2,99L75,91.9L65.5,122.9z"/>
						</g>
					</g>
				</g>
			</g>
			<g class="st8">
				<g>
					<g>
						<g>
							<path class="st1" d="M65.5,122.9c18.8-2.6,35.8,23.4,39.6,29.7c0.5,0.9,1.4,1.5,2.5,1.6c6.8,0.9,11.6,0.8,15.2,0c0,0,0,0,0,0
								c8.4-1.7,10.1-6.9,15.2-10.5c3.4-2.5,7.5-2.6,11.6-2.6c0,0,0,0,0,0c4.8,0.1,9.6,0.5,13.5-1.9c0.6-0.4,1.1-0.7,1.5-1.1
								c3.7-3.3,3.6-7.9,8.5-11.5c2.5-1.8,5.7-2.4,8.9-2.3c4.9,0.2,9.8,1.9,12.2,3c0.5,0.2,1.1-0.2,1-0.7l-2.4-12.5L160.2,99
								L75,91.9L65.5,122.9z"/>
						</g>
					</g>
				</g>
			</g>
			<g class="st2">
				<g>
					<g>
						<g>
							<path class="st1" d="M127.8,147.3c-0.1,3.5-2.5,5.4-4.9,6.3c8.4-1.7,10.1-6.9,15.2-10.5c3.4-2.5,7.5-2.6,11.6-2.6
								c-6.8-1.4-15.9-4.2-22.8-9.8c-12.3-10-27.1-10-27.2-10C119.8,125.9,127.9,140.4,127.8,147.3z"/>
						</g>
					</g>
				</g>
			</g>
			<g class="st2">
				<g>
					<g>
						<g>
							<path class="st1" d="M113.4,105.5c-0.4,3.4,23.6-3.6,50.8,25.5c1.7,1.8,1.4,4.5,0.4,7.1c3.7-3.3,3.6-7.9,8.5-11.5
								c2.5-1.8,5.7-2.4,8.9-2.3c-4.9-2.5-10.3-5.3-15.2-7.9C142.9,103.6,113.6,103.4,113.4,105.5z"/>
						</g>
					</g>
				</g>
			</g>
			<g>
				<g>
					<g>
						<g>
							<path class="st1" d="M116.2,156.1c-2.5,0-5.4-0.2-8.7-0.6c-1.4-0.2-2.6-1-3.3-2.2c-1.9-3.1-7-11.1-14-18
								c-8.6-8.5-16.8-12.2-24.4-11.2l-1.9,0.3l10.4-33.8l86.3,7.3l33.2,15.4l2.5,13.1c0.1,0.7-0.1,1.4-0.7,1.9
								c-0.6,0.4-1.3,0.5-2,0.2c-2.1-1-5.6-2.2-9.3-2.7c-3.1-0.4-7.5-0.4-10.5,1.8c-2.4,1.8-3.5,3.9-4.6,6.1
								c-1.2,2.4-2.5,4.8-5.5,6.6c-3.8,2.3-8.3,2.2-12.6,2.1c-4.6-0.1-8.9-0.2-12.4,2.3c-1.5,1.1-2.7,2.4-4,3.7
								C131.1,152.2,127.3,156.1,116.2,156.1z M68.2,121.5c3.7,0,7.6,1,11.5,3c4,2,8.1,5.1,12.1,9.1c7.2,7.1,12.5,15.2,14.4,18.4
								c0.3,0.6,0.9,0.9,1.6,1c17,2.2,20.9-1.9,25.1-6.3c1.3-1.3,2.6-2.7,4.3-4c4.2-3,9.1-2.9,13.8-2.8c4.2,0.1,8.1,0.2,11.3-1.7
								c2.4-1.5,3.4-3.4,4.6-5.7c1.1-2.2,2.4-4.8,5.3-6.9c3-2.2,7.1-3,12.3-2.3c3.4,0.5,6.8,1.5,9.1,2.5l-2.1-10.8l-31.7-14.7
								l-83.9-7.1l-8.7,28.4C67.6,121.6,67.9,121.5,68.2,121.5z"/>
						</g>
					</g>
				</g>
			</g>
			<g>
				<g>
					<g>
						<g>
							<path class="st58" d="M63.8,87.1c18.3,9.9,80.1-8.7,125.8,19.9c4.2,2.6,8.4,10.3,8.6,19.6c0,1.5-1.7,2.3-2.8,1.3
								c-6.4-5.3-23.5-18.4-44.1-23.7c-26.2-6.7-82.6-6.4-85.5-12.4C64.6,89.3,63.8,87.1,63.8,87.1z"/>
						</g>
					</g>
				</g>
			</g>
			<g class="st5">
				<g>
					<g>
						<g>
							<path class="st0" d="M63.8,86.8c0,0,0.7,2.2,2,4.7c0.1,0.1,0.2,0.3,0.3,0.4c21.7,6.5,79.1-8.5,122.3,18.5
								c3.9,2.4,7.8,9.2,8.5,17.6c0.7-0.2,1.4-0.8,1.3-1.7c-0.2-9.2-4.3-16.9-8.6-19.6C143.9,78.1,82.1,96.7,63.8,86.8z"/>
						</g>
					</g>
				</g>
			</g>
			<g>
				<g>
					<g>
						<g>
							<path class="st1" d="M196.4,129.5c-0.7,0-1.3-0.2-1.9-0.7c-6.3-5.3-23.2-18.2-43.6-23.4c-12.2-3.1-31.2-4.8-48-6.2
								c-9.5-0.8-18.5-1.6-25.3-2.5c-3.7-0.5-6.4-1.1-8.4-1.6c-2.6-0.8-4-1.6-4.6-2.7c-1.2-2.5-2-4.7-2-4.8l-1-2.9l2.7,1.5
								c3,1.6,7.3,2.5,13.8,2.9c6,0.4,13.2,0.2,20.9,0.1c13.5-0.3,28.8-0.6,44.6,1.5c18.4,2.4,33.6,7.4,46.5,15.5
								c2.4,1.5,4.6,4.3,6.3,7.8c1.8,3.9,2.8,8.3,2.9,12.8c0,1.2-0.6,2.2-1.7,2.7C197.3,129.4,196.9,129.5,196.4,129.5z M66,89.4
								c0.2,0.6,0.5,1.2,0.9,1.9c0,0.1,0.4,0.7,3.1,1.5c1.9,0.6,4.6,1.1,8.1,1.6c6.7,0.9,15.7,1.7,25.2,2.5
								c16.9,1.4,36,3.1,48.4,6.2c20.8,5.4,38.1,18.5,44.5,23.9c0.2,0.2,0.4,0.1,0.5,0.1c0.1-0.1,0.3-0.2,0.3-0.4
								c-0.1-4.2-1-8.2-2.6-11.8c-1.4-3.1-3.4-5.6-5.3-6.8C160.5,90.3,125,91,99.1,91.5C84.9,91.7,73.4,92,66,89.4z"/>
						</g>
					</g>
				</g>
			</g>
			<g>
				<g>
					<g>
						<g>
							<path class="st0" d="M49.1,90.3l-1.4,6.2l-2.6,11.3l-0.1,0.6l-3.4,14.9l-5.8,25c0,0-4.1,2.5-9,3.6
								c-6.2,1.4-13.9,0.7-16.4-9.9c-2.9-12.2,8.7-30,16.9-40.7c0.7-0.9,1.4-1.8,2-2.6c2-2.5,3.7-4.5,4.6-5.5
								c0.5-0.6,0.8-0.9,0.8-0.9L49.1,90.3z"/>
						</g>
					</g>
				</g>
			</g>
			<g>
				<g>
					<g>
						<g>
							<path class="st17" d="M10.4,142c4.5,18.9,25.4,6.3,25.4,6.3l-1.1-8c0,0-19,11.5-24.7-3.9C9.8,138.4,10,140.3,10.4,142z"/>
						</g>
					</g>
				</g>
			</g>
			<g>
				<g>
					<g>
						<g>
							<path class="st1" d="M22.3,153.7c-2,0-3.8-0.3-5.4-1c-3.9-1.6-6.5-5.1-7.7-10.4c-1.1-4.4-0.4-9.9,2-16.2
								c1.9-5,4.8-10.5,8.7-16.5c6.6-10.1,13.9-18.1,13.9-18.1l0.3-0.3l16.6-2.3l-13.9,60.2l-0.4,0.3c-0.1,0.1-2.8,1.7-6.5,2.9
								c-2.2,0.7-4.3,1.2-6.3,1.3C23.2,153.7,22.7,153.7,22.3,153.7z M35.3,93.5c-1.4,1.6-7.7,8.7-13.4,17.5
								c-3.8,5.8-6.6,11.2-8.4,16c-2.2,5.9-2.8,10.8-1.9,14.8c1.1,4.5,3.2,7.4,6.3,8.7c1.4,0.6,2.9,0.8,4.4,0.8
								c5.3,0,10.8-2.8,12.4-3.7l12.8-55.8L35.3,93.5z"/>
						</g>
					</g>
				</g>
			</g>
			<g>
				<g>
					<g>
						<g>
							<path class="st0" d="M66.4,144.8c-2.4,13.9-3.8,24.9-4.8,33.6c-2.5,22.7-1.8,30-6.9,33.1c-3.2,2-8.7,3.6-16.4,3.6
								c-10.8,0-19.6-0.5-19.6-8.3c0.1-6.2,10.7-9,10.7-9c-1.7-11.1-1.9-26.9-1.8-37.8c0.1-7.3,0.3-12.5,0.3-12.5L66.4,144.8z"/>
						</g>
					</g>
				</g>
			</g>
			<g>
				<g>
					<g>
						<g>
							<path class="st17" d="M66.4,144.8c-1.1,6.5-2,12.4-2.8,17.7c-0.1,0.4-0.1,0.7-0.1,1.1c-0.1,0.4-0.1,0.7-0.1,1
								c0,0.2-0.1,0.5-0.1,0.7c0,0.2-0.1,0.4-0.1,0.6c-0.1,0.5-0.1,1-0.2,1.5c-0.2,1.2-0.3,2.3-0.4,3.5c-0.1,0.5-0.1,1-0.2,1.5
								c0,0.1,0,0.1,0,0.2c-0.1,1.1-0.3,2.1-0.4,3.2c0,0.4-0.1,0.7-0.1,1.1c0,0.4-0.1,0.8-0.1,1.2c0,0.1,0,0.3,0,0.4
								c-2.5,22.7-1.8,30-6.9,33.1c-3.2,2-8.7,3.6-16.4,3.6c-10,0-18.3-0.4-19.4-6.6c3.6,1.7,9.2,1.9,15.5,1.9
								c7.7,0,13.2-1.7,16.4-3.6c3-1.8,4-5.1,4.8-12.2c1-8.3-3.8-16.4-11.7-19.3c-8.3-3.1-13.7-8.4-16.3-15.1
								c0.1-7.3,0.3-12.5,0.3-12.5l33.6-2.5L66.4,144.8z"/>
						</g>
					</g>
				</g>
			</g>
			<g>
				<g>
					<g>
						<g>
							<path class="st1" d="M38.3,216.4C38.3,216.4,38.3,216.4,38.3,216.4c-8.2,0-15.2-0.3-18.7-3.8c-1.4-1.5-2.2-3.4-2.1-5.8
								c0.1-5.8,7.7-8.9,10.6-9.8c-1.3-9.5-1.6-22.1-1.6-31.2c0-10.2,0.3-18.2,0.3-18.3c0-0.7,0.6-1.2,1.3-1.2
								c0.7,0,1.2,0.6,1.2,1.3c0,0.3-1.3,31.9,1.5,50l0.2,1.1l-1.1,0.3c0,0-2.6,0.7-5.1,2.1c-2.1,1.2-4.7,3.1-4.7,5.7
								c0,1.7,0.4,3,1.4,4c2.8,2.8,9.6,3,16.9,3c0,0,0,0,0,0c8.7,0,13.6-2.2,15.8-3.5c1.6-1,2.6-2.6,3.3-5.4
								c0.7-3.1,1.2-7.6,1.7-13.8c0.9-9.8,2.3-24.7,6.1-46.6c0.1-0.7,0.7-1.1,1.4-1c0.7,0.1,1.1,0.7,1,1.4
								c-3.8,21.8-5.1,36.6-6,46.4c-0.6,6.4-1,10.9-1.8,14.2c-0.8,3.5-2.2,5.6-4.4,7C53,214,47.7,216.4,38.3,216.4z"/>
						</g>
					</g>
				</g>
			</g>
			<g class="st2">
				<g>
					<g>
						<g>
							<path class="st1" d="M61.5,173.5c0.1-1.1,0.1-2.3,0.2-3.5C61.6,171.2,61.5,172.3,61.5,173.5z"/>
						</g>
					</g>
				</g>
			</g>
			<g class="st2">
				<g>
					<g>
						<g>
							<path class="st1" d="M61.8,169c0.1-0.7,0.1-1.3,0.2-2C61.9,167.7,61.8,168.3,61.8,169z"/>
						</g>
					</g>
				</g>
			</g>
			<g class="st2">
				<g>
					<g>
						<g>
							<path class="st1" d="M62.3,163.8c0.1-0.6,0.1-1.3,0.2-1.9C62.4,162.6,62.3,163.2,62.3,163.8z"/>
						</g>
					</g>
				</g>
			</g>
			<g class="st2">
				<g>
					<g>
						<g>
							<path class="st1" d="M62.5,161.6c0.1-0.7,0.2-1.5,0.3-2.2C62.7,160.1,62.6,160.9,62.5,161.6z"/>
						</g>
					</g>
				</g>
			</g>
			<g class="st21">
				<g>
					<g>
						<g>
							<path class="st1" d="M61.9,175.7c0.1-1,0.2-2.1,0.4-3.2C62.2,173.6,62,174.7,61.9,175.7z"/>
						</g>
					</g>
				</g>
			</g>
			<g>
				<g>
					<g>
						<g>
							<path class="st0" d="M100.8,145.2C100.8,145.2,100.8,145.2,100.8,145.2c0,0.4,0,0.7-0.1,1c-0.6,7.2-3.1,12.5-7.1,16.7
								c-2.2,2.4-5,4.6-8.1,6.6c-6.9,4.4-15.4,4.4-24.1,4c-20.4-0.8-31.9-9.1-34.7-21.5c-0.5-2.2-0.7-4.5-0.7-6.9
								c0-1.8,0.2-3.6,0.5-5.5c0.2-1.3,0.4-2.6,0.6-3.9c1.1-7,2.1-13.7,3.2-20.6c0.6-4.1,1.3-8.2,2-12.6c0-0.3,0.1-0.6,0.1-0.9
								c0.4-2.2,0.7-4.4,1.1-6.5c0.1-0.6,0.2-1.2,0.3-1.7c0.6-2.7,1.2-5.3,1.9-7.5l0.1-0.1l4-5.5c13-7.5,49.3-3,49.7,2.7
								c0.3,3.8,0.9,7.4,1.8,11.1c0.2,0.7,0.3,1.3,0.5,2c0,0.2,0.1,0.4,0.1,0.5c0.4,1.3,0.8,2.8,1.2,4.2c0,0,0,0,0,0.1
								c1.5,5.4,3.2,11.5,4.7,17.7c1.4,5.8,2.5,11.6,3,16.8c0,0.1,0,0.2,0,0.2C101.2,139.1,101.2,142.4,100.8,145.2z"/>
						</g>
					</g>
				</g>
			</g>
			<g>
				<g>
					<g>
						<g>
							<path class="st17" d="M26.5,150.8c2.4,13.1,13.9,21.9,35,22.7c8.7,0.4,17.2,0.4,24.1-4c3.1-2,5.8-4.1,8.1-6.6
								c4.1-4.4,6.7-10,7.1-17.7c0.4-2.5,0.4-5.3,0.2-8.4c0,0.5-0.1,1-0.2,1.5c-0.5,7.8,0.3,13.5-3.9,17.9
								c-2.3,2.4-8.6,4.4-11.8,6.4c-7.1,4.4-15.9,4.4-24.9,4C42.6,165.9,31.4,160,26.5,150.8z"/>
						</g>
					</g>
				</g>
			</g>
			<g>
				<g>
					<g>
						<g>
							<path class="st1" d="M35.5,85.5c0.6-1,1.2-2,1.8-3c0.3-0.5,0.6-1,0.9-1.5c0.3-0.5,0.6-1,0.9-1.5l0.1-0.1l0.2-0.1
								c1.1-0.7,2.2-1.3,3.4-1.7c1.2-0.5,2.4-0.8,3.6-1.1c2.4-0.6,4.8-1,7.3-1.2c2.4-0.2,4.9-0.3,7.3-0.3c2.4,0,4.9,0.1,7.3,0.3
								c2.4,0.2,4.9,0.5,7.3,0.8c2.4,0.4,4.8,0.8,7.2,1.5c1.2,0.3,2.4,0.7,3.6,1.2c0.6,0.2,1.2,0.5,1.8,0.8c0.3,0.2,0.6,0.3,0.9,0.6
								c0.3,0.2,0.6,0.4,0.9,0.7c0.1,0.1,0.1,0.2,0.2,0.2c0.1,0.1,0.1,0.2,0.2,0.3c0.1,0.2,0.2,0.4,0.3,0.6c0.1,0.2,0.2,0.5,0.2,0.8
								l0,0.1l0,0.1l0,0.1l0,0.2l0,0.4l0,0.4l0,0.4l0,0.4c0.1,1.2,0.3,2.3,0.5,3.5c0.4,2.3,0.9,4.7,1.5,7c0.1,0.3,0.1,0.6,0.2,0.9
								l0.2,0.9l0.5,1.7l1,3.5c1.3,4.6,2.6,9.3,3.7,14c0.6,2.4,1.1,4.7,1.6,7.1c0.5,2.4,0.9,4.8,1.3,7.2c0.4,2.4,0.6,4.8,0.8,7.3
								c0.1,1.2,0.1,2.5,0.1,3.7l0,0.9l0,0.2l0,0.2l0,0.5c0,0.6-0.1,1.2-0.2,1.9l0-0.1c-0.1,1.6-0.3,3.1-0.6,4.7
								c-0.3,1.5-0.7,3.1-1.2,4.6c-0.5,1.5-1.2,2.9-2,4.3c-0.4,0.7-0.8,1.4-1.3,2c-0.2,0.3-0.5,0.6-0.7,1l-0.1,0.1L96,162l-0.2,0.2
								c-0.1,0.2-0.2,0.3-0.4,0.5c-0.3,0.3-0.5,0.6-0.8,0.9c-0.1,0.1-0.3,0.3-0.4,0.4l-0.4,0.4c-0.1,0.1-0.1,0.1-0.2,0.2l-0.2,0.2
								l-0.4,0.4l-0.4,0.4l-0.2,0.2c-0.1,0.1-0.1,0.1-0.2,0.2c-1.2,1-2.4,2-3.7,2.9c-0.3,0.2-0.6,0.4-1,0.7l-0.5,0.3l-0.5,0.3
								l-0.2,0.2l-0.1,0.1l-0.1,0.1l-0.5,0.3c-0.2,0.1-0.3,0.2-0.5,0.3c-0.1,0-0.2,0.1-0.3,0.1l-0.3,0.1l-0.3,0.1l-0.1,0.1l-0.1,0.1
								l-0.5,0.3c-0.4,0.2-0.7,0.3-1.1,0.5c-0.4,0.2-0.7,0.3-1.1,0.4c-0.4,0.1-0.7,0.3-1.1,0.4c-0.4,0.1-0.8,0.2-1.1,0.3
								c-0.4,0.1-0.8,0.2-1.1,0.3c-0.4,0.1-0.8,0.2-1.2,0.2c-0.4,0.1-0.8,0.1-1.2,0.2c-0.4,0.1-0.8,0.1-1.2,0.2
								c-0.4,0-0.8,0.1-1.2,0.1c-0.8,0.1-1.5,0.1-2.3,0.2c-3.1,0.2-6.2,0.1-9.2-0.1c-0.8,0-1.5-0.1-2.3-0.1c-0.4,0-0.8-0.1-1.2-0.1
								l-0.6,0l-0.6-0.1c-1.5-0.1-3.1-0.3-4.6-0.6c-3-0.5-6.1-1.3-9-2.4c-0.2-0.1-0.4-0.1-0.5-0.2l-0.5-0.2l-0.3-0.1l-0.3-0.1
								l-0.5-0.2c-0.7-0.3-1.4-0.7-2.1-1c-0.7-0.4-1.4-0.8-2-1.2c-0.3-0.2-0.7-0.4-1-0.7c-0.2-0.1-0.3-0.2-0.5-0.3l-0.5-0.3
								c-0.6-0.5-1.3-1-1.8-1.5l-0.2-0.2l-0.2-0.2c-0.1-0.1-0.3-0.3-0.4-0.4l-0.4-0.4c-0.1-0.1-0.1-0.1-0.2-0.2l-0.2-0.2
								c-0.3-0.3-0.5-0.6-0.8-0.9c-0.3-0.3-0.5-0.6-0.7-0.9c-0.2-0.3-0.5-0.6-0.7-1c-0.2-0.3-0.4-0.7-0.7-1c-0.2-0.3-0.4-0.7-0.6-1
								c-0.2-0.4-0.4-0.7-0.6-1.1c-0.2-0.4-0.3-0.7-0.5-1.1c-0.2-0.4-0.3-0.7-0.5-1.1c-0.1-0.4-0.3-0.7-0.4-1.1
								c-0.1-0.2-0.1-0.4-0.2-0.6c0-0.1-0.1-0.2-0.1-0.3l-0.1-0.3c-0.2-0.8-0.4-1.5-0.5-2.3l-0.1-0.6l-0.1-0.6
								c0-0.2-0.1-0.4-0.1-0.6c0-0.2-0.1-0.4-0.1-0.6l-0.1-0.6c0-0.2,0-0.4,0-0.6c0-0.4,0-0.8-0.1-1.2c0-0.8,0-1.6,0-2.4
								c0-0.4,0-0.8,0.1-1.2c0-0.2,0-0.4,0-0.6c0-0.2,0-0.4,0.1-0.6l0.1-0.6c0-0.2,0-0.4,0.1-0.6c0-0.2,0-0.4,0.1-0.6l0.1-0.6
								c0-0.2,0.1-0.4,0.1-0.6l0.1-0.6l0.2-1.1c0.1-0.8,0.3-1.5,0.4-2.2l0.4-2.2l0.4-2.2l0.4-2.2l0.9-4.5c0.3-1.5,0.6-3,0.9-4.4
								l0.2-1.1l0.3-1.1c0.2-0.7,0.3-1.5,0.5-2.2c0.2-0.7,0.4-1.5,0.5-2.2c0.2-0.7,0.4-1.5,0.6-2.2c0.2-0.7,0.4-1.5,0.6-2.2
								c0.2-0.7,0.4-1.5,0.7-2.2l0,0c0.1-0.2,0.3-0.3,0.5-0.3c0.2,0.1,0.3,0.2,0.3,0.4c0,0.8,0,1.5-0.1,2.3c0,0.8-0.1,1.5-0.2,2.3
								c-0.1,0.8-0.2,1.5-0.3,2.3c-0.1,0.8-0.2,1.5-0.3,2.3c-0.1,0.7-0.3,1.5-0.4,2.2c-0.1,0.7-0.3,1.5-0.4,2.2
								c-0.3,1.5-0.6,3-1,4.4c-0.3,1.5-0.7,2.9-1,4.4c-0.1,0.4-0.2,0.7-0.2,1.1l-0.2,1.1l-0.4,2.2l-0.4,2.2
								c-0.1,0.7-0.3,1.5-0.4,2.2l-0.2,1.1l-0.1,0.6c0,0.2-0.1,0.4-0.1,0.6l-0.1,0.5c0,0.2,0,0.4-0.1,0.5c0,0.2,0,0.4-0.1,0.5
								l-0.1,0.5c0,0.2,0,0.4,0,0.5c0,0.2,0,0.4,0,0.5c0,0.4,0,0.7-0.1,1.1c0,0.7,0,1.5,0,2.2c0,0.4,0,0.7,0.1,1.1
								c0,0.2,0,0.4,0,0.5l0.1,0.5c0,0.2,0,0.4,0.1,0.5c0,0.2,0,0.4,0.1,0.5l0.1,0.5l0.1,0.5c0.1,0.7,0.3,1.4,0.5,2.1l0.1,0.3
								c0,0.1,0.1,0.2,0.1,0.3c0.1,0.2,0.1,0.3,0.2,0.5c0.1,0.3,0.2,0.7,0.4,1c0.1,0.3,0.3,0.7,0.4,1c0.1,0.3,0.3,0.7,0.5,1
								c0.2,0.3,0.3,0.6,0.5,1c0.2,0.3,0.4,0.6,0.6,0.9c0.2,0.3,0.4,0.6,0.6,0.9c0.2,0.3,0.4,0.6,0.6,0.9c0.2,0.3,0.4,0.6,0.7,0.8
								c0.2,0.3,0.5,0.5,0.7,0.8l0.2,0.2c0.1,0.1,0.1,0.1,0.2,0.2l0.4,0.4c0.1,0.1,0.3,0.2,0.4,0.4l0.2,0.2l0.2,0.2
								c0.5,0.5,1.1,0.9,1.7,1.4l0.4,0.3c0.1,0.1,0.3,0.2,0.4,0.3c0.3,0.2,0.6,0.4,0.9,0.6c0.6,0.4,1.2,0.8,1.9,1.1
								c0.6,0.3,1.3,0.7,2,1l0.5,0.2l0.3,0.1l0.3,0.1l0.5,0.2c0.2,0.1,0.3,0.1,0.5,0.2c2.7,1,5.6,1.8,8.5,2.3
								c1.5,0.2,2.9,0.4,4.4,0.6l0.6,0.1l0.6,0c0.4,0,0.7,0.1,1.1,0.1c0.7,0.1,1.5,0.1,2.2,0.1l1.1,0.1l1.1,0c0.8,0,1.5,0,2.2,0.1
								c1.5,0,3,0,4.5-0.1c3-0.1,5.9-0.5,8.6-1.4c0.3-0.1,0.7-0.2,1-0.3c0.3-0.1,0.7-0.2,1-0.4c0.3-0.1,0.7-0.3,1-0.4l0.5-0.2
								l0.1-0.1l0.1-0.1l0.2-0.1l0.2-0.1c0.1,0,0.2-0.1,0.2-0.1c0.2-0.1,0.3-0.2,0.5-0.3l0.5-0.3l0.1-0.1l0.1-0.1l0.2-0.2l0.5-0.3
								l0.5-0.3c0.3-0.2,0.6-0.4,0.9-0.6c2.4-1.7,4.6-3.6,6.5-5.9c0.1-0.1,0.2-0.3,0.3-0.4l0.2-0.2l0.1-0.1l0.1-0.1
								c0.2-0.3,0.4-0.6,0.6-0.9c0.4-0.6,0.8-1.2,1.2-1.8c0.7-1.3,1.3-2.6,1.8-3.9c1-2.7,1.5-5.6,1.7-8.6l0,0l0-0.1
								c0.1-0.6,0.2-1.1,0.2-1.7l0-0.4l0-0.2l0-0.2l0-0.9c0-1.2,0-2.3-0.1-3.5c-0.1-2.4-0.4-4.7-0.7-7.1c-0.3-2.4-0.8-4.7-1.3-7
								c-0.5-2.3-1-4.7-1.6-7c-1.1-4.7-2.4-9.3-3.7-13.9l-1-3.5l-0.5-1.7l-0.2-0.9c-0.1-0.3-0.1-0.6-0.2-0.9
								c-0.6-2.4-1.1-4.7-1.5-7.2c-0.2-1.2-0.4-2.4-0.5-3.6l0-0.5l0-0.5l0-0.5l0-0.5l0-0.2l0-0.1l0-0.1c0,0,0,0,0,0c0,0,0,0,0-0.1
								c0,0,0-0.1-0.1-0.2c0,0-0.1-0.1-0.1-0.1c0,0-0.1-0.1-0.1-0.1c-0.1-0.1-0.3-0.3-0.5-0.4c-0.2-0.1-0.4-0.3-0.7-0.4
								c-0.5-0.3-1-0.5-1.5-0.7c-1-0.4-2.2-0.8-3.3-1.1c-2.3-0.6-4.6-1.1-6.9-1.4c-2.3-0.4-4.7-0.6-7.1-0.8
								c-1.2-0.1-2.4-0.1-3.6-0.2c-1.2,0-2.4,0-3.6,0c-2.4,0-4.7,0.1-7.1,0.3c-2.4,0.2-4.7,0.5-7,1c-1.1,0.2-2.3,0.5-3.4,0.9
								c-0.5,0.2-1.1,0.4-1.6,0.6c-0.5,0.2-1.1,0.4-1.6,0.7l0.3-0.3c-0.4,0.4-0.7,0.9-1.1,1.3c-0.4,0.4-0.7,0.9-1.1,1.3
								c-0.8,0.9-1.5,1.7-2.3,2.6c-0.2,0.2-0.4,0.2-0.6,0C35.5,85.8,35.4,85.6,35.5,85.5z"/>
						</g>
					</g>
				</g>
			</g>
			<g>
				<g>
					<g>
						<g>
							<path class="st1" d="M46.6,187.2c-2.2,0-4.4-0.2-6.5-0.5c-4.4-0.7-8.5-2-12.4-4c-0.4-0.2-0.6-0.8-0.4-1.2
								c0.2-0.4,0.8-0.6,1.2-0.4c8.3,4.3,16.6,4.6,22.1,4.1c6-0.6,10.1-2.2,10.1-2.2c0.5-0.2,1,0,1.2,0.5c0.2,0.5,0,1-0.5,1.2
								c-0.2,0.1-4.3,1.7-10.6,2.3C49.4,187.1,48,187.2,46.6,187.2z"/>
						</g>
					</g>
				</g>
			</g>
			<g>
				<g>
					<g>
						<g>
							<path class="st0" d="M67.4,160.7c-0.1-1,1.2,25.5,3.6,42.3c1.7,12,12.8,13.3,30.4,12c6.5-0.5,11.5-2.4,11-7.5
								c-0.7-6.9-10.8-9.5-10.8-9.5s-0.3-20.9-2.3-50.3"/>
						</g>
					</g>
				</g>
			</g>
			<g>
				<g>
					<g>
						<g>
							<path class="st17" d="M67.4,160.7c0,0.5,1.2,26,3.6,42.3c1.7,12,12.8,13.3,30.4,12c6.5-0.5,11.5-2.4,11-7.5
								c0-0.1,0-0.2,0-0.4c-2,1.3-5,2-8.4,2.2c-17.6,1.2-28.7,0-30.4-12C71.7,184.8,68.8,168.1,67.4,160.7L67.4,160.7
								C67.4,160.7,67.4,160.7,67.4,160.7z"/>
						</g>
					</g>
				</g>
			</g>
			<g>
				<g>
					<g>
						<g>
							<path class="st1" d="M67,160.7C67,160.7,67,160.7,67,160.7c1.6-0.1,0.5,0,0.8,0l0,0c0,0,0,0.1,0,0.1l0,0.2
								c0,0.1,0.1,0.3,0.1,0.4c0.1,0.3,0.1,0.6,0.2,0.8c0.1,0.6,0.2,1.1,0.3,1.7c0.2,1.1,0.3,2.3,0.5,3.4c0.1,0.6,0.1,1.1,0.2,1.7
								l0.1,0.8l0.1,0.8c0.1,1.1,0.2,2.3,0.3,3.4c0.2,2.3,0.3,4.5,0.4,6.8c0.1,1.1,0.2,2.3,0.2,3.4c0.1,1.1,0.2,2.3,0.3,3.4
								c0.4,4.5,0.9,9,1.5,13.5l0.1,0.8l0.1,0.4l0,0.2l0,0.2c0.1,0.5,0.2,1.1,0.3,1.6c0.3,1,0.6,2,1.1,2.9c0.5,0.9,1.1,1.7,1.8,2.4
								c0.7,0.7,1.6,1.3,2.5,1.8c0.9,0.5,1.9,0.9,2.9,1.2c1,0.3,2.1,0.5,3.2,0.7c1.1,0.2,2.2,0.3,3.3,0.4c1.1,0.1,2.2,0.1,3.3,0.2
								c2.2,0,4.5,0,6.7-0.1c1.1-0.1,2.3-0.1,3.4-0.2c0.6,0,1.1-0.1,1.7-0.1c0.5-0.1,1.1-0.1,1.6-0.2c0.5-0.1,1.1-0.2,1.6-0.3
								c0.5-0.1,1-0.3,1.5-0.4c1-0.3,1.9-0.8,2.6-1.4c0.7-0.6,1.1-1.3,1.3-2.2c0.1-0.4,0.1-0.9,0.1-1.4c0-0.5-0.1-0.9-0.3-1.4
								c-0.3-0.9-0.8-1.8-1.5-2.5c-0.7-0.8-1.5-1.4-2.3-2c-0.9-0.6-1.8-1.1-2.8-1.6c-0.5-0.2-1-0.4-1.5-0.6
								c-0.3-0.1-0.5-0.2-0.8-0.3c-0.1,0-0.3-0.1-0.4-0.1l-0.2-0.1l-0.2,0l-0.9-0.3l0-0.9c0-2.1-0.1-4.2-0.1-6.3l-0.1-3.1l-0.1-3.1
								c-0.1-4.2-0.3-8.4-0.5-12.6l-0.2-3.1c0-1-0.1-2.1-0.2-3.1c-0.1-2.1-0.2-4.2-0.4-6.3l-0.1-1.6c0-0.5-0.1-1-0.1-1.6
								c-0.1-1-0.1-2.1-0.1-3.1c0-1,0-2.1,0-3.2c0-0.5,0.1-1.1,0.1-1.6c0.1-0.5,0.1-1.1,0.3-1.6l0,0c0.1-0.2,0.3-0.4,0.5-0.3
								c0.1,0,0.3,0.1,0.3,0.3c0.2,0.5,0.3,1,0.5,1.5c0.1,0.5,0.2,1,0.3,1.6c0.2,1,0.3,2.1,0.4,3.1c0.1,1,0.2,2.1,0.2,3.1
								c0.1,1,0.1,2.1,0.1,3.2c0,0.5,0,1.1,0.1,1.6c0,0.5,0.1,1,0.1,1.6l0.2,3.1c0.1,1,0.1,2.1,0.2,3.1l0.2,3.1
								c0.2,4.2,0.4,8.4,0.5,12.6l0.1,3.2l0.1,3.2c0.1,2.1,0.1,4.2,0.1,6.3l-0.9-1.2l0.1,0l0.1,0l0.2,0.1c0.1,0,0.3,0.1,0.4,0.1
								c0.3,0.1,0.6,0.2,0.8,0.3c0.6,0.2,1.1,0.4,1.7,0.7c1.1,0.5,2.2,1.1,3.2,1.8c1,0.7,2,1.5,2.8,2.4c0.4,0.5,0.8,1,1.1,1.6
								c0.3,0.6,0.6,1.2,0.8,1.8c0.2,0.6,0.3,1.3,0.4,2c0,0.7,0,1.3-0.1,2c-0.1,0.7-0.4,1.4-0.8,2c-0.4,0.6-0.8,1.1-1.3,1.6
								c-0.5,0.4-1.1,0.8-1.6,1.1c-0.6,0.3-1.1,0.5-1.7,0.8c-0.6,0.2-1.2,0.4-1.8,0.5c-0.6,0.1-1.2,0.3-1.8,0.3
								c-0.6,0.1-1.2,0.2-1.8,0.2c-0.6,0.1-1.2,0.1-1.7,0.1c-1.1,0.1-2.3,0.1-3.4,0.2c-2.3,0.1-4.6,0.2-6.9,0.1
								c-1.2,0-2.3-0.1-3.5-0.2c-1.2-0.1-2.3-0.2-3.5-0.4c-1.2-0.2-2.3-0.4-3.5-0.8c-1.2-0.4-2.3-0.8-3.4-1.4
								c-1.1-0.6-2.1-1.3-3-2.2c-0.9-0.9-1.7-1.9-2.2-3c-0.6-1.1-1-2.3-1.3-3.5c-0.1-0.6-0.3-1.2-0.4-1.8l0-0.2l0-0.2l-0.1-0.4
								l-0.1-0.9c-0.6-4.5-1.1-9.1-1.5-13.6l-0.6-6.8c-0.2-2.3-0.4-4.5-0.6-6.8c-0.1-1.1-0.1-2.3-0.2-3.4l0-0.9l0-0.9
								c0-0.6,0-1.1,0-1.7c0-1.1,0-2.3,0.1-3.4c0-0.6,0.1-1.1,0.1-1.7c0-0.3,0.1-0.6,0.1-0.9c0-0.1,0-0.3,0.1-0.4l0-0.2
								C66.9,160.8,66.9,160.8,67,160.7L67,160.7c0.4,0-0.8,0,0.8-0.1c0,0,0,0,0,0.1c0,0.1-0.1,0.2-0.2,0.2c0,0,0,0,0,0L67,160.7z"
								/>
						</g>
					</g>
				</g>
			</g>
			<g>
				<g>
					<g>
						<g>
							<path class="st1" d="M81.4,185.5c-0.5,0-1.1,0-1.6,0c-4.2-0.2-8.1-1-11.5-2.5c-0.5-0.2-0.7-0.7-0.5-1.2
								c0.2-0.5,0.7-0.7,1.2-0.5c7.3,3.2,15.4,2.6,21,1.5c6.1-1.2,10.5-3.1,10.5-3.1c0.5-0.2,1,0,1.2,0.5c0.2,0.5,0,1-0.5,1.2
								c-0.2,0.1-4.6,2-10.9,3.2C87.3,185.2,84.3,185.5,81.4,185.5z"/>
						</g>
					</g>
				</g>
			</g>
			<g>
				<g>
					<g>
						<g>
							<path class="st1" d="M29.1,196.8C29.1,196.8,29.2,196.8,29.1,196.8l0.2,0l0.2,0c0.1,0,0.2,0,0.3-0.1c0.2,0,0.4-0.1,0.6-0.1
								c0.4-0.1,0.8-0.1,1.2-0.2c0.8-0.1,1.5-0.1,2.3-0.1c1.5,0,3.1,0.1,4.6,0.3c0.4,0.1,0.8,0.1,1.1,0.2c0.2,0,0.4,0.1,0.6,0.1
								l0.3,0.1l0.3,0.1c0.7,0.2,1.5,0.4,2.2,0.6c1.4,0.5,2.8,1.1,4.1,1.7c-1.4-0.5-2.8-0.9-4.3-1.2c-0.7-0.1-1.5-0.2-2.2-0.3
								l-0.3,0l-0.3,0c-0.2,0-0.4,0-0.5,0c-0.4,0-0.7,0-1.1,0c-1.5,0-2.9,0.1-4.3,0.3c-0.7,0.1-1.4,0.2-2.1,0.4
								c-0.3,0.1-0.7,0.2-1,0.3c-0.2,0.1-0.3,0.1-0.5,0.2c-0.1,0-0.2,0.1-0.2,0.1c0,0-0.1,0-0.1,0l-0.1,0c0,0,0,0,0,0
								c-0.6,0.4-1.3,0.3-1.8-0.2c-0.4-0.6-0.3-1.3,0.2-1.8c0.1-0.1,0.3-0.2,0.4-0.2L29.1,196.8z"/>
						</g>
					</g>
				</g>
			</g>
			<g>
				<g>
					<g>
						<g>
							<path class="st1" d="M101.2,199.2C101.2,199.2,101.1,199.2,101.2,199.2l-0.1,0l-0.1,0c-0.1,0-0.2-0.1-0.3-0.1
								c-0.2-0.1-0.3-0.1-0.5-0.2c-0.4-0.1-0.7-0.2-1.1-0.3c-0.7-0.2-1.5-0.3-2.2-0.4c-1.5-0.2-3-0.3-4.6-0.3
								c-1.5,0-3.1,0.2-4.6,0.4c-1.5,0.3-3,0.7-4.5,1.2c1.4-0.7,2.9-1.3,4.4-1.7c1.5-0.5,3.1-0.8,4.6-1c1.6-0.2,3.2-0.3,4.8-0.3
								c0.8,0,1.6,0.1,2.4,0.1c0.4,0,0.8,0.1,1.2,0.2c0.2,0,0.4,0.1,0.6,0.1c0.1,0,0.2,0,0.3,0.1l0.2,0l0.1,0c0,0,0.1,0,0.1,0
								l0.2,0.1c0.7,0.2,1,0.9,0.9,1.5c-0.2,0.7-0.9,1-1.5,0.9C101.4,199.3,101.3,199.2,101.2,199.2z"/>
						</g>
					</g>
				</g>
			</g>
			<g class="st13">
				<g>
					<g>
						<g>
							
								<ellipse transform="matrix(0.9315 -0.3636 0.3636 0.9315 -23.4911 18.7687)" class="st0" cx="38.1" cy="71.8" rx="3.4" ry="4"/>
						</g>
					</g>
				</g>
			</g>
			<g>
				<g>
					<g>
						<g>
							<path class="st17" d="M82.2,100.6l3.7,5c-6,3.3-12.9,5.4-20.2,5.9c-7.3,0.5-14.4-0.6-20.8-3.1c-4.5-1.7-8.7-4.1-12.5-7
								c-1.1-0.8-2.1-1.7-3.2-2.7c2-2.5,3.7-4.5,4.6-5.5c0.6-2.7,1.2-5.3,1.9-7.5l0.1-0.1l4-5.5c13-7.5,49.3-3,49.7,2.7
								c0.3,3.8,0.9,7.4,1.8,11.1c0.2,0.7,0.3,1.3,0.5,2C86.8,99.3,82.2,100.6,82.2,100.6z"/>
						</g>
					</g>
				</g>
			</g>
			<g>
				<g>
					<g>
						<g>
							<path class="st0" d="M15.1,70L15.1,70c0.5,0,1-0.4,1-1l0-28.6c0-0.5-0.4-1-1-1h0C9.4,39.4,4.8,44,4.7,49.8l0,9.8
								C4.7,65.3,9.4,70,15.1,70z"/>
						</g>
					</g>
				</g>
				<g>
					<g>
						<g>
							<path class="st1" d="M15.1,70.2C15.1,70.2,15.1,70.2,15.1,70.2l0-0.2L15.1,70.2c-2.8,0-5.5-1.1-7.5-3.1c-2-2-3.1-4.7-3.1-7.5
								l0-9.8c0-2.8,1.1-5.5,3.1-7.5c2-2,4.7-3.1,7.5-3.1c0.3,0,0.6,0.1,0.9,0.4c0.2,0.2,0.4,0.5,0.4,0.9l0,28.6
								c0,0.3-0.1,0.6-0.4,0.9C15.8,70.1,15.5,70.2,15.1,70.2z M15.2,39.6c-2.7,0-5.3,1.1-7.2,3c-1.9,1.9-3,4.5-3,7.2l0,9.8
								c0,2.7,1.1,5.3,3,7.2s4.5,3,7.2,3h0c0,0,0,0,0,0c0.2,0,0.4-0.1,0.5-0.2c0.1-0.1,0.2-0.3,0.2-0.5l0-28.6
								c0-0.2-0.1-0.4-0.2-0.5C15.6,39.7,15.4,39.6,15.2,39.6C15.2,39.6,15.2,39.6,15.2,39.6z"/>
						</g>
					</g>
				</g>
			</g>
			<g>
				<g>
					<g>
						<g>
							<path class="st17" d="M4.7,55l0,4.6C4.7,65.3,9.4,70,15.1,70c0.5,0,1-0.4,1-1l0-7.6C16,61.8,15.6,62,15.2,62l-0.7,0
								C10,62,6.2,59.1,4.7,55z"/>
						</g>
					</g>
				</g>
			</g>
			<g>
				<g>
					<g>
						<g>
							<path class="st1" d="M15.1,71.2C15.1,71.2,15.1,71.2,15.1,71.2c-3.1,0-6-1.2-8.2-3.4c-2.2-2.2-3.4-5.1-3.4-8.2l0-9.8
								c0-3.1,1.2-6,3.4-8.2c2.2-2.2,5.1-3.4,8.2-3.4c0,0,0,0,0,0c0.6,0,1.1,0.2,1.6,0.6c0.4,0.4,0.6,1,0.6,1.6l0,28.6
								c0,0.6-0.2,1.1-0.6,1.6C16.3,71,15.7,71.2,15.1,71.2z M15.1,68.8L15.1,68.8C15.1,68.8,15.1,68.8,15.1,68.8L15.1,68.8z
								 M15,40.6c-5,0.1-9,4.2-9,9.2l0,9.8c0,2.5,1,4.8,2.7,6.5c1.7,1.7,3.9,2.6,6.3,2.7L15,40.6z"/>
						</g>
					</g>
				</g>
			</g>
			<g>
				<g>
					<g>
						<g>
							<path class="st0" d="M109.7,39.5L109.7,39.5c-0.5,0-1,0.4-1,1l0,28.6c0,0.5,0.4,1,1,1h0c5.8,0,10.4-4.7,10.4-10.4l0-9.8
								C120.1,44.2,115.4,39.6,109.7,39.5z"/>
						</g>
					</g>
				</g>
				<g>
					<g>
						<g>
							<path class="st1" d="M109.6,70.4C109.6,70.4,109.6,70.4,109.6,70.4c-0.3,0-0.6-0.1-0.9-0.4c-0.2-0.2-0.4-0.5-0.4-0.9l0-28.6
								c0-0.7,0.5-1.2,1.2-1.2c0,0,0,0,0,0c2.8,0,5.5,1.1,7.5,3.1c2,2,3.1,4.7,3.1,7.5l0,9.8C120.3,65.6,115.5,70.4,109.6,70.4z
								 M109.7,39.8c-0.4,0-0.8,0.3-0.8,0.8l0,28.6c0,0.2,0.1,0.4,0.2,0.5c0.1,0.1,0.3,0.2,0.5,0.2c0,0,0,0,0,0
								c5.6,0,10.2-4.6,10.2-10.2l0-9.8c0-2.7-1.1-5.3-3-7.2C115,40.8,112.4,39.8,109.7,39.8C109.7,39.8,109.7,39.8,109.7,39.8z"/>
						</g>
					</g>
				</g>
			</g>
			<g>
				<g>
					<g>
						<g>
							<path class="st17" d="M108.6,61.2l0,7.9c0,0.5,0.4,1,1,1c3,0,5.7-1.3,7.7-3.3c1.7-1.9,2.8-4.3,2.8-7.1l0-4.1
								c-1.6,3.6-5.3,6.1-9.5,6.1l-1,0C109.1,61.7,108.8,61.5,108.6,61.2z"/>
						</g>
					</g>
				</g>
			</g>
			<g>
				<g>
					<g>
						<g>
							<path class="st1" d="M109.6,71.4C109.6,71.4,109.6,71.4,109.6,71.4c-0.6,0-1.2-0.2-1.6-0.6c-0.4-0.4-0.6-1-0.6-1.6l0-28.6
								c0-1.2,1-2.2,2.2-2.2c0,0,0,0,0,0l0,0c3.1,0,6,1.2,8.2,3.4c2.2,2.2,3.4,5.1,3.4,8.2l0,9.8c0,3.1-1.2,6-3.4,8.2
								C115.7,70.2,112.7,71.4,109.6,71.4z M109.9,40.8l0,28.2c5-0.1,9-4.2,9-9.2l0-9.8c0-2.5-1-4.8-2.7-6.5
								C114.5,41.8,112.3,40.8,109.9,40.8z"/>
						</g>
					</g>
				</g>
			</g>
			<g>
				<g>
					<g>
						<g>
							<circle class="st0" cx="62.4" cy="54.8" r="48.8"/>
						</g>
					</g>
				</g>
				<g>
					<g>
						<g>
							<path class="st1" d="M62.3,103.8c-5.4,0-10.7-0.9-15.8-2.6c-6-2.1-11.5-5.2-16.3-9.4c-4.8-4.2-8.7-9.2-11.6-14.8
								c-3-5.8-4.7-12.2-5.2-18.8c-0.5-6.6,0.4-13.1,2.5-19.3c2.1-6,5.2-11.5,9.4-16.3c4.2-4.8,9.2-8.7,14.8-11.6
								c5.8-3,12.2-4.7,18.8-5.2c6.6-0.5,13.1,0.4,19.3,2.5c6,2.1,11.5,5.2,16.3,9.4c4.8,4.2,8.7,9.2,11.6,14.8
								c3,5.8,4.7,12.2,5.2,18.8c0.5,6.6-0.4,13.1-2.5,19.3c-2.1,6-5.2,11.5-9.4,16.3c-4.2,4.8-9.2,8.7-14.8,11.6
								c-5.8,3-12.2,4.7-18.8,5.2C64.6,103.7,63.5,103.8,62.3,103.8z M62.4,6.2c-1.1,0-2.3,0-3.4,0.1c-12.9,0.9-24.8,6.8-33.3,16.6
								S13.1,45.2,14,58.1c1.8,25.6,23.2,45.2,48.4,45.2c1.1,0,2.3,0,3.4-0.1c26.7-1.9,46.9-25.1,45.1-51.8
								C109.1,25.8,87.7,6.2,62.4,6.2z"/>
						</g>
					</g>
				</g>
			</g>
			<g>
				<g>
					<g>
						<g>
							<path class="st17" d="M13.7,51.4c-0.2,2.2-0.2,4.5,0,6.8c1.9,26.9,25.2,47.1,52,45.3c26.9-1.9,47.1-25.2,45.3-52
								c-0.1-0.8-0.1-1.5-0.2-2.3C109.2,73,90.2,92.7,65.6,94.4C39.5,96.2,16.7,77.1,13.7,51.4z"/>
						</g>
					</g>
				</g>
			</g>
			<g>
				<g>
					<g>
						<g>
							<path class="st1" d="M62.3,104.8c-5.5,0-10.9-0.9-16.1-2.7c-6.1-2.1-11.7-5.3-16.6-9.6c-4.9-4.3-8.9-9.3-11.8-15.1
								c-3-6-4.8-12.4-5.3-19.1c-0.5-6.7,0.4-13.4,2.6-19.7c2.1-6.1,5.3-11.7,9.6-16.6c4.3-4.9,9.3-8.9,15.1-11.8
								c6-3,12.4-4.8,19.1-5.3c6.7-0.5,13.4,0.4,19.7,2.6c6.1,2.1,11.7,5.3,16.6,9.6c4.9,4.3,8.9,9.3,11.8,15.1
								c3,6,4.8,12.4,5.3,19.1c0.5,6.7-0.4,13.4-2.6,19.7c-2.1,6.1-5.3,11.7-9.6,16.6c-4.3,4.9-9.3,8.9-15.1,11.8
								c-6,3-12.4,4.8-19.1,5.3C64.7,104.7,63.5,104.8,62.3,104.8z M62.4,7.2c-1.1,0-2.2,0-3.3,0.1C46.4,8.2,34.9,14,26.5,23.6
								C18.2,33.1,14.1,45.4,15,58.1c1.7,25,22.7,44.3,47.4,44.3c1.1,0,2.2,0,3.3-0.1c26.2-1.8,46-24.6,44.1-50.7
								C108.1,26.4,87.2,7.2,62.4,7.2z"/>
						</g>
					</g>
				</g>
			</g>
			<g>
				<g>
					<g>
						<g>
							<path class="st7" d="M14,59.4c0.5,9.5,4.1,18.2,9.8,25.2c4.3,5.3,21.1,14,41.2,13.1c18.7-0.8,35.1-11.7,38.8-17.4
								c4.9-7.6,7.5-16.6,7-26.2c-1.4-25.2-23.6-34.5-50.3-33C33.7,22.5,12.6,34.2,14,59.4z"/>
						</g>
					</g>
				</g>
			</g>
			<g>
				<g>
					<g>
						<g>
							<path class="st1" d="M62,99c-10.2,0-18.6-2.3-24-4.4c-6.8-2.6-12.7-6.1-15.2-9.2c-6.1-7.5-9.5-16.5-10-25.9
								c-0.3-6.3,0.7-12,3-17c2.2-4.7,5.6-8.8,10.1-12.1c8.2-6.1,20.1-9.7,34.4-10.5c14.3-0.8,26.5,1.5,35.4,6.7
								c4.8,2.8,8.7,6.5,11.4,10.9c2.9,4.7,4.5,10.3,4.9,16.6c0.5,9.5-2,18.8-7.2,26.9c-2.1,3.3-7.7,7.6-14.2,11
								c-5.7,2.9-14.8,6.5-25.5,7C64,99,63,99,62,99z M15.2,59.3c0.5,9,3.8,17.5,9.5,24.5c3.8,4.7,20,13.5,40.2,12.6
								c10.3-0.5,19-3.9,24.5-6.8c7-3.6,11.7-7.7,13.3-10.1c4.9-7.7,7.3-16.5,6.8-25.4c-0.6-11.5-5.7-20.1-15.1-25.5
								c-8.4-4.9-20.2-7.1-34-6.4c-13.8,0.8-25.3,4.2-33.1,10C18.7,38.8,14.6,47.8,15.2,59.3z"/>
						</g>
					</g>
				</g>
			</g>
			<g class="st2">
				<g>
					<g>
						<g>
							<path class="st1" d="M23.5,34.6c-5.6,6-8.7,13.9-8.1,24c0.5,9.5,4.1,18.2,9.8,25.2c4.3,5.3,21.1,14,41.2,13.1
								c7.1-0.3,13.9-2.1,19.8-4.5c-24.8,0.6-45.3-10.1-50.6-16.7c-7.2-8.9-11.8-19.9-12.4-32C23,40.6,23.1,37.5,23.5,34.6z"/>
						</g>
					</g>
				</g>
			</g>
			<g>
				<g>
					<g>
						<g>
							<path class="st1" d="M16.9,38.3c-0.3,0-0.6-0.1-0.9-0.4c-0.4-0.4-0.4-1.1-0.1-1.5c2-3.2,4.6-6.1,7.7-8.7
								c3-2.5,6.5-4.7,10.4-6.6c3.8-1.8,8-3.2,12.4-4.3c4.4-1,9.1-1.7,13.9-2c4.9-0.3,9.7-0.1,14.2,0.5c4.6,0.6,8.9,1.6,12.8,3
								c4,1.5,7.7,3.3,11,5.6c3.3,2.3,6.2,5.1,8.6,8.2c0.4,0.5,0.4,1.2-0.1,1.7c-0.5,0.5-1.3,0.4-1.7-0.1l0.9-0.8l-0.9,0.8l0,0
								l0-0.1c-8.7-11.4-24.9-17.4-44.5-16.3C41.1,18.3,25.6,25.7,18,37.7l-0.1,0.1l-0.1,0.1C17.5,38.2,17.2,38.3,16.9,38.3z"/>
						</g>
					</g>
				</g>
			</g>
			<g>
				<g>
					<g>
						<g>
							<path class="st0" d="M138.6,79.3c-0.8,17.2-18.6,34.4-40.8,39.2c-0.7,0.1-1.4,0.3-2.1,0.4L86,105.6l-3.7-5
								c0,0,4.5-1.3,9.7-4.6c1.7-1.1,3.5-2.5,5.2-4.1c4.5-4.2,8.2-8.5,11.3-12.7c0,0,0,0,0,0c5.1-7,8.6-13.8,11.3-19.8
								c3.1-6.8,12.8-4.6,7.6,8.4C127.3,67.8,139,71.9,138.6,79.3z"/>
						</g>
					</g>
				</g>
			</g>
			<g>
				<g>
					<g>
						<g>
							<path class="st17" d="M138.6,79.3c-0.8,17.2-18.6,34.4-40.8,39.2c-0.7,0.1-1.4,0.3-2.1,0.4c0,0-5.1-2.8-5.1-3.8
								c0-1.6,2.6-1.1,5.5-1.4c17-1.6,39.3-19.9,42.4-35.7C138.6,78.5,138.6,78.9,138.6,79.3z"/>
						</g>
					</g>
				</g>
			</g>
			<g>
				<g>
					<g>
						<g>
							<path class="st1" d="M82.1,100.2l2.1-1.2c0.7-0.4,1.4-0.8,2.1-1.2c0.7-0.4,1.4-0.8,2.1-1.2l0.5-0.3l0.5-0.3
								c0.3-0.2,0.7-0.4,1-0.6c1.3-0.9,2.6-1.8,3.8-2.8c0.2-0.1,0.3-0.2,0.5-0.4c0.2-0.1,0.3-0.2,0.5-0.4l0.4-0.4l0.4-0.4
								c0.1-0.1,0.1-0.1,0.2-0.2l0.2-0.2l0.4-0.4l0.9-0.8c0.6-0.5,1.2-1.1,1.7-1.7l0.8-0.9c0.3-0.3,0.5-0.6,0.8-0.9
								c1.1-1.2,2.1-2.4,3.2-3.6c2.1-2.5,4-5.1,5.7-7.8c1.8-2.7,3.4-5.5,4.9-8.3l0.6-1.1c0.2-0.4,0.4-0.7,0.6-1.1l0.5-1.1
								c0.1-0.2,0.2-0.4,0.3-0.5l0.3-0.5l0.5-1.1c0.2-0.4,0.3-0.7,0.5-1.1l0.3-0.6l0.1-0.3l0.2-0.3c0.2-0.4,0.5-0.8,0.7-1.2
								c0.6-0.8,1.2-1.5,2.1-2c0.4-0.3,0.9-0.5,1.4-0.6c0.5-0.2,1-0.3,1.5-0.3c0.5,0,1.1,0,1.6,0.2c0.5,0.2,1,0.4,1.5,0.7
								c0.4,0.3,0.8,0.7,1.1,1.1c0.3,0.4,0.5,0.9,0.7,1.3c0.2,0.5,0.3,0.9,0.4,1.4c0.1,0.5,0.1,0.9,0.2,1.4c0,0.5,0,0.9,0,1.4l0,0.2
								l0,0.2l0,0.3l0,0.3l0,0.2l0,0.2c-0.3,1.7-0.8,3.4-1.4,5l-0.7-1.6l0.2,0.1l0.2,0.1l0.3,0.1c0.2,0.1,0.4,0.2,0.6,0.2
								c0.4,0.2,0.8,0.3,1.2,0.5c0.8,0.4,1.5,0.8,2.3,1.2c1.5,0.9,2.9,1.9,4.2,3.2c0.6,0.6,1.2,1.3,1.7,2.1c0.5,0.8,0.9,1.7,1.2,2.6
								c0.1,0.5,0.2,0.9,0.3,1.4c0,0.1,0,0.2,0,0.4l0,0.4c0,0.1,0,0.2,0,0.4c0,0.1,0,0.1,0,0.2l0,0.2c0,0.9-0.1,1.7-0.3,2.6
								c-0.5,3.4-1.6,6.7-3.2,9.8c-0.4,0.8-0.8,1.5-1.2,2.3c-0.2,0.4-0.4,0.7-0.7,1.1l-0.3,0.5l-0.2,0.3l-0.2,0.3l-0.4,0.5l-0.4,0.5
								l-0.2,0.3l-0.2,0.3l-0.4,0.5l-0.4,0.5l-0.2,0.3l-0.2,0.2l-0.4,0.5l-0.4,0.5c-2.2,2.6-4.6,5-7.3,7.1c-1.3,1.1-2.7,2.1-4.1,3
								c-1.4,0.9-2.8,1.8-4.3,2.7c-1.5,0.8-3,1.6-4.5,2.3c-1.5,0.7-3.1,1.4-4.7,2c-1.6,0.6-3.2,1.1-4.9,1.4c-0.2,0-0.4,0.1-0.6,0.1
								c-0.2,0-0.4,0.1-0.6,0.1c-0.4,0.1-0.8,0.1-1.3,0.1c-0.8,0.1-1.7,0.1-2.6,0c-0.2,0-0.4-0.2-0.4-0.5c0-0.1,0.1-0.3,0.2-0.3l0,0
								c0.4-0.2,0.8-0.4,1.2-0.5c0.4-0.2,0.8-0.3,1.2-0.5c0.4-0.2,0.8-0.3,1.2-0.4c0.2-0.1,0.4-0.1,0.6-0.2c0.2-0.1,0.4-0.1,0.6-0.2
								l4.6-1.6c1.5-0.5,3.1-1.1,4.5-1.8c1.5-0.7,2.9-1.4,4.4-2.2c1.4-0.8,2.8-1.6,4.2-2.5c1.3-0.9,2.7-1.9,3.9-2.9
								c2.5-2,4.9-4.3,7-6.8l0.4-0.5l0.4-0.5l0.2-0.2l0.2-0.2l0.4-0.5l0.4-0.5l0.2-0.2l0.2-0.2l0.3-0.5l0.3-0.5l0.2-0.3l0.2-0.3
								l0.3-0.5c0.2-0.3,0.4-0.7,0.6-1c0.4-0.7,0.8-1.4,1.1-2.1c1.4-2.9,2.5-5.9,2.9-9.1c0.1-0.8,0.2-1.6,0.2-2.4l0-0.1
								c0,0,0-0.1,0-0.1l0-0.3l0-0.3l0-0.3c0-0.3-0.1-0.7-0.2-1c-0.4-1.3-1.2-2.6-2.3-3.6c-1.1-1.1-2.4-2-3.7-2.8
								c-0.7-0.4-1.4-0.8-2.1-1.1c-0.4-0.2-0.7-0.3-1.1-0.5c-0.2-0.1-0.4-0.2-0.5-0.2l-0.3-0.1L127,69l-0.1,0l-1.2-0.4l0.5-1.2
								c0.6-1.5,1-2.9,1.3-4.4l0-0.1l0-0.1l0-0.3l0-0.3l0-0.1l0-0.1c0-0.4,0-0.7,0-1.1c0-0.1,0-0.2,0-0.3l0-0.3l0-0.3
								c0-0.1,0-0.2,0-0.3c-0.1-0.3-0.2-0.7-0.3-1c-0.1-0.3-0.3-0.6-0.4-0.8c-0.2-0.2-0.4-0.4-0.6-0.6c-0.2-0.2-0.5-0.3-0.7-0.4
								c-0.3-0.1-0.5-0.1-0.8-0.1c-0.6,0-1.2,0.2-1.7,0.6c-0.5,0.3-1,0.8-1.4,1.4c-0.2,0.3-0.4,0.6-0.5,0.9l-0.1,0.2l-0.1,0.3
								l-0.3,0.6c-0.2,0.4-0.3,0.7-0.5,1.1l-0.5,1.1l-0.3,0.6c-0.1,0.2-0.2,0.4-0.3,0.6l-0.5,1.1c-0.2,0.4-0.4,0.7-0.6,1.1l-0.6,1.1
								c-1.5,2.9-3.2,5.8-5,8.5c-1.8,2.8-3.8,5.4-5.9,8c-1.1,1.3-2.1,2.5-3.3,3.7l-0.4,0.5c-0.1,0.2-0.3,0.3-0.4,0.5l-0.9,0.9
								c-0.6,0.6-1.1,1.2-1.7,1.8l-0.9,0.9l-0.4,0.4L98,92.8c-0.1,0.1-0.2,0.1-0.2,0.2l-0.5,0.4l-0.5,0.4c-0.2,0.1-0.3,0.3-0.5,0.4
								c-0.2,0.1-0.3,0.3-0.5,0.4c-0.7,0.5-1.3,1-2,1.5l-0.5,0.4c-0.2,0.1-0.4,0.2-0.5,0.3c-0.2,0.1-0.4,0.2-0.5,0.3
								c-0.2,0.1-0.4,0.2-0.5,0.3c-0.7,0.4-1.5,0.8-2.2,1.2c-0.8,0.4-1.5,0.7-2.3,1c-0.8,0.3-1.6,0.6-2.4,0.8
								c-0.4,0.1-0.8,0.2-1.2,0.3c-0.2,0-0.4,0.1-0.6,0.1c-0.1,0-0.2,0-0.3,0c-0.1,0-0.2,0-0.3,0c-0.2,0-0.4-0.1-0.4-0.4
								C81.9,100.4,82,100.3,82.1,100.2L82.1,100.2z"/>
						</g>
					</g>
				</g>
			</g>
			<g>
				<g>
					<g>
						<g>
							<path class="st17" d="M124.1,72.2c-4.9,1.8-6.3,6.7-5.8,8.3c1.7,6,14.9,14.9,18.9,3.6c0,0-3,0.2-3.6-2"/>
						</g>
					</g>
				</g>
			</g>
			<g>
				<g>
					<g>
						<g>
							<path class="st0" d="M124.1,72.2c-1,2.6-3.1,2.8-3.6,6c-0.9,6.1,14.9,13.6,17.8,3.3c0,0-0.8-0.7-1.4-2.8"/>
						</g>
					</g>
				</g>
			</g>
			<g class="st2">
				<g>
					<g>
						<g>
							<polygon class="st1" points="124.1,72.2 124.1,72.2 124.1,72.2 							"/>
						</g>
					</g>
				</g>
			</g>
			<g>
				<g>
					<g>
						<g>
							<path class="st17" d="M138.2,82.2c-3.4,9.4-18.5,2-17.6-4c0.4-2.5,1.7-3.2,2.7-4.6c-0.1,0.4-0.3,0.8-0.3,1.3
								C122.2,80,132.8,86,138.2,82.2z"/>
						</g>
					</g>
				</g>
			</g>
			<g class="st2">
				<g>
					<g>
						<g>
							<path class="st1" d="M124.1,72.2c-0.2,0.6-0.5,1-0.8,1.4C123.5,73.1,123.8,72.6,124.1,72.2z"/>
						</g>
					</g>
				</g>
			</g>
			<g>
				<g>
					<g>
						<g>
							<path class="st1" d="M124.5,72.4c-0.1,0.8-0.5,1.6-0.9,2.3l-0.2,0.2l-0.1,0.1l-0.1,0.1l-0.3,0.5c-0.2,0.3-0.4,0.6-0.5,0.8
								c-0.1,0.1-0.1,0.3-0.2,0.4c0,0.1-0.1,0.1-0.1,0.2c0,0.1-0.1,0.1-0.1,0.2c0,0.1,0,0.1-0.1,0.2c0,0,0,0.1,0,0.1l0,0.1
								c0,0.1-0.1,0.3-0.1,0.4c0,0.2,0,0.3,0,0.4c0,0.1,0,0.1,0,0.2c0,0.1,0,0.1,0,0.2c0,0.2,0.1,0.5,0.2,0.8
								c0.1,0.3,0.2,0.5,0.4,0.8c0.1,0.3,0.3,0.5,0.5,0.8c0.4,0.5,0.8,1,1.4,1.4c0.5,0.4,1.1,0.8,1.7,1.2c0.3,0.2,0.6,0.3,0.9,0.5
								c0.3,0.1,0.6,0.3,0.9,0.4c0.3,0.1,0.6,0.2,1,0.3c0.3,0.1,0.7,0.2,1,0.2c0.1,0,0.2,0,0.2,0l0.2,0c0.2,0,0.3,0,0.5,0.1
								c0.3,0,0.7,0,1,0c0.3,0,0.6,0,1-0.1c0.3,0,0.6-0.1,0.9-0.2c0.3-0.1,0.6-0.2,0.9-0.3c0.3-0.1,0.5-0.3,0.8-0.5
								c1-0.7,1.6-1.8,2-3.1l0-0.1c0,0,0-0.1,0-0.1c0-0.1,0-0.1,0.1-0.2c0-0.2,0.1-0.3,0.1-0.5c0-0.3,0.1-0.6,0.1-1
								c0-0.6-0.1-1.3-0.2-1.9l0,0c-0.2-0.6,0.2-1.3,0.8-1.5s1.3,0.2,1.5,0.8c0.2,0.9,0.3,1.7,0.3,2.6c0,0.4,0,0.8-0.1,1.3
								c0,0.2-0.1,0.4-0.1,0.6c0,0.1,0,0.2-0.1,0.3c0,0.1,0,0.1,0,0.2l0,0.1l-0.1,0.3c0,0.1-0.1,0.2-0.1,0.3c0,0.1-0.1,0.2-0.1,0.3
								l-0.1,0.3l-0.1,0.1c0,0,0,0.1-0.1,0.1l-0.1,0.3c-0.1,0.1-0.1,0.2-0.2,0.3c-0.1,0.1-0.1,0.2-0.2,0.3l-0.2,0.3
								c-0.1,0.1-0.1,0.2-0.2,0.3c-0.1,0.2-0.3,0.3-0.4,0.5c-0.3,0.3-0.6,0.6-1,0.9c-0.4,0.3-0.7,0.5-1.1,0.7
								c-0.4,0.2-0.8,0.4-1.2,0.5c-0.4,0.1-0.8,0.2-1.3,0.3c-0.4,0.1-0.9,0.1-1.3,0.1c-0.4,0-0.8,0-1.3-0.1c-0.2,0-0.4-0.1-0.6-0.1
								l-0.3-0.1c-0.1,0-0.2,0-0.3-0.1c-0.4-0.1-0.8-0.2-1.2-0.3c-0.4-0.1-0.8-0.2-1.2-0.4c-0.4-0.1-0.8-0.3-1.1-0.5
								c-0.4-0.2-0.7-0.4-1.1-0.6c-0.4-0.2-0.7-0.4-1-0.6c-0.2-0.1-0.3-0.2-0.5-0.4c-0.1-0.1-0.2-0.1-0.2-0.2l-0.2-0.2
								c-0.6-0.5-1.3-1.1-1.8-1.7c-0.3-0.3-0.5-0.7-0.8-1.1l-0.2-0.3l-0.2-0.3c-0.1-0.2-0.2-0.4-0.3-0.7c-0.1-0.4-0.2-0.9-0.3-1.4
								c0-0.1,0-0.2,0-0.4c0-0.1,0-0.3,0-0.4c0-0.3,0.1-0.5,0.1-0.7c0-0.1,0-0.2,0.1-0.3l0.1-0.3l0.1-0.2c0-0.1,0-0.1,0.1-0.2
								c0-0.1,0.1-0.2,0.1-0.3c0-0.1,0.1-0.2,0.2-0.3c0.1-0.1,0.1-0.2,0.2-0.3c0.1-0.1,0.1-0.2,0.2-0.3c0,0,0.1-0.1,0.1-0.1l0.1-0.1
								c0.1-0.1,0.1-0.2,0.2-0.3l0.2-0.2c0.1-0.1,0.1-0.1,0.2-0.2c0.1-0.1,0.1-0.1,0.2-0.2l0.2-0.2l0.2-0.2l0.4-0.3
								c0.1-0.1,0.1-0.1,0.2-0.2c0,0,0.1-0.1,0.1-0.1l0.1-0.1l0.2-0.2c0.1-0.1,0.1-0.1,0.2-0.2l0.1-0.1c0,0,0.1-0.1,0.1-0.1l0.2-0.2
								c0.1-0.1,0.2-0.3,0.3-0.4l0,0c0.1-0.2,0.4-0.2,0.6-0.1C124.5,72.1,124.5,72.2,124.5,72.4z"/>
						</g>
					</g>
				</g>
			</g>
			<g>
				<g>
					<g>
						<g>
							<path class="st17" d="M108.4,79.2c-3,8.5-8.3,15.9-15.2,21.5c-2.2,1.8-4.7,3.5-7.2,4.9l-3.7-5c0,0,4.5-1.3,9.7-4.6
								c1.7-1.1,3.5-2.5,5.2-4.1C101.6,87.6,105.3,83.4,108.4,79.2z"/>
						</g>
					</g>
				</g>
			</g>
			<g>
				<g class="st5">
					<g>
						<g>
							<g>
								
									<ellipse transform="matrix(0.1915 -0.9815 0.9815 0.1915 18.9192 141.26)" class="st0" cx="95.2" cy="59.1" rx="7.8" ry="5.7"/>
							</g>
						</g>
					</g>
				</g>
				<g class="st5">
					<g>
						<g>
							<g>
								
									<ellipse transform="matrix(0.3253 -0.9456 0.9456 0.3253 -11.0467 133.553)" class="st0" cx="88.1" cy="74.5" rx="3.6" ry="3.1"/>
							</g>
						</g>
					</g>
				</g>
			</g>
			<g class="st5">
				<g>
					<g>
						<g>
							<path class="st0" d="M24.8,73.9c0,0-7.9-23.8,4.8-33.5s31.3-10.1,30.8-8.9c0,0-20.4,5.3-28.2,21.7
								C26.3,65.8,24.8,73.9,24.8,73.9z"/>
						</g>
					</g>
				</g>
			</g>
			<g>
				<g>
					<g>
						<g>
							<path class="st1" d="M128.5,102.1C128.5,102.1,128.5,102.1,128.5,102.1c-4.8-0.2-8.9-1.3-12.5-3.3c-2.8-1.6-5.2-3.9-7.1-6.6
								c-3.2-4.7-3.9-9.3-3.9-9.4c-0.1-0.5,0.3-0.9,0.8-1c0.5-0.1,0.9,0.3,1,0.8c0,0.1,0.7,4.4,3.7,8.7c4,5.8,10.1,8.9,18.1,9.2
								c0.5,0,0.9,0.4,0.9,0.9C129.4,101.7,129,102.1,128.5,102.1z"/>
						</g>
					</g>
				</g>
			</g>
		</g>
		<g>
			<polygon class="st3" points="65.1,143.8 59.5,136.5 59.5,133.5 64.8,126.5 72.6,126.5 65.7,134.8 73.1,143.8 			"/>
			<path class="st1" d="M70.2,127.6l-6,7.1l6.5,7.9h-5.1l-5.1-6.5v-2.3l4.7-6.2H70.2 M75.1,125.4h-4.9h-4.9h-1.1l-0.7,0.9l-4.7,6.2
				l-0.5,0.6v0.8v2.3v0.8l0.5,0.6l5.1,6.5l0.7,0.9h1.1h5.1h4.8l-3.1-3.7l-5.3-6.5l4.8-5.7L75.1,125.4L75.1,125.4z"/>
		</g>
		<g>
			<polygon class="st15" points="39.5,143.8 46.5,135.5 39,126.5 47,126.5 52.7,133.8 52.7,136.9 47.4,143.8 			"/>
			<path class="st1" d="M46.5,127.6l5.1,6.5v2.3l-4.7,6.2h-4.9l6-7.1l-6.5-7.9H46.5 M47.6,125.4h-1.1h-5.1h-4.8l3.1,3.7l5.3,6.5
				l-4.8,5.7l-3.1,3.7h4.9h4.9h1.1l0.7-0.9l4.7-6.2l0.5-0.6v-0.8v-2.3v-0.8l-0.5-0.6l-5.1-6.5L47.6,125.4L47.6,125.4z"/>
		</g>
		<g>
			<polygon class="st11" points="55.8,149.6 47.5,156.5 47.5,148.7 54.5,143.4 57.6,143.4 64.8,149 64.8,157 			"/>
			<path class="st1" d="M57.2,144.5l6.5,5.1v5.1l-7.9-6.5l-7.1,6v-4.9l6.2-4.7H57.2 M58,142.2h-0.8h-2.3h-0.8l-0.6,0.5l-6.2,4.7
				l-0.9,0.7v1.1v4.9v4.9l3.7-3.1l5.7-4.8l6.5,5.3l3.7,3.1v-4.8v-5.1v-1.1l-0.9-0.7l-6.5-5.1L58,142.2L58,142.2z"/>
		</g>
		<g>
			<polygon class="st16" points="54.5,127 47.2,121.3 47.2,113.3 56.3,120.8 64.5,113.8 64.5,121.7 57.6,127 			"/>
			<path class="st1" d="M48.4,115.7l7.9,6.5l7.1-6v4.9l-6.2,4.7h-2.3l-6.5-5.1V115.7 M46.1,110.9v4.8v5.1v1.1l0.9,0.7l6.5,5.1
				l0.6,0.5h0.8h2.3H58l0.6-0.5l6.2-4.7l0.9-0.7v-1.1v-4.9v-4.9l-3.7,3.1l-5.7,4.8l-6.5-5.3L46.1,110.9L46.1,110.9z"/>
		</g>
		<g>
			<g>
				<path class="st0" d="M56.2,35.5c-3.4-4.5-8.8-7.1-14.1-6.8c-5.4,0.3-10.5,3.5-13.4,8.4c-3.4,5.7-3.5,13.4-0.3,19.2
					c3.2,5.8,9.5,9.4,15.7,9s12.1-4.9,14.5-11.1C61,48.1,60,40.6,56.2,35.5z"/>
				<path class="st25" d="M55.7,35.9c0,0-0.3-0.3-0.8-0.9c-0.3-0.3-0.6-0.7-1-1c-0.4-0.3-0.9-0.8-1.5-1.2c-1.2-0.8-2.7-1.7-4.6-2.3
					c-1.9-0.5-4.1-0.9-6.5-0.6c-0.3,0-0.6,0.1-1,0.1c-0.3,0.1-0.6,0.1-0.9,0.2c-0.3,0.1-0.6,0.1-0.9,0.2c-0.3,0.1-0.6,0.2-0.9,0.3
					c-0.3,0.1-0.6,0.2-0.9,0.3c-0.3,0.2-0.6,0.3-0.9,0.5c-0.6,0.3-1.2,0.7-1.8,1.1c-2.3,1.6-4.3,3.9-5.7,6.8
					c-1.3,2.8-1.9,6.1-1.7,9.4c0.2,3.3,1.2,6.7,3.3,9.4c2,2.7,4.9,4.8,8.1,5.9c3.2,1.1,6.6,1.2,9.6,0.1c3-1,5.6-2.9,7.4-5.1l0.7-0.8
					c0.2-0.3,0.4-0.6,0.6-0.9c0.4-0.6,0.8-1.2,1-1.8c0.3-0.6,0.6-1.2,0.8-1.8c0.2-0.6,0.4-1.3,0.6-1.9c0.5-2.4,0.6-4.8,0.4-6.8
					c-0.1-1-0.4-2-0.5-2.8c-0.3-0.8-0.5-1.6-0.8-2.3c-0.3-0.7-0.6-1.2-0.8-1.8c-0.2-0.5-0.5-0.9-0.7-1.2
					C55.9,36.2,55.7,35.9,55.7,35.9L55.7,35.9z M56.7,35.1c0,0,0.2,0.4,0.7,1.1c0.2,0.4,0.5,0.8,0.8,1.3c0.3,0.5,0.6,1.2,0.9,1.9
					c0.3,0.7,0.5,1.6,0.8,2.5c0.2,0.9,0.4,1.9,0.5,3c0.2,2.2,0.1,4.6-0.5,7.3c-0.2,0.6-0.4,1.2-0.6,1.9c-0.2,0.7-0.6,1.3-0.9,2
					c-0.3,0.7-0.7,1.3-1.1,1.9c-0.2,0.3-0.4,0.6-0.6,0.9l-0.8,0.9c-2,2.3-4.7,4.3-7.9,5.4c-3.2,1.1-6.9,1-10.1-0.2
					c-3.3-1.2-6.2-3.4-8.4-6.2c-2.1-2.8-3.5-6.2-3.9-9.7c-0.4-3.5-0.1-7,1.2-10.3c1.2-3.1,3.4-5.9,5.9-7.8c0.6-0.5,1.3-0.9,2-1.3
					c0.3-0.2,0.7-0.4,1-0.6c0.4-0.1,0.7-0.3,1.1-0.4c0.4-0.1,0.7-0.3,1.1-0.4c0.4-0.1,0.8-0.2,1.1-0.3c0.4-0.1,0.7-0.2,1.1-0.3
					c0.3,0,0.7-0.1,1-0.1c0.3,0,0.6-0.1,1-0.1c0.2,0,0.1,0,0.1,0c0.1,0,0.2,0,0.2,0l0.3,0l0.5,0c0.7,0,1.3,0,2,0.2
					c0.6,0.1,1.3,0.2,1.8,0.4c0.6,0.2,1.1,0.4,1.7,0.6c2.1,0.9,3.7,2,4.9,3.1c0.6,0.5,1.1,1.1,1.5,1.5c0.5,0.4,0.7,0.9,1,1.2
					C56.4,34.7,56.7,35.1,56.7,35.1L56.7,35.1z"/>
			</g>
			<path class="st26" d="M58.2,53.8c0.6-1.5,0.9-3,1.1-4.7c-0.2,0.8-0.6,1.8-0.9,2.5C56,57.9,50.2,62.5,44,63
				c-6.2,0.4-12.5-3.2-15.7-9.2c-0.8-1.4-1.3-2.9-1.7-4.5c0.3,2.4,0.8,4.7,1.9,6.8c3.1,5.7,9.4,9.4,15.4,9
				C50,64.6,55.8,59.9,58.2,53.8z"/>
			<path class="st25" d="M52.9,50.8c0,3.7-3,6.8-6.8,6.8c-3.7,0-6.8-3-6.8-6.8c0-3.7,3-6.8,6.8-6.8C49.8,44,52.9,47,52.9,50.8z"/>
			<path class="st0" d="M46.3,48.3c0,1.2-1,2.2-2.2,2.2c-1.2,0-2.2-1-2.2-2.2c0-1.2,1-2.2,2.2-2.2C45.3,46.1,46.3,47.1,46.3,48.3z"
				/>
			<g>
				<path class="st0" d="M68.9,35.5c3.4-4.5,8.8-7.1,14.1-6.8c5.4,0.3,10.5,3.5,13.4,8.4c3.4,5.7,3.5,13.4,0.3,19.2
					c-3.2,5.8-9.5,9.4-15.7,9c-6.2-0.4-12.1-4.9-14.5-11.1C64.1,48.1,65.1,40.6,68.9,35.5z"/>
				<path class="st25" d="M68.4,35.1c0,0,0.3-0.4,0.8-1c0.2-0.3,0.5-0.7,1-1.2c0.5-0.4,0.9-1,1.6-1.5c1.2-1,2.9-2.1,4.9-2.9
					c2.1-0.8,4.7-1.2,7.4-0.9c0.3,0,0.6,0.1,1,0.1c0.3,0.1,0.7,0.2,1.1,0.3c0.4,0.1,0.7,0.2,1.1,0.3c0.3,0.1,0.7,0.3,1,0.4
					c0.3,0.1,0.7,0.3,1,0.4c0.3,0.2,0.7,0.4,1,0.6c0.7,0.4,1.3,0.8,1.9,1.3c2.5,1.9,4.7,4.5,5.9,7.6c1.3,3.2,1.7,6.7,1.3,10.2
					c-0.4,3.5-1.7,6.9-3.8,9.7c-2.2,2.8-5.1,4.9-8.4,6c-3.3,1.1-6.8,1.1-10,0.1c-3.2-1-5.8-2.9-7.8-5.2l-0.8-0.8
					c-0.2-0.3-0.4-0.6-0.6-0.9c-0.4-0.6-0.9-1.2-1.1-1.9c-0.3-0.7-0.7-1.2-0.9-1.9c-0.2-0.6-0.4-1.3-0.6-1.9
					c-0.6-2.6-0.8-5.1-0.6-7.2c0.1-1.1,0.3-2.1,0.5-3c0.3-0.9,0.5-1.7,0.8-2.5c0.3-0.7,0.6-1.3,0.9-1.9c0.2-0.6,0.6-1,0.8-1.3
					C68.2,35.5,68.4,35.1,68.4,35.1z M69.4,35.9c0,0.1-0.3,0.4-0.7,1c-0.2,0.3-0.5,0.7-0.7,1.2c-0.2,0.5-0.5,1.1-0.8,1.8
					c-0.2,0.7-0.5,1.5-0.7,2.3C66.3,43.1,66,44,65.9,45c-0.2,2-0.1,4.4,0.5,6.8c0.2,0.6,0.4,1.2,0.6,1.9c0.2,0.6,0.5,1.2,0.8,1.8
					c0.3,0.6,0.7,1.2,1.1,1.8c0.2,0.3,0.4,0.6,0.6,0.9l0.7,0.8c1.9,2.2,4.4,4,7.4,5c3,1,6.3,1,9.5,0c3.1-1,6.1-3,8.1-5.7
					c2.1-2.7,3.1-6.1,3.3-9.4c0.2-3.3-0.5-6.6-1.8-9.3c-1.4-2.9-3.4-5-5.7-6.6c-0.6-0.4-1.1-0.8-1.7-1.1c-0.3-0.2-0.6-0.3-0.9-0.5
					c-0.3-0.1-0.6-0.2-0.9-0.3c-0.3-0.1-0.6-0.2-0.9-0.3c-0.3-0.1-0.6-0.1-0.9-0.2c-0.3-0.1-0.5-0.1-0.8-0.2c-0.3,0-0.7-0.1-1-0.1
					c-0.3,0-0.6-0.1-1-0.1c0.2,0,0,0,0.1,0c-0.1,0-0.2,0-0.2,0l-0.2,0l-0.4,0c-0.6,0-1.1,0-1.6,0.1c-1.1,0.1-2.1,0.4-3,0.5
					c-1.9,0.6-3.4,1.3-4.6,2.1c-0.6,0.3-1.1,0.8-1.5,1.1c-0.4,0.3-0.8,0.7-1.1,1C69.7,35.5,69.4,35.8,69.4,35.9z"/>
			</g>
			<path class="st25" d="M85.8,50.8c0,3.7-3,6.8-6.8,6.8c-3.7,0-6.8-3-6.8-6.8c0-3.7,3-6.8,6.8-6.8C82.8,44,85.8,47,85.8,50.8z"/>
			<path class="st0" d="M79.2,48.3c0,1.2-1,2.2-2.2,2.2c-1.2,0-2.2-1-2.2-2.2c0-1.2,1-2.2,2.2-2.2C78.2,46.1,79.2,47.1,79.2,48.3z"
				/>
			<path class="st26" d="M67.2,54c-0.6-1.5-0.9-3-1.1-4.6c0.2,0.7,0.4,1.5,0.7,2.2c2.4,6.2,8.2,10.6,14.3,11
				c6.2,0.4,12.4-3.2,15.5-8.9c0.7-1.4,1.3-2.9,1.7-4.4c-0.3,2.4-0.9,5-2,7c-3,5.6-9.2,8.8-15.2,8.4C75.2,64.2,69.5,59.9,67.2,54z"
				/>
		</g>
	</g>
</g>
</svg>
