<?xml version="1.0" encoding="utf-8"?>
<!-- Generator: Adobe Illustrator 27.2.0, SVG Export Plug-In . SVG Version: 6.00 Build 0)  -->
<svg version="1.1" xmlns="http://www.w3.org/2000/svg" xmlns:xlink="http://www.w3.org/1999/xlink" x="0px" y="0px"
	 viewBox="0 0 202.2 203" style="enable-background:new 0 0 202.2 203;" xml:space="preserve">
<style type="text/css">
	.st0{fill:#FFFFFF;}
	.st1{fill:#15264B;}
	.st2{opacity:0.35;}
	.st3{fill:#274B8B;}
	.st4{fill:#0F3747;}
	.st5{opacity:0.5;}
	.st6{opacity:0.4;}
	.st7{fill:#183E75;}
	.st8{opacity:0.2;}
	.st9{fill:#38276B;}
	.st10{fill:#44AC34;}
	.st11{fill:#00983A;}
	.st12{fill:#FCF8FB;}
	.st13{opacity:0.7;}
	.st14{fill:#94613F;}
	.st15{fill:#FFD100;}
	.st16{fill:#EA5B0C;}
	.st17{fill:#D3D5ED;}
	.st18{fill:#D8D8D8;}
	.st19{fill:#121A28;}
	.st20{fill:#E5E1D4;}
	.st21{opacity:0.25;}
	.st22{opacity:0.6;}
	.st23{fill:#FFD346;}
	.st24{fill:#FFDA36;}
	.st25{fill:#1E1E1C;}
	.st26{fill:#EEEDED;}
	.st27{opacity:0.3;}
	.st28{fill:#407FC1;}
	.st29{fill:#B0B3B1;}
	.st30{opacity:0.8;}
	.st31{fill:#E5E5E4;}
	.st32{fill:#BCBCBB;}
	.st33{fill:#E72D47;}
	.st34{fill:#F7A710;}
	.st35{fill:#F2EFEC;}
	.st36{fill:#F9B116;}
	.st37{fill:#F38F1C;}
	.st38{fill:none;stroke:#2A3856;stroke-width:2.1963;stroke-linecap:round;stroke-miterlimit:10;}
	.st39{fill:#D66C12;}
	.st40{fill:#FFD767;}
	.st41{fill:#F7A83D;}
	.st42{fill:#FECF70;}
	.st43{fill:#FFED91;}
	.st44{opacity:0.41;}
	.st45{opacity:0.26;}
	.st46{fill:none;}
	.st47{fill:#261E26;}
	.st48{fill:#E30613;}
	.st49{fill:#E9E8E8;}
	.st50{fill:#4A92CF;}
	.st51{fill:#386EB5;}
	.st52{fill:#B6B6B7;}
	.st53{fill:#DDDDDD;}
	.st54{fill:#FDC423;}
	.st55{fill:#E2A415;}
	.st56{fill:#F9B044;}
	.st57{fill:#EB5759;}
	.st58{fill:#E5201F;}
	.st59{fill:none;stroke:#FFFFFF;stroke-width:2.3076;stroke-linecap:round;stroke-miterlimit:10;}
	.st60{fill:#EDC5D6;}
	.st61{fill:#4A153F;}
	.st62{fill:#E9C8D2;}
	.st63{fill:#DFB0BE;}
	.st64{fill:#D6D6EA;}
	.st65{fill:#BDBDE0;}
	.st66{fill:#232323;}
	.st67{fill:#A7ABCC;}
	.st68{fill:#EDCCA9;}
	.st69{fill:#492311;}
	.st70{fill:#2A3856;}
	.st71{fill:#05646E;}
	.st72{fill:#F28D70;}
	.st73{fill:#BEC5CA;}
	.st74{fill:#54767A;}
</style>
<g id="Fondo">
</g>
<g id="Grafica">
</g>
<g id="Informazioni">
	<g>
		<g>
			<g>
				<g>
					<path class="st0" d="M91.3,96.1c-2.2-0.2-4.3-0.5-6.4-1c-12.5-2.8-24.1-1.1-28,4.2c-1.2,1.7-1.7,3-1.3,4
						c0.8,2.4,5.8,3.7,12.1,5.4c3.1,0.8,7.1,2.3,11.6,3.9c3.8,1.4,7.8,2.9,12,4.2C96,106.1,92,97.5,91.3,96.1z"/>
				</g>
			</g>
			<g>
				<g>
					<path class="st0" d="M114.4,115.5l1.8-10.5l-4,10.8c0.6-0.2-3.1,5.5-2.3,5.5c1.9-0.1,3.8,21.7,4.8,22.3
						c2.1,1.2,27.1-1,27.2,0.6l18.7-22.1c-0.9-2.9-2.7-8-5.2-11.9c-0.1-0.2-0.1-0.5,0.1-0.6c0.2-0.1,0.5-0.1,0.6,0.1
						c2.8,4.3,4.7,10.1,5.5,12.8c0.5-0.4,1-0.8,1.6-1.1c0.8-0.4,1.6-0.7,2.5-1c0.8-0.2,1.7-0.4,2.6-0.4c0.4,0,0.9,0,1.3-0.1
						c0.4,0,0.9,0,1.3,0c-0.4,0-0.9,0-1.3,0.1c-0.4,0.1-0.9,0.1-1.3,0.2c-0.8,0.1-1.7,0.4-2.5,0.6c-0.8,0.3-1.6,0.7-2.3,1.1
						c-0.3,0.2-0.7,0.5-1,0.8c-0.2,0.2-0.5,0.5-0.7,0.7c0,0.1,0.1,0.2,0.1,0.3c2,0.4,14.9,3.5,17.5,16.8c6.3-5.2,7.7-15.3,3.6-28.1
						C179,99.3,167.2,93,165.4,92.1c-12.6,8.3-26.5,8.9-36,7.9c-9.6-1-16.7-3.8-17.7-4.2c-1.1,0.1-10.1,1.2-19.4,0.5
						c1.1,2.4,4.2,10.8-0.1,20.8c6.6,2.1,13.1,3.7,18.5,3.7c0,0,0.1,0,0.1,0C111.1,119.8,112,117,114.4,115.5z"/>
				</g>
			</g>
			<g>
				<g>
					<path class="st0" d="M129.8,185c1.2-2.6,3.8-3.9,4.9-4.3c-0.3-1.1-1.3-4.1-2-9.8c-12-4-22.4,2.1-24.2,3.2c1,2.5,2,4.4,2.4,5.1
						c0.6-0.2,1.2-0.3,1.8-0.3c0.7-0.1,1.5-0.1,2.2-0.1c0.7,0,1.5,0.1,2.2,0.2c0.7,0.1,1.4,0.3,2.1,0.5c-0.7-0.1-1.4-0.2-2.1-0.3
						c-0.7,0-1.4,0-2.1,0c-0.7,0.1-1.4,0.2-2.1,0.3c-0.6,0.1-1.3,0.3-1.9,0.6c-0.5,0.6-4.3,5.2-3,9.4c1.1,3.5,15.8,2.4,22.1,1.5
						C129.1,188.8,129,186.8,129.8,185z"/>
				</g>
			</g>
			<g>
				<g>
					<path class="st0" d="M132.5,169.9c-0.1-0.9-0.2-1.8-0.3-2.8c-0.9-9,9.7-16.1,12-17.5c-0.5-0.8-0.9-1.6-1.2-2.6
						c-0.2-0.8-0.3-1.7-0.4-2.6l-26.6,0.2c-0.1,0-0.1,0.1-0.2,0.2c0.4,0.9,0.8,1.8,1.2,2.7c0.5,1,1,1.9,1.5,2.9
						c1,1.9,2.2,3.8,3.6,5.4c-1.5-1.6-2.8-3.4-3.9-5.2c-0.6-0.9-1.1-1.9-1.7-2.8c-0.4-0.8-0.9-1.6-1.3-2.4
						c-2.7,2.5-10.2,9.8-9.9,16.2c0.2,3.9,1.5,8.2,2.9,11.7C110.4,171.9,120.6,166.1,132.5,169.9z"/>
				</g>
			</g>
			<g>
				<g>
					<path class="st0" d="M164,169.2C164,169.2,164,169.2,164,169.2c0-0.1,0-0.1-0.1-0.2c-15.2-5.2-28.3,2.2-30.2,3.3
						c0.7,4.6,1.5,7.2,1.8,8.1c0.9-0.1,1.8-0.2,2.6-0.3c1,0,2,0,3,0.1c1,0.1,2,0.4,2.9,0.7c0.9,0.4,1.8,0.9,2.6,1.5
						c-0.8-0.6-1.7-1-2.7-1.3c-1-0.3-1.9-0.4-2.9-0.5c-1,0-2,0-2.9,0.1c-1,0.1-1.9,0.3-2.9,0.5c-0.1,0-3.5,1.2-4.8,4
						c-0.7,1.6-0.6,3.5,0.3,5.7c2.4,0.5,23.4,4.2,33.7-3C164.8,186.4,165.9,175.2,164,169.2C164,169.2,164,169.2,164,169.2z"/>
				</g>
			</g>
			<g>
				<g>
					<path class="st0" d="M182.8,138.2c-0.9,1.3-2,2.4-3.3,3.3c0,0.1-0.1,0.1-0.2,0.1c-1.1,0.8-2.3,1.5-3.7,2
						c-4.7,1.8-8.1,2.7-10.7,3.3c-3.3,0.8-5,1.2-6.1,2.9c-1.4,2.1-5.7,3.5-9.3,2.9c-2-0.3-3.7-1.2-4.8-2.5
						c-1.9,1.2-12.5,8.2-11.6,16.7c0.1,1.3,0.3,2.5,0.4,3.6l0.1,0.8c2.8-1.6,15.6-8.2,30.3-3.3c0-0.3-0.1-0.6-0.1-0.9
						c-0.1-0.7-0.2-1.3-0.4-2c-0.3-1.3-0.7-2.7-1.2-3.9c0.7,1.2,1.2,2.5,1.6,3.8c0.2,0.7,0.4,1.3,0.6,2c0.1,0.3,0.2,0.7,0.3,1
						c2.3-1,12.1-5.7,16.9-15.3C181.7,151.9,182.9,143.1,182.8,138.2z"/>
				</g>
			</g>
			<g>
				<g>
					<path class="st0" d="M184.5,88.5c0,0,0,0.1-0.1,0.1c0,0,0,0,0,0l-6.6,5.6l5.7-6l-11.6-1l-5.7,4.3c2.8,1.5,13.7,7.9,17.7,20.5
						c3.3,10.4,3,19-0.3,24.9c0.4,4.4-0.8,13.7-1.1,15.7c2.6,0.8,6.8,0,9.9-1.9c3.3-2,5.6-12.8,3.4-32.4
						C193.7,100.3,186.1,90.4,184.5,88.5z"/>
				</g>
			</g>
			<g>
				<g>
					<path class="st0" d="M149.7,152c3.5,0.6,7.3-0.9,8.4-2.5c1.3-2,3.3-2.5,6.7-3.3c2.5-0.6,5.9-1.4,10.5-3.2
						c1.2-0.5,2.4-1.1,3.4-1.8c-2.4-13.6-15.8-16.4-17-16.6c-6,1.7-10.7,4.9-13.8,8.7c0,0.1-0.1,0.1-0.2,0.2c-1.2,1.4-2.1,3-2.8,4.5
						c0,0,0,0.1,0,0.1c-1.3,3-1.7,6.1-1,8.8C144.8,150.5,147.6,151.6,149.7,152z"/>
				</g>
			</g>
			<g>
				<g>
					<path class="st46" d="M152,149.1c5.6-1.3,4.5-4.2,9.5-5.4c3.5-0.9,10.6-3.8,15.6-7.7c-4.3-9.2-14.4-11.3-15.4-11.5
						c-6,1.7-10.7,4.9-13.8,8.7c0,0.1-0.1,0.1-0.2,0.2c-1.2,1.4-2.1,3-2.8,4.5c0,0,0,0.1,0,0.1c-1,2.2-1.5,4.5-1.4,6.6
						C144.3,145.8,147.2,150.2,152,149.1z"/>
				</g>
			</g>
			<g>
				<g>
					<polyline class="st46" points="117.1,135.5 117.1,137.3 124.6,137.3 					"/>
				</g>
			</g>
			<g>
				<g>
					<path class="st46" d="M160.3,158.9c0.8-0.5,2.2,0,4.2,2.8c2,2.8,12-8,12.7-10.9c0.7-2.9,0.3-4.6,0.3-4.6s-6,2.7-11.2,3.6
						c-5.2,0.9-10.2,2.9-10.5,2.7c-0.1-0.1-0.4,0-1,0c-1.6,0.5-3.5,0.7-5.2,0.4c-2-0.3-3.7-1.2-4.8-2.5c-1.9,1.2-12.5,8.2-11.6,16.7
						c0.1,1.3,0.3,2.5,0.4,3.6l0.1,0.8c2.6-1.5,13.8-7.3,27.2-4.2C160.4,162.7,160,159,160.3,158.9z"/>
				</g>
			</g>
			<g>
				<g>
					<path class="st46" d="M131.1,186c0,0,0,1.9,2.7,2.6c2.7,0.6,24.9,1.2,27.3-2.3c1.5-2,0.6-11-0.1-18.2
						c-13.9-3.4-25.5,3.1-27.2,4.2c0.7,4.6,1.5,7.2,1.8,8.1c0.9-0.1,1.8-0.2,2.6-0.3c1,0,2,0,3,0.1c1,0.1,2,0.4,2.9,0.7
						c0.9,0.4,1.8,0.9,2.6,1.5c-0.8-0.6-1.7-1-2.7-1.3c-1-0.3-1.9-0.4-2.9-0.5c-1,0-2,0-2.9,0.1c-1,0.1-1.9,0.3-2.9,0.5
						c-0.1,0-3.5,1.2-4.8,4c0,0.1,0,0.1-0.1,0.2C130.8,185.5,131.1,186,131.1,186z"/>
				</g>
			</g>
			<g>
				<g>
					<path class="st46" d="M93.5,113.3c9.6,3,15.6,2.9,17.4,1.6c2-1.4,4.2-5.8,4.8-7l-0.4,7.1c0.6-0.2,1.3-0.4,2.1-0.5
						c1.9-0.1,29-1.3,30-0.7c2.1,1.2,2.7,6.5,2.9,8.1h10.3c-0.9-2.9-2.7-8-5.2-11.9c-0.1-0.2-0.1-0.5,0.1-0.6c0.2-0.1,0.4-0.1,0.5,0
						c0-0.3-0.1-0.5-0.1-0.5s4.9,2.8,8.4,11.2l0.1,0.5c0.4-0.2,0.8-0.3,1.2-0.4c0.8-0.2,1.7-0.4,2.6-0.4c0.4,0,0.9,0,1.3-0.1
						c0.4,0,0.9,0,1.3,0c-0.4,0-0.9,0-1.3,0.1c-0.4,0.1-0.9,0.1-1.3,0.2c-0.8,0.1-1.7,0.4-2.5,0.6c-0.8,0.3-1.6,0.7-2.3,1.1
						c-0.3,0.2-0.7,0.5-1,0.8c-0.2,0.2-0.5,0.5-0.7,0.7c0,0.1,0.1,0.2,0.1,0.3c1.8,0.4,11.4,2.7,15.8,11.8c1.7-1.4,3.1-2.9,4-4.5
						c3.3-6.1,1.7-17.4,1.7-17.4s0,0,0,0c-0.1-0.4-0.2-0.8-0.4-1.2C179,99.3,167.2,93,165.4,92.1c-1.3,0.9-2.7,1.7-4,2.4
						c-2.6,2.8-11.7,11.4-27,10.5c-14.2-0.9-18.6-5.9-19.8-8.2c-1.5-0.5-2.5-0.9-2.9-1c-1.1,0.1-10.1,1.2-19.4,0.5
						C93.3,98.3,95.8,105,93.5,113.3z"/>
				</g>
			</g>
			<g>
				<g>
					<path class="st46" d="M60.6,101.6c1,2.6,8.6,1.8,23.7,8.2c3.1,1.3,5.9,2.4,8.4,3.2c2.4-8.9-0.7-15.8-1.3-16.9
						c-2.2-0.2-4.3-0.5-6.4-1c-6.5-1.5-12.7-1.7-17.8-0.9C67.1,94.3,59.6,99.1,60.6,101.6z"/>
				</g>
			</g>
			<g>
				<g>
					<path class="st46" d="M114.9,179.2c-0.7,0.1-1.4,0.2-2.1,0.3c-0.6,0.1-1.3,0.3-1.9,0.6c-0.3,0.4-1.9,2.3-2.8,4.7
						c0.1,0,0.2-0.1,0.2,0c0,0,0.8,2.8,2.5,3.4c1.6,0.6,13.8,0.5,15.1,0c1.3-0.5,5.3-2.1,3.8-11.2c-0.5-2.8-0.8-5.1-0.9-7
						c-10.3-1.8-18.7,3.2-20.3,4.2c1,2.5,2,4.4,2.4,5.1c0.6-0.2,1.2-0.3,1.8-0.3c0.7-0.1,1.5-0.1,2.2-0.1c0.7,0,1.5,0.1,2.2,0.2
						c0.7,0.1,1.4,0.3,2.1,0.5c-0.7-0.1-1.4-0.2-2.1-0.3C116.3,179.1,115.6,179.1,114.9,179.2z"/>
				</g>
			</g>
			<g>
				<g>
					<path class="st46" d="M128.7,169c-0.2-4,0.4-6.4,1.5-8.8c1.7-3.7,8.3-6.3,8.4-6.3c2.3-2.2,4.6-3.7,5.6-4.3
						c-0.5-0.8-0.9-1.6-1.2-2.6c0,0,0-0.1,0-0.1c-3.5,0-26.1,0-26.3,0c0.1,0.2,0.2,0.4,0.3,0.6c0.5,1,1,1.9,1.5,2.9
						c1,1.9,2.2,3.8,3.6,5.4c-1.5-1.6-2.8-3.4-3.9-5.2c-0.6-0.9-1.1-1.9-1.7-2.8c-0.4-0.8-0.9-1.6-1.3-2.4
						c-2.7,2.5-10.2,9.8-9.9,16.2c0.2,3.9,1.5,8.2,2.9,11.7C110.2,172,118.5,167.3,128.7,169z"/>
				</g>
			</g>
			<g>
				<g>
					<path class="st46" d="M195.7,118.4c-2.1-18.1-9.7-28-11.2-29.9c0,0,0,0.1-0.1,0.1c0,0,0,0,0,0l-6.6,5.6l5.7-6l-11.6-1l-5.7,4.3
						c2.8,1.5,13.7,7.9,17.7,20.5c0.5,1.5,0.9,3,1.2,4.5l0,0c0,0,3.8,8.8,9,8.7c0,0,1.6,11-0.6,20.3c-0.8,3.5-2.4,5.4-4.1,6.5
						c1-0.4,2-0.8,3-1.4C195.6,148.7,198,137.9,195.7,118.4z"/>
				</g>
			</g>
			<g>
				<g>
					<path class="st46" d="M145,135.2c0,0.3,0,0.5,0,0.7c0.1-0.3,0.3-0.5,0.5-0.8c-0.1,0-0.1,0.1-0.1,0.1L145,135.2z"/>
				</g>
			</g>
			<g class="st21">
				<g>
					<path class="st3" d="M60.6,101.6c-1-2.6,6.5-7.3,6.7-7.4c-4.7,0.8-8.4,2.5-10.3,5.1c-1.2,1.7-1.7,3-1.3,4
						c0.8,2.4,5.8,3.7,12.1,5.4c3.1,0.8,7.1,2.2,11.6,3.9c28.7,10.6,28.9,7.2,33,8.5c0.6-1.3-0.3-1.7,0.1-3
						c-2.6-0.8-25.2-7-28.3-8.3C69.2,103.4,61.6,104.2,60.6,101.6z"/>
				</g>
			</g>
			<g class="st8">
				<g>
					<path class="st3" d="M143,146.9c-0.2-0.8-0.3-1.6-0.3-2.5l-26.6,0.2c-0.1,0-0.1,0.1-0.2,0.2c0.3,0.7,0.6,1.3,0.9,2
						C116.9,146.9,139.6,146.9,143,146.9z"/>
				</g>
			</g>
			<g class="st8">
				<g>
					<path class="st3" d="M112.4,127.1l-0.6-1c0.3,6.4,0.9,13.5,1.6,14.5c1.1,1.6,2.3,2.8,2.7,3.2l27.5,0.8c0-0.5,0.1-2.7,0-4.1
						c-5.9,0-25.5-0.1-26.8-0.7C114.1,138.5,112.4,127.1,112.4,127.1z"/>
				</g>
			</g>
			<g class="st8">
				<g>
					<path class="st3" d="M130.3,160.2c-1.1,2.4-1.7,4.9-1.5,8.8c1.2,0.2,2.5,0.5,3.8,0.9c-0.1-0.9-0.2-1.8-0.3-2.8
						c-0.6-5.4,3-10,6.4-13.3C138.6,153.9,132,156.5,130.3,160.2z"/>
				</g>
			</g>
			<g class="st8">
				<g>
					<path class="st3" d="M125.9,188.2c-1.3,0.5-13.5,0.6-15.1,0c-1.6-0.6-2.5-3.4-2.5-3.4c-0.1,0-0.2,0-0.2,0
						c-0.5,1.5-0.7,3.1-0.2,4.7c1.1,3.5,15.8,2.4,22.1,1.5c-0.9-2.2-0.9-4.3-0.1-6c1.2-2.6,3.8-3.9,4.9-4.3c-0.3-1.1-1.3-4.1-2-9.8
						c-1.3-0.4-2.6-0.8-3.9-1c0.1,2,0.4,4.3,0.9,7C131.3,186.1,127.2,187.6,125.9,188.2z"/>
				</g>
			</g>
			<g class="st8">
				<g>
					<path class="st3" d="M164.6,188c0.2-1.6,1.3-12.8-0.5-18.8c0,0,0,0,0,0c0,0,0,0,0,0c0-0.1,0-0.1-0.1-0.2c-1-0.3-2-0.6-3-0.9
						c0.8,7.1,1.6,16.1,0.1,18.2c-2.5,3.4-24.7,2.9-27.3,2.3c-2.7-0.6-2.7-2.6-2.7-2.6s-0.3-0.5-0.5-0.5c-0.7,1.6-0.5,3.4,0.3,5.5
						C133.3,191.4,154.3,195.2,164.6,188z"/>
				</g>
			</g>
			<g class="st8">
				<g>
					<path class="st3" d="M181.6,152.8c0.1-0.9,1.3-9.7,1.2-14.6c-0.9,1.3-2,2.4-3.3,3.3c0,0.1-0.1,0.1-0.2,0.1
						c-1.1,0.8-2.3,1.5-3.7,2c-4.7,1.8-8.1,2.7-10.7,3.3c-3.3,0.8-5,1.2-6.1,2.9c-0.7,1.1-2.2,2-4,2.5c0.5,0,0.9-0.1,1,0
						c0.2,0.2,5.3-1.8,10.5-2.7c5.2-0.9,11.2-3.6,11.2-3.6s0.4,1.7-0.3,4.6c-0.7,2.9-10.7,13.7-12.7,10.9c-2-2.8-3.4-3.3-4.2-2.8
						c-0.3,0.2,0.1,3.8,0.6,8.4c1,0.2,2,0.5,3,0.8c0-0.3-0.1-0.6-0.1-0.9c-0.1-0.7-0.2-1.3-0.4-2c-0.3-1.3-0.7-2.7-1.2-3.9
						c0.7,1.2,1.2,2.5,1.6,3.8c0.2,0.7,0.4,1.3,0.6,2c0.1,0.3,0.2,0.7,0.3,1C167,167.1,176.8,162.4,181.6,152.8z"/>
				</g>
			</g>
			<g class="st8">
				<g>
					<path class="st3" d="M181.8,131c-0.9,1.6-2.3,3.1-4,4.5c0.7,1.5,1.3,3.2,1.7,5c6.1-5,7.6-14.6,4-26.9c0,0,0,0,0,0
						S185.1,124.9,181.8,131z"/>
				</g>
			</g>
			<g class="st8">
				<g>
					<path class="st3" d="M158.1,149.4c1.3-2,3.3-2.5,6.7-3.3c2.5-0.6,5.9-1.4,10.5-3.2c1.2-0.5,2.4-1.1,3.4-1.8
						c-0.3-1.9-0.9-3.6-1.6-5.1c-5,3.8-12.1,6.8-15.6,7.7c-4.9,1.3-3.8,4.2-9.5,5.4c-4.9,1.1-7.8-3.3-8.5-4.5c0,0.8,0.1,1.5,0.3,2.3
						c1,3.7,3.7,4.8,5.8,5.2C153.2,152.5,157,151.1,158.1,149.4z"/>
				</g>
			</g>
			<g class="st21">
				<g>
					<polygon class="st47" points="114.1,95.7 114.1,95.7 114.1,95.7 					"/>
				</g>
			</g>
			<g class="st8">
				<g>
					<path class="st3" d="M134.4,105c15.3,0.9,24.4-7.6,27-10.5c-11.5,6-23.5,6.4-31.9,5.5c-6.4-0.7-11.7-2.2-14.8-3.2
						C115.9,99.1,120.3,104.1,134.4,105z"/>
				</g>
			</g>
			<g class="st8">
				<g>
					<path class="st3" d="M193.5,145.6c2.2-9.4,0.6-20.3,0.6-20.3c-5.2,0.1-9-8.7-9-8.7l0,0c1.9,8.4,1.3,15.4-1.6,20.3
						c0.4,4.4-0.8,13.7-1.1,15.7c1.8,0.6,4.5,0.3,6.9-0.5C191.1,151.1,192.7,149.1,193.5,145.6z"/>
				</g>
			</g>
			<g class="st21">
				<g>
					<path class="st3" d="M156,109.1c0,0,0,0.2,0.1,0.5c0,0,0.1,0.1,0.1,0.1c2.8,4.3,4.7,10.1,5.5,12.8c0.5-0.4,1-0.8,1.6-1.1
						c0.4-0.2,0.8-0.4,1.3-0.6l-0.1-0.5C160.9,111.9,156,109.1,156,109.1z"/>
				</g>
			</g>
			<g>
				<g>
					<g>
						<path class="st1" d="M145.7,194.1c-7.4,0-13.9-1.2-15.2-1.4c-1.1,0.1-5.9,0.8-10.9,0.9c-8.3,0.2-12.5-0.9-13.4-3.5
							c-1.4-4.4,1.6-8.8,2.9-10.4c-1.3-2.5-5.2-10.8-5.5-17.9c-0.3-7.2,7.6-15,10.5-17.6c-0.6-0.6-1.3-1.5-2-2.5
							c-1.3-1.9-1.9-13.2-2.1-19.2c-9.2-0.2-21.3-4.6-31.1-8.2c-4.6-1.7-8.5-3.1-11.5-3.9c-7.8-2.1-12.2-3.4-13.3-6.5
							c-0.6-1.6,0-3.4,1.6-5.6c5.1-6.8,18.6-7.3,29.8-4.8c11.5,2.6,26.1,0.6,26.3,0.6c0.2,0,0.5,0,0.7,0.1c0.1,0,7.3,3.1,17.4,4.2
							c9.2,1,22.8,0.4,35-7.7c0.4-0.2,0.8-0.3,1.2-0.1c0.6,0.3,14.1,6.6,18.8,21.4c3.3,10.5,3.1,19.3-0.3,25.3
							c0.3,5-1.1,15.5-1.2,15.9c0,0.1-0.1,0.3-0.1,0.4c-4.8,9.7-14.1,14.5-17.3,15.9c1.8,6.9,0.4,18.5,0.4,19c0,0.4-0.2,0.7-0.5,0.9
							C160.4,193.1,152.6,194.1,145.7,194.1z M130.6,190.1c0.1,0,0.2,0,0.3,0c0.2,0,22.3,4.4,33-2.6c0.3-2.5,1.2-13.1-0.7-18.5
							c-0.2-0.6,0.1-1.4,0.7-1.6c0.1,0,11.6-4.4,16.9-14.9c0.2-1.2,1-7.3,1.1-12c-1.6,1.7-3.6,3-6,3.9c-4.7,1.8-8.2,2.7-10.8,3.3
							c-3.4,0.8-4.8,1.2-5.6,2.6c-1.5,2.4-6.2,3.9-10.1,3.3c-3.7-0.6-6.3-2.9-7.2-6.4c-2.1-8.2,4.7-19.8,17.8-24
							c-0.7-2.5-2.6-8.4-5.4-12.6c-0.4-0.6-0.2-1.4,0.4-1.7c0.6-0.4,1.4-0.2,1.7,0.4c3.8,5.8,5.9,14.2,6,14.5
							c0.2,0.7-0.2,1.3-0.9,1.5c-5.8,1.6-10.8,4.9-14.1,9.3c-3,4-4.2,8.4-3.2,12c0.8,3.2,3.3,4.3,5.1,4.6c3.4,0.5,6.8-0.9,7.6-2.2
							c1.5-2.3,3.7-2.8,7.2-3.7c2.5-0.6,5.9-1.4,10.4-3.2c9.2-3.6,12-14.6,7.3-29.5c-3.8-12-14.2-18.1-16.8-19.5
							c-12.7,8.2-26.6,8.8-36.1,7.7c-9.3-1-16.2-3.6-17.7-4.2c-2.4,0.3-15.8,1.8-26.9-0.7c-12-2.7-23.5-1.1-27.2,3.9
							c-1.1,1.4-1.5,2.5-1.2,3.2c0.7,1.9,6,3.4,11.6,4.9c3.1,0.8,7.1,2.3,11.7,4c10.1,3.7,22.6,8.2,31.5,8.1c0,0,0,0,0,0
							c0.7,0,1.2,0.5,1.3,1.2c0.3,8.4,0.9,17.8,1.7,19c1.2,1.8,2.7,3.1,2.7,3.1c0.3,0.2,0.4,0.6,0.4,1c0,0.4-0.2,0.7-0.5,0.9
							c-0.1,0.1-10.9,9-10.6,16.4c0.3,7.7,5.6,17.4,5.6,17.5c0.3,0.5,0.2,1.1-0.2,1.5c0,0-4.2,4.6-2.9,8.7c0.1,0.2,0.9,2.1,10.9,1.8
							c5.5-0.2,10.8-0.9,10.9-0.9C130.4,190.1,130.5,190.1,130.6,190.1z"/>
					</g>
				</g>
				<g>
					<g>
						<path class="st1" d="M91.6,118.2c-0.1,0-0.2,0-0.3-0.1c-0.4-0.2-0.6-0.7-0.4-1.1c5.2-11.5,0.1-20.8,0-20.9
							c-0.2-0.4-0.1-0.9,0.3-1.1c0.4-0.2,0.9-0.1,1.1,0.3c0.2,0.4,5.6,10.1,0,22.4C92.2,118,91.9,118.2,91.6,118.2z"/>
					</g>
				</g>
				<g>
					<g>
						<path class="st1" d="M179.2,142.1c-0.4,0-0.8-0.3-0.8-0.7c-2.3-14.1-16.2-16.5-16.8-16.5c-0.5-0.1-0.8-0.5-0.7-1
							c0.1-0.5,0.5-0.8,1-0.7c0.2,0,15.7,2.6,18.2,17.9c0.1,0.5-0.2,0.9-0.7,1C179.2,142.1,179.2,142.1,179.2,142.1z"/>
					</g>
				</g>
				<g>
					<g>
						<path class="st1" d="M160.4,122.5c2.7-2.6,6.9-3.1,10.5-2.6c-0.4,0.1-0.9,0.1-1.3,0.2c-2.7,0.5-5.4,1.6-7.1,3.8
							C161.6,125.4,159.4,124,160.4,122.5L160.4,122.5z"/>
					</g>
				</g>
				<g>
					<g>
						<path class="st1" d="M115.9,145.5c-0.7,0-1.3-0.6-1.3-1.2c0-0.7,0.6-1.3,1.2-1.3l27.2-0.2c0,0,0,0,0,0c0.7,0,1.3,0.6,1.3,1.2
							c0,0.7-0.6,1.3-1.2,1.3L115.9,145.5C115.9,145.5,115.9,145.5,115.9,145.5z"/>
					</g>
				</g>
				<g>
					<g>
						<path class="st1" d="M130.6,192.6c-0.5,0-0.9-0.3-1.2-0.7c-1.2-2.7-1.3-5.1-0.3-7.2c1.1-2.4,3.3-3.8,4.6-4.4
							c-0.5-1.9-1.6-6-2.3-13c-1.1-10.4,12.2-18.2,12.8-18.6c0.6-0.3,1.4-0.1,1.7,0.5c0.3,0.6,0.1,1.4-0.5,1.7
							c-0.2,0.1-12.5,7.4-11.5,16.1c1,9.4,2.5,13.5,2.5,13.5c0.1,0.3,0.1,0.7,0,1c-0.2,0.3-0.4,0.6-0.8,0.7c0,0-3.1,1-4.3,3.6
							c-0.6,1.5-0.5,3.2,0.4,5.2c0.3,0.6,0,1.4-0.6,1.7C130.9,192.6,130.7,192.6,130.6,192.6z"/>
					</g>
				</g>
				<g>
					<g>
						<path class="st1" d="M116.5,144.2c1.5,4.1,3.1,8.1,5.6,11.7c-2.4-2.3-4.4-5-6.2-7.8c-0.6-0.9-1.2-1.9-1.8-2.9
							c-0.3-0.6-0.1-1.4,0.5-1.7C115.3,143.1,116.2,143.5,116.5,144.2L116.5,144.2z"/>
					</g>
				</g>
				<g>
					<g>
						<path class="st1" d="M110.2,178.6c3-0.7,6.2-0.3,9,0.9c-2.6-0.3-5.3,0.1-7.6,1.3c-0.1,0.1-0.3,0.2-0.4,0.2
							c-0.6,0.4-1.4,0.3-1.8-0.3C108.7,179.8,109.2,178.7,110.2,178.6L110.2,178.6z"/>
					</g>
				</g>
				<g>
					<g>
						<path class="st1" d="M134.9,179.7c2.1-0.3,4.2-0.2,6.3,0.2c1,0.2,2,0.5,3,0.9c0.9,0.4,1.8,1,2.5,1.7c-3-1.8-6.6-1.5-9.9-0.7
							c-0.4,0.1-0.9,0.3-1.3,0.4C133.8,182.7,133.1,180,134.9,179.7L134.9,179.7z"/>
					</g>
				</g>
				<g>
					<g>
						<path class="st1" d="M108,174.8c-0.3,0-0.5-0.1-0.7-0.4c-0.3-0.4-0.2-0.9,0.2-1.2c0.5-0.3,12-8.3,25.9-3.5
							c0.3,0.1,0.5,0.4,0.6,0.7l0,0.3c3.7-2,16.3-7.9,30.6-2.9c0.4,0.2,0.7,0.6,0.5,1.1c-0.2,0.4-0.6,0.7-1.1,0.5
							c-16.2-5.7-30.1,3.3-30.3,3.4c-0.2,0.2-0.5,0.2-0.8,0.1c-0.3-0.1-0.4-0.4-0.5-0.6l-0.2-1.1c-12.9-4.2-23.8,3.4-23.9,3.4
							C108.3,174.7,108.1,174.8,108,174.8z"/>
					</g>
				</g>
				<g>
					<g>
						<path class="st1" d="M184.8,154.6c-1.2,0-2.3-0.2-3.3-0.5c-0.7-0.2-1-1-0.7-1.6c0.2-0.7,1-1,1.6-0.7c2.3,0.9,6.5,0.1,9.5-1.7
							c2.1-1.3,5.5-9.6,3-31.6c-2-17.7-9.4-27.4-11-29.4l-11.7-1l-6,4.6c-0.6,0.4-1.3,0.3-1.8-0.2c-0.4-0.6-0.3-1.3,0.2-1.8l6.4-4.9
							c0.2-0.2,0.6-0.3,0.9-0.3l12.7,1.1c0.3,0,0.6,0.2,0.8,0.4c0.4,0.4,9.6,10.5,11.9,31.1c2.1,18.1,0.5,31.1-4.2,34
							C190.7,153.8,187.5,154.6,184.8,154.6z"/>
					</g>
				</g>
				<g>
					<g>
						<path class="st1" d="M185,89.2l-7.1,5l5.4-6.8c0.4-0.6,1.2-0.6,1.8-0.2C185.7,87.7,185.7,88.8,185,89.2L185,89.2z"/>
					</g>
				</g>
				<g>
					<g>
						<path class="st1" d="M163.2,169.3c0-2.7-0.2-5.4-1-8c1.6,2.3,2.7,5,3.5,7.7C166.2,170.9,163.3,171.3,163.2,169.3L163.2,169.3z
							"/>
					</g>
				</g>
			</g>
		</g>
		<g>
			<g>
				<path class="st11" d="M90,177c-1,0.2-6.4,1.5-7.8,7.7c0.5,0.4,1,0.7,1.4,1c2.8,2,5.3,3.9,7.2,5.4c1.2,1,2,1.7,2.4,2.2
					c2,0.8,5.6-0.2,7-0.7c-0.2-0.3-0.5-0.6-0.7-1c-0.3-0.4-0.6-0.7-0.9-1.1c-0.6-0.7-1.2-1.4-1.9-2.1c0.7,0.6,1.5,1.2,2.2,1.8
					c0.4,0.3,0.7,0.6,1.1,0.9c0.3,0.3,0.7,0.6,1,1c0,0.1,0.1,0.1,0.1,0.2c0.4,0,1.5-0.1,2.3-0.8c0.6-0.5,0.9-1.3,0.9-2.4
					C104.2,187.2,97.1,181.8,90,177z"/>
			</g>
		</g>
		<g>
			<g>
				<path class="st11" d="M92.5,193.9c-1.1-1.3-5.5-4.8-10.9-8.6c-0.1,0-0.1-0.1-0.1-0.1c-2.8-1.9-5.9-3.9-8.9-5.7
					c-1.4,0.7-9.7,5.3-8,14.1c5.5,1.9,11.2,3.5,14.6,3.7c6,0.3,8.4-0.4,9.2-0.8l-3.8-2.8l4.3,2.1c0.1,0.1,0.2,0.2,0.2,0.3
					c1.5-0.5,3.2-1.3,3.5-1.9c0,0-0.1-0.1-0.1-0.2C92.5,194,92.5,193.9,92.5,193.9z"/>
			</g>
		</g>
		<g>
			<g>
				<path class="st1" d="M55.7,154.7c5.7,0.9,9.2-1.8,10.7-3.5c2-2.1,2.6-4.3,2.3-5.2c0,0,0,0,0,0c0-0.1-1.8-10.9-12-14.2
					c-1.5-0.5-2.9-0.7-4.3-0.7c-2.2,0-4.2,0.6-5.8,1.9c-3,2.3-4.2,6-4.2,7.8C42.6,143.9,46,153.1,55.7,154.7z"/>
			</g>
		</g>
		<g>
			<g>
				<path class="st11" d="M51,168.3c6.3,5.3,14.2,6.6,19.7,6.7c4.8,0.1,9.4-1.2,13.2-3.9c0,0,0,0,0,0c9.1-6.3,13.3-16.3,13.9-33.4
					c0-0.2,0-0.3,0-0.5c-0.7,5.4-3.8,9.2-9.3,11.1c-1.5,0.5-2.9,0.8-4.2,0.8c-1.5,0-2.8-0.4-4-1.1c-3.5-2.3-4.1-7.6-4.2-9.2
					c0-0.4-0.4-8.7,5.8-14.1c2.9-2.5,6.2-3.4,9.3-2.3c3,1,5.2,3.5,5.9,6.8c-2.5-15.3-12.7-23.2-15.1-24.9l-0.4,1.9
					c0,0.2-0.2,0.3-0.4,0.3c0,0-0.1,0-0.1,0c-0.2,0-0.4-0.3-0.3-0.5l0.5-2.5c1.9-12.7-2.2-22.6-2.3-22.6c0-0.1,0-0.2,0-0.3
					c0.8-3-1.4-3.9-2.1-4.1c-1.6-0.5-3.2,0-3.5,1c-0.8,2.2,3,4.3,3.1,4.3c0.1,0,0.1,0.1,0.2,0.2c3.4,7.1,2.2,19.1,2.1,19.7
					c0,0,0,0,0,0c0,0,0,0,0,0l-0.8,2.8c-0.1,0.2-0.2,0.3-0.4,0.3c0,0-0.1,0-0.1,0c-0.2-0.1-0.4-0.3-0.3-0.5l0.7-2.5
					c-15.2-7.9-30.6,2.2-33.1,4l2.5,2.9c0.2,0.2,0.1,0.5-0.1,0.6c-0.1,0.1-0.2,0.1-0.3,0.1c-0.1,0-0.2-0.1-0.3-0.2l-2.8-3.3
					c0,0,0,0,0,0c0,0,0,0,0,0l-9.7-14.6c-0.1-0.1-0.1-0.2-0.1-0.3c0,0,0.1-2.8-1-4.1c-0.3-0.4-1-0.6-1.8-0.6c-0.3,0-0.7,0-1,0.1
					c-0.7,0.2-2.4,0.8-2.7,3c-0.1,0.8,0,1.4,0.5,2c1.1,1.5,3.8,1.8,3.9,1.8c0.1,0,0.3,0.1,0.3,0.2l8.5,14.8l2.5,3.5
					c0.1,0.2,0.1,0.5-0.1,0.6c-0.1,0.1-0.2,0.1-0.3,0.1c-0.1,0-0.3-0.1-0.4-0.2l-2.2-3c-8.7,12.1-7.4,25.1-4.8,33.9
					C39,155,46,164,51,168.3z M72.8,160.3c0.9,0.3,1.9,0.5,2.9,0.4c1,0,1.9-0.4,2.7-1c0.8-0.6,1.5-1.3,2.1-2.1
					c-0.3,1-0.9,1.9-1.7,2.7c-0.4,0.4-0.9,0.7-1.4,0.9c-0.5,0.2-1.1,0.3-1.6,0.4c-1.1,0.1-2.2-0.2-3.2-0.7c-1-0.5-1.8-1.1-2.5-1.9
					C70.9,159.6,71.8,160,72.8,160.3z M46.1,132.2c2-1.6,5.6-3,10.9-1.3c10.4,3.4,12.5,14.3,12.6,14.9c0.4,1.4-0.7,4-2.5,5.9
					c-1.5,1.6-4.4,4-9.1,4c-0.8,0-1.6-0.1-2.4-0.2c-10.2-1.7-13.8-11.4-13.9-14.7C41.5,138.7,42.9,134.7,46.1,132.2z"/>
			</g>
		</g>
		<g>
			<g>
				<path class="st11" d="M44,186C44,186,44,186,44,186C44,186,44,186,44,186L44,186c-0.9-0.3-1.9-0.4-2.8-0.4
					c-0.9,0-1.9,0.1-2.8,0.3c-0.2,0-0.5,0.1-0.7,0.2c-0.2,0-0.5,0.1-0.7,0.2l-0.7,0.2l-0.7,0.2c-0.5,0.2-0.9,0.4-1.3,0.6
					c-0.4,0.2-0.8,0.4-1.3,0.7c0.4-0.3,0.8-0.5,1.2-0.8c0.4-0.2,0.8-0.5,1.3-0.7l0.7-0.3l0.7-0.3c0.2-0.1,0.5-0.2,0.7-0.2
					c0.2-0.1,0.5-0.1,0.7-0.2c0.9-0.3,1.9-0.4,2.9-0.5c0.8-0.1,1.7,0,2.5,0.1c0.1-0.7,0.4-2.2,0.6-4.1c-2.5-0.7-18-4.7-21.9,6.1
					c0,0,0,0,0,0.1c0,0.7,0.1,1.3,0.2,2l0,0c0,0,0,0,0,0c0,0.3,0.7,6.3,8.7,7.2c6.8,0.8,14.6,0.1,17-3.1c0.9-1.3,1-3,0.1-5
					C47.9,187.9,45.8,186.4,44,186z"/>
			</g>
		</g>
		<g>
			<g>
				<path class="st1" d="M80.9,147.4c1.9,1.2,4.3,1.3,7.4,0.2c7.5-2.7,10.3-8.7,8.3-18c-0.7-3-2.7-5.4-5.4-6.3
					c-0.8-0.3-1.6-0.4-2.4-0.4c-2.1,0-4.2,0.9-6.1,2.6c-6,5.2-5.6,13.3-5.5,13.4c0,0,0,0,0,0C77.2,140.3,77.7,145.2,80.9,147.4z"/>
			</g>
		</g>
		<g>
			<g>
				<path class="st11" d="M71.7,178.9c-2.4-1.4-4.7-2.7-6.8-3.6c-4.7-0.8-10-2.6-14.5-6.4c-4.9-4.2-11.9-13.1-15.5-24.5
					c-1.2-0.1-6.1-0.3-11.6,1.4c-8.3,2.6-13.7,8.3-16.2,16.8c-3,10.5,0.1,16.9,3.3,20.4c3.7,4.2,9,5.9,11.2,5.8c0-0.5,0-1.1,0-1.6
					c-0.1-0.1-0.1-0.2,0-0.4c0-0.1,0-0.1,0.1-0.2c0-0.3,0-0.6,0.1-0.9c0.1-1.1,0.3-2.3,0.6-3.4c0.3-1.1,0.7-2.2,1.4-3.1
					c0.6-1,1.5-1.8,2.5-2.3c-1,0.6-1.8,1.4-2.3,2.4c-0.6,1-0.9,2-1.1,3.1c-0.2,0.8-0.3,1.7-0.3,2.5c5-9.1,19.1-5.7,22-4.9
					c0.4-5.3,0-12.9-5-15.5c-7.8-4.1-15.4-2.3-19.2,4.5c-0.1,0.2-0.4,0.3-0.6,0.2c-0.2-0.1-0.3-0.4-0.2-0.6
					c4.1-7.3,12.1-9.2,20.3-4.9c7.8,4,5.4,18.7,4.8,21.4c2,0.5,4,2,4.3,2.3c0.6,0.3,7.5,3.1,14.8,5.6
					C62.3,185,69.4,180.2,71.7,178.9z"/>
			</g>
		</g>
		<g>
			<g>
				<path class="st11" d="M71.3,175.9c-0.2,0-0.4,0-0.6,0c-1,0-2-0.1-3.1-0.2c5,2.6,10.4,6.1,13.9,8.5c1.3-5.4,5.7-7.2,7.6-7.8
					c-2-1.3-4-2.6-5.8-3.7C79.6,174.7,75.6,175.9,71.3,175.9z"/>
			</g>
		</g>
		<g>
			<g>
				<path class="st46" d="M40.3,109.5c-0.1,0.1-0.1,0.1-0.2,0.2h0.3L40.3,109.5z"/>
			</g>
		</g>
		<g>
			<g>
				<path class="st46" d="M77.7,177.5c0,0,2.2,1.3,5.1,3.4c1.9-2.9,4.7-4.1,6.2-4.6c-1.5-1-3-2-4.4-2.8
					C84.7,173.5,82.4,175.8,77.7,177.5z"/>
			</g>
		</g>
		<g>
			<g>
				<path class="st46" d="M85.4,194.1l-0.7-0.5l1.1,0.5c2.2-0.1,4.1-0.5,5.8-1.2c-1.8-1.7-5.6-4.5-9.9-7.6c-0.1,0-0.1-0.1-0.1-0.1
					c-2.8-1.9-5.9-3.9-8.9-5.7c-1.2,0.6-7.5,4.1-8.2,10.6C70.3,192,78.7,194.3,85.4,194.1z"/>
			</g>
		</g>
		<g>
			<g>
				<path class="st46" d="M43.2,111.9c0.1,0.2,0.1,0.5-0.1,0.6c-0.1,0.1-0.2,0.1-0.3,0.1c-0.1,0-0.3-0.1-0.4-0.2l-0.3-0.5
					c-4.9,6.1-7.6,16.8-8.5,21.1c0.1,1.6,0.3,3.1,0.5,4.6c0.1,0.2,13.8,32.5,37.5,32.6c17.4,0.1,23.6-16.7,25.6-25.7
					c0.2-2.2,0.4-4.5,0.5-6.9c0-0.2,0-0.3,0-0.5c-0.7,5.4-3.8,9.2-9.3,11.1c-1.5,0.5-2.9,0.8-4.2,0.8c-1.5,0-2.8-0.4-4-1.1
					c-3.5-2.3-4.1-7.6-4.2-9.2c0-0.4-0.4-8.7,5.8-14.1c2.9-2.5,6.2-3.4,9.3-2.3c1.9,0.6,3.5,1.9,4.6,3.6c0,0,0,0,0,0s0,0,0,0
					c0.6,1,1.1,2.1,1.4,3.2c-0.7-4.1-1.9-7.7-3.4-10.8c-4.4-5.9-11-11.3-12.1-12.2c-0.1,0.2-0.2,0.3-0.4,0.3c0,0-0.1,0-0.1,0
					c-0.2,0-0.4-0.3-0.3-0.5l0.5-2.5c1.9-12.7-2.2-22.6-2.3-22.6c0-0.1,0-0.2,0-0.3c0.1-0.4,0.2-0.8,0.2-1.2
					c-0.5-0.4-2.2-1.6-3.4-1.3c-1.1,0.3-1.3,1.6-1.3,2.3c0.9,0.9,1.9,1.4,2,1.4c0.1,0,0.1,0.1,0.2,0.2c3.4,7.1,2.2,19.1,2.1,19.7
					c0,0,0,0,0,0c0,0,0,0,0,0l-0.8,2.8c-0.1,0.2-0.2,0.3-0.4,0.3c0,0-0.1,0-0.1,0c-0.2-0.1-0.4-0.3-0.3-0.5l0.1-0.4
					c0,0-6-2.4-12-2.4c-8.9,0.1-17.4,5.1-19,6.1l0.9,1.1c0.2,0.2,0.1,0.5-0.1,0.6c-0.1,0.1-0.2,0.1-0.3,0.1c-0.1,0-0.2-0.1-0.3-0.2
					l-2.8-3.3c0,0,0,0,0,0c0,0,0,0,0,0l-9.7-14.6c-0.1-0.1-0.1-0.2-0.1-0.3c0,0,0.1-1.8-0.5-3.2c-0.8-0.4-2.4-0.9-3.8,0.5
					c-2,2-0.2,4.1-0.2,4.1s0,0.1-0.1,0.1c1.1,0.5,2.3,0.7,2.3,0.7c0.1,0,0.3,0.1,0.3,0.2l8.5,14.8L43.2,111.9z M72.7,160.3
					c0.9,0.3,1.9,0.5,2.9,0.4c1,0,1.9-0.4,2.7-1c0.8-0.6,1.5-1.3,2.1-2.1c-0.3,1-0.9,1.9-1.7,2.7c-0.4,0.4-0.9,0.7-1.4,0.9
					c-0.5,0.2-1.1,0.3-1.6,0.4c-1.1,0.1-2.2-0.2-3.2-0.7c-1-0.5-1.8-1.1-2.5-1.9C70.9,159.6,71.8,160,72.7,160.3z M46.1,132.2
					c2-1.6,5.6-3,10.9-1.3c10.4,3.4,12.5,14.3,12.6,14.9c0.4,1.4-0.7,4-2.5,5.9c-1.5,1.6-4.4,4-9.1,4c-0.8,0-1.6-0.1-2.4-0.2
					c-10.2-1.7-13.8-11.4-13.9-14.7C41.5,138.7,42.9,134.7,46.1,132.2z"/>
			</g>
		</g>
		<g>
			<g>
				<path class="st46" d="M80.9,147.4c1.9,1.2,4.3,1.3,7.4,0.2c7.5-2.7,10.3-8.7,8.3-18c-0.5-2.1-1.6-3.9-3.2-5.1
					c-1.9-0.6-4.7-0.7-8.2,2c-5.5,4.3-7.2,11.6-7.8,14.3C77.7,142.9,78.6,145.8,80.9,147.4z"/>
			</g>
		</g>
		<g>
			<g>
				<path class="st46" d="M11.9,176c2.5,4.3,10.1,6.3,10.1,6.3s1.4-9.7,8.8-10.7c0,0-3.3,4-3.8,9c6.2-3.2,15.1-1,17.4-0.4
					c0.1-0.9,0.1-1.8,0.1-2.8c-0.3-1.2-0.9-3.2-1.9-5.8c-1.7-4.4-5.3-6.7-10.7-7.2c-5.4-0.5-11.1,4.9-11.1,4.9
					c-0.2-0.3-0.1-0.7,0-1.1c-0.2,0.3-0.4,0.6-0.6,1c-0.1,0.2-0.4,0.3-0.6,0.2c-0.2-0.1-0.3-0.4-0.2-0.6c4.1-7.3,12.1-9.2,20.3-4.9
					c5.3,2.7,5.9,10.4,5.5,15.9c0,0,0,0,0,0s8.3,6.2,14.5,8.7c1,0.4,2.3,0.9,3.8,1.4c0.7-6.1,6.2-9.7,8.1-10.8
					c-1.4-0.8-2.8-1.6-4.2-2.3c-2.3,0.2-10,0.4-18.9-5.8c-10.6-7.4-13.3-22.6-13.3-22.6l0.2-0.8c-21.4,1.3-26.3,11.3-26.3,11.3
					s-0.1-0.6,0-1.5c-0.3,0.5-0.5,1.1-0.8,1.6C8.2,162.7,8.2,169.9,11.9,176z"/>
			</g>
		</g>
		<g>
			<g>
				<path class="st46" d="M53.2,133.2c-6.6-0.6-9.7,6.1-10.6,8.4c0.6,3.7,4.2,11.5,13.1,13c5.7,0.9,9.2-1.8,10.7-3.5
					c2-2.1,2.6-4.3,2.3-5.2c0,0,0,0,0,0c0,0-0.3-2-1.5-4.5C67.2,141.3,61.1,133.9,53.2,133.2z"/>
			</g>
		</g>
		<g>
			<g>
				<path class="st46" d="M29.3,188.4c6,7.9,19.5,2.5,19.7,2.4c0-0.8-0.2-1.7-0.6-2.6c-0.4-0.3-2.5-1.8-4.3-2.2c0,0,0,0,0,0
					c0,0,0,0,0,0l0,0c-0.8-0.2-1.8-0.3-2.7-0.3c-0.9,0-1.9,0.1-2.8,0.3c-0.2,0-0.5,0.1-0.7,0.2c-0.2,0-0.5,0.1-0.7,0.2l-0.7,0.2
					l-0.7,0.2c-0.5,0.2-0.9,0.4-1.3,0.6c-0.4,0.2-0.8,0.4-1.3,0.7c0.4-0.3,0.8-0.5,1.2-0.8c0.4-0.2,0.8-0.5,1.3-0.7l0.7-0.3l0.7-0.3
					c0.2-0.1,0.5-0.2,0.7-0.2c0.2-0.1,0.5-0.1,0.7-0.2c0.9-0.3,1.9-0.4,2.9-0.5c0.8-0.1,1.7,0,2.5,0.1c0.1-0.7,0.4-2.2,0.6-4.1
					c-1.9-0.5-11.2-3-17.3,0.5C26.9,183.8,27.6,186.1,29.3,188.4z"/>
			</g>
		</g>
		<g>
			<g>
				<path class="st46" d="M83.6,181.4c2.2,1.6,4.7,3.6,6.8,5.7c2.4,2.4,5.3,3.1,7.8,3c-0.5-0.6-1-1.1-1.5-1.7c0.7,0.5,1.4,1.1,2,1.7
					c2.6-0.2,4.7-1.1,5.3-1.6c-1.1-2.3-7.5-7.2-14-11.6C89.3,177.1,85.7,178,83.6,181.4z"/>
			</g>
		</g>
		<g>
			<g>
				<path class="st46" d="M37.9,151.9c1.1,2.6,2.9,5.9,5.6,9.3C41.5,158.6,39.6,155.4,37.9,151.9z"/>
			</g>
		</g>
		<g class="st21">
			<g>
				<path class="st47" d="M8.8,156.3C8.8,156.3,8.8,156.3,8.8,156.3C8.8,156.3,8.8,156.3,8.8,156.3C8.8,156.3,8.8,156.3,8.8,156.3z"
					/>
			</g>
		</g>
		<g class="st8">
			<g>
				<path class="st1" d="M29.3,188.4c-1.7-2.3-2.3-4.6-2.3-6.8c-2,1.1-3.6,2.9-4.6,5.5c0,0,0,0,0,0.1c0,0.7,0.1,1.3,0.2,2l0,0
					c0,0,0,0,0,0c0,0.3,0.7,6.3,8.7,7.2c6.8,0.8,14.6,0.1,17-3.1c0.5-0.7,0.7-1.5,0.7-2.4C48.8,190.9,35.3,196.3,29.3,188.4z"/>
			</g>
		</g>
		<g class="st8">
			<g>
				<path class="st1" d="M10.4,183c3.7,4.2,9,5.9,11.2,5.8c0-0.5,0-1.1,0-1.6c-0.1-0.1-0.1-0.2,0-0.4c0-0.1,0-0.1,0.1-0.2
					c0-0.3,0-0.6,0.1-0.9c0.1-1.1,0.3-2.3,0.6-3.4c0.3-1.1,0.7-2.2,1.4-3.1c0.6-1,1.5-1.8,2.5-2.3c-1,0.6-1.8,1.4-2.3,2.4
					c-0.6,1-0.9,2-1.1,3.1c-0.2,0.8-0.3,1.7-0.3,2.5c1.1-2.1,2.8-3.5,4.6-4.5c0.4-5,3.8-9,3.8-9c-7.4,1-8.8,10.7-8.8,10.7
					s-7.6-2-10.1-6.3c-3.7-6-3.7-13.3-3.3-17.1c-0.5,1.2-1,2.4-1.3,3.7C4.1,173.1,7.3,179.5,10.4,183z"/>
			</g>
		</g>
		<g class="st8">
			<g>
				<path class="st1" d="M90.4,187.1c-2.1-2.2-4.6-4.1-6.8-5.7c-0.6,0.9-1,2-1.3,3.3c0.5,0.4,1,0.7,1.4,1c2.8,2,5.3,3.9,7.2,5.4
					c1.2,1,2,1.7,2.4,2.2c2,0.8,5.6-0.2,7-0.7c-0.2-0.3-0.5-0.6-0.7-1c-0.3-0.4-0.6-0.7-0.9-1.1c-0.1-0.1-0.2-0.3-0.3-0.4
					C95.6,190.2,92.7,189.5,90.4,187.1z"/>
			</g>
		</g>
		<g class="st8">
			<g>
				<path class="st1" d="M45.3,179.7C45.3,179.7,45.3,179.7,45.3,179.7c-0.2,2.6-0.5,4.7-0.7,5.6c2,0.5,4,2,4.3,2.3
					c0.6,0.3,7.5,3.1,14.8,5.6c-0.2-1.2-0.2-2.4-0.1-3.4c-1.5-0.5-2.8-1-3.8-1.4C53.6,185.9,45.3,179.7,45.3,179.7z"/>
			</g>
		</g>
		<g class="st8">
			<g>
				<path class="st1" d="M88.9,195.7c0.1,0.1,0.2,0.2,0.2,0.3c1.5-0.5,3.2-1.3,3.5-1.9c0,0-0.1-0.1-0.1-0.2c0,0-0.1-0.1-0.1-0.1
					c-0.2-0.2-0.5-0.6-1-1c-1.6,0.7-3.6,1.1-5.8,1.2L88.9,195.7z"/>
			</g>
		</g>
		<g class="st8">
			<g>
				<path class="st1" d="M84.7,173.5c-0.5-0.3-1-0.6-1.5-0.9c-3.6,2.2-7.7,3.3-12,3.3c-0.2,0-0.4,0-0.6,0c-1,0-2-0.1-3.1-0.2
					c5,2.6,10.4,6.1,13.9,8.5c0.3-1.3,0.8-2.4,1.4-3.3c-2.9-2.1-5.1-3.4-5.1-3.4C82.4,175.8,84.7,173.5,84.7,173.5z"/>
			</g>
		</g>
		<g class="st8">
			<g>
				<path class="st1" d="M88.5,196.4l-3.1-2.3c-6.7,0.2-15.1-2.1-20.9-4c-0.1,1.1-0.1,2.2,0.2,3.5c5.5,1.9,11.2,3.5,14.6,3.7
					C85.3,197.5,87.6,196.8,88.5,196.4z"/>
			</g>
		</g>
		<g class="st8">
			<g>
				<path class="st1" d="M98.8,190.3c0.4,0.3,0.7,0.6,1.1,0.9c0.3,0.3,0.7,0.6,1,1c0,0.1,0.1,0.1,0.1,0.2c0.4,0,1.5-0.1,2.3-0.8
					c0.6-0.5,0.9-1.3,0.9-2.4c0-0.2-0.1-0.4-0.2-0.6c-0.7,0.5-2.8,1.4-5.3,1.6C98.7,190.2,98.8,190.2,98.8,190.3z"/>
			</g>
		</g>
		<g class="st8">
			<g>
				<path class="st1" d="M71.7,170.3c-23.7-0.2-37.5-32.5-37.5-32.6c0.3,2,0.8,4,1.3,5.7C39,155,46,164,51,168.3
					c6.3,5.3,14.2,6.6,19.7,6.7c4.8,0.1,9.4-1.2,13.2-3.9c0,0,0,0,0,0c7.8-5.4,12-13.5,13.4-26.4C95.3,153.7,89.1,170.5,71.7,170.3z
					"/>
			</g>
		</g>
		<g class="st8">
			<g>
				<path class="st1" d="M35.6,147.5l-0.2,0.8c0,0,2.6,15.2,13.3,22.6c8.9,6.2,16.5,6,18.9,5.8c-0.9-0.5-1.8-0.9-2.6-1.3
					c-4.7-0.8-10-2.6-14.5-6.4c-2.1-1.8-4.5-4.4-6.9-7.7c-2.7-3.4-4.4-6.7-5.6-9.3c-0.7-1.4-1.3-2.9-1.9-4.5c0,0,0,0,0,0
					C35.9,147.5,35.7,147.5,35.6,147.5z"/>
			</g>
		</g>
		<g class="st6">
			<g>
				<path class="st0" d="M9.3,158.8c0,0,4.9-10,26.3-11.3l0.2-0.7c-0.3-0.8-0.6-1.6-0.8-2.4c-1.2-0.1-6.1-0.3-11.6,1.4
					c-6.4,2-11.1,5.9-14.1,11.5C9.2,158.2,9.3,158.8,9.3,158.8z"/>
			</g>
		</g>
		<g class="st21">
			<g>
				<path class="st47" d="M36,147.5C36,147.5,36,147.5,36,147.5c-0.1-0.2-0.2-0.4-0.2-0.6l-0.2,0.7C35.7,147.5,35.9,147.5,36,147.5z
					"/>
			</g>
		</g>
		<g class="st6">
			<g>
				<path class="st0" d="M36,147.5C36,147.5,36,147.5,36,147.5c-0.1-0.2-0.2-0.4-0.2-0.6l-0.2,0.7C35.7,147.5,35.9,147.5,36,147.5z"
					/>
			</g>
		</g>
		<g class="st6">
			<g>
				<path class="st0" d="M20.7,169.3c0,0,5.8-5.4,11.1-4.9c5.4,0.5,9,2.8,10.7,7.2c1,2.6,1.6,4.6,1.9,5.8c0-4.9-1-10.6-5.1-12.7
					c-7.4-3.9-14.6-2.5-18.6,3.6C20.6,168.7,20.6,169.1,20.7,169.3z"/>
			</g>
		</g>
		<g class="st6">
			<g>
				<path class="st0" d="M40.5,109.7h-0.3c-5.6,7.9-7,16.2-6.5,23.4c0.9-4.3,3.6-15,8.5-21.1L40.5,109.7z"/>
			</g>
		</g>
		<g class="st6">
			<g>
				<path class="st0" d="M77.4,104l0.6-2.1c-15.2-7.9-30.6,2.2-33.1,4l1.5,1.8c1.6-1,10.1-6,19-6.1C71.4,101.7,77.4,104,77.4,104z"
					/>
			</g>
		</g>
		<g class="st6">
			<g>
				<path class="st0" d="M93.9,118.5c-4-8.3-9.9-12.9-11.7-14.1l-0.4,1.9c0,0,0,0,0,0C82.9,107.2,89.5,112.6,93.9,118.5z"/>
			</g>
		</g>
		<g class="st6">
			<g>
				<path class="st0" d="M29.8,88.6c1.4-1.5,3.1-0.9,3.8-0.5c-0.1-0.3-0.3-0.7-0.5-0.9c-0.3-0.4-1-0.6-1.8-0.6c-0.3,0-0.7,0-1,0.1
					c-0.7,0.2-2.4,0.8-2.7,3c-0.1,0.8,0,1.4,0.5,2c0.4,0.5,1,0.9,1.5,1.2c0-0.1,0.1-0.1,0.1-0.1S27.8,90.6,29.8,88.6z"/>
			</g>
		</g>
		<g class="st6">
			<g>
				<path class="st0" d="M76,78.2c1.2-0.3,2.9,0.9,3.4,1.3c0-2-1.7-2.7-2.3-2.9c-1.6-0.5-3.2,0-3.5,1c-0.4,1.1,0.3,2.1,1.1,2.9
					C74.7,79.8,74.9,78.5,76,78.2z"/>
			</g>
		</g>
		<g class="st6">
			<g>
				<path class="st0" d="M53.2,133.2c7.9,0.7,14,8.1,14.1,8.2c-1.6-3.4-4.7-7.8-10.5-9.7c-1.5-0.5-2.9-0.7-4.3-0.7
					c-2.2,0-4.2,0.6-5.8,1.9c-3,2.3-4.2,6-4.2,7.8c0,0.3,0,0.6,0.1,0.9C43.5,139.4,46.5,132.6,53.2,133.2z"/>
			</g>
		</g>
		<g class="st6">
			<g>
				<path class="st0" d="M85.1,126.5c3.4-2.7,6.3-2.7,8.2-2c-0.7-0.5-1.4-0.9-2.2-1.1c-0.8-0.3-1.6-0.4-2.4-0.4
					c-2.1,0-4.2,0.9-6.1,2.6c-6,5.2-5.6,13.3-5.5,13.4c0,0,0,0,0,0c0,0.4,0.1,1.1,0.2,1.9C77.9,138.1,79.6,130.8,85.1,126.5z"/>
			</g>
		</g>
		<g class="st6">
			<g>
				<path class="st0" d="M96,126.1C96,126.1,96,126.1,96,126.1C96,126.1,96,126.1,96,126.1C96,126.1,96,126.1,96,126.1z"/>
			</g>
		</g>
		<g>
			<g>
				<g>
					<g>
						<path class="st1" d="M71.3,176.7c-0.2,0-0.4,0-0.6,0c-5.8-0.1-14.1-1.5-20.8-7.1c-11.9-10.1-27.2-38.2-11.1-60.9L31,95.1
							c-1.1-0.2-3.2-0.8-4.4-2.4c-0.7-0.9-1-2.1-0.8-3.3c0.4-2.2,1.8-3.8,3.9-4.3c1.8-0.5,3.7-0.1,4.6,1.1c1.2,1.5,1.4,3.8,1.4,4.8
							l8.8,13.2c1.7-1.2,5.3-3.3,10-4.9c8.1-2.7,15.9-2.5,22.8,0.6c0.2-3.6,0.3-11.5-1.9-16.6c-1.9-1.1-4.4-3.4-3.5-6.1
							c0.7-2.1,3.5-2.7,5.6-2.1c2,0.6,4,2.5,3.3,5.7c0.8,2,3.9,10.9,2.4,22.4c1.4,1,4.8,3.6,8.1,8c3.9,5.2,8.5,14.1,8.1,26.7
							c-0.6,17.7-5,28.1-14.6,34.7l-0.7-1l0.7,1C80.9,175.3,76.2,176.7,71.3,176.7z M31.3,87.3c-0.3,0-0.5,0-0.8,0.1
							c-0.7,0.2-1.8,0.7-2.1,2.3c-0.1,0.6,0,1,0.3,1.4c0.8,1,2.6,1.4,3.3,1.5c0.4,0,0.7,0.3,0.9,0.6l8.5,14.8c0.2,0.4,0.2,1-0.1,1.4
							c-8.9,12-7.6,25-5,33.7c3.4,11.4,10.3,20.3,15.2,24.5c6.1,5.2,13.8,6.4,19.2,6.5c4.6,0.1,9-1.2,12.7-3.7l0,0
							c8.9-6.1,13-15.9,13.5-32.7c0.8-22.7-15.6-32.8-15.7-32.9c-0.4-0.3-0.7-0.8-0.6-1.3c1.8-12.4-2.2-22.1-2.2-22.2
							c-0.1-0.3-0.1-0.5-0.1-0.8c0.5-2-0.5-2.8-1.5-3.1c-1.2-0.4-2.4,0-2.5,0.5c-0.4,1.3,2,2.9,2.7,3.3c0.2,0.1,0.4,0.3,0.6,0.6
							c3.5,7.3,2.3,19.6,2.2,20.1c0,0.4-0.3,0.8-0.7,1c-0.4,0.2-0.8,0.2-1.2,0c-16.1-8.6-32.7,3.9-32.9,4.1c-0.3,0.2-0.6,0.3-1,0.2
							c-0.3-0.1-0.7-0.3-0.8-0.5L33.5,92c-0.2-0.2-0.2-0.5-0.2-0.8c0-0.6,0-2.6-0.8-3.5C32.3,87.5,31.9,87.3,31.3,87.3z"/>
					</g>
				</g>
				<g>
					<g>
						<path class="st1" d="M58,156.6c-0.8,0-1.7-0.1-2.6-0.2c-9.9-1.7-14.4-10.9-14.6-15.5c-0.1-2.6,1.5-6.8,4.8-9.3
							c2.2-1.7,6-3.3,11.6-1.4c10.9,3.5,13,14.5,13.2,15.5c0.4,1.7-0.7,4.4-2.7,6.7C66.1,154,63,156.6,58,156.6z M52.5,131.8
							c-2,0-3.8,0.6-5.3,1.8c-2.7,2.1-3.9,5.5-3.8,7.2c0.1,2.9,3.5,11.6,12.5,13.1c5.3,0.9,8.5-1.7,10-3.3c1.8-2,2.3-3.9,2.2-4.4
							c0,0,0-0.1,0-0.1l0,0c-0.1-0.4-1.8-10.4-11.5-13.6C55.1,132.1,53.7,131.8,52.5,131.8z"/>
					</g>
				</g>
				<g>
					<g>
						<path class="st1" d="M84.3,150c-1.7,0-3.1-0.4-4.4-1.3c-3.8-2.6-4.4-8.2-4.5-9.8c0-0.4-0.4-9.1,6.1-14.8
							c3.1-2.7,6.8-3.6,10.1-2.5c3.2,1.1,5.7,4,6.5,7.5c2.2,10.1-1,17-9.4,20C87.2,149.8,85.7,150,84.3,150z M88.8,123.7
							c-1.9,0-3.8,0.8-5.6,2.3c-5.6,4.9-5.3,12.6-5.3,12.7c0,0,0,0,0,0c0.2,2.8,1.1,6.3,3.4,7.9c1.6,1.1,3.9,1.1,6.6,0.1
							c7-2.5,9.7-8.2,7.7-17.1c-0.6-2.7-2.4-4.9-4.8-5.7C90.2,123.9,89.5,123.7,88.8,123.7z"/>
					</g>
				</g>
				<g>
					<g>
						<path class="st1" d="M70,159c2.4,0.5,4.5,1.2,6.8,0.7c1.4-0.4,2.3-1.2,3.7-2.1c0,2.4-2.2,4.7-4.7,4.8
							C73.3,162.5,71,161.2,70,159L70,159z"/>
					</g>
				</g>
				<g>
					<g>
						<path class="st1" d="M47,110.4c-0.4,0-0.7-0.2-1-0.4l-2.8-3.3c-0.4-0.5-0.4-1.3,0.1-1.8c0.5-0.4,1.3-0.4,1.8,0.1l2.8,3.3
							c0.4,0.5,0.4,1.3-0.1,1.8C47.6,110.3,47.3,110.4,47,110.4z"/>
					</g>
				</g>
				<g>
					<g>
						<path class="st1" d="M42.8,113.5c-0.4,0-0.8-0.2-1-0.5l-2.5-3.5c-0.4-0.6-0.3-1.4,0.3-1.8c0.6-0.4,1.4-0.3,1.8,0.3l2.5,3.5
							c0.4,0.6,0.3,1.4-0.3,1.8C43.3,113.4,43.1,113.5,42.8,113.5z"/>
					</g>
				</g>
				<g>
					<g>
						<path class="st1" d="M77.7,105.8c-0.1,0-0.2,0-0.3,0c-0.7-0.2-1.1-0.9-0.9-1.5l0.8-2.8c0.2-0.7,0.9-1.1,1.5-0.9
							c0.7,0.2,1.1,0.9,0.9,1.5l-0.8,2.8C78.8,105.4,78.3,105.8,77.7,105.8z"/>
					</g>
				</g>
				<g>
					<g>
						<path class="st1" d="M81.4,107.5c-0.1,0-0.2,0-0.2,0c-0.7-0.1-1.1-0.8-1-1.5l0.5-2.5c0.1-0.7,0.8-1.1,1.5-1
							c0.7,0.1,1.1,0.8,1,1.5l-0.5,2.5C82.5,107.1,82,107.5,81.4,107.5z"/>
					</g>
				</g>
			</g>
			<g>
				<g>
					<path class="st1" d="M82,199c-0.9,0-1.8,0-2.8-0.1c-7-0.4-22.6-6.4-28.6-8.8c0.2,1.9-0.4,3.2-1,4.1c-3.8,5.2-16.1,4.1-18.6,3.8
						c-7.1-0.8-9.3-5.4-10-7.5c-3-0.2-8.1-2.2-11.9-6.4c-3.4-3.8-6.9-10.8-3.6-22c3.3-11.3,11.2-16,17.3-17.9
						c6.5-2.1,12.3-1.5,12.5-1.5c0.7,0.1,1.2,0.7,1.1,1.4c-0.1,0.7-0.7,1.2-1.4,1.1c-0.1,0-5.5-0.5-11.6,1.4
						c-8,2.5-13.2,8-15.6,16.2C5,172.9,8,179.1,11,182.4c4,4.4,9.4,5.7,10.8,5.5c0.3-0.1,0.7,0,1,0.2c0.3,0.2,0.5,0.5,0.5,0.9
						c0,0.2,0.7,5.6,8,6.5c6.3,0.7,14.1,0.1,16.2-2.8c0.8-1.1,0.8-2.5,0-4.2c-0.2-0.5-0.1-1,0.3-1.4c0.4-0.4,0.9-0.5,1.4-0.3
						c0.2,0.1,21.9,9.2,30.1,9.6c6.6,0.3,8.6-0.6,8.9-0.8c0.1-0.2,0.3-0.2,0.5-0.3c1-0.3,2.2-0.8,2.8-1.2c-2.9-2.9-17.3-13.6-27-18
						c-0.6-0.3-0.9-1-0.6-1.7c0.3-0.6,1-0.9,1.7-0.6c6.9,3.1,15.2,8.9,18.5,11.2c11,7.8,10.6,8.8,10.3,9.7c-0.5,1.4-3,2.4-4.6,2.9
						C89,198.1,87,199,82,199z M88.2,195.7C88.2,195.7,88.2,195.7,88.2,195.7L88.2,195.7z"/>
				</g>
			</g>
			<g>
				<g>
					<path class="st1" d="M48.7,189.2c-0.3,0-0.6-0.1-0.8-0.3c-0.6-0.5-2.5-1.8-4.1-2.1c-0.3-0.1-0.6-0.3-0.8-0.5
						c-0.2-0.3-0.3-0.6-0.2-1c0-0.2,3.4-16.2-3.9-20c-7.4-3.9-14.5-2.2-18.1,4.2c-0.3,0.6-1.1,0.8-1.7,0.5c-0.6-0.3-0.8-1.1-0.5-1.7
						c4.2-7.6,12.9-9.7,21.4-5.2c7.7,4,6.1,17.5,5.4,21.6c2,0.7,3.8,2.2,3.9,2.2c0.5,0.4,0.6,1.2,0.2,1.8
						C49.4,189,49,189.2,48.7,189.2z"/>
				</g>
			</g>
			<g>
				<g>
					<path class="st1" d="M43.7,186.8c-2.5-0.9-5.4-0.7-8,0.1c-0.9,0.3-1.8,0.6-2.7,1c1-0.7,2-1.4,3.1-2c2.8-1.3,6-2.1,9.1-1.4
						c0.8,0.2,1.3,1,1.1,1.7C46.2,187.6,44.4,187.9,43.7,186.8L43.7,186.8z"/>
				</g>
			</g>
			<g>
				<g>
					<path class="st1" d="M20.8,189.3c0-3.5,0.6-7.2,2.7-10.2c0.7-0.9,1.6-1.7,2.7-2.2c-2.8,1.9-3.3,5.7-3.2,8.8
						c0,1,0.2,2.2,0.4,3.2C23.6,190.8,20.9,191.2,20.8,189.3L20.8,189.3z"/>
				</g>
			</g>
			<g>
				<g>
					<path class="st1" d="M94.9,195.3c-0.9,0-1.8-0.1-2.6-0.4c-0.6-0.3-0.9-1-0.7-1.7c0.3-0.6,1-0.9,1.7-0.7
						c1.6,0.7,5.2-0.2,7.1-0.9c0.2-0.1,0.3-0.1,0.5-0.1l0,0c0,0,1.1,0,1.8-0.6c0.4-0.4,0.6-1,0.6-1.8c0-0.2-0.5-2.1-10.3-9.1
						c-5.2-3.7-10.4-6.9-10.5-6.9c-0.6-0.4-0.8-1.1-0.4-1.7c0.4-0.6,1.1-0.8,1.7-0.4c0.1,0,5.4,3.4,10.8,7.1c9.9,7,11.2,9.5,11.2,11
						c0,1.9-0.8,3-1.4,3.6c-1.2,1.1-2.8,1.3-3.4,1.3C100.2,194.4,97.4,195.3,94.9,195.3z"/>
				</g>
			</g>
			<g>
				<g>
					<path class="st1" d="M99.6,193.3c-0.8-1.7-1.9-3.3-2.9-4.8c1.7,1,3.4,2,4.9,3.3C103.1,193.2,100.6,195.1,99.6,193.3L99.6,193.3
						z"/>
				</g>
			</g>
			<g>
				<g>
					<path class="st1" d="M88,197.1l-3.4-3.6l4.7,1.4c0.7,0.2,1.1,0.9,0.9,1.6C90,197.5,88.7,197.8,88,197.1L88,197.1z"/>
				</g>
			</g>
			<g>
				<g>
					<path class="st1" d="M81.7,185.7c-0.1,0-0.1,0-0.2,0c-0.5-0.1-0.8-0.5-0.7-1c1.5-7.8,9-9,9-9c0.5-0.1,0.9,0.2,1,0.7
						c0.1,0.5-0.2,0.9-0.7,1l0,0c-0.3,0-6.4,1.1-7.7,7.7C82.5,185.5,82.1,185.7,81.7,185.7z"/>
				</g>
			</g>
			<g>
				<g>
					<path class="st1" d="M64.2,194.7c-0.4,0-0.7-0.3-0.8-0.7c-2.3-10.5,8.7-15.8,8.8-15.8c0.4-0.2,0.9,0,1.1,0.4
						c0.2,0.4,0,0.9-0.4,1.1c-0.4,0.2-9.9,4.7-7.9,13.9c0.1,0.5-0.2,0.9-0.6,1C64.4,194.7,64.3,194.7,64.2,194.7z"/>
				</g>
			</g>
			<g>
				<g>
					<path class="st1" d="M21.9,187.8c-0.1,0-0.2,0-0.3-0.1c-0.4-0.2-0.7-0.6-0.5-1.1c1.9-5.4,6.7-8.2,13.8-8.2c0,0,0.1,0,0.1,0
						c5.2,0,9.7,1.5,9.9,1.5c0.4,0.1,0.7,0.6,0.5,1.1c-0.1,0.4-0.6,0.7-1.1,0.5c-0.2-0.1-17.7-5.6-21.8,5.7
						C22.6,187.6,22.3,187.8,21.9,187.8z"/>
				</g>
			</g>
		</g>
		<g>
			<g>
				<g>
					<path class="st0" d="M97,80.8c4.6,6.5,10.8,11.8,18.4,15.4c1.5,0.7,3.1,1.4,4.8,1.9c0.8,0.3,1.6,0.5,2.4,0.8
						c2.5,0.7,5,1.2,7.5,1.5c2.2,0.3,4.3,0.4,6.4,0.4c2.6,0,5.1-0.2,7.6-0.7c0.9-0.2,1.8-0.3,2.7-0.5c16.4-3.7,30.4-15.9,35.6-32.9
						c7.7-25.2-6.7-51.5-32.1-58.9c-4.9-1.4-9.8-2-14.7-1.9c-0.6,0-1.1,0-1.7,0.1c-1.5,0.1-3,0.3-4.5,0.5c-3.4,0.5-6.8,1.4-10,2.7
						c-3.2,1.2-6.3,2.8-9.2,4.7c-0.9,0.6-1.8,1.2-2.7,1.9c-1.3,1-2.6,2-3.8,3.2c-6,5.6-10.7,12.8-13.3,21.2
						C86.1,54.5,89,69.4,97,80.8z"/>
				</g>
				<g>
					<path class="st1" d="M136.2,101c-2,0-4.1-0.1-6.1-0.4c-2.5-0.3-5-0.8-7.5-1.5c-0.9-0.3-1.7-0.5-2.4-0.8
						c-1.6-0.6-3.2-1.2-4.8-1.9c-7.4-3.5-13.7-8.8-18.4-15.4l0,0C88.5,68.9,86.1,54,90.4,40c2.5-8.1,7.1-15.4,13.3-21.2
						c1.2-1.1,2.5-2.2,3.8-3.2c0.9-0.6,1.8-1.3,2.7-1.9c2.9-1.9,6-3.5,9.2-4.7c3.2-1.3,6.6-2.2,10.1-2.7c1.5-0.2,3-0.4,4.5-0.5
						c0.6,0,1.2-0.1,1.7-0.1c4.9-0.1,9.9,0.5,14.7,1.9c12.4,3.6,22.5,11.7,28.6,23c6,11.1,7.3,23.9,3.6,36.1
						c-5,16.5-18.7,29.2-35.7,33c-0.9,0.2-1.8,0.4-2.7,0.5c-2.5,0.4-5.1,0.6-7.6,0.7C136.4,101,136.3,101,136.2,101z M97.1,80.8
						c4.7,6.6,11,11.9,18.3,15.4c1.6,0.7,3.1,1.4,4.7,1.9c0.7,0.3,1.5,0.5,2.4,0.8c2.4,0.7,5,1.2,7.5,1.5c2.1,0.3,4.3,0.4,6.4,0.4
						c2.5,0,5.1-0.2,7.6-0.7c0.9-0.2,1.8-0.3,2.7-0.5c16.9-3.8,30.6-16.4,35.6-32.9c3.7-12.1,2.4-24.8-3.6-35.9
						c-6-11.2-16.1-19.3-28.5-22.8c-4.8-1.4-9.7-2-14.7-1.9c-0.5,0-1.1,0-1.7,0.1c-1.5,0.1-3,0.3-4.5,0.5c-3.4,0.5-6.8,1.4-10,2.7
						c-3.2,1.2-6.3,2.8-9.2,4.7c-0.9,0.6-1.8,1.2-2.7,1.9c-1.3,1-2.6,2.1-3.8,3.2c-6.2,5.7-10.8,13-13.2,21.1
						C86.4,54,88.7,68.9,97.1,80.8z"/>
				</g>
			</g>
			<g class="st8">
				<g>
					<path class="st3" d="M182.5,66.7c-5.2,17.1-19.2,29.2-35.6,32.9c-0.9,0.2-1.8,0.4-2.7,0.5c-2.5,0.4-5,0.6-7.6,0.7
						c-2.1,0-4.3-0.1-6.4-0.4c-2.5-0.3-5-0.8-7.5-1.5c-0.8-0.2-1.6-0.5-2.4-0.8c-1.6-0.6-3.2-1.2-4.8-1.9
						c-7.5-3.6-13.8-8.9-18.4-15.4c-2.5-3.6-4.5-7.5-6-11.6c4.5,6.1,10.5,11.1,17.7,14.5c1.5,0.7,3.1,1.4,4.8,1.9
						c0.8,0.3,1.6,0.5,2.4,0.8c2.5,0.7,5,1.2,7.5,1.5c2.2,0.3,4.3,0.4,6.4,0.4c2.6,0,5.1-0.2,7.6-0.7c0.9-0.2,1.8-0.3,2.7-0.5
						c16.4-3.7,30.4-15.9,35.6-32.9c3-10,2.6-20.1-0.6-29.2C183.9,36.6,187,51.9,182.5,66.7z"/>
				</g>
			</g>
			<g>
				<g>
					<path class="st1" d="M136.1,101.8c-2.1,0-4.1-0.1-6.2-0.4c-2.6-0.3-5.1-0.8-7.6-1.6c-0.9-0.3-1.7-0.5-2.5-0.8
						c-1.6-0.6-3.3-1.2-4.8-2c-7.5-3.5-14-9-18.7-15.7l0,0c-8.6-12.2-11-27.3-6.7-41.6c2.5-8.2,7.2-15.7,13.5-21.6
						c1.2-1.1,2.5-2.2,3.9-3.2c0.9-0.7,1.8-1.3,2.7-1.9c2.9-1.9,6.1-3.5,9.4-4.8c3.3-1.3,6.7-2.2,10.2-2.7c1.5-0.2,3.1-0.4,4.6-0.5
						c0.6,0,1.2-0.1,1.7-0.1c5-0.1,10.1,0.5,15,1.9c12.6,3.6,22.9,11.9,29.1,23.3c6.1,11.3,7.4,24.4,3.7,36.7
						c-5.1,16.8-19,29.6-36.3,33.6c-0.9,0.2-1.8,0.4-2.8,0.5c-2.6,0.4-5.2,0.7-7.8,0.7C136.4,101.8,136.3,101.8,136.1,101.8z
						 M97.8,80.3c4.6,6.5,10.8,11.7,18,15.1c1.5,0.7,3.1,1.4,4.7,1.9c0.7,0.3,1.5,0.5,2.4,0.8c2.4,0.7,4.9,1.2,7.3,1.5
						c2.1,0.3,4.2,0.4,6.3,0.4c2.5,0,5-0.2,7.5-0.7c0.9-0.2,1.8-0.3,2.7-0.5c16.7-3.8,30.1-16.2,35-32.3c3.6-11.9,2.4-24.4-3.5-35.3
						c-5.9-11-15.9-18.9-28-22.5c-4.7-1.4-9.6-2-14.4-1.9c-0.5,0-1.1,0-1.7,0.1c-1.5,0.1-3,0.2-4.4,0.5c-3.3,0.5-6.7,1.4-9.8,2.6
						c-3.2,1.2-6.2,2.8-9,4.6c-0.9,0.6-1.8,1.2-2.6,1.8c-1.3,1-2.6,2-3.7,3.1c-6.1,5.6-10.6,12.8-13,20.8
						C87.2,54,89.5,68.6,97.8,80.3L97.8,80.3z"/>
				</g>
			</g>
			<g>
				<g>
					<path class="st1" d="M136.1,102.1c-2.1,0-4.2-0.1-6.2-0.4c-2.6-0.3-5.2-0.9-7.7-1.6c-0.9-0.3-1.7-0.5-2.5-0.8
						c-1.6-0.6-3.3-1.2-4.9-2c-7.5-3.6-14-9-18.8-15.8l0,0C87.4,69.3,85,54,89.4,39.7c2.5-8.3,7.2-15.8,13.6-21.7
						c1.2-1.1,2.5-2.2,3.9-3.2c0.9-0.7,1.8-1.3,2.8-1.9c3-1.9,6.1-3.5,9.4-4.8c3.3-1.3,6.8-2.2,10.3-2.7c1.5-0.2,3.1-0.4,4.6-0.5
						c0.6,0,1.2-0.1,1.8-0.1c5-0.1,10.1,0.5,15,2c12.6,3.7,23,12,29.2,23.5c6.2,11.4,7.5,24.5,3.7,36.9
						c-5.1,16.9-19.1,29.8-36.5,33.8c-0.9,0.2-1.8,0.4-2.8,0.5c-2.6,0.4-5.2,0.7-7.8,0.7C136.4,102.1,136.3,102.1,136.1,102.1z
						 M98,80.1c4.6,6.4,10.7,11.6,17.9,15c1.5,0.7,3.1,1.4,4.6,1.9c0.7,0.3,1.5,0.5,2.4,0.8c2.4,0.7,4.8,1.2,7.3,1.5
						c2.1,0.3,4.2,0.4,6.3,0.4c2.5,0,5-0.2,7.4-0.6c0.9-0.2,1.8-0.3,2.6-0.5c16.6-3.8,29.9-16.1,34.8-32.1
						c3.6-11.8,2.4-24.3-3.5-35.1C172,20.4,162.1,12.5,150.1,9c-4.7-1.4-9.5-2-14.3-1.9c-0.5,0-1.1,0-1.7,0.1
						c-1.5,0.1-3,0.2-4.4,0.5c-3.3,0.5-6.6,1.4-9.8,2.6c-3.1,1.2-6.2,2.7-9,4.6c-0.9,0.6-1.8,1.2-2.6,1.8c-1.3,1-2.5,2-3.7,3.1
						c-6.1,5.6-10.6,12.7-13,20.6C87.5,54,89.8,68.5,98,80.1L98,80.1z"/>
				</g>
			</g>
			<g>
				<g>
					<path class="st3" d="M105.3,89.8c30.1,16,66.7-2.2,64.9-35.8c-1.2-22.8-24.7-39.1-46.8-36.4c-16.1,2-31,10.8-35,36.4
						c0,0,0,11.5,4,18.8c4,7.2,9.1,13.6,9.1,13.6L105.3,89.8z"/>
				</g>
			</g>
			<g>
				<g>
					<path class="st1" d="M170.2,54c1.7,33.5-34.8,51.8-64.9,35.8l-0.8-0.7c31.4,1.8,60-20,58.9-54C167.4,40.5,169.9,46.9,170.2,54z
						"/>
				</g>
			</g>
			<g>
				<g>
					<path class="st1" d="M130,101.7L130,101.7c-2.7-0.3-5.2-0.9-7.8-1.6c-0.9-0.3-1.7-0.5-2.5-0.8c-1.6-0.6-3.3-1.2-4.9-2
						c-7.5-3.6-14-9-18.8-15.8l0,0C87.4,69.3,85,54,89.4,39.7c2.5-8.3,7.2-15.8,13.6-21.7l0.1-0.1l0.1-0.1
						c5.4-3.3,11.9-5.4,19.3-6.3c13.3-1.6,27.6,2.7,38.2,11.7c9.6,8,15.2,18.8,15.8,30.4c0.6,12.6-3.3,23.9-11.4,32.7
						C156.5,95.6,143.7,101.3,130,101.7L130,101.7z M98,80.1c4.6,6.4,10.7,11.6,17.9,15c1.5,0.7,3.1,1.4,4.6,1.9
						c0.7,0.3,1.5,0.5,2.4,0.8c2.4,0.7,4.8,1.2,7.2,1.5c13-0.4,25-5.8,33.2-14.6c7.7-8.3,11.4-19,10.8-30.9
						c-0.6-10.9-5.9-21.1-14.9-28.7c-10.1-8.5-23.7-12.7-36.4-11.1c-7,0.9-13.2,2.8-18.3,5.9c-6,5.6-10.5,12.7-12.9,20.6
						C87.5,54,89.8,68.5,98,80.1L98,80.1z"/>
				</g>
			</g>
			<g>
				<g>
					<path class="st1" d="M128.6,96c-7.9,0-16-2-23.5-5.9l-0.1-0.1l-3.8-3.6c-0.1-0.1-5.2-6.5-9.1-13.6c-4-7.2-4-18.5-4-18.9l0-0.1
						c3.4-21.9,15.3-34.2,35.3-36.7c11.6-1.4,24.2,2.4,33.5,10.2c8.4,7,13.3,16.5,13.8,26.5c0.8,14.6-5.8,27.5-17.9,35.2
						C145.5,93.7,137.2,96,128.6,96z M105.5,89.5c15.3,8.1,33.2,7.7,46.8-1c11.9-7.6,18.3-20.1,17.5-34.5c-0.5-9.9-5.3-19.1-13.5-26
						c-9.2-7.7-21.5-11.5-32.9-10.1c-19.6,2.4-31.3,14.5-34.6,36c0,0.6,0.2,11.7,4,18.5c3.8,6.9,8.7,13.1,9,13.5L105.5,89.5z"/>
				</g>
			</g>
			<g>
				<g>
					<path class="st0" d="M191.2,49.4c1.6,9.2-2.5,17.9-9.3,19.5c-6.7,1.5-13.5-4.7-15.2-13.9c0-0.1,0-0.1,0-0.2
						c-1.5-9.1,2.6-17.8,9.3-19.3c5.2-1.2,10.4,2.3,13.3,8.1C190.2,45.4,190.8,47.3,191.2,49.4z"/>
				</g>
			</g>
			<g class="st8">
				<g>
					<path class="st3" d="M191.2,49.4c1.6,9.2-2.5,17.9-9.3,19.5c-6.7,1.5-13.5-4.7-15.2-13.9c0-0.1,0-0.1,0-0.2
						c0.9,0.8,2.2,1.4,3.7,0.8c2.6-1.2,6.5-8.2,6.5-8.2s5.4-1.6,12.4-3.7C190.2,45.4,190.8,47.3,191.2,49.4z"/>
				</g>
			</g>
			<g>
				<g>
					<path class="st1" d="M179.8,70.3c-2.2,0-4.4-0.7-6.4-2c-4-2.6-6.8-7.4-7.8-13.1c-1.7-9.8,2.8-19.2,10.2-20.8
						c3-0.7,6-0.1,8.8,1.8c4,2.6,6.8,7.4,7.8,13.1l0,0c1.7,9.8-2.8,19.2-10.2,20.8C181.4,70.2,180.6,70.3,179.8,70.3z M178.1,36.5
						c-0.6,0-1.2,0.1-1.8,0.2c-6.1,1.4-9.9,9.5-8.4,18.1c0.9,5,3.4,9.3,6.8,11.5c2.2,1.5,4.6,2,6.9,1.4c6.1-1.4,9.9-9.5,8.4-18.1
						c-0.9-5-3.4-9.3-6.8-11.5C181.6,37,179.8,36.5,178.1,36.5z"/>
				</g>
			</g>
			<g>
				<g>
					
						<ellipse transform="matrix(0.9932 -0.1161 0.1161 0.9932 -4.8592 21.6243)" class="st0" cx="183.2" cy="52.5" rx="9.4" ry="13.8"/>
				</g>
			</g>
			<g class="st8">
				<g>
					<path class="st3" d="M185.5,66.1c5.1-1.2,8.2-8.3,6.9-15.8c-0.1-0.8-0.3-1.6-0.6-2.4c-0.5,5.4-3.2,9.8-7.2,10.8
						c-4.5,1-9-2.7-11-8.6c-0.1,1.5,0,3,0.3,4.6C175.2,62.2,180.4,67.3,185.5,66.1z"/>
				</g>
			</g>
			<g>
				<g>
					<path class="st1" d="M184,67.5c-1.6,0-3.2-0.5-4.8-1.5c-3.2-2.1-5.6-6.3-6.5-11.1c-1.4-8.1,2.1-15.8,7.8-17.1
						c2.2-0.5,4.5-0.1,6.5,1.3c3.2,2.1,5.6,6.3,6.5,11.1c1.4,8.1-2.1,15.8-7.8,17.1C185.2,67.4,184.6,67.5,184,67.5z M182.3,39.9
						c-0.4,0-0.8,0-1.2,0.1c-4.5,1.1-7.2,7.5-6,14.4c0.7,4.2,2.7,7.7,5.4,9.5c1.5,1,3.1,1.3,4.7,1c4.5-1.1,7.2-7.5,6-14.4
						c-0.7-4.2-2.7-7.7-5.4-9.5C184.7,40.3,183.5,39.9,182.3,39.9z"/>
				</g>
			</g>
			<g class="st5">
				<g>
					<path class="st0" d="M136.2,25.4c0,0-20.8,3.9-30.9,17.2c0,0,0,0,0,0c-2.1,2.8-3.5,6.1-3.9,9.6c-0.5,4.6-0.2,7.8,0.1,10.6
						c1.2,8.6,3.3,12.4,3.3,12.4c-5.6-3.9-9.1-8.6-10.1-15.8c-0.1-0.7-0.2-1.4-0.2-2.2c0-0.2,0-0.3,0-0.5c0,0,0,0,0,0
						c0-1.5,0.1-3.6,0.3-5.8c0.8-6.9,3.5-16,11.4-21.2C121,20,136.8,24.4,136.2,25.4z"/>
				</g>
			</g>
			<g class="st5">
				<g>
					
						<ellipse transform="matrix(0.9183 -0.396 0.396 0.9183 -5.5348 64.6894)" class="st0" cx="153.9" cy="45.8" rx="6.4" ry="7.4"/>
				</g>
			</g>
			<g class="st5">
				<g>
					
						<ellipse transform="matrix(0.8775 -0.4796 0.4796 0.8775 -9.3073 83.5754)" class="st0" cx="158.9" cy="60" rx="2.7" ry="3.1"/>
				</g>
			</g>
		</g>
		<g>
			<polygon class="st3" points="141.7,128.9 137.4,123.2 137.4,120.8 141.5,115.4 147.6,115.4 142.2,121.8 148,128.9 			"/>
			<path class="st1" d="M145.7,116.3l-4.7,5.6l5.1,6.2h-4l-3.9-5.1v-1.8l3.7-4.8H145.7 M149.5,114.5h-3.8h-3.8h-0.9l-0.5,0.7
				l-3.7,4.8l-0.4,0.5v0.6v1.8v0.6l0.4,0.5l3.9,5.1l0.5,0.7h0.9h4h3.7l-2.4-2.9l-4.2-5l3.7-4.4L149.5,114.5L149.5,114.5z"/>
		</g>
		<g>
			<polygon class="st15" points="121.8,128.9 127.2,122.4 121.4,115.4 127.7,115.4 132,121.1 132,123.5 127.9,128.9 			"/>
			<path class="st1" d="M127.2,116.3l3.9,5.1v1.8l-3.7,4.8h-3.8l4.7-5.6l-5.1-6.2H127.2 M128.1,114.5h-0.9h-4h-3.7l2.4,2.9l4.2,5
				l-3.7,4.4l-2.4,2.9h3.8h3.8h0.9l0.5-0.7l3.7-4.8l0.4-0.5v-0.6v-1.8v-0.6l-0.4-0.5l-3.9-5.1L128.1,114.5L128.1,114.5z"/>
		</g>
		<g>
			<polygon class="st11" points="134.5,133.4 128,138.8 128,132.7 133.5,128.5 135.9,128.5 141.5,132.9 141.5,139.2 			"/>
			<path class="st1" d="M135.6,129.4l5.1,3.9v4l-6.2-5.1l-5.6,4.7v-3.8l4.8-3.7H135.6 M136.2,127.7h-0.6h-1.8h-0.6l-0.5,0.4
				l-4.8,3.7l-0.7,0.5v0.9v3.8v3.8l2.9-2.4l4.4-3.7l5,4.2l2.9,2.4v-3.7v-4v-0.9l-0.7-0.5l-5.1-3.9L136.2,127.7L136.2,127.7z"/>
		</g>
		<g>
			<polygon class="st16" points="133.5,115.8 127.8,111.4 127.8,105.1 134.9,110.9 141.3,105.5 141.3,111.6 135.9,115.8 			"/>
			<path class="st1" d="M128.7,107l6.2,5.1l5.6-4.7v3.8l-4.8,3.7h-1.8l-5.1-3.9V107 M126.9,103.2v3.7v4v0.9l0.7,0.5l5.1,3.9l0.5,0.4
				h0.6h1.8h0.6l0.5-0.4l4.8-3.7l0.7-0.5v-0.9v-3.8v-3.8l-2.9,2.4l-4.4,3.7l-5-4.2L126.9,103.2L126.9,103.2z"/>
		</g>
		<path class="st26" d="M119.9,56.7c0.6-1.5,1-3.1,1.1-4.8c-0.2,0.8-0.6,1.8-0.9,2.6c-2.5,6.5-8.5,11.2-14.8,11.6
			c-6.4,0.5-12.8-3.3-16.1-9.4c-0.8-1.4-1.3-3-1.7-4.6c0.3,2.5,0.8,4.8,1.9,7c3.1,5.9,9.6,9.7,15.8,9.2
			C111.5,67.8,117.5,63,119.9,56.7z"/>
		<path class="st26" d="M130.1,56.5c-0.6-1.5-1-3.1-1.2-4.7c0.2,0.8,0.4,1.5,0.7,2.2c2.5,6.3,8.4,10.9,14.7,11.3
			c6.3,0.4,12.7-3.2,15.9-9.1c0.8-1.4,1.3-2.9,1.7-4.5c-0.3,2.4-0.9,5.1-2,7.2c-3.1,5.7-9.4,9-15.6,8.6S132.5,62.6,130.1,56.5z"/>
		<g>
			<g>
				<path class="st0" d="M117.8,38.1c-3.4-4.6-9-7.3-14.5-7c-5.5,0.3-10.8,3.6-13.7,8.6c-3.5,5.8-3.6,13.7-0.4,19.7
					c3.3,6,9.8,9.7,16.1,9.2c6.4-0.4,12.4-5,14.9-11.4C122.7,51,121.8,43.3,117.8,38.1z"/>
				<path class="st25" d="M117.3,38.5c0,0-0.3-0.3-0.9-0.9c-0.3-0.3-0.6-0.7-1.1-1c-0.5-0.3-0.9-0.8-1.5-1.2
					c-1.2-0.9-2.8-1.7-4.7-2.3c-2-0.5-4.2-0.9-6.7-0.6c-0.3,0-0.7,0.1-1,0.1c-0.3,0.1-0.6,0.1-0.9,0.2c-0.3,0.1-0.6,0.1-0.9,0.2
					c-0.3,0.1-0.6,0.2-0.9,0.3c-0.3,0.1-0.6,0.2-1,0.4c-0.3,0.2-0.6,0.3-0.9,0.5c-0.6,0.3-1.2,0.7-1.8,1.1c-2.4,1.7-4.5,4-5.8,7
					c-1.3,2.8-2,6.2-1.7,9.6c0.2,3.4,1.2,6.9,3.4,9.7c2.1,2.8,5,4.9,8.3,6c3.2,1.2,6.8,1.2,9.9,0.1c3.1-1.1,5.7-3,7.6-5.3l0.7-0.8
					c0.2-0.3,0.4-0.6,0.6-0.9c0.4-0.6,0.8-1.2,1.1-1.8c0.3-0.6,0.6-1.3,0.8-1.9c0.2-0.7,0.4-1.3,0.6-1.9c0.5-2.5,0.7-4.9,0.4-7
					c-0.1-1-0.4-2-0.5-2.9c-0.3-0.9-0.6-1.6-0.8-2.4c-0.3-0.7-0.6-1.3-0.9-1.8c-0.2-0.5-0.6-0.9-0.8-1.3
					C117.6,38.8,117.3,38.5,117.3,38.5L117.3,38.5z M118.4,37.7c0,0,0.2,0.4,0.7,1.1c0.2,0.4,0.6,0.8,0.8,1.4
					c0.3,0.6,0.6,1.2,0.9,1.9c0.3,0.8,0.5,1.6,0.8,2.5c0.2,0.9,0.4,2,0.5,3.1c0.2,2.2,0.1,4.7-0.5,7.5c-0.2,0.6-0.4,1.3-0.6,1.9
					c-0.3,0.7-0.6,1.3-0.9,2c-0.3,0.7-0.7,1.3-1.2,1.9c-0.2,0.3-0.4,0.6-0.6,1l-0.8,0.9c-2.1,2.4-4.8,4.4-8.1,5.5
					c-3.2,1.1-7,1.1-10.4-0.2c-3.4-1.2-6.4-3.5-8.6-6.4c-2.2-2.8-3.6-6.4-4-10c-0.4-3.6-0.1-7.2,1.3-10.6c1.2-3.2,3.5-6.1,6-8
					c0.7-0.5,1.3-1,2-1.3c0.3-0.2,0.7-0.4,1-0.6c0.4-0.2,0.7-0.3,1.1-0.5c0.4-0.1,0.7-0.3,1.1-0.4c0.4-0.1,0.8-0.2,1.2-0.3
					c0.4-0.1,0.8-0.2,1.1-0.3c0.3,0,0.7-0.1,1-0.1c0.3,0,0.7-0.1,1-0.1c0.2,0,0.1,0,0.1,0c0.1,0,0.2,0,0.2,0l0.3,0l0.5,0
					c0.7,0,1.4,0,2,0.2c0.7,0.1,1.3,0.2,1.9,0.4c0.6,0.2,1.2,0.4,1.7,0.6c2.2,0.9,3.8,2.1,5,3.2c0.6,0.5,1.1,1.1,1.6,1.5
					c0.5,0.5,0.8,0.9,1,1.2C118.1,37.3,118.3,37.7,118.4,37.7L118.4,37.7z"/>
			</g>
			<g>
				<path class="st0" d="M131.8,37.5c3.4-4.6,9-7.3,14.5-7c5.5,0.3,10.8,3.6,13.7,8.6c3.5,5.8,3.6,13.7,0.4,19.7
					c-3.3,6-9.8,9.7-16.1,9.2c-6.4-0.4-12.4-5-14.9-11.4C126.9,50.4,127.9,42.8,131.8,37.5z"/>
				<path class="st25" d="M131.3,37.1c0,0,0.3-0.4,0.8-1c0.3-0.3,0.5-0.7,1-1.2c0.5-0.4,0.9-1,1.6-1.5c1.2-1.1,2.9-2.1,5.1-3
					c2.1-0.8,4.8-1.3,7.6-0.9c0.3,0,0.7,0.1,1,0.1c0.4,0.1,0.7,0.2,1.1,0.3c0.4,0.1,0.7,0.2,1.1,0.3c0.4,0.1,0.7,0.3,1,0.4
					c0.3,0.1,0.7,0.3,1.1,0.4c0.3,0.2,0.7,0.4,1,0.6c0.7,0.4,1.3,0.8,2,1.3c2.5,1.9,4.8,4.7,6,7.8c1.3,3.3,1.8,6.9,1.4,10.4
					c-0.4,3.5-1.8,7.1-3.9,9.9c-2.2,2.9-5.3,5.1-8.6,6.2c-3.4,1.1-7,1.1-10.2,0.1c-3.2-1-6-3-8-5.3l-0.8-0.9
					c-0.2-0.3-0.4-0.6-0.6-0.9c-0.4-0.6-0.9-1.2-1.2-1.9c-0.3-0.7-0.7-1.3-0.9-2c-0.2-0.7-0.4-1.3-0.6-1.9c-0.7-2.7-0.8-5.2-0.6-7.4
					c0.1-1.1,0.3-2.1,0.5-3.1c0.3-0.9,0.5-1.8,0.8-2.5c0.3-0.7,0.6-1.4,0.9-1.9c0.3-0.6,0.6-1,0.8-1.4
					C131,37.5,131.3,37.1,131.3,37.1z M132.3,37.9c0,0.1-0.3,0.4-0.7,1c-0.2,0.3-0.5,0.7-0.8,1.3c-0.2,0.5-0.5,1.1-0.8,1.8
					c-0.2,0.7-0.5,1.5-0.8,2.4c-0.1,0.9-0.4,1.8-0.5,2.9c-0.2,2.1-0.1,4.5,0.5,6.9c0.2,0.6,0.4,1.3,0.6,1.9c0.2,0.6,0.6,1.2,0.8,1.8
					c0.3,0.6,0.7,1.2,1.1,1.8c0.2,0.3,0.4,0.6,0.6,0.9l0.7,0.8c1.9,2.2,4.5,4.1,7.5,5.1c3,1,6.5,1.1,9.7,0c3.2-1,6.2-3.1,8.3-5.8
					c2.2-2.8,3.1-6.2,3.4-9.6c0.2-3.4-0.5-6.8-1.8-9.5c-1.4-3-3.5-5.1-5.8-6.7c-0.6-0.4-1.1-0.8-1.8-1.1c-0.3-0.2-0.6-0.3-0.9-0.5
					c-0.3-0.1-0.6-0.2-0.9-0.4c-0.3-0.1-0.6-0.2-0.9-0.3c-0.3-0.1-0.6-0.1-0.9-0.2c-0.3-0.1-0.6-0.2-0.9-0.2c-0.3,0-0.7-0.1-1-0.1
					c-0.3,0-0.7-0.1-1-0.1c0.2,0,0,0,0.1,0c-0.1,0-0.2,0-0.2,0l-0.2,0l-0.4,0c-0.6,0-1.1,0-1.7,0.1c-1.1,0.1-2.1,0.4-3.1,0.6
					c-1.9,0.6-3.5,1.3-4.8,2.1c-0.7,0.4-1.1,0.8-1.6,1.2c-0.5,0.3-0.8,0.7-1.1,1C132.7,37.6,132.4,37.9,132.3,37.9z"/>
			</g>
			<path class="st48" d="M105.1,59.6c-3.3-2.6-6.1-5.7-8.3-9.2c-1-1.5-1.8-3.2-1.8-5s1.1-3.7,2.9-4.1c1.1-0.2,2.3,0.2,3.2,0.9
				s1.5,1.7,2.1,2.6c0.4-1.5,1.6-3.4,3-4.2c1.4-0.7,3.3-0.7,4.5,0.4c1.6,1.5,1.5,4.1,0.9,6.2C110.4,52.1,108.1,55.8,105.1,59.6z"/>
			<path class="st48" d="M143.5,59.6c3.3-2.6,6.1-5.7,8.3-9.2c1-1.5,1.8-3.2,1.8-5c0-1.8-1.1-3.7-2.9-4.1c-1.1-0.2-2.3,0.2-3.2,0.9
				c-0.9,0.7-1.5,1.7-2.1,2.6c-0.4-1.5-1.6-3.4-3-4.2c-1.4-0.7-3.3-0.7-4.5,0.4c-1.6,1.5-1.5,4.1-0.9,6.2
				C138.2,52.1,140.5,55.8,143.5,59.6z"/>
		</g>
	</g>
</g>
</svg>
