<?xml version="1.0" encoding="utf-8"?>
<!-- Generator: Adobe Illustrator 27.2.0, SVG Export Plug-In . SVG Version: 6.00 Build 0)  -->
<svg version="1.1" xmlns="http://www.w3.org/2000/svg" xmlns:xlink="http://www.w3.org/1999/xlink" x="0px" y="0px"
	 viewBox="0 0 198.9 196.5" style="enable-background:new 0 0 198.9 196.5;" xml:space="preserve">
<style type="text/css">
	.st0{fill:#FFFFFF;}
	.st1{fill:#15264B;}
	.st2{opacity:0.35;}
	.st3{fill:#274B8B;}
	.st4{fill:#0F3747;}
	.st5{opacity:0.5;}
	.st6{opacity:0.4;}
	.st7{fill:#183E75;}
	.st8{opacity:0.2;}
	.st9{fill:#38276B;}
	.st10{fill:#44AC34;}
	.st11{fill:#00983A;}
	.st12{fill:#FCF8FB;}
	.st13{opacity:0.7;}
	.st14{fill:#94613F;}
	.st15{fill:#FFD100;}
	.st16{fill:#EA5B0C;}
	.st17{fill:#D3D5ED;}
	.st18{fill:#D8D8D8;}
	.st19{fill:#121A28;}
	.st20{fill:#E5E1D4;}
	.st21{opacity:0.25;}
	.st22{opacity:0.6;}
	.st23{fill:#FFD346;}
	.st24{fill:#FFDA36;}
	.st25{fill:#1E1E1C;}
	.st26{fill:#EEEDED;}
	.st27{opacity:0.3;}
	.st28{fill:#407FC1;}
	.st29{fill:#B0B3B1;}
	.st30{opacity:0.8;}
	.st31{fill:#E5E5E4;}
	.st32{fill:#BCBCBB;}
	.st33{fill:#E72D47;}
	.st34{fill:#F7A710;}
	.st35{fill:#F2EFEC;}
	.st36{fill:#F9B116;}
	.st37{fill:#F38F1C;}
	.st38{fill:none;stroke:#2A3856;stroke-width:2.1963;stroke-linecap:round;stroke-miterlimit:10;}
	.st39{fill:#D66C12;}
	.st40{fill:#FFD767;}
	.st41{fill:#F7A83D;}
	.st42{fill:#FECF70;}
	.st43{fill:#FFED91;}
	.st44{opacity:0.41;}
	.st45{opacity:0.26;}
	.st46{fill:none;}
	.st47{fill:#261E26;}
	.st48{fill:#E30613;}
	.st49{fill:#E9E8E8;}
	.st50{fill:#4A92CF;}
	.st51{fill:#386EB5;}
	.st52{fill:#B6B6B7;}
	.st53{fill:#DDDDDD;}
	.st54{fill:#FDC423;}
	.st55{fill:#E2A415;}
	.st56{fill:#F9B044;}
	.st57{fill:#EB5759;}
	.st58{fill:#E5201F;}
	.st59{fill:none;stroke:#FFFFFF;stroke-width:2.3076;stroke-linecap:round;stroke-miterlimit:10;}
	.st60{fill:#EDC5D6;}
	.st61{fill:#4A153F;}
	.st62{fill:#E9C8D2;}
	.st63{fill:#DFB0BE;}
	.st64{fill:#D6D6EA;}
	.st65{fill:#BDBDE0;}
	.st66{fill:#232323;}
	.st67{fill:#A7ABCC;}
	.st68{fill:#EDCCA9;}
	.st69{fill:#492311;}
	.st70{fill:#2A3856;}
	.st71{fill:#05646E;}
	.st72{fill:#F28D70;}
	.st73{fill:#BEC5CA;}
	.st74{fill:#54767A;}
</style>
<g id="Fondo">
</g>
<g id="Grafica">
</g>
<g id="Informazioni">
	<g>
		<g>
			<g>
				<path class="st0" d="M122.6,106.6V155c0,8.2-6.7,14.8-14.8,14.8h-49c-8.1,0-14.8-6.7-14.8-14.8v-48.5c0-4.8,2.3-9.1,5.9-11.8
					c2.5-1.9,5.6-3,8.9-3h49c3.7,0,7,1.4,9.6,3.6C120.6,98.1,122.6,102.1,122.6,106.6z"/>
			</g>
			<g>
				<path class="st1" d="M107.8,91.8c8.1,0,14.8,6.7,14.8,14.8V155c0,8.1-6.7,14.8-14.8,14.8h-49c-8.1,0-14.8-6.7-14.8-14.8v-48.5
					c0-8.1,6.7-14.8,14.8-14.8H107.8 M107.8,89.3h-49c-9.6,0-17.3,7.8-17.3,17.3V155c0,9.6,7.8,17.3,17.3,17.3h49
					c9.6,0,17.3-7.8,17.3-17.3v-48.5C125.1,97,117.4,89.3,107.8,89.3L107.8,89.3z"/>
			</g>
			<g>
				<path class="st0" d="M101.9,90c18.2,6.3,19.6,20.7,32.2,29.1c5.5,3.6,11.2,2.7,18,0.9c3.6-1,5.4,2.6,5.6,8.8
					c0.3,8.6-2.6,14.7-20.5,15c-20.8,0.4-24.4-24.3-24.4-24.3"/>
			</g>
			<g class="st2">
				<path class="st3" d="M137.3,143.9c-20.8,0.4-24.4-24.3-24.4-24.3l-2.1-5.6c8.6,5.2,7.2,23.7,26.5,23.3
					c14.8-0.3,19.4-4.5,20.3-10.8c0.1,0.7,0.2,1.5,0.2,2.4C158.1,137.4,155.1,143.5,137.3,143.9z"/>
			</g>
			<g>
				<path class="st1" d="M136.8,145.1c-8.8,0-15.9-4.4-20.6-12.6c-3.6-6.3-4.5-12.5-4.6-12.7c-0.1-0.7,0.4-1.3,1.1-1.4
					c0.7-0.1,1.3,0.4,1.4,1.1c0,0.1,0.9,6.1,4.3,11.9c4.4,7.6,10.8,11.5,18.9,11.3c8.5-0.2,14-1.7,16.8-4.6c1.9-2,2.7-4.8,2.5-9.1
					c-0.2-5.2-1.4-6.9-2.1-7.4c-0.3-0.2-0.9-0.5-1.9-0.2c-6.5,1.8-12.9,3-19-1.1c-5.3-3.5-8.7-8.1-12-12.6
					c-4.9-6.6-9.5-12.8-19.9-16.4c-0.7-0.2-1-0.9-0.8-1.6c0.2-0.7,0.9-1,1.6-0.8c11.2,3.8,16.2,10.7,21.1,17.2
					c3.3,4.5,6.4,8.7,11.4,12c4.8,3.2,9.6,2.7,17,0.7c1.5-0.4,2.9-0.2,4,0.6c1.9,1.4,3,4.5,3.2,9.3c0.1,3.4-0.1,7.7-3.2,10.9
					c-3.3,3.5-9.2,5.2-18.5,5.4C137.1,145.1,136.9,145.1,136.8,145.1z"/>
			</g>
			<g>
				<path class="st0" d="M64.6,90c-18.2,6.3-20.9,21.2-33.3,29.9c-3.7,2.6-8.8,4-16.9,2.7c-3.7-0.6-8.1-1.1-8.9,5
					c-0.6,5,8,16.2,23.8,16.2c20.8,0,24.4-24.3,24.4-24.3L64.6,90z"/>
			</g>
			<g class="st2">
				<path class="st3" d="M56,115.2l-2.3,4.4c0,0-3.6,24.2-24.4,24.3c-15.8,0-24.4-11.2-23.8-16.2c0-0.3,0.1-0.7,0.2-0.9
					c1.6,8,10.8,12.8,24,12.8C49.2,139.5,45.4,119.7,56,115.2z"/>
			</g>
			<g>
				<path class="st1" d="M29.2,145.1c-12.1,0-18.8-6.2-21.2-8.8c-2.7-3-4.1-6.3-3.8-8.7c0.3-2.4,1.2-4.2,2.6-5.2
					c2.3-1.7,5.5-1.2,7.8-0.9c6.9,1.1,12,0.3,16-2.5c4.8-3.3,8-7.6,11.4-12.1c5.3-6.9,10.8-14.1,22.2-18c0.7-0.2,1.4,0.1,1.6,0.8
					c0.2,0.7-0.1,1.4-0.8,1.6c-10.7,3.7-15.9,10.5-21,17.1c-3.4,4.4-6.9,9-12,12.6c-4.5,3.2-10.3,4.1-17.8,3
					c-2.3-0.4-4.5-0.6-5.9,0.4c-0.9,0.6-1.4,1.8-1.6,3.5c-0.2,1.3,0.6,3.8,3.2,6.8c2.1,2.4,8.3,8,19.3,8c0,0,0,0,0.1,0
					c19.5,0,23.2-23,23.2-23.2c0.1-0.7,0.7-1.2,1.4-1.1c0.7,0.1,1.2,0.7,1.1,1.4c0,0.3-1,6.4-4.6,12.6
					C45.6,140.7,38.3,145.1,29.2,145.1C29.3,145.1,29.2,145.1,29.2,145.1z"/>
			</g>
			<g>
				<path class="st1" d="M49.6,132.1c-0.5,0-0.9-0.4-0.9-0.9c0-10.4-10-17.9-10.1-17.9c-0.4-0.3-0.5-0.8-0.2-1.2
					c0.3-0.4,0.8-0.5,1.2-0.2c0.4,0.3,10.9,8.1,10.9,19.4C50.5,131.7,50.1,132.1,49.6,132.1z"/>
			</g>
			<g>
				<path class="st0" d="M15.8,123.9c-3.3-3.8,0.2-6.2,3.7-4.2c3.2,1.8,6.1,4,9.7,3c0,0-0.3,2.3-3.2,4.8
					C23.1,130.1,15.8,123.9,15.8,123.9z"/>
			</g>
			<g>
				<path class="st1" d="M14.8,124.8c-0.7-0.7-1.3-1.5-1.6-2.6c-0.2-0.6-0.2-1.2,0-1.9c0.1-0.3,0.3-0.7,0.5-1
					c0.2-0.3,0.5-0.5,0.7-0.8c0.6-0.4,1.2-0.6,1.7-0.7c0.6-0.1,1.1,0,1.7,0.1c0.5,0.1,1,0.3,1.5,0.5c0.2,0.1,0.4,0.2,0.7,0.4
					c0.1,0.1,0.2,0.1,0.3,0.2l0.3,0.2c1.4,0.9,2.7,1.9,4.1,2.7c0.7,0.4,1.4,0.6,2.2,0.8c0.8,0.2,1.6,0.2,2.4,0.1l0,0
					c0.1,0,0.2,0.1,0.2,0.2c0,0.1,0,0.2-0.1,0.2c-0.8,0.3-1.7,0.5-2.6,0.6c-0.9,0-1.8-0.2-2.6-0.4c-1.7-0.5-3.2-1.4-4.7-2.1
					l-0.3-0.1c-0.1,0-0.2-0.1-0.3-0.1c-0.2-0.1-0.3-0.1-0.5-0.2c-0.3-0.1-0.6-0.2-0.9-0.2c-0.6-0.1-1.1,0.1-1.4,0.3
					c-0.1,0.1-0.2,0.2-0.2,0.3c0,0.1,0,0.3,0,0.5c0.1,0.2,0.2,0.5,0.3,0.8c0.1,0.3,0.3,0.6,0.5,0.9l0,0.1c0.4,0.6,0.2,1.4-0.3,1.7
					C15.9,125.3,15.3,125.2,14.8,124.8z"/>
			</g>
			<g>
				<path class="st1" d="M30.7,136.4c-0.6,0.1-1.2,0-1.8-0.2c-0.6-0.2-1.1-0.6-1.5-1c-0.4-0.4-0.8-0.9-1.2-1.3l-1-1.3
					c-0.7-0.9-1.4-1.7-2.2-2.4c-0.8-0.7-1.6-1.4-2.5-2c-1-0.6-1.9-1.2-2.8-1.7c-0.9-0.5-1.9-1-2.9-1.3c-2-0.8-4-1-6-1l0,0
					c-0.7,0-1.3-0.5-1.3-1.2c0-0.6,0.5-1.2,1.1-1.3c2.4-0.4,5,0,7.3,0.9c2.3,0.9,4.3,2.4,6,3.8c0.9,0.7,1.8,1.6,2.6,2.5
					c0.8,0.9,1.4,1.9,2,2.9c0.6,1,1.1,2,1.7,2.9c0.3,0.4,0.7,0.8,1.1,1.1c0.4,0.3,1,0.4,1.5,0.5l0,0c0.1,0,0.2,0.1,0.2,0.2
					C30.9,136.3,30.8,136.4,30.7,136.4z"/>
			</g>
			<g>
				<path class="st0" d="M120.5,168.9H46.1c0,0-0.1-8.3,1.4-20.6c0.3-2.2,0.6-4.6,0.9-7c1.6-10.8,4.4-23.7,9.2-36.5
					c0.7-1.9,1.5-3.8,2.3-5.8c0.6-1.5,1.3-3,2-4.5c0.5-1.1,1-2.2,1.6-3.3h39.6c0.5,1.1,1.1,2.2,1.6,3.3c0.7,1.5,1.4,3.1,2,4.6
					c0.9,2.2,1.8,4.4,2.6,6.6c4.5,12.5,7.2,25,8.8,35.6c0.4,2.5,0.7,4.8,1,7C120.6,160.6,120.5,168.9,120.5,168.9z"/>
			</g>
			<g class="st2">
				<path class="st3" d="M120.5,168.9H46.1c0,0-0.1-8.3,1.4-20.6c0.3-2.2,0.6-4.6,0.9-7c0.7-4.7,1.6-9.7,2.8-14.9
					c3.9,13.6,16.4,23.9,31.7,23.9h0.7c15.3,0,27.8-10.3,31.7-23.8c1.2,5.2,2.1,10.2,2.8,14.8c0.4,2.5,0.7,4.8,1,7
					C120.6,160.6,120.5,168.9,120.5,168.9z"/>
			</g>
			<g>
				<path class="st1" d="M113.2,116.4c1.9,4.1,3.1,8.4,4.1,12.7c0.5,2.2,0.9,4.4,1.3,6.6c0.2,1.1,0.3,2.2,0.5,3.3l0.3,1.6l0.2,1.7
					l0.4,3.3l0.4,3.3c0.2,2.2,0.5,4.4,0.7,6.6c0.4,4.4,0.6,8.9,0.6,13.4l0,1.2h-1.3H82.7v-2.5h1.3v2.5H46.1h-1.3l0-1.2
					c0-4.5,0.3-9,0.6-13.4c0.4-4.5,0.9-8.9,1.5-13.3l0.2-1.7l0.3-1.7c0.2-1.1,0.4-2.2,0.6-3.3c0.4-2.2,0.8-4.4,1.2-6.6
					c0.2-1.1,0.4-2.2,0.7-3.3c0.3-1.1,0.6-2.2,0.9-3.2c0.3-1.1,0.7-2.1,1.1-3.2c0.4-1,0.9-2.1,1.4-3.1c0.1-0.2,0.4-0.3,0.6-0.2
					c0.1,0.1,0.2,0.2,0.2,0.4l0,0c0,2.3-0.5,4.5-0.9,6.6c-0.2,1.1-0.4,2.2-0.7,3.2l-0.7,3.2c-1,4.3-1.7,8.7-2.4,13
					c-0.7,4.4-1.2,8.8-1.5,13.2c-0.4,4.4-0.6,8.8-0.6,13.2l-1.3-1.2h37.8v2.5h-1.3v-2.5h37.8l-1.3,1.2c0-4.3-0.3-8.8-0.6-13.1
					c-0.4-4.4-0.8-8.8-1.5-13.1l-0.2-1.6l-0.3-1.6c-0.2-1.1-0.4-2.2-0.6-3.2c-0.4-2.2-0.8-4.3-1.3-6.5c-0.8-4.3-1.8-8.6-2.3-13l0,0
					c0-0.2,0.1-0.4,0.4-0.5C113,116.2,113.1,116.3,113.2,116.4z"/>
			</g>
			<g class="st2">
				<path class="st3" d="M117.4,95.3c-8.9,11.2-22.1,17.8-36.5,16.8c-12.5-0.9-23.5-7.5-31.1-17.3c2.5-1.9,5.6-3,8.9-3h49
					C111.5,91.8,114.8,93.1,117.4,95.3z"/>
			</g>
			<g>
				<g>
					<path class="st0" d="M132.2,70.9L132.2,70.9c-0.6,0-1-0.4-1-1l-0.2-29c0-0.6,0.4-1,1-1l0,0c5.8,0,10.6,4.7,10.6,10.5l0.1,9.9
						C142.8,66.1,138.1,70.9,132.2,70.9z"/>
					<path class="st1" d="M132.2,71.1c-0.3,0-0.6-0.1-0.9-0.4c-0.2-0.2-0.4-0.5-0.4-0.9l-0.2-29c0-0.3,0.1-0.6,0.4-0.9
						c0.2-0.2,0.5-0.4,0.9-0.4c2.9,0,5.6,1.1,7.6,3.1c2,2,3.2,4.7,3.2,7.6l0.1,9.9c0,2.9-1.1,5.6-3.1,7.6
						C137.8,70,135.1,71.1,132.2,71.1L132.2,71.1C132.2,71.1,132.2,71.1,132.2,71.1z M132.1,40.2C132.1,40.2,132.1,40.2,132.1,40.2
						c-0.3,0-0.5,0.1-0.6,0.2c-0.1,0.1-0.2,0.3-0.2,0.5l0.2,29c0,0.2,0.1,0.4,0.2,0.5c0.1,0.1,0.3,0.2,0.5,0.2c0,0,0,0,0,0l0,0
						c2.8,0,5.3-1.1,7.3-3.1c1.9-2,3-4.6,3-7.3l-0.1-9.9c0-2.8-1.1-5.3-3.1-7.3C137.4,41.2,134.9,40.2,132.1,40.2z"/>
				</g>
				<g class="st2">
					<path class="st3" d="M142.7,55.7l0,4.6c0,5.8-4.7,10.6-10.5,10.6c-0.6,0-1-0.4-1-1l0-7.7c0.2,0.4,0.5,0.6,0.9,0.6l0.7,0
						C137.4,62.8,141.3,59.8,142.7,55.7z"/>
				</g>
				<g>
					<path class="st1" d="M132.2,72.2c-0.6,0-1.2-0.2-1.6-0.7c-0.4-0.4-0.7-1-0.7-1.6l-0.2-29c0-0.6,0.2-1.2,0.7-1.6
						c0.4-0.4,1-0.7,1.6-0.7c3.2,0,6.2,1.2,8.4,3.4c2.3,2.2,3.5,5.2,3.5,8.4l0.1,9.9c0,3.2-1.2,6.2-3.4,8.4S135.4,72.2,132.2,72.2
						L132.2,72.2C132.2,72.2,132.2,72.2,132.2,72.2z M132.4,41.2l0.2,28.3c2.3-0.1,4.5-1.1,6.2-2.7c1.7-1.8,2.7-4.1,2.7-6.5
						l-0.1-9.9c0-2.5-1-4.8-2.7-6.5C136.9,42.2,134.7,41.3,132.4,41.2z"/>
				</g>
				<g>
					<path class="st0" d="M36.5,40.5L36.5,40.5c0.6,0,1,0.4,1,1l0.2,29c0,0.6-0.4,1-1,1h0c-5.8,0-10.6-4.7-10.6-10.5L26,51.1
						C25.9,45.2,30.6,40.5,36.5,40.5z"/>
					<path class="st1" d="M36.6,71.7c-5.9,0-10.8-4.8-10.8-10.7l-0.1-9.9c0-5.9,4.8-10.8,10.7-10.8l0,0c0.3,0,0.6,0.1,0.9,0.4
						c0.2,0.2,0.4,0.5,0.4,0.9l0.2,29c0,0.3-0.1,0.6-0.4,0.9C37.3,71.5,37,71.7,36.6,71.7C36.6,71.7,36.6,71.7,36.6,71.7z
						 M36.5,40.7c-5.7,0-10.3,4.7-10.3,10.4l0.1,9.9c0,5.7,4.7,10.3,10.3,10.3c0,0,0,0,0.1,0c0.2,0,0.4-0.1,0.5-0.2
						c0.1-0.1,0.2-0.3,0.2-0.5l-0.2-29c0-0.2-0.1-0.4-0.2-0.5C36.9,40.8,36.7,40.7,36.5,40.7L36.5,40.7z"/>
				</g>
				<g class="st2">
					<path class="st3" d="M37.6,62.4l0,8c0,0.6-0.4,1-1,1c-3.1,0-5.8-1.3-7.8-3.3c-1.8-1.9-2.8-4.4-2.8-7.1l0-4.2
						c1.7,3.6,5.4,6.2,9.6,6.1l1.1,0C37.1,62.9,37.4,62.7,37.6,62.4z"/>
				</g>
				<g>
					<path class="st1" d="M36.6,72.7c-6.5,0-11.8-5.3-11.9-11.8l-0.1-9.9c0-6.5,5.3-11.9,11.8-11.9l0,0c0.6,0,1.2,0.2,1.6,0.7
						c0.4,0.4,0.7,1,0.7,1.6l0.2,29c0,0.6-0.2,1.2-0.7,1.6C37.9,72.5,37.3,72.7,36.6,72.7C36.6,72.7,36.6,72.7,36.6,72.7z
						 M36.2,41.8c-4.9,0.2-8.9,4.3-8.9,9.3l0.1,9.9c0,5,4,9,9,9.2L36.2,41.8z"/>
				</g>
				<g>
					<circle class="st0" cx="84.4" cy="55.7" r="49.4"/>
					<path class="st1" d="M84.4,105.3c-1.1,0-2.2,0-3.3-0.1c-27.3-1.8-48-25.4-46.2-52.7c1.8-27.3,25.4-48,52.7-46.2
						c27.3,1.8,48,25.4,46.2,52.7c-0.9,13.2-6.8,25.3-16.8,34C107.9,101,96.5,105.3,84.4,105.3z M84.3,6.6c-25.6,0-47.3,20-49,45.9
						c-1.8,27,18.8,50.5,45.8,52.2c1.1,0.1,2.2,0.1,3.2,0.1c25.6,0,47.3-20,49-45.9c1.8-27-18.8-50.5-45.8-52.2
						C86.5,6.6,85.4,6.6,84.3,6.6z"/>
				</g>
				<g class="st2">
					<path class="st4" d="M133.6,52.1c0.2,2.2,0.2,4.5,0,6.8c-1.8,27.2-25.3,47.8-52.5,46c-27.2-1.8-47.8-25.3-46-52.5
						c0.1-0.8,0.1-1.6,0.2-2.3c1.8,24.2,21.1,44,46,45.6C107.7,97.5,130.7,78.1,133.6,52.1z"/>
				</g>
				<g>
					<path class="st1" d="M84.4,106.4c-1.1,0-2.2,0-3.3-0.1c-27.9-1.8-49.1-26-47.3-53.9c1.8-27.9,26-49.1,53.9-47.3
						c27.9,1.8,49.1,26,47.3,53.9C133.2,85.7,110.8,106.4,84.4,106.4z M84.3,7.6c-25.1,0-46.2,19.5-47.9,44.9
						c-1.7,26.4,18.4,49.3,44.8,51.1c1.1,0.1,2.1,0.1,3.2,0.1c25.1,0,46.2-19.5,47.9-44.9C134,32.4,113.9,9.5,87.5,7.7
						C86.4,7.7,85.4,7.6,84.3,7.6z"/>
				</g>
				<g>
					<path class="st3" d="M133.4,60.2c-0.5,9.6-4.1,18.4-9.8,25.6c-4.3,5.4-21.3,14.2-41.7,13.4C63,98.4,46.3,87.4,42.6,81.7
						c-5-7.7-7.7-16.8-7.2-26.4c1.3-25.5,23.7-35,50.8-33.6S134.7,34.6,133.4,60.2z"/>
				</g>
				<g>
					<path class="st1" d="M84.7,100.5c-0.9,0-1.9,0-2.8-0.1c-19.6-0.8-36.5-12-40.4-18.1c-5.3-8.2-7.9-17.6-7.4-27.2
						c0.6-12.5,6.1-21.9,16.4-28c8.9-5.3,21.3-7.7,35.8-6.9c14.5,0.7,26.6,4.4,34.9,10.5c9.6,7,14.1,16.9,13.5,29.5l0,0
						c-0.5,9.6-4,18.7-10.1,26.3C120.6,91.6,104.9,100.5,84.7,100.5z M81.5,22.8c-15.9,0-43.4,4.1-44.8,32.5c-0.5,9.1,2,17.9,7,25.7
						c3.6,5.5,19.8,16.1,38.3,16.9c20.4,0.8,36.8-8.1,40.6-12.9c5.8-7.2,9.1-15.8,9.5-24.8c0.6-11.6-3.6-20.8-12.4-27.2
						c-7.9-5.8-19.5-9.3-33.5-10C84.8,22.8,83.2,22.8,81.5,22.8z M133.4,60.2L133.4,60.2L133.4,60.2z"/>
				</g>
				<g class="st5">
					
						<ellipse transform="matrix(0.2275 -0.9738 0.9738 0.2275 36.4468 157.7146)" class="st0" cx="117.6" cy="55.9" rx="8.7" ry="6.3"/>
				</g>
				<g class="st5">
					<ellipse transform="matrix(0.3599 -0.933 0.933 0.3599 1.8824 148.2975)" class="st0" cx="109" cy="72.8" rx="4" ry="3.4"/>
				</g>
				<g class="st6">
					<path class="st7" d="M125,35.9c5.7,6,8.8,14,8.3,24.3c-0.5,9.6-4.1,18.4-9.8,25.6c-4.3,5.4-21.3,14.2-41.7,13.4
						c-7.2-0.3-14.1-2.1-20-4.5c25.1,0.5,45.8-10.4,51.1-17.1c7.3-9.1,11.8-20.2,12.4-32.5C125.6,41.9,125.4,38.8,125,35.9z"/>
				</g>
				<g>
					<path class="st1" d="M130.3,38.8c-0.3,0-0.6-0.1-0.9-0.4l-0.1-0.1l-0.1-0.1c-7.7-12.1-23.4-19.5-43.1-20.5
						c-19.8-1-36.1,5.1-44.9,16.7l-0.1,0.1c-0.5,0.5-1.3,0.6-1.8,0.1c-0.5-0.5-0.6-1.3-0.1-1.8c9.3-12.3,26.4-18.7,47.1-17.7
						c20.5,1,36.9,8.9,45.1,21.6c0.4,0.5,0.3,1.2-0.1,1.6C131,38.7,130.6,38.8,130.3,38.8z"/>
				</g>
				<g class="st5">
					<path class="st0" d="M45.6,71c0,0-6.6-25.6,7.4-34.9s33.6-8.3,33.1-7.1c0,0-21.9,4.1-31.2,20.8C47.8,62.6,45.6,71,45.6,71z"/>
				</g>
			</g>
			<g>
				<g class="st8">
					<path class="st9" d="M162,137.9v0.2h-0.7C161.6,138,161.8,137.9,162,137.9z"/>
				</g>
				<g>
					<path class="st10" d="M145.9,128.1c0,3.7,1.5,7,3.9,9.4c2.4,2.4,5.7,3.9,9.4,3.9H172l-4.6-26.6h-8.2
						C151.9,114.7,145.9,120.7,145.9,128.1z M149.8,128.1c0-4.4,5-8,9.4-8h3.8l2.8,16.1h-6.5c-2.2,0-4.2-0.9-5.7-2.4
						C152.1,132.3,149.8,130.3,149.8,128.1z"/>
				</g>
				<g class="st2">
					<path class="st4" d="M145.9,128.1c0,3.7,1.5,7,3.9,9.4c2.4,2.4,5.7,3.9,9.4,3.9H172l-0.4-2.5h-12.3c-3.7,0-7-1.5-9.4-3.9
						c-2.1-2.1-3.5-5-3.8-8.2C145.9,127.2,145.9,127.6,145.9,128.1z M165.3,133.6h0.4l-2.8-16.1h-3.8c-4.4,0-6.4,2.4-9,6.9
						c-0.2,0.4-0.4,2-0.4,2.4c0.6-3.9,5.4-6.8,9.4-6.8h3.8L165.3,133.6z"/>
				</g>
				<g>
					<path class="st1" d="M173.5,142.6h-14.3c-3.9,0-7.5-1.5-10.3-4.3c-2.8-2.8-4.3-6.4-4.3-10.3c0-8,6.5-14.6,14.6-14.6h9.3
						L173.5,142.6z M159.2,116c-6.6,0-12.1,5.4-12.1,12.1c0,3.2,1.3,6.2,3.5,8.5c2.3,2.3,5.3,3.5,8.5,3.5h11.3l-4.1-24.1H159.2z
						 M167.2,137.4h-8c-4.3,0-10.7-2.5-10.7-9.3c0-5.8,5.4-9.3,10.7-9.3h4.8L167.2,137.4z M159.2,121.3c-4,0-8.2,2.4-8.2,6.8
						c0,6.7,8.1,6.8,8.2,6.8h5l-2.3-13.6H159.2z"/>
				</g>
				<g>
					<path class="st11" d="M165.6,140.9c1.2,2.6,3.7,4.5,6.6,4.8c1.6,0.2,3.2,0.3,4.8,0.3c1.6,0,3.2-0.1,4.8-0.3
						c2.9-0.4,5.3-2.2,6.6-4.9c2.9-6.2,4.5-13,4.5-19.9c0-1,0-2-0.1-3l-0.5-7.5c0,1.6-6.8,2.9-15.3,2.9c-8.4,0-15.3-1.3-15.3-2.9
						l-0.5,7.5C160.7,125.9,162.3,133.8,165.6,140.9z"/>
				</g>
				<g>
					<g>
						<path class="st12" d="M181.1,130.6c-0.6-1.1-1.4-2-2.2-2.9c-0.5-0.5-0.8-0.9-1.2-1.4c-0.5-0.7-0.8-1.4-1-2.3
							c0-0.2-0.1-0.4-0.1-0.6c0-0.3-0.1-0.6-0.1-0.9c0-0.3,0.1-0.5,0.4-0.5c0.6-0.1,1.1-0.1,1.6,0c0,0,0,0,0,0
							c0.4,0.1,0.8,0.2,1.1,0.5c2.7,1.6,4.3,5.1,3.7,8.1c-0.2,1.1-0.6,2.1-1.6,2.8C181.8,132.3,181.6,131.4,181.1,130.6z"/>
					</g>
					<g>
						<path class="st12" d="M175.3,122.8c0,1.4,0.4,2.7,1.1,3.8c0.5,0.9,1.2,1.7,2,2.4c0.4,0.4,0.8,0.8,1.1,1.3
							c0.7,1,1.1,2.1,1.1,3.4c0,0.3-0.1,0.5-0.4,0.5c-1,0.2-2,0-2.8-0.5c-1.8-1-3-3-3.5-5.1c-0.2-1-0.3-2.1-0.1-3.1c0,0,0,0,0,0
							c0-0.2,0.1-0.4,0.2-0.6C174.1,124.1,174.5,123.3,175.3,122.8z"/>
					</g>
				</g>
				<g class="st13">
					<path class="st0" d="M192.8,121c0,6.9-1.5,13.7-4.5,19.9c-0.5,1-1.2,1.9-2,2.7c2.7-6,4.1-12.6,4.1-19.2c0-1,0-2-0.1-3l-0.3-4.1
						c-0.1-1.4-1.4-2.4-2.7-2c-3.1,0.7-8.5,1-12.3,0.4c-3.6-0.6-7.1-1.9-10.1-3.4c2.8,0.7,7.1,1.1,12,1.1c8.4,0,15.3-1.3,15.3-2.9
						l0.5,7.5C192.8,119,192.8,120,192.8,121z"/>
				</g>
				<g class="st2">
					<path class="st4" d="M165.7,141.1c1.2,2.5,3.5,4.2,6.2,4.6c1.7,0.2,3.3,0.3,5,0.3c1.7,0,3.3-0.1,5-0.3c2.7-0.4,5-2,6.2-4.5
						c0,0,0,0,0,0c0,0,0,0.1-0.1,0.1c-3,0.8-6.1,1.2-9.2,1.2c0,0-0.1,0-0.1,0c-5.8,0-10.9-3.7-12.9-9.1c-2.2-6-3.2-12.5-2.7-19
						l0.2-2.7c-1-0.4-1.6-0.8-1.6-1.3l-0.5,7.5C160.7,126,162.3,134,165.7,141.1z"/>
				</g>
				<g>
					<path class="st0" d="M161.7,110.5c0,1.6,6.8,2.9,15.3,2.9c8.4,0,15.3-1.3,15.3-2.9c0-1.6-6.8-2.9-15.3-2.9
						C168.6,107.6,161.7,108.9,161.7,110.5z"/>
				</g>
				<g>
					<path class="st0" d="M161.7,110.5c0,0.5,0.7,1,2,1.4c2.6,0.9,7.6,1.4,13.2,1.4c5.6,0,10.6-0.6,13.2-1.4c1.3-0.4,2-0.9,2-1.4
						c0-1.6-6.8-2.9-15.3-2.9C168.6,107.6,161.7,108.9,161.7,110.5z"/>
				</g>
				<g>
					<path class="st14" d="M164,112c2.6,0.9,7.6,1.4,13.2,1.4s10.6-0.6,13.2-1.4c-2.6-0.9-7.6-1.4-13.2-1.4S166.6,111.1,164,112z"/>
				</g>
				<g>
					<path class="st1" d="M177,147.3c-1.7,0-3.4-0.1-5.1-0.3c-3.1-0.4-5.9-2.4-7.3-5.3c-3.5-7.4-5.1-15.6-4.6-23.7l0.5-7.5l2.5,0.1
						c0-0.2-0.1-0.3-0.1-0.4c0.6,0.7,5.5,2,14.1,2c8.6,0,13.5-1.3,14.1-2c0,0-0.1,0.2-0.1,0.4l2.5-0.1l0.5,7.5c0.1,1,0.1,2,0.1,3
						c0,7.2-1.6,14.4-4.8,20.8c-1.4,2.8-4,4.8-7.2,5.2C180.4,147.2,178.7,147.3,177,147.3z M162.8,113l-0.3,5.1
						c-0.5,7.7,1,15.5,4.4,22.5l0,0c1,2.1,3,3.6,5.3,3.9c3.2,0.4,6.4,0.4,9.6,0c2.3-0.3,4.3-1.7,5.3-3.8c3-6.1,4.5-12.9,4.5-19.7
						c0-1,0-2-0.1-2.9l-0.3-5.1c-0.8,0.3-1.9,0.6-3.1,0.8c-3,0.6-6.9,0.9-11,0.9c-4.2,0-8.1-0.3-11-0.9
						C164.7,113.5,163.6,113.3,162.8,113z"/>
				</g>
				<g>
					<path class="st1" d="M177,114.7c-4.2,0-8.1-0.3-11-0.9c-3.8-0.7-5.5-1.7-5.5-3.3s1.7-2.6,5.5-3.3c3-0.6,6.9-0.9,11-0.9
						c4.2,0,8.1,0.3,11,0.9c3.8,0.7,5.5,1.7,5.5,3.3s-1.7,2.6-5.5,3.3C185.1,114.3,181.1,114.7,177,114.7z M163.5,110.5
						c1.6,0.7,6.3,1.6,13.5,1.6c7.3,0,11.9-0.9,13.5-1.6c-1.6-0.7-6.3-1.6-13.5-1.6C169.7,108.9,165.1,109.8,163.5,110.5z"/>
				</g>
			</g>
			<g>
				<path class="st0" d="M85.7,181.8c0,0-30.9,3.5-44.7-8.3c-18.8-16.1-2.7-36.4,11.3-31c12.1,4.7,17.1,8.4,38.7,11.9
					c18.1,3,33.6,21.5,20.6,32.3C102.5,194.4,85.7,181.8,85.7,181.8z"/>
			</g>
			<g class="st2">
				<path class="st3" d="M111.7,186.8c-9.2,7.6-25.9-4.9-25.9-4.9s-30.9,3.5-44.7-8.3c-5.4-4.7-7.9-9.6-8.4-14.3
					c0.9,1.1,2,2.2,3.2,3.2c13.7,11.8,44.7,8.3,44.7,8.3s16.8,12.5,25.9,4.9c3.6-3,5-6.5,4.8-10.2
					C117.3,172.3,118.9,180.7,111.7,186.8z"/>
			</g>
			<g>
				<path class="st1" d="M104.3,190.5c-8.1,0-16.9-5.9-19-7.3c-4.2,0.4-31.9,2.7-45.1-8.7c-10.7-9.2-10.4-19.4-6.5-25.8
					c4.1-6.9,12.1-9.9,19.1-7.3c2.7,1,5,2,7.3,3c7.8,3.3,14.5,6.1,31.2,8.9c12,2,23.4,10.8,25.9,20.2c1.5,5.5-0.2,10.5-4.7,14.3
					C110.1,189.7,107.2,190.5,104.3,190.5z M86.1,180.5l0.4,0.3c0.1,0.1,9.7,7.1,17.9,7.1c2.4,0,4.7-0.6,6.5-2.2
					c3.8-3.1,5.1-7.2,3.9-11.7c-2.3-8.5-12.8-16.6-23.9-18.4c-17-2.8-23.8-5.7-31.8-9c-2.2-0.9-4.5-1.9-7.2-2.9
					c-5.8-2.2-12.5,0.4-16,6.2c-3.3,5.6-3.5,14.5,6,22.6c13.2,11.3,43.4,8,43.7,8L86.1,180.5z"/>
			</g>
			<g>
				<path class="st1" d="M56.8,181.4c-0.3,0-0.6-0.2-0.8-0.5c-0.2-0.4-0.1-1,0.4-1.2c13-6.9,9.3-31,9.3-31.3c-0.1-0.5,0.3-0.9,0.7-1
					c0.5-0.1,0.9,0.3,1,0.7c0.2,1,3.9,25.6-10.2,33.1C57.1,181.4,57,181.4,56.8,181.4z"/>
			</g>
			<g>
				<path class="st0" d="M140.3,119.4c-1.1,3.8,0.1,7.3,2.3,8.2c4.6,1.9,7.9-7,7.9-7s-1.5-6.4-4.6-6.3
					C143.7,114.4,141.3,116,140.3,119.4z"/>
			</g>
			<g class="st2">
				<path class="st3" d="M150.4,120.6c0,0-3.3,8.9-7.9,7c-2.2-0.9-3.4-4.5-2.3-8.2c0.2-0.8,0.5-1.4,0.9-2c-0.1,2.7,1,5,2.7,5.7
					c2.6,1.1,4.8-1.4,6.2-3.7C150.3,120.1,150.4,120.6,150.4,120.6z"/>
			</g>
			<g>
				<path class="st1" d="M143.9,129.2c-0.6,0-1.2-0.1-1.8-0.4c-3-1.2-4.3-5.6-3-9.8l0,0c1.3-4.3,4.5-6,6.8-6.1
					c3.9-0.1,5.6,6.1,5.9,7.4l0.1,0.4l-0.1,0.4c-0.2,0.6-2.4,6.2-5.9,7.7C145.1,129.1,144.5,129.2,143.9,129.2z M141.5,119.8
					c-0.9,3.1,0.1,6,1.5,6.6c0.5,0.2,1.1,0.2,1.6,0c2-0.9,3.7-4.2,4.4-5.8c-0.6-2.2-1.9-5-3.1-4.9
					C144.3,115.7,142.4,117,141.5,119.8L141.5,119.8z"/>
			</g>
			<g>
				<path class="st0" d="M158.6,118.7c0,0-4.2-6.9-10.2-3.4c-4.6,2.7-3.9,12.7-3.5,15c1.7,8.1,7.6,12.8,12.1,5.8
					C157.3,135.7,159.5,127.5,158.6,118.7z"/>
			</g>
			<g class="st2">
				<path class="st3" d="M157.1,136c-4.5,7.1-10.4,2.4-12.1-5.8c-0.2-1.1-0.5-4.1-0.2-7.2c0.1,0.6,0.1,1.1,0.2,1.4
					c1.7,8.1,7.4,8.8,12.1,5.8c0.2-0.2,1.3-4.5,1.7-10.1C159.3,128.3,157.3,135.7,157.1,136z"/>
			</g>
			<g>
				<path class="st1" d="M152.2,140.8c-0.3,0-0.7,0-0.9-0.1c-3.4-0.6-6.4-4.6-7.6-10.2c-0.4-2.1-1.4-13.2,4.1-16.4
					c5.6-3.3,10.3,1.1,12,3.9l0.2,0.3l0,0.3c0.9,8.7-1.3,17.4-1.8,18.2C156,140.1,153.7,140.8,152.2,140.8z M151.8,115.6
					c-0.8,0-1.7,0.2-2.7,0.8c-3.8,2.2-3.3,11.3-2.8,13.6c0.9,4.4,3.1,7.7,5.4,8.1c1.8,0.3,3.2-1.3,4.2-2.7c0.4-1,2.2-8.4,1.4-16.2
					C156.7,118.3,154.7,115.6,151.8,115.6z M155.9,135.3C155.9,135.3,155.9,135.3,155.9,135.3C155.9,135.3,155.9,135.3,155.9,135.3z
					"/>
			</g>
			<g>
				<g>
					<polygon class="st3" points="93.1,143.5 87,135.7 87,132.4 92.7,124.8 101.2,124.8 93.7,133.8 101.7,143.5 					"/>
					<path class="st1" d="M98.6,126.1l-6.5,7.7l7.1,8.6h-5.5l-5.5-7.1v-2.5l5.1-6.7H98.6 M103.8,123.6h-5.3h-5.2h-1.2l-0.7,1
						l-5.1,6.7l-0.5,0.7v0.8v2.5v0.8l0.5,0.7l5.5,7.1l0.7,1h1.2h5.5h5.2l-3.3-4l-5.8-7l5.2-6.1L103.8,123.6L103.8,123.6z"/>
				</g>
				<g>
					<polygon class="st15" points="65.4,143.5 72.9,134.6 64.9,124.8 73.5,124.8 79.6,132.7 79.6,136 73.9,143.5 					"/>
					<path class="st1" d="M72.9,126.1l5.5,7.1v2.5l-5.1,6.7H68l6.5-7.7l-7.1-8.6H72.9 M74.1,123.6h-1.2h-5.5h-5.2l3.3,4l5.8,7
						l-5.2,6.1l-3.4,4H68h5.2h1.2l0.7-1l5.1-6.7l0.5-0.7v-0.8v-2.5v-0.8l-0.5-0.7l-5.5-7.1L74.1,123.6L74.1,123.6z"/>
				</g>
				<g>
					<polygon class="st11" points="83,149.8 74.1,157.3 74.1,148.8 81.6,143.1 84.9,143.1 92.8,149.1 92.8,157.8 					"/>
					<path class="st1" d="M84.5,144.3l7.1,5.5v5.5l-8.6-7.1l-7.7,6.5v-5.2l6.7-5.1H84.5 M85.3,141.8h-0.8H82h-0.8l-0.7,0.5l-6.7,5.1
						l-1,0.7v1.2v5.2v5.3l4-3.4l6.1-5.2l7,5.8l4,3.3v-5.2v-5.5v-1.2l-1-0.7l-7.1-5.5L85.3,141.8L85.3,141.8z"/>
				</g>
				<g>
					<polygon class="st16" points="81.6,125.4 73.7,119.3 73.7,110.6 83.5,118.7 92.5,111.1 92.5,119.6 84.9,125.4 					"/>
					<path class="st1" d="M75,113.2l8.6,7.1l7.7-6.5v5.2l-6.7,5.1H82l-7.1-5.5V113.2 M72.5,108v5.2v5.5v1.2l1,0.7l7.1,5.5l0.7,0.5
						H82h2.5h0.8l0.7-0.5l6.7-5.1l1-0.7V119v-5.2v-5.3l-4,3.4l-6.1,5.2l-7-5.8L72.5,108L72.5,108z"/>
				</g>
			</g>
			<g>
				<path class="st1" d="M124.7,141.2c-0.4,0-0.8-0.3-0.9-0.8c-2.5-17.7,6.5-24,6.9-24.2c0.4-0.3,0.9-0.2,1.2,0.2
					c0.3,0.4,0.2,0.9-0.2,1.2c-0.1,0.1-8.5,6-6.1,22.5c0.1,0.5-0.3,0.9-0.7,1C124.8,141.2,124.8,141.2,124.7,141.2z"/>
			</g>
			<g>
				<path class="st0" d="M79.7,181.8c0,0,30.9,3.5,44.7-8.3c18.8-16.1,2.7-36.4-11.3-31c-12.1,4.7-17.1,8.4-38.7,11.9
					c-18.1,3-33.6,21.5-20.6,32.3C62.9,194.4,79.7,181.8,79.7,181.8z"/>
			</g>
			<g class="st2">
				<path class="st3" d="M124.3,173.5c-13.7,11.8-44.7,8.3-44.7,8.3s-16.8,12.5-25.9,4.9c-4.4-3.7-5.5-8.3-4.3-12.9
					c0.7,2.2,1.3,5.7,3.6,7.5c7.1,5.5,15,3.1,19.9-1.3c3.7-3.3,3.1-6,5.5-7.4c2.7-1.5,6.5,4.1,14.9,4.5c15.8,0.8,26.6-3.9,31.7-9.1
					c4.4-4.5,6.5-9.8,7.4-13.9C133.8,160,131.8,167.1,124.3,173.5z"/>
			</g>
			<g>
				<path class="st1" d="M61.1,190.5c-2.9,0-5.7-0.8-8.1-2.7c-4.5-3.8-6.2-8.8-4.7-14.3c2.5-9.4,13.9-18.2,25.9-20.2
					c16.7-2.7,23.4-5.6,31.2-8.9c2.3-1,4.6-1.9,7.3-3c6.9-2.7,14.9,0.4,19.1,7.3c3.9,6.5,4.2,16.6-6.5,25.8
					c-13.2,11.3-41,9.1-45.1,8.7C78,184.6,69.2,190.5,61.1,190.5z M117.8,142.9c-1.4,0-2.9,0.3-4.3,0.8c-2.7,1-5,2-7.2,2.9
					c-7.9,3.4-14.8,6.3-31.8,9c-11.1,1.8-21.6,9.9-23.9,18.4c-1.2,4.5,0.1,8.6,3.9,11.7c8.3,6.9,24.2-4.9,24.4-5l0.4-0.3l0.5,0.1
					c0.3,0,30.5,3.3,43.7-8c9.5-8.2,9.3-17.1,6-22.6C126.9,145.5,122.3,142.9,117.8,142.9z"/>
			</g>
			<g>
				<path class="st1" d="M108.6,181.4c-0.1,0-0.3,0-0.4-0.1c-14.1-7.5-10.4-32-10.2-33.1c0.1-0.5,0.5-0.8,1-0.7
					c0.5,0.1,0.8,0.5,0.7,1c0,0.2-3.7,24.3,9.3,31.3c0.4,0.2,0.6,0.8,0.4,1.2C109.2,181.2,108.9,181.4,108.6,181.4z"/>
			</g>
		</g>
		<g>
			<g>
				<path class="st17" d="M175.4,77.5l-2.5,0.2c-0.8,0.1-1.5,0.4-2,1c-0.5,0.6-0.7,1.3-0.7,2c0,0.7,0.4,1.4,0.9,1.9
					c0.5,0.5,1.2,0.7,1.9,0.6l2.5-0.1c1.7-0.1,3.3-0.1,5-0.1c1.7,0,3.3-0.1,5-0.1l0.6,0c0.1,0,0.3,0,0.4,0c0.1,0,0.3,0,0.4,0.1
					c0.5,0.1,1.1,0.3,1.5,0.7c0.9,0.7,1.5,1.8,1.5,2.9c0,1.1-0.5,2.3-1.4,3c-0.4,0.4-1,0.6-1.5,0.8c-0.3,0.1-0.6,0.1-0.8,0.1
					c-0.1,0-0.1,0-0.2,0l-0.2,0l-0.3,0l-5,0c-3.3,0-6.6,0-10,0l-2.5,0l-0.2,0l-0.1,0c-0.1,0-0.1,0-0.2,0c-0.1,0-0.3,0.1-0.4,0.1
					c-0.2,0.1-0.5,0.3-0.6,0.5c-0.2,0.2-0.3,0.4-0.3,0.7c-0.1,0.3,0,0.5,0,0.8c0.1,0.5,0.5,0.9,1.1,1.1c0.3,0.1,0.5,0.1,1,0.1l1.2,0
					l2.5,0.1c1.7,0,3.3,0.1,5,0.2c1,0,2,0.5,2.6,1.4c0.6,0.8,0.7,1.9,0.3,2.8c-0.4,0.9-1.2,1.6-2.1,1.8c-0.2,0.1-0.5,0.1-0.7,0.1
					c-0.2,0-0.4,0-0.6,0l-1.2-0.1l0.2-0.2l-0.2,2.8l-0.2-2.8c0-0.1,0.1-0.2,0.2-0.2l0,0l0,0l1.2-0.1c0.2,0,0.4,0,0.6,0
					c0.2,0,0.4-0.1,0.5-0.1c0.7-0.2,1.3-0.8,1.4-1.5c0.2-0.7,0-1.4-0.4-1.9c-0.4-0.5-1.1-0.8-1.7-0.8c-1.7,0.1-3.3,0.1-5,0.2
					l-2.5,0.1l-1.2,0c-0.2,0-0.4,0-0.7,0c-0.3,0-0.6-0.1-0.8-0.1c-1.1-0.3-2-1.2-2.3-2.3c-0.2-0.5-0.2-1.1-0.1-1.7
					c0.1-0.6,0.4-1.1,0.7-1.5c0.4-0.4,0.8-0.8,1.3-1c0.3-0.1,0.5-0.2,0.8-0.3c0.1,0,0.3,0,0.4-0.1l0.2,0l0.2,0l2.5,0
					c3.3,0,6.6,0,10,0l5,0l0.3,0l0.2,0c0.1,0,0.1,0,0.1,0c0.1,0,0.3,0,0.4,0c0.3-0.1,0.5-0.2,0.7-0.3c0.4-0.3,0.7-0.8,0.7-1.4
					c0-0.5-0.2-1.1-0.7-1.4c-0.2-0.2-0.5-0.3-0.7-0.4l-0.2,0l-0.2,0l-0.6,0c-1.7,0-3.3-0.1-5-0.1c-1.7,0-3.3-0.1-5-0.1l-2.5-0.1
					c-1,0-1.9-0.4-2.6-1.1c-0.7-0.7-1.1-1.6-1-2.6c0-0.9,0.4-1.8,1.1-2.5c0.7-0.6,1.5-1,2.4-0.9C173.7,77.4,174.5,77.4,175.4,77.5z"
					/>
			</g>
		</g>
		<g>
			<path class="st0" d="M67.8,33.9c-6.6,0.5-13,3.5-17.5,8.2c-0.5,0.5-1.3-0.1-1-0.7c1.8-3.8,5.1-8,8.2-9.3
				c3.4-1.4,7.3-0.9,10.6,0.8C68.5,33.1,68.3,33.8,67.8,33.9z"/>
			<path class="st0" d="M43.4,54.5c-0.1,0-0.3,0-0.4-0.1c-0.2,0-0.2,0.3,0,0.3c0.1,0,0.3,0,0.4-0.1C43.5,54.6,43.5,54.5,43.4,54.5z"
				/>
			<path class="st0" d="M104.8,33.9c6.6,0.5,13,3.5,17.5,8.2c0.5,0.5,1.3-0.1,1-0.7c-1.8-3.8-5.1-8-8.2-9.3
				c-3.4-1.4-7.3-0.9-10.6,0.8C104.2,33.1,104.3,33.8,104.8,33.9z"/>
			<path class="st0" d="M41,53.7c0,0,0.4,0.6,1,1.6c0.3,0.5,0.7,1.1,1.2,1.7c0.2,0.3,0.5,0.6,0.8,1c0.3,0.3,0.6,0.7,0.9,1
				c0.6,0.7,1.4,1.4,2.2,2.2c0.4,0.4,0.8,0.7,1.3,1c0.5,0.3,0.9,0.7,1.4,1c1,0.6,2,1.3,3.1,1.8c1.1,0.6,2.2,0.9,3.4,1.4l1.8,0.4
				c0.7,0.2,1.2,0.2,1.8,0.3c1.1,0.2,2.3,0.2,3.5,0.3c0.6,0,1.2-0.1,1.7-0.1c0.6,0,1.1,0,1.7-0.2c1.1-0.2,2.1-0.3,3-0.6
				c0.5-0.1,0.9-0.2,1.4-0.3c0.4-0.1,0.8-0.3,1.2-0.4c0.8-0.3,1.4-0.5,2-0.7c1.1-0.5,1.7-0.7,1.7-0.7s-0.4,0.5-1.3,1.4
				c-0.4,0.5-1,1-1.7,1.5c-0.3,0.3-0.7,0.5-1.1,0.8c-0.4,0.3-0.9,0.5-1.3,0.7c-0.5,0.2-1,0.5-1.5,0.8c-0.5,0.2-1.1,0.4-1.7,0.6
				c-0.6,0.2-1.2,0.4-1.8,0.5c-0.6,0.1-1.3,0.3-2,0.4c-1.4,0.1-2.8,0.3-4.3,0.1c-0.7-0.1-1.6-0.1-2.2-0.3l-2.1-0.5
				c-1.4-0.5-2.8-1-4-1.8c-1.3-0.6-2.4-1.6-3.5-2.4c-0.5-0.5-1-0.9-1.4-1.4c-0.5-0.5-0.9-0.9-1.2-1.5c-0.4-0.5-0.7-1-1.1-1.4
				c-0.3-0.5-0.6-1-0.8-1.5c-0.2-0.5-0.5-0.9-0.7-1.4c-0.2-0.5-0.3-0.9-0.5-1.3c-0.3-0.8-0.5-1.5-0.6-2.1C41,54.4,41,53.7,41,53.7z"
				/>
			<path class="st0" d="M125.6,53.7c0,0-0.1,0.7-0.3,1.9c-0.1,0.6-0.3,1.3-0.6,2.1c-0.1,0.4-0.3,0.9-0.5,1.3
				c-0.2,0.5-0.5,0.9-0.7,1.4c-0.3,0.5-0.5,1-0.8,1.5c-0.3,0.5-0.7,0.9-1.1,1.4c-0.4,0.5-0.8,1-1.2,1.5c-0.5,0.5-0.9,1-1.4,1.4
				c-1.1,0.8-2.2,1.8-3.5,2.4c-1.2,0.8-2.7,1.2-4,1.8l-2.1,0.5c-0.6,0.2-1.4,0.2-2.2,0.3c-1.5,0.2-2.9,0-4.3-0.1
				c-0.7-0.1-1.3-0.2-2-0.4c-0.6-0.1-1.3-0.3-1.8-0.5c-0.6-0.2-1.1-0.4-1.7-0.6c-0.5-0.2-1-0.5-1.5-0.8c-0.5-0.3-0.9-0.5-1.3-0.7
				c-0.4-0.3-0.8-0.6-1.1-0.8c-0.7-0.5-1.3-1-1.7-1.5c-0.8-0.9-1.3-1.4-1.3-1.4s0.7,0.3,1.7,0.7c0.5,0.3,1.2,0.5,2,0.7
				c0.4,0.1,0.8,0.3,1.2,0.4c0.4,0.1,0.9,0.2,1.4,0.3c0.9,0.3,2,0.4,3,0.6c0.5,0.1,1.1,0.1,1.7,0.2c0.6,0,1.1,0.1,1.7,0.1
				c1.2-0.1,2.4,0,3.5-0.3c0.6-0.1,1.1-0.1,1.8-0.3l1.8-0.4c1.1-0.4,2.3-0.8,3.4-1.4c1.1-0.5,2.1-1.2,3.1-1.8c0.5-0.3,0.9-0.7,1.4-1
				c0.5-0.3,0.9-0.7,1.3-1c0.8-0.7,1.6-1.4,2.2-2.2c0.3-0.4,0.6-0.7,0.9-1c0.3-0.3,0.5-0.7,0.8-1c0.5-0.6,0.9-1.2,1.2-1.7
				C125.2,54.2,125.6,53.7,125.6,53.7z"/>
		</g>
	</g>
</g>
</svg>
