<?xml version="1.0" encoding="utf-8"?>
<!-- Generator: Adobe Illustrator 27.2.0, SVG Export Plug-In . SVG Version: 6.00 Build 0)  -->
<svg version="1.1" xmlns="http://www.w3.org/2000/svg" xmlns:xlink="http://www.w3.org/1999/xlink" x="0px" y="0px"
	 viewBox="0 0 770.1 228.1" style="enable-background:new 0 0 770.1 228.1;" xml:space="preserve">
<style type="text/css">
	.st0{fill:#FFFFFF;}
	.st1{fill:#15264B;}
	.st2{opacity:0.35;}
	.st3{fill:#274B8B;}
	.st4{fill:#0F3747;}
	.st5{opacity:0.5;}
	.st6{opacity:0.4;}
	.st7{fill:#183E75;}
	.st8{opacity:0.2;}
	.st9{fill:#38276B;}
	.st10{fill:#44AC34;}
	.st11{fill:#00983A;}
	.st12{fill:#FCF8FB;}
	.st13{opacity:0.7;}
	.st14{fill:#94613F;}
	.st15{fill:#FFD100;}
	.st16{fill:#EA5B0C;}
	.st17{fill:#D3D5ED;}
	.st18{fill:#D8D8D8;}
	.st19{fill:#121A28;}
	.st20{fill:#E5E1D4;}
	.st21{opacity:0.25;}
	.st22{opacity:0.6;}
	.st23{fill:#FFD346;}
	.st24{fill:#FFDA36;}
	.st25{fill:#1E1E1C;}
	.st26{fill:#EEEDED;}
	.st27{opacity:0.3;}
	.st28{fill:#407FC1;}
	.st29{fill:#B0B3B1;}
	.st30{opacity:0.8;}
	.st31{fill:#E5E5E4;}
	.st32{fill:#BCBCBB;}
	.st33{fill:#E72D47;}
	.st34{fill:#F7A710;}
	.st35{fill:#F2EFEC;}
	.st36{fill:#F9B116;}
	.st37{fill:#F38F1C;}
	.st38{fill:none;stroke:#2A3856;stroke-width:2.1963;stroke-linecap:round;stroke-miterlimit:10;}
	.st39{fill:#D66C12;}
	.st40{fill:#FFD767;}
	.st41{fill:#F7A83D;}
	.st42{fill:#FECF70;}
	.st43{fill:#FFED91;}
	.st44{opacity:0.41;}
	.st45{opacity:0.26;}
	.st46{fill:none;}
	.st47{fill:#261E26;}
	.st48{fill:#E30613;}
	.st49{fill:#E9E8E8;}
	.st50{fill:#4A92CF;}
	.st51{fill:#386EB5;}
	.st52{fill:#B6B6B7;}
	.st53{fill:#DDDDDD;}
	.st54{fill:#FDC423;}
	.st55{fill:#E2A415;}
	.st56{fill:#F9B044;}
	.st57{fill:#EB5759;}
	.st58{fill:#E5201F;}
	.st59{fill:none;stroke:#FFFFFF;stroke-width:2.3076;stroke-linecap:round;stroke-miterlimit:10;}
	.st60{fill:#EDC5D6;}
	.st61{fill:#4A153F;}
	.st62{fill:#E9C8D2;}
	.st63{fill:#DFB0BE;}
	.st64{fill:#D6D6EA;}
	.st65{fill:#BDBDE0;}
	.st66{fill:#232323;}
	.st67{fill:#A7ABCC;}
	.st68{fill:#EDCCA9;}
	.st69{fill:#492311;}
	.st70{fill:#2A3856;}
	.st71{fill:#05646E;}
	.st72{fill:#F28D70;}
	.st73{fill:#BEC5CA;}
	.st74{fill:#54767A;}
</style>
<g id="Fondo">
</g>
<g id="Grafica">
</g>
<g id="Informazioni">
	<g>
		<g>
			<path class="st0" d="M194.3,59.2c-0.9-2.2-6.8-5.8-11.1-8.1C174.6-7.6,90.8-17.4,68.8,37.7C64.2,39,57.6,41.1,56.2,43
				c-3.1,4.4-5.8,29.3,0,38c-5.9-4.5-11.1-8.5-16.5-12.8c-0.2-4.3-1-10.8-6.3-11.7c-2.3-0.3-4.6,1.1-5.6,3.1c-6.5-4-12.2-5.5-18-0.8
				c-4.1,1-6.6,3.8-6.9,8.3c-7.1,9.5,3.2,21.1,11.1,28.1c8.1,7.4,28,25.8,49.3,36.6c-0.3,3.7-0.6,7.4-0.7,11.2
				c-3.5,0.6-6.9,1.6-8,3.3c-1.4,2.3-1.2,11.7-1.1,15.7c1.1,17.7,1.7,17.1,10.7,18c2.8,9.9,7.7,21.5,18.7,24.3
				c0.9,8.2,3.4,18.7,12.8,20.7c8,2,21.7,0.9,23-9.1h0.4c5.3,6,13,10.1,21,10.7c10,1.2,22.3-7.3,18.6-18.3c13.7-3.7,21-19,13.5-31.1
				c6.8-17.9-7-48.3-20.9-63.3c7-3.6,13.3-8.6,18.4-14.7c6-0.3,13-1,15-2.6C193,90.2,196.4,64.3,194.3,59.2z"/>
			<g>
				<path class="st46" d="M143.5,197.5c-0.2,0.1-0.5,0.2-0.7,0.3C143,197.6,143.2,197.5,143.5,197.5z"/>
				<path class="st46" d="M166.9,179.2c0.1,0.1,0.2,0.2,0.2,0.2C167.1,179.3,167,179.2,166.9,179.2z"/>
				<path class="st46" d="M85.7,188.7c-0.1,4.6,0.2,9,0.6,12.4c0,0.1,0,0.1,0,0.2c-0.2-2.8-0.4-5.6-0.6-8.2
					C85.7,191.7,85.7,190.2,85.7,188.7z"/>
				<path class="st46" d="M146.4,197.5c-0.3-0.1-0.6-0.1-1-0.1C145.7,197.4,146,197.4,146.4,197.5z"/>
				<path class="st46" d="M167.5,179.8c0.1,0.1,0.2,0.2,0.3,0.3C167.8,180,167.7,179.9,167.5,179.8z"/>
				<path class="st46" d="M168.7,181.1c0.1,0.2,0.2,0.3,0.3,0.5C168.9,181.4,168.8,181.2,168.7,181.1z"/>
				<path class="st46" d="M168.1,180.4c0.1,0.1,0.2,0.3,0.3,0.4C168.4,180.7,168.3,180.5,168.1,180.4z"/>
				<path class="st46" d="M112.5,220c0.3-0.2,0.7-0.4,1-0.6c1.1-1,1.7-2.2,2-3.6C115,217.6,114,218.9,112.5,220z"/>
				<path class="st46" d="M116.8,197.7c0-1.5,0-4.6,0-7.9C116.8,193.1,116.8,196.2,116.8,197.7z"/>
				<path class="st46" d="M169.2,181.8c0.1,0.2,0.2,0.4,0.3,0.6C169.4,182.1,169.3,181.9,169.2,181.8z"/>
				<path class="st46" d="M169.7,194.7c-0.1,0.1-0.1,0.2-0.2,0.3C169.6,194.9,169.6,194.8,169.7,194.7z"/>
				<path class="st46" d="M118.2,178.8l1.6,1.3C119,179.5,118.4,179,118.2,178.8z"/>
				<path class="st46" d="M170.3,193.3c-0.1,0.2-0.2,0.4-0.2,0.6C170.1,193.7,170.2,193.5,170.3,193.3z"/>
				<path class="st46" d="M127.3,186.1c-0.7-0.5-1.7-1.2-2.7-2l2,1.7L127.3,186.1z"/>
				<path class="st46" d="M170.7,192.2c0,0.2-0.1,0.3-0.2,0.5C170.6,192.5,170.6,192.3,170.7,192.2z"/>
				<path class="st46" d="M144.3,197.3c-0.3,0-0.5,0.1-0.8,0.1C143.8,197.4,144.1,197.3,144.3,197.3z"/>
				<path class="st46" d="M144.4,197.3c0.3,0,0.6,0,0.9,0C145,197.3,144.7,197.3,144.4,197.3z"/>
				<path class="st46" d="M146.9,197.6c0.2,0.1,0.5,0.2,0.7,0.2c0,0,0,0,0,0C147.4,197.7,147.1,197.7,146.9,197.6z"/>
				<path class="st46" d="M154.6,216.8c1.7-2.8,1.8-5.5,0.8-8C156.4,211.2,156.3,213.9,154.6,216.8z"/>
				<path class="st46" d="M143.3,198.9c3.1,1,6.5,3,9,5.5C149.8,201.8,146.4,199.9,143.3,198.9c-0.4-0.1-0.6-0.5-0.6-0.8
					C142.7,198.4,142.9,198.8,143.3,198.9z"/>
				<path class="st46" d="M157.1,169.5c1.3,0.5,2.7,1.2,4,2C159.8,170.7,158.4,170.1,157.1,169.5z"/>
				<path class="st46" d="M171,190.8c0.3-1.8,0.2-3.5-0.2-5.2C171.2,187.3,171.2,189.1,171,190.8z"/>
				<path class="st46" d="M161.9,167.1c-1.2-0.6-2.4-1.2-3.7-1.7C159.5,165.9,160.7,166.5,161.9,167.1z"/>
				<path class="st46" d="M170.6,184.8c0.1,0.3,0.2,0.5,0.2,0.8C170.7,185.4,170.7,185.1,170.6,184.8z"/>
				<path class="st46" d="M169.6,182.5c0.1,0.2,0.2,0.4,0.3,0.6C169.8,182.9,169.7,182.7,169.6,182.5z"/>
				<path class="st46" d="M170.3,184c0.1,0.3,0.2,0.5,0.3,0.8C170.5,184.5,170.4,184.3,170.3,184z"/>
				<path class="st46" d="M170,183.2c0.1,0.2,0.2,0.5,0.3,0.7C170.2,183.7,170.1,183.5,170,183.2z"/>
				<path class="st46" d="M148,178.3C148,178.3,148,178.3,148,178.3c-4.2,2.5-7.6,4.5-10.7,6.4C140.4,182.7,143.9,180.7,148,178.3
					C148,178.3,148,178.3,148,178.3z"/>
				<path class="st46" d="M135.5,198.9c5.7,2,11.3,5.3,15,9.4C146.8,204.2,141.1,200.9,135.5,198.9z"/>
				<path class="st46" d="M166.2,178.6c-2.7-2-6.4-3.1-10.9-2.5C159.2,175.8,163.2,176.6,166.2,178.6z"/>
				<path class="st46" d="M6.1,70.2c-0.4,0.5-0.7,1.1-0.9,1.8c-1.2,3.9,1.1,9,6.4,14.8C6.1,80.6,3.1,74.6,6.1,70.2z"/>
				<path class="st46" d="M56.2,86.2c1.4,1,2.8,2,4.2,3C58.9,88.3,57.5,87.2,56.2,86.2z"/>
				<path class="st46" d="M39.2,73.8c0.2-0.1,0.3-0.3,0.3-0.5C39.3,73.6,39.3,73.8,39.2,73.8z"/>
				<path class="st46" d="M38.9,73.9c0.1,0,0.1,0,0.2,0c-0.3,0-0.5-0.7-0.8-1.7c0,0.1,0,0.2,0.1,0.3C38.5,72.9,38.3,73.7,38.9,73.9z
					"/>
				<path class="st46" d="M21.1,80.4c-0.1,0.1-0.3,0.1-0.5,0C20.7,80.6,20.9,80.5,21.1,80.4z"/>
				<path class="st46" d="M30.6,66.5c0.1-1.4,0.2-2.9,0.5-4.1C30.6,63.6,30.6,65.1,30.6,66.5z"/>
				<path class="st46" d="M29.5,70.9c0.2-0.1,0.4-0.3,0.6-0.6C29.9,70.6,29.7,70.8,29.5,70.9c-1.6,0.9-3,2.1-4.2,3.5
					C26.4,73,27.8,71.8,29.5,70.9z"/>
				<path class="st46" d="M33.8,60.7c0.8,0.8,1.3,1.7,1.8,2.7c-0.8-1.9-1.8-3.3-3-2.9c0,0-0.1,0.1-0.1,0.1
					C32.9,60.4,33.3,60.5,33.8,60.7z"/>
				<path class="st46" d="M105.3,161.6C105.3,161.6,105.3,161.6,105.3,161.6C105.3,161.5,105.3,161.5,105.3,161.6
					C105.3,161.5,105.3,161.5,105.3,161.6C105.3,161.6,105.3,161.6,105.3,161.6z"/>
				<path class="st46" d="M18.3,60.2c-2-0.2-3.5,0.4-5,1.4C14.9,60.7,16.4,60.1,18.3,60.2z"/>
				<path class="st46" d="M7.2,67.6c0.3-1.2,0.4-2.2,1-3C7.6,65.2,7.3,66.1,7.2,67.6z"/>
				<path class="st46" d="M152.2,11.5c-6.4-3.7-13.7-6.1-21.5-7.1c-7.7-0.9-15.3-0.2-22.4,1.9C122.9,2.5,139,4.4,152.2,11.5z"/>
				<path class="st46" d="M41.2,112.6c-3.4-2.9-8.2-6.6-13.1-10.6C31.8,105.2,36.1,108.7,41.2,112.6z"/>
				<path class="st46" d="M27.4,68.2C27.5,68.2,27.5,68.2,27.4,68.2C27.5,68.2,27.5,68.2,27.4,68.2C27.5,68.2,27.5,68.2,27.4,68.2
					C27.5,68.2,27.5,68.2,27.4,68.2C27.4,68.2,27.4,68.3,27.4,68.2c-0.1,0.1-0.1,0.1-0.1,0.1C27.4,68.3,27.4,68.3,27.4,68.2
					C27.4,68.3,27.4,68.2,27.4,68.2z"/>
				<path class="st46" d="M70.6,87.5c-3.7-1.1-7.8-2.4-10.6-3.8c4.5,3.2,9.1,6.5,13.8,9.4C72.6,91.3,71.6,89.4,70.6,87.5z"/>
				<path class="st46" d="M108.7,9.4c13.8-2.9,28.7-1.2,41.6,4.6c-8.5-4-18-6.2-27.6-6.2C117.9,7.9,113.2,8.4,108.7,9.4z"/>
				<path class="st46" d="M107.6,200.9c-2.3,0-4.8,0.2-7.1,0.6C102.8,201.1,105.3,200.9,107.6,200.9z"/>
				<path class="st46" d="M92.5,219.5c-1.9-2.1-3.2-4.5-4.2-7.2C89.1,215,90.3,217.5,92.5,219.5z"/>
				<path class="st46" d="M108,202.6c2.3,0.2,4.4,0.9,6.2,2.2C112.4,203.5,110.3,202.8,108,202.6z"/>
				<path class="st46" d="M86.8,177.2c0.4-2,0.9-4,1.5-5.8C87.6,173.2,87.1,175.1,86.8,177.2z"/>
				<path class="st46" d="M111.3,166.8c-0.3-0.8-0.7-1.5-1.1-2.3c-0.4-0.4-0.9-0.8-1.4-1.2C109.9,164.4,110.7,165.5,111.3,166.8z"/>
				<path class="st46" d="M113.3,186.7c0.1-2.9,0.1-6.1,0-9.1C113.3,180.1,113.3,183.3,113.3,186.7z"/>
				<path class="st46" d="M94.8,203.9c-0.1-0.1-0.2-0.2-0.2-0.3l0,0C94.6,203.8,94.6,203.9,94.8,203.9z"/>
				<path class="st46" d="M59.6,174.7c0.1,0.1,0.2,0.1,0.3,0.2C59.8,174.9,59.7,174.8,59.6,174.7C59.6,174.7,59.6,174.7,59.6,174.7z
					"/>
				<path class="st46" d="M58.2,166.4c-0.1-1.3-0.2-2.6-0.2-4C58,163.8,58.1,165.2,58.2,166.4z"/>
				<path class="st46" d="M62.6,153.4c0-2,0-4,0-6C62.6,149.4,62.6,151.4,62.6,153.4z"/>
				<path class="st46" d="M103,222.4c-3,0-6.1-0.6-8.4-1.7C97.2,221.9,100.1,222.5,103,222.4z"/>
				<path class="st46" d="M148.8,174.4c-2.5,1-4.9,2.3-7.2,4C143.9,176.7,146.3,175.4,148.8,174.4z"/>
				<path class="st46" d="M11.4,62.8c-0.2,0.1-0.4,0.2-0.6,0.2c0.1,0,0.2-0.1,0.4-0.1C11.3,62.9,11.4,62.8,11.4,62.8z"/>
				<path class="st46" d="M69.2,139.6c0.4-1.5,0.7-3,1.1-4.5c-0.9-0.4-1.8-0.8-2.7-1.2c-0.2,2.8-0.4,5.6-0.5,8.3
					c-0.1,2.8-0.2,5.6-0.2,8.3c0.3-1.6,0.6-3.3,0.9-4.9c0.1-0.3,0.1-0.5,0.2-0.8c0.1-0.3,0.1-0.6,0.2-1c0.2-1,0.5-2,0.7-3.1
					C69,140.4,69.1,140,69.2,139.6z"/>
				<path class="st46" d="M115.6,212.7c0.1,0.6,0.1,1.2,0,1.7c0.1-1.7-0.1-3.5-0.4-5.2C115.5,210.4,115.6,211.5,115.6,212.7z"/>
				<path class="st46" d="M152.9,166.6c0-1,0.6-1.9,1.7-2.1C153.5,164.7,152.9,165.6,152.9,166.6z"/>
				<path class="st46" d="M154.8,143.1c0.5,2.1,0.8,3.7,0.9,4.1c1.2,6,2.1,12.1,2.5,18.3c-0.4-6.2-1.3-12.2-2.5-18.3
					C155.7,146.8,155.3,145.2,154.8,143.1z"/>
				<path class="st46" d="M154.8,168.8c-0.1,0-0.1,0-0.2-0.1c-0.4-0.1-0.8-0.3-1-0.5c0.3,0.3,0.6,0.4,1,0.5
					C154.6,168.8,154.7,168.8,154.8,168.8z"/>
				<path class="st46" d="M152.1,146c-1.2-6.1-2.5-12.2-3.7-18.3c0,0,0,0,0,0C149.5,133.8,150.9,139.9,152.1,146z"/>
				<path class="st46" d="M148.3,127.7c0.5-1.5,1.1-1.1,1.9,0.3C149.5,126.6,148.8,126.2,148.3,127.7z"/>
				<path class="st46" d="M151.9,173.4c4.2-1,8.6-0.8,12.9,0.9C160.5,172.6,156.2,172.4,151.9,173.4z"/>
				<path class="st46" d="M71.7,174.1c0.2-2.3,0.8-4.6,1.7-6.7C72.5,169.5,71.9,171.8,71.7,174.1C71.7,174.1,71.7,174.1,71.7,174.1z
					"/>
				<path class="st46" d="M84.4,159.5c-5.2,3.3-9.3,8.8-11.1,14.8c0,0.3-0.2,0.4-0.3,0.5c0.2-0.1,0.3-0.3,0.3-0.5
					C75.2,168.3,79.3,162.9,84.4,159.5z"/>
				<path class="st46" d="M102.3,157.7c-3.1-1.3-6.3-1.7-9.3-1.3C96,156,99.2,156.3,102.3,157.7z"/>
				<path class="st46" d="M72.4,175c-0.4,0-0.8-0.3-0.8-0.8C71.7,174.6,72,174.9,72.4,175z"/>
				<path class="st46" d="M99.1,157.7c1-0.1,2-0.1,3.2,0C101.3,157.6,100.2,157.6,99.1,157.7z"/>
				<path class="st46" d="M183.1,70.8c0.3-1.4,0.4-2.9,0.6-4.3C183.6,67.9,183.4,69.4,183.1,70.8z"/>
				<path class="st46" d="M165.1,169.1c1.4,1,2.7,2.2,4.2,3.7C167.9,171.3,166.5,170.1,165.1,169.1z"/>
				<path class="st46" d="M139.6,179.9c-2,1.2-6,3.3-8.2,4.7C133.6,183.2,137.6,181.1,139.6,179.9z"/>
				<path class="st46" d="M184,60.4c0-1.7-0.1-3.4-0.2-5.1C183.9,57,184,58.7,184,60.4z"/>
				<path class="st46" d="M169.3,172.8c1.4-6.4,0.5-14.1-1.8-22C169.8,158.7,170.7,166.4,169.3,172.8z"/>
				<path class="st46" d="M163.9,26.3c-8.6-7.8-20.2-13.3-34-15.1c-7.1-0.8-14.5-0.4-21.5,1.3C127.9,8.3,149.5,13.9,163.9,26.3z"/>
				<path class="st46" d="M158.5,105.6C158.6,105.6,158.6,105.6,158.5,105.6c0,0-0.1,0.1-0.2,0.1
					C158.4,105.7,158.5,105.6,158.5,105.6z"/>
				<path class="st46" d="M102.3,19.3c17.3-5,37-2.7,52.7,6.2c-7.6-4.4-16.3-7.4-25.7-8.5C119.8,15.9,110.7,16.8,102.3,19.3z"/>
				<path class="st46" d="M115.5,155.7c-0.1-0.2-0.3-0.4-0.5-0.7C115.2,155.3,115.4,155.5,115.5,155.7z"/>
				<path class="st46" d="M74.6,121.6c-1.3,3.4-2.5,7.5-2.9,8.9C72.2,129.1,73.3,125,74.6,121.6z"/>
				<path class="st46" d="M86.9,165.3c-3.6,5.2-4.9,11.6-5.1,18.1C82.2,177,83.7,170.3,86.9,165.3z"/>
				<path class="st46" d="M73.5,136.3c0.3,0.1,0.6,0.2,1.1,0.3C74.2,136.5,73.8,136.4,73.5,136.3z"/>
				<path class="st46" d="M98.7,152c0.3,0.4,0.6,0.8,0.9,1.1C99.3,152.8,99,152.4,98.7,152z"/>
				<path class="st46" d="M94.2,146.6c0.5,0.6,1.1,1.4,1.7,2.1C95.3,147.9,94.7,147.2,94.2,146.6z"/>
				<path class="st46" d="M113.5,163.4c0.6-0.8,1.4-1.9,2-2.7C114.9,161.5,114.1,162.6,113.5,163.4z"/>
				<path class="st46" d="M69.2,159.6c-1.2,9.7-1.2,19.8,1.9,27.8C68,179.4,68,169.3,69.2,159.6z"/>
				<path class="st46" d="M76.8,116.9c0.6-0.8,1.2-0.9,1.5,0.4v0C78,116,77.5,116,76.8,116.9z"/>
				<path class="st46" d="M111.7,150.7c-0.6-0.8-1.2-1.5-1.7-2.3C110.5,149.2,111.1,149.9,111.7,150.7z"/>
				<path class="st46" d="M64.1,127.4c-2.1-1.1-4.2-2.3-6.3-3.5C59.9,125.1,61.9,126.3,64.1,127.4z"/>
				<path class="st46" d="M115.3,167.7c-0.2-0.8-0.5-1.5-0.8-2.2C114.8,166.2,115.1,167,115.3,167.7z"/>
				<path class="st7" d="M119.3,202.6C119.3,202.6,119.3,202.6,119.3,202.6c-0.5,0.8-0.8,1.6-0.8,2.6c0,0,0,0.1,0,0.1
					c0-1.2,0.4-2.2,1-3.1C119.5,202.4,119.4,202.5,119.3,202.6z"/>
				<g>
					<path class="st3" d="M151.4,216.9c0,0-0.1-0.1-0.1-0.1c-0.8-1.2-1.8-2.5-2.9-3.6c-0.9,2.8-2.6,6.4-5.8,9.7
						c1.6-0.1,3.6-0.3,5.3-0.9c1.9-0.7,3.5-1.9,3.6-4.1c0-0.1,0-0.2,0-0.4C151.4,217.3,151.4,217.1,151.4,216.9z"/>
					<path class="st3" d="M118.8,206.8c0.1,0.4,0.2,0.9,0.4,1.4c0.1,0.4,0.3,0.8,0.4,1.2c1.4-1.7,3.4-4.4,5-7.3
						C121.6,202.7,119.4,204.3,118.8,206.8z"/>
					<path class="st3" d="M135.2,204.4c-2.1,4.9-5.8,10.1-8.8,12.7c0.5,0.4,1,0.7,1.5,1c0.1,0.1,0.2,0.2,0.4,0.2
						c0.5,0.3,1,0.6,1.5,0.9c3.2-2.7,7.4-8.7,9.2-13C137.8,205.6,136.5,205,135.2,204.4z"/>
					<path class="st3" d="M141.8,208c-1.9,4.4-5.6,9.7-8.9,12.9c1.7,0.7,3.4,1.3,5.2,1.6c5-3.9,6.9-8.7,7.6-11.7
						C144.5,209.7,143.2,208.8,141.8,208z"/>
					<path class="st3" d="M128.2,202.2c-2.2,4.3-5.3,8.2-6.9,10.1c0.7,1,1.6,1.9,2.5,2.8c2.3-1.9,6.2-6.9,8.3-11.8
						C130.8,202.8,129.4,202.4,128.2,202.2z"/>
				</g>
				<g>
					<path class="st17" d="M148.9,211.4c-0.1,0.6-0.3,1.2-0.5,1.8c1.1,1.2,2.1,2.4,2.9,3.6c0,0.1,0.1,0.1,0.1,0.1
						C151.2,215.3,150.4,213.3,148.9,211.4z"/>
					<path class="st17" d="M124.6,200.2c-0.7,0.1-1.4,0.2-2,0.4c-1.4,0.4-2.4,1-3,1.7c0,0,0,0,0,0c-0.6,0.9-1,1.9-1,3.1
						c0,0.5,0.1,1,0.2,1.5c0.6-2.5,2.9-4.1,5.8-4.6c0.4-0.7,0.8-1.4,1.1-2.1c-0.3,0-0.6,0-0.9,0
						C124.8,200.2,124.7,200.2,124.6,200.2z"/>
					<path class="st17" d="M135.2,204.4c1.3,0.5,2.6,1.2,3.8,1.9c0.3-0.7,0.5-1.3,0.7-1.9c-1.2-0.6-2.5-1.2-3.8-1.7
						C135.7,203.2,135.4,203.8,135.2,204.4z"/>
					<path class="st17" d="M141.8,208c1.3,0.9,2.7,1.8,3.9,2.8c0.2-1,0.3-1.8,0.4-2.3c-1-0.8-2.2-1.6-3.5-2.4
						C142.4,206.6,142.1,207.3,141.8,208z"/>
					<path class="st17" d="M128.2,202.2c1.2,0.2,2.5,0.6,4,1c0.3-0.6,0.5-1.2,0.7-1.7c-1.3-0.4-2.6-0.8-3.8-1
						C128.8,201.1,128.5,201.7,128.2,202.2z"/>
				</g>
				<path class="st0" d="M122.6,7.9c9.6-0.1,19.1,2.2,27.6,6.2c8.9,4,16.8,10,22.6,17.9c-4.8-8.2-11.7-15.1-20-20
					c-0.2-0.1-0.3-0.2-0.5-0.3c-0.1,0-0.1-0.1-0.2-0.1c-13.2-7.2-29.3-9.1-43.8-5.2c-0.1,0-0.2,0-0.2,0.1c-0.2,0.1-0.4,0.1-0.6,0.2
					c-9.2,2.8-17.4,7.9-24,14.8c7.3-6.1,16-10,25.2-11.9C113.2,8.4,117.9,7.9,122.6,7.9z"/>
				<path class="st0" d="M191.6,62.6c0-0.2,0-0.5-0.1-0.7c0-0.1,0-0.2,0-0.2c0-0.2-0.1-0.3-0.1-0.5c0-0.1,0-0.1,0-0.2
					c0-0.2-0.1-0.4-0.2-0.5c-0.5-0.9-3.7-3-7.5-5.2c0.2,1.7,0.2,3.4,0.2,5.1c0,1.7-0.1,3.4-0.2,5.2c0,0.3-0.1,0.6-0.1,0.9
					c-0.1,1.5-0.3,2.9-0.6,4.3c-0.2,1-0.4,2-0.6,3c-0.3,1.2-0.6,2.5-1,3.7c-0.4,1.3-0.8,2.5-1.2,3.7c-0.2,0.6-0.4,1.2-0.7,1.7
					c0.1-0.2,0.2-0.4,0.3-0.6c0,0,0-0.1,0-0.1c0.1-0.3,0.2-0.6,0.3-0.9c3.8,1.9,6.7,1.8,8.4,1.4c1.1-3.9,2-8.1,2.5-11.9
					c0,0,0-0.1,0-0.1c0.1-0.5,0.1-1,0.2-1.5c0,0,0-0.1,0-0.1c0.1-1,0.2-1.9,0.2-2.8c0-0.1,0-0.2,0-0.2c0-0.3,0-0.7,0-1
					c0-0.1,0-0.2,0-0.3c0-0.3,0-0.6,0-0.9c0-0.1,0-0.1,0-0.2c0-0.3,0-0.7,0-1C191.6,62.7,191.6,62.7,191.6,62.6z"/>
				<path class="st0" d="M64.7,67.9c0,0.3,0.1,0.6,0.1,0.9c0,0,0,0.1,0,0.1c0.1,1.1,0.3,2.1,0.5,3.1c0,0,0,0,0-0.1
					c-0.2-1.1-0.4-2.3-0.6-3.4c-0.2-1.2-0.3-2.3-0.4-3.5c-0.1-1.7-0.2-3.4-0.2-5.1c0.1-6.3,1.1-12.5,3.1-18.4
					c-4.2,1.3-7.8,2.6-8.5,3.4c-0.1,0.1-0.2,0.3-0.3,0.5c0,0.1-0.1,0.1-0.1,0.2c-0.1,0.1-0.1,0.3-0.2,0.5c0,0.1-0.1,0.2-0.1,0.2
					c-0.1,0.2-0.1,0.4-0.2,0.6c0,0.1,0,0.1-0.1,0.2c-0.1,0.3-0.2,0.6-0.3,1c0,0.1,0,0.1,0,0.2c-0.1,0.3-0.1,0.6-0.2,0.9
					c0,0.1,0,0.2-0.1,0.3c-0.1,0.3-0.1,0.6-0.2,1c0,0.1,0,0.2,0,0.2c-0.2,0.9-0.3,1.8-0.4,2.8c0,0,0,0.1,0,0.1
					c-0.1,0.5-0.1,1-0.2,1.5c0,0,0,0.1,0,0.1c-0.4,3.8-0.6,8.1-0.4,12.1C57.8,68.1,60.5,68.9,64.7,67.9z"/>
				<path class="st15" d="M110.4,158.9c0.5,0.6,1,1.2,1.5,1.8l0.7-1v-3l-6.6-8.5h-6.6l5.5,6.7c1.4,0.7,2.7,1.5,3.9,2.5
					C109.3,157.8,109.8,158.3,110.4,158.9z"/>
				<path class="st11" d="M128.5,183.5v-6.6l-8.5-6.6h-3l-0.8,0.6c0.3,1.7,0.6,3.5,0.6,5.3l1.4-1.2L128.5,183.5z"/>
				<path class="st0" d="M118.1,195.9c0.3-0.4,0.7-0.8,1-1.1c0.1-0.1,0.2-0.2,0.3-0.3c0.4-0.4,0.8-0.9,1.2-1.3
					c0.1-0.1,0.1-0.1,0.2-0.2c0.5-0.5,1-1,1.6-1.5c0,0,0.1-0.1,0.1-0.1c0.5-0.5,1.1-0.9,1.6-1.4c0.2-0.1,0.3-0.3,0.5-0.4
					c0.4-0.3,0.8-0.6,1.1-0.9c0.3-0.2,0.5-0.4,0.8-0.6c0.6-0.4,1.1-0.9,1.7-1.3c-0.2,0-0.6-0.2-1-0.6l-0.7-0.4l-2-1.7
					c-1.7-1.3-3.5-2.9-4.9-4l-1.6-1.3l-1.4,1.2c0,1.8,0,5.9,0,9.8c0,3.3,0,6.5,0,7.9c0.4-0.5,0.7-1,1.1-1.5
					C118,196.1,118.1,196,118.1,195.9z"/>
				<path class="st0" d="M58.3,168.1c0,0.3,0.1,0.6,0.1,0.9c0,0,0,0,0,0C58.4,168.7,58.4,168.4,58.3,168.1
					C58.3,168.1,58.3,168.1,58.3,168.1z"/>
				<path class="st0" d="M58.2,166.5C58.2,166.5,58.2,166.5,58.2,166.5C58.2,166.5,58.2,166.5,58.2,166.5L58.2,166.5z"/>
				<path class="st17" d="M58.2,166.4C58.2,166.4,58.2,166.4,58.2,166.4C58.2,166.5,58.2,166.5,58.2,166.4c0,0.1,0,0.1,0,0.1
					c0,0.4,0.1,0.8,0.1,1.2c0,0,0,0,0,0c0,0.1,0,0.3,0,0.4c0,0.3,0.1,0.6,0.1,0.9c0,0.1,0,0.3,0,0.4c0,0.4,0.1,0.7,0.1,1
					c0,0,0,0.1,0,0.1c0,0.1,0,0.1,0,0.2c0,0.3,0.1,0.6,0.1,0.8c0,0.1,0,0.2,0.1,0.4c0,0.2,0.1,0.4,0.1,0.6c0,0.1,0,0.2,0.1,0.3
					c0.1,0.3,0.1,0.5,0.2,0.7c0,0,0,0,0,0c0,0,0,0,0,0.1c0.1,0.2,0.1,0.4,0.2,0.5c0,0,0,0,0,0.1c0,0,0,0.1,0,0.1
					c0.1,0.2,0.1,0.3,0.2,0.4c0,0,0,0,0,0c0,0,0,0,0,0c0,0,0,0,0,0c0.1,0.1,0.2,0.1,0.3,0.2c0.1,0,0.1,0.1,0.2,0.1c0,0,0,0,0,0
					c0.1,0,0.2,0.1,0.3,0.1c0.1,0,0.1,0,0.2,0.1c0.3,0.1,0.5,0.1,0.8,0.2c0,0,0,0,0,0c0.3,0.1,0.6,0.1,0.9,0.1c0,0,0.1,0,0.1,0
					c0.4,0,0.9,0.1,1.3,0.1c-0.3-2.9-0.6-5.7-0.8-8.6C61.7,167.1,59.8,167,58.2,166.4z"/>
				<path class="st0" d="M115.6,212.7c0-1.1-0.2-2.3-0.4-3.4c-0.3-1.6-0.7-3.1-1-4.4c-1.8-1.4-4-2-6.2-2.2c-4.3-0.4-9,0.7-12.9,1.4
					c-0.1,0-0.2,0-0.3,0c-0.1-0.1-0.2-0.2-0.2-0.3l0,0c0,0,0,0,0,0c1.4-0.9,3.6-1.6,6-2.1c2.3-0.4,4.7-0.7,7.1-0.6
					c2.2,0,4.2,0.3,5.7,0.8c0-2.4,0-6.3,0-8.6c-0.1-1.9,0-4.1,0-6.3c0-3.4,0-6.6,0-9.1c-0.2-3.9-0.7-7.6-2-10.8
					c-0.6-1.3-1.5-2.5-2.6-3.4c-1-0.8-2.2-1.4-3.5-1.9c0,0,0,0,0,0c0,0,0,0,0,0c-6.3-1.8-10.6-0.2-13.6,3.4
					c-0.1,0.1-0.2,0.3-0.3,0.4c-0.1,0.1-0.1,0.2-0.2,0.3c-0.3,0.4-0.6,0.9-0.9,1.4c-0.3,0.4-0.5,0.9-0.7,1.4c0,0,0,0,0,0
					c-0.2,0.5-0.4,1-0.7,1.5c-0.1,0.3-0.3,0.7-0.4,1c-0.1,0.2-0.1,0.3-0.2,0.5c-0.6,1.8-1.1,3.8-1.5,5.8c0,0.1,0,0.1,0,0.2
					c-0.1,0.5-0.2,1-0.3,1.5c0,0.1,0,0.2,0,0.3c-0.1,0.8-0.2,1.5-0.3,2.3c0,0.3-0.1,0.6-0.1,1c0,0.3-0.1,0.6-0.1,0.9
					c0,0.4-0.1,0.8-0.1,1.2c0,0.2,0,0.5,0,0.7c0,0.5-0.1,1.1-0.1,1.6c0,0.5,0,1,0,1.5c0,0.1,0,0.3,0,0.4c0,1.5,0,3,0.1,4.4
					c0.2,2.6,0.3,5.4,0.6,8.2c0.6,3.5,0.9,7.4,2,11c0.9,2.7,2.2,5.1,4.2,7.2c0,0,0,0,0,0c0.7,0.5,1.4,0.9,2.1,1.2
					c2.4,1.1,5.4,1.7,8.4,1.7c3.4-0.1,6.7-0.9,9.5-2.4c1.4-1,2.5-2.4,3-4.2c0-0.1,0.1-0.3,0.1-0.4c0,0,0,0,0,0
					c0-0.3,0.1-0.6,0.1-0.9C115.7,213.9,115.7,213.3,115.6,212.7z"/>
				<path class="st17" d="M180.3,81.4c-0.1,0.3-0.2,0.6-0.3,0.9c0,0,0,0.1,0,0.1c-0.1,0.2-0.2,0.4-0.3,0.6c-0.3,0.6-0.5,1.3-0.8,1.9
					c-0.1,0.2-0.2,0.3-0.2,0.5c-0.2,0.4-0.4,0.8-0.6,1.2c-0.2,0.5-0.5,1-0.8,1.5c0,0.1-0.1,0.1-0.1,0.2c-1.3,2.5-2.8,4.9-4.5,7.2
					c5.1-0.4,9.3-0.9,10.1-1.6c2.4-1.9,4.4-6.2,5.8-11.1C187,83.3,184.1,83.4,180.3,81.4z"/>
				<path class="st17" d="M68.7,83.4c-0.5-1.2-1-2.5-1.4-3.7c0,0,0,0,0,0c-0.3-0.9-0.6-1.7-0.8-2.6c0-0.2-0.1-0.3-0.1-0.5
					c-0.2-0.8-0.4-1.6-0.6-2.4c0-0.1,0-0.1,0-0.2c0-0.1,0-0.1,0-0.2c-0.1-0.6-0.2-1.2-0.4-1.7c0,0,0-0.1,0-0.1
					c-0.2-1-0.4-2.1-0.5-3.1c0,0,0-0.1,0-0.1c0-0.3-0.1-0.6-0.1-0.9c-4.2,1-6.9,0.2-8.5-0.6c0.3,5.1,1.2,9.8,3.1,12.2
					C60,80.4,63.9,81.9,68.7,83.4z"/>
				<path class="st3" d="M110.5,64.9c2-0.4,3.9-1.1,5.6-2l1.2-0.6c0.4-0.2,0.7-0.5,1.1-0.7c0.7-0.5,1.5-0.9,2-1.6
					c0.6-0.6,1.3-1.1,1.8-1.7c0.3-0.3,0.5-0.6,0.8-0.9c-0.3,0.3-0.6,0.7-0.9,1C119,61.7,114.9,64,110.5,64.9z"/>
				<path class="st3" d="M123.9,56.4c0.1-0.1,0.1-0.2,0.2-0.3c-0.2,0.3-0.5,0.7-0.8,1C123.5,56.9,123.7,56.7,123.9,56.4z"/>
				<path class="st3" d="M161.7,43.1C161.7,43.1,161.7,43.1,161.7,43.1C161.7,43.2,161.7,43.2,161.7,43.1z"/>
				<path class="st3" d="M170,72.5c-0.7,1.2-1.4,2.4-2.3,3.5C168.6,74.9,169.4,73.7,170,72.5z"/>
				<path class="st3" d="M180.6,64c0.1-4-0.3-7.9-1.2-11.7C174.6,40.8,166.1,32,155.9,26c-0.3-0.2-0.6-0.3-0.8-0.5c0,0-0.1,0-0.1,0
					c-15.7-8.9-35.4-11.2-52.7-6.2c-0.1,0-0.2,0.1-0.4,0.1c-0.3,0.1-0.6,0.2-0.9,0.3c-11.7,3.6-22.2,10.6-29.6,21.2
					c-1.8,4.1-3,8.5-3.4,13.2c-0.7,5.2-0.5,10.4,0.3,15.5C82.6,91.4,150.7,121.5,180.6,64z M131.1,62.3c0.1-0.8,0.1-1.6,0.2-2.4
					c0.5-3.3,1.5-6.2,2.8-8.5c0.6-1.2,1.4-2.2,2-3.2c0.7-0.9,1.4-1.7,2-2.5c0.7-0.7,1.3-1.3,1.9-1.8c0.5-0.5,1.1-0.8,1.5-1.1
					c0.8-0.6,1.3-0.9,1.3-0.9c0,0,0.5-0.3,1.4-0.8c0.4-0.2,1-0.6,1.7-0.8c0.7-0.3,1.5-0.7,2.5-0.9c1.9-0.6,4.2-1,7-1
					c2.8,0.1,5.9,0.8,8.9,2.5c0.3,0.2,0.7,0.4,1,0.6c0.4,0.3,0.7,0.5,1.1,0.8c0.4,0.3,0.7,0.6,1.1,0.9c0.3,0.3,0.6,0.6,1,1
					c0.3,0.3,0.6,0.7,1,1c0.3,0.4,0.6,0.7,0.9,1.1c0.6,0.7,1.1,1.5,1.6,2.4c1.8,3.1,3,6.8,3.1,10.6c0,0.3,0,0.6,0,0.9
					c0,4.3-1.2,8.5-3.3,12.2c-1,1.9-2.3,3.6-3.8,5.1c-1.5,1.6-3.3,3-5.2,4.1c-3.8,2.2-8.2,3.2-12.5,2.9c-4.3-0.3-8.3-2-11.4-4.6
					c-3.1-2.6-5.3-6.1-6.5-9.6l-0.5-1.3c-0.1-0.4-0.2-0.9-0.3-1.3c-0.2-0.9-0.4-1.8-0.4-2.7C131.1,64.1,131,63.2,131.1,62.3z
					 M87.1,37.3c1.2-4.2,3.3-8,6.3-11.2c2.8-3,6.7-5.2,10.5-6.2c1-0.3,1.9-0.5,2.9-0.5c0.5-0.1,1-0.1,1.4-0.2c0.5,0,1,0,1.4,0
					c0.5,0,0.9,0,1.4,0c0.5,0.1,1,0.1,1.4,0.2c0.5,0.1,1,0.1,1.4,0.2c0.4,0.1,0.8,0.2,1.2,0.3c0.4,0.1,0.8,0.2,1.2,0.3
					c0.3,0.1,0.1,0,0.2,0.1c0.1,0,0.3,0.1,0.3,0.1l0.3,0.1l0.6,0.3c0.8,0.3,1.5,0.7,2.2,1.1c0.7,0.4,1.4,0.8,1.9,1.3
					c0.6,0.5,1.1,1,1.6,1.5c2,2,3.3,4.1,4.1,5.9c0.5,0.8,0.7,1.7,1,2.5c0.3,0.7,0.4,1.3,0.6,1.8c0.2,1,0.4,1.5,0.4,1.5l0,0
					c0,0,0.1,0.5,0.2,1.6c0.1,0.5,0.3,1.1,0.3,1.9c0,0.8,0.1,1.6,0.1,2.6c-0.1,1-0.2,2-0.3,3.2c-0.3,1.1-0.4,2.4-0.8,3.7
					c-0.7,2.6-2.1,5.3-4,8.1c-0.5,0.6-1,1.2-1.6,1.9c-0.6,0.7-1.3,1.2-2,1.8c-0.6,0.6-1.4,1.1-2.2,1.6c-0.4,0.3-0.8,0.5-1.2,0.8
					l-1.3,0.6c-3.4,1.7-7.4,2.7-11.6,2.4c-4.1-0.2-8.3-2.1-11.5-5c-3.2-2.9-5.5-6.8-6.7-11.1C85.9,46,85.9,41.4,87.1,37.3z"/>
				<path class="st0" d="M101,19.6c0.3-0.1,0.6-0.2,0.9-0.3c0.1,0,0.2-0.1,0.4-0.1c8.4-2.5,17.5-3.4,27-2.3
					c9.4,1.1,18.1,4.1,25.7,8.5c0,0,0.1,0,0.1,0c0.3,0.2,0.6,0.3,0.8,0.5c10.2,6,18.7,14.8,23.6,26.3c-2.2-9.8-7.6-18.9-15.5-26
					c-14.4-12.4-36-17.9-55.5-13.8c-16.1,3.8-30.6,13.8-37,28.4C78.8,30.3,89.3,23.3,101,19.6z"/>
				<polygon class="st3" points="137,148.1 130.6,148.1 124.4,156.3 124.4,159.3 131.1,167.8 137.7,167.8 129.1,157.5 				"/>
				<polygon class="st16" points="128.1,133.2 118.8,141.1 108.4,132.5 108.4,139.2 117,145.8 120,145.8 128.1,139.6 				"/>
				<path class="st1" d="M108.5,146.6c-0.3-0.4-0.5-0.7-0.7-0.9C108,146,108.3,146.3,108.5,146.6z"/>
				<path class="st1" d="M125.9,171.1c-0.8-0.6-1.5-1.2-2.2-1.7C124.4,169.9,125.2,170.5,125.9,171.1z"/>
				<path class="st1" d="M153,151.5c0.7,4.3,1.3,8.7,1.6,13C154.4,160.2,153.8,155.8,153,151.5z"/>
				<path class="st1" d="M115,155c-0.2-0.2-0.4-0.5-0.6-0.8C114.6,154.5,114.8,154.7,115,155z"/>
				<path class="st1" d="M90.3,167c0.3-0.5,0.6-0.9,0.9-1.4C90.8,166.1,90.5,166.5,90.3,167z"/>
				<path class="st1" d="M65.7,73.9c-0.1-0.6-0.3-1.2-0.4-1.8c0,0,0,0.1,0,0.1C65.5,72.7,65.6,73.3,65.7,73.9z"/>
				<path class="st17" d="M115.7,126.8c15.8,1.8,26.5-4.6,32.6-10.1c0,0,0,0,0,0c-0.3-0.3-0.6-0.6-0.8-0.9c0.2,0.2,0.4,0.5,0.6,0.7
					c-0.2-0.2-0.4-0.5-0.6-0.7c-18.4,8.1-42,5.5-58.1-6.4c-2.3-1.6-4.5-3.4-6.5-5.4c-0.7-0.6-1.3-1.3-2-2c0,0,0,0,0,0
					c-1.1-0.6-2.2-1.2-3.3-1.8c-0.9-0.5-1.7-1-2.6-1.5c0,0,0,0,0,0C79.2,109.6,95.1,124.5,115.7,126.8z"/>
				<path class="st17" d="M148.3,116.7C148.3,116.7,148.3,116.7,148.3,116.7c0,0-0.1-0.1-0.1-0.1c0,0-0.1-0.1-0.1-0.1
					c-0.2-0.2-0.4-0.5-0.6-0.7C147.7,116.1,148,116.4,148.3,116.7z"/>
				<path class="st0" d="M107.6,48c1.4,0.6,3-0.1,3.6-1.5c0.6-1.4-0.1-3-1.5-3.6c-1.4-0.6-3,0.1-3.6,1.5
					C105.5,45.8,106.2,47.4,107.6,48z"/>
				<path class="st46" d="M169.4,50.1c-0.4-0.7-0.9-1.4-1.5-2c-0.3-0.3-0.5-0.6-0.8-0.9c-0.3-0.3-0.6-0.5-0.9-0.8
					c-0.3-0.3-0.6-0.5-0.9-0.8c-0.3-0.2-0.6-0.4-0.9-0.6c-0.3-0.2-0.6-0.4-0.9-0.6c-0.4-0.2-0.7-0.4-1.1-0.6c-0.3-0.2-0.7-0.4-1-0.5
					c-0.1,0-0.2-0.1-0.2-0.1l-0.2-0.1l-0.5-0.2c-0.6-0.3-1.3-0.6-1.9-0.7c-1.3-0.4-2.5-0.6-3.7-0.8c-2.4-0.2-4.5-0.2-6.3,0.2
					c-0.9,0.1-1.6,0.4-2.3,0.6c-0.7,0.2-1.2,0.4-1.7,0.6c-0.8,0.4-1.3,0.6-1.4,0.6c-0.1,0.1-0.5,0.3-1.2,0.8
					c-0.4,0.3-0.9,0.6-1.4,1.1c-0.5,0.5-1.1,1-1.8,1.6c-0.6,0.7-1.2,1.5-2,2.3c-0.6,0.9-1.3,1.9-1.9,3c-1.2,2.2-2.2,5-2.7,8
					c-0.1,0.8-0.1,1.6-0.2,2.4c0,0.7,0.1,1.6,0.1,2.4c0,0.8,0.2,1.7,0.4,2.5c0.1,0.4,0.2,0.9,0.3,1.3l0.4,1.3c0,0,0,0,0,0.1
					c1.7,5.1,5.2,9.5,9.8,11.8c6.6,3.3,15.2,2.6,21.3-2.3c1.1-0.9,2.2-2.1,3.2-3.3c0.9-1.1,1.6-2.3,2.3-3.5c0-0.1,0.1-0.2,0.1-0.2
					c0,0,0,0,0,0c0.1-0.2,0.2-0.4,0.3-0.6c1.8-3.6,2.5-7.8,2.3-11.4C172.6,56.4,171.3,53,169.4,50.1z M155.2,68.1
					c-1.8,4.3-6.7,6.3-11,4.5c-4.3-1.8-6.3-6.7-4.5-11c1.8-4.3,6.7-6.3,11-4.5C154.9,58.9,156.9,63.8,155.2,68.1z"/>
				<path class="st46" d="M161.7,43.1C161.7,43.1,161.7,43.1,161.7,43.1C161.7,43.2,161.7,43.2,161.7,43.1z"/>
				<path d="M161.7,43.1C161.7,43.2,161.7,43.2,161.7,43.1C161.7,43.1,161.7,43.1,161.7,43.1z"/>
				<path class="st0" d="M147.3,58.5c-1.4-0.6-3,0.1-3.6,1.5s0.1,3,1.5,3.6c1.4,0.6,3-0.1,3.6-1.5S148.7,59.1,147.3,58.5z"/>
				<path class="st0" d="M170.8,185.6C170.8,185.6,170.8,185.6,170.8,185.6c-0.1-0.3-0.1-0.6-0.2-0.8c0,0,0,0,0,0
					c-0.1-0.3-0.2-0.5-0.3-0.8c0,0,0,0,0-0.1c-0.1-0.2-0.2-0.5-0.3-0.7c0,0,0-0.1-0.1-0.1c-0.1-0.2-0.2-0.4-0.3-0.6
					c0-0.1-0.1-0.1-0.1-0.2c-0.1-0.2-0.2-0.4-0.3-0.6c0-0.1-0.1-0.1-0.1-0.2c-0.1-0.2-0.2-0.3-0.3-0.5c-0.1-0.1-0.1-0.2-0.2-0.2
					c-0.1-0.1-0.2-0.3-0.3-0.4c-0.1-0.1-0.2-0.2-0.3-0.3c-0.1-0.1-0.2-0.2-0.3-0.3c-0.1-0.1-0.3-0.2-0.4-0.4
					c-0.1-0.1-0.2-0.2-0.2-0.2c-0.2-0.2-0.4-0.4-0.7-0.6c-3-2-7-2.8-10.9-2.5c-2.3,0.3-4.7,1-7.3,2.2c0,0,0,0,0,0
					c-4.2,2.5-7.6,4.5-10.7,6.4c-5.8,3.6-10.4,7.1-15.8,12.9c3.6-1,8.4-0.4,13.3,1.1c0.1,0,0.1,0,0.2,0.1c0.2,0.1,0.3,0.1,0.5,0.2
					c5.7,1.9,11.3,5.3,15,9.4c0.2,0.2,0.3,0.4,0.5,0.6c0.1,0.1,0.2,0.2,0.3,0.4c1.9,2.3,3.1,4.9,3.3,7.5c1.7-2.8,1.8-5.5,0.8-8
					c-0.6-1.6-1.7-3.1-3.1-4.5c-2.5-2.5-5.9-4.4-9-5.5c-0.4-0.1-0.6-0.5-0.6-0.8c0-0.1,0-0.2,0.1-0.3c0.2-0.1,0.5-0.2,0.7-0.3
					c0,0,0.1,0,0.1,0c0.2-0.1,0.5-0.1,0.8-0.1c0,0,0.1,0,0.1,0c0.3,0,0.6,0,0.9,0c0,0,0.1,0,0.1,0c0.3,0,0.6,0.1,1,0.1c0,0,0,0,0,0
					c0.2,0,0.4,0.1,0.5,0.1c0.2,0.1,0.5,0.2,0.7,0.2c5.1,0.4,17.7,0.5,23.3-7c0,0,0,0,0,0C171.2,189.1,171.2,187.3,170.8,185.6z"/>
				<path class="st17" d="M147.6,197.8C147.6,197.8,147.6,197.8,147.6,197.8c1.6,0.5,3.4,1.4,4.9,2.4c0.1,0,0.1,0.1,0.2,0.1
					c0.3,0.2,0.5,0.4,0.8,0.6c1.6,1.1,2.8,2.4,3.5,3.5c0,0,0,0,0,0c0.2-0.1,0.3-0.1,0.5-0.2c2.2-0.7,4.1-1.6,5.7-2.6
					c0.4-0.3,0.9-0.6,1.3-0.9c2.3-1.7,4-3.7,5.1-5.8c0.1-0.1,0.1-0.2,0.2-0.3c0.1-0.2,0.2-0.5,0.3-0.8c0.1-0.2,0.2-0.4,0.2-0.6
					c0.1-0.2,0.1-0.4,0.2-0.6c0.1-0.2,0.1-0.3,0.2-0.5c0.1-0.4,0.2-0.8,0.3-1.1c0-0.1,0-0.1,0-0.2
					C165.3,198.3,152.7,198.2,147.6,197.8z"/>
				<path class="st3" d="M163.2,201.6c-1.6,1-3.5,1.9-5.7,2.6C159.5,203.6,161.5,202.7,163.2,201.6z"/>
				<path class="st7" d="M68.3,69.5C71,85.9,81,101,95.6,109.4c5.5,3.3,11.5,5.5,17.7,6.7c1.7,0.3,3.4,0.5,5.1,0.7
					c0.1,0,0.2,0,0.3,0c0.1,0,0.2,0,0.4,0c8.1,0.7,16.4-0.4,24.1-3.1c0.4-0.1,0.8-0.3,1.2-0.4c5-1.9,9.8-4.4,14.1-7.7
					c0.1-0.1,0.1-0.1,0.2-0.1c2.4-1.9,4.7-3.9,6.8-6.2c10.2-11.1,15-23.5,15.3-35.3C150.7,121.5,82.6,91.4,68.3,69.5z"/>
				<path class="st46" d="M69.2,139.6c0.4-1.5,0.7-3,1.1-4.5c-0.9-0.4-1.8-0.8-2.7-1.2c-0.2,2.8-0.4,5.6-0.5,8.3s-0.2,5.6-0.2,8.3
					c0.3-1.6,0.6-3.3,0.9-4.9c0.1-0.3,0.1-0.5,0.2-0.8c0.1-0.3,0.1-0.6,0.2-1c0.2-1,0.5-2,0.7-3.1C69,140.4,69.1,140,69.2,139.6z"/>
				<path class="st46" d="M62.7,159.2c0-1.1-0.1-2.2-0.1-3.3c0-0.8,0-1.6,0-2.5c0-2,0-4,0-6c-2,0.4-3.6,0.9-4.2,1.3
					c0,0.1-0.1,0.3-0.1,0.4c0,0.1,0,0.1,0,0.2c0,0.1,0,0.3-0.1,0.4c0,0.1,0,0.1,0,0.2c0,0.2,0,0.3-0.1,0.5c0,0.1,0,0.1,0,0.2
					c0,0.2,0,0.5-0.1,0.8c0,0,0,0.1,0,0.1c0,0.2,0,0.5,0,0.8c0,0.1,0,0.2,0,0.3c0,0.2,0,0.5,0,0.7c0,0.1,0,0.2,0,0.3
					c0,0.3,0,0.7,0,1c0,0,0,0,0,0c0,0.4,0,0.8,0,1.2c0,0,0,0.1,0,0.1c0,0.4,0,0.7,0,1.1c0,0.1,0,0.1,0,0.2c0,0.4,0,0.7,0,1.1
					c0,0,0,0.1,0,0.1c0,1.3,0.1,2.7,0.1,4c0,0,0,0,0,0c0.1,1.4,0.1,2.7,0.2,4c0,0,0,0,0,0c0,0,0,0,0,0c0,0,0,0,0,0v0
					c0,0,0,0.1,0,0.1c0,0.4,0.1,0.8,0.1,1.2c0,0,0,0,0,0c0,0.1,0,0.3,0,0.4c0,0,0,0,0,0c0,0.3,0.1,0.6,0.1,0.9c0,0,0,0,0,0
					c0,0.1,0,0.3,0,0.4c0,0.4,0.1,0.7,0.1,1c0,0,0,0.1,0,0.1c0,0.1,0,0.1,0,0.2c0,0.3,0.1,0.6,0.1,0.8c0,0.1,0,0.2,0.1,0.4
					c0,0.2,0.1,0.4,0.1,0.6c0,0.1,0,0.2,0.1,0.3c0.1,0.3,0.1,0.5,0.2,0.7c0,0,0,0,0,0c0,0,0,0,0,0.1c0.1,0.2,0.1,0.4,0.2,0.5
					c0,0,0,0,0,0.1c0,0,0,0.1,0,0.1c0.1,0.2,0.1,0.3,0.2,0.4c0,0,0,0,0,0c0,0,0,0,0,0c0.1,0.1,0.2,0.1,0.3,0.2
					c0.1,0,0.1,0.1,0.2,0.1c0,0,0,0,0,0c0.1,0,0.2,0.1,0.3,0.1c0.1,0,0.1,0,0.2,0.1c0.3,0.1,0.5,0.1,0.8,0.2c0,0,0,0,0,0
					c0.3,0.1,0.6,0.1,0.9,0.1c0,0,0.1,0,0.1,0c0.4,0,0.9,0.1,1.3,0.1c-0.3-2.9-0.6-5.7-0.8-8.6C63,164.4,62.8,161.8,62.7,159.2z"/>
				<path class="st46" d="M114.2,204.8c-1.8-1.4-4-2-6.2-2.2c-4.3-0.4-9,0.7-12.9,1.4c-0.1,0-0.2,0-0.3,0c-0.1-0.1-0.2-0.2-0.2-0.3
					c0,0,0,0,0,0c1.4-0.9,3.6-1.6,6-2.1c2.3-0.4,4.7-0.7,7.1-0.6c2.2,0,4.2,0.3,5.7,0.8c0-2.4,0-6.3,0-8.6c-0.1-1.9,0-4.1,0-6.3
					c0.1-2.9,0.1-6.1,0-9.1c-0.2-3.9-0.7-7.6-2-10.8c-0.3-0.8-0.7-1.5-1.1-2.3c-0.4-0.4-0.9-0.8-1.4-1.2c-1-0.8-2.2-1.4-3.5-1.9
					c0,0,0,0,0,0c0,0,0,0,0,0c-6.3-1.8-10.6-0.2-13.6,3.4c-0.1,0.1-0.2,0.3-0.3,0.4c-0.1,0.1-0.1,0.2-0.2,0.3
					c-0.3,0.4-0.6,0.9-0.9,1.4c-0.3,0.4-0.5,0.9-0.7,1.4c0,0,0,0,0,0c-0.2,0.5-0.4,1-0.7,1.5c-0.1,0.3-0.3,0.7-0.4,1
					c-0.1,0.2-0.1,0.3-0.2,0.5c-0.6,1.8-1.1,3.8-1.5,5.8c0,0.1,0,0.1,0,0.2c-0.1,0.5-0.2,1-0.3,1.5c0,0.1,0,0.2,0,0.3
					c-0.1,0.8-0.2,1.5-0.3,2.3c0,0.3-0.1,0.6-0.1,1c0,0.3-0.1,0.6-0.1,0.9c0,0.4-0.1,0.8-0.1,1.2c0,0.2,0,0.5,0,0.7
					c0,0.5-0.1,1.1-0.1,1.6c0,0.5,0,1,0,1.5c0,0.1,0,0.3,0,0.4c-0.1,4.6,0.2,9,0.6,12.4c0,0.1,0,0.1,0,0.2c0.6,3.5,0.9,7.4,2,11
					c0.8,2.7,2.1,5.2,4.2,7.2c0,0,0,0,0,0c0.7,0.5,1.4,0.9,2.1,1.2c2.5,1.2,5.5,1.8,8.4,1.7c3.4-0.1,6.7-0.9,9.5-2.4
					c0.3-0.2,0.7-0.4,1-0.6c1.1-1,1.7-2.2,2-3.6c0-0.1,0.1-0.3,0.1-0.4c0,0,0,0,0,0c0-0.3,0.1-0.6,0.1-0.9c0.1-1.7-0.1-3.5-0.4-5.2
					C115,207.7,114.6,206.2,114.2,204.8z"/>
				<path class="st46" d="M110.4,158.9c0.5,0.6,1,1.2,1.5,1.8l0.7-1v-3l-6.6-8.5h-6.6l5.5,6.7c1.4,0.7,2.7,1.5,3.9,2.5
					C109.3,157.8,109.8,158.3,110.4,158.9z"/>
				<path class="st46" d="M128.5,183.5v-6.6l-8.5-6.6h-3l-0.8,0.6c0.3,1.7,0.6,3.5,0.6,5.3l1.4-1.2L128.5,183.5z"/>
				<path class="st46" d="M68.7,83.4c-0.5-1.2-1-2.5-1.4-3.7c0,0,0,0,0,0c-0.3-0.9-0.6-1.7-0.8-2.6c0-0.2-0.1-0.3-0.1-0.5
					c-0.2-0.8-0.4-1.6-0.6-2.4c0-0.1,0-0.1,0-0.2c0-0.1,0-0.1,0-0.2c-0.1-0.6-0.3-1.2-0.4-1.8c0,0,0,0,0-0.1
					c-0.2-1.1-0.4-2.3-0.6-3.4c-0.2-1.2-0.3-2.3-0.4-3.5c-0.1-1.7-0.2-3.4-0.2-5.1c0.1-6.3,1.1-12.5,3.1-18.4
					c-4.2,1.3-7.8,2.6-8.5,3.4c-0.1,0.1-0.2,0.3-0.3,0.5c0,0.1-0.1,0.1-0.1,0.2c-0.1,0.1-0.1,0.3-0.2,0.5c0,0.1-0.1,0.2-0.1,0.2
					c-0.1,0.2-0.1,0.4-0.2,0.6c0,0.1,0,0.1-0.1,0.2c-0.1,0.3-0.2,0.6-0.3,1c0,0.1,0,0.1,0,0.2c-0.1,0.3-0.1,0.6-0.2,0.9
					c0,0.1,0,0.2-0.1,0.3c-0.1,0.3-0.1,0.6-0.2,1c0,0.1,0,0.2,0,0.2c-0.2,0.9-0.3,1.8-0.4,2.8c0,0,0,0.1,0,0.1
					c-0.1,0.5-0.1,1-0.2,1.5c0,0,0,0.1,0,0.1c-0.4,3.8-0.6,8.1-0.4,12.1c0.3,5.1,1.2,9.8,3.1,12.2C60,80.4,63.9,81.9,68.7,83.4z"/>
				<path class="st46" d="M150.3,14c8.9,4,16.8,10,22.6,17.9c-4.8-8.2-11.7-15.1-20-20c-0.2-0.1-0.3-0.2-0.5-0.3
					c-0.1,0-0.1-0.1-0.2-0.1c-6.4-3.7-13.7-6.1-21.5-7.1c-7.7-0.9-15.3-0.2-22.4,1.9c-0.1,0-0.2,0-0.2,0.1c-0.2,0.1-0.4,0.1-0.6,0.2
					c-9.2,2.8-17.4,7.9-24,14.8c7.3-6.1,16-10,25.2-11.9C122.5,6.5,137.4,8.2,150.3,14z"/>
				<path class="st46" d="M60.4,89.3c-1.4-1-2.8-2-4.2-3c-1.7-1.3-3.4-2.5-5-3.7c-1-0.7-1.9-1.5-2.9-2.2c-0.9-0.7-1.8-1.4-2.7-2.1
					c-0.9-0.7-1.8-1.4-2.7-2.1c-1.2-0.9-2.3-1.8-3.5-2.7c-0.1,0.2-0.2,0.4-0.3,0.5c0,0-0.1,0-0.1,0c0,0,0,0,0,0
					c-0.3,0-0.5-0.7-0.8-1.7c-0.7-2.2-1.5-6.1-2.6-8.9c-0.8-1.9-1.8-3.3-3-2.9c0,0-0.1,0.1-0.1,0.1c-0.7,0.5-1.2,1.1-1.4,1.9
					c-0.4,1.2-0.5,2.6-0.5,4.1c0,1.1,0,2.1-0.2,3c0,0.2-0.1,0.3-0.1,0.5h0c-0.1,0.1-0.1,0.3-0.2,0.4c-0.2,0.2-0.4,0.4-0.6,0.6
					c-1.6,0.9-3,2.1-4.2,3.5c-0.4,0.5-0.9,1-1.3,1.6c-0.1,0.2-0.3,0.4-0.4,0.6c-0.8,1.2-1.6,2.5-2.4,3.7c0,0.1-0.1,0.1-0.1,0.1
					c-0.1,0.1-0.3,0.1-0.5,0c0,0,0,0,0,0c0.3-4.1,3.3-8.8,6.4-11.8c0-0.4-0.1-0.8-0.1-1.2c-0.1-0.8-0.1-1.6-0.1-2.4
					c0-0.4,0-0.8,0.1-1.2c-3.3-2.2-5.9-3.3-7.9-3.7c-0.1,0-0.3,0-0.4-0.1c-0.1,0-0.2,0-0.2,0c-2-0.2-3.5,0.4-5,1.4
					c-0.4,0.2-0.7,0.5-1,0.8c-0.3,0.1-0.6,0.2-0.8,0.4c-0.2,0.1-0.4,0.2-0.6,0.2c-1.1,0.4-2,0.8-2.6,1.5c-0.5,0.6-0.9,1.5-1,3
					c0,0.1,0,0.2,0,0.3c-0.1,0.9-0.6,1.6-1.1,2.3c-0.4,0.5-0.7,1.1-0.9,1.8c-1.2,3.9,1.1,9,6.4,14.8c1.2,1.3,2.5,2.5,3.9,3.9
					c3.5,3.2,7.6,7,12.6,11.3c3.8,3.2,8.1,6.7,13.1,10.6C54.1,105,59,93.2,60.4,89.3z"/>
				<path class="st46" d="M118.1,195.9c0.3-0.4,0.7-0.8,1-1.1c0.1-0.1,0.2-0.2,0.3-0.3c0.4-0.4,0.8-0.9,1.2-1.3
					c0.1-0.1,0.1-0.1,0.2-0.2c0.5-0.5,1-1,1.6-1.5c0,0,0.1-0.1,0.1-0.1c0.5-0.5,1.1-0.9,1.6-1.4c0.2-0.1,0.3-0.3,0.5-0.4
					c0.4-0.3,0.8-0.6,1.1-0.9c0.3-0.2,0.5-0.4,0.8-0.6c0.6-0.4,1.1-0.9,1.7-1.3c-0.2,0-0.6-0.2-1-0.6c-0.7-0.5-1.7-1.2-2.7-2
					c-1.7-1.3-3.5-2.9-4.9-4c-0.8-0.6-1.3-1.1-1.6-1.3l-1.4,1.2c0,1.8,0,5.9,0,9.8c0,3.3,0,6.5,0,7.9c0.4-0.5,0.7-1,1.1-1.5
					C118,196.1,118.1,196,118.1,195.9z"/>
				<path class="st46" d="M70.6,87.5c-3.7-1.1-7.8-2.4-10.6-3.8c4.5,3.2,9.1,6.5,13.8,9.4C72.6,91.3,71.6,89.4,70.6,87.5z"/>
				<path class="st46" d="M27.4,68.2C27.5,68.2,27.5,68.2,27.4,68.2C27.5,68.2,27.5,68.2,27.4,68.2C27.5,68.2,27.5,68.2,27.4,68.2
					C27.5,68.2,27.5,68.2,27.4,68.2C27.4,68.2,27.4,68.3,27.4,68.2c-0.1,0.1-0.1,0.1-0.1,0.1C27.4,68.3,27.4,68.3,27.4,68.2
					C27.4,68.3,27.4,68.2,27.4,68.2z"/>
				<path class="st46" d="M179.5,52.3c-2.2-9.8-7.6-18.9-15.5-26c-8.6-7.8-20.2-13.3-34-15.1c-7.1-0.8-14.5-0.4-21.5,1.3
					c-16.1,3.8-30.6,13.8-37,28.4c-1.8,4.1-3,8.5-3.4,13.2c-0.7,5.2-0.5,10.4,0.3,15.5C71,85.9,81,101,95.6,109.4
					c5.5,3.3,11.5,5.5,17.7,6.7c1.7,0.3,3.4,0.5,5.1,0.7c0.1,0,0.2,0,0.3,0c0.1,0,0.2,0,0.4,0c8.1,0.7,16.4-0.4,24.1-3.1
					c0.4-0.1,0.8-0.3,1.2-0.4c5-1.9,9.8-4.4,14.1-7.7c0.1,0,0.1-0.1,0.2-0.1c0,0,0,0,0,0c2.4-1.9,4.7-3.9,6.8-6.2
					c10.2-11.1,15-23.5,15.3-35.3C180.7,60,180.3,56.1,179.5,52.3z"/>
				<path class="st46" d="M150,118.7c-0.4-0.5-0.8-0.9-1.2-1.4c-0.2-0.2-0.4-0.4-0.6-0.6c0,0,0,0,0,0c0,0,0,0,0,0
					c0,0-0.1-0.1-0.1-0.1c0,0-0.1-0.1-0.1-0.1c-0.2-0.2-0.4-0.5-0.6-0.7c-18.4,8.1-42,5.5-58.1-6.4c-2.3-1.6-4.5-3.4-6.5-5.4
					c-0.7-0.6-1.3-1.3-2-2c0,0,0,0,0,0c-1.1-0.6-2.2-1.2-3.3-1.8c-0.9-0.5-1.7-1-2.6-1.5c0,0,0,0,0,0c-3.7-2.2-7.4-4.5-10.9-6.9
					c-1.9,5.1-7.1,15.9-19.1,23.5c1.4,1,2.8,2,4.3,3c2.8,1.9,5.7,3.8,8.6,5.5c2.1,1.2,4.1,2.4,6.3,3.5c0.2,0.1,0.3,0.2,0.5,0.3
					c2.3,1.2,4.6,2.3,7,3.3c0-0.1,0.1-0.2,0.2-0.4c0.5-1.4,1.7-5.5,2.9-8.9c0.7-1.9,1.4-3.6,2.1-4.6c0,0,0-0.1,0.1-0.1
					c0,0,0,0,0.1-0.1c0.6-0.8,1.2-0.9,1.5,0.4c0,0,0,0,0,0c-1.2,5-2.5,9.9-3.8,14.9c5,1.9,9.9,3.2,14.6,3.7c0.1,0,0.3,0,0.4,0.1
					c0.3,0.1,0.6,0.3,0.8,0.5c0.3,0.3,0.5,0.6,0.6,0.9c0,0.1,0.1,0.2,0.1,0.4c0,0.1,0,0.3,0,0.4c-0.1,0.9-0.6,1.4-1.5,1.6
					c0,0,0,0-0.1,0c-0.1,0-0.2,0-0.3,0.1c-0.1,0-0.1,0-0.2,0c-0.1,0-0.2,0-0.3,0c-0.1,0-0.1,0-0.2,0c-0.1,0-0.2,0-0.2,0
					c-0.1,0-0.2,0-0.3,0c-0.1,0-0.1,0-0.2,0c-0.1,0-0.3,0-0.4,0c-0.1,0-0.2,0-0.2,0c-0.1,0-0.2,0-0.4,0c-0.1,0-0.2,0-0.3,0
					c-0.1,0-0.3,0-0.4,0c-0.2,0-0.3,0-0.5-0.1c-0.1,0-0.1,0-0.2,0c-0.2,0-0.4-0.1-0.6-0.1c0,0,0,0-0.1,0c-0.2,0-0.4-0.1-0.7-0.1
					c0,0,0,0,0,0c-3.4-0.8-7.3-2.2-9.5-2.9c-0.4-0.1-0.8-0.3-1.1-0.3c-1.4,6.3-3.3,14.7-4.4,23.3c-1.2,9.7-1.2,19.8,1.9,27.8
					c2.1,5.5,5.8,10,11.5,12.7c-0.2-2-0.5-4.8-0.7-7.4c-0.3-2.8-0.3-6-0.1-9.2c0.4-6.4,1.9-13.1,5.1-18.1c2.5-3.9,6.1-6.7,11.1-7.5
					c0.1,0,0.2,0,0.3,0c0.3,0,0.5-0.1,0.8-0.1c1-0.1,2-0.1,3.2,0c-3.1-1.3-6.3-1.7-9.3-1.3c0,0-0.1,0-0.1,0c-0.3,0-0.7,0.1-1,0.2
					c-2.2,0.4-4.4,1.2-6.3,2.4c0,0,0,0,0,0c-0.2,0.1-0.4,0.2-0.5,0.3c-0.2,0.1-0.3,0.2-0.5,0.3c0,0,0,0,0,0
					c-5.2,3.3-9.3,8.8-11.1,14.8c0,0.3-0.2,0.4-0.3,0.5c-0.2,0.1-0.4,0.2-0.6,0.1c-0.4,0-0.8-0.3-0.8-0.8c0,0,0,0,0,0c0,0,0,0,0,0
					c0.2-2.3,0.8-4.6,1.7-6.7c0.5-1.3,1.2-2.5,2-3.7c0.3-0.4,0.6-0.9,0.9-1.3c0.3-0.5,0.7-0.9,1.1-1.3c0.3-0.3,0.5-0.6,0.8-0.9
					c0.5-0.6,1.1-1.1,1.7-1.7c0.3-0.3,0.6-0.5,0.9-0.8c0.1-0.1,0.2-0.2,0.3-0.2c0.8-0.6,1.6-1.1,2.4-1.7c0.6-0.3,1.1-0.7,1.7-0.9
					c0.5-0.3,1.1-0.5,1.7-0.7c0.4-0.1,0.7-0.3,1.1-0.4c1.4-0.5,2.9-0.8,4.4-1c1.1-0.1,2.3-0.2,3.4-0.1c0,0,0,0,0,0
					c1.2,0.1,2.5,0.2,3.7,0.5c-0.2-0.3-0.6-0.7-0.9-1.1c-0.3-0.3-0.6-0.7-0.9-1.1c-0.6-0.7-1.2-1.5-1.9-2.3
					c-0.6-0.7-1.2-1.5-1.7-2.1c-0.4-0.5-0.8-1-1.1-1.4c3.9,0,10.5,0,14.4,0c0.1,0.1,0.2,0.3,0.4,0.6c0.2,0.3,0.4,0.6,0.7,0.9
					c0.4,0.5,0.9,1.2,1.4,1.8c0.6,0.7,1.2,1.5,1.7,2.3c0.6,0.8,1.2,1.6,1.8,2.3c0.3,0.4,0.6,0.8,0.9,1.2c0.2,0.3,0.4,0.6,0.6,0.8
					c0.2,0.3,0.4,0.5,0.5,0.7c0,1.3,0,3.8,0,5c-0.6,0.8-1.4,1.9-2,2.7c0.4,0.7,0.7,1.4,1,2.1c0.3,0.7,0.6,1.5,0.8,2.2l0.6-0.5
					c1.3,0,3.8,0,5,0c0.2,0.1,0.4,0.3,0.7,0.6c0.1,0,0.1,0.1,0.2,0.1c0.5,0.4,1.1,0.9,1.9,1.4c0.7,0.5,1.4,1.1,2.2,1.7
					c0.6,0.5,1.2,0.9,1.7,1.3c0.5,0.4,1,0.8,1.4,1.1c0.4,0.3,0.8,0.7,1.2,0.9c0.2,0.2,0.4,0.3,0.5,0.4c0.3,0.2,0.5,0.4,0.7,0.5
					c0,1.8,0,7.4,0,9.2c2.1-1.4,6.1-3.5,8.2-4.7c0.1-0.1,0.2-0.1,0.3-0.2c0.6-0.5,1.1-0.9,1.7-1.3c2.3-1.7,4.7-3.1,7.2-4
					c1-0.4,2.1-0.7,3.1-1c4.2-1,8.6-0.8,12.9,0.9c-1.1-1-2.4-2-3.7-2.8c-1.3-0.8-2.7-1.5-4-2c-0.8-0.3-1.6-0.6-2.3-0.7
					c-0.1,0-0.1,0-0.2-0.1c-0.4-0.1-0.8-0.3-1-0.5c-0.4-0.4-0.6-1-0.6-1.6c0-1,0.6-1.9,1.7-2.1c-0.3-4.4-0.9-8.7-1.6-13
					c-0.3-1.8-0.6-3.7-1-5.5c-1.2-6.1-2.5-12.2-3.7-18.3c0,0,0,0,0,0c0,0,0,0,0,0c0.5-1.5,1.1-1.1,1.9,0.3c0.1,0.1,0.1,0.2,0.2,0.3
					c0,0.1,0.1,0.1,0.1,0.2c1.5,3.3,3.3,10.1,4.3,14.6c0.5,2.1,0.8,3.7,0.9,4.1c1.2,6,2.1,12.1,2.5,18.3c1.2,0.5,2.5,1,3.7,1.7
					c1.1,0.6,2.1,1.2,3.2,2c1.4,1,2.7,2.2,4.2,3.7c1.4-6.4,0.5-14.1-1.8-22c-1.5-5-3.6-10-6-14.7c-0.5-0.9-1-1.8-1.5-2.7
					c-0.4-0.7-0.8-1.5-1.3-2.2c-0.1-0.2-0.2-0.3-0.3-0.5c-0.5-0.8-1-1.6-1.5-2.4c0-0.1-0.1-0.1-0.1-0.2c-0.5-0.8-1-1.6-1.6-2.4
					c0,0,0-0.1-0.1-0.1c-0.5-0.8-1-1.5-1.6-2.2c0-0.1-0.1-0.1-0.1-0.2c-0.5-0.7-1-1.3-1.5-2c-0.1-0.1-0.1-0.2-0.2-0.3
					c-0.5-0.6-0.9-1.1-1.4-1.7C150.3,119,150.2,118.9,150,118.7z"/>
				<path class="st46" d="M191.6,62.6c0-0.2,0-0.5-0.1-0.7c0-0.1,0-0.2,0-0.2c0-0.2-0.1-0.3-0.1-0.5c0-0.1,0-0.1,0-0.2
					c0-0.2-0.1-0.4-0.2-0.5c-0.5-0.9-3.7-3-7.5-5.2c0.2,1.7,0.2,3.4,0.2,5.1c0,1.7-0.1,3.4-0.2,5.2c0,0.3-0.1,0.6-0.1,0.9
					c-0.1,1.5-0.3,2.9-0.6,4.3c-0.2,1-0.4,2-0.6,3c-0.3,1.2-0.6,2.5-1,3.7c-0.4,1.3-0.8,2.5-1.2,3.7c-0.2,0.6-0.4,1.2-0.7,1.7
					c-0.3,0.6-0.5,1.3-0.8,1.9c-0.1,0.2-0.2,0.3-0.2,0.5c-0.2,0.4-0.4,0.8-0.6,1.2c-0.2,0.5-0.5,1-0.8,1.5c0,0.1-0.1,0.1-0.1,0.2
					c-1.3,2.5-2.8,4.9-4.5,7.2c5.1-0.4,9.3-0.9,10.1-1.6c2.4-1.9,4.4-6.2,5.8-11.1c1.1-3.9,2-8.1,2.5-11.9c0,0,0-0.1,0-0.1
					c0.1-0.5,0.1-1,0.2-1.5c0,0,0-0.1,0-0.1c0.1-1,0.2-1.9,0.2-2.8c0-0.1,0-0.2,0-0.2c0-0.3,0-0.7,0-1c0-0.1,0-0.2,0-0.3
					c0-0.3,0-0.6,0-0.9c0-0.1,0-0.1,0-0.2c0-0.3,0-0.7,0-1C191.6,62.7,191.6,62.7,191.6,62.6z"/>
				<path class="st46" d="M169.6,182.5c0-0.1-0.1-0.1-0.1-0.2c-0.1-0.2-0.2-0.4-0.3-0.6c0-0.1-0.1-0.1-0.1-0.2
					c-0.1-0.2-0.2-0.3-0.3-0.5c-0.1-0.1-0.1-0.2-0.2-0.2c-0.1-0.1-0.2-0.3-0.3-0.4c-0.1-0.1-0.2-0.2-0.3-0.3
					c-0.1-0.1-0.2-0.2-0.3-0.3c-0.1-0.1-0.3-0.2-0.4-0.4c-0.1-0.1-0.2-0.2-0.2-0.2c-0.2-0.2-0.4-0.4-0.7-0.6
					c-2.7-2-6.4-3.1-10.9-2.5c-2.3,0.3-4.7,1-7.3,2.2c0,0,0,0,0,0c-4.2,2.5-7.6,4.5-10.7,6.4c-5.8,3.6-10.4,7.1-15.8,12.9
					c3.6-1,8.4-0.4,13.3,1.1c0.1,0,0.1,0,0.2,0.1c0.2,0.1,0.3,0.1,0.5,0.2c5.7,2,11.3,5.3,15,9.4c0.2,0.2,0.3,0.4,0.5,0.6
					c0.1,0.1,0.2,0.2,0.3,0.4c1.9,2.3,3.1,4.9,3.3,7.5c1.7-2.8,1.8-5.5,0.8-8c-0.6-1.6-1.7-3.1-3.1-4.5c-2.5-2.5-5.9-4.4-9-5.5
					c-0.4-0.1-0.6-0.5-0.6-0.8c0-0.1,0-0.2,0.1-0.3c0.2-0.1,0.5-0.2,0.7-0.3c0,0,0.1,0,0.1,0c0.2-0.1,0.5-0.1,0.8-0.1
					c0,0,0.1,0,0.1,0c0.3,0,0.6,0,0.9,0c0,0,0.1,0,0.1,0c0.3,0,0.6,0.1,1,0.1c0,0,0,0,0,0c0.2,0,0.4,0.1,0.5,0.1
					c0.2,0.1,0.5,0.2,0.7,0.2c1.6,0.5,3.4,1.4,4.9,2.4c0.1,0,0.1,0.1,0.2,0.1c0.3,0.2,0.5,0.4,0.8,0.6c1.6,1.1,2.8,2.4,3.5,3.5
					c0,0,0,0,0,0c0.2-0.1,0.3-0.1,0.5-0.2c2-0.6,4-1.5,5.7-2.6c0.4-0.3,0.9-0.6,1.3-0.9c2.3-1.7,4-3.7,5.1-5.8
					c0.1-0.1,0.1-0.2,0.2-0.3c0.1-0.2,0.2-0.5,0.3-0.8c0.1-0.2,0.2-0.4,0.2-0.6c0.1-0.2,0.1-0.4,0.2-0.6c0.1-0.2,0.1-0.3,0.2-0.5
					c0.1-0.4,0.2-0.8,0.3-1.1c0-0.1,0-0.1,0-0.2c0,0,0,0,0,0c0.3-1.8,0.2-3.5-0.2-5.2c0,0,0,0,0,0c-0.1-0.3-0.1-0.5-0.2-0.8
					c0,0,0,0,0,0c-0.1-0.3-0.2-0.5-0.3-0.8c0,0,0,0,0-0.1c-0.1-0.2-0.2-0.5-0.3-0.7c0,0,0-0.1-0.1-0.1
					C169.8,182.9,169.7,182.7,169.6,182.5z"/>
				<g>
					<path class="st1" d="M140,165.9l-7-8.5l6.3-7.4l4.1-4.9H137h-6.4h-1.5l-0.9,1.2l-6.2,8.1l-0.6,0.8v1v3v1l0.6,0.8l6.6,8.5
						l0.9,1.2h1.5h6.6h6.3L140,165.9z M131.1,167.8l-6.6-8.5v-3l6.2-8.1h6.4l-7.8,9.3l8.5,10.4H131.1z"/>
					<path class="st1" d="M126.2,131l-7.4,6.3l-8.5-7l-4.9-4v6.3v6.6v1.5l1.2,0.9l8.5,6.6l0.8,0.6h1h3h1l0.8-0.6l8.1-6.2l1.2-0.9
						v-1.5v-6.3v-6.4L126.2,131z M128.1,139.6l-8.1,6.2h-3l-8.5-6.6v-6.6l10.4,8.5l9.3-7.8V139.6z"/>
					<path class="st1" d="M194.3,59.2c-0.9-2.2-6.8-5.8-11.1-8.1C174.6-7.6,90.8-17.4,68.8,37.7C64.2,39,57.6,41.1,56.2,43
						c-3.1,4.4-5.8,29.3,0,38c-5.9-4.5-11.1-8.5-16.5-12.8c-0.2-4.3-1-10.8-6.3-11.7c-2.3-0.3-4.6,1.1-5.6,3.1
						c-6.5-4-12.2-5.5-18-0.8c-4.1,1-6.6,3.8-6.9,8.3c-7.1,9.5,3.2,21.1,11.1,28.1c8.1,7.4,28,25.8,49.3,36.6
						c-0.3,3.7-0.6,7.4-0.7,11.2c-3.5,0.6-6.9,1.6-8,3.3c-1.4,2.3-1.2,11.7-1.1,15.7c1.1,17.7,1.7,17.1,10.7,18
						c2.8,9.9,7.7,21.5,18.7,24.3c0.9,8.2,3.4,18.7,12.8,20.7c8.1,2,22.1,0.9,23.1-9.5c5.4,6.2,13.2,10.4,21.4,11.2
						c10,1.2,22.3-7.3,18.6-18.3c13.7-3.7,21-19,13.5-31.1c6.8-17.9-7-48.3-20.9-63.3c7-3.6,13.3-8.6,18.4-14.7c6-0.3,13-1,15-2.6
						C193,90.2,196.4,64.3,194.3,59.2z M107.5,6.6c0.2-0.1,0.4-0.1,0.6-0.2c0.1,0,0.2,0,0.2-0.1c7.1-2.1,14.6-2.8,22.4-1.9
						c7.8,0.9,15,3.4,21.5,7.1c0.1,0,0.1,0.1,0.2,0.1c0.2,0.1,0.3,0.2,0.5,0.3c8.3,4.9,15.2,11.8,20,20
						c-5.8-7.9-13.7-13.9-22.6-17.9c-12.8-5.8-27.8-7.5-41.6-4.6c-9.2,1.9-18,5.8-25.2,11.9C90.1,14.5,98.3,9.4,107.5,6.6z
						 M56.2,67.3c-0.2-4,0-8.3,0.4-12.1c0,0,0-0.1,0-0.1c0.1-0.5,0.1-1,0.2-1.5c0,0,0-0.1,0-0.1c0.1-1,0.3-1.9,0.4-2.8
						c0-0.1,0-0.2,0-0.2c0.1-0.3,0.1-0.7,0.2-1c0-0.1,0-0.2,0.1-0.3c0.1-0.3,0.1-0.6,0.2-0.9c0-0.1,0-0.1,0-0.2
						c0.1-0.3,0.2-0.7,0.3-1c0-0.1,0-0.1,0.1-0.2c0.1-0.2,0.1-0.4,0.2-0.6c0-0.1,0.1-0.2,0.1-0.2c0.1-0.2,0.1-0.3,0.2-0.5
						c0-0.1,0.1-0.1,0.1-0.2c0.1-0.2,0.2-0.3,0.3-0.5c0.7-0.7,4.3-2.1,8.5-3.4c-2,5.9-3,12.1-3.1,18.4c0,1.7,0,3.4,0.2,5.1
						c0.1,1.2,0.2,2.3,0.4,3.5c0.2,1.1,0.3,2.3,0.6,3.4c0,0,0,0,0,0.1c0.1,0.6,0.2,1.2,0.4,1.8c0,0.1,0,0.1,0,0.2c0,0.1,0,0.1,0,0.2
						c0.2,0.8,0.4,1.6,0.6,2.4c0,0.2,0.1,0.3,0.1,0.5c0.3,0.9,0.5,1.8,0.8,2.6c0,0,0,0,0,0c0.4,1.3,0.9,2.5,1.4,3.7
						c-4.9-1.5-8.8-3.1-9.5-3.9C57.4,77.1,56.5,72.4,56.2,67.3z M70.6,87.5c1,1.9,2,3.8,3.2,5.6c-4.7-2.9-9.4-6.1-13.8-9.4
						C62.8,85.1,66.9,86.4,70.6,87.5z M27.4,68.3C27.4,68.3,27.4,68.2,27.4,68.3C27.5,68.2,27.5,68.2,27.4,68.3
						c0.1-0.1,0.1-0.1,0.1-0.1C27.5,68.2,27.5,68.2,27.4,68.3C27.5,68.2,27.5,68.2,27.4,68.3C27.4,68.2,27.4,68.3,27.4,68.3
						C27.4,68.3,27.4,68.3,27.4,68.3C27.3,68.3,27.4,68.3,27.4,68.3z M28.1,102c-5-4.3-9.1-8.1-12.6-11.3c-1.4-1.3-2.7-2.6-3.9-3.9
						C6.3,81,4,75.8,5.1,72c0.2-0.7,0.6-1.3,0.9-1.8c0.5-0.7,1-1.3,1.1-2.3c0-0.1,0-0.2,0-0.3c0.1-1.5,0.4-2.4,1-3
						c0.6-0.7,1.5-1.1,2.6-1.5c0.2-0.1,0.4-0.2,0.6-0.2c0.3-0.1,0.5-0.2,0.8-0.4c0.3-0.3,0.7-0.6,1-0.8c1.5-1,3-1.6,5-1.4
						c0.1,0,0.2,0,0.2,0c0.1,0,0.3,0,0.4,0.1c2.1,0.4,4.6,1.5,7.9,3.7c0,0.4-0.1,0.8-0.1,1.2c0,0.8,0,1.6,0.1,2.4
						c0,0.4,0.1,0.8,0.1,1.2c-3.1,3-6,7.7-6.4,11.8c0,0,0,0,0,0c0.2,0.1,0.3,0.1,0.5,0c0,0,0.1-0.1,0.1-0.1c0.7-1.3,1.5-2.5,2.4-3.7
						c0.1-0.2,0.3-0.4,0.4-0.6c0.4-0.5,0.8-1.1,1.3-1.6c1.2-1.4,2.6-2.6,4.2-3.5c0.2-0.1,0.4-0.3,0.6-0.6c0.1-0.1,0.2-0.2,0.2-0.4h0
						c0-0.1,0.1-0.3,0.1-0.5c0.2-0.9,0.2-2,0.2-3c0-1.4,0.1-2.9,0.5-4.1c0.3-0.8,0.7-1.5,1.4-1.9c0,0,0.1-0.1,0.1-0.1
						c1.2-0.4,2.2,1,3,2.9c1.1,2.7,2,6.7,2.6,8.9c0.3,1,0.6,1.7,0.8,1.7c0,0,0,0,0,0c0,0,0.1,0,0.1,0c0.1-0.1,0.2-0.2,0.3-0.5
						c1.1,0.9,2.3,1.8,3.5,2.7c0.9,0.7,1.8,1.4,2.7,2.1c0.9,0.7,1.8,1.4,2.7,2.1c1,0.7,1.9,1.5,2.9,2.2c1.6,1.2,3.3,2.5,5,3.7
						c1.4,1,2.8,2,4.2,3c-1.3,4-6.3,15.7-19.1,23.3C36.1,108.7,31.8,105.2,28.1,102z M62.6,175.6c0,0-0.1,0-0.1,0
						c-0.3,0-0.6-0.1-0.9-0.1c0,0,0,0,0,0c-0.3-0.1-0.6-0.1-0.8-0.2c-0.1,0-0.1,0-0.2-0.1c-0.1,0-0.2-0.1-0.3-0.1c0,0,0,0,0,0
						c-0.1,0-0.1-0.1-0.2-0.1c-0.1-0.1-0.2-0.1-0.3-0.2c0,0,0,0,0,0c0,0,0,0,0,0c-0.1-0.1-0.1-0.2-0.2-0.4c0,0,0-0.1,0-0.1
						c0,0,0,0,0-0.1c-0.1-0.2-0.1-0.3-0.2-0.5c0,0,0,0,0-0.1c0,0,0,0,0,0c-0.1-0.2-0.1-0.5-0.2-0.7c0-0.1,0-0.2-0.1-0.3
						c0-0.2-0.1-0.4-0.1-0.6c0-0.1,0-0.2-0.1-0.4c0-0.3-0.1-0.5-0.1-0.8c0-0.1,0-0.1,0-0.2c0,0,0-0.1,0-0.1c0-0.3-0.1-0.7-0.1-1
						c0-0.1,0-0.3,0-0.4c0,0,0,0,0,0c0-0.3-0.1-0.6-0.1-0.9c0,0,0,0,0,0c0-0.1,0-0.3,0-0.4c0,0,0,0,0,0c0-0.4-0.1-0.8-0.1-1.2
						c0,0,0-0.1,0-0.1v0c0,0,0,0,0,0c0,0,0,0,0,0c0,0,0,0,0,0c-0.1-1.3-0.2-2.6-0.2-4c0,0,0,0,0,0c-0.1-1.3-0.1-2.7-0.1-4
						c0,0,0-0.1,0-0.1c0-0.4,0-0.8,0-1.1c0-0.1,0-0.1,0-0.2c0-0.4,0-0.7,0-1.1c0,0,0-0.1,0-0.1c0-0.4,0-0.8,0-1.2c0,0,0,0,0,0
						c0-0.3,0-0.7,0-1c0-0.1,0-0.2,0-0.3c0-0.3,0-0.5,0-0.7c0-0.1,0-0.2,0-0.3c0-0.3,0-0.5,0-0.8c0,0,0-0.1,0-0.1
						c0-0.3,0-0.5,0.1-0.8c0-0.1,0-0.1,0-0.2c0-0.2,0-0.4,0.1-0.5c0-0.1,0-0.1,0-0.2c0-0.1,0-0.3,0.1-0.4c0-0.1,0-0.1,0-0.2
						c0-0.2,0.1-0.3,0.1-0.4c0.6-0.4,2.2-0.9,4.2-1.3c0,2,0,4,0,6c0,0.8,0,1.6,0,2.5c0,1.1,0.1,2.2,0.1,3.3c0.1,2.6,0.2,5.3,0.4,7.9
						c0.2,2.9,0.4,5.7,0.8,8.6C63.5,175.7,63,175.6,62.6,175.6z M68,144.8c-0.1,0.3-0.1,0.5-0.2,0.8c-0.3,1.6-0.7,3.3-0.9,4.9
						c0-2.8,0.1-5.6,0.2-8.3l0.5-8.3c0.9,0.4,1.8,0.8,2.7,1.2l-1.4,5.7c-0.2,1-0.5,2-0.7,3.1C68.2,144.2,68.1,144.5,68,144.8z
						 M115.7,214.4c0,0.3-0.1,0.6-0.1,0.9c0,0,0,0,0,0c0,0.1-0.1,0.3-0.1,0.4c-0.3,1.4-0.9,2.6-2,3.6c-0.3,0.2-0.6,0.4-1,0.6
						c-2.8,1.5-6.1,2.4-9.5,2.4c-2.9,0.1-5.9-0.5-8.4-1.7c-0.8-0.4-1.5-0.8-2.1-1.2c0,0,0,0,0,0c-2.1-2-3.3-4.5-4.2-7.2
						c-1.1-3.5-1.4-7.4-2-11c0-0.1,0-0.1,0-0.2c-0.4-3.4-0.7-7.8-0.6-12.4c0-0.1,0-0.3,0-0.4c0-0.5,0-1,0-1.5c0-0.5,0-1.1,0.1-1.6
						c0-0.2,0-0.5,0-0.7c0-0.4,0.1-0.8,0.1-1.2c0-0.3,0-0.6,0.1-0.9c0-0.3,0.1-0.6,0.1-1c0.1-0.8,0.2-1.5,0.3-2.3c0-0.1,0-0.2,0-0.3
						c0.1-0.5,0.2-1,0.3-1.5c0-0.1,0-0.1,0-0.2c0.4-2.1,0.9-4,1.5-5.8c0.1-0.2,0.1-0.3,0.2-0.5c0.1-0.3,0.3-0.7,0.4-1
						c0.2-0.5,0.4-1,0.7-1.5c0,0,0,0,0,0c0.2-0.5,0.5-0.9,0.7-1.4c0.3-0.5,0.6-0.9,0.9-1.4c0.1-0.1,0.1-0.2,0.2-0.3
						c0.1-0.1,0.2-0.3,0.3-0.4c3-3.6,7.3-5.2,13.6-3.4c0,0,0,0,0,0c0,0,0,0,0,0c1.3,0.5,2.4,1.1,3.5,1.9c0.5,0.4,1,0.7,1.4,1.2
						c0.4,0.7,0.8,1.5,1.1,2.3c1.3,3.2,1.8,6.9,2,10.8c0.1,3.1,0.1,6.2,0,9.1c0,2.3-0.1,4.4,0,6.3c0,2.4,0,6.3,0,8.6
						c-1.5-0.5-3.5-0.8-5.7-0.8c-2.3,0-4.8,0.2-7.1,0.6c-2.4,0.5-4.6,1.2-6,2.1c0,0,0,0,0,0c0,0.1,0.1,0.2,0.2,0.3
						c0.1,0,0.2,0.1,0.3,0c4-0.7,8.7-1.8,12.9-1.4c2.3,0.2,4.4,0.9,6.2,2.2c0.3,1.3,0.7,2.9,1,4.4
						C115.6,211,115.8,212.8,115.7,214.4z M104.8,154.8l-5.5-6.7h6.6l6.6,8.5v3l-0.7,1c-0.4-0.6-0.9-1.2-1.5-1.8
						c-0.5-0.6-1.1-1.1-1.7-1.6C107.5,156.3,106.2,155.5,104.8,154.8z M116.1,170.8l0.8-0.6h3l8.5,6.6v6.6l-10.4-8.5l-1.4,1.2
						C116.7,174.3,116.5,172.6,116.1,170.8z M117.9,196.2c-0.4,0.5-0.8,1-1.1,1.5c0-1.4,0-4.6,0-7.9c0-3.9,0-8,0-9.8l1.4-1.2
						c0.3,0.2,0.8,0.7,1.6,1.3c1.3,1.1,3.2,2.7,4.9,4c1,0.8,2,1.6,2.7,2c0.5,0.3,0.8,0.5,1,0.6c-0.6,0.4-1.2,0.8-1.7,1.3
						c-0.3,0.2-0.5,0.4-0.8,0.6c-0.4,0.3-0.8,0.6-1.1,0.9c-0.2,0.1-0.3,0.3-0.5,0.4c-0.5,0.5-1.1,0.9-1.6,1.4c0,0-0.1,0.1-0.1,0.1
						c-0.5,0.5-1.1,1-1.6,1.5c-0.1,0.1-0.1,0.1-0.2,0.2c-0.4,0.4-0.8,0.9-1.2,1.3c-0.1,0.1-0.2,0.2-0.3,0.3c-0.3,0.4-0.7,0.8-1,1.1
						C118.1,196,118,196.1,117.9,196.2z M119.5,209.5c-0.2-0.4-0.3-0.8-0.4-1.2c-0.2-0.5-0.3-0.9-0.4-1.4c-0.1-0.5-0.2-1-0.2-1.5
						c0,0,0-0.1,0-0.1c0-1,0.2-1.9,0.7-2.6c0,0,0,0,0,0c0.1-0.1,0.2-0.2,0.3-0.3c0,0,0,0,0,0c0.7-0.8,1.6-1.4,3-1.7
						c0.6-0.2,1.3-0.3,2-0.4c0.1,0,0.1,0,0.2,0c0.3,0,0.6,0,0.9,0c-0.3,0.7-0.7,1.4-1.1,2.1C122.9,205.1,120.9,207.7,119.5,209.5z
						 M123.9,215.1c-0.9-0.9-1.8-1.7-2.5-2.8c1.6-1.9,4.7-5.8,6.9-10.1c0.3-0.6,0.6-1.1,0.8-1.7c1.2,0.2,2.5,0.6,3.8,1
						c-0.2,0.6-0.4,1.1-0.7,1.7C130,208.2,126.2,213.2,123.9,215.1z M129.8,219.3c-0.5-0.3-1-0.6-1.5-0.9c-0.1-0.1-0.2-0.2-0.4-0.2
						c-0.5-0.3-1-0.7-1.5-1c3-2.7,6.7-7.8,8.8-12.7c0.3-0.6,0.5-1.2,0.7-1.8c1.3,0.5,2.6,1.1,3.8,1.7c-0.2,0.6-0.4,1.2-0.7,1.9
						C137.2,210.6,133,216.6,129.8,219.3z M138.1,222.4c-1.8-0.3-3.5-0.9-5.2-1.6c3.3-3.2,7-8.5,8.9-12.9c0.3-0.7,0.6-1.3,0.8-2
						c1.3,0.8,2.5,1.6,3.5,2.4c-0.1,0.5-0.2,1.3-0.4,2.3C145,213.8,143.1,218.5,138.1,222.4z M151.4,217.8c-0.1,2.2-1.7,3.4-3.6,4.1
						c-1.7,0.6-3.7,0.8-5.3,0.9c3.3-3.3,5-6.8,5.8-9.7c0.2-0.6,0.4-1.3,0.5-1.8c1.5,2,2.4,3.9,2.5,5.6c0,0.2,0,0.4,0,0.6
						C151.4,217.6,151.4,217.7,151.4,217.8z M170.3,184C170.3,184,170.3,184,170.3,184c0.1,0.3,0.2,0.6,0.3,0.8c0,0,0,0,0,0
						c0.1,0.3,0.2,0.5,0.2,0.8c0,0,0,0,0,0c0.4,1.7,0.5,3.4,0.2,5.2c0,0,0,0,0,0c0,0.1,0,0.1,0,0.2c-0.1,0.4-0.2,0.8-0.3,1.1
						c0,0.2-0.1,0.3-0.2,0.5c-0.1,0.2-0.1,0.4-0.2,0.6c-0.1,0.2-0.2,0.4-0.2,0.6c-0.1,0.3-0.2,0.5-0.3,0.8c-0.1,0.1-0.1,0.2-0.2,0.3
						c-1.1,2.1-2.8,4.1-5.1,5.8c-0.4,0.3-0.8,0.6-1.3,0.9c-1.7,1.1-3.6,2-5.7,2.6c-0.2,0.1-0.3,0.1-0.5,0.2c0,0,0,0,0,0
						c-0.7-1.1-1.9-2.3-3.5-3.5c-0.3-0.2-0.5-0.4-0.8-0.6c-0.1,0-0.1-0.1-0.2-0.1c-1.6-1-3.3-1.9-4.9-2.4c-0.2-0.1-0.5-0.2-0.7-0.2
						c-0.2,0-0.4-0.1-0.5-0.1c0,0,0,0,0,0c-0.3-0.1-0.6-0.1-1-0.1c0,0-0.1,0-0.1,0c-0.3,0-0.6,0-0.9,0c0,0-0.1,0-0.1,0
						c-0.3,0-0.5,0.1-0.8,0.1c0,0-0.1,0-0.1,0c-0.3,0.1-0.5,0.2-0.7,0.3c0,0.1-0.1,0.2-0.1,0.3c0,0.4,0.2,0.7,0.6,0.8
						c3.1,1,6.5,3,9,5.5c1.3,1.3,2.4,2.8,3.1,4.5c1,2.4,0.9,5.2-0.8,8c-0.2-2.6-1.5-5.2-3.3-7.5c-0.1-0.1-0.2-0.2-0.3-0.4
						c-0.2-0.2-0.3-0.4-0.5-0.6c-3.7-4.1-9.3-7.4-15-9.4c-0.2-0.1-0.3-0.1-0.5-0.2c-0.1,0-0.1,0-0.2-0.1c-4.9-1.6-9.7-2.1-13.3-1.1
						c5.5-5.8,10-9.3,15.8-12.9c3.1-1.9,6.5-3.9,10.7-6.4c0,0,0,0,0,0c2.6-1.2,5.1-1.9,7.3-2.2c4.5-0.6,8.2,0.5,10.9,2.5
						c0.2,0.2,0.5,0.4,0.7,0.6c0.1,0.1,0.2,0.2,0.2,0.2c0.1,0.1,0.3,0.2,0.4,0.4c0.1,0.1,0.2,0.2,0.3,0.3c0.1,0.1,0.2,0.2,0.3,0.3
						c0.1,0.1,0.2,0.3,0.3,0.4c0.1,0.1,0.1,0.2,0.2,0.2c0.1,0.2,0.2,0.3,0.3,0.5c0,0.1,0.1,0.1,0.1,0.2c0.1,0.2,0.2,0.4,0.3,0.6
						c0,0.1,0.1,0.1,0.1,0.2c0.1,0.2,0.2,0.4,0.3,0.6c0,0,0,0.1,0.1,0.1C170.1,183.5,170.2,183.7,170.3,184z M151.8,120.9
						c0.1,0.1,0.1,0.2,0.2,0.3c0.5,0.7,1,1.3,1.5,2c0,0.1,0.1,0.1,0.1,0.2c0.5,0.7,1.1,1.5,1.6,2.2c0,0,0,0.1,0.1,0.1
						c0.5,0.8,1.1,1.6,1.6,2.4c0,0.1,0.1,0.1,0.1,0.2c0.5,0.8,1,1.6,1.5,2.4c0.1,0.2,0.2,0.3,0.3,0.5c0.4,0.7,0.9,1.5,1.3,2.2
						c0.5,0.9,1,1.8,1.5,2.7c2.4,4.8,4.5,9.8,6,14.7c2.4,7.8,3.3,15.6,1.8,22c-1.4-1.5-2.8-2.7-4.2-3.7c-1.1-0.8-2.1-1.4-3.2-2
						c-1.2-0.6-2.4-1.2-3.7-1.7c-0.4-6.2-1.3-12.2-2.5-18.3c-0.1-0.4-0.4-1.9-0.9-4.1c-1-4.4-2.8-11.3-4.3-14.6
						c0-0.1-0.1-0.2-0.1-0.2c-0.1-0.1-0.1-0.2-0.2-0.3c-0.8-1.4-1.4-1.8-1.9-0.3c0,0,0,0,0,0c0,0,0,0,0,0c1.2,6.1,2.6,12.2,3.7,18.3
						c0.3,1.8,0.7,3.6,1,5.5c0.7,4.3,1.3,8.7,1.6,13c-1.1,0.2-1.7,1.1-1.7,2.1c0,0.6,0.2,1.2,0.6,1.6c0.3,0.3,0.6,0.4,1,0.5
						c0.1,0,0.1,0,0.2,0.1c0.7,0.2,1.5,0.4,2.3,0.7c1.3,0.5,2.7,1.2,4,2c1.3,0.8,2.6,1.7,3.7,2.8c-4.4-1.7-8.7-1.9-12.9-0.9
						c-1.1,0.3-2.1,0.6-3.1,1c-2.5,1-4.9,2.3-7.2,4c-0.6,0.4-1.1,0.9-1.7,1.3c-0.1,0-0.2,0.1-0.3,0.2c-2,1.2-6,3.3-8.2,4.7
						c0-1.8,0-7.4,0-9.2c-0.1-0.1-0.4-0.3-0.7-0.5c-0.2-0.1-0.3-0.3-0.5-0.4c-0.4-0.3-0.8-0.6-1.2-0.9c-0.4-0.3-0.9-0.7-1.4-1.1
						c-0.6-0.4-1.1-0.9-1.7-1.3c-0.8-0.6-1.5-1.2-2.2-1.7c-0.7-0.6-1.4-1.1-1.9-1.4c-0.1,0-0.1-0.1-0.2-0.1
						c-0.3-0.2-0.6-0.4-0.7-0.6c-1.3,0-3.8,0-5,0l-0.6,0.5c-0.2-0.8-0.5-1.5-0.8-2.2c-0.3-0.7-0.6-1.4-1-2.1c0.6-0.8,1.4-1.9,2-2.7
						c0-1.3,0-3.8,0-5c-0.1-0.2-0.3-0.4-0.5-0.7c-0.2-0.2-0.4-0.5-0.6-0.8c-0.3-0.4-0.6-0.7-0.9-1.2c-0.5-0.7-1.2-1.5-1.8-2.3
						c-0.6-0.8-1.2-1.5-1.7-2.3c-0.5-0.7-1-1.3-1.4-1.8c-0.3-0.4-0.5-0.7-0.7-0.9c-0.2-0.2-0.3-0.4-0.4-0.6c-3.9,0-10.5,0-14.4,0
						c0.3,0.4,0.7,0.9,1.1,1.4c0.5,0.6,1.1,1.4,1.7,2.1c0.6,0.8,1.3,1.5,1.9,2.3c0.3,0.4,0.6,0.8,0.9,1.1c0.3,0.4,0.6,0.8,0.9,1.1
						c-1.2-0.3-2.5-0.5-3.7-0.5c0,0,0,0,0,0c-1.2-0.1-2.3,0-3.4,0.1c-1.5,0.2-3,0.5-4.4,1c-0.4,0.1-0.7,0.3-1.1,0.4
						c-0.6,0.2-1.1,0.5-1.7,0.7c-0.6,0.3-1.1,0.6-1.7,0.9c-0.8,0.5-1.7,1.1-2.4,1.7c-0.1,0.1-0.2,0.2-0.3,0.2
						c-0.3,0.2-0.6,0.5-0.9,0.8c-0.6,0.5-1.2,1.1-1.7,1.7c-0.3,0.3-0.5,0.6-0.8,0.9c-0.4,0.4-0.7,0.9-1.1,1.3
						c-0.3,0.4-0.6,0.9-0.9,1.3c-0.8,1.2-1.4,2.4-2,3.7c-0.9,2.1-1.5,4.4-1.7,6.7c0,0,0,0,0,0c0,0,0,0,0,0c0,0.5,0.4,0.8,0.8,0.8
						c0.2,0,0.4,0,0.6-0.1c0.2-0.1,0.3-0.3,0.3-0.5c1.8-6,5.9-11.4,11.1-14.8c0,0,0,0,0,0c0.2-0.1,0.3-0.2,0.5-0.3
						c0.2-0.1,0.3-0.2,0.5-0.3c0,0,0,0,0,0c2-1.1,4.1-1.9,6.3-2.4c0.3-0.1,0.7-0.1,1-0.2c0,0,0.1,0,0.1,0c3-0.4,6.2,0,9.3,1.3
						c-1.1-0.1-2.2-0.1-3.2,0c-0.3,0-0.5,0.1-0.8,0.1c-0.1,0-0.2,0-0.3,0c-5,0.8-8.6,3.6-11.1,7.5c-3.3,5-4.7,11.7-5.1,18.1
						c-0.2,3.3-0.1,6.5,0.1,9.2c0.1,2.6,0.4,5.4,0.7,7.4c-5.8-2.7-9.4-7.2-11.5-12.7c-3.1-8-3.1-18.1-1.9-27.8
						c1-8.6,3-16.9,4.4-23.3c0.3,0.1,0.6,0.2,1.1,0.3c2.2,0.7,6.1,2.1,9.5,2.9c0,0,0,0,0,0c0.2,0,0.4,0.1,0.7,0.1c0,0,0,0,0.1,0
						c0.2,0,0.4,0.1,0.6,0.1c0.1,0,0.1,0,0.2,0c0.2,0,0.3,0,0.5,0.1c0.1,0,0.3,0,0.4,0c0.1,0,0.2,0,0.3,0c0.1,0,0.2,0,0.4,0
						c0.1,0,0.2,0,0.2,0c0.1,0,0.3,0,0.4,0c0.1,0,0.1,0,0.2,0c0.1,0,0.2,0,0.3,0c0.1,0,0.2,0,0.2,0c0.1,0,0.2,0,0.2,0
						c0.1,0,0.2,0,0.3,0c0.1,0,0.1,0,0.2,0c0.1,0,0.2,0,0.3-0.1c0,0,0,0,0.1,0c0.8-0.3,1.4-0.8,1.5-1.6c0-0.1,0-0.3,0-0.4
						c0-0.1,0-0.3-0.1-0.4c-0.1-0.4-0.3-0.7-0.6-0.9c-0.2-0.2-0.5-0.4-0.8-0.5c-0.1,0-0.3-0.1-0.4-0.1c-4.7-0.5-9.7-1.8-14.6-3.7
						c1.2-4.9,2.6-9.9,3.8-14.9c0,0,0,0,0,0c-0.3-1.3-0.9-1.3-1.5-0.4c0,0,0,0-0.1,0.1c0,0,0,0.1-0.1,0.1c-0.6,0.9-1.4,2.7-2.1,4.6
						c-1.3,3.4-2.5,7.5-2.9,8.9c-0.1,0.2-0.1,0.3-0.2,0.4c-2.4-1-4.7-2.1-7-3.3c-0.2-0.1-0.3-0.2-0.5-0.3c-2.1-1.1-4.2-2.3-6.3-3.5
						c-2.9-1.8-5.8-3.6-8.6-5.5c-1.4-1-2.9-2-4.3-3c12-7.6,17.2-18.4,19.1-23.5c3.6,2.4,7.2,4.8,10.9,6.9c0,0,0,0,0,0
						c0.9,0.5,1.7,1,2.6,1.5c1.1,0.6,2.2,1.2,3.3,1.8c0,0,0,0,0,0c0.7,0.7,1.3,1.3,2,2c2,1.9,4.2,3.7,6.5,5.4
						c16.1,11.8,39.6,14.5,58.1,6.4c0.2,0.2,0.4,0.5,0.6,0.7c0,0,0.1,0.1,0.1,0.1c0,0,0.1,0.1,0.1,0.1c0,0,0,0,0,0c0,0,0,0,0,0
						c0.2,0.2,0.4,0.4,0.6,0.6c0.4,0.4,0.8,0.9,1.2,1.4c0.1,0.2,0.3,0.3,0.4,0.5C150.9,119.7,151.3,120.3,151.8,120.9z M165.4,99.3
						c-2.1,2.3-4.3,4.4-6.8,6.2c0,0,0,0,0,0c-0.1,0-0.1,0.1-0.2,0.1c-4.3,3.2-9,5.8-14.1,7.7c-0.4,0.1-0.8,0.3-1.2,0.4
						c-7.7,2.7-16,3.7-24.1,3.1c-0.1,0-0.2,0-0.4,0c-0.1,0-0.2,0-0.3,0c-1.7-0.2-3.4-0.4-5.1-0.7c-6.2-1.2-12.2-3.4-17.7-6.7
						C81,101,71,85.9,68.3,69.5c-0.8-5.1-1-10.3-0.3-15.5c0.4-4.7,1.6-9.1,3.4-13.2c6.5-14.6,20.9-24.6,37-28.4
						c7-1.7,14.4-2.1,21.5-1.3c13.8,1.8,25.4,7.3,34,15.1c7.9,7.1,13.3,16.2,15.5,26c0.9,3.8,1.3,7.8,1.2,11.7
						C180.3,75.9,175.5,88.2,165.4,99.3z M191.7,64c0,0.3,0,0.6,0,0.9c0,0.1,0,0.2,0,0.3c0,0.3,0,0.7,0,1c0,0.1,0,0.2,0,0.2
						c-0.1,0.9-0.1,1.8-0.2,2.8c0,0,0,0.1,0,0.1c-0.1,0.5-0.1,1-0.2,1.5c0,0,0,0.1,0,0.1c-0.5,3.8-1.3,8-2.5,11.9
						c-1.5,4.9-3.4,9.3-5.8,11.1c-0.9,0.7-5,1.3-10.1,1.6c1.7-2.3,3.1-4.7,4.5-7.2c0-0.1,0.1-0.1,0.1-0.2c0.3-0.5,0.5-1,0.8-1.5
						c0.2-0.4,0.4-0.8,0.6-1.2c0.1-0.2,0.2-0.3,0.2-0.5c0.3-0.6,0.6-1.3,0.8-1.9c0.2-0.6,0.5-1.2,0.7-1.7c0.5-1.2,0.9-2.5,1.2-3.7
						c0.4-1.2,0.7-2.4,1-3.7c0.2-1,0.4-2,0.6-3c0.3-1.4,0.4-2.9,0.6-4.3c0-0.3,0.1-0.6,0.1-0.9c0.1-1.7,0.2-3.4,0.2-5.2
						c0-1.7-0.1-3.4-0.2-5.1c3.8,2.2,7,4.4,7.5,5.2c0.1,0.1,0.1,0.3,0.2,0.5c0,0.1,0,0.1,0,0.2c0,0.2,0.1,0.3,0.1,0.5
						c0,0.1,0,0.2,0,0.2c0,0.2,0,0.4,0.1,0.7c0,0.1,0,0.1,0,0.2c0,0.3,0,0.6,0,1C191.7,63.9,191.7,63.9,191.7,64z"/>
				</g>
				<g>
					<path d="M129.6,37.9c-0.2-1-0.2-1.6-0.2-1.6l0,0c0,0-0.1-0.5-0.4-1.5c-0.1-0.5-0.2-1.1-0.6-1.8c-0.3-0.7-0.6-1.6-1-2.5
						c-0.8-1.8-2.2-3.9-4.1-5.9c-0.5-0.5-1.1-1-1.6-1.5c-0.6-0.5-1.3-0.9-1.9-1.3c-0.7-0.5-1.4-0.8-2.2-1.1l-0.6-0.3l-0.3-0.1
						c0,0-0.1-0.1-0.3-0.1c-0.1,0,0.1,0-0.2-0.1c-0.4-0.1-0.8-0.2-1.2-0.3c-0.4-0.1-0.8-0.2-1.2-0.3c-0.4-0.1-0.9-0.1-1.4-0.2
						c-0.5-0.1-0.9-0.1-1.4-0.2c-0.5,0-0.9,0-1.4,0c-0.5,0-0.9,0-1.4,0c-0.5,0.1-0.9,0.1-1.4,0.2c-1,0.1-1.9,0.3-2.9,0.5
						c-3.8,1-7.6,3.2-10.5,6.2c-3,3.2-5.1,7-6.3,11.2c-1.2,4.2-1.3,8.8-0.2,12.9c1.2,4.3,3.4,8.2,6.7,11.1c3.2,3,7.4,4.8,11.5,5
						c4.2,0.3,8.2-0.7,11.6-2.4l1.3-0.6c0.4-0.2,0.8-0.5,1.2-0.8c0.8-0.5,1.6-1,2.2-1.6c0.7-0.6,1.3-1.1,2-1.8
						c0.5-0.6,1.1-1.3,1.6-1.9c2-2.7,3.3-5.5,4-8.1c0.4-1.3,0.6-2.5,0.8-3.7c0.1-1.2,0.2-2.2,0.3-3.2c0-1-0.1-1.8-0.1-2.6
						C129.9,39,129.7,38.4,129.6,37.9z M128.3,45.3c-0.2,1.1-0.4,2.3-0.8,3.5c-0.5,1.7-1.2,3.4-2.1,5.1c0.1-0.1,0.2-0.2,0.3-0.3
						c-0.5,0.9-1,1.8-1.6,2.6c-0.1,0.1-0.1,0.2-0.2,0.3c-0.2,0.2-0.4,0.5-0.6,0.7c-0.1,0.1-0.1,0.2-0.2,0.2
						c-0.3,0.3-0.5,0.6-0.8,0.9c-0.5,0.6-1.2,1.1-1.8,1.7c-0.6,0.6-1.3,1.1-2,1.6c-0.4,0.2-0.7,0.5-1.1,0.7l-1.2,0.6
						c-1.7,0.9-3.6,1.6-5.6,2c-0.1,0-0.3,0.1-0.4,0.1c-0.2,0-0.4,0.1-0.6,0.1c-3.1,0.5-6.1,0.4-9-0.6C93.5,62.2,88,55,87.2,46.9
						c-0.3-2.9,0.2-5.8,1.1-8.7c0,0.1,0,0.1,0,0.2c0.1-0.2,0.1-0.5,0.2-0.7c1.3-3.9,3.6-7.4,6.4-9.9c2.9-2.7,6.3-4.3,9.7-5.1
						c0.9-0.2,1.7-0.4,2.5-0.4c0.4,0,0.8-0.1,1.2-0.1c0.4,0,0.8,0,1.2,0c0.4,0,0.8,0,1.2,0c0.4,0.1,0.8,0.1,1.1,0.2
						c0.4,0.1,0.7,0.1,1.1,0.2c0.4,0.1,0.8,0.2,1.2,0.3c2.9,0.8,5.2,2.3,7.1,3.8c1.8,1.6,3.3,3.3,4.2,4.8c0.5,0.7,0.8,1.5,1.1,2.1
						c0.3,0.6,0.5,1.2,0.7,1.7c0.3,0.9,0.5,1.4,0.5,1.4c0,0,0.1,0.5,0.3,1.4c0.1,0.5,0.2,1.1,0.3,1.8c0,0.7,0.1,1.5,0.1,2.4
						C128.4,43.2,128.4,44.2,128.3,45.3z"/>
					<path d="M150.6,57.1c-4.3-1.8-9.2,0.3-11,4.5c-1.8,4.3,0.3,9.2,4.5,11c4.3,1.8,9.2-0.3,11-4.5
						C156.9,63.8,154.9,58.9,150.6,57.1z M148.8,62.1c-0.6,1.4-2.2,2.1-3.6,1.5c-1.4-0.6-2.1-2.2-1.5-3.6s2.2-2.1,3.6-1.5
						C148.7,59.1,149.4,60.7,148.8,62.1z"/>
					<path d="M175,59.3c-0.1-3.8-1.3-7.6-3.1-10.6c-0.5-0.8-1-1.7-1.6-2.4c-0.3-0.4-0.6-0.7-0.9-1.1c-0.3-0.3-0.7-0.7-1-1
						c-0.3-0.3-0.6-0.7-1-1c-0.4-0.3-0.7-0.6-1.1-0.9c-0.4-0.3-0.7-0.6-1.1-0.8c-0.4-0.2-0.7-0.4-1-0.6c-3-1.7-6.2-2.4-8.9-2.5
						c-2.8,0-5.2,0.4-7,1c-0.9,0.2-1.8,0.7-2.5,0.9c-0.7,0.3-1.3,0.6-1.7,0.8c-0.9,0.5-1.3,0.8-1.4,0.8c0,0-0.5,0.3-1.3,0.9
						c-0.4,0.3-1,0.6-1.5,1.1c-0.5,0.5-1.2,1.1-1.9,1.8c-0.6,0.7-1.3,1.6-2,2.5c-0.6,1-1.4,2-2,3.2c-1.3,2.4-2.3,5.2-2.8,8.5
						c-0.1,0.8-0.1,1.6-0.2,2.4c0,0.9,0.1,1.7,0.1,2.6c0,0.9,0.2,1.8,0.4,2.7c0.1,0.4,0.2,0.9,0.3,1.3l0.5,1.3
						c1.2,3.5,3.4,7,6.5,9.6c3.1,2.6,7.2,4.3,11.4,4.6c4.3,0.3,8.6-0.7,12.5-2.9c1.9-1.1,3.6-2.5,5.2-4.1c1.5-1.5,2.8-3.3,3.8-5.1
						c2.1-3.8,3.3-8,3.3-12.2C175,59.8,175,59.6,175,59.3z M170.4,71.7c-0.1,0.2-0.2,0.4-0.3,0.6c0,0,0,0,0,0c0,0.1-0.1,0.2-0.1,0.2
						c-0.7,1.2-1.4,2.4-2.3,3.5c-0.9,1.2-2,2.4-3.2,3.3c-6.1,5-14.7,5.7-21.3,2.3c-4.6-2.3-8.1-6.7-9.8-11.8c0,0,0,0,0-0.1l-0.4-1.3
						c-0.1-0.4-0.2-0.9-0.3-1.3c-0.2-0.8-0.4-1.7-0.4-2.5c0-0.8-0.1-1.7-0.1-2.4c0.1-0.8,0.1-1.6,0.2-2.4c0.5-3,1.5-5.7,2.7-8
						c0.6-1.1,1.3-2.1,1.9-3c0.7-0.8,1.4-1.6,2-2.3c0.7-0.6,1.3-1.2,1.8-1.6c0.5-0.5,1-0.8,1.4-1.1c0.7-0.5,1.1-0.8,1.2-0.8
						c0.1,0,0.6-0.2,1.4-0.6c0.5-0.2,1-0.5,1.7-0.6c0.7-0.2,1.4-0.5,2.3-0.6c1.7-0.3,3.9-0.4,6.3-0.2c1.2,0.2,2.4,0.4,3.7,0.8
						c0.7,0.1,1.3,0.4,1.9,0.7l0.5,0.2l0.2,0.1c0,0,0.1,0,0.2,0.1c0.3,0.2,0.7,0.4,1,0.5c0.4,0.2,0.7,0.4,1.1,0.6
						c0.3,0.2,0.6,0.4,0.9,0.6c0.3,0.2,0.6,0.4,0.9,0.6c0.3,0.3,0.6,0.5,0.9,0.8c0.3,0.3,0.6,0.5,0.9,0.8c0.3,0.3,0.5,0.6,0.8,0.9
						c0.6,0.6,1,1.3,1.5,2c1.9,2.9,3.2,6.2,3.4,10.2C173,63.9,172.3,68.1,170.4,71.7z"/>
					<path d="M112.7,41.5c-4.3-1.8-9.2,0.3-11,4.5c-1.8,4.3,0.3,9.2,4.5,11c4.3,1.8,9.2-0.3,11-4.5C119,48.1,117,43.2,112.7,41.5z
						 M110.9,46.5c-0.6,1.4-2.2,2.1-3.6,1.5c-1.4-0.6-2.1-2.2-1.5-3.6s2.2-2.1,3.6-1.5C110.8,43.4,111.5,45.1,110.9,46.5z"/>
				</g>
			</g>
		</g>
		<g>
			<g>
				<path class="st3" d="M433,65.1c-31.5,0-51.9,21.3-51.9,50.1c0,28.9,19.8,50.1,51.3,50.1s51.9-21.3,51.9-50.1
					C484.3,86.3,464.5,65.1,433,65.1z M432.7,142c-14.7,0-24.2-9.8-24.2-26.8c0-17,9.5-26.8,24.2-26.8s24.2,9.8,24.2,26.8
					C456.9,132.1,447.4,142,432.7,142z"/>
				<path class="st15" d="M768.3,152.5c0-0.3,0-0.5,0-0.8c0,0,0,0,0,0c0-0.4,0-0.8,0-1.2V80.4c0-0.4,0-2.3-0.1-2.4
					c-0.6-7.1-6.6-12.6-13.8-12.6c-7.2,0-13.2,5.5-13.8,12.6c0,0.1-0.1,2.1-0.1,2.5v20.6H723h-17.7V80.4c0-0.4,0-2.4-0.1-2.5
					c-0.6-7.1-6.6-12.6-13.8-12.6c-7.2,0-13.2,5.6-13.8,12.6c0,0.2-0.1,2-0.1,2.4v70.1c0,0.4,0,0.8,0,1.2c0,0,0,0,0,0
					c0,0.3,0,0.5,0,0.8c0.4,7.3,6.5,13.1,13.8,13.1c7.7,0,13.9-6.2,13.9-13.9c0,0,0,0,0,0c0-0.4,0-0.8,0-1.2v-25H723h17.7v25
					c0,0.4,0,0.8,0,1.2c0,0,0,0,0,0c0,7.7,6.2,13.9,13.9,13.9C761.9,165.6,767.9,159.8,768.3,152.5z"/>
				<path class="st3" d="M366.6,65.1c-4.8,0-9.1,2.5-11.5,6.3c0,0,0,0,0,0c-1.4,1.7-2.6,3.6-3.9,5.9l-13.7,24.6l-13.7-24.6
					c-1.3-2.2-2.5-4.2-3.9-5.9c0,0,0,0,0,0c-2.4-3.8-6.7-6.3-11.5-6.3c-7.6,0-13.7,6.1-13.7,13.7c0,2.3,0.6,4.5,1.6,6.4l0,0l0,0
					c0.3,0.5,0.6,1,1,1.5l25.4,40.4v23.4c0,0.2,0,0.4,0.1,0.5c0,0.2,0,0.5,0,0.7c0,7.6,6.1,13.7,13.7,13.7l0-0.1
					c0.3,0,0.7,0.1,1,0.1c0.3,0,0.7,0,1-0.1l0,0.1c7.6,0,13.7-6.1,13.7-13.7c0-0.2,0-0.5,0-0.7c0-0.2,0.1-0.3,0.1-0.5v-23.4
					l25.4-40.4c0.4-0.5,0.7-1,1-1.5l0,0l0,0c1-1.9,1.6-4.1,1.6-6.4C380.2,71.2,374.1,65.1,366.6,65.1z"/>
				<path class="st3" d="M568.6,65.1c-7.6,0-13.7,6.1-13.7,13.7c0,0.3,0,0.7,0,1.2v41c0,5,0,11-3.8,15.5c-2.5,3.1-6.7,5.1-13.2,5.1
					h-0.4c-6.5,0-10.7-2-13.2-5.1c-3.8-4.5-3.8-10.6-3.8-15.5V80c0-0.5,0-0.9,0-1.2c0-7.6-6.1-13.7-13.7-13.7
					c-7.4,0-13.4,5.9-13.7,13.2c0,0,0,0,0,0s0,1.5,0,1.7v39.7c0,10.6,0,22,8.6,32.3c6.3,7.5,16.7,13.4,35.7,13.4l0.6,0
					c19,0,29.4-5.9,35.7-13.4c8.6-10.3,8.6-21.7,8.6-32.3V80c0-0.2,0-1.7,0-1.7s0,0,0,0C582.1,70.9,576,65.1,568.6,65.1z"/>
				<path class="st15" d="M670.8,77.4c0-4.4-2.3-8.2-5.8-10.4c-1.9-1.2-4.1-1.9-6.5-1.9c0,0-0.1,0-0.1,0c-0.6,0-1.3,0-2,0h-25.6
					h-1.2H604c-0.7,0-1.4,0-2,0c0,0-0.1,0-0.1,0c-2.4,0-4.6,0.7-6.5,1.9c-3.5,2.2-5.8,6-5.8,10.4c0,6.7,5.4,12.1,12,12.3
					c0,0,0,0,0,0c0,0,0,0,0,0c0.1,0,0.1,0,0.2,0c0.1,0,0.1,0,0.2,0c0.6,0,1.3,0,2,0h12.9v60.9c0,4.8,0,8.1,2.1,10.8
					c2,2.6,5.3,3.9,11,4l0,0c0.1,0,0.2,0,0.3,0c0.1,0,0.2,0,0.3,0l0,0c5.6-0.1,8.9-1.4,11-4c2.1-2.7,2.1-6,2.1-10.8V89.7h12.9
					c0.7,0,1.3,0,2,0c0.1,0,0.1,0,0.2,0c0.1,0,0.1,0,0.2,0c0,0,0,0,0,0c0,0,0,0,0,0C665.5,89.5,670.8,84.1,670.8,77.4z"/>
				<path class="st15" d="M285.9,152.9c0-3.2-1.2-6.1-3.2-8.4l-24.2-30.5L282.3,86c2-2.2,3.2-5.1,3.2-8.4c0-3.3-1.3-6.4-3.5-8.6
					c-2.3-2.4-5.5-3.9-9-3.9c-2.4,0-4.6,0.7-6.5,1.9c-3.4,2-5.9,5.8-8.9,9.8l-20.7,26.6l0-23.4c0-0.2,0-0.4,0-0.6c0-0.2,0-0.4,0-0.6
					c0-7.5-6.1-13.7-13.7-13.7c-7.5,0-13.7,6.1-13.7,13.7c0,0.2,0,0.5,0,0.7c0,0.2,0,0.3,0,0.5v69.8c0,0.2,0,1,0,1.2
					c0,7.5,6.1,14.4,13.7,14.4c7.5,0,13.7-6.8,13.7-14.4c0-0.2,0-1,0-1.2v-25.1l21.2,29.7c3,4,5.4,7.1,8.9,9.1
					c1.9,1.2,4.1,1.9,6.5,1.9c3.5,0,6.7-1.5,9-3.9C284.6,159.3,285.9,156.2,285.9,152.9z"/>
			</g>
			<g>
				<path class="st3" d="M232.3,188.5c-0.5-1.4-1.1-2.6-2-3.5c-0.8-1-1.8-1.7-3-2.2s-2.5-0.8-3.9-0.8c-2.9,0-5.2,1.4-7.1,4.2v-3.5
					h-6.8v30.1h7v-8.9c0-0.6,0-1.3,0-1.9c0-0.6-0.1-1.2-0.2-1.8c0.5,0.8,1,1.5,1.5,2c0.5,0.5,1,1,1.6,1.3c0.6,0.3,1.2,0.6,1.9,0.7
					c0.7,0.1,1.5,0.2,2.3,0.2c1.4,0,2.6-0.3,3.8-0.8c1.2-0.5,2.1-1.3,3-2.3c0.8-1,1.5-2.1,1.9-3.5c0.5-1.4,0.7-2.9,0.7-4.6
					C233,191.5,232.8,189.9,232.3,188.5z M224.4,197.1c-0.9,0.9-2,1.4-3.5,1.4c-1.5,0-2.7-0.5-3.5-1.4c-0.8-0.9-1.3-2.2-1.3-3.8
					c0-1.6,0.4-2.9,1.3-3.9c0.8-0.9,2-1.4,3.5-1.4c1.5,0,2.7,0.5,3.5,1.4c0.9,0.9,1.3,2.2,1.3,3.9
					C225.7,194.8,225.2,196.1,224.4,197.1z"/>
				<path class="st3" d="M268.3,188.8c-0.6-1.4-1.4-2.5-2.5-3.6c-1.1-1-2.3-1.8-3.7-2.4c-1.4-0.6-3-0.9-4.6-0.9
					c-1.6,0-3.2,0.3-4.6,0.9c-1.4,0.6-2.7,1.4-3.7,2.4c-1,1-1.9,2.2-2.5,3.6c-0.6,1.4-0.9,2.8-0.9,4.4c0,1.5,0.3,3,0.9,4.3
					c0.6,1.4,1.4,2.5,2.4,3.6c1,1,2.3,1.8,3.7,2.4c1.4,0.6,3,0.9,4.6,0.9c1.7,0,3.2-0.3,4.6-0.9c1.4-0.6,2.7-1.4,3.7-2.4
					c1.1-1,1.9-2.2,2.5-3.6c0.6-1.4,0.9-2.8,0.9-4.4C269.2,191.7,268.9,190.2,268.3,188.8z M260.7,196.9c-0.8,0.9-1.8,1.3-3.2,1.3
					c-1.4,0-2.4-0.4-3.2-1.3c-0.8-0.9-1.2-2.1-1.2-3.7c0-1.6,0.4-2.8,1.2-3.7c0.8-0.9,1.8-1.4,3.2-1.4c1.4,0,2.4,0.5,3.2,1.4
					c0.8,0.9,1.2,2.1,1.2,3.7C261.9,194.8,261.5,196,260.7,196.9z"/>
				<path class="st3" d="M304.5,191.9c-0.1,0.5-0.3,0.9-0.5,1.5c-0.2,0.5-0.3,1.1-0.4,1.8c-0.1-0.6-0.3-1.3-0.5-1.8
					c-0.2-0.6-0.3-1-0.5-1.5l-3.1-9.2h-4.5l-3.1,9.2c-0.1,0.5-0.3,0.9-0.5,1.5c-0.2,0.5-0.3,1.1-0.4,1.8c-0.1-0.6-0.3-1.3-0.4-1.8
					c-0.2-0.6-0.3-1-0.4-1.5l-3.1-9.2h-7.6l8.7,20.9h5.2l3.1-9.5c0.3-0.8,0.6-1.9,0.8-3.3c0.1,0.7,0.3,1.4,0.4,1.9
					c0.1,0.5,0.3,1,0.4,1.4l3.1,9.5h5.2l8.8-20.9h-7.6L304.5,191.9z"/>
				<path class="st3" d="M337.1,199.7c-1.5,0-2.6-0.4-3.5-1.3c-0.8-0.9-1.2-2.1-1.3-3.8h15.9c0-1.8-0.2-3.4-0.7-5
					c-0.5-1.5-1.1-2.9-2.1-4c-0.9-1.1-2.1-2-3.5-2.7c-1.4-0.6-3.1-1-5-1c-1.7,0-3.3,0.3-4.7,0.9c-1.4,0.6-2.7,1.4-3.7,2.4
					s-1.8,2.2-2.4,3.6c-0.6,1.4-0.8,2.9-0.8,4.5c0,1.6,0.3,3,0.8,4.4c0.5,1.3,1.3,2.5,2.4,3.5c1,1,2.3,1.8,3.8,2.3
					c1.5,0.6,3.2,0.8,5.1,0.8c2.5,0,4.6-0.4,6.2-1.3c1.7-0.9,2.8-2.1,3.5-3.7l-5.6-2.2C340.9,198.8,339.4,199.7,337.1,199.7z
					 M336.9,186.5c1.1,0,2,0.4,2.8,1.1c0.8,0.7,1.2,1.7,1.4,2.9h-8.5C333,187.8,334.4,186.5,336.9,186.5z"/>
				<path class="st3" d="M372,183.6c-1.2,0.9-2.2,2.3-2.9,4v-4.9h-7v20.9h7.3V195c0-2.1,0.5-3.7,1.5-4.7c1-1,2.4-1.6,4.1-1.6
					c0.4,0,0.8,0,1.3,0.1c0.4,0.1,0.8,0.2,1.3,0.3l0.7-6.7c-0.9-0.1-1.6-0.1-2.1-0.1C374.7,182.2,373.3,182.7,372,183.6z"/>
				<polygon class="st3" points="421.9,176.5 414.7,176.5 414.7,182.7 411.5,182.7 411.5,187.9 414.7,187.9 414.7,203.6 
					421.9,203.6 421.9,187.9 425.1,187.9 425.1,182.7 421.9,182.7 				"/>
				<path class="st3" d="M456.9,185.3c-1.1-1-2.3-1.8-3.7-2.4c-1.4-0.6-3-0.9-4.6-0.9c-1.6,0-3.2,0.3-4.6,0.9
					c-1.4,0.6-2.7,1.4-3.7,2.4c-1,1-1.9,2.2-2.5,3.6c-0.6,1.4-0.9,2.8-0.9,4.4c0,1.5,0.3,3,0.9,4.3c0.6,1.4,1.4,2.5,2.4,3.6
					c1,1,2.3,1.8,3.7,2.4c1.4,0.6,3,0.9,4.6,0.9c1.7,0,3.2-0.3,4.6-0.9c1.4-0.6,2.7-1.4,3.7-2.4c1.1-1,1.9-2.2,2.5-3.6
					c0.6-1.4,0.9-2.8,0.9-4.4c0-1.6-0.3-3-0.9-4.4C458.8,187.5,457.9,186.3,456.9,185.3z M451.7,196.9c-0.8,0.9-1.8,1.3-3.2,1.3
					c-1.4,0-2.4-0.4-3.2-1.3c-0.8-0.9-1.2-2.1-1.2-3.7c0-1.6,0.4-2.8,1.2-3.7c0.8-0.9,1.8-1.4,3.2-1.4c1.4,0,2.4,0.5,3.2,1.4
					c0.8,0.9,1.2,2.1,1.2,3.7C452.9,194.8,452.5,196,451.7,196.9z"/>
				<path class="st3" d="M500.7,182c-1.6,0-3,0.3-4.4,0.8c-1.3,0.6-2.5,1.3-3.5,2.3c-1,1-1.7,2.1-2.2,3.5c-0.5,1.4-0.8,2.9-0.8,4.5
					c0,1.7,0.3,3.3,0.8,4.7c0.6,1.4,1.3,2.6,2.3,3.5c1,1,2.1,1.7,3.4,2.2c1.3,0.5,2.7,0.8,4.3,0.8c1,0,1.9-0.1,2.8-0.4
					c0.9-0.2,1.7-0.6,2.6-1.1v-6.4c-0.6,0.7-1.2,1.1-1.9,1.4c-0.6,0.3-1.3,0.4-2.1,0.4c-1.6,0-2.8-0.5-3.6-1.4
					c-0.9-1-1.3-2.2-1.3-3.8c0-1.7,0.4-3,1.3-4c0.9-0.9,2-1.4,3.5-1.4c0.7,0,1.4,0.1,2.1,0.4c0.7,0.3,1.3,0.8,2.1,1.4v-6.2
					c-0.8-0.5-1.7-0.8-2.5-1C502.6,182.1,501.7,182,500.7,182z"/>
				<path class="st3" d="M530,183.6c-1.2,0.9-2.2,2.3-2.9,4v-4.9h-7v20.9h7.3V195c0-2.1,0.5-3.7,1.5-4.7c1-1,2.4-1.6,4.1-1.6
					c0.4,0,0.8,0,1.3,0.1c0.4,0.1,0.8,0.2,1.3,0.3l0.7-6.7c-0.9-0.1-1.6-0.1-2.1-0.1C532.7,182.2,531.2,182.7,530,183.6z"/>
				<path class="st3" d="M559.1,199.7c-1.5,0-2.7-0.4-3.5-1.3c-0.8-0.9-1.2-2.1-1.3-3.8h15.9c0-1.8-0.2-3.4-0.7-5
					c-0.5-1.5-1.1-2.9-2.1-4c-0.9-1.1-2.1-2-3.5-2.7c-1.4-0.6-3.1-1-5-1c-1.7,0-3.3,0.3-4.7,0.9c-1.4,0.6-2.7,1.4-3.7,2.4
					c-1,1-1.8,2.2-2.4,3.6c-0.6,1.4-0.8,2.9-0.8,4.5c0,1.6,0.3,3,0.8,4.4c0.5,1.3,1.3,2.5,2.4,3.5c1,1,2.3,1.8,3.8,2.3
					c1.5,0.6,3.2,0.8,5.1,0.8c2.5,0,4.6-0.4,6.2-1.3c1.7-0.9,2.8-2.1,3.5-3.7l-5.6-2.2C562.9,198.8,561.4,199.7,559.1,199.7z
					 M558.9,186.5c1.1,0,2,0.4,2.8,1.1c0.8,0.7,1.2,1.7,1.4,2.9h-8.5C555,187.8,556.4,186.5,558.9,186.5z"/>
				<path class="st3" d="M599.7,186.1c-0.8-1.4-1.8-2.5-2.9-3.1c-1.1-0.6-2.5-1-4.1-1c-1.5,0-2.8,0.3-4,0.8
					c-1.2,0.5-2.2,1.3-3.1,2.2c-0.8,1-1.5,2.1-1.9,3.5c-0.5,1.4-0.7,2.9-0.7,4.6c0,1.7,0.2,3.3,0.7,4.7c0.5,1.4,1.1,2.6,1.9,3.5
					c0.8,1,1.8,1.7,2.9,2.2c1.1,0.5,2.4,0.8,3.7,0.8c1.7,0,3.1-0.3,4.3-1c1.2-0.7,2.3-1.7,3.2-3.2v3.3h6.8v-20.9h-6.8V186.1z
					 M598.8,197c-0.9,0.9-2.1,1.4-3.6,1.4s-2.7-0.5-3.6-1.4c-0.8-0.9-1.3-2.2-1.3-3.9c0-1.6,0.4-2.9,1.3-3.9c0.8-1,2-1.4,3.6-1.4
					s2.7,0.5,3.6,1.4c0.9,1,1.3,2.2,1.3,3.9C600.1,194.8,599.7,196.1,598.8,197z"/>
				<polygon class="st3" points="630.1,176.5 622.8,176.5 622.8,182.7 619.7,182.7 619.7,187.9 622.8,187.9 622.8,203.6 
					630.1,203.6 630.1,187.9 633.2,187.9 633.2,182.7 630.1,182.7 				"/>
				<rect x="646.5" y="182.7" class="st3" width="7.4" height="20.9"/>
				<path class="st3" d="M679.4,191.9c-0.1,0.4-0.3,0.9-0.5,1.4c-0.2,0.5-0.4,1.2-0.5,1.9c-0.1-0.7-0.3-1.3-0.5-1.9
					c-0.2-0.5-0.4-1-0.5-1.4l-3.6-9.2H666l9.4,20.9h5.8l9.5-20.9H683L679.4,191.9z"/>
				<rect x="702.8" y="182.7" class="st3" width="7.4" height="20.9"/>
				<polygon class="st3" points="733.8,176.5 726.5,176.5 726.5,182.7 723.4,182.7 723.4,187.9 726.5,187.9 726.5,203.6 
					733.8,203.6 733.8,187.9 736.9,187.9 736.9,182.7 733.8,182.7 				"/>
				<path class="st3" d="M762.3,182.7l-3,7.5c-0.1,0.3-0.3,0.7-0.5,1.3c-0.2,0.5-0.3,1.2-0.5,2c-0.1-0.8-0.3-1.5-0.5-2
					c-0.2-0.5-0.3-1-0.5-1.3l-2.9-7.5h-8.2l8.4,17.7l-5.9,12.4h8.2l13.1-30.1H762.3z"/>
				<path class="st3" d="M650.2,172.1c-0.6,0-1.1,0.1-1.6,0.3c-0.5,0.2-0.9,0.5-1.3,0.9c-0.4,0.4-0.7,0.8-0.9,1.3
					c-0.2,0.5-0.3,1-0.3,1.6c0,0.5,0.1,1.1,0.3,1.5c0.2,0.5,0.5,0.9,0.9,1.3c0.4,0.4,0.8,0.7,1.3,0.9c0.5,0.2,1,0.3,1.6,0.3
					c0.6,0,1.1-0.1,1.6-0.3c0.5-0.2,0.9-0.5,1.3-0.9c0.4-0.4,0.7-0.8,0.9-1.3c0.2-0.5,0.3-1,0.3-1.6c0-1.2-0.4-2.1-1.2-2.9
					C652.2,172.5,651.3,172.1,650.2,172.1z"/>
				<path class="st3" d="M706.5,172.1c-0.6,0-1.1,0.1-1.6,0.3c-0.5,0.2-0.9,0.5-1.3,0.9c-0.4,0.4-0.7,0.8-0.9,1.3
					c-0.2,0.5-0.3,1-0.3,1.6c0,0.5,0.1,1.1,0.3,1.5c0.2,0.5,0.5,0.9,0.9,1.3c0.4,0.4,0.8,0.7,1.3,0.9c0.5,0.2,1,0.3,1.6,0.3
					c0.6,0,1.1-0.1,1.6-0.3c0.5-0.2,0.9-0.5,1.3-0.9c0.4-0.4,0.7-0.8,0.9-1.3c0.2-0.5,0.3-1,0.3-1.6c0-1.2-0.4-2.1-1.2-2.9
					C708.6,172.5,707.6,172.1,706.5,172.1z"/>
			</g>
		</g>
	</g>
</g>
</svg>
