<?xml version="1.0" encoding="utf-8"?>
<!-- Generator: Adobe Illustrator 27.2.0, SVG Export Plug-In . SVG Version: 6.00 Build 0)  -->
<svg version="1.1" xmlns="http://www.w3.org/2000/svg" xmlns:xlink="http://www.w3.org/1999/xlink" x="0px" y="0px"
	 viewBox="0 0 989.7 464.7" style="enable-background:new 0 0 989.7 464.7;" xml:space="preserve">
<style type="text/css">
	.st0{fill:#FFFFFF;}
	.st1{fill:#15264B;}
	.st2{opacity:0.35;}
	.st3{fill:#274B8B;}
	.st4{fill:#0F3747;}
	.st5{opacity:0.5;}
	.st6{opacity:0.4;}
	.st7{fill:#183E75;}
	.st8{opacity:0.2;}
	.st9{fill:#38276B;}
	.st10{fill:#44AC34;}
	.st11{fill:#00983A;}
	.st12{fill:#FCF8FB;}
	.st13{opacity:0.7;}
	.st14{fill:#94613F;}
	.st15{fill:#FFD100;}
	.st16{fill:#EA5B0C;}
	.st17{fill:#D3D5ED;}
	.st18{fill:#D8D8D8;}
	.st19{fill:#121A28;}
	.st20{fill:#E5E1D4;}
	.st21{opacity:0.25;}
	.st22{opacity:0.6;}
	.st23{fill:#FFD346;}
	.st24{fill:#FFDA36;}
	.st25{fill:#1E1E1C;}
	.st26{fill:#EEEDED;}
	.st27{opacity:0.3;}
	.st28{fill:#407FC1;}
	.st29{fill:#B0B3B1;}
	.st30{opacity:0.8;}
	.st31{fill:#E5E5E4;}
	.st32{fill:#BCBCBB;}
	.st33{fill:#E72D47;}
	.st34{fill:#F7A710;}
	.st35{fill:#F2EFEC;}
	.st36{fill:#F9B116;}
	.st37{fill:#F38F1C;}
	.st38{fill:none;stroke:#2A3856;stroke-width:2.1963;stroke-linecap:round;stroke-miterlimit:10;}
	.st39{fill:#D66C12;}
	.st40{fill:#FFD767;}
	.st41{fill:#F7A83D;}
	.st42{fill:#FECF70;}
	.st43{fill:#FFED91;}
	.st44{opacity:0.41;}
	.st45{opacity:0.26;}
	.st46{fill:none;}
	.st47{fill:#261E26;}
	.st48{fill:#E30613;}
	.st49{fill:#E9E8E8;}
	.st50{fill:#4A92CF;}
	.st51{fill:#386EB5;}
	.st52{fill:#B6B6B7;}
	.st53{fill:#DDDDDD;}
	.st54{fill:#FDC423;}
	.st55{fill:#E2A415;}
	.st56{fill:#F9B044;}
	.st57{fill:#EB5759;}
	.st58{fill:#E5201F;}
	.st59{fill:none;stroke:#FFFFFF;stroke-width:2.3076;stroke-linecap:round;stroke-miterlimit:10;}
	.st60{fill:#EDC5D6;}
	.st61{fill:#4A153F;}
	.st62{fill:#E9C8D2;}
	.st63{fill:#DFB0BE;}
	.st64{fill:#D6D6EA;}
	.st65{fill:#BDBDE0;}
	.st66{fill:#232323;}
	.st67{fill:#A7ABCC;}
	.st68{fill:#EDCCA9;}
	.st69{fill:#492311;}
	.st70{fill:#2A3856;}
	.st71{fill:#05646E;}
	.st72{fill:#F28D70;}
	.st73{fill:#BEC5CA;}
	.st74{fill:#54767A;}
</style>
<g id="Fondo">
</g>
<g id="Grafica">
</g>
<g id="Informazioni">
	<g>
		<path class="st0" d="M284.6,257.8c1.4-2-49.3,15.3-109.8-11.2c-64-28-165.3-123.3-165.3-128.9c0-5.6,223.6-77.9,309.5,5.6"/>
		<path class="st60" d="M289.4,231.9c0.9-1.2-29.9,9.3-66.7-6.8c-38.9-17-100.4-74.9-100.4-78.3c0-3.4,135.8-47.3,188,3.4"/>
		<g>
			<path class="st0" d="M397.6,418.2c76.6,3.6,121.3-48,120.8-48.2l-108.7-60.3c-58.9,48.4-183.7,27.6-183.7,27.6
				S331.8,415.2,397.6,418.2z"/>
			<path class="st60" d="M315.2,364.3c32.5-3.6,65.4-9.3,97.8-4.3c13.8,2.1,27.3,6.3,40,12.2c11.7,5.4,20.7,14.4,31.8,20.3
				c1.4,0.7,2.8,1.3,4.3,1.7c19.2-12,29.4-24,29.2-24.1l-108.7-60.3c-58.9,48.4-183.7,27.6-183.7,27.6s18.1,13.3,44,29.2
				C285,367.1,300.3,365.9,315.2,364.3z"/>
			<path class="st0" d="M454.6,126.2l124.3-3.3c0.5,0-15.3-66.3-84.9-98.5c-59.8-27.7-189.6-7.5-189.6-7.5S424.7,56.1,454.6,126.2z"
				/>
			<path class="st60" d="M454.6,126.2l123.2-3.2c0.3-0.5,0.5-0.9,0.8-1.4c-1.4-6-9.2-30.8-30.3-55.7c-33.2-11.1-79.9-11.8-98.7-11.4
				c-18.9,0.4-37.7,2.4-56.2,6.1C419.1,77.7,443.3,99.8,454.6,126.2z"/>
			<g>
				<path class="st61" d="M513.9,374.6C513.9,374.6,513.9,374.6,513.9,374.6c-0.5-0.9-1.1-1.9-1.6-2.8c0-0.6,0-1.1,0-1.7
					c-0.2-0.9-0.1-1.7,0.3-2.4c0.5-1.2,0.4-1,0.3-0.7c0,0,0,0,0,0c0,0.1-0.1,0.1-0.1,0.2c-0.3,0.4,1.4-1.7,0.8-1.1
					c-0.1,0.1-0.2,0.2-0.2,0.3c-0.5,0.5-1,1.1-1.4,1.6c-1.8,1.9-3.7,3.7-5.6,5.5c-1.4,1.2-2.7,2.4-4.1,3.6c-0.8,0.7-1.6,1.3-2.4,2
					c-0.4,0.3-0.8,0.6-1.2,0.9c-0.2,0.2-0.4,0.3-0.7,0.5c-0.7,0.5,1.4-1.1,0.4-0.3c-4,3-8.1,5.9-12.4,8.6
					c-5.1,3.2-10.3,6.1-15.7,8.7c-1.4,0.7-2.8,1.3-4.3,2c-0.8,0.3-1.5,0.7-2.3,1c-0.6,0.3,0.8-0.3,0.7-0.3c-0.2,0.1-0.3,0.1-0.5,0.2
					c-0.4,0.2-0.9,0.4-1.3,0.6c-3.2,1.3-6.5,2.5-9.8,3.6c-7.1,2.3-14.3,4.2-21.7,5.5c-1.9,0.3-3.8,0.6-5.7,0.9
					c-0.9,0.1,1.3-0.2,0.4-0.1c-0.2,0-0.4,0.1-0.6,0.1c-0.5,0.1-1,0.1-1.5,0.2c-1,0.1-2,0.2-3.1,0.3c-4.2,0.4-8.5,0.7-12.7,0.7
					c-4,0.1-8,0-12-0.3c-1.4-0.1-2.8-0.2-4.2-0.4c-0.7-0.1-1.3-0.2-2-0.2c-1.4-0.2,1.4,0.2,0.3,0c-0.4-0.1-0.8-0.1-1.2-0.2
					c-6-0.9-11.9-2.2-17.8-3.8c-6.3-1.7-12.5-3.8-18.6-6.1c-3.2-1.2-6.4-2.4-9.5-3.7c-0.7-0.3-1.5-0.6-2.2-0.9c-1.3-0.6,1,0.4,0,0
					c-0.4-0.2-0.8-0.3-1.2-0.5c-1.6-0.7-3.2-1.4-4.8-2.1c-12.6-5.6-24.9-11.9-36.9-18.6c-11-6.1-21.8-12.5-32.4-19.2
					c-8.1-5.1-16.1-10.4-24-15.8c-3.9-2.7-7.8-5.3-11.6-8.1c-0.2-0.1-0.3-0.2-0.5-0.4c-1.6,3.9-3.3,7.8-4.9,11.7
					c4.8,0.8,9.7,1.4,14.5,1.9c11,1.2,22.1,2.1,33.1,2.5c14.9,0.5,29.7,0.3,44.6-0.9c16.5-1.4,33.1-3.8,49-8.4
					c15.2-4.4,30.3-10.7,43.2-20.1c1.9-1.4,3.7-2.8,5.5-4.3c2.6-2.1,2.4-6.9,0-9c-2.8-2.5-6.3-2.3-9,0c-0.3,0.3-0.7,0.6-1,0.8
					c-0.2,0.1-0.3,0.3-0.5,0.4c-0.8,0.6,0.5-0.4,0.5-0.4c-0.8,0.6-1.6,1.2-2.4,1.8c-1.5,1.1-3,2.1-4.6,3.1c-3.2,2-6.5,3.9-9.9,5.6
					c-1.7,0.9-3.4,1.7-5.1,2.5c-0.8,0.4-1.7,0.8-2.5,1.1c-1.4,0.6,1.3-0.5-0.1,0c-0.5,0.2-1,0.4-1.5,0.6c-3.7,1.5-7.4,2.8-11.1,4
					c-7.6,2.4-15.3,4.3-23.1,5.8c-4,0.8-7.9,1.4-11.9,2c-0.2,0-2,0.3-0.8,0.1c1.2-0.2-0.5,0.1-0.8,0.1c-1,0.1-2,0.3-3,0.4
					c-2,0.2-4,0.5-6,0.7c-14.9,1.4-29.9,1.8-44.8,1.4c-11.5-0.3-23-1-34.4-2.2c-2-0.2-4-0.4-6.1-0.7c-0.8-0.1-1.7-0.2-2.5-0.3
					c-0.4,0-0.7-0.1-1.1-0.1c-0.2,0-0.3,0-0.5-0.1c-1.1-0.1,2,0.3,1,0.1c-1.6-0.2-3.3-0.5-4.9-0.7c-0.1,0-0.1,0-0.2,0
					c-3.2-0.5-6.2,0.6-7.5,3.7c-1.3,3.1,0,6.1,2.6,8c2.7,2,5.5,3.9,8.2,5.8c7.3,5,14.6,10,22.1,14.7c10.4,6.7,20.9,13.1,31.6,19.2
					c12.1,6.9,24.4,13.4,37,19.3c12.9,6,26,11.5,39.6,15.7c12.2,3.8,24.9,6.6,37.8,7c16.9,0.6,33.9-1.4,50.2-5.9
					c13.3-3.7,26.2-9.2,38.2-16.1c8.9-5.1,17.4-11.2,25.2-17.9c3.5-3,7.2-6.2,10.1-9.9c2.2-2.7,3.3-6.5,0.2-9.4
					c-2.4-2.3-6.7-2.6-9,0C511.6,368,511.3,372.1,513.9,374.6L513.9,374.6z"/>
			</g>
			<g>
				<path class="st61" d="M580.5,129.2c4-1,5.1-4.8,4.4-8.3c-0.1-0.6-0.3-1.1-0.4-1.7c-0.6-2.3-1.3-4.5-2.1-6.7
					c-3-8.5-6.8-16.7-11.2-24.6C565.1,76.8,557.5,66.4,549,57c-10.6-11.6-22.9-21.7-36.4-29.8c-12.3-7.4-25.4-13-39.4-16.4
					c-13.7-3.3-27.7-5.1-41.7-6.2c-14.2-1.1-28.5-1.3-42.8-1c-13.1,0.3-26.1,0.9-39.1,2c-10,0.8-20,1.8-30,3
					c-5.5,0.7-10.9,1.4-16.4,2.2c-0.2,0-0.4,0.1-0.7,0.1c-2.6,0.4-4.8,3.6-4.7,6.2c0.1,2.9,1.9,5.3,4.7,6.2
					c4.1,1.3,8.1,2.8,12.1,4.4c2.1,0.8,4.1,1.6,6.2,2.4c1.2,0.5,2.4,1,3.6,1.5c0.6,0.2,1.2,0.5,1.8,0.7c0.3,0.1,0.5,0.2,0.8,0.3
					c0.9,0.4-1.5-0.6-0.8-0.3c0.2,0.1,0.4,0.2,0.6,0.3c5.6,2.4,11.2,4.9,16.7,7.5c13.3,6.3,26.3,13.3,38.8,21.1
					c6.8,4.2,13.4,8.7,19.7,13.5c0.8,0.6,1.6,1.2,2.3,1.8c0.7,0.5-1.3-1-0.4-0.3c0.2,0.1,0.3,0.3,0.5,0.4c0.4,0.3,0.9,0.7,1.3,1
					c1.6,1.2,3.1,2.5,4.7,3.8c3.1,2.6,6.1,5.3,9.1,8.1c5.7,5.4,11,11.1,15.9,17.3c0.1,0.2,0.3,0.3,0.4,0.5c-1.2-1.5-0.7-0.9-0.4-0.6
					c0.3,0.4,0.6,0.7,0.8,1.1c0.6,0.8,1.2,1.6,1.7,2.4c1.1,1.6,2.2,3.2,3.3,4.9c2,3.2,3.9,6.4,5.5,9.8c0.8,1.6,1.6,3.3,2.3,4.9
					c0.6,1.4,2.5,2.6,3.8,2.9c1.5,0.4,3.6,0.2,4.9-0.6c1.4-0.9,2.6-2.2,2.9-3.8c0.4-1.8,0.1-3.3-0.6-4.9
					c-6.2-14.6-16.1-27.5-27.2-38.7c-11.6-11.8-24.9-21.9-38.8-31C381.5,45,368.2,37.7,354.6,31c-10.9-5.3-22-10.2-33.3-14.6
					c-5-2-10-4-15.1-5.6c-0.1,0-0.1,0-0.2-0.1c0,4.1,0,8.2,0,12.3c0.9-0.1,1.7-0.3,2.6-0.4c1-0.1,2.1-0.3,3.1-0.4
					c1.5-0.2-1.8,0.2-0.7,0.1c0.4,0,0.7-0.1,1.1-0.1c0.7-0.1,1.5-0.2,2.2-0.3c8.7-1.1,17.5-2.1,26.2-2.9c12.2-1.1,24.4-1.9,36.6-2.4
					c13.8-0.5,27.7-0.6,41.5-0.1c7,0.3,13.9,0.7,20.9,1.4c1.7,0.2,3.5,0.4,5.2,0.6c0.8,0.1,1.6,0.2,2.3,0.3c0.4,0,0.8,0.1,1.2,0.1
					c0.2,0,0.4,0.1,0.7,0.1c1.1,0.1-1.3-0.2-0.5-0.1c3.3,0.5,6.6,1,9.9,1.6c6.2,1.1,12.4,2.5,18.4,4.3c2.8,0.8,5.6,1.7,8.3,2.8
					c0.7,0.2,1.3,0.5,2,0.8c0.6,0.2,3.1,1.3,0.8,0.3c1.5,0.6,2.9,1.3,4.3,2c7.5,3.6,14.8,7.7,21.7,12.5c1.6,1.1,3.2,2.2,4.8,3.4
					c0.4,0.3,0.7,0.5,1.1,0.8c0.3,0.3,1.8,1.4,0.2,0.2c0.8,0.6,1.6,1.2,2.4,1.9c2.9,2.3,5.6,4.7,8.3,7.2c5,4.7,9.8,9.7,14.1,15
					c1.1,1.3,2.1,2.6,3.1,3.9c0.1,0.1-0.9-1.2-0.5-0.7c0.1,0.2,0.3,0.3,0.4,0.5c0.2,0.3,0.4,0.6,0.7,0.9c0.5,0.7,1,1.3,1.5,2
					c1.7,2.4,3.4,4.8,5,7.3c2.9,4.5,5.6,9.2,8.1,13.9c1,2,2,4.1,3,6.2c0.4,1,0.9,1.9,1.3,2.9c0.2,0.4,0.8,2,0.3,0.7
					c-0.6-1.3,0.1,0.3,0.3,0.7c1.9,4.5,3.7,9.2,4.7,14.1c0,0.2,0.1,0.4,0.1,0.5c0.2,0.6-0.2-2.1-0.2-1.5c0-1.1,0.9-3.5,1.9-4.4
					c0.9-0.5,1.9-1.1,2.8-1.6c0,0,0,0,0,0c-3.2,0.8-5.5,4.6-4.5,7.9C573.8,128,577.1,130,580.5,129.2L580.5,129.2z"/>
			</g>
		</g>
		<path class="st0" d="M298,281.9c4.2,2.1,15.6,4.4,28.1,6.3L370.6,106c-11.9-4-23.1-7.4-27.8-7.4c-12.2-0.1-37.4,39.1-47.4,85.5
			C282.9,229.9,287.2,276.4,298,281.9z"/>
		<path class="st60" d="M313.2,173.6c8.6,0.1,15.5,5.9,23.6,6.3c5.3,0.3,11.4-2.6,17.5-7l16.4-67c-11.9-4-23.1-7.4-27.8-7.4
			c-11.5-0.1-34.7,35.1-45.7,78.3C302.2,174.7,307.7,173.6,313.2,173.6z"/>
		<path class="st0" d="M332.9,302.1c10.8,5.8,69.7,10.9,69.7,10.9L450,119.4c0,0-54.6-22.8-66.9-22.6c-12.2,0.2-38.7,44.6-50.1,96.5
			C319.2,244.7,322.2,296.3,332.9,302.1z"/>
		<path class="st60" d="M363.9,171.7c11.2-4.4,23.4-6.2,35.4-5.4c6.1,0.4,12.2,1.5,18,3.4c4.4,1.4,11,6.2,15.5,5.7
			c1.2-0.1,2.4-0.5,3.7-1l13.5-55c0,0-54.6-22.8-66.9-22.6c-11,0.2-33.6,36.2-46.3,81.2c-0.6,4.5-1.2,8.9-1.8,13.4
			C336.1,183.5,357.6,174.1,363.9,171.7z"/>
		<path class="st0" d="M761.6,453.4c98.3-6.7,175.4-59.6,207.8-85.7c10.4-8.4,14-22.7,8.6-35c-16.7-38.1-60.6-120.7-144.7-172
			C708.7,84.6,450,119.4,450,119.4c-18.4,14.5-36.5,48.3-47,91.1c-10.5,42.7-10,81.2-0.4,102.5C402.6,313,616,463.3,761.6,453.4z"/>
		
			<ellipse transform="matrix(0.7071 -0.7071 0.7071 0.7071 11.7 558.6689)" class="st62" cx="680.2" cy="265.2" rx="92.8" ry="92.8"/>
		<path class="st63" d="M402.2,235.1c14.2-39,49.3-67.7,88.1-82.3c38.8-14.6,81.2-16.6,122.6-14.8c75.9,3.3,152,21.4,191,85.7
			c5.8,9.5,10.5,19.7,13.7,30.4c2,6.5,9.5,35.8,9.5,35.8c14.9,16.1,27.8-24.6,32.1-34.8c10-23.4,12-47.6,7.8-70.7
			c-10.4-8.4-21.7-16.4-33.7-23.8C708.7,84.6,450,119.4,450,119.4c-18.4,14.5-36.5,48.3-47,91.1c-0.8,3.3-1.6,6.7-2.2,10
			C400.9,225.3,401.4,230.2,402.2,235.1z"/>
		<path class="st0" d="M835.7,162.1c4.5,39.9,0.2,93.6-13.8,150.9c-14,57.3-35,106.9-57.4,140.2c97-7.5,172.8-59.7,204.9-85.5
			c10.4-8.4,14-22.7,8.6-35C961.4,294.8,918.2,213.5,835.7,162.1z"/>
		<g>
			<path class="st60" d="M973.7,348.9c-31.3,25.2-104,75.3-197.4,84.8c-3.9,6.9-7.8,13.4-11.8,19.4c97-7.5,172.8-59.7,204.9-85.5
				c8-6.4,11.9-16.4,10.9-26.2C978.6,344.2,976.4,346.8,973.7,348.9z"/>
			<path class="st60" d="M826,294.9c0-0.2,0.1-0.4,0.1-0.6c11.5-47.1,16.5-91.9,15.3-128.5c-1.9-1.3-3.9-2.5-5.8-3.7
				C839.7,197.7,836.7,244.4,826,294.9z"/>
		</g>
		<path class="st60" d="M836.5,197.4c-0.2,4-0.5,7.9-0.7,11.9c-0.4,7.9-0.8,15.9-1.3,23.8c-0.4,7.7-1,15.4-1.5,23
			c-0.4,5.7-0.9,11.4-2.1,17c6.5-2.7,14.1-4.1,22.7-2c33.2,8.1,78.6,59.1,101.3,87c2-6.3,1.7-13.3-1.1-19.7
			c-14.4-33-50.2-100.8-116.7-149.5C836.9,191.7,836.7,194.5,836.5,197.4z"/>
		<g>
			<path class="st61" d="M761.6,459.8c35.5-2.5,70.3-10.8,103.3-23.9c27-10.7,52.8-24.3,77-40.3c9.1-6,18-12.5,26.6-19.2
				c4.9-3.8,9.6-7.6,13-13c4.5-7.3,6.1-16,4.9-24.4c-0.8-5.8-3.5-11-5.9-16.3c-2-4.2-4-8.4-6.1-12.6c-5.1-10.2-10.6-20.1-16.6-29.9
				c-15.1-24.8-32.7-48.3-52.7-69.3c-22.3-23.5-48-44.7-76.5-60.4c-22.2-12.2-46.4-20.7-70.8-27c-26.4-6.8-53.5-11.1-80.6-13.9
				c-26.5-2.8-53.2-4.1-79.9-4.5c-23.6-0.3-47.2,0.2-70.7,1.4c-17.4,0.9-34.8,2.1-52.1,3.8c-8,0.8-16,1.6-23.9,2.6
				c-3,0.4-5.1,1.9-7.4,3.8c-4.9,4.3-9.1,9.4-13,14.6c-9.7,13.1-16.8,28-22.6,43.1c-7.1,18.4-12.2,37.7-15.4,57.3
				c-2.9,17.8-4.4,36.1-2.5,54.2c0.7,7.3,1.9,14.6,4.1,21.6c1.2,3.9,2.4,8.7,5.9,11.2c2,1.4,4,2.8,6,4.1
				c11.1,7.5,22.3,14.7,33.7,21.7c18.4,11.4,37.2,22.3,56.2,32.7c23.3,12.7,47,24.6,71.2,35.4c25.9,11.6,52.3,22,79.5,30.3
				c26,7.9,52.6,13.9,79.7,16.3C737.7,460.3,749.7,460.6,761.6,459.8c3.4-0.2,6.4-2.8,6.4-6.4c0-3.3-2.9-6.6-6.4-6.4
				c-30.8,2-59.9-2.5-89.6-10.1c-31.8-8.1-63.2-19.7-92.7-32.6c-28.6-12.5-56.6-26.6-83.9-41.8c-21-11.6-41.6-23.9-61.8-36.8
				c-9.2-5.9-18.1-12.3-27.3-18.1c-0.1-0.1-0.2-0.2-0.4-0.3c0.8,0.8,1.5,1.5,2.3,2.3c-0.8-1.8,0.4,1.1-0.3-0.8
				c-0.2-0.6-0.5-1.2-0.7-1.8c-0.4-1-0.7-2.1-1.1-3.1c-0.8-2.7-1.5-5.5-2.1-8.3c-1.2-5.8-1.8-11.1-2.1-17.1
				c-0.8-14.6,0.3-29.2,2.6-43.6c4.7-29.1,13.4-58.6,28.2-84.2c6-10.3,12.4-19.5,21.8-27c-1.5,0.6-3,1.2-4.5,1.9
				c8.1-1.1,16.2-1.9,24.3-2.7c20.8-2,41.7-3.4,62.6-4.3c28.6-1.2,57.3-1.4,85.9-0.3c31.6,1.2,63,4,93.5,9.2
				c15.2,2.6,30.3,5.9,45.2,10c7.3,2,14.5,4.3,21.7,6.7c3.4,1.2,6.8,2.4,10.1,3.7c1.7,0.6,3.3,1.3,4.9,2c0.8,0.3,1.6,0.7,2.4,1
				c-0.8-0.3,0.2,0.1,0.3,0.1c0.5,0.2,1,0.4,1.5,0.7c32.3,14.1,61.1,35.6,86,60.3c23.8,23.6,43.9,50.2,61,79
				c6.4,10.9,12.4,22,17.8,33.4c1.1,2.3,2.2,4.6,3.2,7c0.4,1,0.9,2,1.3,2.9c0.5,1.1,1.1,2.5,1.6,4.6c1.9,7.6-0.3,16-6,21.7
				c-2,2.1-4.4,3.8-6.7,5.6c-0.5,0.4-1,0.8-1.5,1.2c1.1-0.9-0.3,0.2-0.7,0.5c-1.2,0.9-2.3,1.8-3.5,2.6c-5,3.7-10.1,7.4-15.3,10.9
				c-12.8,8.7-26,16.7-39.6,23.9c-33.7,17.9-70,31.1-107.7,37.7c-10.2,1.8-20.5,3-30.8,3.7c-3.4,0.2-6.4,2.8-6.4,6.4
				C755.2,456.6,758.1,460,761.6,459.8z"/>
		</g>
		<g>
			<path class="st61" d="M770,456.4c9.6-14.2,17.7-29.4,24.8-45c8.6-18.7,15.9-37.9,22.2-57.5c6.9-21.5,12.5-43.4,16.9-65.5
				c4.2-21.5,7.3-43.3,8.9-65.1c1.3-18.3,1.6-36.8-0.1-55.2c-0.2-2-0.4-4-0.6-6c-0.4-3.3-2.7-6.6-6.4-6.4c-3.1,0.1-6.8,2.8-6.4,6.4
				c2,17.8,2.1,35.7,1.1,53.5c-0.5,10.1-1.4,20.2-2.6,30.2c-0.2,1.3-0.3,2.6-0.5,3.9c-0.1,0.6-0.2,1.2-0.2,1.8
				c0,0.4-0.1,0.7-0.1,1.1c0.1-0.9,0.1-0.5,0,0.1c-0.4,2.7-0.7,5.3-1.2,8c-0.8,5.4-1.7,10.8-2.7,16.2c-4,22.2-9.4,44.1-15.9,65.6
				c-3.1,10.1-6.4,20-10,29.9c-1.7,4.7-3.5,9.3-5.4,14c-0.9,2.3-1.8,4.5-2.8,6.7c0.7-1.5-0.2,0.4-0.3,0.7c-0.2,0.5-0.4,1-0.7,1.5
				c-0.5,1.1-0.9,2.2-1.4,3.3c-7.1,16-15,31.6-24.5,46.4c-1,1.6-2.1,3.2-3.2,4.8c-1.9,2.8-0.6,7.2,2.3,8.7
				C764.5,460.4,768,459.4,770,456.4L770,456.4z"/>
		</g>
		<g>
			<path class="st61" d="M451.7,113.2c-6.2-2.6-12.4-5.1-18.7-7.5c-11.2-4.3-22.4-8.6-33.9-12c-4.6-1.4-9.3-2.6-14.1-3.2
				c-4.1-0.4-7.9,1-11.1,3.5c-4.8,3.7-8.6,8.3-12.1,13.2c-4.2,5.8-7.8,12-11.1,18.4c-8.7,16.8-15.5,34.6-20.5,52.9
				c-1.4,5-2.4,10-3.7,14.9c-1.4,5.5-2.7,11-3.8,16.5c-2.1,10.6-3.6,21.4-4.5,32.2c-0.7,9.1-1,18.2-0.6,27.3
				c0.3,7.4,1,14.9,2.8,22.1c1.2,4.9,3,10.4,6.7,14c3.1,3,7.6,4.2,11.7,5.2c11.6,2.8,23.6,4.2,35.5,5.6c9,1.1,18,2,27.1,2.8
				c0.5,0,0.9,0.1,1.4,0.1c1.5,0.1,3.5-0.8,4.5-1.9c1.1-1.1,1.9-2.9,1.9-4.5c-0.2-3.7-2.8-6.1-6.4-6.4c-8.5-0.7-16.9-1.6-25.4-2.6
				c-4-0.5-8-1-12-1.5c0.6,0.1,1.1,0.2,1.7,0.2c-8.9-1.2-17.9-2.4-26.5-4.7c-1.6-0.4-3.1-0.9-4.6-1.5c0.5,0.2,1,0.4,1.5,0.6
				c-0.5-0.2-1-0.5-1.5-0.8c-0.5-0.3-1-1,0.8,0.7c-0.1-0.1-0.2-0.2-0.3-0.3c-0.3-0.2-0.5-0.5-0.7-0.7c-0.7-0.7,0.5,0.7,0.6,0.8
				c-0.1-0.2-0.2-0.3-0.3-0.5c-0.2-0.3-0.4-0.7-0.6-1c-0.5-0.8-0.9-1.7-1.2-2.5c0.2,0.5,0.4,1,0.6,1.5c-1.9-4.6-2.8-9.5-3.5-14.4
				c0.1,0.6,0.2,1.1,0.2,1.7c-1.8-13.2-1.5-26.7-0.4-39.9c0.4-4.5,0.9-9.1,1.5-13.6c-0.1,0.6-0.2,1.1-0.2,1.7
				c0.8-5.8,1.8-11.6,2.9-17.4c1.2-5.8,2.6-11.6,4.1-17.4c1.3-5.4,2.6-10.9,4.1-16.2c1.5-5.1,3.1-10.1,4.8-15.1
				c1.9-5.4,3.9-10.8,6.2-16.1c-0.2,0.5-0.4,1-0.6,1.5c3.9-9.1,8.2-18.1,13.3-26.6c2-3.4,4.2-6.7,6.5-9.9c0.3-0.4,0.5-0.7,0.8-1.1
				c0.6-0.8-1.1,1.4-0.5,0.6c0.1-0.2,0.3-0.3,0.4-0.5c0.5-0.7,1-1.3,1.6-1.9c1-1.1,2-2.2,3.1-3.3c0.5-0.5,1-1,1.6-1.5
				c0.2-0.2,0.5-0.4,0.7-0.6c1.1-0.9-1.5,1.1-0.4,0.3c0.9-0.7,1.9-1.3,3-1.7c-0.5,0.2-1,0.4-1.5,0.6c0.6-0.3,1.3-0.5,2-0.6
				c-0.6,0.1-1.1,0.2-1.7,0.2c1-0.1,2.1,0,3.1,0.1c-0.6-0.1-1.1-0.2-1.7-0.2c4.2,0.6,8.4,1.8,12.4,3c5.5,1.7,10.9,3.5,16.2,5.4
				c10,3.6,19.8,7.4,29.6,11.4c2.1,0.8,4.1,1.7,6.2,2.5c1.4,0.6,3.7,0.1,4.9-0.6c1.3-0.8,2.6-2.3,2.9-3.8c0.4-1.6,0.3-3.5-0.6-4.9
				C454.6,114.6,453.3,113.9,451.7,113.2L451.7,113.2z"/>
		</g>
		<g>
			<path class="st61" d="M372.3,99.8c-5.5-1.9-11-3.7-16.6-5.2c-4.1-1.1-8.4-2.3-12.6-2.4c-5.7-0.2-10.8,3.7-14.7,7.4
				c-5.2,5-9.5,11.1-13.3,17.2c-4.9,7.8-9,16-12.6,24.4c-4.4,10.2-8.1,20.6-11,31.3c-0.7,2.6-1.3,5.2-1.9,7.9
				c-0.7,3-1.5,5.9-2.2,8.8c-1.4,5.8-2.5,11.6-3.4,17.5c-1.7,11.3-2.8,22.7-2.7,34.1c0,9.1,0.7,18.3,2.6,27.2
				c0.8,3.5,1.9,6.9,3.3,10.2c1.1,2.5,2.5,4.9,4.4,6.8c2.6,2.5,6,3.7,9.4,4.7c4.8,1.3,9.6,2.2,14.5,3.1c2.9,0.5,5.8,1,8.7,1.4
				c1.8,0.3,3.3,0.3,4.9-0.6c1.3-0.8,2.6-2.3,2.9-3.8c0.4-1.6,0.3-3.5-0.6-4.9c-0.8-1.3-2.2-2.7-3.8-2.9c-5.4-0.8-10.8-1.7-16.2-2.8
				c-3.7-0.8-7.5-1.6-11-3c0.5,0.2,1,0.4,1.5,0.6c-0.7-0.3-1.3-0.6-1.8-1c0.4,0.3,0.9,0.7,1.3,1c-0.7-0.5-1.2-1.1-1.7-1.8
				c0.3,0.4,0.7,0.9,1,1.3c-1-1.4-1.8-2.9-2.5-4.5c0.2,0.5,0.4,1,0.6,1.5c-2.1-4.9-3.1-10.3-3.8-15.6c0.1,0.6,0.2,1.1,0.2,1.7
				c-1.5-11.6-1.5-23.4-0.5-35.1c0.3-3.9,0.7-7.8,1.2-11.6c-0.1,0.6-0.2,1.1-0.2,1.7c0.6-4.7,1.4-9.5,2.4-14.2
				c1-4.8,2.2-9.6,3.4-14.4c1-4.3,2-8.5,3.2-12.8c1.2-4.2,2.5-8.4,4-12.6c1.6-4.5,3.2-8.9,5.1-13.2c-0.2,0.5-0.4,1-0.6,1.5
				c4.2-9.9,9-19.5,15-28.5c1.4-2.1,2.8-4.1,4.3-6.1c-0.3,0.4-0.7,0.9-1,1.3c2.6-3.4,5.5-6.7,8.9-9.3c-0.4,0.3-0.9,0.7-1.3,1
				c1.2-0.9,2.5-1.8,4-2.4c-0.5,0.2-1,0.4-1.5,0.6c0.7-0.3,1.4-0.5,2.2-0.6c-0.6,0.1-1.1,0.2-1.7,0.2c1-0.1,2,0,3,0.1
				c-0.6-0.1-1.1-0.2-1.7-0.2c3.7,0.5,7.4,1.5,11,2.6c4.9,1.4,9.8,3,14.6,4.7c3.2,1.1,7.1-1.2,7.9-4.5
				C377.6,104.2,375.7,101,372.3,99.8L372.3,99.8z"/>
		</g>
		
			<ellipse transform="matrix(0.7071 -0.7071 0.7071 0.7071 3.0577 566.4526)" class="st60" cx="685.3" cy="279.5" rx="92.8" ry="92.8"/>
		<g>
			<path class="st61" d="M664.9,363.5c-4.8-1.2-9.5-2.7-14.1-4.7c0.5,0.2,1,0.4,1.5,0.6c-7.3-3.1-14.2-7.1-20.5-12
				c0.4,0.3,0.9,0.7,1.3,1c-6.2-4.8-11.8-10.4-16.6-16.7c0.3,0.4,0.7,0.9,1,1.3c-4.9-6.4-9-13.4-12.2-20.8c0.2,0.5,0.4,1,0.6,1.5
				c-3.2-7.6-5.4-15.6-6.5-23.7c0.1,0.6,0.2,1.1,0.2,1.7c-1.1-8.1-1.1-16.3,0-24.4c-0.1,0.6-0.2,1.1-0.2,1.7
				c1.1-8.2,3.3-16.3,6.5-24c-0.2,0.5-0.4,1-0.6,1.5c3.1-7.3,7.1-14.2,12-20.5c-0.3,0.4-0.7,0.9-1,1.3c4.8-6.2,10.4-11.8,16.7-16.6
				c-0.4,0.3-0.9,0.7-1.3,1c6.4-4.9,13.4-9,20.8-12.2c-0.5,0.2-1,0.4-1.5,0.6c7.6-3.2,15.6-5.4,23.7-6.5c-0.6,0.1-1.1,0.2-1.7,0.2
				c8.1-1.1,16.3-1.1,24.4,0c-0.6-0.1-1.1-0.2-1.7-0.2c8.2,1.1,16.3,3.3,24,6.5c-0.5-0.2-1-0.4-1.5-0.6c7.3,3.1,14.2,7.1,20.5,12
				c-0.4-0.3-0.9-0.7-1.3-1c6.2,4.8,11.8,10.4,16.6,16.7c-0.3-0.4-0.7-0.9-1-1.3c4.9,6.4,9,13.4,12.2,20.8c-0.2-0.5-0.4-1-0.6-1.5
				c3.2,7.6,5.4,15.6,6.5,23.7c-0.1-0.6-0.2-1.1-0.2-1.7c1.1,8.1,1.1,16.3,0,24.4c0.1-0.6,0.2-1.1,0.2-1.7c-1.1,8.2-3.3,16.3-6.5,24
				c0.2-0.5,0.4-1,0.6-1.5c-3.1,7.3-7.1,14.2-12,20.5c0.3-0.4,0.7-0.9,1-1.3c-4.8,6.2-10.4,11.8-16.7,16.6c0.4-0.3,0.9-0.7,1.3-1
				c-6.4,4.9-13.4,9-20.8,12.2c0.5-0.2,1-0.4,1.5-0.6c-7.6,3.2-15.6,5.4-23.7,6.5c0.6-0.1,1.1-0.2,1.7-0.2c-8.1,1.1-16.3,1.1-24.4,0
				c0.6,0.1,1.1,0.2,1.7,0.2C671.5,364.9,668.2,364.3,664.9,363.5c-3.2-0.8-7.1,1-7.9,4.5c-0.8,3.3,1,7,4.5,7.9
				c10,2.4,20.4,3.4,30.6,2.7c10-0.7,19.8-2.9,29.1-6.6c4.8-1.9,9.5-4.1,13.9-6.7c4.5-2.6,8.6-5.6,12.7-8.8c7.8-6.2,14.5-13.7,20-22
				c5.7-8.5,10-17.9,12.8-27.7c2.8-9.9,4.2-20.4,3.8-30.7c-0.4-10-2.2-20-5.5-29.4c-3.3-9.3-7.9-18.1-13.8-26
				c-6.3-8.4-13.6-15.7-22.1-21.8c-8.2-6-17.4-10.5-27.1-13.7c-9.8-3.2-20.3-4.9-30.6-4.9c-10,0-20.1,1.5-29.6,4.5
				c-9.4,3-18.5,7.3-26.6,12.9c-8.1,5.6-15.5,12.3-21.6,20.1c-3.3,4.2-6.3,8.5-8.9,13.1c-2.6,4.6-4.8,9.5-6.7,14.5
				c-3.6,9.7-5.6,20.1-6,30.5c-0.4,10,0.8,20.2,3.5,29.8c2.6,9.5,6.7,18.7,12,27c5.3,8.3,11.8,15.9,19.3,22.2
				c4,3.4,8.2,6.5,12.6,9.2c4.6,2.8,9.4,5.1,14.3,7.2c4.4,1.8,9,3.3,13.7,4.5c3.2,0.8,7.1-1,7.9-4.5
				C670.2,368.1,668.4,364.4,664.9,363.5z"/>
		</g>
		
			<ellipse transform="matrix(3.923682e-02 -0.9992 0.9992 3.923682e-02 379.0887 953.3372)" class="st0" cx="685.3" cy="279.5" rx="59" ry="59"/>
		<path class="st60" d="M732.4,284.4c-7.7,31.6-39.7,51-71.3,43.3c-7.4-1.8-14.2-5-20-9.1c7.7,8.7,18,15.3,30.2,18.3
			c31.6,7.7,63.5-11.6,71.3-43.3c5.9-24.2-4-48.6-23.2-62.2C731.7,245.4,737.2,264.9,732.4,284.4z"/>
		<path class="st60" d="M649.9,326.7c-9-13.3-12.6-30.2-8.4-47.1c7.7-31.6,39.7-51,71.3-43.3c8,2,15.2,5.5,21.4,10.1
			c-7.9-11.7-20-20.6-34.8-24.2c-31.6-7.7-63.5,11.6-71.3,43.3C622.2,289.2,631.6,313,649.9,326.7z"/>
		<g>
			<path class="st61" d="M672.6,332.2c-3.1-0.8-6.1-1.8-9.1-3c0.4,0.2,0.8,0.3,1.1,0.5c-2.8-1.2-5.4-2.5-8-4.1
				c-1.3-0.8-2.5-1.6-3.7-2.5c-0.3-0.2-0.5-0.4-0.8-0.6c-0.3-0.2-0.8-0.6,0.4,0.3c-0.1-0.1-0.2-0.2-0.3-0.3c-0.6-0.5-1.2-1-1.8-1.5
				c-2.2-1.9-4.2-3.9-6.1-6.1c-0.5-0.5-0.9-1.1-1.4-1.6c-0.2-0.3-0.5-0.5-0.7-0.8c0,0,0.8,1,0.4,0.5c-0.1-0.2-0.3-0.3-0.4-0.5
				c-0.9-1.1-1.7-2.3-2.4-3.5c-1.8-2.8-3.3-5.7-4.6-8.7c0.2,0.4,0.3,0.8,0.5,1.1c-2-4.9-3.4-10-4.1-15.2c0.1,0.4,0.1,0.8,0.2,1.3
				c-0.7-5.1-0.7-10.3,0-15.5c-0.1,0.4-0.1,0.8-0.2,1.3c0.7-5.3,2.1-10.4,4.2-15.4c-0.2,0.4-0.3,0.8-0.5,1.1c1.2-2.8,2.5-5.4,4.1-8
				c0.8-1.3,1.6-2.5,2.5-3.7c0.2-0.3,0.4-0.5,0.6-0.8c0.2-0.3,0.6-0.8-0.3,0.4c0.1-0.1,0.2-0.2,0.3-0.3c0.5-0.6,1-1.2,1.5-1.8
				c1.9-2.2,3.9-4.2,6.1-6.1c0.5-0.5,1.1-0.9,1.6-1.4c0.3-0.2,0.5-0.5,0.8-0.7c0,0-1,0.8-0.5,0.4c0.2-0.1,0.3-0.3,0.5-0.4
				c1.1-0.9,2.3-1.7,3.5-2.4c2.8-1.8,5.7-3.3,8.7-4.6c-0.4,0.2-0.8,0.3-1.1,0.5c4.9-2,10-3.4,15.2-4.1c-0.4,0.1-0.8,0.1-1.3,0.2
				c5.1-0.7,10.3-0.7,15.5,0c-0.4-0.1-0.8-0.1-1.3-0.2c5.3,0.7,10.4,2.1,15.4,4.2c-0.4-0.2-0.8-0.3-1.1-0.5c2.8,1.2,5.4,2.5,8,4.1
				c1.3,0.8,2.5,1.6,3.7,2.5c0.3,0.2,0.5,0.4,0.8,0.6c0.3,0.2,0.8,0.6-0.4-0.3c0.1,0.1,0.2,0.2,0.3,0.3c0.6,0.5,1.2,1,1.8,1.5
				c2.2,1.9,4.2,3.9,6.1,6.1c0.5,0.5,0.9,1.1,1.4,1.6c0.2,0.3,0.5,0.5,0.7,0.8c0,0-0.8-1-0.4-0.5c0.1,0.2,0.3,0.3,0.4,0.5
				c0.9,1.1,1.7,2.3,2.4,3.5c1.8,2.8,3.3,5.7,4.6,8.7c-0.2-0.4-0.3-0.8-0.5-1.1c2,4.9,3.4,10,4.1,15.2c-0.1-0.4-0.1-0.8-0.2-1.3
				c0.7,5.1,0.7,10.3,0,15.5c0.1-0.4,0.1-0.8,0.2-1.3c-0.7,5.3-2.1,10.4-4.2,15.4c0.2-0.4,0.3-0.8,0.5-1.1c-1.2,2.8-2.5,5.4-4.1,8
				c-0.8,1.3-1.6,2.5-2.5,3.7c-0.2,0.3-0.4,0.5-0.6,0.8c-0.2,0.3-0.6,0.8,0.3-0.4c-0.1,0.1-0.2,0.2-0.3,0.3c-0.5,0.6-1,1.2-1.5,1.8
				c-1.9,2.2-3.9,4.2-6.1,6.1c-0.5,0.5-1.1,0.9-1.6,1.4c-0.3,0.2-0.5,0.5-0.8,0.7c0,0,1-0.8,0.5-0.4c-0.2,0.1-0.3,0.3-0.5,0.4
				c-1.1,0.9-2.3,1.7-3.5,2.4c-2.8,1.8-5.7,3.3-8.7,4.6c0.4-0.2,0.8-0.3,1.1-0.5c-4.9,2-10,3.4-15.2,4.1c0.4-0.1,0.8-0.1,1.3-0.2
				c-5.1,0.7-10.3,0.7-15.5,0c0.4,0.1,0.8,0.1,1.3,0.2C676.7,333.1,674.6,332.7,672.6,332.2c-2.4-0.6-5.3,0.8-5.9,3.3
				c-0.6,2.5,0.7,5.3,3.3,5.9c12.7,3.1,26.3,2.4,38.4-2.5c6.2-2.5,11.9-5.8,17.2-10c5-4,9.2-8.8,12.8-14.1
				c7.4-10.9,11.1-24.4,10.6-37.6c-0.5-12.7-4.8-25.3-12.4-35.5c-4-5.4-8.7-10-14.1-14c-5.3-3.9-11.3-6.8-17.5-8.9
				c-12.4-4.1-26.2-4.2-38.7-0.2c-12,3.8-23.1,11.2-30.9,21.2c-4.3,5.5-7.6,11.4-10,17.9c-2.3,6.2-3.6,12.9-3.8,19.5
				c-0.5,12.7,3,25.7,9.9,36.5c3.4,5.4,7.6,10.3,12.5,14.4c5.2,4.4,11,7.9,17.3,10.5c2.9,1.2,5.8,2.2,8.9,2.9
				c2.4,0.6,5.3-0.8,5.9-3.3C676.5,335.6,675.2,332.8,672.6,332.2z"/>
		</g>
		<g>
			<path class="st61" d="M674.7,354.9c0-0.2,0.1-0.4,0.1-0.6c0.3-0.8,0.3-1.7,0.1-2.5c0-0.9-0.3-1.6-0.8-2.4c-0.4-0.7-1-1.3-1.6-1.8
				c-0.6-0.6-1.3-0.9-2.2-1.1c-0.6-0.1-1.1-0.2-1.7-0.2c-1.2,0-2.2,0.3-3.2,0.9c-0.4,0.3-0.9,0.7-1.3,1c-0.8,0.8-1.3,1.7-1.6,2.8
				c0,0.2-0.1,0.4-0.1,0.6c-0.3,0.8-0.3,1.7-0.1,2.5c0,0.9,0.3,1.6,0.8,2.4c0.4,0.7,1,1.3,1.6,1.8c0.6,0.6,1.3,0.9,2.2,1.1
				c0.6,0.1,1.1,0.2,1.7,0.2c1.2,0,2.2-0.3,3.2-0.9c0.4-0.3,0.9-0.7,1.3-1C673.9,356.9,674.4,356,674.7,354.9L674.7,354.9z"/>
		</g>
		<g>
			<path class="st61" d="M610.4,268c0.2,0,0.4,0.1,0.6,0.1c0.8,0.3,1.7,0.3,2.5,0.1c0.9,0,1.6-0.3,2.4-0.8c0.7-0.4,1.3-1,1.8-1.6
				c0.6-0.6,0.9-1.3,1.1-2.2c0.1-0.6,0.2-1.1,0.2-1.7c0-1.2-0.3-2.2-0.9-3.2c-0.3-0.4-0.7-0.9-1-1.3c-0.8-0.8-1.7-1.3-2.8-1.6
				c-0.2,0-0.4-0.1-0.6-0.1c-0.8-0.3-1.7-0.3-2.5-0.1c-0.9,0-1.6,0.3-2.4,0.8c-0.7,0.4-1.3,1-1.8,1.6c-0.6,0.6-0.9,1.3-1.1,2.2
				c-0.1,0.6-0.2,1.1-0.2,1.7c0,1.2,0.3,2.2,0.9,3.2c0.3,0.4,0.7,0.9,1,1.3C608.3,267.1,609.3,267.7,610.4,268L610.4,268z"/>
		</g>
		<g>
			<path class="st61" d="M702.9,201.4c-3.3,0-6.5,2.9-6.4,6.4c0.2,3.5,2.8,6.4,6.4,6.4c3.3,0,6.5-2.9,6.4-6.4
				C709.1,204.3,706.4,201.4,702.9,201.4L702.9,201.4z"/>
		</g>
		<g>
			<path class="st61" d="M756,304.3c0.2,0,0.4,0.1,0.6,0.1c0.8,0.3,1.7,0.3,2.5,0.1c0.9,0,1.6-0.3,2.4-0.8c0.7-0.4,1.3-1,1.8-1.6
				c0.6-0.6,0.9-1.3,1.1-2.2c0.1-0.6,0.2-1.1,0.2-1.7c0-1.2-0.3-2.2-0.9-3.2c-0.3-0.4-0.7-0.9-1-1.3c-0.8-0.8-1.7-1.3-2.8-1.6
				c-0.2,0-0.4-0.1-0.6-0.1c-0.8-0.3-1.7-0.3-2.5-0.1c-0.9,0-1.6,0.3-2.4,0.8c-0.7,0.4-1.3,1-1.8,1.6c-0.6,0.6-0.9,1.3-1.1,2.2
				c-0.1,0.6-0.2,1.1-0.2,1.7c0,1.2,0.3,2.2,0.9,3.2c0.3,0.4,0.7,0.9,1,1.3C754,303.4,754.9,304,756,304.3L756,304.3z"/>
		</g>
		<g>
			<path class="st61" d="M616.8,322.7c0.2,0.3,0.3,0.5,0.5,0.8c0.4,0.7,1,1.3,1.6,1.8c0.6,0.6,1.3,0.9,2.2,1.1
				c0.8,0.3,1.7,0.3,2.5,0.1c0.9,0,1.6-0.3,2.4-0.8c0.4-0.3,0.9-0.7,1.3-1c0.8-0.8,1.3-1.7,1.6-2.8c0.1-0.6,0.2-1.1,0.2-1.7
				c0-1.2-0.3-2.2-0.9-3.2c-0.2-0.3-0.3-0.5-0.5-0.8c-0.4-0.7-1-1.3-1.6-1.8c-0.6-0.6-1.3-0.9-2.2-1.1c-0.8-0.3-1.7-0.3-2.5-0.1
				c-0.9,0-1.6,0.3-2.4,0.8c-0.4,0.3-0.9,0.7-1.3,1c-0.8,0.8-1.3,1.7-1.6,2.8c-0.1,0.6-0.2,1.1-0.2,1.7
				C615.9,320.6,616.2,321.7,616.8,322.7L616.8,322.7z"/>
		</g>
		<g>
			<path class="st61" d="M725.6,333.9c-3.3,0-6.5,2.9-6.4,6.4c0.2,3.5,2.8,6.4,6.4,6.4c3.3,0,6.5-2.9,6.4-6.4
				C731.8,336.8,729.2,333.9,725.6,333.9L725.6,333.9z"/>
		</g>
		<g>
			<path class="st61" d="M748.2,233.6c-3.3,0-6.5,2.9-6.4,6.4c0.2,3.5,2.8,6.4,6.4,6.4c3.3,0,6.5-2.9,6.4-6.4
				C754.4,236.5,751.8,233.6,748.2,233.6L748.2,233.6z"/>
		</g>
		<g>
			<path class="st61" d="M643.3,211.8c-3.3,0-6.5,2.9-6.4,6.4c0.2,3.5,2.8,6.4,6.4,6.4c3.3,0,6.5-2.9,6.4-6.4
				C649.5,214.7,646.8,211.8,643.3,211.8L643.3,211.8z"/>
		</g>
		<g>
			<path class="st61" d="M290.1,261c2.7-4.4-0.9-9.8-5.8-9.8c-1.2,0-2.4,0.3-3.6,0.5c-3.1,0.5-6.2,1.1-9.4,1.6
				c-0.5,0.1-1,0.1-1.5,0.2c-0.3,0-0.5,0.1-0.8,0.1c-1,0.1,1.8-0.2,0.4,0c-1.2,0.2-2.5,0.3-3.7,0.4c-2.8,0.3-5.7,0.6-8.5,0.7
				c-7,0.4-14,0.5-21,0.1c-4-0.2-8-0.6-12-1.1c-0.3,0-0.6-0.1-1-0.1c-0.7-0.1,0.5,0.1,0.5,0.1c-0.3-0.2-1.1-0.2-1.5-0.2
				c-1.2-0.2-2.3-0.3-3.4-0.5c-2.2-0.4-4.4-0.8-6.5-1.2c-9.6-1.9-19-4.7-28.1-8.2c-1.1-0.4-2.2-0.9-3.4-1.3
				c-0.3-0.1-0.6-0.2-0.8-0.3c0,0-1-0.4-0.4-0.1c0.7,0.3-0.5-0.2-0.6-0.3c-0.3-0.1-0.7-0.3-1-0.4c-1.3-0.5-2.5-1.1-3.7-1.7
				c-2.6-1.2-5.2-2.5-7.7-3.8c-5.5-2.9-11-6-16.3-9.2c-11.8-7.1-23.1-14.9-34.2-23c-2.9-2.1-5.7-4.2-8.5-6.3
				c-1.4-1.1-2.8-2.1-4.2-3.2c-0.7-0.5-1.4-1.1-2.1-1.6c-0.2-0.1-0.3-0.2-0.5-0.4c-0.5-0.4-0.1-0.3,0,0c0.1,0.3,0.5,0.4,0,0
				c-0.2-0.2-0.4-0.3-0.6-0.5c-5.6-4.3-11.1-8.8-16.6-13.2c-10.2-8.4-20.3-16.9-30.2-25.7c-7.9-7-15.7-14.2-23.3-21.6
				c-4.7-4.6-9.5-9.2-13.6-14.2c-0.1-0.2-0.3-0.3-0.4-0.5c-0.8-1,0.9,1.3,0.5,0.7c-0.2-0.3-0.4-0.6-0.6-0.9
				c-0.1-0.2-0.3-0.5-0.4-0.7c-0.5-0.7,0.7,2,0.4,1c0.4,1.6,0.1,3.4-0.6,4.6c0-0.1-1.5,1.7-0.7,1c0.4-0.3-1.8,1.2-0.8,0.7
				c0.2-0.1,0.4-0.2,0.6-0.4c0.5-0.3,1.1-0.6,1.7-0.9c0.4-0.2,0.7-0.3,1.1-0.5c0.2-0.1,0.4-0.2,0.5-0.2c1.2-0.5-0.9,0.4-0.8,0.3
				c2.1-0.8,4.2-1.7,6.4-2.4c6.2-2.2,12.5-4.2,18.8-6.1c8.6-2.5,17.2-4.8,25.9-6.9c10.3-2.5,20.7-4.7,31.1-6.6
				c5.7-1.1,11.4-2,17.1-3c2.9-0.5,5.8-0.9,8.8-1.3c0.7-0.1,1.5-0.2,2.2-0.3c0.3,0,0.7-0.1,1-0.1c1.4-0.2-1.4,0.2,0,0
				c1.5-0.2,3-0.4,4.5-0.6c12.3-1.5,24.6-2.6,36.9-3.2c12.5-0.6,25.1-0.7,37.6-0.1c6.2,0.3,12.3,0.8,18.5,1.5c1.5,0.2,3,0.4,4.5,0.5
				c0.3,0,1.5,0.2,0.4,0c-1.2-0.2,0.1,0,0.4,0.1c0.8,0.1,1.6,0.2,2.4,0.3c3,0.4,5.9,0.9,8.8,1.5c11.5,2.1,22.8,5.2,33.7,9.4
				c1.3,0.5,2.6,1,3.9,1.6c0.4,0.2-1.5-0.6-0.3-0.1c0.3,0.1,0.7,0.3,1,0.4c0.6,0.3,1.3,0.6,1.9,0.9c2.6,1.2,5.1,2.4,7.6,3.7
				c4.8,2.6,9.4,5.4,13.9,8.6c0.5,0.4,1.1,0.8,1.6,1.2c0.2,0.2,0.5,0.4,0.7,0.6c0.1,0.1,0.2,0.2,0.4,0.3c0.8,0.6-0.5-0.4-0.6-0.4
				c1,0.8,2,1.6,3,2.4c2,1.7,4,3.5,5.9,5.3c2.4,2.3,6.7,2.6,9,0c2.3-2.5,2.6-6.6,0-9c-8.2-7.9-17.6-14.6-27.7-20
				c-10.5-5.5-21.6-9.8-33.1-13c-12-3.3-24.4-5.5-36.8-6.9c-12.4-1.4-24.9-2-37.4-2c-12.5,0-25.1,0.6-37.5,1.7
				c-12.6,1.1-25.2,2.7-37.8,4.7C102.2,85,91,87.1,79.9,89.5c-9.7,2.1-19.4,4.4-29,6.9c-7.6,2-15.2,4.2-22.7,6.7
				c-5,1.6-10,3.3-14.9,5.4c-3.6,1.5-8.7,3.2-9.9,7.5c-0.7,2.7,0.4,5.2,1.9,7.2c1.7,2.3,3.6,4.4,5.5,6.5
				c5.6,6.1,11.7,11.8,17.7,17.5c8.6,8.1,17.4,15.9,26.3,23.6c10.5,9,21.2,17.9,32,26.4c11.6,9.1,23.3,17.9,35.4,26.3
				c10.9,7.5,22.1,14.7,33.7,21c14.4,7.8,29.6,14.1,45.5,18c16.2,4,33.1,5.8,49.8,5.3c10.2-0.3,20.4-1.6,30.5-3.4
				c1-0.2,2-0.4,3.1-0.5c1.1-0.2-2,0.1-1.1,0.1c0.1,0,0.3,0,0.4,0c0,0,0.2,0,0.2,0c0,0-1.7-0.2-1.6-0.2c-0.8-0.2-1.5-0.6-2.1-1.1
				c-0.2-0.2-0.4-0.3-0.6-0.5c-0.5-2.1-1.1-4.1-1.6-6.2c0,0,0.7-1.6,0.6-1.5c-1.8,2.8-0.7,7.2,2.3,8.7
				C284.5,265,288.2,264.1,290.1,261L290.1,261z"/>
		</g>
	</g>
</g>
</svg>
