<?xml version="1.0" encoding="utf-8"?>
<!-- Generator: Adobe Illustrator 27.2.0, SVG Export Plug-In . SVG Version: 6.00 Build 0)  -->
<svg version="1.1" id="Livello_1" xmlns="http://www.w3.org/2000/svg" xmlns:xlink="http://www.w3.org/1999/xlink" x="0px" y="0px"
	 viewBox="0 0 500 280" style="enable-background:new 0 0 500 280;" xml:space="preserve">
<style type="text/css">
	.st0{fill:#274B8B;}
	.st1{fill:#F8D239;}
	.st2{fill:#3D9446;}
	.st3{fill:#D8632C;}
	.st4{fill:#FFFFFF;}
	.st5{fill:#D8A63C;}
	.st6{fill:#234185;}
	.st7{fill:#EAA734;}
	.st8{fill:#87734E;}
	.st9{fill:#2E2D77;}
	.st10{clip-path:url(#SVGID_00000038405105838743521750000000152216594902051774_);fill:#87734E;}
	.st11{fill:#414970;}
	.st12{fill-rule:evenodd;clip-rule:evenodd;fill:#414970;}
	.st13{fill:#1D1D1B;}
	.st14{fill:#D1267C;}
	.st15{fill:#4799CE;}
</style>
<g>
	<path class="st0" d="M75.8,180.7l7.7-10.1h7.9l-9.8,11.6l10.6,12.9H84l-8.2-10.6V180.7z"/>
	<path class="st1" d="M61,185l-7.7,10.1h-7.9l9.8-11.6l-10.6-12.9h8.3l8.2,10.6V185z"/>
	<path class="st2" d="M70.2,198.1l10.6,8.2v8.3l-12.9-10.6l-11.6,9.8v-7.9l10.1-7.7H70.2z"/>
	<path class="st3" d="M66.5,167.7l-10.6-8.2v-8.3l12.9,10.6l11.6-9.8v7.9l-10.1,7.7H66.5z"/>
	<path class="st0" d="M100.8,195.1h-6.4v-24.5h6.4V195.1z"/>
	<path class="st0" d="M113.3,186.5L113.3,186.5l5.2-15.8h5.1l4.8,15.8h0.1l4.6-15.8h6.6l-7.8,24.5h-6.5l-4.3-14.2H121l-4.8,14.2
		h-6.5l-7.3-24.5h6.6L113.3,186.5z"/>
	<path class="st0" d="M144.9,190.9l-1.7,4.3h-6.8l9.4-24.5h7l9.2,24.5h-6.8l-1.6-4.3H144.9z M149.4,178.2L149.4,178.2l-2.7,7.8h5.3
		L149.4,178.2z"/>
	<path class="st0" d="M164,170.6h6.4l11.7,15h0.1v-15h6.4v24.5h-6.4l-11.7-15h-0.1v15H164V170.6z"/>
	<path class="st0" d="M199.1,195.1h-6.4v-24.5h6.4V195.1z"/>
	<path class="st0" d="M216.7,176.9c-1.2-1-2.7-1.6-4.2-1.6c-1.2,0-2.7,0.7-2.7,2c0,1.4,1.7,2,2.8,2.3l1.6,0.5c3.4,1,6,2.7,6,6.7
		c0,2.4-0.6,4.9-2.5,6.6c-1.9,1.6-4.5,2.3-7,2.3c-3.1,0-6.1-1-8.6-2.8l2.7-5.1c1.6,1.4,3.5,2.5,5.7,2.5c1.5,0,3.1-0.7,3.1-2.5
		c0-1.8-2.5-2.4-3.9-2.8c-4-1.1-6.6-2.2-6.6-6.9c0-5,3.5-8.2,8.5-8.2c2.5,0,5.5,0.8,7.7,2L216.7,176.9z"/>
	<g>
		<path class="st0" d="M250.4,178.8c-1.3-1.8-3.4-2.7-5.6-2.7c-3.9,0-6.5,3-6.5,6.8c0,3.9,2.7,6.7,6.6,6.7c2.1,0,4.2-1,5.5-2.6v7.6
			c-2.1,0.7-3.6,1.1-5.6,1.1c-3.4,0-6.7-1.3-9.2-3.6c-2.7-2.4-3.9-5.6-3.9-9.3c0-3.4,1.3-6.6,3.6-9c2.4-2.5,5.9-4,9.3-4
			c2.1,0,3.9,0.5,5.8,1.2V178.8z"/>
		<path class="st0" d="M260.7,189.7h7.6v5.4h-14v-24.5h6.4V189.7z"/>
		<path class="st0" d="M291.7,170.6v13.8c0,3.2-0.1,6.3-2.6,8.7c-2.1,2-5.3,2.7-8.1,2.7c-2.9,0-6.1-0.7-8.1-2.7
			c-2.4-2.4-2.6-5.5-2.6-8.7v-13.8h6.4v12.9c0,3.2,0.2,6.7,4.3,6.7c4.1,0,4.3-3.5,4.3-6.7v-12.9H291.7z"/>
		<path class="st0" d="M295.7,195.1v-24.5h9.1c4.4,0,7.3,1.7,7.3,6.4c0,2.2-0.7,4-2.7,5v0.1c3.5,0.5,5,2.8,5,6.2
			c0,5.1-4.4,6.8-8.9,6.8H295.7z M302.1,180.2h0.7c1.7,0,3.4-0.3,3.4-2.4c0-2.2-2-2.4-3.7-2.4h-0.5V180.2z M302.1,190.3h0.8
			c1.9,0,5.1,0.1,5.1-2.6c0-3-3.2-2.7-5.2-2.7h-0.7V190.3z"/>
	</g>
	<g>
		<g>
			<path class="st0" d="M94.4,228.6V204h4.9c1.9,0,3.6,0.1,5.1,1.4c1.5,1.3,2,3.1,2,5.1c0,2.2-0.9,3.9-2.8,5c3,0.6,5.1,3.1,5.1,6.2
				c0,2-0.7,3.8-2.3,5.1c-1.7,1.5-3.5,1.8-5.7,1.8H94.4z M96,215.2h2.7c1.7,0,3,0.1,4.4-0.9c1.4-1,1.8-2.2,1.8-3.9
				c0-1.6-0.6-3.2-2-4c-1.2-0.8-2.8-0.8-4.2-0.8H96V215.2z M96,227.1h3.7c1.7,0,3.5,0.1,5-0.9c1.5-1,2.4-2.5,2.4-4.4
				c0-1.8-0.9-3.6-2.5-4.4c-1.5-0.7-3.5-0.8-5.2-0.8H96V227.1z"/>
			<path class="st0" d="M114.3,205.5v8.9h9.9v1.5h-9.9v11.2h10.1v1.5h-11.7V204h11.7v1.5H114.3z"/>
			<path class="st0" d="M130.8,227.1h6.2v1.5h-7.8V204h1.6V227.1z"/>
			<path class="st0" d="M141.4,227.1h6.2v1.5h-7.8V204h1.6V227.1z"/>
			<path class="st0" d="M152.1,228.6h-1.6V204h1.6V228.6z"/>
			<path class="st0" d="M179.5,229.4l-20.6-21.9v21.1h-1.6v-24.8l20.6,21.7V204h1.6V229.4z"/>
			<path class="st0" d="M199.8,227.1v1.5h-17.3l15-23.1H184V204h16.3l-15,23.1H199.8z"/>
			<path class="st0" d="M227.2,216.3c0,6.9-5.8,12.6-12.7,12.6c-6.9,0-12.7-5.7-12.7-12.6c0-6.9,5.8-12.6,12.7-12.6
				C221.4,203.7,227.2,209.4,227.2,216.3z M203.3,216.3c0,6,5,11.1,11.2,11.1c6.1,0,11.2-5.1,11.2-11.1c0-6-5.1-11.1-11.2-11.1
				C208.4,205.2,203.3,210.3,203.3,216.3z"/>
			<path class="st0" d="M253.1,229.4l-20.6-21.9v21.1H231v-24.8l20.6,21.7V204h1.6V229.4z"/>
			<path class="st0" d="M260.8,220.5l-3.3,8.1h-1.6l10.3-25.3l10.2,25.3h-1.6l-3.3-8.1H260.8z M266.2,207.2l-4.8,11.8h9.6
				L266.2,207.2z"/>
			<path class="st0" d="M96,238.1v8.9h9.9v1.5H96v11.2h10.1v1.5H94.4v-24.5h11.7v1.5H96z"/>
			<path class="st0" d="M124.3,257.5L124.3,257.5l7.3-20.9h1.6l-8.9,25.3l-8.8-25.3h1.6L124.3,257.5z"/>
			<path class="st0" d="M135.1,253.1l-3.3,8.1h-1.6l10.3-25.3l10.2,25.3h-1.6l-3.3-8.1H135.1z M140.5,239.8l-4.8,11.8h9.6
				L140.5,239.8z"/>
			<path class="st0" d="M155.1,259.7h6.2v1.5h-7.8v-24.5h1.6V259.7z"/>
			<path class="st0" d="M165.8,259.7h6.2v1.5h-7.8v-24.5h1.6V259.7z"/>
			<path class="st0" d="M176.4,261.1h-1.6v-24.5h1.6V261.1z"/>
		</g>
	</g>
	<g>
		<path class="st4" d="M156.3,82.4v34.3h-42.7c-6.4-10.8-9.8-22.3-10-34.3H156.3z"/>
		<path class="st4" d="M158.6,116.7V82.4h51.3c-0.2,12-3.5,23.5-10,34.3H158.6z"/>
		<path class="st0" d="M173,21.4c-3.7-4.2-12.1-2.7-14.6-1.9c-4.6-3.3-12.5,0.3-14.7,1.6c-5.2-2.2-12.1,3.2-14,5.1
			c-5.6-0.8-11,6-12.4,8.3c-5.6,0.5-9.2,8.5-10,11c-5.4,1.8-6.9,10.4-7.1,13c-4.8,3.1-4.2,11.8-3.8,14.4c-3.9,4.1-1.3,12.4-0.2,14.8
			c-2.8,4.9,1.7,12.4,3.3,14.5c-1.5,5.5,4.7,11.5,6.7,13.2c-0.3,5.7,7.3,10.3,9.7,11.4c1.2,5.5,9.5,8.1,12.1,8.6
			c2.5,5.1,11.2,5.6,13.8,5.4c3.6,4.4,12.2,2.7,14.7,2c4.6,3.5,12.5-0.2,14.8-1.6c5.2,2.3,12.1-3.2,14-5c5.6,0.9,11-6,12.3-8.2
			c5.7-0.4,9.3-8.5,10.1-11c5.4-1.8,6.9-10.4,7.1-13c4.8-3.1,4.2-11.8,3.8-14.4c3.9-4.1,1.2-12.4,0.2-14.8
			c2.9-4.9-1.7-12.4-3.3-14.5c1.6-5.5-4.7-11.6-6.7-13.3c0.2-5.7-7.3-10.2-9.7-11.2c-1.2-5.5-9.5-8.1-12.1-8.6
			C184.5,21.8,175.6,21.2,173,21.4"/>
		<path class="st5" d="M157.5,135.4c30.1,0,54.4-24.3,54.4-54.3c0-30-24.4-54.3-54.4-54.3c-30.1,0-54.4,24.3-54.4,54.3
			C103.1,111,127.5,135.4,157.5,135.4"/>
		<path class="st0" d="M157.5,132.6c28.6,0,51.7-23.1,51.7-51.6s-23.2-51.6-51.7-51.6c-28.6,0-51.7,23.1-51.7,51.6
			S129,132.6,157.5,132.6"/>
		<path class="st4" d="M157.5,117.8c20.3,0,36.8-16.4,36.8-36.7c0-20.3-16.5-36.7-36.8-36.7c-20.3,0-36.8,16.4-36.8,36.7
			C120.7,101.3,137.2,117.8,157.5,117.8"/>
		<g>
			<path class="st5" d="M157.5,118c-20.4,0-37.1-16.6-37.1-37c0-20.4,16.6-37,37.1-37c20.4,0,37.1,16.6,37.1,37
				C194.6,101.4,178,118,157.5,118z M157.5,44.5C137.4,44.5,121,60.9,121,81c0,20.1,16.4,36.5,36.5,36.5c20.1,0,36.5-16.4,36.5-36.5
				C194.1,60.9,177.7,44.5,157.5,44.5z"/>
		</g>
		<path class="st0" d="M160.9,115.5c1.4,0,2.2,0,4.8-0.6c1.9-0.7,8.1-3,3.9-11.1C169.4,104,156.1,78,156.1,78l-7.1,6v20.8
			C149,109.2,155.6,115.7,160.9,115.5"/>
		<g>
			<path class="st5" d="M160.6,115.7c-5.5,0-11.9-6.6-11.9-11V83.9l7.4-6.3l0.2,0.3c4.9,9.5,12.1,23.5,13.3,25.5l0,0l0.2,0.3
				c1.5,2.8,1.8,5.3,1,7.2c-1.1,2.7-4,3.8-5.1,4.2c-2.7,0.6-3.6,0.7-4.9,0.7C160.8,115.7,160.7,115.7,160.6,115.7z M149.3,84.1v20.6
				c0,4,6.2,10.4,11.3,10.4c0.3,0,0.5,0,0.7,0c1.1,0,2-0.1,4.3-0.6c1.1-0.4,3.8-1.4,4.8-3.9c0.7-1.8,0.4-4.1-1-6.8l0,0
				c-0.5-0.7-2.7-4.6-13.4-25.4L149.3,84.1z"/>
		</g>
		<path class="st0" d="M185.1,59.8c4.5,5.9,7.2,13.2,7.2,21.2c0,5.5-1.3,10.7-3.6,15.3c-0.6,1.1-3.3,6.1-6.6-0.2
			c0.1,0.1-14.6-27.7-14.6-27.7l11-9.4C180.3,57.6,183.7,57.8,185.1,59.8"/>
		<g>
			<path class="st5" d="M185.5,99.5c-1.2,0-2.5-1.1-3.6-3.2l-0.1-0.1l0,0c-0.8-1.7-9.7-18.5-14.5-27.6l-0.1-0.2l11.2-9.5
				c0.7-0.6,1.8-1,3-1c1.6,0,3,0.7,3.9,1.8c4.8,6.2,7.3,13.5,7.3,21.4c0,5.4-1.2,10.6-3.6,15.5C187.9,98.5,186.8,99.5,185.5,99.5z
				 M182.4,96c1,1.9,2.1,2.9,3.1,2.9c0.7,0,1.8-0.5,3-2.8c2.4-4.7,3.5-9.9,3.5-15.2c0-7.7-2.5-15-7.2-21c-0.7-1-2-1.6-3.4-1.6
				c-1,0-2,0.3-2.6,0.9l-10.9,9.2C179.9,91.1,182,95.2,182.4,96L182.4,96z"/>
		</g>
		<path class="st0" d="M163.5,46.7c-2-0.3-4-0.5-6-0.5c-2.7,0-8.5,2.5-8.5,8.5v11.4l15.9-13.3C167.4,50.8,167.9,48.5,163.5,46.7"/>
		<g>
			<path class="st5" d="M148.7,66.7v-12c0-6.1,5.8-8.8,8.8-8.8c2.1,0,4.1,0.2,6.1,0.5c2.1,0.9,3.3,1.9,3.5,3.1
				c0.2,1.1-0.5,2.3-2,3.5L148.7,66.7z M157.5,46.5c-2.8,0-8.3,2.5-8.3,8.2v10.8l15.5-12.9c1.3-1.1,1.9-2.1,1.8-3
				c-0.2-1-1.2-1.9-3.1-2.6C161.5,46.7,159.5,46.5,157.5,46.5z"/>
		</g>
		<path class="st0" d="M147.3,105.5V82.9l9.4-7.9l15.5,29.7c1.2,2.6,0.8,4.8,0.7,5.8c-0.1,1,1.7,0.9,2-0.8c0.2-1-0.2-3.6-0.7-4.6
			l-17.2-32.9l-11.7,9.9v23c0.2,4.4,2.8,8,4.4,9c0.9,0.6,2.9,0.1,1.5-1.2C150,111.8,147.3,108.6,147.3,105.5"/>
		<path class="st0" d="M136,102.9V58.3c0-0.9-1.2-2-1.1-2.6c0.1-1,1-1.3,1.8-1c1,0.3,1.2,1.7,1.2,3.3v46.3c0,1.3-0.6,2.3-1.1,2.5
			c-0.4,0.1-2.1,0.5-2.1-1C134.8,104.6,136,105.2,136,102.9"/>
		<path class="st0" d="M147.3,54.4v15.4L167.3,53c0.8-0.6,1.4-2.3,1.4-3c0-0.7,0.8-1.2,1.3-1.1c1,0.2,1,0.7,0.8,1.7
			c-0.2,1.1-1.3,3-2.1,3.6l-23.3,19.6V54c0-2.3,0.9-5.1,2.2-6.1c0.9-0.7,1.9-1.1,2.2-0.4c0.1,0.3,0,0.7-0.2,0.9
			C148.8,49.4,147.4,51.3,147.3,54.4"/>
		<path class="st0" d="M179.6,54.8c-2,0.3-2.2,0.5-3.8,1.8l-12.7,10.6l17.1,32.8c1.2,2.1,3.9,3.2,4.4,2.8c0.5-0.4,0.4-1,0.2-1.5
			c-0.4-0.8-1.8,0-3.7-3.4l-15.7-30.1l11.6-9.8c1.1-1,1.9-1.6,3.3-1.6c0.7,0,0.8-0.7,0.7-0.9C180.8,54.8,180.7,54.9,179.6,54.8"/>
		<path class="st4" d="M126.7,48.3c0.2,0.2,0.4,0.2,0.9,0.3l4.2,0.3c0.7,0.1,0.8,0.1,1.2-0.1c0.5-0.2,0.8-0.2,1.2,0.1
			c0.4,0.3,0.3,0.8-0.2,1.3l-2,2c-0.3,0.3-0.4,0.3-1.2,0.2c-0.5-0.1-3.1-0.4-3.5-0.1c-0.2,0.2-0.1,0.5,0.3,0.9
			c0.4,0.4,0.7,0.5,1,0.4c0.5-0.1,0.7-0.1,0.9,0.2c0.4,0.4,0.1,1.2-1.3,2.6c-1.4,1.4-2,1.7-2.5,1.2c-0.2-0.2-0.2-0.4-0.2-0.8
			c0.1-0.5-0.3-1.2-2-2.8c-1.2-1.2-1.6-1.6-2.2-1.9c-0.8-0.5-1.2,0.1-1.7-0.3c-0.4-0.4-0.3-0.9,0.3-1.7c0.4-0.4,0.7-0.8,1-1.1
			c1.1-1.1,1.7-1.4,2.2-0.9c0.1,0.1,0.2,0.3,0.2,0.5c0,0.6,0.2,0.9,0.6,1.4c0.3,0.3,0.5,0.4,0.6,0.3c0.2-0.2,0.2-0.4,0-1.7
			c0-0.3-0.1-0.5-0.2-0.6c-0.2-0.2-0.5-0.2-0.7-0.4c-0.5-0.5-0.2-1.2,1.1-2.5c1.2-1.2,1.8-1.5,2.3-1c0.3,0.3,0.3,0.8-0.1,1.1
			c-0.7,0.7-0.6,0.7-0.6,1.3C126.5,46.9,126.4,47.9,126.7,48.3"/>
		<path class="st4" d="M135.7,39.1c-0.3,0.4-0.1,0.9,1.1,2.8c0.1,0.2,0.2,0.3,0.3,0.5l1,1.6c0.6,1,0.8,1.1,1.4,1
			c0.4,0,0.6,0,0.7,0.3c0.5,0.9-1.5,2.1-2.1,2.5c-1.4,0.9-2.3,1.1-2.6,0.5c-0.2-0.2-0.1-0.4,0.1-0.8c0.2-0.5,0.2-0.7-0.6-2l-0.9-1.5
			l-0.2-0.3c-1.1-1.8-1.4-2.1-2.1-2.2c-0.5,0-0.6-0.1-0.8-0.3c-0.5-0.8,1.7-2.2,2.2-2.6c1.4-0.9,2.4-1,2.7-0.5
			c0.1,0.2,0.1,0.4,0,0.6L135.7,39.1z"/>
		<path class="st4" d="M151.9,41c-0.2,1.6-0.4,2-1,2.1c-0.6,0.1-1,0-1.3-0.5l-2.3-2.9c-0.3-0.3-0.3-0.4-0.4-0.3
			c-0.2,0.1-0.2,0.2-0.4,1.3l-0.3,2.6c-0.1,1-0.3,1.2-1,1.4c-0.6,0.2-0.9,0-1.4-0.7l-4.3-6c-0.3-0.4-0.4-0.5-0.5-0.5
			c-0.4-0.1-0.7-0.2-0.8-0.6c-0.2-0.6,0.6-1.2,2.2-1.6c1.9-0.5,2.5-0.4,2.7,0.2c0.1,0.3-0.2,0.6-0.1,1c0,0.2,1.5,2.5,1.9,2.4
			c0.2,0,0.3-0.4,0.4-0.9l0.1-0.9c0-0.1,0-0.1,0-0.2c0,0,0-0.1-0.1-0.1l-0.3-0.4c-0.5-0.7-1.1-0.3-1.3-1c-0.1-0.6,0.7-1.1,2.5-1.6
			c1.8-0.5,2.7-0.4,2.8,0.2c0.1,0.5-0.5,0.7-0.4,1.1c0.1,0.5,0.8,1.1,1.1,1.5c0.6,0.7,0.7,0.8,0.9,0.7c0.2-0.1,0.3-0.3,0.3-1.1
			l0.1-1.1c0-0.3,0-0.5,0-0.7c-0.1-0.2-0.1-0.3-0.4-0.3c-0.4,0-0.7-0.2-0.8-0.5c-0.1-0.6,0.4-0.9,1.8-1.3c1.1-0.3,1.7-0.1,1.8,0.4
			c0.1,0.3,0,0.4-0.3,0.9c-0.2,0.3-0.2,0.4-0.3,1.3l-0.4,3.6L151.9,41z"/>
		<path class="st4" d="M164.5,41c0.2,0.6,0.3,0.7,0.7,0.8c0.3,0.1,0.5,0.3,0.5,0.5c-0.1,0.7-0.9,1-2.8,0.8c-1-0.1-2-0.2-2.4-0.3
			c-0.5-0.1-0.8-0.4-0.7-0.8c0-0.3,0.1-0.4,0.6-0.6c0.2-0.1,0.4-0.2,0.4-0.3c0-0.4-0.2-0.6-0.7-0.7c-0.5-0.1-1-0.2-1.5-0.2
			c-1.4-0.1-1.6,0-1.6,0.7c0,0.4,0.9,0.3,0.8,0.9c0,0.6-0.8,0.8-2.2,0.7c-1.6-0.1-2.2-0.4-2.2-1c0-0.3,0.2-0.4,0.6-0.6
			c0.6-0.2,0.8-0.4,1.5-1.6l1.2-2.2c0.9-1.6,1.1-2.2,1.2-3c0.1-1.2,0.7-1.8,1.8-1.7c0.8,0.1,1.4,0.5,1.9,1.3
			c0.5,0.8,1.1,2.2,1.8,4.1L164.5,41z"/>
		<path class="st4" d="M172.8,41c-0.2-0.3-0.4-0.6-0.5-0.7c-0.3-0.1-0.6,0.2-0.9,1c-0.5,1.3-0.6,1.6-0.2,2c0.3,0.3,0.3,0.5,0.2,0.8
			c-0.2,0.6-1.1,0.6-2.4,0.1c-1.2-0.5-1.7-1.1-1.5-1.7c0.2-0.4,0.5-0.4,0.8-0.5c0.5-0.1,0.9-0.7,1.8-3c0.5-1.3,0.9-2.4,0.9-2.9
			c0-0.5-0.8-0.9-0.6-1.5c0.3-0.7,1-0.7,2.7,0.1c0.8,0.3,1,0.5,1.3,1.1l2.1,4.3c0.2,0.4,0.4,0.6,0.5,0.7c0.2,0.1,0.5-0.1,0.7-0.6
			c0.5-1.1,0.5-1.5,0.1-1.8c-0.3-0.3-0.3-0.5-0.2-0.8c0.3-0.6,0.8-0.7,2.2-0.1c1.6,0.6,2,1.1,1.7,1.7c-0.1,0.3-0.4,0.4-0.8,0.5
			c-0.6,0-0.8,0.4-1.4,1.8l-0.9,2.2l-0.5,1.3c-0.8,1.8-1.2,2.4-1.8,2.1c-0.4-0.1-0.5-0.5-0.7-0.8L172.8,41z"/>
		<path class="st4" d="M187.3,44.4c-0.5-0.1-0.9,0.3-2.2,2.1c-0.1,0.2-0.2,0.3-0.3,0.5l-1.1,1.5c-0.7,0.9-0.7,1.1-0.4,1.6
			c0.2,0.3,0.2,0.6,0,0.8c-0.6,0.8-2.5-0.5-3.2-1c-1.4-1-1.8-1.7-1.5-2.2c0.2-0.2,0.3-0.3,0.7-0.2c0.5,0,0.7-0.1,1.6-1.3l1.1-1.4
			l0.2-0.3c1.3-1.7,1.4-2.1,1.2-2.8c-0.2-0.4-0.2-0.6,0-0.8c0.5-0.7,2.7,0.7,3.2,1.1c1.3,1,1.9,1.8,1.5,2.3
			c-0.1,0.2-0.3,0.3-0.6,0.2L187.3,44.4z"/>
		<path class="st4" d="M195.5,50.6c0.5,0.6-0.1,2.2-0.6,2.7c-0.4,0.4-1,0.4-1.3,0c-0.6-0.7,0.1-2.3-0.8-3.3
			c-0.4-0.4-0.8-0.5-1.2-0.2c-1.1,1,2.7,4.2,0.1,6.5c-1.5,1.4-3.9,1-5.7-1c-1-1.1-1.9-2.7-1.8-3.3c0-0.6,0.6-1.6,1.3-2.2
			c0.4-0.4,0.7-0.4,1-0.1c0.4,0.5,0,1.3-0.1,1.8c-0.2,0.6,0.1,1.6,0.7,2.2c0.5,0.5,1,0.7,1.3,0.4c0.7-0.7-0.9-2.4-0.9-4.2
			c0-1,0.3-1.9,0.9-2.4c1.4-1.3,3.7-1,5.3,0.8c0.7,0.7,0.9,1.6,1.2,1.9c0,0,0.1,0.1,0.1,0.1C195.2,50.4,195.4,50.5,195.5,50.6"/>
		<path class="st4" d="M117.3,84.6c-0.2-0.4-0.8-0.5-3-0.3c-0.2,0-0.4,0-0.6,0l-1.9,0.1c-1.1,0.1-1.3,0.2-1.6,0.6
			c-0.2,0.3-0.3,0.4-0.6,0.5c-1.1,0.1-1.2-2.1-1.2-2.8c-0.1-1.5,0.2-2.2,0.8-2.3c0.3,0,0.4,0.1,0.7,0.4c0.3,0.4,0.6,0.4,2,0.4
			l1.8-0.1l0.4,0c2.1-0.1,2.6-0.2,2.9-0.8c0.2-0.4,0.4-0.5,0.6-0.5c0.9,0,1.1,2.3,1.2,2.9c0.1,1.5-0.2,2.3-0.8,2.3
			c-0.2,0-0.4-0.1-0.5-0.3L117.3,84.6z"/>
		<path class="st4" d="M114.2,91.7c0.2-0.3,0.3-0.6,0.2-0.8c-0.1-0.3-0.5-0.3-1.3-0.1c-1.3,0.4-1.6,0.5-1.7,1
			c-0.1,0.4-0.2,0.5-0.5,0.6c-0.6,0.2-1.1-0.4-1.5-1.7c-0.3-1.1-0.1-1.8,0.5-2c0.4-0.1,0.6,0.1,0.8,0.3c0.3,0.3,1.1,0.2,3.4-0.4
			c1.3-0.4,2.4-0.8,2.8-1.1c0.5-0.3,0.2-1.1,0.8-1.2c0.7-0.2,1.1,0.3,1.6,2c0.2,0.8,0.2,0.9-0.1,1.5l-2.2,4
			c-0.2,0.4-0.3,0.6-0.3,0.8c0.1,0.2,0.4,0.3,0.9,0.1c1.2-0.3,1.4-0.5,1.6-1c0.1-0.4,0.2-0.6,0.5-0.6c0.7-0.2,1,0.2,1.4,1.5
			c0.4,1.5,0.3,2-0.3,2.2c-0.3,0.1-0.6,0-0.8-0.3c-0.3-0.4-0.8-0.4-2.3,0l-2.3,0.6l-1.4,0.4c-1.9,0.5-2.6,0.5-2.8-0.1
			c-0.1-0.3,0.1-0.6,0.3-0.9L114.2,91.7z"/>
		<path class="st4" d="M124.9,102.4c0.2,0.3,0.3,0.5,0.7,0.8c0.1,0.1,0.2,0.2,0.2,0.3c0.5,0.8-0.8,2.3-1.6,2.7
			c-0.6,0.4-1.2,0.2-1.5-0.3c-0.2-0.4-0.2-0.8,0.2-1.4c0.4-0.6,0.4-0.7,0.3-0.9c-0.2-0.3-0.5-0.3-1.1,0.1l-3.5,2.1
			c-0.7,0.4-0.9,0.7-0.9,1.2c0.1,0.5,0,0.7-0.3,0.9c-0.6,0.3-1.3-0.2-2.2-1.7c-1.1-1.8-1.3-2.8-0.6-3.2c0.4-0.2,0.7,0.1,0.9,0.3
			c0.3,0.3,0.6,0.2,1.7-0.4l1.6-0.8c0.4-0.2,0.8-0.5,1.3-0.7c1.1-0.6,1.3-0.8,1.1-1.1c-0.3-0.5-1.9,0.1-2.4-0.8
			c-0.2-0.4-0.1-0.9,0.5-1.2c0.8-0.5,2.8-0.7,3.2,0c0.2,0.4,0.2,0.6,0.6,1.3L124.9,102.4z"/>
		<path class="st4" d="M129.9,108.5c1,1,1.3,1.3,1.9,1.6c0.1,0,0.1,0.1,0.2,0.1c0.4,0.4,0,1.4-0.7,2.2c-0.5,0.4-0.9,0.5-1.2,0.2
			c-0.6-0.7,0.9-1-1-2.9c-0.6-0.6-0.9-0.7-1.4-0.2l-0.9,0.8c-0.4,0.4-0.4,0.5,0.1,1.1c0.7,0.7,1.3-0.9,1.9-0.3c0.4,0.4,0,1.1-1,2.1
			c-1,1-1.9,1.4-2.3,1c-0.5-0.5,1-1.1,0.2-2c-0.3-0.3-0.5-0.2-1.1,0.3c-1.3,1.3-1.4,1.4-0.5,2.3c1,1,1.6,1.2,2.6,0.8
			c0.6-0.2,0.8-0.2,1,0c0.3,0.3,0.1,0.7-0.3,1.1c-0.4,0.4-2.3,1.4-2.8,1c-0.3-0.3-0.6-0.8-0.9-1.2l-3.9-4c-0.3-0.3-0.3-0.7,0-0.9
			c0.5-0.4,0.7,0.3,1.5-0.2c0.6-0.4,1.4-1,2.3-1.9c1.3-1.3,2.1-2.2,2.3-2.7c0.1-0.2,0-0.4-0.1-0.6c-0.1-0.2-0.1-0.5,0.1-0.6
			c0.4-0.4,0.7-0.3,1.5,0.5L129.9,108.5z"/>
		<path class="st4" d="M131.5,115.9l0.4-0.7c0.8-1.3,0.9-1.6,0.7-2c-0.2-0.4-0.2-0.5-0.1-0.8c0.3-0.5,0.9-0.5,1.7,0
			c0.4,0.3,0.8,0.6,1.3,0.9c0.7,0.4,1.5,0.8,2.2,1.2c1.6,1,2.1,2.5,1.3,3.9c-0.9,1.5-2.2,1-2.3,1.3c-0.1,0.1-0.1,0.2,0.1,0.5
			c0.7,1,0.4,1.9-0.1,2.9c-0.3,0.5-0.3,0.7,0,1c0.2,0.2,0.3,0.4,0.1,0.7c-0.4,0.6-1.3,0.5-2.3-0.1c-0.8-0.5-1.2-1-1.2-1.6
			c-0.1-1.5,1.4-3.5,0.3-4.1c-0.3-0.2-0.4-0.1-0.8,0.6c-0.7,1.1-0.8,1.4-0.6,1.8c0.1,0.3,0.1,0.5,0,0.7c-0.3,0.6-1,0.4-2.5-0.5
			c-1.4-0.9-1.9-1.6-1.5-2.1c0.4-0.7,0.8,0.5,2.2-1.7L131.5,115.9z"/>
		<path class="st4" d="M145.3,124.1c-0.2-0.3-0.4-0.5-0.6-0.6c-0.3-0.1-0.5,0.3-0.7,1.1c-0.3,1.3-0.3,1.7,0,2
			c0.3,0.3,0.3,0.4,0.3,0.7c-0.2,0.6-0.9,0.8-2.2,0.5c-1.1-0.3-1.7-0.8-1.5-1.4c0.1-0.4,0.4-0.5,0.7-0.6c0.4-0.2,0.7-0.8,1.3-3.2
			c0.3-1.3,0.5-2.5,0.5-3c0-0.5-0.8-0.7-0.7-1.3c0.2-0.7,0.8-0.8,2.5-0.4c0.8,0.2,0.9,0.3,1.2,0.8l2.4,3.9c0.2,0.4,0.4,0.6,0.5,0.6
			c0.2,0.1,0.4-0.2,0.6-0.7c0.3-1.2,0.3-1.5-0.1-1.8c-0.3-0.3-0.4-0.5-0.3-0.8c0.2-0.7,0.7-0.8,2-0.4c1.5,0.4,1.9,0.7,1.7,1.4
			c-0.1,0.3-0.3,0.5-0.7,0.6c-0.5,0.1-0.7,0.5-1.1,2l-0.6,2.3l-0.3,1.4c-0.5,1.9-0.9,2.5-1.4,2.4c-0.3-0.1-0.5-0.4-0.7-0.7
			L145.3,124.1z"/>
		<path class="st4" d="M162.5,127.9c0.2,0.5,0.3,0.7,0.7,0.7c0.3,0,0.5,0.2,0.5,0.5c0,0.7-0.7,1-2.5,1c-0.9,0-1.8,0-2.2-0.1
			c-0.4-0.1-0.7-0.4-0.7-0.7c0-0.3,0.1-0.4,0.5-0.6c0.2-0.1,0.3-0.2,0.3-0.4c0-0.4-0.2-0.6-0.7-0.6c-0.4,0-0.9-0.1-1.3-0.1
			c-1.2,0-1.4,0.1-1.4,0.8c0,0.4,0.8,0.2,0.8,0.9c0,0.6-0.6,0.9-1.9,0.9c-1.5,0-2-0.2-2-0.8c0-0.3,0.1-0.4,0.5-0.6
			c0.6-0.2,0.7-0.4,1.3-1.8l0.9-2.3c0.7-1.7,0.8-2.3,0.8-3.1c0-1.3,0.5-1.9,1.4-1.9c0.7,0,1.3,0.4,1.8,1.1c0.5,0.8,1.2,2.1,2,4
			L162.5,127.9z"/>
		<path class="st4" d="M169.8,118.2c0.4-0.1,0.5-0.2,0.9-0.4c0.1-0.1,0.2-0.1,0.3-0.2c0.9-0.3,2,1.4,2.2,2.2
			c0.2,0.7-0.1,1.2-0.6,1.3c-0.4,0.1-0.8-0.1-1.3-0.6c-0.4-0.5-0.6-0.6-0.8-0.5c-0.3,0.1-0.4,0.4-0.2,1.1l1.1,3.9
			c0.2,0.8,0.4,1.1,0.9,1.2c0.5,0.1,0.7,0.2,0.8,0.5c0.2,0.7-0.5,1.2-2.2,1.7c-2,0.6-3.1,0.5-3.3-0.2c-0.1-0.4,0.2-0.6,0.5-0.8
			c0.3-0.2,0.3-0.6,0.1-1.7l-0.4-1.7c-0.1-0.4-0.2-0.9-0.4-1.5c-0.3-1.2-0.5-1.4-0.8-1.4c-0.5,0.1-0.4,1.8-1.3,2.1
			c-0.5,0.1-0.9-0.2-1.1-0.8c-0.2-0.9,0-2.9,0.9-3.1c0.4-0.1,0.6,0,1.4-0.2L169.8,118.2z"/>
		<path class="st4" d="M177.7,116.3c-0.3,0.4-0.1,0.9,0.9,2.9c0.1,0.2,0.2,0.3,0.3,0.5l0.9,1.7c0.5,1,0.7,1.1,1.2,1.2
			c0.3,0,0.5,0.1,0.7,0.4c0.5,0.9-1.4,1.9-2,2.2c-1.4,0.7-2.1,0.7-2.4,0.2c-0.1-0.3-0.1-0.4,0.1-0.7c0.2-0.4,0.2-0.7-0.4-2L176,121
			l-0.2-0.4c-1-1.9-1.2-2.2-1.9-2.3c-0.4-0.1-0.6-0.1-0.7-0.4c-0.4-0.8,1.6-1.9,2.1-2.2c1.3-0.7,2.2-0.7,2.5-0.2
			c0.1,0.2,0.1,0.4,0,0.6L177.7,116.3z"/>
		<path class="st4" d="M184.9,110.3c1.5,0.1,3.2,0.9,4.2,2.2c1.8,2.2,1.4,5.3-0.9,7.1c-2.1,1.7-5.1,1.2-7-1.1
			c-1.8-2.2-1.6-5.3,0.5-7C182.8,110.6,183.8,110.3,184.9,110.3"/>
		<path class="st4" d="M193.3,108.1c-0.4,0.1-0.6,0.2-0.7,0.3c-0.2,0.2,0.1,0.6,0.8,1c1.1,0.8,1.4,0.9,1.9,0.7
			c0.3-0.2,0.5-0.1,0.8,0c0.5,0.4,0.4,1.1-0.3,2.2c-0.7,0.9-1.4,1.3-1.9,0.9c-0.3-0.2-0.3-0.5-0.3-0.8c0-0.5-0.5-1-2.5-2.4
			c-1.1-0.8-2.1-1.4-2.6-1.5c-0.5-0.2-1,0.5-1.5,0.1c-0.6-0.4-0.5-1.1,0.5-2.4c0.5-0.6,0.6-0.7,1.2-0.9l4.5-0.8
			c0.4-0.1,0.7-0.2,0.7-0.3c0.1-0.2,0-0.4-0.5-0.8c-1-0.7-1.3-0.8-1.7-0.6c-0.3,0.2-0.6,0.2-0.8,0c-0.6-0.4-0.5-0.9,0.3-2
			c0.9-1.2,1.3-1.5,1.9-1.1c0.3,0.2,0.4,0.5,0.3,0.8c-0.1,0.5,0.2,0.9,1.5,1.8l1.9,1.4l1.1,0.8c1.6,1.2,2,1.7,1.7,2.2
			c-0.2,0.3-0.6,0.3-0.9,0.4L193.3,108.1z"/>
		<path class="st4" d="M203.4,92.5c0.6,0,0.7-0.1,0.9-0.4c0.1-0.3,0.4-0.4,0.6-0.3c0.7,0.2,0.7,1,0.1,2.7c-0.3,0.8-0.6,1.7-0.9,2.1
			c-0.2,0.4-0.6,0.6-0.9,0.4c-0.3-0.1-0.4-0.2-0.4-0.7c0-0.2-0.1-0.4-0.3-0.4c-0.4-0.1-0.6,0-0.8,0.5c-0.2,0.4-0.4,0.8-0.5,1.2
			c-0.4,1.2-0.4,1.4,0.3,1.6c0.4,0.1,0.5-0.7,1.1-0.5c0.6,0.2,0.6,0.9,0.2,2.1c-0.5,1.4-0.9,1.8-1.4,1.6c-0.3-0.1-0.4-0.3-0.4-0.6
			c0-0.6-0.2-0.8-1.2-1.8l-1.8-1.6c-1.3-1.2-1.9-1.6-2.6-1.8c-1.2-0.4-1.6-1.1-1.3-2c0.2-0.7,0.8-1.1,1.7-1.3
			c0.9-0.2,2.4-0.4,4.4-0.5L203.4,92.5z"/>
		<path class="st4" d="M203,84.8c1.6,0.1,1.9,0,1.9-0.9c0.1-1-0.3-1.6-1.4-1.9c-0.3-0.1-0.4-0.2-0.4-0.5c0-0.4,0.6-0.7,1.3-0.7
			c0.7,0.1,2.5,0.7,2.4,1.5c0,0.5-0.2,0.9-0.3,1.4l-0.4,4.6c-0.1,0.6-0.3,0.9-0.7,0.9c-0.7-0.1-0.2-1.1-1.8-1.2l-0.7-0.1
			c-1.3-0.1-2.7-0.2-4-0.3c-0.8-0.1-1,0-1.2,0.3c-0.3,0.6-0.4,0.7-0.8,0.7c-0.7-0.1-1-1-0.8-2.7c0.2-2,0.5-2.7,1.2-2.6
			c0.4,0,0.5,0.4,0.6,0.7c0.1,0.4,0.4,0.4,1.7,0.5L203,84.8z"/>
		<path class="st5" d="M141.9,25.7c1.3-1.6,4.1-4.4,8-5.3c2.4-0.5,5.1-0.8,5.8,0.1c0.4,0.5-0.1,1.3-1.2,1.9
			c-1.1,0.6-5.5,4.1-11.4,4.5C141.6,27.1,141.3,26.6,141.9,25.7"/>
		<path class="st5" d="M129.1,31.1c0.9-1.9,2.9-5.2,6.5-7c2.2-1.1,4.8-1.9,5.7-1.3c0.5,0.4,0.2,1.3-0.7,2.2c-0.9,0.9-4.4,5.3-10,7.1
			C129.1,32.5,128.8,32,129.1,31.1"/>
		<path class="st5" d="M118,39.3c0.4-2,1.6-5.8,4.6-8.3c1.8-1.6,4.2-3,5.2-2.6c0.6,0.3,0.5,1.2-0.1,2.3c-0.7,1.1-3,6.2-8,9.3
			C118.3,40.7,117.9,40.3,118,39.3"/>
		<path class="st5" d="M109.1,50c-0.1-2.1,0.1-6,2.5-9.2c1.4-2,3.3-4,4.4-3.8c0.7,0.1,0.8,1,0.4,2.2c-0.4,1.2-1.4,6.7-5.5,10.9
			C109.8,51.2,109.3,51,109.1,50"/>
		<path class="st5" d="M103.1,62.5c-0.6-2-1.3-5.8,0.2-9.5c0.9-2.3,2.3-4.6,3.4-4.7c0.7-0.1,1,0.8,0.9,2.1
			c-0.1,1.2,0.2,6.9-2.8,11.9C104.1,63.5,103.5,63.4,103.1,62.5"/>
		<path class="st5" d="M100.2,76c-1.1-1.8-2.7-5.4-2.1-9.3c0.3-2.4,1.1-5,2.2-5.4c0.7-0.2,1.2,0.6,1.4,1.8c0.2,1.2,1.9,6.6,0.2,12.2
			C101.4,76.8,100.9,76.8,100.2,76"/>
		<path class="st5" d="M100.7,89.9c-1.4-1.5-3.9-4.6-4.3-8.5c-0.3-2.4-0.1-5.2,0.8-5.7c0.6-0.4,1.3,0.3,1.8,1.4
			c0.5,1.1,3.4,6,3.1,11.8C102.1,90.4,101.5,90.5,100.7,89.9"/>
		<path class="st5" d="M104.5,103.2c-1.8-1.1-4.9-3.5-6.2-7.3c-0.8-2.3-1.4-5-0.6-5.8c0.5-0.5,1.3,0,2.1,0.9c0.8,1,4.7,5,5.9,10.8
			C105.9,103.4,105.4,103.7,104.5,103.2"/>
		<path class="st5" d="M111.3,115.3c-2-0.6-5.6-2.3-7.7-5.6c-1.3-2-2.5-4.5-2-5.4c0.4-0.6,1.2-0.4,2.2,0.4c1,0.8,5.8,3.7,8.3,9
			C112.8,115.1,112.3,115.4,111.3,115.3"/>
		<path class="st5" d="M120.9,125.3c-2.1-0.1-5.9-0.9-8.9-3.5c-1.8-1.6-3.5-3.8-3.2-4.8c0.2-0.7,1.1-0.6,2.3-0.1
			c1.1,0.5,6.5,2.2,10.2,6.8C122.2,124.8,121.9,125.3,120.9,125.3"/>
		<path class="st5" d="M132.6,132.8c-2,0.4-6,0.6-9.4-1.3c-2.1-1.2-4.3-2.8-4.3-3.9c0-0.7,0.9-0.9,2.2-0.7c1.2,0.2,6.9,0.6,11.5,4.2
			C133.7,132,133.5,132.5,132.6,132.8"/>
		<path class="st5" d="M145.7,137.3c-1.9,0.8-5.7,2-9.5,1c-2.3-0.6-4.9-1.7-5.1-2.8c-0.1-0.7,0.7-1.1,1.9-1.2
			c1.2-0.1,6.8-1.1,12.2,1.3C146.6,136.2,146.6,136.8,145.7,137.3"/>
		<path class="st5" d="M159.5,138.5c-1.6,1.3-5,3.3-9,3.2c-2.4,0-5.1-0.5-5.6-1.5c-0.3-0.6,0.4-1.2,1.6-1.6
			c1.2-0.4,6.4-2.6,12.1-1.7C160.1,137.2,160.2,137.8,159.5,138.5"/>
		<path class="st5" d="M173.2,136.3c-1.3,1.6-4.1,4.4-8,5.3c-2.4,0.5-5.1,0.8-5.8-0.1c-0.4-0.5,0.1-1.3,1.2-1.9
			c1.1-0.6,5.5-4.1,11.4-4.5C173.5,134.9,173.7,135.5,173.2,136.3"/>
		<path class="st5" d="M186,131c-0.9,1.9-2.9,5.2-6.5,7c-2.2,1.1-4.8,2-5.7,1.3c-0.5-0.4-0.2-1.3,0.7-2.2c0.9-0.9,4.4-5.3,10-7.1
			C186,129.5,186.3,130,186,131"/>
		<path class="st5" d="M197.1,122.7c-0.4,2-1.6,5.8-4.6,8.4c-1.8,1.6-4.2,3.1-5.2,2.6c-0.6-0.3-0.5-1.2,0.1-2.3c0.6-1.1,3-6.2,8-9.3
			C196.8,121.3,197.2,121.7,197.1,122.7"/>
		<path class="st5" d="M205.9,112c0.1,2.1-0.1,6-2.5,9.2c-1.4,2-3.3,4-4.4,3.8c-0.7-0.1-0.8-1-0.4-2.2c0.4-1.2,1.4-6.7,5.5-10.9
			C205.3,110.8,205.8,111,205.9,112"/>
		<path class="st5" d="M212,99.5c0.6,2,1.3,5.8-0.2,9.5c-0.9,2.3-2.3,4.6-3.4,4.7c-0.7,0-1-0.8-0.9-2.1c0.1-1.2-0.2-6.9,2.7-11.9
			C211,98.5,211.6,98.6,212,99.5"/>
		<path class="st5" d="M214.8,86c1,1.8,2.7,5.4,2.1,9.3c-0.3,2.4-1.1,5-2.2,5.4c-0.7,0.2-1.2-0.6-1.4-1.8c-0.2-1.2-1.9-6.6-0.2-12.2
			C213.6,85.2,214.2,85.2,214.8,86"/>
		<path class="st5" d="M214.3,72.1c1.4,1.5,3.9,4.6,4.3,8.5c0.3,2.4,0.1,5.2-0.8,5.7c-0.6,0.4-1.3-0.3-1.8-1.4
			c-0.5-1.1-3.4-6-3.1-11.8C213,71.6,213.5,71.5,214.3,72.1"/>
		<path class="st5" d="M210.5,58.8c1.8,1.1,4.9,3.5,6.2,7.3c0.8,2.3,1.4,5,0.6,5.8c-0.5,0.5-1.3,0.1-2.1-0.9c-0.8-1-4.7-5-5.9-10.8
			C209.1,58.6,209.6,58.3,210.5,58.8"/>
		<path class="st5" d="M203.7,46.7c2,0.6,5.6,2.3,7.8,5.6c1.3,2,2.5,4.5,2,5.5c-0.3,0.6-1.2,0.4-2.2-0.4c-1-0.8-5.8-3.7-8.3-9
			C202.2,46.9,202.7,46.5,203.7,46.7"/>
		<path class="st5" d="M194.1,36.7c2.1,0.1,5.9,0.9,8.9,3.5c1.8,1.6,3.5,3.8,3.2,4.8c-0.2,0.7-1.1,0.6-2.3,0.1
			c-1.1-0.5-6.5-2.2-10.2-6.8C192.8,37.2,193.1,36.7,194.1,36.7"/>
		<path class="st5" d="M182.4,29.2c2-0.4,6-0.6,9.4,1.3c2.1,1.2,4.3,2.8,4.3,3.9c0,0.7-0.9,0.9-2.2,0.7c-1.2-0.2-6.9-0.6-11.5-4.1
			C181.3,30.1,181.5,29.5,182.4,29.2"/>
		<path class="st5" d="M169.3,24.8c1.9-0.8,5.7-2,9.5-1c2.3,0.6,4.9,1.7,5.1,2.8c0.1,0.7-0.7,1.1-1.9,1.2c-1.3,0.1-6.8,1.1-12.2-1.3
			C168.4,25.9,168.4,25.3,169.3,24.8"/>
		<path class="st5" d="M155.5,23.6c1.6-1.3,5-3.3,9-3.2c2.4,0,5.1,0.5,5.6,1.5c0.3,0.6-0.4,1.2-1.6,1.6c-1.2,0.4-6.4,2.7-12.1,1.7
			C154.9,24.9,154.8,24.3,155.5,23.6"/>
		<path class="st0" d="M159.7,38.5c0.3,0,0.4,0,0.4-0.1c0-0.4-0.7-2-1-2c-0.2,0-0.3,0.1-0.5,0.5c-0.2,0.3-0.6,1-0.6,1.3
			c0,0.1,0.1,0.2,0.3,0.2L159.7,38.5z"/>
		<path class="st0" d="M134.4,117c-0.2,0.3-0.2,0.4,0.1,0.6c0.6,0.4,1.2,0.2,1.7-0.6c0.5-0.8,0.5-1.4,0-1.7
			c-0.3-0.2-0.5-0.1-0.7,0.3L134.4,117z"/>
		<path class="st0" d="M158,126c0.3,0,0.3,0,0.3-0.2c0-0.4-0.8-1.9-1.1-1.9c-0.2,0-0.3,0.1-0.4,0.5c-0.1,0.3-0.5,1.1-0.5,1.4
			c0,0.2,0.1,0.2,0.3,0.2L158,126z"/>
		<path class="st0" d="M182.9,115.3c0.7,0.9,3.5,3.1,4.6,2.2c0.5-0.4,0.5-1.2-0.1-1.9c-0.8-1-3.4-3.2-4.6-2.2
			C182.2,113.8,182.3,114.6,182.9,115.3"/>
		<path class="st0" d="M199.9,96.1c0.1-0.2,0.1-0.3,0-0.4c-0.4-0.1-2.1,0.1-2.2,0.4c-0.1,0.2,0,0.3,0.3,0.5c0.2,0.2,0.8,0.8,1.2,0.9
			c0.1,0,0.2,0,0.3-0.2L199.9,96.1z"/>
		<path class="st0" d="M130.3,102.7c-4.8-5.9-7.6-13.5-7.6-21.7c0-8.8,3.3-16.8,8.7-22.9c1.3-1.2,3-1,3,1.5v41.8
			C134.3,103.2,133.8,105.4,130.3,102.7"/>
		<g>
			<path class="st5" d="M132.9,104.3c-0.7,0-1.6-0.4-2.8-1.4c-5.1-6.3-7.7-13.8-7.7-21.9c0-8.5,3.1-16.7,8.7-23.1
				c0.6-0.5,1.2-0.8,1.7-0.8c0.4,0,1.7,0.2,1.7,2.5v41.8C134.6,103.8,133.7,104.3,132.9,104.3z M132.9,57.7c-0.4,0-0.9,0.2-1.4,0.6
				c-5.5,6.3-8.6,14.3-8.6,22.7c0,7.9,2.6,15.3,7.6,21.5c1,0.8,1.8,1.2,2.4,1.2c0.7,0,1.1-0.8,1.1-2.3V59.6
				C134,58.4,133.6,57.7,132.9,57.7z"/>
		</g>
	</g>
</g>
</svg>
