<?xml version="1.0" encoding="utf-8"?>
<!-- Generator: Adobe Illustrator 27.2.0, SVG Export Plug-In . SVG Version: 6.00 Build 0)  -->
<svg version="1.1" xmlns="http://www.w3.org/2000/svg" xmlns:xlink="http://www.w3.org/1999/xlink" x="0px" y="0px"
	 viewBox="0 0 160.8 216.8" style="enable-background:new 0 0 160.8 216.8;" xml:space="preserve">
<style type="text/css">
	.st0{fill:#FFFFFF;}
	.st1{fill:#15264B;}
	.st2{opacity:0.35;}
	.st3{fill:#274B8B;}
	.st4{fill:#0F3747;}
	.st5{opacity:0.5;}
	.st6{opacity:0.4;}
	.st7{fill:#183E75;}
	.st8{opacity:0.2;}
	.st9{fill:#38276B;}
	.st10{fill:#44AC34;}
	.st11{fill:#00983A;}
	.st12{fill:#FCF8FB;}
	.st13{opacity:0.7;}
	.st14{fill:#94613F;}
	.st15{fill:#FFD100;}
	.st16{fill:#EA5B0C;}
	.st17{fill:#D3D5ED;}
	.st18{fill:#D8D8D8;}
	.st19{fill:#121A28;}
	.st20{fill:#E5E1D4;}
	.st21{opacity:0.25;}
	.st22{opacity:0.6;}
	.st23{fill:#FFD346;}
	.st24{fill:#FFDA36;}
	.st25{fill:#1E1E1C;}
	.st26{fill:#EEEDED;}
	.st27{opacity:0.3;}
	.st28{fill:#407FC1;}
	.st29{fill:#B0B3B1;}
	.st30{opacity:0.8;}
	.st31{fill:#E5E5E4;}
	.st32{fill:#BCBCBB;}
	.st33{fill:#E72D47;}
	.st34{fill:#F7A710;}
	.st35{fill:#F2EFEC;}
	.st36{fill:#F9B116;}
	.st37{fill:#F38F1C;}
	.st38{fill:none;stroke:#2A3856;stroke-width:2.1963;stroke-linecap:round;stroke-miterlimit:10;}
	.st39{fill:#D66C12;}
	.st40{fill:#FFD767;}
	.st41{fill:#F7A83D;}
	.st42{fill:#FECF70;}
	.st43{fill:#FFED91;}
	.st44{opacity:0.41;}
	.st45{opacity:0.26;}
	.st46{fill:none;}
	.st47{fill:#261E26;}
	.st48{fill:#E30613;}
	.st49{fill:#E9E8E8;}
	.st50{fill:#4A92CF;}
	.st51{fill:#386EB5;}
	.st52{fill:#B6B6B7;}
	.st53{fill:#DDDDDD;}
	.st54{fill:#FDC423;}
	.st55{fill:#E2A415;}
	.st56{fill:#F9B044;}
	.st57{fill:#EB5759;}
	.st58{fill:#E5201F;}
	.st59{fill:none;stroke:#FFFFFF;stroke-width:2.3076;stroke-linecap:round;stroke-miterlimit:10;}
	.st60{fill:#EDC5D6;}
	.st61{fill:#4A153F;}
	.st62{fill:#E9C8D2;}
	.st63{fill:#DFB0BE;}
	.st64{fill:#D6D6EA;}
	.st65{fill:#BDBDE0;}
	.st66{fill:#232323;}
	.st67{fill:#A7ABCC;}
	.st68{fill:#EDCCA9;}
	.st69{fill:#492311;}
	.st70{fill:#2A3856;}
	.st71{fill:#05646E;}
	.st72{fill:#F28D70;}
	.st73{fill:#BEC5CA;}
	.st74{fill:#54767A;}
</style>
<g id="Fondo">
</g>
<g id="Grafica">
</g>
<g id="Informazioni">
	<g>
		<g>
			<g>
				<g>
					<path class="st0" d="M109.9,151.2c-2.5-0.8-5-2.2-7.4-4.2c-7.5-6.5-9.1-37.2-9.1-37.2l0,0l13.8-18.5c0,0,1,1.5,2.7,3.9
						c1.7,2.5,4,6,6.6,9.9c5.8,9.1,12.6,20.7,14.5,27.9C134.5,145.9,122.1,155.1,109.9,151.2z"/>
				</g>
			</g>
			<g class="st21">
				<g>
					<path class="st3" d="M131.6,138.3c-0.7,10-11.2,16.3-21.6,12.9c-2.5-0.8-5-2.2-7.4-4.2c-7.5-6.5-9.1-37.2-9.1-37.2l0,0l2.9-3.9
						c0.7,8.2,2.9,28.6,8.9,33.7c2.4,2,12.6,4.8,15.3,5.1C127,145.2,127.7,143.6,131.6,138.3z"/>
				</g>
			</g>
			<g>
				<g>
					<path class="st1" d="M115.6,153.3c-4.5,0-9.5-1.6-14-5.4c-7.8-6.7-9.5-36.8-9.6-38.1c0-0.7,0.5-1.3,1.2-1.3
						c0.7,0,1.3,0.5,1.3,1.2c0.4,8.4,2.9,31.3,8.7,36.3c7.7,6.6,16,5.5,20.7,2.5c5.2-3.3,7.3-9.1,5.7-15.2
						c-3.5-12.9-23.4-41-23.6-41.3c-0.4-0.6-0.3-1.4,0.3-1.8c0.6-0.4,1.4-0.3,1.8,0.3c0.8,1.2,20.4,28.7,24,42.1
						c1.9,7.3-0.7,14.2-6.8,18C122.8,152.3,119.3,153.3,115.6,153.3z"/>
				</g>
			</g>
			<g>
				<g>
					<path class="st1" d="M106.5,127.9c-0.5,0-0.9-0.3-1.2-0.7c-0.3-0.6,0-1.4,0.6-1.7c0.5-0.3,13.4-6.1,21.8-2.9
						c0.7,0.3,1,1,0.7,1.6c-0.3,0.7-1,1-1.6,0.7c-7.4-2.9-19.7,2.7-19.8,2.8C106.9,127.8,106.7,127.9,106.5,127.9z"/>
				</g>
			</g>
			<g>
				<g>
					<g>
						<circle class="st0" cx="114.6" cy="132.2" r="5.6"/>
					</g>
				</g>
				<g class="st2">
					<g>
						<path class="st1" d="M120.1,132.3c-0.1,3.1-2.6,5.5-5.7,5.4c-3.1-0.1-5.5-2.6-5.4-5.7c0-0.8,0.2-1.6,0.6-2.4
							c0.8,1.9,2.7,3.2,4.9,3.3c2.2,0.1,4.2-1.2,5.1-3.1C120,130.6,120.2,131.5,120.1,132.3z"/>
					</g>
				</g>
				<g>
					<g>
						<path class="st1" d="M114.6,139c-0.1,0-0.1,0-0.2,0c-1.8,0-3.5-0.8-4.8-2.1c-1.3-1.3-1.9-3.1-1.9-4.9c0.1-3.8,3.2-6.7,7-6.7
							c1.8,0,3.5,0.8,4.8,2.1c1.3,1.3,1.9,3.1,1.9,4.9c0,1.8-0.8,3.5-2.1,4.8C118,138.3,116.4,139,114.6,139z M114.6,127.9
							c-2.3,0-4.2,1.9-4.3,4.2c-0.1,2.4,1.8,4.3,4.2,4.4c0,0,0.1,0,0.1,0c2.3,0,4.2-1.9,4.3-4.2c0.1-2.4-1.8-4.3-4.2-4.4
							C114.7,127.9,114.6,127.9,114.6,127.9z"/>
					</g>
				</g>
			</g>
			<g>
				<g>
					<path class="st0" d="M123,141.8l-2.5,2.8l-5,5.5c-2.7,0-4.3-3.2-5.1-7.2c-1.1-5.7-0.8-12.9-0.5-14.8c0.4-2.4,4.1-5.5,8.1-3.2
						C123.9,128.4,123,141.8,123,141.8z"/>
				</g>
			</g>
			<g class="st21">
				<g>
					<path class="st3" d="M120.5,144.6l-5,5.5c-2.7,0-4.3-3.2-5.1-7.2C112.2,144.2,115.5,145.6,120.5,144.6z"/>
				</g>
			</g>
			<g>
				<g>
					<path class="st1" d="M122.7,141.8c-0.3-2.2-0.7-4.4-1.1-6.5c-0.4-2.1-0.9-4.2-1.7-6c-0.4-0.9-0.9-1.7-1.5-2.4
						c-0.2-0.2-0.3-0.3-0.5-0.5c-0.1-0.1-0.2-0.1-0.2-0.2l-0.3-0.2c-0.2-0.1-0.4-0.2-0.6-0.3c-0.1-0.1-0.2-0.1-0.3-0.1l-0.3-0.1
						c-0.8-0.3-1.6-0.3-2.4,0c-0.8,0.2-1.5,0.8-2.1,1.5c-0.2,0.3-0.4,0.7-0.5,1c0,0.1,0,0.2-0.1,0.2l0,0.4c0,0.2-0.1,0.5-0.1,0.8
						c-0.1,1.1-0.1,2.1-0.1,3.2c0,2.2,0.1,4.3,0.3,6.4c0.1,1.1,0.2,2.1,0.4,3.2c0.2,1,0.4,2.1,0.6,3.1c0.3,1,0.6,1.9,1.1,2.8
						c0.2,0.4,0.5,0.8,0.9,1.1c0.4,0.3,0.8,0.5,1.3,0.7l0,0c0.1,0,0.2,0.2,0.1,0.3c0,0.1-0.1,0.1-0.2,0.1c-0.1,0-0.3,0-0.4,0.1
						c-0.1,0-0.2,0-0.2,0l-0.2,0c-0.2,0-0.3,0-0.5-0.1l-0.5-0.1c-0.6-0.2-1.2-0.6-1.6-1c-0.9-0.9-1.5-2-2-3.1
						c-0.5-1.1-0.8-2.2-1-3.3c-0.3-1.1-0.4-2.2-0.5-3.4c-0.2-2.3-0.3-4.5-0.2-6.7c0-1.1,0.1-2.2,0.2-3.4c0-0.3,0.1-0.6,0.1-0.9
						c0-0.1,0-0.3,0.1-0.5c0-0.2,0.1-0.4,0.1-0.6c0.2-0.7,0.6-1.3,1-1.9c0.4-0.5,0.9-1,1.5-1.4c0.3-0.2,0.6-0.4,0.9-0.5
						c0.3-0.1,0.6-0.3,0.9-0.4c0.2-0.1,0.3-0.1,0.5-0.2l0.5-0.1c0.3-0.1,0.7-0.1,1-0.1c0.3,0,0.7,0,1,0.1c0.3,0.1,0.7,0.1,1,0.2
						l0.5,0.2c0.2,0.1,0.3,0.1,0.5,0.2c0.3,0.2,0.6,0.3,0.9,0.5l0.4,0.3c0.1,0.1,0.3,0.2,0.4,0.3c0.3,0.2,0.5,0.4,0.7,0.7
						c0.9,0.9,1.5,2.1,2,3.2c0.2,0.6,0.4,1.1,0.6,1.7c0.2,0.6,0.3,1.1,0.4,1.7c0.2,1.1,0.3,2.3,0.4,3.4c0.1,1.1,0,2.3-0.1,3.4
						c-0.1,1.1-0.3,2.2-0.6,3.3c0,0.1-0.1,0.2-0.3,0.2C122.8,142,122.8,141.9,122.7,141.8L122.7,141.8z"/>
				</g>
			</g>
			<g>
				<g>
					<g>
						<path class="st0" d="M72.4,93.5l-4.2,47.4l-1.7,19.6c0,0-21.7,0.7-27.8-7.8c-2.3-3.2-3.3-12.2-3.3-22
							c0.1-12,1.7-25.2,4.8-30.6C44.9,91.4,65,92.3,72.4,93.5z"/>
					</g>
				</g>
				<g class="st21">
					<g>
						<path class="st3" d="M68.2,140.9l-1.7,19.6c0,0-21.7,0.7-27.8-7.8c-2.3-3.2-3.3-12.2-3.3-22l13.5-2.1c0,0,4.7,0.2,4.6,15.1
							c0,4.2,6.3,5.9,11.1,2.7C66.2,145.2,67.4,143.2,68.2,140.9z"/>
					</g>
				</g>
				<g>
					<g>
						<path class="st1" d="M65.1,161.8c-5,0-21.9-0.6-27.5-8.4c-3-4.1-3.8-16.1-3.5-26c0.3-9.8,1.7-22.3,4.9-27.9
							c5.3-9.5,26.1-8.4,33.7-7.2c0.7,0.1,1.2,0.8,1.1,1.5c-0.1,0.7-0.8,1.2-1.5,1.1c-8.3-1.3-26.8-1.6-31,6
							c-2.4,4.3-4.2,14.8-4.5,26.8c-0.3,11.7,0.9,21.5,3,24.4c5.7,7.9,26.6,7.3,26.8,7.3c0.7,0,1.3,0.5,1.3,1.2
							c0,0.7-0.5,1.3-1.2,1.3C66.4,161.8,65.9,161.8,65.1,161.8z"/>
					</g>
				</g>
				<g>
					<g>
						<path class="st0" d="M36.6,128.6l11.4,1.2c1,0.1,1.8,0.9,2,1.9c0.6,3.7,1.4,12.3-2.2,15c-3,2.3-7.8,1.9-10.6-0.6
							c-3.1-2.8-3.2-11.2-3-15.3C34.2,129.5,35.3,128.5,36.6,128.6z"/>
					</g>
				</g>
				<g class="st21">
					<g>
						<path class="st3" d="M50,131.7c0.6,3.7,1.4,12.3-2.2,15c-3,2.3-7.8,1.9-10.6-0.6c-1.9-1.7-2.7-5.5-2.9-9.2
							c0.5,1.8,1.2,3.3,2.2,4.3c5.6,5.7,10.1-0.7,10.1-0.7s0.7,1.6,1.3,1.7c2.5,0.4,2.2-7.3,1.9-11.3
							C49.8,131.2,49.9,131.4,50,131.7z"/>
					</g>
				</g>
				<g>
					<g>
						<path class="st1" d="M42.9,149.5c-2.4,0-4.8-0.8-6.6-2.4c-3.2-2.9-3.6-10.5-3.4-16.3c0-1,0.5-1.9,1.2-2.5
							c0.7-0.6,1.7-0.9,2.7-0.8h0l11.4,1.2c1.6,0.2,2.9,1.4,3.1,3c0.7,4.8,1.3,13.2-2.7,16.2C46.9,148.9,44.9,149.5,42.9,149.5z
							 M36.4,129.9c-0.2,0-0.5,0.1-0.6,0.2c-0.2,0.2-0.3,0.4-0.3,0.7c-0.3,7.3,0.7,12.6,2.6,14.3c2.4,2.1,6.5,2.4,9,0.5
							c2.2-1.6,2.8-6.8,1.7-13.8c-0.1-0.4-0.4-0.8-0.9-0.8l-11.4-1.2h0C36.4,129.9,36.4,129.9,36.4,129.9z"/>
					</g>
				</g>
				<g>
					<g>
						<path class="st1" d="M46.2,133.8c0,1.4,0.1,2.8,0.1,4.1c0,1.4-0.1,2.8-0.3,4.2c-0.3,1.4-0.8,2.8-1.7,4.1
							c-0.5,0.6-1.1,1.2-1.7,1.6c-0.7,0.4-1.4,0.8-2.1,1l0,0c-0.5,0.2-1.1-0.1-1.3-0.7c-0.2-0.5,0.1-1.1,0.7-1.3c0,0,0.1,0,0.1,0
							c1.2-0.2,2.3-0.7,3.1-1.6c0.9-0.9,1.5-2,1.9-3.3c0.4-1.3,0.6-2.6,0.8-4C45.9,136.6,46,135.2,46.2,133.8z"/>
					</g>
				</g>
				<g>
					<g>
						<path class="st1" d="M46.6,98.7c1.6,0,3.1,0.1,4.7,0.2c1.6,0.1,3.1,0.2,4.7,0.3c1.6,0.1,3.1,0.3,4.7,0.6
							c1.6,0.3,3.1,0.5,4.7,1.1c0.7,0.2,1,0.9,0.8,1.6c-0.2,0.7-0.9,1-1.6,0.8c0,0-0.1,0-0.1,0l0,0c-1.3-0.6-2.8-0.9-4.3-1.3
							c-1.5-0.4-3-0.6-4.5-0.9c-1.5-0.3-3-0.5-4.6-0.7c-1.5-0.2-3.1-0.4-4.6-0.5l0,0c-0.3,0-0.5-0.3-0.5-0.6
							C46.1,98.9,46.4,98.7,46.6,98.7z"/>
					</g>
				</g>
			</g>
			<g>
				<g>
					<path class="st0" d="M125.9,92.3L125.9,92.3C125.9,92.2,125.9,92.3,125.9,92.3z"/>
				</g>
			</g>
			<g>
				<g>
					<path class="st0" d="M125.9,92.3L125.9,92.3C125.9,92.2,125.9,92.3,125.9,92.3z"/>
				</g>
			</g>
			<g>
				<g>
					<path class="st0" d="M125.9,92.2C125.9,92.2,125.9,92.3,125.9,92.2L125.9,92.2z"/>
				</g>
			</g>
			<g>
				<g>
					<path class="st0" d="M128.2,203.1c0.1,8.1-8.7,8.6-19.6,8.6c-7.7,0-13.5-1.3-16.4-3.8c-4.7-4.1-3.5-27.1-8.7-69l27-2.5
						c0,0,1.6,8.4,3.3,20.4c1.5,10.6,3.1,24.1,3.7,36.9c0,0,9.7,2.6,10.7,8.5C128.2,202.5,128.2,202.8,128.2,203.1z"/>
				</g>
			</g>
			<g class="st21">
				<g>
					<path class="st3" d="M128.2,203.1c0.1,8.1-8.7,8.6-19.6,8.6c-7.7,0-13.5-1.3-16.4-3.8c-4.7-4.1-3.5-27.1-8.7-69l27-2.5
						c0,0,1.6,8.4,3.3,20.4c-5.9,4.3-11.2,6.3-16.8,12.7c-6.6,7.7-5.2,33.9,7.7,35.6c10.2,1.3,19.3,1.1,23.4-2.9
						C128.2,202.5,128.2,202.8,128.2,203.1z"/>
				</g>
			</g>
			<g>
				<g>
					<path class="st1" d="M108.6,213c-8.2,0-14.1-1.4-17.2-4.1c-3.2-2.8-3.9-11.4-5.2-28.7c-0.8-10.9-1.8-24.4-3.9-41.2
						c-0.1-0.7,0.4-1.3,1.1-1.4c0.7-0.1,1.3,0.4,1.4,1.1c2.1,16.8,3.1,30.4,3.9,41.3c1.1,15,1.9,24.8,4.3,26.9
						c2.6,2.2,8.1,3.5,15.6,3.5c0,0,0,0,0,0c7.3,0,14-0.2,16.8-3.1c1-1,1.5-2.4,1.5-4.3c-0.1-4.5-7.1-7.4-9.8-8.1l-0.9-0.2l0-0.9
						c-1.3-26.9-6.9-56.8-6.9-57.1c-0.1-0.7,0.3-1.4,1-1.5c0.7-0.1,1.4,0.3,1.5,1c0.1,0.3,5.5,29.7,6.9,56.6
						c2.7,0.9,10.7,4.1,10.8,10.3c0,2.5-0.7,4.6-2.2,6.1C123.8,212.7,116.8,213,108.6,213C108.6,213,108.6,213,108.6,213z"/>
				</g>
			</g>
			<g class="st2">
				<g>
					<path class="st1" d="M82.9,141.5c-0.1-0.6-0.1-1.2-0.2-1.9C82.8,140.3,82.8,140.9,82.9,141.5z"/>
				</g>
			</g>
			<g class="st2">
				<g>
					<path class="st1" d="M78,141.2c-0.1-0.7-0.1-1.5-0.2-2.3C77.9,139.7,78,140.5,78,141.2z"/>
				</g>
			</g>
			<g>
				<g>
					<path class="st0" d="M114.9,139.4c-0.2,1.7-0.5,3.3-1.1,4.8c-1,2.9-2.6,5.5-4.6,7.7c-15.4,16.9-55.5,12.1-56.7-9.2
						c0-0.7,0-1.5,0-2.3c0.2-2.7,0.4-5.6,0.7-8.6c1.8-18.1,4.9-40.2,2.4-55.2c5.4,5.4,41.8,7.8,42,4.4c0.2-3.4-28.9-17.7-16.2-15.7
						c9.3,2,23,3.7,25.6,11.3c0.2,1.7,0.9,3.8,1.5,5.4l2.4,23.7C112.5,117.1,116.1,129.8,114.9,139.4z"/>
				</g>
			</g>
			<g>
				<g>
					<path class="st1" d="M111.6,105.6c1.1,3.7,1.9,7.4,2.5,11.1c0.7,3.8,1.4,7.5,1.8,11.4c0.2,1.9,0.4,3.9,0.5,5.8
						c0.1,2,0,3.9-0.2,5.9c-0.1,1-0.3,2-0.5,3l-0.2,0.7c-0.1,0.2-0.2,0.5-0.2,0.7c-0.2,0.5-0.3,1-0.5,1.4c-0.8,1.9-1.8,3.6-3,5.3
						c-2.4,3.2-5.6,5.8-9.1,7.7c-3.5,1.9-7.3,3.2-11.1,3.9c-3.9,0.8-7.8,1-11.7,0.8c-3.9-0.2-7.8-0.9-11.6-2.1
						c-3.8-1.2-7.4-3-10.5-5.7c-1.5-1.3-2.9-2.9-4-4.6c-1.1-1.8-1.9-3.7-2.3-5.8c-0.2-1-0.3-2.1-0.3-3.1c0-0.5,0-1,0-1.5
						c0-0.5,0.1-1,0.1-1.5c0.1-1.9,0.3-3.8,0.5-5.7c0.4-3.8,0.8-7.6,1.2-11.4c0.8-7.6,1.6-15.2,2-22.7c0.2-3.8,0.3-7.6,0.3-11.3
						c-0.1-3.8-0.3-7.5-0.9-11.2l-0.7-4.4l3.1,3.1c0.2,0.2,0.6,0.5,1,0.7c0.4,0.2,0.8,0.4,1.3,0.6c0.9,0.4,1.9,0.7,2.8,1
						c2,0.6,4,1,6,1.4c4.1,0.7,8.2,1.2,12.4,1.5c2.1,0.2,4.2,0.3,6.2,0.3c2.1,0,4.1,0,6.2-0.1c1-0.1,2-0.2,2.9-0.4
						c0.2,0,0.4-0.1,0.6-0.2c0.2-0.1,0.4-0.1,0.4-0.2c0,0,0,0,0,0.1c0,0-0.1,0.1-0.1,0.2c0,0.1,0,0.1-0.1,0.2c0,0.1,0,0.1,0,0.2
						c0,0.2,0,0.2,0,0.2c0,0,0-0.1-0.1-0.1c-0.2-0.3-0.5-0.6-0.9-0.9c-0.4-0.3-0.7-0.6-1.1-0.9c-0.8-0.6-1.6-1.2-2.5-1.8
						c-3.4-2.4-7-4.6-10.5-7c-0.9-0.6-1.7-1.3-2.6-2c-0.2-0.2-0.4-0.4-0.7-0.6c-0.2-0.2-0.4-0.5-0.7-0.8c-0.1-0.2-0.2-0.4-0.3-0.7
						c0-0.1,0-0.2-0.1-0.3c0-0.1,0-0.2,0-0.4c0-0.3,0.1-0.6,0.3-0.9c0.1-0.1,0.2-0.2,0.3-0.3c0.1-0.1,0.2-0.2,0.3-0.2
						c0.2-0.1,0.3-0.2,0.5-0.2c0.3-0.1,0.5-0.1,0.7-0.1c0.7-0.1,1.3,0,1.9,0.1c0.3,0,0.5,0.1,0.9,0.1c0.3,0.1,0.6,0.1,0.8,0.2
						l3.1,0.6c4.1,0.8,8.3,1.7,12.4,3.1c2,0.7,4.1,1.6,6,2.9c0.9,0.6,1.8,1.4,2.6,2.3c0.8,0.9,1.4,2,1.8,3.1l0.1,0.1l0,0.2
						c0.1,0.8,0.3,1.6,0.5,2.5c0.3,0.9,0.6,1.7,0.9,2.6c0.2,0.7-0.1,1.4-0.8,1.6c-0.7,0.2-1.4-0.1-1.6-0.8c-0.3-0.9-0.7-1.8-0.9-2.7
						c-0.3-0.9-0.5-1.9-0.7-3l0.1,0.3c-0.6-1.7-1.9-3.1-3.5-4.1c-1.6-1.1-3.5-1.9-5.4-2.6c-3.8-1.3-7.9-2.1-12.1-3l-3.1-0.6
						c-0.3-0.1-0.5-0.1-0.7-0.1c-0.2,0-0.5-0.1-0.7-0.1c-0.5-0.1-1-0.1-1.3,0c-0.1,0-0.1,0-0.1,0c0,0,0,0,0.1-0.1
						c0.1,0,0.2-0.1,0.3-0.3c0.1-0.1,0.2-0.4,0.2-0.5c0-0.1,0-0.1,0-0.2c0,0,0-0.1,0-0.1c0-0.1,0-0.1,0,0c0.1,0.1,0.2,0.2,0.3,0.4
						c0.2,0.2,0.3,0.3,0.5,0.5c0.7,0.6,1.6,1.2,2.4,1.8c3.4,2.4,7,4.6,10.5,7c0.9,0.6,1.8,1.2,2.6,1.9c0.4,0.3,0.9,0.7,1.3,1.1
						c0.4,0.4,0.9,0.8,1.3,1.4c0.1,0.2,0.2,0.3,0.3,0.6c0.1,0.2,0.2,0.5,0.2,1c0,0.1,0,0.2,0,0.4c0,0.1-0.1,0.2-0.1,0.4
						c-0.1,0.2-0.2,0.4-0.3,0.5c-0.2,0.3-0.5,0.4-0.7,0.6c-0.4,0.2-0.7,0.3-1,0.4c-0.3,0.1-0.6,0.2-0.9,0.2
						c-1.2,0.2-2.2,0.3-3.3,0.4C90.5,84,88.4,84,86.2,84c-2.1-0.1-4.3-0.2-6.4-0.3c-4.2-0.3-8.5-0.8-12.7-1.6
						c-2.1-0.4-4.2-0.8-6.3-1.4c-1-0.3-2.1-0.6-3.1-1.1c-0.5-0.2-1-0.5-1.6-0.8c-0.5-0.3-1.1-0.6-1.6-1.2l2.4-1.2
						c0.6,3.9,0.9,7.7,1,11.6c0.1,3.9-0.1,7.7-0.3,11.5c-0.4,7.7-1.2,15.3-2,22.9c-0.4,3.8-0.8,7.6-1.2,11.4
						c-0.2,1.9-0.3,3.8-0.5,5.7c0,0.5-0.1,1-0.1,1.4c0,0.4,0,0.9,0,1.3c0,0.9,0.1,1.7,0.3,2.6c0.3,1.7,1,3.3,1.9,4.8
						c0.9,1.5,2.1,2.8,3.4,4c2.7,2.3,6,4,9.5,5.2c3.5,1.1,7.2,1.8,10.9,2c3.7,0.2,7.4-0.1,11.1-0.8c3.6-0.7,7.2-1.9,10.4-3.6
						c3.2-1.7,6.1-4,8.3-6.9c1.1-1.4,2-3,2.6-4.7c0.2-0.4,0.3-0.8,0.5-1.3c0.1-0.2,0.1-0.4,0.2-0.6l0.2-0.6c0.2-0.9,0.4-1.8,0.5-2.7
						c0.2-1.8,0.3-3.7,0.2-5.5c-0.1-1.9-0.2-3.7-0.4-5.6c-0.4-3.7-1.1-7.5-1.8-11.2c-0.7-3.7-1.4-7.5-1.3-11.4
						c0-0.4,0.3-0.6,0.7-0.6C111.3,105.2,111.5,105.4,111.6,105.6L111.6,105.6z"/>
				</g>
			</g>
			<g>
				<g>
					<path class="st1" d="M91.3,179.1c-2.4,0-4-0.1-4.2-0.1c-0.7-0.1-1.2-0.7-1.2-1.4c0.1-0.7,0.7-1.2,1.4-1.2
						c0.2,0,16.2,1.3,27.8-5.1c0.6-0.3,1.4-0.1,1.7,0.5c0.3,0.6,0.1,1.4-0.5,1.7C107.7,178.3,97.1,179.1,91.3,179.1z"/>
				</g>
			</g>
			<g>
				<g>
					<path class="st1" d="M117.2,195c-0.4-0.1-1-0.2-1.5-0.3c-0.5-0.1-1-0.1-1.5-0.2c-1-0.1-2.1-0.1-3.1-0.1c-1,0-2.1,0.1-3.1,0.3
						c-1,0.2-2,0.5-3,0.8l0,0c-0.3,0.1-0.7-0.1-0.8-0.4c-0.1-0.3,0-0.6,0.3-0.8c1-0.5,2.1-0.9,3.2-1.2c1.1-0.3,2.2-0.5,3.3-0.7
						c1.1-0.1,2.2-0.2,3.4-0.2c0.6,0,1.1,0,1.7,0c0.3,0,0.6,0,0.9,0.1c0.3,0,0.6,0.1,0.9,0.1c0.7,0.1,1.2,0.7,1.1,1.4
						c-0.1,0.7-0.7,1.2-1.4,1.1C117.3,195,117.3,195,117.2,195L117.2,195z"/>
				</g>
			</g>
			<g>
				<g>
					<path class="st0" d="M85.2,153.8c0,0-6,31.1-8.9,45.7c-2.4,12.4-10.9,13.2-29.4,12.5c-6.5-0.2-11.5-2.5-11-7.8
						c0.7-7.2,10.8-9.9,10.8-9.9s3.6-36.2,6.1-56L85.2,153.8z"/>
				</g>
			</g>
			<g class="st21">
				<g>
					<path class="st3" d="M73.5,191.9c2.1-13,9.7-32.4,11.3-36.6c-1.3,6.6-6.1,31.5-8.5,44.1c-2.4,12.4-10.9,13.2-29.4,12.5
						c-6.5-0.2-11.5-2.5-11-7.8c0.1-0.6,0.2-1.1,0.3-1.6c1.5,2,4.8,3,7.9,3.1C64.2,206.8,71.6,204.2,73.5,191.9z"/>
				</g>
			</g>
			<g>
				<g>
					<path class="st1" d="M85.8,153.9c-0.4,4.7-1.2,9.4-2.1,14l-2.6,13.9l-2.6,13.9l-0.7,3.5c-0.1,0.6-0.2,1.2-0.4,1.8
						c-0.1,0.6-0.3,1.2-0.5,1.8c-0.4,1.2-0.9,2.4-1.6,3.5c-0.7,1.1-1.5,2.2-2.5,3c-1,0.9-2.1,1.6-3.3,2.1c-1.2,0.5-2.4,0.9-3.6,1.2
						c-2.4,0.6-4.9,0.8-7.3,0.9c-2.4,0.1-4.8,0.1-7.2,0c-1.2,0-2.4-0.1-3.6-0.1l-0.9,0c-0.3,0-0.6,0-0.9,0c-0.6,0-1.2-0.1-1.9-0.2
						c-1.2-0.2-2.5-0.4-3.7-0.9c-1.2-0.4-2.5-1-3.5-2c-0.5-0.5-1-1-1.4-1.7c-0.4-0.6-0.7-1.3-0.8-2c-0.2-0.7-0.2-1.4-0.2-2.1
						c0-0.7,0.1-1.4,0.3-2c0.4-1.3,1.1-2.6,1.9-3.6c0.8-1,1.8-1.9,2.9-2.6c1-0.7,2.1-1.4,3.3-1.9c0.6-0.3,1.1-0.5,1.7-0.7
						c0.3-0.1,0.6-0.2,0.9-0.3c0.3-0.1,0.6-0.2,0.9-0.3l0,0l-0.9,1.1c0.9-9.3,1.9-18.7,2.9-28c1-9.3,2-18.7,3.2-28
						c0.1-0.7,0.7-1.2,1.4-1.1c0.7,0.1,1.2,0.7,1.1,1.4l0,0c-1.2,9.3-2.2,18.6-3.2,28c-1,9.3-2,18.7-2.9,28l-0.1,0.9l-0.8,0.2l0,0
						c-0.2,0.1-0.5,0.2-0.8,0.2c-0.3,0.1-0.5,0.2-0.8,0.3c-0.5,0.2-1,0.4-1.5,0.7c-1,0.5-2,1-2.8,1.7c-1.8,1.3-3.2,2.9-3.7,4.8
						c-0.2,0.9-0.3,2-0.1,2.8c0.2,0.9,0.7,1.6,1.4,2.2c0.7,0.6,1.6,1.1,2.6,1.4c1,0.3,2.1,0.6,3.2,0.7c0.5,0.1,1.1,0.1,1.7,0.2
						c0.3,0,0.6,0,0.8,0l0.9,0c1.2,0,2.3,0.1,3.5,0.1c2.3,0,4.7,0.1,7,0c2.3-0.1,4.6-0.3,6.8-0.8c2.2-0.5,4.2-1.3,5.7-2.7
						c1.6-1.3,2.6-3.2,3.3-5.3c0.2-0.5,0.3-1.1,0.5-1.6c0.1-0.5,0.2-1.1,0.4-1.7l0.7-3.5l2.7-13.9l2.7-13.9
						c0.9-4.6,1.9-9.2,3.3-13.8c0.1-0.3,0.5-0.5,0.8-0.4C85.6,153.3,85.8,153.6,85.8,153.9z"/>
				</g>
			</g>
			<g>
				<g>
					<path class="st1" d="M69.8,178.4c-15.2,0-21.3-3.4-21.6-3.6c-0.6-0.4-0.8-1.1-0.5-1.7c0.4-0.6,1.1-0.8,1.7-0.5
						c0.1,0.1,8.8,4.8,31.2,2.7c0.7-0.1,1.3,0.5,1.4,1.1c0.1,0.7-0.5,1.3-1.1,1.4C76.7,178.3,73,178.4,69.8,178.4z"/>
				</g>
			</g>
			<g>
				<g>
					<path class="st1" d="M46,193c0.9-0.1,1.8-0.2,2.6-0.3c0.9-0.1,1.7-0.1,2.6-0.1c1.7,0,3.5,0.1,5.2,0.3c1.7,0.2,3.4,0.6,5.1,1.2
						c0.8,0.3,1.6,0.6,2.4,1c0.8,0.4,1.5,0.9,2.2,1.4c0.3,0.2,0.4,0.6,0.2,0.9c-0.2,0.3-0.6,0.3-0.9,0.2l0,0
						c-0.7-0.4-1.4-0.8-2.1-1.1c-0.7-0.3-1.5-0.6-2.3-0.8c-1.6-0.4-3.2-0.7-4.8-0.8c-1.6-0.1-3.3-0.1-4.9,0
						c-0.8,0.1-1.6,0.1-2.4,0.2c-0.8,0.1-1.6,0.2-2.4,0.4l0,0c-0.7,0.2-1.4-0.3-1.5-1C44.8,193.8,45.3,193.2,46,193
						C46,193,46,193,46,193z"/>
				</g>
			</g>
			<g>
				<g>
					<path class="st0" d="M70.5,91.3l-4,6.7l-10.1,17.2l-0.3,0.5c-0.4-0.3-0.9-0.7-1.3-1C35.4,99.5,18.1,80,16,78.9
						C9.6,75.6,4.4,69.8,4,66.2c-0.8-6.8,8.4-17.3,9.9-18.9c0.1-0.1,0.2-0.2,0.2-0.2s-8-11.2-2.7-14.8c5.4-3.7,18.1,14.3,19,15.3
						c1.6,2,5.6-7.4,11.2-6.8c6.6,0.7-2.1,15-1.6,16.5c0.6,1.8,5.2,8.1,13.3,16.9c0.8,0.8,1.5,1.7,2.4,2.5
						C59.8,81,64.8,86,70.5,91.3z"/>
				</g>
			</g>
			<g class="st21">
				<g>
					<path class="st3" d="M56.4,115.2l-0.3,0.5c-0.4-0.3-0.9-0.7-1.3-1C35.4,99.5,18.1,80,16,78.9C9.6,75.6,4.4,69.8,4,66.2
						c-0.8-6.8,8.4-17.3,9.9-18.9C18.6,51.1,29.8,60,29.8,60S29.7,91.1,56.4,115.2z"/>
				</g>
			</g>
			<g>
				<g>
					<path class="st1" d="M56.1,117c-0.3,0-0.5-0.1-0.8-0.3c-13.4-10.4-26-23-33.5-30.5c-3-3-5.9-5.9-6.5-6.2
						C8.9,76.7,3.2,70.6,2.7,66.3c-0.8-6.8,7.3-16.6,9.8-19.4c-1.4-2.2-4.8-8-4.1-12.2c0.3-1.5,1-2.7,2.2-3.6
						c4-2.8,10.6,2.1,20.3,15c0.1,0.1,0.1,0.1,0.1,0.2c0.4-0.4,1.2-1.1,1.7-1.7c2.1-2.4,5.1-5.6,8.9-5.2c1.7,0.2,2.6,1.1,3,1.8
						c1.6,2.7-0.1,7.3-2.3,12.6c-0.5,1.2-1.1,2.6-1.2,3.2c1.1,2.6,11.4,16,30.1,33.4c0.5,0.5,0.5,1.3,0.1,1.8
						c-0.5,0.5-1.3,0.5-1.8,0.1C50.9,74.9,39.7,60.7,38.8,57.6c-0.3-0.8,0.1-1.9,1.3-4.8c1.2-3,3.5-8.5,2.4-10.4
						c-0.1-0.2-0.4-0.5-1.1-0.6c-2.5-0.3-4.9,2.3-6.8,4.4c-1.5,1.6-2.5,2.8-3.8,2.7c-0.6,0-1.1-0.3-1.5-0.8
						c-0.1-0.1-0.2-0.3-0.5-0.6c-1.3-1.7-4.6-6.1-8.2-9.8c-4-4-7.1-5.7-8.6-4.7c-0.6,0.4-1,1.1-1.2,1.9c-0.6,3.4,2.8,9.2,4.2,11.1
						c0.4,0.5,0.3,1.2-0.1,1.6C12.1,51,4.6,60.4,5.2,66c0.4,3,5.1,8.6,11.3,11.7c0.9,0.4,2.7,2.3,7.1,6.7c7.5,7.5,19.9,20,33.2,30.3
						c0.6,0.4,0.7,1.2,0.2,1.8C56.9,116.8,56.5,117,56.1,117z"/>
				</g>
			</g>
			<g>
				<g>
					<path class="st0" d="M13,77.1c0,0-2.1-1.3-4.3-3.4C6.2,71.3,3.5,67.8,4,64c0.9-7.1,10.1-17,10.1-17c2.7-0.3,6.2,1.7,9.3,4.4
						c3.6,3.1,6.5,7.2,6.7,10.1C30.3,65.4,22.5,78.9,13,77.1z"/>
				</g>
			</g>
			<g class="st21">
				<g>
					<path class="st3" d="M13,77.1c0,0-2.1-1.3-4.3-3.4c2-0.4,4.7-1.6,7.6-4.9c6-6.6,8.9-11.6,7.1-17.5c3.6,3.1,6.5,7.2,6.7,10.1
						C30.3,65.4,22.5,78.9,13,77.1z"/>
				</g>
			</g>
			<g>
				<g>
					<path class="st1" d="M13.4,75.9c0.2,0,0.3,0,0.5,0c0.1,0,0.2,0,0.3,0l0.3,0c0.2,0,0.4,0,0.7,0l0.3,0l0.3,0
						c0.9-0.1,1.7-0.4,2.6-0.7c1.7-0.7,3.2-1.9,4.5-3.2c1.4-1.3,2.6-2.8,3.6-4.5c0.5-0.8,1-1.7,1.4-2.5c0.4-0.9,0.7-1.7,0.9-2.6
						l0.1-0.3c0-0.1,0-0.2,0-0.3c0-0.1,0-0.2,0-0.2c0-0.1,0-0.2,0-0.3c0-0.4-0.1-0.8-0.3-1.2c-0.3-0.8-0.7-1.6-1.2-2.4
						c-1-1.6-2.3-3.1-3.7-4.4c-1.4-1.3-2.9-2.5-4.5-3.5c-0.8-0.5-1.6-0.9-2.5-1.2c-0.8-0.3-1.7-0.4-2.4-0.4l0.8-0.4
						c-1,1.1-2,2.2-2.9,3.4c-0.9,1.2-1.8,2.4-2.6,3.6c-0.8,1.2-1.6,2.5-2.3,3.8c-0.2,0.3-0.3,0.7-0.5,1l-0.2,0.5
						c-0.1,0.2-0.1,0.3-0.2,0.5c-0.1,0.3-0.3,0.7-0.4,1l-0.3,1c-0.1,0.2-0.1,0.3-0.1,0.5l-0.1,0.5c0,0.2-0.1,0.3-0.1,0.5l0,0.5
						c0,0.6,0.1,1.3,0.2,1.9c0.3,1.3,1,2.5,1.8,3.6c0.8,1.1,1.8,2.2,2.9,3.2c0.5,0.5,1.1,1,1.7,1.4c0.3,0.2,0.6,0.4,0.9,0.6l0.4,0.3
						L13.4,75.9l0.1,0l0.1,0l0,0C13.6,76,13.5,75.9,13.4,75.9z M12.5,78.3c-0.1,0-0.2-0.1-0.2-0.1l0,0l-0.1,0L12,78l-0.3-0.2
						l-0.5-0.3c-0.3-0.2-0.6-0.5-1-0.7c-0.6-0.5-1.2-1-1.8-1.5c-1.2-1.1-2.3-2.2-3.3-3.6c-1-1.3-1.8-2.8-2.2-4.5
						c-0.2-0.8-0.3-1.7-0.3-2.6l0.1-0.7c0-0.2,0.1-0.4,0.1-0.6L3,62.6c0-0.2,0.1-0.4,0.1-0.6c0.9-3.2,2.5-5.9,4.2-8.5
						c1.8-2.6,3.7-5,5.8-7.4l0,0c0.2-0.2,0.5-0.4,0.8-0.4c1.3-0.1,2.4,0.1,3.5,0.5c1.1,0.4,2,0.8,3,1.4c1.8,1.1,3.5,2.4,5,3.9
						c1.5,1.5,2.9,3.1,4,4.9c0.6,0.9,1.1,1.9,1.5,3c0.2,0.5,0.3,1.1,0.4,1.8c0,0.3,0,0.7,0,1c0,0.2,0,0.3-0.1,0.5L31.2,63
						c-0.3,1.1-0.6,2.1-1.1,3.1c-0.4,1-1,1.9-1.5,2.8c-1.1,1.8-2.4,3.5-3.9,4.9c-1.5,1.5-3.3,2.8-5.3,3.7c-1,0.4-2.1,0.8-3.2,0.9
						l-0.4,0.1l-0.4,0c-0.3,0-0.6,0-0.9,0l-0.4,0c-0.1,0-0.3,0-0.5,0C13.2,78.4,12.9,78.4,12.5,78.3z"/>
				</g>
			</g>
			<g>
				<g>
					<path class="st1" d="M33.4,97.1c-0.5,0-0.9-0.3-1.1-0.7c-0.3-0.6-0.1-1.4,0.6-1.7c0.1-0.1,14.8-7.5,19.8-20.3
						c0.3-0.7,1-1,1.6-0.7c0.7,0.3,1,1,0.7,1.6c-5.4,13.7-20.4,21.3-21,21.6C33.8,97.1,33.6,97.1,33.4,97.1z"/>
				</g>
			</g>
			<g>
				<g>
					<g>
						<path class="st0" d="M48.9,50.3l2.2,0.8c0.4,0.2,0.8,0,1-0.4l10.2-26.9c0.2-0.4,0-0.8-0.4-1L59.6,22
							c-4.2-1.6-8.9,0.5-10.5,4.7l-5,13.1C42.6,44,44.7,48.7,48.9,50.3z"/>
					</g>
					<g>
						<path class="st1" d="M51.4,51.5c-0.1,0-0.2,0-0.4-0.1l-2.2-0.8c-4.3-1.6-6.5-6.5-4.9-10.8l5-13.1c0.8-2.1,2.4-3.7,4.4-4.7
							c2-0.9,4.3-1,6.4-0.2l2.2,0.8c0.3,0.1,0.5,0.3,0.6,0.5c0.1,0.2,0.1,0.5,0,0.8L52.3,50.8c-0.1,0.3-0.3,0.5-0.5,0.6
							C51.7,51.4,51.5,51.5,51.4,51.5z M49,50.1l2.2,0.8c0.3,0.1,0.6,0,0.7-0.3l10.2-26.9c0.1-0.3,0-0.6-0.3-0.7l-2.2-0.8
							c-4.1-1.5-8.6,0.5-10.2,4.6l-5,13.1C42.9,44,44.9,48.6,49,50.1L49,50.1z"/>
					</g>
				</g>
				<g class="st21">
					<g>
						<path class="st3" d="M46.6,33.6L45,37.8c-2,5.3,0.7,11.3,6,13.3c0.5,0.2,1.1-0.1,1.3-0.6l2.7-7c-0.3,0.3-0.7,0.4-1,0.2
							l-0.6-0.2C49,41.9,46.4,37.8,46.6,33.6z"/>
					</g>
				</g>
				<g>
					<g>
						<path class="st1" d="M51.4,52.5c-0.2,0-0.5,0-0.7-0.1l-2.2-0.8c-4.9-1.8-7.3-7.3-5.5-12.2l5-13.1c1.8-4.9,7.3-7.3,12.2-5.5
							l2.2,0.8c1.1,0.4,1.6,1.6,1.2,2.7L53.3,51.2C53,52,52.2,52.5,51.4,52.5z M49.4,49.1l1.7,0.7l9.8-25.9l-1.7-0.7
							c-1.7-0.6-3.6-0.6-5.2,0.2c-1.7,0.7-2.9,2.1-3.6,3.8l-5,13.1C44.1,43.8,45.8,47.8,49.4,49.1L49.4,49.1z"/>
					</g>
				</g>
				<g>
					<g>
						<path class="st0" d="M151.1,56.7l-2.2-0.8c-0.4-0.2-0.8,0-1,0.4l-10.2,26.9c-0.2,0.4,0,0.8,0.4,1l2.2,0.8
							c4.2,1.6,8.9-0.5,10.5-4.7l5-13.1C157.4,63,155.3,58.3,151.1,56.7z"/>
					</g>
					<g>
						<path class="st1" d="M143.2,85.8c-1,0-2-0.2-3-0.5l-2.2-0.8c-0.3-0.1-0.5-0.3-0.6-0.5c-0.1-0.2-0.1-0.5,0-0.8l10.2-26.9
							c0.1-0.3,0.3-0.5,0.5-0.6c0.2-0.1,0.5-0.1,0.8,0l2.2,0.8c4.3,1.6,6.5,6.5,4.9,10.8l-5,13.1c-0.8,2.1-2.4,3.7-4.4,4.7
							C145.6,85.6,144.4,85.8,143.2,85.8z M148.6,56.1c-0.1,0-0.2,0-0.2,0c-0.1,0.1-0.2,0.2-0.3,0.3l-10.2,26.9
							c-0.1,0.1,0,0.3,0,0.4c0.1,0.1,0.2,0.2,0.3,0.3l2.2,0.8c2,0.7,4.1,0.7,6-0.2c1.9-0.9,3.4-2.4,4.1-4.4l5-13.1
							c0.7-2,0.7-4.1-0.2-6c-0.9-1.9-2.4-3.4-4.4-4.1l-2.2-0.8C148.7,56.1,148.7,56.1,148.6,56.1z"/>
					</g>
				</g>
				<g class="st21">
					<g>
						<path class="st3" d="M140.5,75.7l-2.8,7.3c-0.2,0.5,0.1,1.1,0.6,1.3c2.8,1.1,5.8,0.8,8.2-0.4c2.2-1.1,4.1-3,5-5.6l1.4-3.8
							c-2.8,2.8-7,3.8-10.9,2.3l-1-0.4C140.8,76.3,140.6,76,140.5,75.7z"/>
					</g>
				</g>
				<g>
					<g>
						<path class="st1" d="M143.2,86.9c-1.1,0-2.3-0.2-3.4-0.6l-2.2-0.8c-0.5-0.2-0.9-0.6-1.2-1.1c-0.2-0.5-0.2-1.1,0-1.6l10.2-26.9
							c0.2-0.5,0.6-0.9,1.1-1.2c0.5-0.2,1.1-0.2,1.6,0l2.2,0.8c2.4,0.9,4.2,2.7,5.3,5c1,2.3,1.1,4.9,0.2,7.2l-5,13.1
							c-0.9,2.4-2.7,4.2-5,5.3C145.9,86.6,144.6,86.9,143.2,86.9z M139.1,83.2l1.7,0.7c1.7,0.6,3.6,0.6,5.2-0.2
							c1.7-0.7,2.9-2.1,3.6-3.8l5-13.1c1.3-3.5-0.4-7.5-4-8.8h0l-1.7-0.7L139.1,83.2z"/>
					</g>
				</g>
				<g class="st21">
					<g>
						<path class="st3" d="M116.5,105c-1.7,0.9-3.5,1.6-5.3,2.3c-5.6,2-11.7,2.8-17.8,2.4c-3.2-0.2-6.4-0.8-9.5-1.8
							c-6.7-2-12.5-5.5-17.3-9.9c-4.5-4.2-8-9.2-10.4-14.7c-1.3-2.9-2.2-6-2.9-9.2c0.8,0.8,1.5,1.7,2.4,2.5c-0.1-1-0.3-2-0.4-3
							c-0.6-3.4,0.5-3.4,0.7-6.9c0.2-3.4,12.9-3.5,25.5-1.5c9.3,2,23,3.7,25.6,11.3c0.2,1.7,0.9,3.8,1.5,5.4l1.3,13.1
							C111.6,97.6,113.9,101.1,116.5,105z"/>
					</g>
				</g>
				<g>
					<g>
						<circle class="st0" cx="100" cy="53.5" r="48.2"/>
					</g>
					<g>
						<path class="st1" d="M100,102c-4.6,0-9.3-0.7-13.9-2.1c-12.4-3.7-22.6-12.1-28.7-23.5c-6.1-11.4-7.5-24.5-3.7-36.9
							C57.3,27.2,65.6,17,77,10.8c11.4-6.1,24.5-7.5,36.9-3.7c25.6,7.7,40.2,34.8,32.5,60.4C140.1,88.4,120.8,102,100,102z
							 M99.9,5.5c-7.8,0-15.6,1.9-22.7,5.8C65.9,17.3,57.7,27.4,54,39.7C50.3,52,51.6,65,57.7,76.3c6.1,11.3,16.2,19.5,28.5,23.2
							c4.6,1.4,9.2,2,13.8,2c20.6,0,39.8-13.4,46-34.2c7.6-25.4-6.8-52.2-32.2-59.8C109.2,6.2,104.6,5.5,99.9,5.5z"/>
					</g>
				</g>
				<g class="st21">
					<g>
						<path class="st3" d="M56.1,33.4c-0.9,2-1.7,4.1-2.4,6.3c-7.7,25.5,6.8,52.4,32.3,60.1c25.5,7.7,52.4-6.8,60.1-32.3
							c0.2-0.7,0.4-1.5,0.6-2.2c-9.9,21.6-34.4,33.1-57.7,26.1C64.3,83.8,49.9,58.2,56.1,33.4z"/>
					</g>
				</g>
				<g>
					<g>
						<path class="st1" d="M100,103.1c-4.7,0-9.5-0.7-14.2-2.1c-12.7-3.8-23.1-12.3-29.4-24c-6.3-11.7-7.6-25.1-3.8-37.7
							c7.9-26.2,35.5-41.1,61.7-33.2c26.2,7.9,41.1,35.5,33.2,61.7C141,89.2,121.3,103.1,100,103.1z M100,6.6
							C79.8,6.6,61.1,19.7,55,40c-3.6,12-2.3,24.7,3.6,35.7c5.9,11,15.8,19.1,27.8,22.7c4.5,1.3,9,2,13.5,2
							c20.2,0,38.9-13.1,45-33.4c7.4-24.8-6.7-51-31.5-58.5C109,7.2,104.5,6.6,100,6.6z"/>
					</g>
				</g>
				<g>
					<g>
						<path class="st3" d="M53.6,40.9c-2.9,9-2.6,18.3,0.2,26.8C55.9,74,68.4,88,87.4,94.2c17.6,5.7,36.6,1.4,42-2.6
							c7.2-5.3,12.8-12.8,15.6-21.8c7.5-23.8-9.8-40.2-35-48.2S61.1,17.1,53.6,40.9z"/>
					</g>
				</g>
				<g>
					<g>
						<path class="st1" d="M105.7,98.3c-6,0-12.4-0.8-18.7-2.9c-20.1-6.6-32.3-21.1-34.4-27.4c-3-9.1-3.1-18.6-0.2-27.6l0,0
							C56,28.8,63.6,21.3,74.8,18.1c9.8-2.8,22.1-1.9,35.6,2.3c13.5,4.3,24,10.7,30.4,18.6c7.3,9,9.2,19.5,5.4,31.2
							c-2.8,9-8.4,16.7-16.1,22.4C126.5,95.4,116.9,98.3,105.7,98.3z M87.2,19.1c-4.2,0-8.2,0.5-11.7,1.5
							c-10.3,2.9-17.2,9.9-20.7,20.7l0,0c-2.7,8.4-2.6,17.4,0.2,26c1.9,5.7,13.8,19.5,32.8,25.7c17.1,5.6,35.7,1.4,40.8-2.4
							c7.2-5.4,12.5-12.7,15.1-21.1c9.3-29.3-20.8-42.3-34.2-46.5C101.5,20.4,94,19.1,87.2,19.1z M53.6,40.9L53.6,40.9L53.6,40.9z"
							/>
					</g>
				</g>
				<g class="st5">
					<g>
						
							<ellipse transform="matrix(0.1273 -0.9919 0.9919 0.1273 18.6009 105.8491)" class="st0" cx="69.5" cy="42.4" rx="8.5" ry="6.2"/>
					</g>
				</g>
				<g class="st5">
					<g>
						
							<ellipse transform="matrix(0.9999 -1.093118e-02 1.093118e-02 0.9999 -0.66 0.786)" class="st0" cx="71.6" cy="60.8" rx="3.4" ry="3.9"/>
					</g>
				</g>
				<g class="st2">
					<g>
						<path class="st19" d="M69.5,21.5c-7.3,3.6-12.9,9.8-15.9,19.4c-2.9,9-2.6,18.3,0.2,26.8C55.9,74,68.4,88,87.4,94.2
							c6.7,2.2,13.6,2.9,19.9,2.8c-23.1-8.1-38.4-25.2-41-33.1c-3.6-10.8-3.9-22.6-0.3-34C67,26.8,68.1,24,69.5,21.5z"/>
					</g>
				</g>
				<g>
					<g>
						<path class="st1" d="M148,49.8c-0.5,0-1-0.3-1.2-0.8c0,0,0,0,0,0l0-0.1c-4.1-13.6-17-24.8-35.4-30.6
							c-18.3-5.8-35.3-4.3-46.4,4.1l-0.1,0.1l-0.2,0.1c-0.7,0.3-1.4-0.1-1.7-0.7c-0.2-0.6,0-1.2,0.5-1.6
							c11.9-8.9,29.6-10.5,48.7-4.4c19.3,6.1,32.8,17.9,37.1,32.3c0.2,0.6-0.1,1.3-0.8,1.6C148.3,49.7,148.1,49.8,148,49.8z"/>
					</g>
				</g>
				<g class="st5">
					<g>
						<path class="st0" d="M130.2,80.8c0,0,14.8-21.2,5.1-34.5s-27.9-19.1-27.9-17.8c0,0,18.6,11.3,21.5,29.7
							C131.1,72.4,130.2,80.8,130.2,80.8z"/>
					</g>
				</g>
			</g>
		</g>
		<g>
			<path class="st0" d="M97.1,29.4c-4.4-2-9.6-2.3-14.3-0.8c-0.5,0.2-0.8-0.5-0.4-0.8c2.5-1.8,6.1-3.4,8.6-3.1
				c2.7,0.3,5.1,2,6.6,4.2C97.8,29.1,97.4,29.5,97.1,29.4z"/>
			<path class="st0" d="M128.7,34.2c4.3,2.4,7.6,6.4,9.2,11c0.2,0.5,0.9,0.4,0.9-0.2c0-3.1-0.9-6.9-2.6-8.8c-1.9-2-4.6-2.9-7.3-2.8
				C128.5,33.6,128.4,34.1,128.7,34.2z"/>
			<g>
				<path class="st0" d="M69.6,42.3c7.1,1.2,15.4,4.3,20.6,9.4c0.9,0.9,2.2-0.4,1.3-1.3c-5.7-5.5-13.9-8.3-21.8-8.3
					C69.5,42.1,69.5,42.3,69.6,42.3z"/>
				<path class="st0" d="M75.7,54.4c3.1,0.9,6.2,1.3,9.5,0.8c1.9-0.3,6.4-1.6,6.2-4.1c0-0.2-0.2-0.4-0.5-0.4c-0.8-0.1-1,0.1-1.6,0.6
					c-1.2,1.1-2.9,1.6-4.4,2c-2.9,0.7-6,0.5-8.9,0.1C75.3,53.3,75.1,54.3,75.7,54.4z"/>
				<path class="st0" d="M84.9,37.7c1.9,1.6,3.4,3.6,4.5,5.9c0.5,1,0.8,2.2,0.9,3.3c0.1,1.3-0.3,2.3-0.6,3.6
					c-0.3,1.2,1.8,1.7,2.2,0.5C93.3,45.3,89.7,40.2,84.9,37.7C84.8,37.6,84.8,37.7,84.9,37.7z"/>
			</g>
			<path class="st26" d="M133.7,62.7c0.6-1.5,0.9-3,1.1-4.7c-0.2,0.8-0.6,1.8-0.9,2.5c-2.4,6.3-8.3,10.9-14.5,11.3
				c-6.2,0.4-12.5-3.2-15.7-9.2c-0.8-1.4-1.3-2.9-1.7-4.5c0.3,2.4,0.8,4.7,1.9,6.8c3.1,5.7,9.4,9.4,15.4,9
				C125.5,73.6,131.4,68.9,133.7,62.7z"/>
			<g>
				<g>
					<path class="st0" d="M135,52.3c-1-5.4-4.5-10-9.3-12.1c-4.8-2.1-10.7-1.5-15.3,1.5c-5.4,3.5-8.9,10.1-8.7,16.6
						c0.2,6.4,4.2,12.4,9.8,14.7c5.6,2.3,12.7,1,17.5-3.3C133.7,65.3,136.1,58.4,135,52.3z"/>
					<path class="st25" d="M134.4,52.4c0,0-0.1-0.4-0.3-1.2c-0.1-0.4-0.2-0.9-0.5-1.3c-0.2-0.5-0.4-1.1-0.8-1.7
						c-0.6-1.2-1.7-2.6-3-4c-1.4-1.3-3.2-2.6-5.4-3.4c-0.3-0.1-0.6-0.2-0.9-0.3c-0.3-0.1-0.6-0.1-0.9-0.2c-0.3-0.1-0.6-0.1-0.9-0.2
						c-0.3,0-0.6-0.1-0.9-0.1c-0.3,0-0.6-0.1-1-0.1c-0.3,0-0.7,0-1,0c-0.7,0-1.3,0.1-2,0.2c-2.7,0.4-5.5,1.5-7.9,3.4
						c-2.3,1.8-4.3,4.5-5.6,7.5c-1.2,3-1.9,6.4-1.2,9.7c0.6,3.2,2.2,6.3,4.5,8.7c2.3,2.4,5.3,3.9,8.4,4.3c3.1,0.4,6.1-0.1,8.7-1.2
						l1-0.4c0.3-0.2,0.6-0.4,0.9-0.5c0.6-0.4,1.2-0.7,1.7-1.1c0.5-0.4,1.1-0.8,1.5-1.2c0.5-0.5,0.9-0.9,1.3-1.4
						c1.5-1.9,2.6-3.9,3.3-5.8c0.4-0.9,0.5-1.9,0.8-2.7c0.1-0.9,0.2-1.6,0.3-2.3c0-0.7,0-1.4,0-1.9c0-0.6-0.1-1-0.1-1.4
						C134.5,52.8,134.4,52.4,134.4,52.4L134.4,52.4z M135.6,52.2c0,0,0,0.4,0.1,1.3c0,0.4,0.1,0.9,0.1,1.5c0,0.6,0,1.3-0.1,2
						c-0.1,0.8-0.2,1.6-0.4,2.5c-0.3,0.9-0.5,1.9-0.9,2.8c-0.7,2-1.9,4.1-3.6,6.1c-0.4,0.5-0.9,0.9-1.3,1.4
						c-0.5,0.5-1.1,0.9-1.6,1.3c-0.5,0.5-1.2,0.8-1.8,1.2c-0.3,0.2-0.6,0.4-1,0.5l-1,0.4c-2.8,1.1-6,1.7-9.3,1.2
						c-3.2-0.4-6.4-2.1-8.8-4.6c-2.4-2.5-3.9-5.7-4.6-9.1c-0.6-3.3-0.3-7,0.9-10.2c1.2-3.2,3-6.1,5.6-8.4c2.4-2.2,5.5-3.7,8.6-4.3
						c0.8-0.1,1.5-0.3,2.3-0.3c0.4,0,0.8,0,1.1-0.1c0.4,0,0.7,0,1.1,0.1c0.4,0,0.7,0,1.1,0.1c0.4,0.1,0.7,0.1,1.1,0.2
						c0.4,0.1,0.7,0.1,1.1,0.2c0.3,0.1,0.6,0.2,0.9,0.3c0.3,0.1,0.6,0.2,0.9,0.3c0.2,0.1,0.1,0,0.1,0.1c0.1,0,0.2,0.1,0.2,0.1
						l0.2,0.1l0.4,0.2c0.6,0.3,1.2,0.6,1.7,1c0.5,0.4,1,0.7,1.4,1.1c0.4,0.4,0.8,0.8,1.2,1.2c1.4,1.7,2.4,3.4,2.9,4.9
						c0.3,0.7,0.5,1.4,0.7,2c0.2,0.6,0.3,1.1,0.3,1.5C135.5,51.7,135.6,52.1,135.6,52.2L135.6,52.2z"/>
				</g>
				<path class="st25" d="M125.4,64.2c-1.6,3.3-5.6,4.6-8.9,3c-3.3-1.6-4.6-5.6-3-8.9c1.6-3.3,5.6-4.6,8.9-3
					C125.8,56.9,127.1,60.9,125.4,64.2z"/>
				<path class="st0" d="M120.8,59.1c-0.5,1.1-1.9,1.5-2.9,1c-1.1-0.5-1.5-1.9-1-2.9s1.9-1.5,2.9-1
					C120.9,56.8,121.3,58.1,120.8,59.1z"/>
			</g>
		</g>
		<g>
			<polygon class="st3" points="102.2,136.5 96.6,129.3 96.6,126.2 101.9,119.2 109.7,119.2 102.8,127.5 110.2,136.5 			"/>
			<path class="st1" d="M107.3,120.3l-6,7.1l6.5,7.9h-5.1l-5.1-6.5v-2.3l4.7-6.2H107.3 M112.2,118.1h-4.9h-4.9h-1.1l-0.7,0.9
				l-4.7,6.2l-0.5,0.6v0.8v2.3v0.8l0.5,0.6l5.1,6.5l0.7,0.9h1.1h5.1h4.8l-3.1-3.7l-5.3-6.5l4.8-5.7L112.2,118.1L112.2,118.1z"/>
		</g>
		<g>
			<polygon class="st15" points="76.6,136.5 83.6,128.3 76.1,119.2 84.1,119.2 89.8,126.5 89.8,129.6 84.5,136.5 			"/>
			<path class="st1" d="M83.6,120.3l5.1,6.5v2.3l-4.7,6.2H79l6-7.1l-6.5-7.9H83.6 M84.7,118.1h-1.1h-5.1h-4.8l3.1,3.7l5.3,6.5
				l-4.8,5.7l-3.1,3.7H79h4.9H85l0.7-0.9l4.7-6.2l0.5-0.6v-0.8v-2.3v-0.8l-0.5-0.6l-5.1-6.5L84.7,118.1L84.7,118.1z"/>
		</g>
		<g>
			<polygon class="st11" points="92.9,142.3 84.6,149.2 84.6,141.4 91.6,136.1 94.7,136.1 101.9,141.7 101.9,149.7 			"/>
			<path class="st1" d="M94.3,137.2l6.5,5.1v5.1l-7.9-6.5l-7.1,6V142l6.2-4.7H94.3 M95.1,135h-0.8H92h-0.8l-0.6,0.5l-6.2,4.7
				l-0.9,0.7v1.1v4.9v4.9l3.7-3.1l5.7-4.8l6.5,5.3l3.7,3.1v-4.8v-5.1v-1.1l-0.9-0.7l-6.5-5.1L95.1,135L95.1,135z"/>
		</g>
		<g>
			<polygon class="st16" points="91.6,119.7 84.3,114.1 84.3,106 93.4,113.5 101.6,106.5 101.6,114.4 94.7,119.7 			"/>
			<path class="st1" d="M85.5,108.4l7.9,6.5l7.1-6v4.9l-6.2,4.7H92l-6.5-5.1V108.4 M83.2,103.6v4.8v5.1v1.1l0.9,0.7l6.5,5.1l0.6,0.5
				H92h2.3h0.8l0.6-0.5l6.2-4.7l0.9-0.7v-1.1V109v-4.9l-3.7,3.1l-5.7,4.8l-6.5-5.3L83.2,103.6L83.2,103.6z"/>
		</g>
	</g>
</g>
</svg>
