<?xml version="1.0" encoding="utf-8"?>
<!-- Generator: Adobe Illustrator 27.2.0, SVG Export Plug-In . SVG Version: 6.00 Build 0)  -->
<svg version="1.1" xmlns="http://www.w3.org/2000/svg" xmlns:xlink="http://www.w3.org/1999/xlink" x="0px" y="0px"
	 viewBox="0 0 210.5 247" style="enable-background:new 0 0 210.5 247;" xml:space="preserve">
<style type="text/css">
	.st0{fill:#FFFFFF;}
	.st1{fill:#15264B;}
	.st2{opacity:0.35;}
	.st3{fill:#274B8B;}
	.st4{fill:#0F3747;}
	.st5{opacity:0.5;}
	.st6{opacity:0.4;}
	.st7{fill:#183E75;}
	.st8{opacity:0.2;}
	.st9{fill:#38276B;}
	.st10{fill:#44AC34;}
	.st11{fill:#00983A;}
	.st12{fill:#FCF8FB;}
	.st13{opacity:0.7;}
	.st14{fill:#94613F;}
	.st15{fill:#FFD100;}
	.st16{fill:#EA5B0C;}
	.st17{fill:#D3D5ED;}
	.st18{fill:#D8D8D8;}
	.st19{fill:#121A28;}
	.st20{fill:#E5E1D4;}
	.st21{opacity:0.25;}
	.st22{opacity:0.6;}
	.st23{fill:#FFD346;}
	.st24{fill:#FFDA36;}
	.st25{fill:#1E1E1C;}
	.st26{fill:#EEEDED;}
	.st27{opacity:0.3;}
	.st28{fill:#407FC1;}
	.st29{fill:#B0B3B1;}
	.st30{opacity:0.8;}
	.st31{fill:#E5E5E4;}
	.st32{fill:#BCBCBB;}
	.st33{fill:#E72D47;}
	.st34{fill:#F7A710;}
	.st35{fill:#F2EFEC;}
	.st36{fill:#F9B116;}
	.st37{fill:#F38F1C;}
	.st38{fill:none;stroke:#2A3856;stroke-width:2.1963;stroke-linecap:round;stroke-miterlimit:10;}
	.st39{fill:#D66C12;}
	.st40{fill:#FFD767;}
	.st41{fill:#F7A83D;}
	.st42{fill:#FECF70;}
	.st43{fill:#FFED91;}
	.st44{opacity:0.41;}
	.st45{opacity:0.26;}
	.st46{fill:none;}
	.st47{fill:#261E26;}
	.st48{fill:#E30613;}
	.st49{fill:#E9E8E8;}
	.st50{fill:#4A92CF;}
	.st51{fill:#386EB5;}
	.st52{fill:#B6B6B7;}
	.st53{fill:#DDDDDD;}
	.st54{fill:#FDC423;}
	.st55{fill:#E2A415;}
	.st56{fill:#F9B044;}
	.st57{fill:#EB5759;}
	.st58{fill:#E5201F;}
	.st59{fill:none;stroke:#FFFFFF;stroke-width:2.3076;stroke-linecap:round;stroke-miterlimit:10;}
	.st60{fill:#EDC5D6;}
	.st61{fill:#4A153F;}
	.st62{fill:#E9C8D2;}
	.st63{fill:#DFB0BE;}
	.st64{fill:#D6D6EA;}
	.st65{fill:#BDBDE0;}
	.st66{fill:#232323;}
	.st67{fill:#A7ABCC;}
	.st68{fill:#EDCCA9;}
	.st69{fill:#492311;}
	.st70{fill:#2A3856;}
	.st71{fill:#05646E;}
	.st72{fill:#F28D70;}
	.st73{fill:#BEC5CA;}
	.st74{fill:#54767A;}
</style>
<g id="Fondo">
</g>
<g id="Grafica">
</g>
<g id="Informazioni">
	<g>
		<g>
			<path class="st1" d="M128.9,194.3H71.3c-4.6,0-8.3-3.7-8.3-8.3v-56.3c0-4.6,3.7-8.3,8.3-8.3h57.5c4.6,0,8.3,3.7,8.3,8.3V186
				C137.2,190.6,133.4,194.3,128.9,194.3z"/>
			<path class="st1" d="M123.9,195.6H76.3c-8,0-14.6-6.5-14.6-14.6v-46.4c0-8,6.5-14.6,14.6-14.6h47.6c8,0,14.6,6.5,14.6,14.6v46.4
				C138.5,189.1,131.9,195.6,123.9,195.6z M76.3,122.7c-6.6,0-11.9,5.4-11.9,11.9v46.4c0,6.6,5.4,11.9,11.9,11.9h47.6
				c6.6,0,11.9-5.4,11.9-11.9v-46.4c0-6.6-5.4-11.9-11.9-11.9H76.3z"/>
		</g>
		<g>
			<path class="st0" d="M78.2,124.3l-1.7,11l-3.2,21c-21.2,27.7-28.1-1.1-28.1-1.1c9.6-13,17.8-20.7,23.6-25.1
				C74.7,125.5,78.2,124.3,78.2,124.3z"/>
		</g>
		<g class="st8">
			<path class="st3" d="M78.2,124.3l-1.7,11c-2.7-1.5-5.3-3.2-7.7-5.2C74.7,125.5,78.2,124.3,78.2,124.3z"/>
		</g>
		<g>
			<path class="st18" d="M126.4,133.7c-7.6,4.8-16.6,7.6-26.3,7.6c-9.7,0-18.7-2.8-26.3-7.6c0.3-0.5,0.5-1.1,0.8-1.6
				c0,0-4.9-27.9,25.5-29.1c30.4-1.2,25.5,29.1,25.5,29.1C125.9,132.6,126.1,133.1,126.4,133.7z"/>
		</g>
		<g>
			<path class="st18" d="M132.2,129.3c-2.9,2.5-6.2,4.7-9.7,6.5l-4.1-12.5c0,0,3.8,1.3,8.7,3.5C128.8,127.6,130.5,128.4,132.2,129.3
				z"/>
		</g>
		<g>
			<path class="st1" d="M56.9,169.6c-0.7,0-1.3-0.1-1.9-0.2c-8-1.7-10.9-13.4-11-13.9c-0.1-0.4,0-0.8,0.2-1.1
				c19.5-26.3,33-31.2,33.6-31.4c0.7-0.2,1.4,0.1,1.7,0.8c0.2,0.7-0.1,1.4-0.8,1.7c-0.2,0.1-13.3,5-31.9,29.9
				c0.7,2.2,3.3,10.2,8.9,11.4c4.5,1,10.3-3,16.7-11.4c0.4-0.6,1.3-0.7,1.9-0.2c0.6,0.4,0.7,1.3,0.2,1.9
				C68,165.4,62.1,169.6,56.9,169.6z"/>
		</g>
		<g>
			<g>
				<path class="st0" d="M146.2,168.8c0,0,3.3,10.2-7.5,12.4c-1.9,0.4-3.8,0.2-5.4-0.4c-7.1-2.6-10.6-13.6-1.2-24.6
					c0.5-0.6,1-1.2,1.6-1.7c0,0,0,0,0.1-0.1c0,0-0.5-0.8-2.1-2c-1-0.7-2.4-1.6-4.4-2.5l-3.9-11.8l0,0l-0.7-2.1l-4.2-12.7
					c0,0,3.8,1.3,8.7,3.5c1.6,0.7,3.3,1.6,5.1,2.5c0.5,0.3,1,0.5,1.4,0.8c0,0,1.1,0.6,2.7,1.6C144.9,137,169,154.3,146.2,168.8z"/>
			</g>
			<g class="st8">
				<path class="st3" d="M132.2,129.3c-2.9,2.5-6.2,4.7-9.7,6.5l-4.1-12.5c0,0,3.8,1.3,8.7,3.5C128.8,127.6,130.5,128.4,132.2,129.3
					z"/>
			</g>
			<g>
				<path class="st18" d="M126.6,134c-6.3,3.8-15.4,6.1-25.6,6.1c-11,0-20.7-2.7-27-7c0.2-0.4,0.4-0.8,0.6-1.2c0,0-3.5-20.1,14-26.9
					c3.9-0.8,8.1-1.2,12.4-1.2c4.5,0,8.9,0.5,12.8,1.3c15,6.9,11.8,26.8,11.8,26.8C125.9,132.7,126.3,133.4,126.6,134z"/>
			</g>
			<g class="st8">
				<path class="st3" d="M126,140.4l1.1,9.6c5.2,2.3,6.5,4.4,6.5,4.4c0,0,0,0-0.1,0.1c1.4-1.2,3.3-2.5,5.2-3.2c0,0-3.7-1.9-4.8-3.4
					c-3.6-4.8-3.7-6.5-5.1-8.4C128.5,138.8,125.5,139.3,126,140.4z"/>
			</g>
			<g class="st8">
				<path class="st3" d="M138.7,181.2c10.6-2.2,7.6-12.2,7.5-12.4l0,0c0,0-1.8,9.9-11.4,7.2c-6.1-1.7-5.6-10.4-4.4-16.4
					c-0.1-0.2-0.2-0.5-0.3-0.7c0,0,0,0,0,0C121.5,171.5,129.1,183.2,138.7,181.2z"/>
			</g>
			<g>
				<path class="st1" d="M136.6,182.8c-4.1,0-7.9-2.2-9.9-6.1c-2.8-5.1-2.8-13.6,5.2-22.3c-0.7-0.7-2-1.7-4.3-2.8
					c-0.7-0.3-0.9-1.1-0.6-1.8c0.3-0.7,1.1-0.9,1.8-0.6c4.6,2.2,6,4.3,6.1,4.5l0.5,0.9l-0.7,0.7c-7.9,8-8.1,15.6-5.6,20.1
					c1.9,3.6,5.5,5.3,9.4,4.5c2.8-0.6,4.8-1.8,5.9-3.6c1.8-3.1,0.6-7,0.6-7.1l-0.3-1l0.9-0.6c6.1-3.9,9.1-8.2,8.9-12.9
					c-0.4-12.1-21.1-23.4-21.3-23.5c-7.3-4-15-6.6-15-6.7c-0.7-0.2-1.1-1-0.8-1.7c0.2-0.7,1-1.1,1.7-0.8c0.3,0.1,7.9,2.7,15.5,6.9
					c0.9,0.5,22.2,12.1,22.7,25.7c0.2,5.5-2.9,10.4-9.4,14.8c0.3,1.7,0.7,5.1-1.1,8.2c-1.5,2.5-4.1,4.2-7.7,4.9
					C138.2,182.7,137.4,182.8,136.6,182.8z"/>
			</g>
			<g>
				<path class="st1" d="M146.4,169.9c-1.9,0.7-4,1.2-6,1.2c0.7-0.5,1.8-1.2,2.5-1.7c0.8-0.5,1.6-1.1,2.5-1.6
					C145.3,167.8,146.4,169.9,146.4,169.9L146.4,169.9z"/>
			</g>
			<g>
				<path class="st1" d="M153.3,163.4C153.3,163.4,153.3,163.4,153.3,163.4c-0.6,0-1-0.4-1-1c0-2.3-2.1-4.8-5.4-6.4
					c-4-1.9-9.9-2.3-14.9,1.8c-0.4,0.4-1,0.3-1.4-0.1c-0.4-0.4-0.3-1,0.1-1.4c5.7-4.8,12.6-4.2,17.1-2.1c4,1.9,6.6,5.1,6.5,8.2
					C154.3,162.9,153.9,163.4,153.3,163.4z"/>
			</g>
			<g>
				<path class="st1" d="M132.7,153.5c2-1,4-1.9,6.2-2.3c-1.8,1.1-3.3,2.6-4.8,4.2C134.1,155.3,132.7,153.5,132.7,153.5L132.7,153.5
					z"/>
			</g>
		</g>
		<g>
			<path class="st0" d="M99.1,193.6c-0.2,3.3-0.3,6.6-0.4,9.9c0,0.8,0,1.6-0.1,2.4c-0.3,14.2,0.3,26.2-0.8,29.3
				c-1.4,4.2-5.2,4.5-5.2,4.5H79.7c0,0-8.9,0.4-11.2-1.7c-2.4-2.2-2.1-5.3-0.4-7.4c1.5-1.8,4.1-2.6,4.1-2.6s-1.8-13.2-3.6-30.8
				c-0.1-0.7-0.1-1.4-0.2-2.2c-0.6-5.4-1.1-11.2-1.6-17.2L99.1,193.6z"/>
		</g>
		<g class="st8">
			<path class="st3" d="M99.1,193.6c-0.2,3.3-0.3,6.6-0.4,9.9c0,0.8,0,1.6-0.1,2.4c-14.6,0.9-24.4-4.3-30-8.7
				c-0.1-0.7-0.1-1.4-0.2-2.2c-0.6-5.4-1.1-11.2-1.6-17.2L99.1,193.6z"/>
		</g>
		<g class="st8">
			<path class="st3" d="M68.5,238c2.4,2.2,11.2,1.7,11.2,1.7h12.8c0,0,3.8-0.4,5.2-4.5c0.2-0.5,0.3-1.3,0.4-2.3
				c-1.6,1.3-3.3,1.4-3.3,1.4H80.4c0,0-10,0.5-12.7-2c-0.1-0.1-0.3-0.3-0.4-0.4C66.4,233.9,66.6,236.2,68.5,238z"/>
		</g>
		<g>
			<path class="st1" d="M77.7,241.1c-3,0-8.1-0.3-10.1-2.1c-2.6-2.4-2.9-6.3-0.5-9.2c1.1-1.3,2.7-2.2,3.7-2.6
				c-0.6-4.9-3.4-26.2-5.3-49.1c-0.1-0.7,0.5-1.4,1.2-1.4c0.7-0.1,1.4,0.5,1.4,1.2c2.2,25.9,5.4,49.8,5.4,50
				c0.1,0.7-0.3,1.3-0.9,1.5c0,0-2.3,0.7-3.5,2.2c-1.2,1.5-1.6,3.8,0.3,5.6c1.3,1.2,6.8,1.5,10.3,1.4c0,0,0,0,0.1,0h12.8
				c0.4-0.1,3-0.6,4-3.6c0.6-1.8,0.6-8.2,0.6-15.5c0-7.4,0-16.5,0.6-25.7c0-0.7,0.7-1.3,1.4-1.2c0.7,0,1.3,0.7,1.2,1.4
				c-0.6,9.1-0.6,18.2-0.6,25.6c0,8.5,0,14.1-0.8,16.4c-1.7,4.9-6.1,5.4-6.3,5.4c0,0-0.1,0-0.1,0H79.8
				C79.4,241.1,78.6,241.1,77.7,241.1z"/>
		</g>
		<g>
			<path class="st1" d="M86.1,215.7c-5.2,0-11.3-0.7-16.5-3c-0.7-0.3-1-1.1-0.7-1.7c0.3-0.7,1.1-1,1.7-0.7
				c11.2,4.9,27.4,1.6,27.5,1.6c0.7-0.1,1.4,0.3,1.6,1c0.2,0.7-0.3,1.4-1,1.6C98.4,214.5,93,215.7,86.1,215.7z"/>
		</g>
		<g>
			<path class="st1" d="M71.9,226.7c3.5-0.6,6.9-0.3,10.3,0.3c0.8,0.1,0.7,1.3-0.1,1.3c-3.2-0.1-6.5,0.1-9.6,1
				C70.7,229.8,70.1,227.1,71.9,226.7L71.9,226.7z"/>
		</g>
		<g>
			<path class="st0" d="M101.1,193.6c0.2,3.3,0.3,6.6,0.4,9.9c0,0.8,0,1.6,0.1,2.4c0.3,14.2-0.3,26.2,0.8,29.3
				c1.4,4.2,5.2,4.5,5.2,4.5h12.8c0,0,8.9,0.4,11.2-1.7c2.4-2.2,2.1-5.3,0.4-7.4c-1.5-1.8-4.1-2.6-4.1-2.6s1.8-13.2,3.6-30.8
				c0.1-0.7,0.1-1.4,0.2-2.2c0.6-5.4,1.1-11.2,1.6-17.2L101.1,193.6z"/>
		</g>
		<g class="st8">
			<path class="st3" d="M101.1,193.6c0.2,3.3,0.3,6.6,0.4,9.9c0,0.8,0,1.6,0.1,2.4c14.6,0.9,24.4-4.3,30-8.7
				c0.1-0.7,0.1-1.4,0.2-2.2c0.6-5.4,1.1-11.2,1.6-17.2L101.1,193.6z"/>
		</g>
		<g class="st8">
			<path class="st3" d="M131.6,238c-2.4,2.2-11.2,1.7-11.2,1.7h-12.8c0,0-3.8-0.4-5.2-4.5c-0.2-0.5-0.3-1.3-0.4-2.3
				c1.6,1.3,3.3,1.4,3.3,1.4h14.5c0,0,10,0.5,12.7-2c0.1-0.1,0.3-0.3,0.4-0.4C133.8,233.9,133.5,236.2,131.6,238z"/>
		</g>
		<g>
			<path class="st1" d="M122.5,241.1c-0.9,0-1.7,0-2.1,0h-12.8c0,0-0.1,0-0.1,0c-0.2,0-4.6-0.5-6.3-5.4c-0.8-2.2-0.8-7.9-0.8-16.4
				c0-7.3,0-16.5-0.6-25.6c0-0.7,0.5-1.4,1.2-1.4c0.7,0,1.4,0.5,1.4,1.2c0.6,9.2,0.6,18.4,0.6,25.7c0,7.3,0,13.7,0.6,15.5
				c1.1,3.1,3.6,3.6,4,3.6h12.8c0,0,0,0,0.1,0c3.5,0.2,8.9-0.1,10.3-1.4c1.9-1.7,1.5-4.1,0.3-5.6c-1.2-1.5-3.4-2.2-3.5-2.2
				c-0.6-0.2-1-0.8-0.9-1.4c0-0.2,3.2-24.1,5.4-50c0.1-0.7,0.7-1.3,1.4-1.2c0.7,0.1,1.3,0.7,1.2,1.4c-1.9,22.9-4.7,44.2-5.3,49.1
				c1,0.4,2.6,1.3,3.7,2.6c2.3,2.9,2.1,6.8-0.5,9.2C130.5,240.8,125.5,241.1,122.5,241.1z"/>
		</g>
		<g>
			<path class="st1" d="M114,215.7c-6.8,0-12.2-1.1-12.6-1.2c-0.7-0.2-1.2-0.9-1-1.6c0.2-0.7,0.9-1.2,1.6-1c0.2,0,16.3,3.3,27.5-1.6
				c0.7-0.3,1.5,0,1.7,0.7c0.3,0.7,0,1.5-0.7,1.7C125.3,215,119.3,215.7,114,215.7z"/>
		</g>
		<g>
			<path class="st1" d="M127.6,229.3c-3-0.9-6.4-1.1-9.6-1c-0.8,0-0.9-1.2-0.1-1.3c3.4-0.6,6.8-0.9,10.3-0.3
				C130.1,227.1,129.4,229.8,127.6,229.3L127.6,229.3z"/>
		</g>
		<g>
			<path class="st1" d="M122.5,241.1c-0.9,0-1.7,0-2.1,0h-12.8c0,0-0.1,0-0.1,0c-0.2,0-4.6-0.5-6.3-5.4c-0.8-2.2-0.8-7.9-0.8-16.4
				c0-7.3,0-16.5-0.6-25.6c0-0.7,0.5-1.4,1.2-1.4c0.7,0,1.4,0.5,1.4,1.2c0.6,9.2,0.6,18.4,0.6,25.7c0,7.3,0,13.7,0.6,15.5
				c1.1,3.1,3.6,3.6,4,3.6h12.8c0,0,0,0,0.1,0c3.5,0.2,8.9-0.1,10.3-1.4c1.9-1.7,1.5-4.1,0.3-5.6c-1.2-1.5-3.4-2.2-3.5-2.2
				c-0.6-0.2-1-0.8-0.9-1.4c0-0.2,3.2-24.1,5.4-50c0.1-0.7,0.7-1.3,1.4-1.2c0.7,0.1,1.3,0.7,1.2,1.4c-1.9,22.9-4.7,44.2-5.3,49.1
				c1,0.4,2.6,1.3,3.7,2.6c2.3,2.9,2.1,6.8-0.5,9.2C130.5,240.8,125.5,241.1,122.5,241.1z"/>
		</g>
		<g>
			<path class="st0" d="M125.6,132c8.3,17.3,12.1,33.1,9.6,45.4c-0.9,4.4-2.4,8-4.4,11c-4.2,6.4-10.4,9.8-16.8,11.5
				c-4.7,1.3-9.6,1.6-13.9,1.6c-3.3,0-7-0.2-10.6-0.9c-1-0.2-2-0.4-3.1-0.7c-5.8-1.5-11.3-4.3-15.4-9.4c-2.7-3.3-4.8-7.6-6-13.1
				c-2.5-12.3,1.2-28.1,9.6-45.4"/>
		</g>
		<g>
			<path class="st0" d="M136,168.8c0,3-0.2,5.8-0.8,8.5c-0.1,0.6-0.3,1.2-0.4,1.8c-0.9,3.6-2.3,6.6-4,9.2
				c-4.2,6.4-10.4,9.8-16.8,11.5c-4.7,1.3-9.6,1.6-13.9,1.6c-3.3,0-7-0.2-10.6-0.9c-1-0.2-2-0.4-3.1-0.7c-5.8-1.5-11.3-4.3-15.4-9.4
				c-2.4-3-4.4-6.7-5.6-11.4c-0.1-0.6-0.3-1.1-0.4-1.7c-0.6-2.7-0.8-5.5-0.8-8.5c0.1-10.7,3.8-23.3,10.3-36.8
				c0,0-4.9-27.9,25.5-29.1c30.4-1.2,25.5,29.1,25.5,29.1C132.1,145.5,135.9,158.1,136,168.8z"/>
		</g>
		<g class="st8">
			<path class="st3" d="M126.4,133.7c-7.6,4.8-16.6,7.6-26.3,7.6c-9.7,0-18.7-2.8-26.3-7.6c0.3-0.5,0.5-1.1,0.8-1.6
				c0,0-4.9-27.9,25.5-29.1c30.4-1.2,25.5,29.1,25.5,29.1C125.9,132.6,126.1,133.1,126.4,133.7z"/>
		</g>
		<g class="st8">
			<path class="st3" d="M135.2,177.4c-0.9,4.4-2.4,8-4.4,11c-4.2,6.4-10.4,9.8-16.8,11.5c-4.7,1.3-9.6,1.6-13.9,1.6
				c-3.3,0-7-0.2-10.6-0.9c-1-0.2-2-0.4-3.1-0.7c-5.8-1.5-11.3-4.3-15.4-9.4c-2.7-3.3-4.8-7.6-6-13.1c-0.7-3.4-0.9-7-0.7-10.9
				c0.1,1.9,0.3,3.7,0.7,5.4c1.1,5.5,3.2,9.8,6,13.1c4.1,5.1,9.7,7.9,15.4,9.4c1,0.3,2,0.5,3.1,0.7c3.7,0.7,7.3,0.9,10.6,0.9
				c4.3,0,9.2-0.4,13.9-1.6c6.5-1.7,12.6-5.1,16.8-11.5c1.9-3,3.5-6.6,4.4-11c0.4-1.7,0.6-3.6,0.7-5.4
				C136.1,170.3,135.9,174,135.2,177.4z"/>
		</g>
		<g>
			<path class="st1" d="M114.1,200.5c-7.4,2.8-16.8,3-24.5,1.1c-1.1-0.3-2.3-0.7-3.4-1.1c-0.3-0.1-0.5-0.5-0.4-0.8
				c0.1-0.3,0.4-0.5,0.7-0.4c1.2,0.1,2.3,0.3,3.4,0.4c5.7,0.6,11.4,0.6,17,0.3c2.3-0.2,4.5-0.4,6.8-0.7
				C114.6,199.1,114.9,200.2,114.1,200.5L114.1,200.5z"/>
		</g>
		<g>
			<path class="st1" d="M129.6,139.2c6.7,13.7,11.4,31.8,4.3,46.2c-1.1,2.1-2.4,4-4.1,5.6c-0.6,0.5-1.4-0.2-1-0.8
				c9.9-15.5,5.1-34.2-0.4-50.4C128.1,138.9,129.2,138.4,129.6,139.2L129.6,139.2z"/>
		</g>
		<g>
			<path class="st1" d="M71.8,139.7c-5.5,16.2-10.3,34.9-0.4,50.4c0.4,0.6-0.5,1.4-1,0.8c-1.7-1.6-3-3.5-4.1-5.6
				c-5.3-10.4-4-22.8-0.7-33.6c1.3-4.3,3-8.5,5-12.6C71,138.4,72.1,138.9,71.8,139.7L71.8,139.7z"/>
		</g>
		<g>
			<g>
				<path class="st0" d="M148.4,68.7c0,0,11.1,4.2,12.3,6.3c2.1,3.8,1.7,26.3-4.1,32.2c-2.3,2.3-19.2,4.4-19.2,4.4L148.4,68.7z"/>
			</g>
			<g class="st8">
				<path class="st3" d="M137.4,111.6c0,0,16.9-2.1,19.2-4.4c2.3-2.3,3.8-7.1,4.5-12.4c-0.2,0.2-6.2,5.3-18.1-5.2c0,0,0,0,0,0
					L137.4,111.6z"/>
			</g>
			<g>
				<polygon class="st18" points="100.1,92.2 100.1,92.3 100,92.2 				"/>
			</g>
			<g>
				<polygon class="st18" points="100,92.2 99.9,92.3 99.9,92.2 				"/>
			</g>
			<g>
				<path class="st0" d="M63.2,111.6c0,0-16.9-2.1-19.2-4.4c-2.3-2.3-3.8-7.1-4.5-12.4c0,0,0,0,0,0c-1.2-8.2-0.9-17.5,0.4-19.8
					c1.1-2.1,12.3-6.3,12.3-6.3l5.4,20.9L63.2,111.6z"/>
			</g>
			<g class="st8">
				<path class="st3" d="M63.2,111.6c0,0-16.9-2.1-19.2-4.4c-2.3-2.3-3.8-7.1-4.5-12.4c0.2,0.2,6.2,5.3,18.1-5.2c0,0,0,0,0,0
					L63.2,111.6z"/>
			</g>
			<g>
				<path class="st1" d="M135.7,113.1L147.5,67l1.3,0.5c3.5,1.3,11.7,4.6,12.9,6.9c2.4,4.2,2.1,27.3-4.4,33.7
					c-2.4,2.4-15.9,4.3-19.9,4.8L135.7,113.1z M149.3,70.4L139,110.1c7.6-1.1,15.5-2.7,16.6-3.8c5.4-5.4,5.8-27.2,3.9-30.7
					C159,74.7,154,72.3,149.3,70.4z"/>
			</g>
			<g>
				<path class="st1" d="M64.9,113.1l-1.8-0.2c-4.1-0.5-17.5-2.4-19.9-4.8c-6.4-6.4-6.7-29.4-4.4-33.7c1.2-2.2,9.5-5.5,12.9-6.9
					L53,67L64.9,113.1z M51.3,70.4c-4.8,1.9-9.7,4.3-10.3,5.2c-1.9,3.4-1.5,25.2,3.9,30.7c1.2,1.2,9,2.8,16.6,3.8L51.3,70.4z"/>
			</g>
			<g>
				<circle class="st0" cx="100.3" cy="82.8" r="51.7"/>
			</g>
			<g class="st8">
				<path class="st3" d="M151.9,82.8c0,28.5-23.1,51.7-51.7,51.7s-51.7-23.1-51.7-51.7c0-3,0.3-6,0.8-8.8
					c4.2,24.3,25.4,42.8,50.9,42.8s46.7-18.5,50.9-42.8C151.7,76.8,151.9,79.8,151.9,82.8z"/>
			</g>
			<g>
				<path class="st1" d="M100.3,135.7c-29.2,0-52.9-23.7-52.9-52.9c0-29.2,23.7-52.9,52.9-52.9c29.2,0,52.9,23.7,52.9,52.9
					C153.2,112,129.4,135.7,100.3,135.7z M100.3,32.4c-27.8,0-50.4,22.6-50.4,50.4c0,27.8,22.6,50.4,50.4,50.4
					c27.8,0,50.4-22.6,50.4-50.4C150.7,55,128.1,32.4,100.3,32.4z"/>
			</g>
			<g>
				<path class="st1" d="M100.3,135.7c-29.2,0-52.9-23.7-52.9-52.9c0-29.2,23.7-52.9,52.9-52.9c29.2,0,52.9,23.7,52.9,52.9
					C153.2,112,129.4,135.7,100.3,135.7z M100.3,32.4c-27.8,0-50.4,22.6-50.4,50.4c0,27.8,22.6,50.4,50.4,50.4
					c27.8,0,50.4-22.6,50.4-50.4C150.7,55,128.1,32.4,100.3,32.4z"/>
			</g>
			<g>
				<path class="st1" d="M100.3,135.7c-29.2,0-52.9-23.7-52.9-52.9c0-29.2,23.7-52.9,52.9-52.9c29.2,0,52.9,23.7,52.9,52.9
					C153.2,112,129.4,135.7,100.3,135.7z M100.3,32.4c-27.8,0-50.4,22.6-50.4,50.4c0,27.8,22.6,50.4,50.4,50.4
					c27.8,0,50.4-22.6,50.4-50.4C150.7,55,128.1,32.4,100.3,32.4z"/>
			</g>
			<g>
				<path class="st1" d="M150.1,70.5c-0.5,0-1-0.3-1.2-0.8c-8.2-18.9-27.3-31.2-48.7-31.2c-21.4,0-40.5,12.2-48.7,31.2
					c-0.3,0.6-1,0.9-1.6,0.7c-0.6-0.2-1-0.9-0.8-1.5c6.2-23,27.2-39,51.1-39c23.9,0,44.9,16.1,51.1,39.1c0.2,0.6-0.2,1.3-0.8,1.5
					C150.4,70.5,150.3,70.5,150.1,70.5z M100.3,36c16,0,30.8,6.5,41,17.5c-9.3-12.9-24.4-21.1-41-21.1c-16.6,0-31.7,8.2-41,21.1
					C69.5,42.5,84.3,36,100.3,36z"/>
			</g>
			<g>
				<path class="st3" d="M151.9,82.8c0,4.5-0.6,8.8-1.6,13c0,0,0,0,0,0c-9,17.3-28,32.2-50,32.2c-22,0-41.1-14.9-50-32.2
					c0,0,0,0,0,0c-1.1-4.1-1.6-8.5-1.6-13c0-2,0.1-3.9,0.3-5.8c7-19.3,27.3-33.2,51.3-33.2c24,0,44.4,14,51.3,33.3
					C151.8,78.9,151.9,80.8,151.9,82.8z"/>
			</g>
			<g class="st2">
				<path class="st19" d="M151.9,82.8c0,4.5-0.6,8.8-1.6,13c0,0,0,0,0,0c-9,17.3-28,32.2-50,32.2s-41.1-14.9-50-32.2c0,0,0,0,0,0
					c-0.6-2.5-1.1-5-1.4-7.6c11.6,13,28.4,22.5,47.2,22.5c23.9,0,44.7-15.4,55.5-33.9c0,0.1,0.1,0.2,0.1,0.3
					C151.8,78.9,151.9,80.8,151.9,82.8z"/>
			</g>
			<g class="st5">
				<ellipse transform="matrix(0.1583 -0.9874 0.9874 0.1583 35.505 205.717)" class="st0" cx="138.4" cy="82" rx="8.9" ry="6.4"/>
			</g>
			<g class="st5">
				
					<ellipse transform="matrix(0.2933 -0.956 0.956 0.2933 -2.8847 195.6593)" class="st0" cx="130.9" cy="99.8" rx="4.1" ry="3.5"/>
			</g>
			<g class="st5">
				<path class="st0" d="M60.9,97.7c0,0-8.5-25.4,5-35.9C79.5,51.4,99.3,51,98.9,52.3c0,0-21.8,5.8-30.1,23.3
					C62.5,89.1,60.9,97.7,60.9,97.7z"/>
			</g>
			<g>
				<path class="st1" d="M100.3,135.7c-24.1,0-45.2-16.3-51.2-39.6c0,0,0-0.1,0-0.1c-1.1-4.3-1.7-8.8-1.7-13.3c0-2,0.1-4,0.3-5.9
					c3-26.8,25.6-47,52.6-47c27,0,49.6,20.2,52.6,47c0.2,1.9,0.3,3.9,0.3,5.9c0,4.5-0.6,9-1.7,13.3c0,0,0,0.1,0,0.1
					C145.4,119.4,124.4,135.7,100.3,135.7z M51.5,95.4c5.7,22.2,25.8,37.7,48.8,37.7c23,0,43.1-15.5,48.8-37.7c0,0,0-0.1,0-0.1
					c1-4.1,1.6-8.3,1.6-12.6c0-1.9-0.1-3.8-0.3-5.6c-2.8-25.5-24.4-44.8-50.1-44.8c-25.7,0-47.2,19.2-50.1,44.8
					c-0.2,1.8-0.3,3.7-0.3,5.6c0,4.3,0.5,8.5,1.6,12.6C51.4,95.4,51.5,95.4,51.5,95.4z"/>
			</g>
		</g>
		<g>
			<path class="st0" d="M38.6,140.8c0,0-4.4,22.4,6.9,29.1c8.7,5.1,21.5-0.8,18.8-14c-1.6-7.7-6.2-10.1-5.7-23.3
				c-0.4-3.5-0.6-7-0.7-10.1c-0.5-10.6,0.2-16.6-3.5-17.5c-2.8-0.7-6,2.9-5.1,11.3C49.4,116.3,24.4,120.9,38.6,140.8z"/>
		</g>
		<g class="st8">
			<path class="st3" d="M45.6,169.9c-3.6-2.1-5.6-5.9-6.7-10c1.2,2.3,2.8,4.2,5.1,5.6c8.7,5.1,21.5-0.8,18.8-14
				c-0.1-0.5-0.2-0.9-0.3-1.4c0.8,1.8,1.5,3.6,2,5.8C67.1,169.1,54.3,175.1,45.6,169.9z"/>
		</g>
		<g>
			<path class="st1" d="M52.3,173.1c-2.6,0-5.2-0.7-7.4-2c-11.1-6.5-8.3-26.3-7.7-29.9c-4.1-6-5.3-11.3-3.5-15.8
				c2.7-6.6,11-9.3,14.2-10.1c-0.3-4.8,0.7-8.5,2.8-10.4c1.2-1,2.6-1.4,4-1.1c4,0.9,4.1,5.5,4.3,13.1c0,1.7,0.1,3.6,0.2,5.6
				c0.2,3.5,0.4,6.9,0.7,10.1c0,0.1,0,0.1,0,0.2c-0.4,8.2,1.4,12.1,3.1,15.8c1,2.1,1.9,4.3,2.5,7.2c1.3,6.2-0.6,11.6-5.1,14.8
				C58.2,172.2,55.3,173.1,52.3,173.1z M53.8,106.3c-0.4,0-0.9,0.2-1.3,0.5c-0.6,0.5-2.5,2.8-1.8,9.3c0.1,0.7-0.4,1.3-1.1,1.5
				c-0.1,0-10.7,2.1-13.4,8.8c-1.5,3.7-0.3,8.3,3.5,13.7c0.2,0.3,0.3,0.7,0.2,1c0,0.2-4.1,21.6,6.3,27.7c4,2.4,9.1,2.2,12.8-0.4
				c3.6-2.6,5.1-7,4-12.1c-0.5-2.6-1.4-4.5-2.4-6.6c-1.8-4-3.7-8.1-3.3-16.9c-0.3-3.2-0.6-6.6-0.7-10.1c-0.1-2.1-0.1-4-0.2-5.7
				c-0.2-6.8-0.4-10.1-2.3-10.6C54,106.3,53.9,106.3,53.8,106.3z"/>
		</g>
		<g>
			<path class="st0" d="M51.9,129.7c-4.6,3.9-14.9,6.3-17.2,3.3c-2.2-2.9-1.9-6.9-0.4-9.7c2.2-4.2,12.8-8.1,15.1-6.9
				C52.6,117.9,55,127.1,51.9,129.7z"/>
		</g>
		<g class="st8">
			<path class="st3" d="M51.9,129.7c-4.6,3.9-14.9,6.3-17.2,3.3c-0.5-0.7-0.9-1.5-1.2-2.3c2.6,2.6,11.7,0.7,16.1-3.1
				c-3.3-4.3,0.3-6.8,1.7-9.2C53.4,121.6,54.3,127.6,51.9,129.7z"/>
		</g>
		<g>
			<path class="st1" d="M38.9,135.6c-0.5,0-0.9,0-1.3-0.1c-1.8-0.2-3.1-0.8-3.9-1.8c-2.6-3.4-2.2-8.1-0.6-11.2
				c2.4-4.6,13.7-9.1,16.9-7.5c2.6,1.3,4.2,5.4,4.6,8.7c0.4,3.1-0.3,5.6-1.8,6.9C49.4,133.5,43.4,135.6,38.9,135.6z M48.3,117.4
				c-1,0-3.2,0.4-6,1.6c-3.4,1.4-6,3.3-6.8,4.8c-1.2,2.3-1.6,5.8,0.3,8.3c0.3,0.4,1.1,0.7,2.1,0.8c3.8,0.4,10.1-1.6,13.2-4.3
				c0,0,0,0,0,0c0.8-0.7,1.1-2.4,0.9-4.5c-0.4-3.2-1.9-6.1-3.2-6.7C48.7,117.4,48.5,117.4,48.3,117.4z"/>
		</g>
		<g>
			<path class="st0" d="M56.7,136.7c3.5-2.6,5.9-6.5,6.2-9.2c0.3-2.8-0.5-6-2.5-7.1c-2.6-1.4-11.2,1-10.2,4.6
				c0.8,2.9,5.3,2.3,5.3,2.3s-6.3,2.1-5.9,6.8"/>
		</g>
		<g>
			<path class="st1" d="M56.4,136.3c2.5-2.2,4.8-5.1,5.5-8.5c0.2-1.7,0-3.6-0.7-5.2c-0.6-1.3-1.5-1.7-3-1.7c-2.1,0.1-4.4,0.7-6.1,2
				c-1,0.8-1.2,1.7-0.4,2.5c0.6,0.6,1.8,0.8,2.7,0.8c0.3,0,0.7,0,1.1,0c0.6-0.1,1.1,0.4,1.2,0.9c0.1,0.5-0.2,1-0.7,1.1
				c-0.6,0.2-1.4,0.6-2,0.9c-1.9,1-3.3,2.8-3.8,4.9c-0.1,0.3-0.4,0.4-0.6,0.4c-0.2,0-0.3-0.2-0.3-0.3c-0.3-0.9-0.3-1.9,0-2.8
				c1-2.6,3.5-4.1,6-5.1c0,0,0.5,2.1,0.5,2.1c-0.9,0.1-1.8,0.1-2.7,0c-2.1-0.3-4.2-1.9-3.9-4.3c0.3-2.1,2.3-3.2,4-3.9
				c2.3-0.9,5.6-1.6,7.9-0.5c2.5,1.5,3.1,4.7,2.9,7.4c-0.2,2.6-1.6,5-3.2,6.9c-1.1,1.3-2.3,2.4-3.7,3.3c-0.2,0.1-0.5,0.1-0.7-0.1
				C56.2,136.7,56.3,136.5,56.4,136.3L56.4,136.3z"/>
		</g>
		<g>
			<g>
				<path class="st0" d="M56.8,125.3c-1.2,0.7-1.9,2.3-0.1,2.9"/>
			</g>
			<g>
				<path class="st1" d="M56.8,125.3c-0.5,0.7-1.2,1.4-0.7,2.2c0.1,0.2,0.4,0.4,0.6,0.7C54.6,128.2,55,125.5,56.8,125.3L56.8,125.3z
					"/>
			</g>
		</g>
	</g>
	<g>
		<g>
			<g>
				<path class="st1" d="M156.2,51.3c-0.2-0.1,0.3-1,1.1-2c0.8-1,1.6-1.7,1.7-1.6c0.2,0.1-0.3,1-1.1,2
					C157.2,50.7,156.4,51.4,156.2,51.3z"/>
			</g>
		</g>
		<g>
			<g>
				<path class="st1" d="M154,48.7c-0.1-0.1,0.3-0.8,0.9-1.4c0.7-0.6,1.3-1,1.4-0.9c0.1,0.1-0.3,0.8-0.9,1.4
					C154.7,48.5,154.1,48.9,154,48.7z"/>
			</g>
		</g>
		<g>
			<g>
				<path class="st1" d="M145,50c-0.1-0.2,2-1.7,4.7-3.5c2.7-1.7,5-3,5.1-2.8c0.1,0.2-2,1.7-4.7,3.5C147.4,48.9,145.2,50.2,145,50z"
					/>
			</g>
		</g>
		<g>
			<g>
				<path class="st1" d="M150,41.3c-0.1-0.2,0.7-0.8,1.8-1.3c1.1-0.6,2-0.9,2.1-0.7c0.1,0.2-0.7,0.8-1.8,1.3
					C151.1,41.2,150.1,41.5,150,41.3z"/>
			</g>
		</g>
		<g>
			<g>
				<path class="st1" d="M147.4,34.7c0-0.2,1.7-0.4,3.7-0.4c2.1,0,3.8,0.1,3.8,0.3c0,0.2-1.7,0.4-3.7,0.4
					C149.1,35,147.4,34.9,147.4,34.7z"/>
			</g>
		</g>
		<g>
			<g>
				<path class="st1" d="M153.2,30.3c0-0.2,0.5-0.4,1.1-0.4c0.6,0,1.1,0.2,1.2,0.4c0,0.2-0.5,0.4-1.1,0.4
					C153.8,30.6,153.2,30.5,153.2,30.3z"/>
			</g>
		</g>
		<g>
			<g>
				<path class="st1" d="M148.8,22.7c0.1-0.2,2.2,0.5,4.6,1.5c2.5,1,4.4,2,4.3,2.2c-0.1,0.2-2.2-0.5-4.6-1.5
					C150.6,23.8,148.7,22.8,148.8,22.7z"/>
			</g>
		</g>
		<g>
			<g>
				<path class="st1" d="M156.7,21.9c0.1-0.2,0.7-0.1,1.4,0.1c0.7,0.3,1.2,0.6,1.1,0.8c-0.1,0.2-0.7,0.1-1.4-0.1
					C157.2,22.5,156.7,22.1,156.7,21.9z"/>
			</g>
		</g>
		<g>
			<g>
				<path class="st1" d="M159.3,18.1c0.1-0.1,0.8,0.3,1.5,0.9c0.7,0.6,1.1,1.3,1,1.4c-0.1,0.1-0.8-0.3-1.5-0.9
					C159.6,18.9,159.2,18.3,159.3,18.1z"/>
			</g>
		</g>
		<g>
			<g>
				<path class="st1" d="M163.2,15.9c0.2-0.1,0.8,0.5,1.4,1.4c0.6,0.9,1,1.7,0.8,1.8c-0.2,0.1-0.8-0.5-1.4-1.4
					C163.4,16.8,163,16,163.2,15.9z"/>
			</g>
		</g>
		<g>
			<g>
				<path class="st1" d="M175.8,11.9c0.2,0,0.4,1.1,0.3,2.4c0,1.3-0.2,2.4-0.4,2.4c-0.2,0-0.4-1.1-0.3-2.4
					C175.5,13,175.6,11.9,175.8,11.9z"/>
			</g>
		</g>
		<g>
			<g>
				<path class="st1" d="M187.6,16.3c0.2,0.1-0.2,1-0.9,1.9c-0.7,0.9-1.3,1.5-1.5,1.4c-0.2-0.1,0.2-1,0.9-1.9
					C186.8,16.8,187.4,16.2,187.6,16.3z"/>
			</g>
		</g>
		<g>
			<g>
				<path class="st1" d="M194.9,26.8c0,0.2-0.5,0.4-1.2,0.5c-0.7,0.1-1.3,0-1.3-0.2c0-0.2,0.5-0.4,1.2-0.5
					C194.3,26.5,194.9,26.6,194.9,26.8z"/>
			</g>
		</g>
		<g>
			<g>
				<path class="st1" d="M199.4,29.9c0,0.2-1.1,0.6-2.5,1c-1.4,0.3-2.6,0.4-2.7,0.2c0-0.2,1.1-0.6,2.5-1
					C198.1,29.8,199.3,29.7,199.4,29.9z"/>
			</g>
		</g>
		<g>
			<g>
				<path class="st1" d="M198.3,33.9c0,0.2-0.5,0.4-1.2,0.4c-0.7,0-1.2-0.1-1.2-0.3c0-0.2,0.5-0.4,1.2-0.4
					C197.7,33.6,198.3,33.7,198.3,33.9z"/>
			</g>
		</g>
		<g>
			<g>
				<path class="st1" d="M196.7,43.5c-0.1,0.2-0.7,0-1.4-0.4c-0.7-0.4-1.1-0.8-1-1c0.1-0.2,0.7,0,1.4,0.4
					C196.3,42.9,196.8,43.4,196.7,43.5z"/>
			</g>
		</g>
		<g>
			<g>
				<path class="st1" d="M192.3,54.4c-0.2,0.1-0.8-0.7-1.3-1.7s-0.9-1.9-0.7-2c0.2-0.1,0.8,0.7,1.3,1.7
					C192.1,53.4,192.4,54.3,192.3,54.4z"/>
			</g>
		</g>
		<g>
			<g>
				<path class="st1" d="M181.1,61.8c-0.2,0-0.4-1.5-0.4-3.3c0-1.8,0.1-3.3,0.3-3.3c0.2,0,0.4,1.5,0.4,3.3
					C181.4,60.3,181.3,61.8,181.1,61.8z"/>
			</g>
		</g>
		<g>
			<g>
				<path class="st1" d="M184.7,58.7c-0.2,0-0.5-0.7-0.6-1.5c-0.1-0.9-0.1-1.6,0.1-1.6c0.2,0,0.5,0.7,0.6,1.5
					C185,58,184.9,58.7,184.7,58.7z"/>
			</g>
		</g>
		<g>
			<g>
				<path class="st1" d="M190.8,63.9c-0.2,0.1-1.3-2-2.4-4.7c-1.2-2.7-1.9-4.9-1.8-5c0.2-0.1,1.3,2,2.4,4.7
					C190.2,61.6,191,63.8,190.8,63.9z"/>
			</g>
		</g>
		<g>
			<g>
				<path class="st1" d="M197,49.9c-0.1,0.2-1.2-0.4-2.4-1.3c-1.2-0.9-2.1-1.8-2-1.9c0.1-0.2,1.2,0.4,2.4,1.3
					C196.3,48.8,197.1,49.7,197,49.9z"/>
			</g>
		</g>
		<g>
			<g>
				<path class="st1" d="M204.2,39.4c0,0.2-2.2,0-4.8-0.4c-2.6-0.4-4.7-0.9-4.6-1.1c0-0.2,2.2,0,4.8,0.4
					C202.1,38.7,204.2,39.2,204.2,39.4z"/>
			</g>
		</g>
		<g>
			<g>
				<path class="st1" d="M200.7,19.9c0.1,0.2-2.3,1.4-5.3,2.6c-3,1.3-5.5,2.1-5.6,1.9c-0.1-0.2,2.3-1.4,5.3-2.6
					C198.1,20.5,200.6,19.7,200.7,19.9z"/>
			</g>
		</g>
		<g>
			<g>
				<path class="st1" d="M169.2,17.9c-0.2,0.1-1.6-1.9-3.1-4.4c-1.6-2.5-2.7-4.6-2.6-4.7c0.2-0.1,1.6,1.8,3.2,4.3
					C168.2,15.7,169.3,17.8,169.2,17.9z"/>
			</g>
		</g>
		<g>
			<g>
				<path class="st1" d="M183.3,2.6c0.2,0-0.3,3.2-1.1,7.1c-0.8,3.9-1.7,7-1.9,7c-0.2,0,0.3-3.2,1.1-7.1
					C182.2,5.7,183.1,2.6,183.3,2.6z"/>
			</g>
		</g>
		<g>
			<path class="st20" d="M164.4,54.6c0.1,1.3,0.3,2.8,0.4,3.7c0,0.4,0.3,0.8,0.7,1.1c0.8,0.6,2.3,1.4,4.2,1.5c0.6,0,1-0.2,1.3-0.6
				l2-3.1c0.5-0.8,0-1.9-1.1-2.2l-5.6-1.6C165.3,52.9,164.2,53.6,164.4,54.6z"/>
		</g>
		<g>
			<path class="st1" d="M169.7,61.6C169.7,61.6,169.6,61.6,169.7,61.6c-2.3,0-3.9-1-4.7-1.6c-0.5-0.4-0.9-1-0.9-1.6
				c-0.1-0.8-0.2-2.4-0.4-3.7l0,0c-0.1-0.7,0.2-1.3,0.7-1.7c0.6-0.5,1.4-0.6,2.2-0.4l5.6,1.6c0.8,0.2,1.4,0.8,1.7,1.5
				c0.2,0.6,0.2,1.3-0.2,1.8l-2,3.1C171.2,61.2,170.5,61.6,169.7,61.6z M165.1,54.5c0.1,1.3,0.3,2.8,0.4,3.7c0,0.2,0.2,0.4,0.4,0.6
				c0.7,0.5,2,1.3,3.8,1.3c0.3,0,0.6-0.1,0.7-0.3l2-3.1c0.1-0.2,0.1-0.4,0-0.5c-0.1-0.3-0.4-0.5-0.7-0.6l-5.6-1.6
				c-0.3-0.1-0.7,0-0.9,0.1C165.2,54.1,165,54.3,165.1,54.5L165.1,54.5z"/>
		</g>
		<g>
			<path class="st20" d="M163.1,46.1c0.1,2.6,0.2,5.8,0.2,7.5c0,0.9,0.4,1.7,1.1,2.2c1.3,1.1,3.9,2.8,7.6,2.8c1,0,2-0.5,2.5-1.4
				l4.2-6.5c1.1-1.7,0.2-3.9-1.7-4.5l-10-3C165,42.5,163,44,163.1,46.1z"/>
		</g>
		<g class="st21">
			<path class="st3" d="M176.9,46.1l-0.8-0.2c0.4,0.9,0.4,2-0.2,2.9l-4.2,6.5c-0.5,0.9-1.5,1.4-2.5,1.4c-2.1,0-3.9-0.6-5.3-1.3
				c0.1,0.1,0.2,0.2,0.3,0.3c1.3,1.1,3.9,2.8,7.6,2.8c1,0,2-0.5,2.5-1.4l4.2-6.5C179.6,48.9,178.8,46.7,176.9,46.1z"/>
		</g>
		<g class="st22">
			<path class="st0" d="M166.5,56c-0.7-0.5-1-1.4-1.1-2.2c0-1.7-0.1-4.9-0.2-7.5c0-1.5,1-2.7,2.3-3l-0.6-0.2c-2-0.6-3.9,0.9-3.9,3
				c0.1,2.6,0.2,5.8,0.2,7.5c0,0.9,0.4,1.7,1.1,2.2c1.3,1.1,3.8,2.7,7.2,2.8C169.2,58,167.5,56.8,166.5,56z"/>
		</g>
		<g>
			<path class="st1" d="M171.8,59.4c-3.9,0-6.7-1.8-8-3c-0.8-0.7-1.3-1.7-1.4-2.8c0-1.7-0.1-4.9-0.2-7.5l0,0c0-1.3,0.5-2.4,1.5-3.2
				c1-0.8,2.3-1,3.5-0.6l10,3c1.2,0.4,2.1,1.2,2.5,2.4c0.4,1.1,0.3,2.4-0.4,3.4l-4.2,6.5c-0.7,1.1-1.9,1.8-3.2,1.8
				C171.9,59.4,171.8,59.4,171.8,59.4z M166.1,43.8c-0.5,0-0.9,0.2-1.3,0.4c-0.6,0.4-0.9,1.1-0.8,1.8c0,0,0,0,0,0
				c0.1,2.6,0.2,5.8,0.2,7.5c0,0.6,0.3,1.2,0.7,1.6c1.2,1,3.6,2.6,7,2.6c0.7,0,1.4-0.4,1.8-1l4.2-6.5c0.4-0.6,0.4-1.3,0.2-1.9
				c-0.2-0.6-0.7-1.1-1.4-1.3l-10-3C166.5,43.9,166.3,43.8,166.1,43.8z"/>
		</g>
		<g>
			<g>
				<path class="st1" d="M174.7,56.6c0,0.1-0.2,0.1-0.5,0.2c-0.2,0-0.3,0.1-0.6,0.1c-0.2,0-0.5,0-0.8,0c-1.1,0-2.7-0.2-4.4-0.7
					c-1.7-0.6-3-1.4-3.9-2c-0.9-0.7-1.4-1.2-1.3-1.3c0.1-0.2,2.3,1.5,5.5,2.6c1.6,0.5,3.1,0.8,4.2,0.9c0.3,0,0.5,0.1,0.7,0.1
					c0.2,0,0.4,0,0.6,0C174.5,56.6,174.7,56.6,174.7,56.6z"/>
			</g>
		</g>
		<g>
			<g>
				<path class="st1" d="M176.1,54.4c0,0.1-0.2,0.1-0.6,0.1c-0.4,0-0.9,0.1-1.6,0.1c-1.3,0-3.1-0.3-5-1.1c-0.9-0.4-1.8-0.8-2.5-1.3
					c-0.7-0.5-1.4-0.9-1.9-1.4c-1-0.8-1.5-1.5-1.4-1.6c0.1-0.1,0.7,0.5,1.7,1.2c0.5,0.4,1.2,0.8,1.9,1.2c0.7,0.4,1.6,0.8,2.5,1.2
					c1.8,0.7,3.5,1.1,4.8,1.2c0.6,0.1,1.1,0.1,1.5,0.2C175.9,54.3,176.1,54.4,176.1,54.4z"/>
			</g>
		</g>
		<g>
			<circle class="st23" cx="174.3" cy="36.8" r="13.8"/>
		</g>
		<g>
			<g class="st21">
				<path class="st3" d="M161.8,42.8c1.1,1.6,2.6,3,4.4,4c6.6,3.8,15.1,1.5,18.9-5.1c0.7-1.2,1.2-2.5,1.5-3.7
					c0.1-0.1,0.1-0.2,0.2-0.3c-3.8,6.6-12.2,8.9-18.9,5.1c-2.5-1.4-4.4-3.6-5.6-6l0,0c-0.6-0.9-1.1-1.9-1.5-2.9
					c0-0.2,0.1-0.4,0.1-0.6c-0.9,3.3-0.4,6.8,1.1,9.8C161.9,43,161.9,42.9,161.8,42.8z"/>
			</g>
		</g>
		<g class="st5">
			<path class="st0" d="M184.2,27.2c-0.9-0.9-1.9-1.7-3-2.4c-3.7-2.1-8-2.3-11.7-0.9c-2.9,1.1-5.5,3.2-7.1,6.1
				c-0.8,1.4-1.3,2.8-1.6,4.3c0.3-0.7,0.6-1.3,0.9-2c2.2-3.8,5.9-6.2,9.9-6.8c1.2,0.7,2.5,1.2,4.1,1.7c2.2,0.7,4.4,0.9,6.1,0.7
				c4.5,3.2,6.5,8.7,5.5,13.9C189.1,36.7,187.9,31,184.2,27.2z"/>
		</g>
		<g>
			<path class="st1" d="M174.3,51.4c-0.3,0-0.6-0.2-0.7-0.5c-0.5-1.2-0.7-2.5-0.6-3.6c-0.9-0.1-1.9-0.5-2.9-1
				c-0.9,1.5-1.8,2.7-2.1,2.9c-0.3,0.3-0.7,0.3-1,0.1c-0.3-0.3-0.3-0.7-0.1-1c0.7-0.8,1.4-1.8,1.9-2.8c-1.9-1.4-1.9-3-1.7-3.6
				c0.2-1.2,1.1-2.1,2.1-2.3c0.8-0.1,1.6,0.2,2,1c0.7,1.2,0.2,2.8-0.5,4.4c0.8,0.4,1.7,0.7,2.4,0.8c0.4-2.1,1.5-3.6,2.7-4.2
				c1.1-0.5,2.1-0.2,2.8,0.9c0.7,1.2,0.5,2.5-0.4,3.4c-0.8,0.8-2.1,1.4-3.7,1.4c0,0.9,0.1,1.9,0.5,3c0.1,0.4,0,0.8-0.4,0.9
				C174.4,51.3,174.3,51.4,174.3,51.4z M176.8,42.9c-0.1,0-0.2,0-0.4,0.1c-0.7,0.3-1.5,1.5-1.9,3c1.1-0.1,2-0.4,2.5-1
				c0.4-0.4,0.7-1,0.2-1.7C177.2,43,177,42.9,176.8,42.9z M169.5,41.1C169.5,41.1,169.4,41.1,169.5,41.1c-0.5,0.1-0.9,0.5-1,1.1
				c-0.1,0.7,0.2,1.4,1,2.1c0.5-1.2,0.8-2.3,0.5-2.9C169.8,41.1,169.6,41.1,169.5,41.1z"/>
		</g>
		<g>
			<path class="st1" d="M174.3,51.5c-2.5,0-5-0.7-7.3-2c-3.4-2-5.8-5.1-6.9-8.9c-1-3.8-0.5-7.7,1.4-11.1c2-3.4,5.1-5.8,8.9-6.9
				c3.8-1,7.7-0.5,11.1,1.4c3.4,2,5.8,5.1,6.9,8.9c1,3.8,0.5,7.7-1.4,11.1c-2,3.4-5.1,5.8-8.9,6.9C176.9,51.3,175.6,51.5,174.3,51.5
				z M174.3,23.8c-1.1,0-2.3,0.2-3.4,0.5c-3.3,0.9-6.1,3.1-7.9,6.1c-1.7,3-2.2,6.5-1.3,9.8c0.9,3.3,3.1,6.1,6.1,7.9
				c3,1.7,6.5,2.2,9.8,1.3c3.3-0.9,6.1-3.1,7.9-6.1l0,0c1.7-3,2.2-6.5,1.3-9.8c-0.9-3.3-3.1-6.1-6.1-7.9
				C178.7,24.4,176.5,23.8,174.3,23.8z"/>
		</g>
	</g>
	<g>
		<path class="st24" d="M22.7,65.3L9.2,53c-2.4,1.8-3.2,8-3.2,8l13.6,8.6C20.4,67.8,21.6,66.3,22.7,65.3z"/>
		<path class="st1" d="M19.7,70.3c-0.1,0-0.2,0-0.3-0.1L5.7,61.6c-0.2-0.1-0.3-0.4-0.3-0.6c0-0.3,0.8-6.6,3.4-8.5
			c0.2-0.2,0.6-0.2,0.8,0l13.4,12.3c0.1,0.1,0.2,0.3,0.2,0.5c0,0.2-0.1,0.4-0.2,0.5c-0.9,0.9-2.2,2.3-2.8,4
			c-0.1,0.2-0.2,0.3-0.4,0.4C19.9,70.2,19.8,70.3,19.7,70.3z M6.8,60.7l12.6,8c0.6-1.4,1.5-2.5,2.3-3.3L9.2,53.9
			C7.8,55.4,7,58.9,6.8,60.7z"/>
	</g>
	<g>
		<path class="st24" d="M25.9,68.4c-1.4,0.7-2.4,2-3,3.3l3.8,2.4c0.4-1.7,2.3-2.8,2.3-2.8L25.9,68.4z"/>
		<path class="st1" d="M26.7,74.7c-0.1,0-0.2,0-0.3-0.1l-3.8-2.4c-0.3-0.2-0.4-0.5-0.2-0.8c0.8-1.7,1.9-2.9,3.3-3.6
			c0.2-0.1,0.5-0.1,0.7,0.1l3.1,2.8c0.1,0.1,0.2,0.3,0.2,0.5c0,0.2-0.1,0.4-0.3,0.5c0,0-1.7,1.1-2,2.4c0,0.2-0.2,0.4-0.4,0.5
			C26.9,74.7,26.8,74.7,26.7,74.7z M23.8,71.4l2.6,1.7c0.4-0.8,1.1-1.5,1.6-1.9l-2.2-2C25,69.7,24.3,70.4,23.8,71.4z"/>
	</g>
	<g>
		<path class="st24" d="M19.1,78.5L4.6,79.2c-0.4,2.4,2.8,6.3,2.8,6.3l12.5-2.9C19.2,81.2,19.1,79.7,19.1,78.5z"/>
		<path class="st1" d="M7.4,86.1c-0.2,0-0.4-0.1-0.5-0.2c-0.3-0.4-3.3-4.2-2.9-6.8c0-0.3,0.3-0.5,0.6-0.5l14.5-0.7
			c0.2,0,0.4,0.1,0.5,0.2c0.1,0.1,0.2,0.3,0.2,0.5c0,1,0.1,2.5,0.7,3.8c0.1,0.2,0.1,0.4,0,0.6c-0.1,0.2-0.2,0.3-0.4,0.4L7.5,86.1
			C7.5,86.1,7.4,86.1,7.4,86.1z M5.3,79.8c0.1,1.6,1.6,3.8,2.4,5L19,82.2c-0.4-1-0.5-2.1-0.5-2.9L5.3,79.8z"/>
	</g>
	<g>
		<path class="st24" d="M22.7,78.4c-0.4,1.2-0.2,2.5,0.2,3.5l3.5-0.8C25.6,80,26,78.2,26,78.2L22.7,78.4z"/>
		<path class="st1" d="M22.9,82.6c-0.3,0-0.5-0.2-0.6-0.4c-0.5-1.4-0.6-2.7-0.2-4c0.1-0.3,0.3-0.4,0.6-0.4l3.3-0.2
			c0.2,0,0.4,0.1,0.5,0.2c0.1,0.2,0.2,0.4,0.1,0.6c-0.1,0.4-0.2,1.7,0.2,2.4c0.1,0.2,0.1,0.4,0.1,0.6s-0.2,0.3-0.4,0.4L23,82.5
			C23,82.6,22.9,82.6,22.9,82.6z M23.2,79c-0.1,0.7-0.1,1.4,0.1,2.2l2.2-0.5c-0.2-0.6-0.2-1.3-0.2-1.8L23.2,79z"/>
	</g>
	<g>
		<path class="st24" d="M30.3,52.7l-4.2-13.9C23.8,39,20.7,43,20.7,43l5.8,11.4C27.8,53.4,29.2,52.9,30.3,52.7z"/>
		<path class="st1" d="M26.6,55.1c0,0-0.1,0-0.1,0c-0.2,0-0.4-0.2-0.4-0.3l-5.8-11.4c-0.1-0.2-0.1-0.5,0.1-0.7
			c0.3-0.4,3.3-4.2,5.9-4.5c0.3,0,0.6,0.2,0.7,0.5l4.2,13.9c0.1,0.2,0,0.4-0.1,0.5c-0.1,0.2-0.2,0.3-0.4,0.3c-1,0.2-2.4,0.7-3.5,1.6
			C26.9,55,26.7,55.1,26.6,55.1z M21.5,43.1l5.3,10.4c0.9-0.6,1.9-1,2.7-1.2l-3.8-12.7C24.2,40,22.4,42,21.5,43.1z"/>
	</g>
	<g>
		<path class="st24" d="M31.3,56.1c-1.3-0.1-2.4,0.4-3.4,1l1.6,3.2c0.9-1,2.7-1,2.7-1L31.3,56.1z"/>
		<path class="st1" d="M29.6,60.9C29.5,60.9,29.5,60.9,29.6,60.9c-0.3,0-0.5-0.2-0.6-0.4l-1.6-3.2c-0.1-0.3-0.1-0.6,0.2-0.8
			c1.2-0.8,2.5-1.2,3.8-1.1c0.3,0,0.5,0.2,0.6,0.5l1,3.2c0.1,0.2,0,0.4-0.1,0.6c-0.1,0.2-0.3,0.3-0.5,0.3c-0.4,0-1.7,0.2-2.3,0.8
			C29.9,60.9,29.7,60.9,29.6,60.9z M28.8,57.4l1,2c0.6-0.3,1.2-0.5,1.7-0.6l-0.6-2C30.2,56.8,29.5,57,28.8,57.4z"/>
	</g>
	<g>
		<polygon class="st3" points="109.5,175.3 103.9,168 103.9,164.9 109.2,158 117.1,158 110.1,166.2 117.6,175.3 		"/>
		<path class="st1" d="M114.6,159.1l-6,7.1l6.5,7.9h-5.1l-5.1-6.5v-2.3l4.7-6.2H114.6 M119.5,156.8h-4.9h-4.9h-1.1l-0.7,0.9
			l-4.7,6.2l-0.5,0.6v0.8v2.3v0.8l0.5,0.6l5.1,6.5l0.7,0.9h1.1h5.1h4.8l-3.1-3.7l-5.3-6.5l4.8-5.7L119.5,156.8L119.5,156.8z"/>
	</g>
	<g>
		<polygon class="st15" points="83.9,175.3 90.9,167 83.4,158 91.5,158 97.1,165.2 97.1,168.3 91.8,175.3 		"/>
		<path class="st1" d="M90.9,159.1l5.1,6.5v2.3l-4.7,6.2h-4.9l6-7.1l-6.5-7.9H90.9 M92,156.8h-1.1h-5.1H81l3.1,3.7l5.3,6.5l-4.8,5.7
			l-3.1,3.7h4.9h4.9h1.1l0.7-0.9l4.7-6.2l0.5-0.6V168v-2.3v-0.8l-0.5-0.6l-5.1-6.5L92,156.8L92,156.8z"/>
	</g>
	<g>
		<polygon class="st11" points="100.2,181.1 91.9,188 91.9,180.2 98.9,174.9 102,174.9 109.3,180.5 109.3,188.5 		"/>
		<path class="st1" d="M101.6,176l6.5,5.1v5.1l-7.9-6.5l-7.1,6v-4.9l6.2-4.7H101.6 M102.4,173.7h-0.8h-2.3h-0.8l-0.6,0.5l-6.2,4.7
			l-0.9,0.7v1.1v4.9v4.9l3.7-3.1l5.7-4.8l6.5,5.3l3.7,3.1v-4.8V181v-1.1l-0.9-0.7l-6.5-5.1L102.4,173.7L102.4,173.7z"/>
	</g>
	<g>
		<polygon class="st16" points="98.9,158.5 91.6,152.8 91.6,144.8 100.7,152.2 109,145.3 109,153.1 102,158.5 		"/>
		<path class="st1" d="M92.8,147.2l7.9,6.5l7.1-6v4.9l-6.2,4.7h-2.3l-6.5-5.1V147.2 M90.5,142.4v4.8v5.1v1.1l0.9,0.7l6.5,5.1
			l0.6,0.5h0.8h2.3h0.8l0.6-0.5l6.2-4.7l0.9-0.7v-1.1v-4.9v-4.9l-3.7,3.1l-5.7,4.8l-6.5-5.3L90.5,142.4L90.5,142.4z"/>
	</g>
	<g>
		<g>
			<path class="st0" d="M92.8,60.4c-3.4-4.5-8.8-7.1-14.1-6.8c-5.4,0.3-10.5,3.5-13.4,8.4c-3.4,5.7-3.5,13.4-0.3,19.2
				c3.2,5.8,9.5,9.4,15.7,9c6.2-0.4,12.1-4.9,14.5-11.1C97.6,73,96.6,65.6,92.8,60.4z"/>
			<path class="st25" d="M92.3,60.8c0,0-0.3-0.3-0.8-0.9c-0.3-0.3-0.6-0.7-1-1c-0.4-0.3-0.9-0.8-1.5-1.2c-1.2-0.8-2.7-1.7-4.6-2.3
				c-1.9-0.5-4.1-0.9-6.5-0.6c-0.3,0-0.6,0.1-1,0.1c-0.3,0.1-0.6,0.1-0.9,0.2c-0.3,0.1-0.6,0.1-0.9,0.2c-0.3,0.1-0.6,0.2-0.9,0.3
				c-0.3,0.1-0.6,0.2-0.9,0.3c-0.3,0.2-0.6,0.3-0.9,0.5c-0.6,0.3-1.2,0.7-1.8,1.1c-2.3,1.6-4.3,3.9-5.7,6.8
				c-1.3,2.8-1.9,6.1-1.7,9.4c0.2,3.3,1.2,6.7,3.3,9.4c2,2.7,4.9,4.8,8.1,5.9c3.2,1.1,6.6,1.2,9.6,0.1c3-1,5.6-2.9,7.4-5.1l0.7-0.8
				c0.2-0.3,0.4-0.6,0.6-0.9c0.4-0.6,0.8-1.2,1-1.8c0.3-0.6,0.6-1.2,0.8-1.8c0.2-0.6,0.4-1.3,0.6-1.9c0.5-2.4,0.6-4.8,0.4-6.8
				c-0.1-1-0.4-2-0.5-2.8c-0.3-0.8-0.5-1.6-0.8-2.3c-0.3-0.7-0.6-1.2-0.8-1.8c-0.2-0.5-0.5-0.9-0.7-1.2
				C92.5,61.2,92.3,60.8,92.3,60.8L92.3,60.8z M93.3,60.1c0,0,0.2,0.4,0.7,1.1c0.2,0.4,0.5,0.8,0.8,1.3c0.3,0.5,0.6,1.2,0.9,1.9
				c0.3,0.7,0.5,1.6,0.8,2.5c0.2,0.9,0.4,1.9,0.5,3c0.2,2.2,0.1,4.6-0.5,7.3c-0.2,0.6-0.4,1.2-0.6,1.9c-0.2,0.7-0.6,1.3-0.9,2
				c-0.3,0.7-0.7,1.3-1.1,1.9c-0.2,0.3-0.4,0.6-0.6,0.9l-0.8,0.9c-2,2.3-4.7,4.3-7.9,5.4c-3.2,1.1-6.9,1-10.1-0.2
				c-3.3-1.2-6.2-3.4-8.4-6.2c-2.1-2.8-3.5-6.2-3.9-9.7c-0.4-3.5-0.1-7,1.2-10.3c1.2-3.1,3.4-5.9,5.9-7.8c0.6-0.5,1.3-0.9,2-1.3
				c0.3-0.2,0.7-0.4,1-0.6c0.4-0.1,0.7-0.3,1.1-0.4c0.4-0.1,0.7-0.3,1.1-0.4c0.4-0.1,0.8-0.2,1.1-0.3c0.4-0.1,0.7-0.2,1.1-0.3
				c0.3,0,0.7-0.1,1-0.1c0.3,0,0.6-0.1,1-0.1c0.2,0,0.1,0,0.1,0c0.1,0,0.2,0,0.2,0l0.3,0l0.5,0c0.7,0,1.3,0,2,0.2
				c0.6,0.1,1.3,0.2,1.8,0.4c0.6,0.2,1.1,0.4,1.7,0.6c2.1,0.9,3.7,2,4.9,3.1c0.6,0.5,1.1,1.1,1.5,1.5c0.5,0.4,0.7,0.9,1,1.2
				C93,59.7,93.3,60,93.3,60.1L93.3,60.1z"/>
		</g>
		<path class="st26" d="M94.8,78.7c0.6-1.5,0.9-3,1.1-4.7c-0.2,0.8-0.6,1.8-0.9,2.5c-2.4,6.3-8.3,10.9-14.5,11.3
			c-6.2,0.4-12.5-3.2-15.7-9.2c-0.8-1.4-1.3-2.9-1.7-4.5c0.3,2.4,0.8,4.7,1.9,6.8c3.1,5.7,9.4,9.4,15.4,9
			C86.6,89.6,92.4,84.9,94.8,78.7z"/>
		<path class="st25" d="M89.5,75.7c0,3.7-3,6.8-6.8,6.8s-6.8-3-6.8-6.8c0-3.7,3-6.8,6.8-6.8S89.5,72,89.5,75.7z"/>
		<path class="st0" d="M82.9,73.3c0,1.2-1,2.2-2.2,2.2c-1.2,0-2.2-1-2.2-2.2s1-2.2,2.2-2.2C81.9,71,82.9,72,82.9,73.3z"/>
		<g>
			<path class="st0" d="M105.5,60.4c3.4-4.5,8.8-7.1,14.1-6.8c5.4,0.3,10.5,3.5,13.4,8.4c3.4,5.7,3.5,13.4,0.3,19.2
				c-3.2,5.8-9.5,9.4-15.7,9c-6.2-0.4-12.1-4.9-14.5-11.1C100.7,73,101.7,65.6,105.5,60.4z"/>
			<path class="st25" d="M105,60.1c0,0,0.3-0.4,0.8-1c0.2-0.3,0.5-0.7,1-1.2c0.5-0.4,0.9-1,1.6-1.5c1.2-1,2.9-2.1,4.9-2.9
				c2.1-0.8,4.7-1.2,7.4-0.9c0.3,0,0.6,0.1,1,0.1c0.3,0.1,0.7,0.2,1.1,0.3c0.4,0.1,0.7,0.2,1.1,0.3c0.3,0.1,0.7,0.3,1,0.4
				c0.3,0.1,0.7,0.3,1,0.4c0.3,0.2,0.7,0.4,1,0.6c0.7,0.4,1.3,0.8,1.9,1.3c2.5,1.9,4.7,4.5,5.9,7.6c1.3,3.2,1.7,6.7,1.3,10.2
				c-0.4,3.5-1.7,6.9-3.8,9.7c-2.2,2.8-5.1,4.9-8.4,6c-3.3,1.1-6.8,1.1-10,0.1c-3.2-1-5.8-2.9-7.8-5.2l-0.8-0.8
				c-0.2-0.3-0.4-0.6-0.6-0.9c-0.4-0.6-0.9-1.2-1.1-1.9c-0.3-0.7-0.7-1.2-0.9-1.9c-0.2-0.6-0.4-1.3-0.6-1.9
				c-0.6-2.6-0.8-5.1-0.6-7.2c0.1-1.1,0.3-2.1,0.5-3c0.3-0.9,0.5-1.7,0.8-2.5c0.3-0.7,0.6-1.3,0.9-1.9c0.2-0.6,0.6-1,0.8-1.3
				C104.8,60.4,105,60.1,105,60.1z M106,60.8c0,0.1-0.3,0.4-0.7,1c-0.2,0.3-0.5,0.7-0.7,1.2c-0.2,0.5-0.5,1.1-0.8,1.8
				c-0.2,0.7-0.5,1.5-0.7,2.3c-0.1,0.9-0.4,1.8-0.5,2.8c-0.2,2-0.1,4.4,0.5,6.8c0.2,0.6,0.4,1.2,0.6,1.9c0.2,0.6,0.5,1.2,0.8,1.8
				c0.3,0.6,0.7,1.2,1.1,1.8c0.2,0.3,0.4,0.6,0.6,0.9l0.7,0.8c1.9,2.2,4.4,4,7.4,5c3,1,6.3,1,9.5,0c3.1-1,6.1-3,8.1-5.7
				c2.1-2.7,3.1-6.1,3.3-9.4c0.2-3.3-0.5-6.6-1.8-9.3c-1.4-2.9-3.4-5-5.7-6.6c-0.6-0.4-1.1-0.8-1.7-1.1c-0.3-0.2-0.6-0.3-0.9-0.5
				c-0.3-0.1-0.6-0.2-0.9-0.3c-0.3-0.1-0.6-0.2-0.9-0.3c-0.3-0.1-0.6-0.1-0.9-0.2c-0.3-0.1-0.5-0.1-0.8-0.2c-0.3,0-0.7-0.1-1-0.1
				c-0.3,0-0.6-0.1-1-0.1c0.2,0,0,0,0.1,0c-0.1,0-0.2,0-0.2,0l-0.2,0l-0.4,0c-0.6,0-1.1,0-1.6,0.1c-1.1,0.1-2.1,0.4-3,0.5
				c-1.9,0.6-3.4,1.3-4.6,2.1c-0.6,0.3-1.1,0.8-1.5,1.1c-0.4,0.3-0.8,0.7-1.1,1C106.3,60.5,106.1,60.8,106,60.8z"/>
		</g>
		<path class="st25" d="M122.4,75.7c0,3.7-3,6.8-6.8,6.8c-3.7,0-6.8-3-6.8-6.8c0-3.7,3-6.8,6.8-6.8C119.4,69,122.4,72,122.4,75.7z"
			/>
		<path class="st0" d="M115.8,73.3c0,1.2-1,2.2-2.2,2.2c-1.2,0-2.2-1-2.2-2.2s1-2.2,2.2-2.2C114.8,71,115.8,72,115.8,73.3z"/>
		<path class="st26" d="M103.8,78.9c-0.6-1.5-0.9-3-1.1-4.6c0.2,0.7,0.4,1.5,0.7,2.2c2.4,6.2,8.2,10.6,14.3,11
			c6.2,0.4,12.4-3.2,15.5-8.9c0.7-1.4,1.3-2.9,1.7-4.4c-0.3,2.4-0.9,5-2,7c-3,5.6-9.2,8.8-15.2,8.4
			C111.8,89.2,106.2,84.9,103.8,78.9z"/>
	</g>
</g>
</svg>
